<svg width="16" height="16" viewBox="0 0 16 16" fill="none" xmlns="http://www.w3.org/2000/svg">
<path d="M13.5 5.5H14.5V7.5H13.5V5.5ZM1.5 5.5H2.5V7.5H1.5V5.5ZM10 10H11V11H10V10ZM5 10H6V11H5V10Z" fill="black"/>
<path d="M10.5 2H5.5C4.8372 2.00079 4.20178 2.26444 3.73311 2.73311C3.26444 3.20178 3.00079 3.8372 3 4.5V11.5C3.00026 11.7651 3.10571 12.0193 3.29319 12.2068C3.48066 12.3943 3.73486 12.4997 4 12.5V14H5V12.5H11V14H12V12.5C12.2651 12.4996 12.5192 12.3941 12.7067 12.2067C12.8941 12.0192 12.9996 11.7651 13 11.5V4.5C12.9992 3.8372 12.7356 3.20178 12.2669 2.73311C11.7982 2.26444 11.1628 2.00079 10.5 2ZM12 5V8H4V5H12ZM5.5 3H10.5C10.8092 3.00092 11.1106 3.09754 11.3627 3.27659C11.6148 3.45564 11.8053 3.70834 11.908 4H4.092C4.19473 3.70834 4.38522 3.45564 4.63733 3.27659C4.88943 3.09754 5.19078 3.00092 5.5 3ZM4 11.5V9H12.0005L12.001 11.5H4Z" fill="black"/>
</svg>
