<svg width="16" height="16" viewBox="0 0 16 16" fill="none" xmlns="http://www.w3.org/2000/svg">
<g clip-path="url(#clip0_109_10201)">
<path d="M8 2.13289C7.27893 2.12222 7.27893 3.21022 8 3.19956H9.6V4.54996L6.61013 7.03956L5.5712 4.26622H5.86667C6.58773 4.27689 6.58773 3.18889 5.86667 3.19956H3.73333C3.01227 3.18889 3.01227 4.27689 3.73333 4.26622H4.4288L5.3792 6.79956C4.86914 6.54006 4.30559 6.4031 3.73333 6.39956C1.67787 6.39956 0 8.07742 0 10.1329C0 12.1884 1.67787 13.8662 3.73333 13.8662C5.7888 13.8662 7.46667 12.1884 7.46667 10.1329C7.46667 9.41822 7.25333 8.75582 6.90133 8.18729L9.9104 5.68062L10.4043 6.91796C9.29067 7.56649 8.53333 8.75796 8.53333 10.1329C8.53333 12.1884 10.2112 13.8662 12.2667 13.8662C14.3221 13.8662 16 12.1884 16 10.1329C16 8.07742 14.3221 6.39956 12.2667 6.39956C11.9648 6.39956 11.6757 6.44542 11.3941 6.51369L10.6667 4.69502V2.66622C10.6667 2.52477 10.6105 2.38912 10.5105 2.2891C10.4104 2.18908 10.2748 2.13289 10.1333 2.13289H8ZM3.73333 7.46622C4.33735 7.46771 4.92267 7.67587 5.392 8.05609L3.392 9.72222C2.84693 10.1777 3.52853 10.9969 4.07467 10.5436L6.07467 8.87636C6.2752 9.25182 6.4 9.67636 6.4 10.1329C6.4 11.6124 5.2128 12.7996 3.73333 12.7996C2.25387 12.7996 1.06667 11.6124 1.06667 10.1329C1.06667 8.65342 2.25387 7.46622 3.73333 7.46622ZM12.2667 7.46622C13.7461 7.46622 14.9333 8.65342 14.9333 10.1329C14.9333 11.6124 13.7461 12.7996 12.2667 12.7996C10.7872 12.7996 9.6 11.6124 9.6 10.1329C9.59903 9.69114 9.70825 9.25613 9.91779 8.86724C10.1273 8.47834 10.4305 8.14785 10.8 7.90569L11.7707 10.3313C12.0331 10.9958 13.0293 10.598 12.7627 9.93449L11.7941 7.51316C11.9467 7.48756 12.1045 7.46622 12.2667 7.46622Z" fill="black"/>
</g>
<defs>
<clipPath id="clip0_109_10201">
<rect width="16" height="16" fill="white"/>
</clipPath>
</defs>
</svg>
