
<svg width="16" height="16" viewBox="0 0 16 16" fill="none" xmlns="http://www.w3.org/2000/svg">
<g clip-path="url(#clip0_1219_65)">
<path d="M13.7778 13.7773H2.22228C2.1044 13.7773 1.99136 13.8242 1.90801 13.9075C1.82466 13.9909 1.77783 14.1039 1.77783 14.2218C1.77783 14.3397 1.82466 14.4527 1.90801 14.5361C1.99136 14.6194 2.1044 14.6662 2.22228 14.6662H13.7778C13.8957 14.6662 14.0088 14.6194 14.0921 14.5361C14.1755 14.4527 14.2223 14.3397 14.2223 14.2218C14.2223 14.1039 14.1755 13.9909 14.0921 13.9075C14.0088 13.8242 13.8957 13.7773 13.7778 13.7773Z" fill="black"/>
<path d="M13.7778 13.7773H2.22228C2.1044 13.7773 1.99136 13.8242 1.90801 13.9075C1.82466 13.9909 1.77783 14.1039 1.77783 14.2218C1.77783 14.3397 1.82466 14.4527 1.90801 14.5361C1.99136 14.6194 2.1044 14.6662 2.22228 14.6662H13.7778C13.8957 14.6662 14.0088 14.6194 14.0921 14.5361C14.1755 14.4527 14.2223 14.3397 14.2223 14.2218C14.2223 14.1039 14.1755 13.9909 14.0921 13.9075C14.0088 13.8242 13.8957 13.7773 13.7778 13.7773Z" fill="black" fill-opacity="0.2"/>
<path d="M8.00001 13.1018L12.7156 8.38623C12.7884 8.30121 12.8264 8.19184 12.8221 8.07999C12.8178 7.96813 12.7714 7.86202 12.6923 7.78287C12.6131 7.70372 12.507 7.65735 12.3951 7.65303C12.2833 7.64871 12.1739 7.68675 12.0889 7.75957L8.44445 11.3996V2.22179C8.44445 2.10391 8.39763 1.99087 8.31428 1.90752C8.23093 1.82417 8.11788 1.77734 8.00001 1.77734C7.88213 1.77734 7.76909 1.82417 7.68574 1.90752C7.60239 1.99087 7.55556 2.10391 7.55556 2.22179V11.3996L3.91556 7.75957C3.87572 7.71304 3.82669 7.67525 3.77155 7.64858C3.71641 7.6219 3.65635 7.60691 3.59514 7.60455C3.53394 7.60218 3.4729 7.61249 3.41587 7.63484C3.35883 7.65718 3.30703 7.69107 3.26372 7.73439C3.22041 7.7777 3.18651 7.8295 3.16417 7.88653C3.14183 7.94357 3.13151 8.0046 3.13388 8.06581C3.13624 8.12702 3.15123 8.18708 3.17791 8.24222C3.20459 8.29736 3.24237 8.34639 3.2889 8.38623L8.00001 13.1018Z" fill="black"/>
<path d="M8.00001 13.1018L12.7156 8.38623C12.7884 8.30121 12.8264 8.19184 12.8221 8.07999C12.8178 7.96813 12.7714 7.86202 12.6923 7.78287C12.6131 7.70372 12.507 7.65735 12.3951 7.65303C12.2833 7.64871 12.1739 7.68675 12.0889 7.75957L8.44445 11.3996V2.22179C8.44445 2.10391 8.39763 1.99087 8.31428 1.90752C8.23093 1.82417 8.11788 1.77734 8.00001 1.77734C7.88213 1.77734 7.76909 1.82417 7.68574 1.90752C7.60239 1.99087 7.55556 2.10391 7.55556 2.22179V11.3996L3.91556 7.75957C3.87572 7.71304 3.82669 7.67525 3.77155 7.64858C3.71641 7.6219 3.65635 7.60691 3.59514 7.60455C3.53394 7.60218 3.4729 7.61249 3.41587 7.63484C3.35883 7.65718 3.30703 7.69107 3.26372 7.73439C3.22041 7.7777 3.18651 7.8295 3.16417 7.88653C3.14183 7.94357 3.13151 8.0046 3.13388 8.06581C3.13624 8.12702 3.15123 8.18708 3.17791 8.24222C3.20459 8.29736 3.24237 8.34639 3.2889 8.38623L8.00001 13.1018Z" fill="black" fill-opacity="0.2"/>
</g>
<defs>
<clipPath id="clip0_1219_65">
<rect width="16" height="16" fill="white"/>
</clipPath>
</defs>
</svg>
