<svg width="37" height="38" viewBox="0 0 37 38" fill="none" xmlns="http://www.w3.org/2000/svg">
<g opacity="0.25">
<path fill-rule="evenodd" clip-rule="evenodd" d="M18.5 36.3232C28.165 36.3232 36 28.4882 36 18.8232C36 9.15826 28.165 1.32324 18.5 1.32324C8.83502 1.32324 1 9.15826 1 18.8232C1 28.4882 8.83502 36.3232 18.5 36.3232Z" stroke="black" stroke-width="1.5"/>
<path fill-rule="evenodd" clip-rule="evenodd" d="M18.5 36.3232C28.165 36.3232 36 28.4882 36 18.8232C36 9.15826 28.165 1.32324 18.5 1.32324C8.83502 1.32324 1 9.15826 1 18.8232C1 28.4882 8.83502 36.3232 18.5 36.3232Z" stroke="black" stroke-opacity="0.2" stroke-width="1.5"/>
</g>
<g clip-path="url(#clip0_535_360)">
<path fill-rule="evenodd" clip-rule="evenodd" d="M16.3545 12.9447C17.0388 12.9132 17.2569 12.9062 18.9999 12.9062C20.7429 12.9062 20.9611 12.9138 21.6448 12.9447C22.3284 12.9757 22.7951 13.0848 23.2034 13.2428C23.631 13.4044 24.0189 13.657 24.3398 13.9837C24.6664 14.3039 24.9184 14.6912 25.0794 15.1194C25.2381 15.5278 25.3466 15.9944 25.3781 16.6769C25.4096 17.3623 25.4166 17.5805 25.4166 19.3229C25.4166 21.0659 25.409 21.2841 25.3781 21.9683C25.3472 22.6508 25.2381 23.1175 25.0794 23.5258C24.9184 23.9541 24.666 24.342 24.3398 24.6627C24.0189 24.9894 23.631 25.2414 23.2034 25.4024C22.7951 25.5611 22.3284 25.6696 21.6459 25.7011C20.9611 25.7326 20.7429 25.7396 18.9999 25.7396C17.2569 25.7396 17.0388 25.732 16.3545 25.7011C15.672 25.6702 15.2053 25.5611 14.797 25.4024C14.3688 25.2414 13.9808 24.989 13.6601 24.6627C13.3336 24.3423 13.081 23.9545 12.9198 23.5264C12.7618 23.1181 12.6533 22.6514 12.6218 21.9689C12.5903 21.2835 12.5833 21.0653 12.5833 19.3229C12.5833 17.5799 12.5908 17.3618 12.6218 16.6781C12.6527 15.9944 12.7618 15.5278 12.9198 15.1194C13.0813 14.6913 13.3341 14.3035 13.6607 13.9831C13.9809 13.6567 14.3685 13.4041 14.7964 13.2428C15.2048 13.0848 15.6714 12.9762 16.3539 12.9447H16.3545ZM21.5928 14.0997C20.9162 14.0688 20.7132 14.0624 18.9999 14.0624C17.2867 14.0624 17.0837 14.0688 16.407 14.0997C15.7811 14.1283 15.4416 14.2327 15.2153 14.3208C14.916 14.4375 14.7019 14.5758 14.4773 14.8003C14.2644 15.0074 14.1006 15.2596 13.9978 15.5382C13.9098 15.7646 13.8053 16.1041 13.7768 16.73C13.7458 17.4067 13.7394 17.6097 13.7394 19.3229C13.7394 21.0362 13.7458 21.2392 13.7768 21.9158C13.8053 22.5417 13.9098 22.8813 13.9978 23.1076C14.1005 23.3858 14.2644 23.6384 14.4773 23.8455C14.6844 24.0584 14.937 24.2223 15.2153 24.325C15.4416 24.4131 15.7811 24.5175 16.407 24.5461C17.0837 24.577 17.2861 24.5834 18.9999 24.5834C20.7138 24.5834 20.9162 24.577 21.5928 24.5461C22.2188 24.5175 22.5583 24.4131 22.7846 24.325C23.0838 24.2083 23.2979 24.0701 23.5225 23.8455C23.7354 23.6384 23.8993 23.3858 24.002 23.1076C24.0901 22.8813 24.1945 22.5417 24.2231 21.9158C24.254 21.2392 24.2604 21.0362 24.2604 19.3229C24.2604 17.6097 24.254 17.4067 24.2231 16.73C24.1945 16.1041 24.0901 15.7646 24.002 15.5382C23.8853 15.239 23.7471 15.0249 23.5225 14.8003C23.3154 14.5875 23.0632 14.4236 22.7846 14.3208C22.5583 14.2327 22.2188 14.1283 21.5928 14.0997ZM18.1803 21.301C18.6381 21.4915 19.1477 21.5173 19.6223 21.3738C20.0969 21.2303 20.5069 20.9265 20.7824 20.5142C21.0578 20.102 21.1816 19.6069 21.1326 19.1136C21.0836 18.6202 20.8648 18.1592 20.5137 17.8092C20.2898 17.5854 20.0191 17.4141 19.7211 17.3076C19.4231 17.201 19.1052 17.1619 18.7902 17.1929C18.4752 17.224 18.1711 17.3245 17.8996 17.4872C17.6282 17.65 17.3962 17.8709 17.2203 18.134C17.0445 18.3971 16.9292 18.696 16.8827 19.0091C16.8362 19.3221 16.8598 19.6416 16.9516 19.9445C17.0434 20.2473 17.2012 20.5261 17.4137 20.7607C17.6261 20.9952 17.888 21.1798 18.1803 21.301ZM16.6678 16.9907C16.974 16.6845 17.3376 16.4415 17.7378 16.2758C18.1379 16.11 18.5668 16.0247 18.9999 16.0247C19.433 16.0247 19.8619 16.11 20.2621 16.2758C20.6622 16.4415 21.0258 16.6845 21.3321 16.9907C21.6383 17.297 21.8813 17.6606 22.047 18.0608C22.2128 18.4609 22.2981 18.8898 22.2981 19.3229C22.2981 19.756 22.2128 20.1849 22.047 20.5851C21.8813 20.9852 21.6383 21.3488 21.3321 21.6551C20.7136 22.2736 19.8747 22.6211 18.9999 22.6211C18.1252 22.6211 17.2863 22.2736 16.6678 21.6551C16.0492 21.0366 15.7017 20.1976 15.7017 19.3229C15.7017 18.4482 16.0492 17.6093 16.6678 16.9907ZM23.0296 16.5159C23.1055 16.4443 23.1662 16.3582 23.2083 16.2627C23.2503 16.1672 23.2727 16.0643 23.2742 15.96C23.2758 15.8556 23.2563 15.7521 23.2171 15.6554C23.1779 15.5587 23.1197 15.4709 23.0459 15.3971C22.9721 15.3233 22.8843 15.2651 22.7876 15.2259C22.6909 15.1867 22.5874 15.1672 22.483 15.1688C22.3787 15.1703 22.2758 15.1927 22.1803 15.2347C22.0848 15.2768 21.9987 15.3375 21.9271 15.4134C21.7878 15.561 21.7116 15.7571 21.7146 15.96C21.7175 16.1628 21.7994 16.3566 21.9429 16.5001C22.0864 16.6436 22.2802 16.7255 22.483 16.7284C22.6859 16.7314 22.882 16.6552 23.0296 16.5159Z" fill="black"/>
<path fill-rule="evenodd" clip-rule="evenodd" d="M16.3545 12.9447C17.0388 12.9132 17.2569 12.9062 18.9999 12.9062C20.7429 12.9062 20.9611 12.9138 21.6448 12.9447C22.3284 12.9757 22.7951 13.0848 23.2034 13.2428C23.631 13.4044 24.0189 13.657 24.3398 13.9837C24.6664 14.3039 24.9184 14.6912 25.0794 15.1194C25.2381 15.5278 25.3466 15.9944 25.3781 16.6769C25.4096 17.3623 25.4166 17.5805 25.4166 19.3229C25.4166 21.0659 25.409 21.2841 25.3781 21.9683C25.3472 22.6508 25.2381 23.1175 25.0794 23.5258C24.9184 23.9541 24.666 24.342 24.3398 24.6627C24.0189 24.9894 23.631 25.2414 23.2034 25.4024C22.7951 25.5611 22.3284 25.6696 21.6459 25.7011C20.9611 25.7326 20.7429 25.7396 18.9999 25.7396C17.2569 25.7396 17.0388 25.732 16.3545 25.7011C15.672 25.6702 15.2053 25.5611 14.797 25.4024C14.3688 25.2414 13.9808 24.989 13.6601 24.6627C13.3336 24.3423 13.081 23.9545 12.9198 23.5264C12.7618 23.1181 12.6533 22.6514 12.6218 21.9689C12.5903 21.2835 12.5833 21.0653 12.5833 19.3229C12.5833 17.5799 12.5908 17.3618 12.6218 16.6781C12.6527 15.9944 12.7618 15.5278 12.9198 15.1194C13.0813 14.6913 13.3341 14.3035 13.6607 13.9831C13.9809 13.6567 14.3685 13.4041 14.7964 13.2428C15.2048 13.0848 15.6714 12.9762 16.3539 12.9447H16.3545ZM21.5928 14.0997C20.9162 14.0688 20.7132 14.0624 18.9999 14.0624C17.2867 14.0624 17.0837 14.0688 16.407 14.0997C15.7811 14.1283 15.4416 14.2327 15.2153 14.3208C14.916 14.4375 14.7019 14.5758 14.4773 14.8003C14.2644 15.0074 14.1006 15.2596 13.9978 15.5382C13.9098 15.7646 13.8053 16.1041 13.7768 16.73C13.7458 17.4067 13.7394 17.6097 13.7394 19.3229C13.7394 21.0362 13.7458 21.2392 13.7768 21.9158C13.8053 22.5417 13.9098 22.8813 13.9978 23.1076C14.1005 23.3858 14.2644 23.6384 14.4773 23.8455C14.6844 24.0584 14.937 24.2223 15.2153 24.325C15.4416 24.4131 15.7811 24.5175 16.407 24.5461C17.0837 24.577 17.2861 24.5834 18.9999 24.5834C20.7138 24.5834 20.9162 24.577 21.5928 24.5461C22.2188 24.5175 22.5583 24.4131 22.7846 24.325C23.0838 24.2083 23.2979 24.0701 23.5225 23.8455C23.7354 23.6384 23.8993 23.3858 24.002 23.1076C24.0901 22.8813 24.1945 22.5417 24.2231 21.9158C24.254 21.2392 24.2604 21.0362 24.2604 19.3229C24.2604 17.6097 24.254 17.4067 24.2231 16.73C24.1945 16.1041 24.0901 15.7646 24.002 15.5382C23.8853 15.239 23.7471 15.0249 23.5225 14.8003C23.3154 14.5875 23.0632 14.4236 22.7846 14.3208C22.5583 14.2327 22.2188 14.1283 21.5928 14.0997ZM18.1803 21.301C18.6381 21.4915 19.1477 21.5173 19.6223 21.3738C20.0969 21.2303 20.5069 20.9265 20.7824 20.5142C21.0578 20.102 21.1816 19.6069 21.1326 19.1136C21.0836 18.6202 20.8648 18.1592 20.5137 17.8092C20.2898 17.5854 20.0191 17.4141 19.7211 17.3076C19.4231 17.201 19.1052 17.1619 18.7902 17.1929C18.4752 17.224 18.1711 17.3245 17.8996 17.4872C17.6282 17.65 17.3962 17.8709 17.2203 18.134C17.0445 18.3971 16.9292 18.696 16.8827 19.0091C16.8362 19.3221 16.8598 19.6416 16.9516 19.9445C17.0434 20.2473 17.2012 20.5261 17.4137 20.7607C17.6261 20.9952 17.888 21.1798 18.1803 21.301ZM16.6678 16.9907C16.974 16.6845 17.3376 16.4415 17.7378 16.2758C18.1379 16.11 18.5668 16.0247 18.9999 16.0247C19.433 16.0247 19.8619 16.11 20.2621 16.2758C20.6622 16.4415 21.0258 16.6845 21.3321 16.9907C21.6383 17.297 21.8813 17.6606 22.047 18.0608C22.2128 18.4609 22.2981 18.8898 22.2981 19.3229C22.2981 19.756 22.2128 20.1849 22.047 20.5851C21.8813 20.9852 21.6383 21.3488 21.3321 21.6551C20.7136 22.2736 19.8747 22.6211 18.9999 22.6211C18.1252 22.6211 17.2863 22.2736 16.6678 21.6551C16.0492 21.0366 15.7017 20.1976 15.7017 19.3229C15.7017 18.4482 16.0492 17.6093 16.6678 16.9907ZM23.0296 16.5159C23.1055 16.4443 23.1662 16.3582 23.2083 16.2627C23.2503 16.1672 23.2727 16.0643 23.2742 15.96C23.2758 15.8556 23.2563 15.7521 23.2171 15.6554C23.1779 15.5587 23.1197 15.4709 23.0459 15.3971C22.9721 15.3233 22.8843 15.2651 22.7876 15.2259C22.6909 15.1867 22.5874 15.1672 22.483 15.1688C22.3787 15.1703 22.2758 15.1927 22.1803 15.2347C22.0848 15.2768 21.9987 15.3375 21.9271 15.4134C21.7878 15.561 21.7116 15.7571 21.7146 15.96C21.7175 16.1628 21.7994 16.3566 21.9429 16.5001C22.0864 16.6436 22.2802 16.7255 22.483 16.7284C22.6859 16.7314 22.882 16.6552 23.0296 16.5159Z" fill="black" fill-opacity="0.2"/>
</g>
<defs>
<clipPath id="clip0_535_360">
<rect width="14" height="14" fill="white" transform="translate(12 12.3232)"/>
</clipPath>
</defs>
</svg>
