<svg width="37" height="38" viewBox="0 0 37 38" fill="none" xmlns="http://www.w3.org/2000/svg">
<g opacity="0.25">
<path fill-rule="evenodd" clip-rule="evenodd" d="M18.5 36.3232C28.165 36.3232 36 28.4882 36 18.8232C36 9.15826 28.165 1.32324 18.5 1.32324C8.83502 1.32324 1 9.15826 1 18.8232C1 28.4882 8.83502 36.3232 18.5 36.3232Z" stroke="black" stroke-width="1.5"/>
<path fill-rule="evenodd" clip-rule="evenodd" d="M18.5 36.3232C28.165 36.3232 36 28.4882 36 18.8232C36 9.15826 28.165 1.32324 18.5 1.32324C8.83502 1.32324 1 9.15826 1 18.8232C1 28.4882 8.83502 36.3232 18.5 36.3232Z" stroke="black" stroke-opacity="0.2" stroke-width="1.5"/>
</g>
<path d="M14.4835 15.2903C15.3029 15.2903 15.9671 14.6261 15.9671 13.8068C15.9671 12.9874 15.3029 12.3232 14.4835 12.3232C13.6642 12.3232 13 12.9874 13 13.8068C13 14.6261 13.6642 15.2903 14.4835 15.2903Z" fill="black"/>
<path d="M14.4835 15.2903C15.3029 15.2903 15.9671 14.6261 15.9671 13.8068C15.9671 12.9874 15.3029 12.3232 14.4835 12.3232C13.6642 12.3232 13 12.9874 13 13.8068C13 14.6261 13.6642 15.2903 14.4835 15.2903Z" fill="black" fill-opacity="0.2"/>
<path d="M15.7198 16.2812H13.2473C13.1108 16.2812 13 16.392 13 16.5285V23.9463C13 24.0827 13.1108 24.1935 13.2473 24.1935H15.7198C15.8563 24.1935 15.9671 24.0827 15.9671 23.9463V16.5285C15.9671 16.392 15.8563 16.2812 15.7198 16.2812Z" fill="black"/>
<path d="M15.7198 16.2812H13.2473C13.1108 16.2812 13 16.392 13 16.5285V23.9463C13 24.0827 13.1108 24.1935 13.2473 24.1935H15.7198C15.8563 24.1935 15.9671 24.0827 15.9671 23.9463V16.5285C15.9671 16.392 15.8563 16.2812 15.7198 16.2812Z" fill="black" fill-opacity="0.2"/>
<path d="M23.088 15.8696C22.0313 15.5077 20.7094 15.8256 19.9167 16.3958C19.8895 16.2895 19.7926 16.2104 19.6774 16.2104H17.2048C17.0683 16.2104 16.9575 16.3211 16.9575 16.4576V23.8754C16.9575 24.0119 17.0683 24.1226 17.2048 24.1226H19.6774C19.8138 24.1226 19.9246 24.0119 19.9246 23.8754V18.5445C20.3242 18.2003 20.839 18.0905 21.2603 18.2695C21.6688 18.4421 21.9027 18.8634 21.9027 19.4247V23.8754C21.9027 24.0119 22.0135 24.1226 22.1499 24.1226H24.6225C24.759 24.1226 24.8698 24.0119 24.8698 23.8754V18.9267C24.8416 16.8948 23.8857 16.1426 23.088 15.8696Z" fill="black"/>
<path d="M23.088 15.8696C22.0313 15.5077 20.7094 15.8256 19.9167 16.3958C19.8895 16.2895 19.7926 16.2104 19.6774 16.2104H17.2048C17.0683 16.2104 16.9575 16.3211 16.9575 16.4576V23.8754C16.9575 24.0119 17.0683 24.1226 17.2048 24.1226H19.6774C19.8138 24.1226 19.9246 24.0119 19.9246 23.8754V18.5445C20.3242 18.2003 20.839 18.0905 21.2603 18.2695C21.6688 18.4421 21.9027 18.8634 21.9027 19.4247V23.8754C21.9027 24.0119 22.0135 24.1226 22.1499 24.1226H24.6225C24.759 24.1226 24.8698 24.0119 24.8698 23.8754V18.9267C24.8416 16.8948 23.8857 16.1426 23.088 15.8696Z" fill="black" fill-opacity="0.2"/>
</svg>
