<svg width="16" height="16" viewBox="0 0 16 16" fill="none" xmlns="http://www.w3.org/2000/svg">
<path d="M5.228 1.6936C4.396 1.4824 3.524 1.572 2.8408 1.9544C2.1448 2.3432 1.6568 3.0328 1.6328 3.9552C1.596 5.3968 1.9296 7.3312 3.2544 9.6016C4.5624 11.844 6.0064 13.188 7.2048 13.9864C7.9616 14.4912 8.7976 14.5048 9.512 14.176C10.216 13.852 10.7872 13.2048 11.084 12.4024C11.1579 12.2028 11.1875 11.9896 11.171 11.7775C11.1544 11.5653 11.092 11.3593 10.988 11.1736L10.2248 9.812C9.99019 9.39293 9.61262 9.07228 9.16108 8.90865C8.70955 8.74501 8.21421 8.74933 7.7656 8.9208L7.2328 9.1248C6.9744 9.2232 6.7368 9.1776 6.6024 9.0448C6.1504 8.6008 5.8272 7.9984 5.6808 7.3488C5.6344 7.144 5.7288 6.9024 5.9544 6.732L6.4352 6.3688C6.8239 6.07549 7.09224 5.65045 7.18988 5.17339C7.28753 4.69634 7.20779 4.20004 6.9656 3.7776L6.188 2.4216C6.08498 2.24207 5.9469 2.08511 5.78198 1.96004C5.61705 1.83497 5.42866 1.74436 5.228 1.6936ZM2.4328 3.9768C2.4488 3.3576 2.7624 2.9152 3.2312 2.6528C3.7128 2.3832 4.3704 2.3008 5.0312 2.4688C5.12802 2.49325 5.21894 2.53695 5.29852 2.59729C5.3781 2.65763 5.44471 2.73337 5.4944 2.82L6.2712 4.176C6.41649 4.42936 6.46439 4.72702 6.40592 5.01317C6.34745 5.29932 6.18663 5.55433 5.9536 5.7304L5.4728 6.0936C5.0568 6.4072 4.7688 6.9448 4.9 7.5248C5.0776 8.3104 5.4704 9.0552 6.0416 9.616C6.4592 10.0256 7.0544 10.0496 7.5184 9.872L8.0512 9.668C8.32039 9.56496 8.61768 9.56225 8.8887 9.66038C9.15972 9.7585 9.38637 9.9509 9.5272 10.2024L10.2896 11.5648C10.3856 11.736 10.4016 11.9408 10.3336 12.1248C10.1016 12.7528 9.6656 13.224 9.1776 13.4488C8.7 13.6688 8.16 13.6624 7.6488 13.3208C6.552 12.5896 5.1928 11.336 3.9448 9.1984C2.696 7.0544 2.4 5.2672 2.4336 3.9768H2.4328ZM10.1944 1.6504C10.1017 1.59884 9.99228 1.58623 9.89025 1.61533C9.78824 1.64444 9.70196 1.71288 9.6504 1.8056C9.59884 1.89832 9.58623 2.00772 9.61533 2.10974C9.64444 2.21176 9.71288 2.29804 9.8056 2.3496L10.1128 2.5208C11.0725 3.05392 11.8888 3.81148 12.4921 4.72872C13.0953 5.64597 13.4675 6.69563 13.5768 7.788L13.6024 8.04C13.6054 8.09393 13.6193 8.1467 13.6433 8.19511C13.6673 8.24353 13.7008 8.28658 13.7419 8.32168C13.7829 8.35679 13.8307 8.38321 13.8822 8.39935C13.9338 8.4155 13.9881 8.42103 14.0418 8.41563C14.0956 8.41022 14.1477 8.39398 14.195 8.36789C14.2423 8.3418 14.2838 8.3064 14.317 8.26382C14.3503 8.22124 14.3746 8.17237 14.3884 8.12015C14.4023 8.06793 14.4054 8.01345 14.3976 7.96L14.3728 7.7088C14.2507 6.48767 13.8348 5.31426 13.1605 4.28889C12.4862 3.26352 11.5736 2.41669 10.5008 1.8208L10.1944 1.6504ZM9.2568 3.7944C9.31144 3.70349 9.39996 3.63802 9.50287 3.61236C9.60579 3.58671 9.71468 3.60298 9.8056 3.6576L9.9048 3.7168C10.5506 4.10396 11.1045 4.62674 11.5284 5.24899C11.9524 5.87125 12.2361 6.57814 12.36 7.3208L12.3952 7.5344C12.4053 7.58678 12.4048 7.64064 12.3937 7.69282C12.3826 7.745 12.3613 7.79444 12.3308 7.83824C12.3004 7.88203 12.2615 7.91929 12.2164 7.94783C12.1713 7.97636 12.121 7.9956 12.0684 8.0044C12.0158 8.01321 11.962 8.0114 11.9101 7.99909C11.8582 7.98678 11.8093 7.96421 11.7662 7.93272C11.7232 7.90122 11.6868 7.86144 11.6594 7.8157C11.632 7.76996 11.6139 7.7192 11.6064 7.6664L11.5704 7.4528C11.4657 6.82451 11.2259 6.22644 10.8674 5.69992C10.509 5.17339 10.0405 4.73096 9.4944 4.4032L9.3952 4.3432C9.35012 4.3162 9.3108 4.28059 9.27949 4.2384C9.24818 4.19621 9.22549 4.14827 9.21271 4.0973C9.19993 4.04634 9.19732 3.99336 9.20502 3.94138C9.21272 3.88941 9.23059 3.83946 9.2576 3.7944H9.2568Z" fill="black"/>
<path d="M5.228 1.6936C4.396 1.4824 3.524 1.572 2.8408 1.9544C2.1448 2.3432 1.6568 3.0328 1.6328 3.9552C1.596 5.3968 1.9296 7.3312 3.2544 9.6016C4.5624 11.844 6.0064 13.188 7.2048 13.9864C7.9616 14.4912 8.7976 14.5048 9.512 14.176C10.216 13.852 10.7872 13.2048 11.084 12.4024C11.1579 12.2028 11.1875 11.9896 11.171 11.7775C11.1544 11.5653 11.092 11.3593 10.988 11.1736L10.2248 9.812C9.99019 9.39293 9.61262 9.07228 9.16108 8.90865C8.70955 8.74501 8.21421 8.74933 7.7656 8.9208L7.2328 9.1248C6.9744 9.2232 6.7368 9.1776 6.6024 9.0448C6.1504 8.6008 5.8272 7.9984 5.6808 7.3488C5.6344 7.144 5.7288 6.9024 5.9544 6.732L6.4352 6.3688C6.8239 6.07549 7.09224 5.65045 7.18988 5.17339C7.28753 4.69634 7.20779 4.20004 6.9656 3.7776L6.188 2.4216C6.08498 2.24207 5.9469 2.08511 5.78198 1.96004C5.61705 1.83497 5.42866 1.74436 5.228 1.6936ZM2.4328 3.9768C2.4488 3.3576 2.7624 2.9152 3.2312 2.6528C3.7128 2.3832 4.3704 2.3008 5.0312 2.4688C5.12802 2.49325 5.21894 2.53695 5.29852 2.59729C5.3781 2.65763 5.44471 2.73337 5.4944 2.82L6.2712 4.176C6.41649 4.42936 6.46439 4.72702 6.40592 5.01317C6.34745 5.29932 6.18663 5.55433 5.9536 5.7304L5.4728 6.0936C5.0568 6.4072 4.7688 6.9448 4.9 7.5248C5.0776 8.3104 5.4704 9.0552 6.0416 9.616C6.4592 10.0256 7.0544 10.0496 7.5184 9.872L8.0512 9.668C8.32039 9.56496 8.61768 9.56225 8.8887 9.66038C9.15972 9.7585 9.38637 9.9509 9.5272 10.2024L10.2896 11.5648C10.3856 11.736 10.4016 11.9408 10.3336 12.1248C10.1016 12.7528 9.6656 13.224 9.1776 13.4488C8.7 13.6688 8.16 13.6624 7.6488 13.3208C6.552 12.5896 5.1928 11.336 3.9448 9.1984C2.696 7.0544 2.4 5.2672 2.4336 3.9768H2.4328ZM10.1944 1.6504C10.1017 1.59884 9.99228 1.58623 9.89025 1.61533C9.78824 1.64444 9.70196 1.71288 9.6504 1.8056C9.59884 1.89832 9.58623 2.00772 9.61533 2.10974C9.64444 2.21176 9.71288 2.29804 9.8056 2.3496L10.1128 2.5208C11.0725 3.05392 11.8888 3.81148 12.4921 4.72872C13.0953 5.64597 13.4675 6.69563 13.5768 7.788L13.6024 8.04C13.6054 8.09393 13.6193 8.1467 13.6433 8.19511C13.6673 8.24353 13.7008 8.28658 13.7419 8.32168C13.7829 8.35679 13.8307 8.38321 13.8822 8.39935C13.9338 8.4155 13.9881 8.42103 14.0418 8.41563C14.0956 8.41022 14.1477 8.39398 14.195 8.36789C14.2423 8.3418 14.2838 8.3064 14.317 8.26382C14.3503 8.22124 14.3746 8.17237 14.3884 8.12015C14.4023 8.06793 14.4054 8.01345 14.3976 7.96L14.3728 7.7088C14.2507 6.48767 13.8348 5.31426 13.1605 4.28889C12.4862 3.26352 11.5736 2.41669 10.5008 1.8208L10.1944 1.6504ZM9.2568 3.7944C9.31144 3.70349 9.39996 3.63802 9.50287 3.61236C9.60579 3.58671 9.71468 3.60298 9.8056 3.6576L9.9048 3.7168C10.5506 4.10396 11.1045 4.62674 11.5284 5.24899C11.9524 5.87125 12.2361 6.57814 12.36 7.3208L12.3952 7.5344C12.4053 7.58678 12.4048 7.64064 12.3937 7.69282C12.3826 7.745 12.3613 7.79444 12.3308 7.83824C12.3004 7.88203 12.2615 7.91929 12.2164 7.94783C12.1713 7.97636 12.121 7.9956 12.0684 8.0044C12.0158 8.01321 11.962 8.0114 11.9101 7.99909C11.8582 7.98678 11.8093 7.96421 11.7662 7.93272C11.7232 7.90122 11.6868 7.86144 11.6594 7.8157C11.632 7.76996 11.6139 7.7192 11.6064 7.6664L11.5704 7.4528C11.4657 6.82451 11.2259 6.22644 10.8674 5.69992C10.509 5.17339 10.0405 4.73096 9.4944 4.4032L9.3952 4.3432C9.35012 4.3162 9.3108 4.28059 9.27949 4.2384C9.24818 4.19621 9.22549 4.14827 9.21271 4.0973C9.19993 4.04634 9.19732 3.99336 9.20502 3.94138C9.21272 3.88941 9.23059 3.83946 9.2576 3.7944H9.2568Z" fill="black" fill-opacity="0.2"/>
</svg>
