<svg width="16" height="16" viewBox="0 0 16 16" fill="none" xmlns="http://www.w3.org/2000/svg">
<path d="M8.00001 1.33398C6.59471 1.33391 5.24618 1.88849 4.2475 2.87718C3.24883 3.86587 2.68072 5.20876 2.66667 6.61398C2.66667 10.2673 7.36667 14.334 7.56667 14.5073C7.68743 14.6106 7.8411 14.6674 8.00001 14.6674C8.15891 14.6674 8.31258 14.6106 8.43334 14.5073C8.66667 14.334 13.3333 10.2673 13.3333 6.61398C13.3193 5.20876 12.7512 3.86587 11.7525 2.87718C10.7538 1.88849 9.4053 1.33391 8.00001 1.33398ZM8.00001 13.1007C6.88667 12.0407 4.00001 9.10065 4.00001 6.61398C4.00001 5.55312 4.42143 4.5357 5.17158 3.78556C5.92172 3.03541 6.93914 2.61398 8.00001 2.61398C9.06087 2.61398 10.0783 3.03541 10.8284 3.78556C11.5786 4.5357 12 5.55312 12 6.61398C12 9.08065 9.11334 12.0407 8.00001 13.1007Z" fill="black"/>
<path d="M8.00001 1.33398C6.59471 1.33391 5.24618 1.88849 4.2475 2.87718C3.24883 3.86587 2.68072 5.20876 2.66667 6.61398C2.66667 10.2673 7.36667 14.334 7.56667 14.5073C7.68743 14.6106 7.8411 14.6674 8.00001 14.6674C8.15891 14.6674 8.31258 14.6106 8.43334 14.5073C8.66667 14.334 13.3333 10.2673 13.3333 6.61398C13.3193 5.20876 12.7512 3.86587 11.7525 2.87718C10.7538 1.88849 9.4053 1.33391 8.00001 1.33398ZM8.00001 13.1007C6.88667 12.0407 4.00001 9.10065 4.00001 6.61398C4.00001 5.55312 4.42143 4.5357 5.17158 3.78556C5.92172 3.03541 6.93914 2.61398 8.00001 2.61398C9.06087 2.61398 10.0783 3.03541 10.8284 3.78556C11.5786 4.5357 12 5.55312 12 6.61398C12 9.08065 9.11334 12.0407 8.00001 13.1007Z" fill="black" fill-opacity="0.2"/>
<path d="M8.00001 4C7.53852 4 7.08739 4.13685 6.70368 4.39324C6.31996 4.64963 6.02089 5.01404 5.84429 5.44041C5.66768 5.86677 5.62147 6.33592 5.71151 6.78854C5.80154 7.24117 6.02377 7.65693 6.35009 7.98325C6.67641 8.30957 7.09217 8.5318 7.5448 8.62183C7.99742 8.71186 8.46657 8.66566 8.89293 8.48905C9.3193 8.31245 9.68371 8.01338 9.9401 7.62966C10.1965 7.24595 10.3333 6.79482 10.3333 6.33333C10.3333 5.71449 10.0875 5.121 9.64992 4.68342C9.21234 4.24583 8.61884 4 8.00001 4V4ZM8.00001 7.33333C7.80223 7.33333 7.60889 7.27468 7.44444 7.1648C7.27999 7.05492 7.15181 6.89874 7.07613 6.71602C7.00044 6.53329 6.98064 6.33222 7.01922 6.13824C7.05781 5.94426 7.15305 5.76608 7.2929 5.62623C7.43275 5.48637 7.61093 5.39113 7.80492 5.35255C7.9989 5.31396 8.19996 5.33377 8.38269 5.40945C8.56542 5.48514 8.72159 5.61331 8.83148 5.77776C8.94136 5.94221 9.00001 6.13555 9.00001 6.33333C9.00001 6.59855 8.89465 6.8529 8.70711 7.04044C8.51958 7.22798 8.26522 7.33333 8.00001 7.33333Z" fill="black"/>
<path d="M8.00001 4C7.53852 4 7.08739 4.13685 6.70368 4.39324C6.31996 4.64963 6.02089 5.01404 5.84429 5.44041C5.66768 5.86677 5.62147 6.33592 5.71151 6.78854C5.80154 7.24117 6.02377 7.65693 6.35009 7.98325C6.67641 8.30957 7.09217 8.5318 7.5448 8.62183C7.99742 8.71186 8.46657 8.66566 8.89293 8.48905C9.3193 8.31245 9.68371 8.01338 9.9401 7.62966C10.1965 7.24595 10.3333 6.79482 10.3333 6.33333C10.3333 5.71449 10.0875 5.121 9.64992 4.68342C9.21234 4.24583 8.61884 4 8.00001 4V4ZM8.00001 7.33333C7.80223 7.33333 7.60889 7.27468 7.44444 7.1648C7.27999 7.05492 7.15181 6.89874 7.07613 6.71602C7.00044 6.53329 6.98064 6.33222 7.01922 6.13824C7.05781 5.94426 7.15305 5.76608 7.2929 5.62623C7.43275 5.48637 7.61093 5.39113 7.80492 5.35255C7.9989 5.31396 8.19996 5.33377 8.38269 5.40945C8.56542 5.48514 8.72159 5.61331 8.83148 5.77776C8.94136 5.94221 9.00001 6.13555 9.00001 6.33333C9.00001 6.59855 8.89465 6.8529 8.70711 7.04044C8.51958 7.22798 8.26522 7.33333 8.00001 7.33333Z" fill="black" fill-opacity="0.2"/>
</svg>
