<svg width="16" height="16" viewBox="0 0 16 16" fill="none" xmlns="http://www.w3.org/2000/svg">
<g clip-path="url(#clip0_126_20788)">
<path d="M7.95561 7.68806C9.15561 7.68806 10.0889 6.71029 10.0889 5.51029C10.0889 4.31029 9.11117 3.37695 7.91116 3.37695C6.71117 3.37695 5.77783 4.35473 5.77783 5.51029C5.77783 6.71029 6.75561 7.68806 7.95561 7.68806ZM7.91116 4.26584C7.95561 4.26584 7.95561 4.26584 7.91116 4.26584C8.62228 4.26584 9.20005 4.84362 9.20005 5.55473C9.20005 6.26584 8.62228 6.79918 7.91116 6.79918C7.20005 6.79918 6.66672 6.2214 6.66672 5.55473C6.66672 4.84362 7.2445 4.26584 7.91116 4.26584Z" fill="black"/>
<path d="M14.5333 7.42305C13.6888 6.66749 12.5777 6.26749 11.4222 6.31194H11.0666C10.9777 6.66749 10.8444 6.9786 10.6666 7.24527C10.9333 7.20083 11.1555 7.20083 11.4222 7.20083C12.2666 7.15638 13.1111 7.42305 13.7777 7.91194V11.1119H14.6666V7.55638L14.5333 7.42305Z" fill="black"/>
<path d="M10.4001 3.46571C10.6223 2.93238 11.2445 2.66571 11.8223 2.88793C12.3556 3.11016 12.6223 3.73238 12.4001 4.31016C12.2223 4.71016 11.8223 4.97682 11.4223 4.97682C11.3334 4.97682 11.2001 4.97682 11.1112 4.93238C11.1556 5.1546 11.1556 5.37682 11.1556 5.5546V5.82127C11.2445 5.82127 11.3334 5.86571 11.4223 5.86571C12.5334 5.86571 13.4223 4.97682 13.4223 3.91016C13.4223 2.79905 12.5334 1.91016 11.4667 1.91016C10.7556 1.91016 10.1334 2.26571 9.77783 2.88793C10.0001 3.02127 10.2223 3.19905 10.4001 3.46571Z" fill="black"/>
<path d="M5.33337 7.28825C5.1556 7.02158 5.02226 6.71047 4.93337 6.35491H4.57782C3.42226 6.31047 2.31115 6.71047 1.46671 7.42158L1.33337 7.55491V11.1105H2.22226V7.91047C2.93337 7.42158 3.73337 7.15491 4.57782 7.19936C4.84449 7.19936 5.11115 7.2438 5.33337 7.28825Z" fill="black"/>
<path d="M4.57774 5.82273C4.66663 5.82273 4.75552 5.82273 4.84441 5.77828V5.51162C4.84441 5.28939 4.84441 5.06717 4.88885 4.88939C4.79997 4.93384 4.66663 4.93384 4.57774 4.93384C3.99997 4.93384 3.51108 4.44495 3.51108 3.86717C3.51108 3.28939 3.99997 2.8005 4.57774 2.8005C5.02219 2.8005 5.42219 3.06717 5.59997 3.46717C5.77774 3.24495 6.04441 3.02273 6.26663 2.84495C5.68885 1.91162 4.48885 1.6005 3.55552 2.17828C2.62219 2.75606 2.31108 3.95606 2.88885 4.88939C3.24441 5.46717 3.86663 5.82273 4.57774 5.82273Z" fill="black"/>
<path d="M11.6 10.0882L11.5111 9.95491C10.6222 8.97713 9.37779 8.39935 8.04446 8.4438C6.71112 8.39935 5.42224 8.97713 4.53335 9.95491L4.44446 10.0882V13.466C4.44446 13.866 4.75557 14.2216 5.20001 14.2216H10.8889C11.2889 14.2216 11.6445 13.866 11.6445 13.466V10.0882H11.6ZM10.7111 13.3327H5.33335V10.3994C6.04446 9.68824 7.02224 9.33269 8.04446 9.33269C9.02224 9.28824 10 9.68824 10.7111 10.3994V13.3327Z" fill="black"/>
</g>
<defs>
<clipPath id="clip0_126_20788">
<rect width="16" height="16" fill="white"/>
</clipPath>
</defs>
</svg>
