<svg width="16" height="16" viewBox="0 0 16 16" fill="none" xmlns="http://www.w3.org/2000/svg">
<path d="M7.99993 1.33398C4.32393 1.33398 1.33327 4.32465 1.33327 8.00065C1.33327 11.6767 4.32393 14.6673 7.99993 14.6673C11.6759 14.6673 14.6666 11.6767 14.6666 8.00065C14.6666 4.32465 11.6759 1.33398 7.99993 1.33398ZM7.99993 13.334C5.05927 13.334 2.6666 10.9413 2.6666 8.00065C2.6666 5.05998 5.05927 2.66732 7.99993 2.66732C10.9406 2.66732 13.3333 5.05998 13.3333 8.00065C13.3333 10.9413 10.9406 13.334 7.99993 13.334Z" fill="black"/>
<path d="M7.99993 1.33398C4.32393 1.33398 1.33327 4.32465 1.33327 8.00065C1.33327 11.6767 4.32393 14.6673 7.99993 14.6673C11.6759 14.6673 14.6666 11.6767 14.6666 8.00065C14.6666 4.32465 11.6759 1.33398 7.99993 1.33398ZM7.99993 13.334C5.05927 13.334 2.6666 10.9413 2.6666 8.00065C2.6666 5.05998 5.05927 2.66732 7.99993 2.66732C10.9406 2.66732 13.3333 5.05998 13.3333 8.00065C13.3333 10.9413 10.9406 13.334 7.99993 13.334Z" fill="black" fill-opacity="0.2"/>
<path d="M8.6666 4.66602H7.33327V8.27535L9.5286 10.4707L10.4713 9.52802L8.6666 7.72335V4.66602Z" fill="black"/>
<path d="M8.6666 4.66602H7.33327V8.27535L9.5286 10.4707L10.4713 9.52802L8.6666 7.72335V4.66602Z" fill="black" fill-opacity="0.2"/>
</svg>
