<svg width="56" height="56" viewBox="0 0 56 56" fill="currentColor" xmlns="http://www.w3.org/2000/svg">
<path d="M28.0001 49.0004C25.0529 46.4865 22.3212 43.7306 19.8334 40.7614C16.1001 36.3024 11.6668 29.6617 11.6668 23.3337C11.6651 20.102 12.6223 16.9424 14.417 14.2548C16.2118 11.5672 18.7635 9.47245 21.7492 8.23564C24.735 6.99883 28.0205 6.67555 31.19 7.30672C34.3595 7.9379 37.2706 9.49514 39.5548 11.7814C41.0755 13.2954 42.2809 15.096 43.1012 17.0789C43.9214 19.0619 44.3402 21.1878 44.3334 23.3337C44.3334 29.6617 39.9001 36.3024 36.1668 40.7614C33.679 43.7306 30.9472 46.4865 28.0001 49.0004ZM28.0001 16.3337C26.1436 16.3337 24.3631 17.0712 23.0503 18.384C21.7376 19.6967 21.0001 21.4772 21.0001 23.3337C21.0001 25.1902 21.7376 26.9707 23.0503 28.2835C24.3631 29.5962 26.1436 30.3337 28.0001 30.3337C29.8566 30.3337 31.6371 29.5962 32.9498 28.2835C34.2626 26.9707 35.0001 25.1902 35.0001 23.3337C35.0001 21.4772 34.2626 19.6967 32.9498 18.384C31.6371 17.0712 29.8566 16.3337 28.0001 16.3337Z" fill="#E68176"/>
</svg>
