<svg width="16" height="16" viewBox="0 0 16 16" fill="none" xmlns="http://www.w3.org/2000/svg">
<g clip-path="url(#clip0_109_10203)">
<path d="M15.8978 3.6273C15.8637 3.411 15.7647 3.21016 15.6139 3.05141C15.4631 2.89266 15.2676 2.7835 15.0533 2.73841L12.4445 2.16507C12.1647 2.10406 11.8751 2.10383 11.5952 2.1644C11.3153 2.22498 11.0517 2.34494 10.8222 2.51619L3.11112 8.13396L0.951118 8.04507C0.77748 8.03886 0.606298 8.08751 0.461886 8.18412C0.317473 8.28074 0.207173 8.42039 0.146651 8.58326C0.0861296 8.74613 0.0784635 8.92392 0.124742 9.0914C0.171021 9.25887 0.268891 9.4075 0.404451 9.51619L2.62667 11.2629C2.89334 11.5873 3.07112 11.5251 7.48445 9.12063L7.89779 13.3073C7.90466 13.4215 7.94381 13.5314 8.01069 13.6243C8.07756 13.7171 8.16941 13.789 8.27556 13.8317C8.35194 13.8619 8.43344 13.877 8.51556 13.8762C8.68086 13.8711 8.83874 13.8064 8.96001 13.694L10.0222 12.7251C10.128 12.6271 10.1996 12.4978 10.2267 12.3562L11.2 7.0673C12.7867 6.17841 14.2889 5.34285 15.36 4.73396C15.5516 4.62617 15.7058 4.46246 15.8019 4.2647C15.898 4.06695 15.9315 3.84457 15.8978 3.6273ZM14.92 3.96063C13.8089 4.59174 12.2533 5.47619 10.5822 6.39174L10.4 6.49396L9.36445 12.1251L8.71112 12.7206L8.22223 7.69841L7.63112 8.00063C4.44445 9.77841 3.38223 10.294 3.01778 10.454L1.10667 8.93841L3.36445 9.03619L11.3645 3.23174C11.4902 3.13773 11.6344 3.07132 11.7875 3.03686C11.9407 3.00239 12.0994 3.00065 12.2533 3.03174L14.8533 3.59174C14.8934 3.599 14.9301 3.61887 14.9581 3.64845C14.9861 3.67803 15.0039 3.71578 15.0089 3.75619C15.018 3.79529 15.0143 3.8363 14.9983 3.87313C14.9823 3.90996 14.9548 3.94065 14.92 3.96063Z" fill="black"/>
<path d="M3.11111 5.5741L4.69333 6.01854L5.42222 5.48965L3.64444 4.9741L4.44444 4.48521L6.87555 4.4141L7.89777 3.67188L4.44444 3.77854C4.33557 3.77265 4.22737 3.79893 4.13333 3.8541L2.96444 4.5341C2.8678 4.59134 2.79027 4.67592 2.74163 4.77716C2.69298 4.8784 2.67539 4.99177 2.69108 5.10299C2.70676 5.21421 2.75502 5.3183 2.82977 5.40214C2.90451 5.48597 3.00241 5.54581 3.11111 5.5741Z" fill="black"/>
</g>
<defs>
<clipPath id="clip0_109_10203">
<rect width="16" height="16" fill="white"/>
</clipPath>
</defs>
</svg>
