<svg width="16" height="16" viewBox="0 0 16 16" fill="none" xmlns="http://www.w3.org/2000/svg">
<g clip-path="url(#clip0_109_10199)">
<path d="M5.86666 0C5.86666 0 5.06666 0 4.8 1.06667L3.2 6.93333V10.6667C3.2 11.7333 4.26666 11.7333 4.26666 11.7333H11.7333C11.7333 11.7333 12.8 11.7333 12.8 10.6667V6.93333L11.2 1.06667C10.9088 0 10.1333 0 10.1333 0H5.86666ZM6.93333 1.6H9.06666C9.06666 1.6 9.6384 1.6 9.86666 2.66667L10.6667 6.4C10.896 7.4688 9.6 7.46667 9.6 7.46667H6.4C6.4 7.46667 5.104 7.4688 5.33333 6.4L6.13333 2.66667C6.3616 1.6 6.93333 1.6 6.93333 1.6ZM5.33333 8.53333C5.61623 8.53333 5.88754 8.64571 6.08758 8.84575C6.28762 9.04579 6.4 9.3171 6.4 9.6C6.4 9.8829 6.28762 10.1542 6.08758 10.3542C5.88754 10.5543 5.61623 10.6667 5.33333 10.6667C5.05043 10.6667 4.77912 10.5543 4.57908 10.3542C4.37904 10.1542 4.26666 9.8829 4.26666 9.6C4.26666 9.3171 4.37904 9.04579 4.57908 8.84575C4.77912 8.64571 5.05043 8.53333 5.33333 8.53333ZM7.2 8.53333H8.8C8.87072 8.53333 8.93855 8.56143 8.98856 8.61144C9.03857 8.66145 9.06666 8.72928 9.06666 8.8C9.06666 8.87072 9.03857 8.93855 8.98856 8.98856C8.93855 9.03857 8.87072 9.06667 8.8 9.06667H7.2C7.12927 9.06667 7.06144 9.03857 7.01144 8.98856C6.96143 8.93855 6.93333 8.87072 6.93333 8.8C6.93333 8.72928 6.96143 8.66145 7.01144 8.61144C7.06144 8.56143 7.12927 8.53333 7.2 8.53333ZM10.6667 8.53333C10.9496 8.53333 11.2209 8.64571 11.4209 8.84575C11.6209 9.04579 11.7333 9.3171 11.7333 9.6C11.7333 9.8829 11.6209 10.1542 11.4209 10.3542C11.2209 10.5543 10.9496 10.6667 10.6667 10.6667C10.3838 10.6667 10.1125 10.5543 9.91242 10.3542C9.71238 10.1542 9.6 9.8829 9.6 9.6C9.6 9.3171 9.71238 9.04579 9.91242 8.84575C10.1125 8.64571 10.3838 8.53333 10.6667 8.53333ZM4.4 12.8L3.2 16H4.8L5.2 14.9333H10.8L11.2 16H12.8L11.6 12.8H10L10.4 13.8667H5.6L6 12.8H4.4Z" fill="black"/>
</g>
<defs>
<clipPath id="clip0_109_10199">
<rect width="16" height="16" fill="white"/>
</clipPath>
</defs>
</svg>
