<svg width="16" height="16" viewBox="0 0 16 16" fill="none" xmlns="http://www.w3.org/2000/svg">
<mask id="path-1-inside-1_109_10216" fill="white">
<path fill-rule="evenodd" clip-rule="evenodd" d="M7.67299 14C10.7106 14 13.173 11.5376 13.173 8.5C13.173 5.46243 10.7106 3 7.67299 3C4.63542 3 2.17299 5.46243 2.17299 8.5C2.17299 11.5376 4.63542 14 7.67299 14ZM7.67301 11.6805C9.42933 11.6805 10.8531 10.2567 10.8531 8.50041C10.8531 6.74409 9.42933 5.32031 7.67301 5.32031C5.91669 5.32031 4.49291 6.74409 4.49291 8.50041C4.49291 10.2567 5.91669 11.6805 7.67301 11.6805Z"/>
</mask>
<path fill-rule="evenodd" clip-rule="evenodd" d="M7.67299 14C10.7106 14 13.173 11.5376 13.173 8.5C13.173 5.46243 10.7106 3 7.67299 3C4.63542 3 2.17299 5.46243 2.17299 8.5C2.17299 11.5376 4.63542 14 7.67299 14ZM7.67301 11.6805C9.42933 11.6805 10.8531 10.2567 10.8531 8.50041C10.8531 6.74409 9.42933 5.32031 7.67301 5.32031C5.91669 5.32031 4.49291 6.74409 4.49291 8.50041C4.49291 10.2567 5.91669 11.6805 7.67301 11.6805Z" fill="#FFFBF5"/>
<path d="M12.173 8.5C12.173 10.9853 10.1583 13 7.67299 13V15C11.2628 15 14.173 12.0899 14.173 8.5H12.173ZM7.67299 4C10.1583 4 12.173 6.01472 12.173 8.5H14.173C14.173 4.91015 11.2628 2 7.67299 2V4ZM3.17299 8.5C3.17299 6.01472 5.18771 4 7.67299 4V2C4.08314 2 1.17299 4.91015 1.17299 8.5H3.17299ZM7.67299 13C5.18771 13 3.17299 10.9853 3.17299 8.5H1.17299C1.17299 12.0899 4.08314 15 7.67299 15V13ZM9.8531 8.50041C9.8531 9.70444 8.87704 10.6805 7.67301 10.6805V12.6805C9.98161 12.6805 11.8531 10.809 11.8531 8.50041H9.8531ZM7.67301 6.32031C8.87704 6.32031 9.8531 7.29637 9.8531 8.50041H11.8531C11.8531 6.1918 9.98161 4.32031 7.67301 4.32031V6.32031ZM5.49291 8.50041C5.49291 7.29637 6.46897 6.32031 7.67301 6.32031V4.32031C5.3644 4.32031 3.49291 6.1918 3.49291 8.50041H5.49291ZM7.67301 10.6805C6.46897 10.6805 5.49291 9.70444 5.49291 8.50041H3.49291C3.49291 10.809 5.3644 12.6805 7.67301 12.6805V10.6805Z" fill="black" mask="url(#path-1-inside-1_109_10216)"/>
<path d="M12.173 8.5C12.173 10.9853 10.1583 13 7.67299 13V15C11.2628 15 14.173 12.0899 14.173 8.5H12.173ZM7.67299 4C10.1583 4 12.173 6.01472 12.173 8.5H14.173C14.173 4.91015 11.2628 2 7.67299 2V4ZM3.17299 8.5C3.17299 6.01472 5.18771 4 7.67299 4V2C4.08314 2 1.17299 4.91015 1.17299 8.5H3.17299ZM7.67299 13C5.18771 13 3.17299 10.9853 3.17299 8.5H1.17299C1.17299 12.0899 4.08314 15 7.67299 15V13ZM9.8531 8.50041C9.8531 9.70444 8.87704 10.6805 7.67301 10.6805V12.6805C9.98161 12.6805 11.8531 10.809 11.8531 8.50041H9.8531ZM7.67301 6.32031C8.87704 6.32031 9.8531 7.29637 9.8531 8.50041H11.8531C11.8531 6.1918 9.98161 4.32031 7.67301 4.32031V6.32031ZM5.49291 8.50041C5.49291 7.29637 6.46897 6.32031 7.67301 6.32031V4.32031C5.3644 4.32031 3.49291 6.1918 3.49291 8.50041H5.49291ZM7.67301 10.6805C6.46897 10.6805 5.49291 9.70444 5.49291 8.50041H3.49291C3.49291 10.809 5.3644 12.6805 7.67301 12.6805V10.6805Z" fill="black" fill-opacity="0.2" mask="url(#path-1-inside-1_109_10216)"/>
<mask id="path-3-inside-2_109_10216" fill="white">
<rect x="1" y="7.04102" width="13.346" height="2.89336" rx="0.260664"/>
</mask>
<rect x="1" y="7.04102" width="13.346" height="2.89336" rx="0.260664" fill="#FFFBF5"/>
<rect x="1" y="7.04102" width="13.346" height="2.89336" rx="0.260664" stroke="black" stroke-width="2" mask="url(#path-3-inside-2_109_10216)"/>
<rect x="1" y="7.04102" width="13.346" height="2.89336" rx="0.260664" stroke="black" stroke-opacity="0.2" stroke-width="2" mask="url(#path-3-inside-2_109_10216)"/>
</svg>
