<svg width="480" height="138" viewBox="0 0 480 138" fill="none" xmlns="http://www.w3.org/2000/svg">
<g clip-path="url(#clip0_104_7322)">
<path d="M38.6323 59.9053V1.77148H50.5144V25.1084H55.9046C69.1304 25.1084 75.4524 13.5661 75.4524 1.77148H87.8391C87.8391 14.328 82.279 24.0993 73.0122 29.9117C83.3756 35.3019 89.78 45.9227 89.78 59.9053H77.1411C77.1411 46.1698 69.7276 36.2286 56.8365 36.2286H50.5144V59.9053H38.6323Z" fill="#FFFBF6"/>
<path d="M115.892 59.9053V1.77148H128.108L153.721 40.8671V1.77148H165.515V59.9053H153.129L127.681 21.2318V59.9053H115.887H115.892Z" fill="#FFFBF6"/>
<path d="M251.136 30.7555C251.136 47.8579 237.318 61.511 220.38 61.511C203.442 61.511 189.712 47.8631 189.712 30.7555C189.712 13.6479 203.448 0 220.468 0C237.488 0 251.136 13.6479 251.136 30.7555ZM239.089 30.7555C239.089 19.8001 230.496 11.1253 220.385 11.1253C210.274 11.1253 201.764 19.8052 201.764 30.7555C201.764 41.7058 210.357 50.3033 220.385 50.3033C230.414 50.3033 239.089 41.7109 239.089 30.7555Z" fill="#FFFBF6"/>
<path d="M284.393 59.9053V12.7218H268.3V1.77148H312.451V12.7218H296.188V59.9053H284.393Z" fill="#FFFBF6"/>
<path d="M336.951 59.9053V1.77148H376.804V13.1439H348.746V25.6129H373.684V35.8939H348.746V48.5328H377.648V59.9053H336.951Z" fill="#FFFBF6"/>
<path d="M441.43 60.0646H434.685C425.089 60.0646 417.084 56.1107 411.534 48.6252C406.921 42.4061 404.378 34.0557 404.357 25.0978C404.321 24.0579 404.089 15.9443 404.357 1.66309L416.126 1.88446C415.848 16.5363 416.126 24.7117 416.126 24.7941V24.9948C416.126 42.1899 426.129 48.2957 434.685 48.2957H441.43V60.0646Z" fill="#FFFBF6"/>
<path d="M59.6113 136.279H55.4824L38.7455 91.8034L21.9314 136.279H17.8026L0 83.5508H5.12248L20.0266 127.954L36.6863 83.8597H40.7379L57.4748 128.031L72.8371 83.5559H77.9596L59.6165 136.289L59.6113 136.279Z" fill="#FFFBF6"/>
<path d="M115.779 82.0215C131.141 82.0215 143.522 95.0877 143.522 109.992C143.522 124.896 131.141 137.962 115.779 137.962C100.416 137.962 87.9626 124.968 87.9626 109.992C87.9626 95.0156 100.344 82.0215 115.779 82.0215ZM115.779 86.7579C103.093 86.7579 92.699 97.2293 92.699 109.992C92.699 122.754 103.093 133.226 115.779 133.226C128.464 133.226 138.781 122.754 138.781 109.992C138.781 97.2293 128.387 86.7579 115.779 86.7579Z" fill="#FFFBF6"/>
<path d="M187.004 114.656C194.495 119.243 198.773 126.883 198.773 136.438H194.037C194.037 124.592 186.469 115.572 174.319 115.572H163.621V136.361H158.885V83.5557H181.887C191.056 83.5557 198.701 90.5881 198.701 99.4534C198.701 106.635 193.578 112.448 187.009 114.661L187.004 114.656ZM181.882 110.836C188.682 110.836 193.954 105.714 193.954 99.6027C193.954 93.4917 188.682 88.292 181.882 88.292H163.616V110.836H181.882Z" fill="#FFFBF6"/>
<path d="M213.595 83.628H218.331V108.082H224.37C238.507 108.082 248.366 97.0031 248.366 83.5508H253.102C253.102 94.9387 246.837 104.875 237.204 109.688C248.283 113.663 254.935 124.134 254.935 136.361H250.199C250.199 123.063 241.488 112.824 227.5 112.824H218.331V136.361H213.595V83.628Z" fill="#FFFBF6"/>
<path d="M270.225 110.681C270.225 122.986 277.942 132.155 291.014 132.69C300.795 133.071 309.125 127.799 311.802 117.637L312.034 116.875L316.621 118.1L316.389 118.862C313.105 131.321 302.556 137.967 290.787 137.432C274.817 136.819 265.494 125.05 265.494 110.681C265.494 96.3128 274.817 82.4795 292.013 82.4795C302.175 82.4795 311.195 88.3639 315.473 97.8418L315.777 98.6037L311.421 100.514L311.118 99.8239C307.601 92.0294 300.265 87.2159 292.013 87.2159C278.179 87.2159 270.23 97.8366 270.23 110.676L270.225 110.681Z" fill="#FFFBF6"/>
<path d="M337.399 131.543H365.905V136.279H332.663V83.5459H337.399V131.538V131.543Z" fill="#FFFBF6"/>
<path d="M419.169 118.703C419.169 129.401 410 137.731 398.993 137.731C387.986 137.731 378.894 129.401 378.894 118.703V83.5508H383.63V118.703C383.63 126.575 390.431 133.149 398.993 133.149C407.554 133.149 414.432 126.575 414.432 118.703V83.5508H419.169V118.703Z" fill="#FFFBF6"/>
<path d="M436.518 83.4727H460.514C469.076 83.4727 476.18 89.5115 476.18 97.7641C476.18 102.351 474.038 106.094 470.677 108.771C476.026 110.913 480 115.417 480 121.837C480 130.399 472.89 136.432 463.876 136.432H436.518V83.4727ZM460.514 107.391C467.011 107.391 471.444 103.113 471.444 97.8362C471.444 92.5593 466.857 88.209 460.514 88.209H441.255V107.391H460.514ZM463.876 131.696C470.677 131.696 475.264 127.418 475.264 121.837C475.264 116.257 470.45 112.133 463.876 112.133H441.255V131.696H463.876Z" fill="#FFFBF6"/>
</g>
<defs>
<clipPath id="clip0_104_7322">
<rect width="480" height="137.962" fill="white"/>
</clipPath>
</defs>
</svg>
