<svg width="16" height="16" viewBox="0 0 16 16" fill="none" xmlns="http://www.w3.org/2000/svg">
<g clip-path="url(#clip0_109_20386)">
<path d="M13.75 14.5V0.5H2.25V14.5H0.5V15.5H15.5V14.5H13.75ZM12.75 14.5H8.5V12.5H7.5V14.5H3.25V1.5H12.75V14.5Z" fill="black"/>
<path d="M13.75 14.5V0.5H2.25V14.5H0.5V15.5H15.5V14.5H13.75ZM12.75 14.5H8.5V12.5H7.5V14.5H3.25V1.5H12.75V14.5Z" fill="black" fill-opacity="0.2"/>
<path d="M5 9.5H6V10.5H5V9.5ZM7.5 9.5H8.5V10.5H7.5V9.5ZM10 9.5H11V10.5H10V9.5ZM5 6.5H6V7.5H5V6.5ZM7.5 6.5H8.5V7.5H7.5V6.5ZM10 6.5H11V7.5H10V6.5ZM5 3.5H6V4.5H5V3.5ZM7.5 3.5H8.5V4.5H7.5V3.5ZM10 3.5H11V4.5H10V3.5Z" fill="black"/>
<path d="M5 9.5H6V10.5H5V9.5ZM7.5 9.5H8.5V10.5H7.5V9.5ZM10 9.5H11V10.5H10V9.5ZM5 6.5H6V7.5H5V6.5ZM7.5 6.5H8.5V7.5H7.5V6.5ZM10 6.5H11V7.5H10V6.5ZM5 3.5H6V4.5H5V3.5ZM7.5 3.5H8.5V4.5H7.5V3.5ZM10 3.5H11V4.5H10V3.5Z" fill="black" fill-opacity="0.2"/>
</g>
<defs>
<clipPath id="clip0_109_20386">
<rect width="16" height="16" fill="white"/>
</clipPath>
</defs>
</svg>
