<svg width="37" height="38" viewBox="0 0 37 38" fill="none" xmlns="http://www.w3.org/2000/svg">
<g opacity="0.25">
<path fill-rule="evenodd" clip-rule="evenodd" d="M18.5 36.3232C28.165 36.3232 36 28.4882 36 18.8232C36 9.15826 28.165 1.32324 18.5 1.32324C8.83502 1.32324 1 9.15826 1 18.8232C1 28.4882 8.83502 36.3232 18.5 36.3232Z" stroke="black" stroke-width="1.5"/>
<path fill-rule="evenodd" clip-rule="evenodd" d="M18.5 36.3232C28.165 36.3232 36 28.4882 36 18.8232C36 9.15826 28.165 1.32324 18.5 1.32324C8.83502 1.32324 1 9.15826 1 18.8232C1 28.4882 8.83502 36.3232 18.5 36.3232Z" stroke="black" stroke-opacity="0.2" stroke-width="1.5"/>
</g>
<path d="M24.2202 15.5879C24.139 15.4961 24.0081 15.4731 23.9007 15.5297C23.8339 15.5648 23.7083 15.611 23.5592 15.6566C23.7473 15.3994 23.8985 15.1114 23.9653 14.8525C23.9942 14.741 23.952 14.6234 23.8601 14.5569C23.7682 14.4909 23.6458 14.4909 23.5539 14.5569C23.4091 14.6607 22.7102 14.9729 22.2683 15.074C21.2696 14.1743 20.1074 14.0809 18.8992 14.8064C17.9171 15.3961 17.7034 16.5954 17.7451 17.3263C15.4971 17.1037 14.0998 15.8825 13.3132 14.8718C13.2582 14.8009 13.1695 14.7635 13.0861 14.769C12.9985 14.7756 12.9194 14.8256 12.8745 14.9031C12.5026 15.5489 12.3995 16.2628 12.5774 16.968C12.6747 17.3527 12.8446 17.6918 13.0418 17.9666C12.9472 17.9188 12.8558 17.8589 12.7698 17.7875C12.6907 17.7204 12.5801 17.7078 12.4866 17.7523C12.3936 17.7979 12.3343 17.8946 12.3343 18.0007C12.3343 19.2115 13.0706 20.0194 13.7583 20.4415C13.6472 20.4278 13.5312 20.4025 13.4142 20.3657C13.3138 20.3343 13.2048 20.3657 13.1353 20.447C13.0658 20.5278 13.0493 20.6432 13.0926 20.7416C13.4789 21.6204 14.2109 22.225 15.1166 22.4443C14.3258 22.9219 13.2673 23.156 12.298 23.0412C12.1724 23.023 12.0527 23.1049 12.0132 23.2291C11.9736 23.3533 12.0255 23.4896 12.1361 23.5534C13.6066 24.4025 14.936 24.7059 16.0849 24.7059C17.7568 24.7059 19.0472 24.064 19.8327 23.527C21.9503 22.0815 23.2701 19.4863 23.0863 17.1642C23.4256 16.9064 23.9333 16.4305 24.248 15.9188C24.3132 15.8155 24.3014 15.6792 24.2202 15.5879Z" fill="black"/>
<path d="M24.2202 15.5879C24.139 15.4961 24.0081 15.4731 23.9007 15.5297C23.8339 15.5648 23.7083 15.611 23.5592 15.6566C23.7473 15.3994 23.8985 15.1114 23.9653 14.8525C23.9942 14.741 23.952 14.6234 23.8601 14.5569C23.7682 14.4909 23.6458 14.4909 23.5539 14.5569C23.4091 14.6607 22.7102 14.9729 22.2683 15.074C21.2696 14.1743 20.1074 14.0809 18.8992 14.8064C17.9171 15.3961 17.7034 16.5954 17.7451 17.3263C15.4971 17.1037 14.0998 15.8825 13.3132 14.8718C13.2582 14.8009 13.1695 14.7635 13.0861 14.769C12.9985 14.7756 12.9194 14.8256 12.8745 14.9031C12.5026 15.5489 12.3995 16.2628 12.5774 16.968C12.6747 17.3527 12.8446 17.6918 13.0418 17.9666C12.9472 17.9188 12.8558 17.8589 12.7698 17.7875C12.6907 17.7204 12.5801 17.7078 12.4866 17.7523C12.3936 17.7979 12.3343 17.8946 12.3343 18.0007C12.3343 19.2115 13.0706 20.0194 13.7583 20.4415C13.6472 20.4278 13.5312 20.4025 13.4142 20.3657C13.3138 20.3343 13.2048 20.3657 13.1353 20.447C13.0658 20.5278 13.0493 20.6432 13.0926 20.7416C13.4789 21.6204 14.2109 22.225 15.1166 22.4443C14.3258 22.9219 13.2673 23.156 12.298 23.0412C12.1724 23.023 12.0527 23.1049 12.0132 23.2291C11.9736 23.3533 12.0255 23.4896 12.1361 23.5534C13.6066 24.4025 14.936 24.7059 16.0849 24.7059C17.7568 24.7059 19.0472 24.064 19.8327 23.527C21.9503 22.0815 23.2701 19.4863 23.0863 17.1642C23.4256 16.9064 23.9333 16.4305 24.248 15.9188C24.3132 15.8155 24.3014 15.6792 24.2202 15.5879Z" fill="black" fill-opacity="0.2"/>
</svg>
