<svg width="24" height="24" viewBox="0 0 24 24" fill="none" xmlns="http://www.w3.org/2000/svg">
<g clip-path="url(#clip0_215_5667)">
<path d="M22 2.6665H1.99999C1.82318 2.6665 1.65361 2.73674 1.52859 2.86177C1.40357 2.98679 1.33333 3.15636 1.33333 3.33317V4.4465C1.33345 4.60396 1.36474 4.75984 1.42538 4.90515C1.48602 5.05046 1.57482 5.18233 1.68666 5.29317L9.33333 13.0532V19.8532L10.6667 20.3598V12.6665C10.6672 12.5788 10.6504 12.4918 10.6172 12.4106C10.584 12.3293 10.5351 12.2555 10.4733 12.1932L2.66666 4.39317V3.99984H21.3333V4.4065L13.5533 12.1932C13.4867 12.2532 13.4329 12.3261 13.3951 12.4074C13.3573 12.4887 13.3363 12.5769 13.3333 12.6665V21.4732L14.6667 21.9998V12.9998L22.3133 5.33317C22.427 5.21952 22.5168 5.08432 22.5774 4.93549C22.6381 4.78666 22.6685 4.62721 22.6667 4.4665V3.33317C22.6667 3.15636 22.5964 2.98679 22.4714 2.86177C22.3464 2.73674 22.1768 2.6665 22 2.6665Z" fill="black"/>
<path d="M22 2.6665H1.99999C1.82318 2.6665 1.65361 2.73674 1.52859 2.86177C1.40357 2.98679 1.33333 3.15636 1.33333 3.33317V4.4465C1.33345 4.60396 1.36474 4.75984 1.42538 4.90515C1.48602 5.05046 1.57482 5.18233 1.68666 5.29317L9.33333 13.0532V19.8532L10.6667 20.3598V12.6665C10.6672 12.5788 10.6504 12.4918 10.6172 12.4106C10.584 12.3293 10.5351 12.2555 10.4733 12.1932L2.66666 4.39317V3.99984H21.3333V4.4065L13.5533 12.1932C13.4867 12.2532 13.4329 12.3261 13.3951 12.4074C13.3573 12.4887 13.3363 12.5769 13.3333 12.6665V21.4732L14.6667 21.9998V12.9998L22.3133 5.33317C22.427 5.21952 22.5168 5.08432 22.5774 4.93549C22.6381 4.78666 22.6685 4.62721 22.6667 4.4665V3.33317C22.6667 3.15636 22.5964 2.98679 22.4714 2.86177C22.3464 2.73674 22.1768 2.6665 22 2.6665Z" fill="black" fill-opacity="0.2"/>
</g>
<defs>
<clipPath id="clip0_215_5667">
<rect width="24" height="24" fill="white"/>
</clipPath>
</defs>
</svg>
