<svg width="21" height="18" viewBox="0 0 21 18" fill="none" xmlns="http://www.w3.org/2000/svg">
<path fill-rule="evenodd" clip-rule="evenodd" d="M0 9.00011C0 8.66859 0.131696 8.35065 0.366117 8.11623C0.600537 7.88181 0.918479 7.75011 1.25 7.75011H15.7325L10.365 2.38511C10.1303 2.1504 9.99842 1.83205 9.99842 1.50011C9.99842 1.16818 10.1303 0.849831 10.365 0.615114C10.5997 0.380398 10.9181 0.248535 11.25 0.248535C11.5819 0.248535 11.9003 0.380398 12.135 0.615114L19.635 8.11511C19.7514 8.23123 19.8438 8.36917 19.9068 8.52103C19.9698 8.67289 20.0022 8.8357 20.0022 9.00011C20.0022 9.16453 19.9698 9.32733 19.9068 9.4792C19.8438 9.63106 19.7514 9.769 19.635 9.88511L12.135 17.3851C11.9003 17.6198 11.5819 17.7517 11.25 17.7517C10.9181 17.7517 10.5997 17.6198 10.365 17.3851C10.1303 17.1504 9.99842 16.8321 9.99842 16.5001C9.99842 16.1682 10.1303 15.8498 10.365 15.6151L15.7325 10.2501H1.25C0.918479 10.2501 0.600537 10.1184 0.366117 9.884C0.131696 9.64958 0 9.33163 0 9.00011Z" fill="black"/>
<path fill-rule="evenodd" clip-rule="evenodd" d="M0 9.00011C0 8.66859 0.131696 8.35065 0.366117 8.11623C0.600537 7.88181 0.918479 7.75011 1.25 7.75011H15.7325L10.365 2.38511C10.1303 2.1504 9.99842 1.83205 9.99842 1.50011C9.99842 1.16818 10.1303 0.849831 10.365 0.615114C10.5997 0.380398 10.9181 0.248535 11.25 0.248535C11.5819 0.248535 11.9003 0.380398 12.135 0.615114L19.635 8.11511C19.7514 8.23123 19.8438 8.36917 19.9068 8.52103C19.9698 8.67289 20.0022 8.8357 20.0022 9.00011C20.0022 9.16453 19.9698 9.32733 19.9068 9.4792C19.8438 9.63106 19.7514 9.769 19.635 9.88511L12.135 17.3851C11.9003 17.6198 11.5819 17.7517 11.25 17.7517C10.9181 17.7517 10.5997 17.6198 10.365 17.3851C10.1303 17.1504 9.99842 16.8321 9.99842 16.5001C9.99842 16.1682 10.1303 15.8498 10.365 15.6151L15.7325 10.2501H1.25C0.918479 10.2501 0.600537 10.1184 0.366117 9.884C0.131696 9.64958 0 9.33163 0 9.00011Z" fill="black" fill-opacity="0.2"/>
</svg>
