<?xml version="1.0" standalone="no"?>
<!DOCTYPE svg PUBLIC "-//W3C//DTD SVG 1.1//EN" "http://www.w3.org/Graphics/SVG/1.1/DTD/svg11.dtd" >
<svg xmlns="http://www.w3.org/2000/svg" xmlns:xlink="http://www.w3.org/1999/xlink" version="1.1">
<metadata>
Created by FontForge 20170731 at Thu Jul 22 19:25:11 2021
 By Aleksey,,,
Copyright 2020 The Epilogue Project Authors (https://github.com/Etcetera-Type-Co/Epilogue)
</metadata>
<defs>
<font id="Epilogue-ExtraLight" horiz-adv-x="0" >
  <font-face 
    font-family="Epilogue ExtraLight"
    font-weight="250"
    font-stretch="normal"
    units-per-em="2000"
    panose-1="0 0 0 0 0 0 0 0 0 0"
    ascent="1600"
    descent="-400"
    x-height="1062"
    cap-height="1475"
    bbox="-433 -467 2157 2067"
    underline-thickness="50"
    underline-position="-175"
    unicode-range="U+000D-FB02"
  />
<missing-glyph horiz-adv-x="669" 
d="M80 73v1344h509v-1344h-509zM230 176l-30 26l109 98l-109 98l30 26l109 -98l109 98l30 -26l-109 -98l109 -98l-30 -26l-109 98zM230 612l-30 26l109 98l-109 98l30 26l109 -98l109 98l30 -26l-109 -98l109 -98l-30 -26l-109 98zM119 107h431v1276h-431v-1276zM230 1048
l-30 26l110 98l-110 98l30 25l109 -97l109 97l30 -25l-110 -98l110 -98l-30 -26l-109 98z" />
    <glyph glyph-name="fi" unicode="fi" horiz-adv-x="1214" 
d="M290 0v993h-239v69h239v158q0 49 8 99.5t28 96.5t54.5 83t86 58t123.5 21q38 0 64.5 -5t36.5 -10v-69q-12 5 -38.5 9.5t-56.5 4.5q-75 0 -120.5 -26.5t-68.5 -70.5t-31.5 -96.5t-8.5 -105.5v-147h320v-69h-320v-993h-77zM942 0v1062h76v-1062h-76zM981 1353
q-30 0 -51.5 19t-21.5 49q0 29 21.5 48t51.5 19t51 -19t21 -48q0 -30 -21 -49t-51 -19z" />
    <glyph glyph-name="fl" unicode="fl" horiz-adv-x="1219" 
d="M290 0v993h-239v69h239v158q0 49 8 99.5t28 96.5t54.5 83t86 58t123.5 21q38 0 64.5 -5t36.5 -10v-69q-12 5 -38.5 9.5t-56.5 4.5q-75 0 -120.5 -26.5t-68.5 -70.5t-31.5 -96.5t-8.5 -105.5v-147h320v-69h-320v-993h-77zM1026 1563v-1563h-76v1563h76z" />
    <glyph glyph-name="f_f" unicode="ff" horiz-adv-x="1495" 
d="M290 0v993h-239v69h239v158q0 49 8 99.5t28 96.5t54.5 83t86 58t123.5 21q38 0 64.5 -5t36.5 -10v-69q-12 5 -38.5 9.5t-56.5 4.5q-75 0 -120.5 -26.5t-68.5 -70.5t-31.5 -96.5t-8.5 -105.5v-147h320v-69h-320v-993h-77zM1037 0v993h-239v69h239v158q0 49 8 99.5t28 96.5
t54.5 83t86 58t123.5 21q38 0 64.5 -5t36.5 -10v-69q-12 5 -38.5 9.5t-56.5 4.5q-75 0 -120.5 -26.5t-68.5 -70.5t-31.5 -96.5t-8.5 -105.5v-147h320v-69h-320v-993h-77z" />
    <glyph glyph-name="f_f_i" unicode="ffi" horiz-adv-x="1962" 
d="M290 0v993h-239v69h239v158q0 49 8 99.5t28 96.5t54.5 83t86 58t123.5 21q38 0 64.5 -5t36.5 -10v-69q-12 5 -38.5 9.5t-56.5 4.5q-75 0 -120.5 -26.5t-68.5 -70.5t-31.5 -96.5t-8.5 -105.5v-147h320v-69h-320v-993h-77zM1037 0v993h-239v69h239v158q0 49 8 99.5t28 96.5
t54.5 83t86 58t123.5 21q38 0 64.5 -5t36.5 -10v-69q-12 5 -38.5 9.5t-56.5 4.5q-75 0 -120.5 -26.5t-68.5 -70.5t-31.5 -96.5t-8.5 -105.5v-147h320v-69h-320v-993h-77zM1690 0v1062h76v-1062h-76zM1729 1353q-30 0 -51.5 19t-21.5 49q0 29 21.5 48t51.5 19t51 -19t21 -48
q0 -30 -21 -49t-51 -19z" />
    <glyph glyph-name="f_f_l" unicode="ffl" horiz-adv-x="1966" 
d="M290 0v993h-239v69h239v158q0 49 8 99.5t28 96.5t54.5 83t86 58t123.5 21q38 0 64.5 -5t36.5 -10v-69q-12 5 -38.5 9.5t-56.5 4.5q-75 0 -120.5 -26.5t-68.5 -70.5t-31.5 -96.5t-8.5 -105.5v-147h320v-69h-320v-993h-77zM1037 0v993h-239v69h239v158q0 49 8 99.5t28 96.5
t54.5 83t86 58t123.5 21q38 0 64.5 -5t36.5 -10v-69q-12 5 -38.5 9.5t-56.5 4.5q-75 0 -120.5 -26.5t-68.5 -70.5t-31.5 -96.5t-8.5 -105.5v-147h320v-69h-320v-993h-77zM1774 1563v-1563h-76v1563h76z" />
    <glyph glyph-name=".notdef" horiz-adv-x="669" 
d="M80 73v1344h509v-1344h-509zM230 176l-30 26l109 98l-109 98l30 26l109 -98l109 98l30 -26l-109 -98l109 -98l-30 -26l-109 98zM230 612l-30 26l109 98l-109 98l30 26l109 -98l109 98l30 -26l-109 -98l109 -98l-30 -26l-109 98zM119 107h431v1276h-431v-1276zM230 1048
l-30 26l110 98l-110 98l30 25l109 -97l109 97l30 -25l-110 -98l110 -98l-30 -26l-109 98z" />
    <glyph glyph-name=".null" 
 />
    <glyph glyph-name="nonmarkingreturn" horiz-adv-x="666" 
 />
    <glyph glyph-name="CR" unicode="&#xd;" horiz-adv-x="962" 
 />
    <glyph glyph-name="space" unicode=" " horiz-adv-x="500" 
 />
    <glyph glyph-name="exclam" unicode="!" horiz-adv-x="561" 
d="M264 1473l-10 -1170h-59l-10 1170h79zM224 -24q-35 0 -59.5 24.5t-24.5 59.5t24.5 59.5t59.5 24.5t59.5 -24.5t24.5 -59.5t-24.5 -59.5t-59.5 -24.5z" />
    <glyph glyph-name="quotedbl" unicode="&#x22;" horiz-adv-x="720" 
d="M232 1475l-17 -359h-54l-15 359h86zM488 1475l-16 -359h-54l-16 359h86z" />
    <glyph glyph-name="numbersign" unicode="#" horiz-adv-x="1677" 
d="M690 1475h75l-366 -1475h-75zM1191 1475h76l-366 -1475h-75zM174 980h1342l-13 -55h-1342zM87 549h1342l-13 -56h-1342z" />
    <glyph glyph-name="dollar" unicode="$" horiz-adv-x="1058" 
d="M492 1475h62v-1475h-62v1475zM529 201q-97 0 -173 19.5t-129.5 56.5t-83 91t-32.5 122q-1 10 -1 21v19h78v-18t1 -20q5 -105 93.5 -163t246.5 -58q103 0 179.5 25.5t119.5 73t43 114.5q0 110 -89.5 157.5t-259.5 76.5q-86 16 -158 37.5t-124.5 55.5t-82 84t-29.5 121
q0 90 54.5 152t145.5 94.5t199 32.5q110 0 201 -31.5t145.5 -98t54.5 -170.5v-11.5v-11.5h-78v10.5v10.5q0 86 -45 137t-118 73t-157 22q-85 0 -159.5 -22t-120 -68t-45.5 -117q0 -73 43 -117.5t120 -70.5t179 -45q94 -17 168 -40t126 -56.5t79.5 -82.5t27.5 -119
q0 -69 -31 -122t-87 -89.5t-132.5 -55.5t-168.5 -19z" />
    <glyph glyph-name="percent" unicode="%" horiz-adv-x="1131" 
d="M1107 1410l-1060 -1346l-38 33l1061 1346zM322 974q-64 0 -121.5 27.5t-94 80t-36.5 127.5q0 76 36.5 128.5t94 80.5t121.5 28q65 0 123.5 -28t95.5 -80.5t37 -128.5q0 -75 -37 -127.5t-95.5 -80t-123.5 -27.5zM322 1017q50 0 97.5 22t78.5 65t31 105q0 63 -31 106
t-78.5 65t-97.5 22t-96.5 -22t-76.5 -65t-30 -106q0 -62 30 -105t76.5 -65t96.5 -22zM808 34q-64 0 -121.5 27t-94 80t-36.5 128q0 76 36.5 128.5t94 80t121.5 27.5q65 0 123.5 -27.5t95.5 -80t37 -128.5q0 -75 -37 -128t-95.5 -80t-123.5 -27zM808 77q50 0 97.5 22
t78.5 64.5t31 105.5t-31 106t-78.5 65t-97.5 22t-96.5 -22t-76.5 -65t-30 -106t30 -105.5t76.5 -64.5t96.5 -22z" />
    <glyph glyph-name="ampersand" unicode="&#x26;" horiz-adv-x="1369" 
d="M547 -16q-133 0 -236 44t-162.5 125.5t-59.5 192.5q0 104 53.5 188t151.5 159t230 151q139 80 210.5 173t71.5 204q0 74 -33 120t-83.5 68t-106.5 22q-53 0 -108 -21.5t-91 -67.5t-36 -120q0 -91 50 -177.5t146 -212.5l539 -698q36 -48 61.5 -63t42.5 -15q13 0 23 1.5
t13 3.5v-59q-4 -2 -16.5 -4.5t-31.5 -2.5q-30 0 -61.5 18t-72.5 70l-553 713q-56 73 -104 142t-77 139.5t-29 147.5q0 85 44 144t114 89.5t147 30.5t143.5 -30t107 -89t40.5 -147q0 -90 -39.5 -166.5t-110 -141.5t-166.5 -120q-185 -107 -290.5 -208t-105.5 -238
q0 -90 50.5 -158.5t137.5 -107.5t196 -39q166 0 270.5 43t171.5 116q82 91 116.5 214.5t34.5 246.5h69q0 -102 -20.5 -195.5t-59 -173t-95.5 -139.5q-68 -73 -184.5 -122.5t-301.5 -49.5z" />
    <glyph glyph-name="quotesingle" unicode="'" horiz-adv-x="277" 
d="M184 1475l-18 -359h-57l-16 359h91z" />
    <glyph glyph-name="parenleft" unicode="(" horiz-adv-x="711" 
d="M576 -467q-29 23 -76.5 75.5t-100.5 137t-100 203t-77.5 273t-30.5 345.5q0 193 30.5 348.5t77.5 274.5t100 204t100.5 136.5t76.5 70.5l45 -47q-37 -27 -96.5 -100.5t-120 -195t-102 -293.5t-41.5 -398q0 -225 41.5 -396t102 -292t120 -194.5t96.5 -104.5z" />
    <glyph glyph-name="parenright" unicode=")" horiz-adv-x="714" 
d="M142 -467l-44 47q36 31 95.5 104.5t120 194.5t102 292t41.5 396q0 226 -41.5 398t-102 293.5t-120 195t-95.5 100.5l44 47q29 -19 76.5 -70.5t100.5 -136.5t100 -204t77.5 -274.5t30.5 -348.5q0 -191 -30.5 -345.5t-77.5 -273t-100 -203t-100.5 -137t-76.5 -75.5z" />
    <glyph glyph-name="asterisk" unicode="*" horiz-adv-x="941" 
d="M481 1214l170 -208l-43 -29l-174 219l-174 -219l-44 29l171 208l-246 87l25 44l243 -91l-2 232h54l-2 -232l242 91l26 -44z" />
    <glyph glyph-name="plus" unicode="+" horiz-adv-x="1131" 
d="M929 497h-336v-275h-58v275h-337v57h337v276h58v-276h336v-57z" />
    <glyph glyph-name="comma" unicode="," horiz-adv-x="490" 
d="M170 -235l-18 31q29 15 60 47.5t53 74t22 82.5q0 5 -0.5 11.5t-2.5 10.5h26q-7 -22 -28.5 -33.5t-47.5 -11.5q-36 0 -62.5 20.5t-26.5 61.5q0 40 27.5 62t68.5 22q46 0 72.5 -28t26.5 -83t-26.5 -110t-65.5 -97t-78 -60z" />
    <glyph glyph-name="hyphen" unicode="-" horiz-adv-x="965" 
d="M98 539v54h674v-54h-674z" />
    <glyph glyph-name="period" unicode="." horiz-adv-x="467" 
d="M234 -24q-35 0 -59.5 24.5t-24.5 59.5t24.5 59.5t59.5 24.5t59.5 -24.5t24.5 -59.5t-24.5 -59.5t-59.5 -24.5z" />
    <glyph glyph-name="slash" unicode="/" horiz-adv-x="911" 
d="M804 1563l-679 -1718h-73l680 1718h72z" />
    <glyph glyph-name="zero" unicode="0" horiz-adv-x="1099" 
d="M542 -18q-109 0 -185.5 57t-124.5 159t-70 239t-22 297q0 159 22 296.5t70 240.5t124.5 161t185.5 58q108 0 184.5 -58t124.5 -161t70.5 -240.5t22.5 -296.5q0 -160 -22.5 -297t-70.5 -239t-124.5 -159t-184.5 -57zM542 51q112 0 183 86t105.5 240t34.5 357
q0 204 -34.5 358.5t-105.5 241t-183 86.5q-111 0 -183 -86.5t-106.5 -241t-34.5 -358.5t34.5 -357.5t106.5 -239.5t183 -86z" />
    <glyph glyph-name="one" unicode="1" horiz-adv-x="771" 
d="M494 1482v-1482h-78v1388q-7 -10 -43 -27.5t-92.5 -34t-125.5 -25.5v70q68 11 122.5 30t91.5 41t51 40h74z" />
    <glyph glyph-name="two" unicode="2" horiz-adv-x="1072" 
d="M150 0v68q3 68 33 139t79 140.5t107.5 134t116.5 119.5q76 71 149.5 148.5t122.5 163.5t49 181q0 152 -71 239t-207 87q-110 0 -176 -50.5t-96 -137t-30 -194.5h-79q0 131 39 233t123 160.5t219 58.5q118 0 197 -48.5t119 -137.5t40 -210q0 -78 -30.5 -151.5
t-79.5 -139.5t-105.5 -124.5t-109.5 -108.5q-83 -77 -156 -161.5t-119.5 -170t-49.5 -168.5h673v-70h-758z" />
    <glyph glyph-name="three" unicode="3" horiz-adv-x="1072" 
d="M652 776q94 -3 148 -50.5t77.5 -124t23.5 -166.5q0 -133 -40.5 -235.5t-121.5 -160t-204 -57.5q-98 0 -170 27.5t-119.5 83t-70.5 140t-23 199.5v3v2h79v-2v-3q0 -140 36 -224t104 -120.5t165 -36.5q135 0 210.5 101.5t75.5 283.5q0 53 -10 107t-38.5 98.5t-83.5 72
t-145 27.5h-57v65h57q87 0 141.5 26.5t84 69.5t40.5 94.5t11 101.5q0 160 -75.5 241t-208.5 81q-143 0 -225 -85.5t-82 -277.5h-79q0 103 25 183.5t73.5 136t120.5 84.5t166 29q121 0 201.5 -48t121.5 -135.5t41 -205.5q0 -82 -23.5 -155t-77.5 -119.5t-148 -50.5z" />
    <glyph glyph-name="four" unicode="4" horiz-adv-x="1044" 
d="M651 0v364h-559v64l531 1054h104v-1049h214v-69h-214v-364h-76zM161 394l-27 39h517v984l19 -5z" />
    <glyph glyph-name="five" unicode="5" horiz-adv-x="1075" 
d="M858 1407h-550l-61 -636q3 13 24 40.5t60 58t96.5 52t131.5 21.5q162 0 253.5 -122t91.5 -353q0 -168 -48.5 -276t-134.5 -159t-200 -51q-91 0 -161.5 27.5t-118 80.5t-72 130t-24.5 177v1v1h78v-1v-1q0 -181 81 -263.5t217 -82.5q88 0 157 43t108.5 135t39.5 238
q0 202 -75.5 304t-200.5 102q-85 0 -149.5 -36t-106 -86.5t-58.5 -92.5l-77 20l79 797h620v-68z" />
    <glyph glyph-name="six" unicode="6" horiz-adv-x="1078" 
d="M533 -18q-123 0 -207 71t-126 200.5t-42 306.5q0 267 29.5 446.5t82 285.5t124 152t154.5 46q90 0 149 -37t93 -93.5t48.5 -118t14.5 -109.5v-1.5v-1.5h-75v1.5v1.5q0 43 -11.5 93t-37.5 94.5t-70.5 72.5t-111.5 28q-86 0 -154.5 -73t-109 -242t-47.5 -458l-36 -20
q9 91 57.5 159.5t126.5 107t173 38.5q113 0 192 -60t120 -164.5t41 -238.5q0 -145 -44 -254.5t-128 -171t-205 -61.5zM533 51q98 0 164.5 53t100 146.5t33.5 213.5q0 112 -31.5 202.5t-93.5 143.5t-154 53q-93 0 -164.5 -45t-111 -125t-39.5 -186q0 -127 32.5 -230.5
t98 -164.5t165.5 -61z" />
    <glyph glyph-name="seven" unicode="7" horiz-adv-x="964" 
d="M793 1407v-2h-685v70h780v-67q-126 -92 -208 -222t-131 -281.5t-72 -311t-30 -312t-7 -281.5h-78q0 138 8.5 294.5t33 316t72.5 309t125 275t192 212.5z" />
    <glyph glyph-name="eight" unicode="8" horiz-adv-x="1156" 
d="M575 -18q-125 0 -219.5 49t-148 141.5t-53.5 222.5q0 117 41.5 197.5t107 126.5t137.5 59q-61 12 -119 53t-95 114.5t-37 181.5q0 117 53 198t140.5 123t192.5 42t192.5 -42t140.5 -123t53 -198q0 -108 -37 -181t-95 -114.5t-119 -53.5q73 -13 138 -59t106.5 -126.5
t41.5 -197.5q0 -130 -53.5 -222.5t-148 -141.5t-219.5 -49zM575 51q94 0 171 37.5t123.5 113.5t46.5 190q0 103 -42.5 182.5t-119 124.5t-179.5 45t-179.5 -45t-119 -124.5t-42.5 -182.5q0 -114 46.5 -190t124 -113.5t170.5 -37.5zM575 812q144 0 227 86.5t83 222.5
q0 104 -45 169.5t-115.5 97.5t-149.5 32t-149.5 -32t-115.5 -97.5t-45 -169.5q0 -136 82 -222.5t228 -86.5z" />
    <glyph glyph-name="nine" unicode="9" horiz-adv-x="1073" 
d="M517 -17q-89 0 -148.5 37t-93.5 93.5t-48.5 118t-14.5 109.5v2v1h74v-1v-2q0 -43 11.5 -93t38 -94.5t71 -72.5t110.5 -28q87 0 155 73t109.5 242t47.5 458l36 20q-9 -90 -58 -159t-126.5 -107.5t-172.5 -38.5q-113 0 -192 60t-120 164.5t-41 238.5q0 145 44 254.5
t128.5 171t204.5 61.5q124 0 207 -70.5t125.5 -200.5t42.5 -307q0 -267 -29.5 -446.5t-82.5 -285.5t-124 -152t-154 -46zM513 610q94 0 164.5 45t110 125t39.5 186q0 128 -32 231t-97.5 164t-165.5 61q-98 0 -164.5 -53t-100 -146.5t-33.5 -213.5q0 -112 31.5 -202.5
t94 -143.5t153.5 -53z" />
    <glyph glyph-name="colon" unicode=":" horiz-adv-x="468" 
d="M234 -24q-35 0 -59.5 24.5t-24.5 59.5t24.5 59.5t59.5 24.5t59.5 -24.5t24.5 -59.5t-24.5 -59.5t-59.5 -24.5zM235 820q-35 0 -59.5 24.5t-24.5 59.5t24.5 59.5t59.5 24.5t59.5 -24.5t24.5 -59.5t-24.5 -59.5t-59.5 -24.5z" />
    <glyph glyph-name="semicolon" unicode=";" horiz-adv-x="496" 
d="M176 -236l-18 31q29 15 60 47.5t53 74t22 82.5q0 5 -0.5 11.5t-2.5 10.5h26q-7 -22 -28.5 -33.5t-47.5 -11.5q-36 0 -62.5 20.5t-26.5 61.5q0 40 27.5 62t68.5 22q46 0 72.5 -28t26.5 -83t-26.5 -110t-65.5 -97t-78 -60zM234 820q-35 0 -59.5 24.5t-24.5 59.5t24.5 59.5
t59.5 24.5t59.5 -24.5t24.5 -59.5t-24.5 -59.5t-59.5 -24.5z" />
    <glyph glyph-name="less" unicode="&#x3c;" horiz-adv-x="1131" 
d="M864 44l-601 451v72l601 452v-79l-552 -410v2l552 -408v-80z" />
    <glyph glyph-name="equal" unicode="=" horiz-adv-x="1131" 
d="M905 663h-681v55h681v-55zM905 341h-681v55h681v-55z" />
    <glyph glyph-name="greater" unicode="&#x3e;" horiz-adv-x="1131" 
d="M264 1019l601 -452v-72l-601 -451v80l552 408v-2l-552 410v79z" />
    <glyph glyph-name="question" unicode="?" horiz-adv-x="1083" 
d="M443 303q0 88 27.5 156t70 125t89.5 110q46 52 87 106.5t67 120t26 149.5q0 164 -79.5 256t-236.5 92q-158 0 -238.5 -95.5t-80.5 -263.5h-72q0 139 48.5 234t136.5 144t207 49t205.5 -48.5t134.5 -142t48 -228.5q0 -96 -29 -168.5t-74 -130.5t-93 -112
q-66 -75 -120 -155.5t-54 -197.5h-70zM485 -24q-35 0 -59.5 24.5t-24.5 59.5t24.5 59.5t59.5 24.5q36 0 60 -24.5t24 -59.5t-24 -59.5t-60 -24.5z" />
    <glyph glyph-name="at" unicode="@" horiz-adv-x="1903" 
d="M1500 131q-83 -45 -186.5 -75t-219 -45t-237.5 -15q-235 0 -403.5 85.5t-258 239t-89.5 360.5q0 163 63.5 307t182.5 254.5t284 173.5t368 63q159 0 289.5 -46.5t224 -131t144.5 -199.5t51 -253q0 -110 -29.5 -209t-91 -174.5t-156 -119.5t-226.5 -44q-36 0 -77 7.5
t-69 30.5t-29 71v3v3q-29 -56 -93 -81.5t-147 -25.5q-93 0 -157 41t-97 118.5t-33 185.5q0 147 58.5 258t159.5 174t226 63q91 0 150.5 -38t59.5 -86l26 102h62l-159 -664q-1 -6 -2 -12.5t-1 -10.5q0 -52 43 -70.5t90 -18.5q127 0 210 45.5t130.5 120t66.5 162t19 171.5
q0 174 -83 304t-230 202t-338 72q-186 0 -337.5 -59t-260 -163t-167.5 -239t-59 -287q0 -193 84 -336t238 -221t364 -78q111 0 219 13.5t206.5 42t181.5 73.5zM808 360q101 0 158 41t77 126q1 2 10 41.5t22.5 96.5l27 114t23.5 98t10 45q4 20 4 37q0 63 -46 102.5t-142 39.5
q-105 0 -191.5 -58.5t-137.5 -159.5t-51 -229q0 -140 62 -217t174 -77z" />
    <glyph glyph-name="A" unicode="A" horiz-adv-x="1181" 
d="M103 0l431 1481h116l428 -1481h-81l-406 1422h2l-409 -1422h-81zM277 431v69h630v-69h-630z" />
    <glyph glyph-name="B" unicode="B" horiz-adv-x="1186" 
d="M592 1475q125 0 217.5 -34t144.5 -110t52 -203q0 -117 -48.5 -193.5t-125.5 -115t-161 -42.5q94 -2 177.5 -39.5t135 -119.5t51.5 -217t-53.5 -224t-155.5 -133t-246 -44h-416v1475h428zM241 781l-29 27h309q189 0 298 75.5t109 235.5q0 112 -45.5 174t-125 87.5
t-181.5 25.5h-370l35 42v-667zM565 69q178 0 284.5 79t106.5 256q0 105 -36.5 171t-98 102t-139 49.5t-159.5 13.5h-311l29 27v-740l-35 42h359z" />
    <glyph glyph-name="C" unicode="C" horiz-adv-x="1265" 
d="M1155 487q0 -84 -31 -172.5t-93 -164t-155 -122t-218 -46.5q-172 0 -294.5 95t-188 265t-65.5 395q0 226 65.5 395t188 263.5t294.5 94.5q146 0 249 -63t163 -160t77 -199q8 -42 8 -81h-78q0 28 -5 65q-13 91 -65 175.5t-139.5 138t-209.5 53.5q-142 0 -247.5 -82
t-163 -235t-57.5 -365t57.5 -365.5t163 -236.5t247.5 -83q103 0 181 39t131 103.5t80 141t27 151.5h78z" />
    <glyph glyph-name="D" unicode="D" horiz-adv-x="1204" 
d="M164 0v1475h298q144 0 260.5 -49.5t199.5 -144t127.5 -231.5t44.5 -313q0 -177 -44.5 -313.5t-127.5 -231t-199.5 -143.5t-260.5 -49h-298zM243 27l-35 42h248q168 0 294 79.5t195.5 229t69.5 359.5t-69.5 360t-195.5 229.5t-294 79.5h-248l35 42v-1421z" />
    <glyph glyph-name="E" unicode="E" horiz-adv-x="1073" 
d="M206 1406l35 42v-703l-24 29h621v-68h-621l24 29v-708l-35 42h703v-69h-745v1475h745v-69h-703z" />
    <glyph glyph-name="F" unicode="F" horiz-adv-x="1003" 
d="M205 1406l35 42v-709l-27 27h592v-69h-592l27 29v-726h-76v1475h730v-69h-689z" />
    <glyph glyph-name="G" unicode="G" horiz-adv-x="1315" 
d="M668 -18q-162 0 -287.5 92t-198 261.5t-72.5 401.5q0 233 74.5 401.5t204 260t294.5 91.5q130 0 219.5 -47t144.5 -121t79.5 -158.5t24.5 -161.5v-6v-6h-75v6v6q0 70 -21.5 142.5t-68 135t-121.5 100.5t-182 38q-143 0 -254.5 -82t-176 -235t-64.5 -364
q0 -159 35.5 -285.5t100 -216t152 -136.5t193.5 -47q132 0 217 41.5t130.5 100t59.5 110.5v297h-407v67h479v-668h-64l-3 186q-8 -24 -37 -58.5t-80 -68t-124.5 -55.5t-171.5 -22z" />
    <glyph glyph-name="H" unicode="H" horiz-adv-x="1224" 
d="M1061 1475v-1475h-77v737l35 -37h-813l35 37v-737h-77v1475h77v-745l-35 39h813l-35 -39v745h77z" />
    <glyph glyph-name="I" unicode="I" horiz-adv-x="448" 
d="M186 0v1475h76v-1475h-76z" />
    <glyph glyph-name="J" unicode="J" horiz-adv-x="1048" 
d="M495 -18q-132 0 -218 58.5t-127 164t-41 247.5v25.5v25.5h75v-20.5v-21.5q0 -121 32.5 -213.5t101.5 -144t177 -51.5q107 0 176 51.5t102.5 146.5t33.5 224v1001h77v-1008q0 -109 -22.5 -198t-70 -153.5t-121 -99t-175.5 -34.5z" />
    <glyph glyph-name="K" unicode="K" horiz-adv-x="1094" 
d="M410 768v61l590 -829h-89l-550 766l41 -5l-173 -220l12 54v-595h-77v1475h77v-841l-16 13l643 828h87z" />
    <glyph glyph-name="L" unicode="L" horiz-adv-x="951" 
d="M164 0v1475h77v-1448l-35 42h639v-69h-681z" />
    <glyph glyph-name="M" unicode="M" horiz-adv-x="1510" 
d="M1197 1475h130v-1475h-74v1413l5 -1l-445 -1412h-117l-444 1412l5 1v-1413h-74v1475h130l444 -1421h-6z" />
    <glyph glyph-name="N" unicode="N" horiz-adv-x="1273" 
d="M239 0h-75v1475h125l753 -1429l-8 -5v1434h75v-1475h-128l-750 1428l8 3v-1431z" />
    <glyph glyph-name="O" unicode="O" horiz-adv-x="1346" 
d="M673 -18q-123 0 -226 51.5t-178.5 150t-117 238.5t-41.5 317t42 316.5t118 236t178.5 147.5t224.5 51t225 -51t179 -147.5t117.5 -236t41.5 -316.5t-41.5 -317t-117 -238.5t-178.5 -150t-226 -51.5zM673 52q142 0 251.5 82.5t171 237t61.5 367.5q0 214 -62.5 366.5
t-171.5 233t-250 80.5q-140 0 -249.5 -80.5t-172 -233t-62.5 -366.5t62.5 -368t172 -236.5t249.5 -82.5z" />
    <glyph glyph-name="P" unicode="P" horiz-adv-x="1099" 
d="M241 0h-77v1475h353q172 0 280 -62t159 -166t51 -229t-53 -231t-161.5 -169.5t-275.5 -63.5h-276v-554zM241 585l-35 38h298q148 0 242 52t138.5 141.5t44.5 201.5t-42.5 200t-136 138t-246.5 50h-298l35 42v-863z" />
    <glyph glyph-name="Q" unicode="Q" horiz-adv-x="1346" 
d="M636 -6h72q0 -70 37.5 -118.5t89.5 -80t100 -47.5t69 -21l-28 -57q-20 4 -60 16t-87.5 35t-91.5 59.5t-72.5 89t-28.5 124.5zM673 -18q-123 0 -226 51.5t-178.5 150t-117 238.5t-41.5 317t42 316.5t118 236t178.5 147.5t224.5 51t225 -51t179 -147.5t117.5 -236
t41.5 -316.5t-41.5 -317t-117 -238.5t-178.5 -150t-226 -51.5zM673 52q142 0 251.5 82.5t171 237t61.5 367.5q0 214 -62.5 366.5t-171.5 233t-250 80.5q-140 0 -249.5 -80.5t-172 -233t-62.5 -366.5t62.5 -368t172 -236.5t249.5 -82.5z" />
    <glyph glyph-name="R" unicode="R" horiz-adv-x="1153" 
d="M164 0v1475h455q184 0 284 -89.5t100 -286.5q0 -120 -45.5 -204t-107.5 -129.5t-111 -52.5q49 -4 100.5 -28.5t86.5 -75t35 -135.5v-186.5v-186.5q0 -39 7 -66.5t12 -34.5h-79q-4 8 -10.5 34.5t-6.5 66.5v181v181q0 112 -73 163t-195 51h-402l25 31v-708h-75zM239 712
l-25 33h402q83 0 153 43t112.5 121t42.5 186q0 166 -82.5 238.5t-240.5 72.5h-388l26 34v-728z" />
    <glyph glyph-name="S" unicode="S" horiz-adv-x="1117" 
d="M560 -18q-148 0 -248 47t-151 142.5t-51 238.5v37.5v37.5h78v-37v-37q0 -186 95 -272.5t273 -86.5q187 0 280.5 76.5t93.5 222.5q0 102 -46.5 167.5t-130 110.5t-197.5 83q-130 43 -228 98.5t-152 135t-54 198.5q0 113 51.5 190t147 116.5t227.5 39.5q141 0 241 -43.5
t153.5 -133t53.5 -227.5v-42.5v-42.5h-78v41.5v41.5q0 178 -96.5 257t-271.5 79q-167 0 -259 -69t-92 -207q0 -103 51.5 -170.5t141.5 -113t205 -84.5q130 -43 221.5 -96t140 -130t48.5 -196q0 -117 -51.5 -200t-151 -127.5t-244.5 -44.5z" />
    <glyph glyph-name="T" unicode="T" horiz-adv-x="1088" 
d="M986 1406h-426l23 42v-1448h-78v1448l26 -42h-428v69h883v-69z" />
    <glyph glyph-name="U" unicode="U" horiz-adv-x="1278" 
d="M1115 551q0 -292 -125 -430.5t-351 -138.5q-225 0 -350 138.5t-125 430.5v102v115v707h77v-703v-114v-98q0 -266 104 -387t294 -121q191 0 295 121t104 387v915h77v-924z" />
    <glyph glyph-name="V" unicode="V" horiz-adv-x="1157" 
d="M528 -11l-425 1486h83l400 -1423h-10l394 1423h84l-420 -1486h-106z" />
    <glyph glyph-name="W" unicode="W" horiz-adv-x="1634" 
d="M376 0l-271 1475h81l252 -1430h-14l344 1430h98l342 -1430h-13l253 1430h81l-273 -1475h-111l-334 1400h12l-335 -1400h-112z" />
    <glyph glyph-name="X" unicode="X" horiz-adv-x="1115" 
d="M531 762v-64l-443 777h86l407 -721h-47l404 721h86l-440 -777v64l455 -762h-86l-420 706h49l-420 -706h-86z" />
    <glyph glyph-name="Y" unicode="Y" horiz-adv-x="1072" 
d="M970 1475l-395 -959v-516h-78v516l-394 959h82l367 -906h-32l367 906h83z" />
    <glyph glyph-name="Z" unicode="Z" horiz-adv-x="1079" 
d="M213 69h731v-69h-819v63l743 1344l2 -1h-699v69h783v-61l-741 -1342v-3z" />
    <glyph glyph-name="bracketleft" unicode="[" horiz-adv-x="759" 
d="M571 1619v-59h-292v-1937h292v-60h-364v2056h364z" />
    <glyph glyph-name="backslash" unicode="\" horiz-adv-x="949" 
d="M52 1563h73l679 -1718h-72z" />
    <glyph glyph-name="bracketright" unicode="]" horiz-adv-x="759" 
d="M162 1619h363v-2055h-363v60h291v1936h-291v59z" />
    <glyph glyph-name="asciicircum" unicode="^" horiz-adv-x="1131" 
d="M85 932l451 601h72l452 -601h-79l-410 552h2l-408 -552h-80z" />
    <glyph glyph-name="underscore" unicode="_" horiz-adv-x="1391" 
d="M54 -166v55h1232v-55h-1232z" />
    <glyph glyph-name="grave" unicode="`" horiz-adv-x="627" 
d="M463 1251h-74l-249 224h104z" />
    <glyph glyph-name="a" unicode="a" horiz-adv-x="1201" 
d="M547 -18q-125 0 -215.5 36t-139.5 105.5t-49 169.5q0 99 50 164t145 102t229 50q210 21 304 45t94 75v13.5v12.5q0 114 -93 182t-262 68q-175 0 -274 -75.5t-99 -214.5h-77q0 113 55.5 193.5t157 124t237.5 43.5q124 0 221.5 -38t154 -110.5t56.5 -175.5v-41v-41v-494
q0 -32 3 -61.5t10 -51.5q8 -26 16.5 -41.5t13.5 -21.5h-77q-5 4 -13 19.5t-15 39.5q-9 29 -12 61.5t-3 86.5l12 -11q-31 -64 -94 -112.5t-149 -75t-187 -26.5zM558 52q113 0 205 39t147 110.5t55 167.5v287l15 -29q-51 -33 -156.5 -52t-235.5 -32q-179 -17 -273.5 -72.5
t-94.5 -175.5q0 -116 87 -179.5t251 -63.5z" />
    <glyph glyph-name="b" unicode="b" horiz-adv-x="1230" 
d="M648 -18q-121 0 -221.5 57.5t-161 154t-60.5 211.5v4v4l60 1v-3.5v-4.5q0 -94 52 -174t137.5 -129t185.5 -49q167 0 272.5 122.5t105.5 353.5t-105.5 353t-272.5 122q-100 0 -185.5 -48.5t-137.5 -128t-52 -174.5l-60 1q0 117 60.5 212t161 152t221.5 57q130 0 231 -64
t159.5 -186t58.5 -296q0 -175 -58 -297.5t-159.5 -186.5t-231.5 -64zM188 0v1563h77v-1563h-77z" />
    <glyph glyph-name="c" unicode="c" horiz-adv-x="1243" 
d="M652 -18q-138 0 -257 64t-190.5 187t-71.5 297q0 175 71.5 297t190.5 185.5t257 63.5q108 0 193 -33.5t144 -87.5t90.5 -117.5t31.5 -122.5v-3v-4h-77q0 5 -0.5 11.5t-1.5 12.5q-11 78 -63 139.5t-134 97.5t-183 36q-115 0 -215.5 -53.5t-163 -159.5t-62.5 -262t62 -262
t163 -160.5t216 -54.5q129 0 213 44t125.5 111t43.5 136h77q0 -63 -29 -126.5t-87 -117t-143.5 -86t-199.5 -32.5z" />
    <glyph glyph-name="d" unicode="d" horiz-adv-x="1217" 
d="M582 -18q-130 0 -231.5 64t-159.5 186.5t-58 297.5q0 174 58 296t160 186t231 64q121 0 221.5 -57t161 -152t60.5 -212v-7v-9l-61 1v7v7q0 95 -51.5 174.5t-137 128t-185.5 48.5q-168 0 -273 -122t-105 -353t105.5 -353.5t272.5 -122.5q100 0 185 48.5t137 130t52 181.5
l61 -1q0 -122 -61 -220t-161.5 -154.5t-220.5 -56.5zM964 0v1563h78v-1563h-78z" />
    <glyph glyph-name="e" unicode="e" horiz-adv-x="1274" 
d="M180 496v69h899l-19 -18v10v8q0 115 -49 215.5t-140.5 163t-219.5 62.5q-129 0 -229 -63t-157 -171t-57 -243q0 -139 57 -246.5t157.5 -169t228.5 -61.5q100 0 173 28.5t121 72.5t73.5 92t29.5 88h78q-5 -54 -37 -115t-91 -114.5t-146 -87.5t-202 -34q-149 0 -265.5 69.5
t-184 192.5t-67.5 283q0 161 67.5 284.5t184.5 194t266 70.5q150 0 260 -72.5t170.5 -193.5t60.5 -267q0 -10 -0.5 -25t-1.5 -22h-960z" />
    <glyph glyph-name="f" unicode="f" horiz-adv-x="747" 
d="M290 0v993h-239v69h239v158q0 49 8 99.5t28 96.5t54.5 83t86 58t123.5 21q38 0 64.5 -5t36.5 -10v-69q-12 5 -38.5 9.5t-56.5 4.5q-75 0 -120.5 -26.5t-68.5 -70.5t-31.5 -96.5t-8.5 -105.5v-147h320v-69h-320v-993h-77z" />
    <glyph glyph-name="g" unicode="g" horiz-adv-x="1193" 
d="M811 25q78 -6 138 -28.5t94.5 -66t34.5 -112.5q0 -73 -51.5 -134t-161.5 -97t-285 -36q-241 0 -355.5 75t-114.5 190q0 42 10 72.5t21 49.5l73 -13q-9 -14 -18 -41.5t-9 -63.5q0 -97 103 -150.5t297 -53.5q148 0 240 28t134.5 73.5t42.5 97.5q0 78 -62.5 108.5
t-156.5 36.5l-405 30q-95 7 -152 50t-57 111q0 44 21.5 79t50.5 57.5t53 26.5l64 -34q-30 -6 -70.5 -37.5t-40.5 -80.5q0 -43 37 -72t129 -36zM978 1062h74l-22 -425q-6 -118 -59.5 -215t-150.5 -154.5t-235 -57.5q-143 0 -243 58t-152 156t-52 216q0 119 55.5 218.5
t156 158.5t233.5 59q127 0 215 -47.5t137 -115.5t58 -130l-27 4zM584 279q118 0 201 47t126.5 129.5t43.5 188.5q0 101 -44 183.5t-126.5 131t-198.5 48.5q-111 0 -194.5 -50t-130.5 -133t-47 -184q0 -103 44 -184.5t126.5 -129t199.5 -47.5z" />
    <glyph glyph-name="h" unicode="h" horiz-adv-x="1210" 
d="M956 0v407v73v82.5v74.5q0 174 -79 270t-238 96q-107 0 -192 -46.5t-134 -122t-49 -161.5l-56 15q0 101 56 189.5t156 143.5t230 55q189 0 286 -115.5t97 -318.5v-119.5v-129.5v-393h-77zM188 0v1563h76v-1563h-76z" />
    <glyph glyph-name="i" unicode="i" horiz-adv-x="467" 
d="M195 0v1062h76v-1062h-76zM234 1353q-30 0 -51.5 19t-21.5 49q0 29 21.5 48t51.5 19t51 -19t21 -48q0 -30 -21 -49t-51 -19z" />
    <glyph glyph-name="j" unicode="j" horiz-adv-x="511" 
d="M9 -442q-27 0 -49 2.5t-33 5.5v64q12 -4 34.5 -7.5t47.5 -3.5q79 0 124 25.5t65 68t25 92t5 98.5v1159h77v-1166q0 -66 -9.5 -126t-39 -108t-88.5 -76t-159 -28zM271 1353q-31 0 -52.5 19t-21.5 49q0 29 21.5 48t52.5 19q29 0 50.5 -19t21.5 -48q0 -30 -21.5 -49
t-50.5 -19z" />
    <glyph glyph-name="k" unicode="k" horiz-adv-x="1037" 
d="M188 0v1563h74v-1000l-23 9l596 490h102l-525 -437l16 44l522 -669h-88l-490 629l29 -15l-156 -128l17 43v-529h-74z" />
    <glyph glyph-name="l" unicode="l" horiz-adv-x="471" 
d="M279 1563v-1563h-76v1563h76z" />
    <glyph glyph-name="m" unicode="m" horiz-adv-x="1733" 
d="M834 0v507v112v78q0 39 -6 91t-29 101t-73 81.5t-138 32.5q-92 0 -154.5 -37.5t-100 -95t-53.5 -120t-16 -112.5l-50 19q0 109 46 205t132.5 155t206.5 59q114 0 182 -44.5t98.5 -125.5t30.5 -192v-93.5v-121.5v-499h-76zM188 0v1062h76v-1062h-76zM1479 0v508v117v78
q0 36 -5 87t-27.5 99.5t-74 81t-144.5 32.5q-94 0 -155.5 -37t-97 -93t-50.5 -113.5t-15 -99.5l-50 15q0 102 44 193.5t129 149.5t206 58q105 0 175.5 -38.5t106 -114t35.5 -185.5v-96v-118v-524h-77z" />
    <glyph glyph-name="n" unicode="n" horiz-adv-x="1209" 
d="M954 0v547v81v57q0 94 -35 166t-105 112t-177 40q-93 0 -179 -45t-140 -123t-54 -178l-51 20q0 117 63.5 207t163 141t207.5 51q118 0 204 -43.5t133 -127.5t47 -205v-84v-76v-540h-77zM188 0v1062h76v-1062h-76z" />
    <glyph glyph-name="o" unicode="o" horiz-adv-x="1304" 
d="M652 -18q-152 0 -269 72.5t-183.5 197t-66.5 281.5t66.5 279.5t183.5 193t269 70.5t269 -70.5t183.5 -193t66.5 -279.5t-66.5 -281.5t-183.5 -197t-269 -72.5zM652 53q129 0 228.5 63t156.5 171.5t57 245.5q0 136 -57 243t-156.5 168t-228.5 61t-228.5 -61t-156.5 -168
t-57 -243q0 -137 57 -245.5t156.5 -171.5t228.5 -63z" />
    <glyph glyph-name="p" unicode="p" horiz-adv-x="1229" 
d="M188 -437v1499h76v-1499h-76zM647 -18q-121 0 -221.5 57.5t-161 154t-60.5 211.5v4v4l61 1v-3.5v-4.5q0 -94 51.5 -174t137 -129t185.5 -49q167 0 272.5 122.5t105.5 353.5t-105 353t-273 122q-100 0 -185.5 -48.5t-137 -128t-51.5 -174.5l-61 1q0 117 60.5 212t161 152
t221.5 57q130 0 231.5 -64t159.5 -186t58 -296q0 -175 -58 -297.5t-159 -186.5t-232 -64z" />
    <glyph glyph-name="q" unicode="q" horiz-adv-x="1216" 
d="M582 -18q-130 0 -231.5 64t-159.5 186.5t-58 297.5q0 174 58 296t160 186t231 64q121 0 221.5 -57t161 -152t60.5 -212v-7v-9l-61 1v7v7q0 95 -51.5 174.5t-137 128t-185.5 48.5q-168 0 -273 -122t-105 -353t105.5 -353.5t272.5 -122.5q100 0 185 48.5t137 130t52 181.5
l61 -1q0 -122 -61 -220t-161.5 -154.5t-220.5 -56.5zM964 -437v1499h77v-1499h-77z" />
    <glyph glyph-name="r" unicode="r" horiz-adv-x="773" 
d="M188 0v1062h76v-299l-31 6q7 41 29 93.5t63.5 101t105.5 80.5t153 32q63 0 101 -11.5t48 -18.5l-24 -73q-10 7 -41 18t-92 11q-85 0 -144.5 -34.5t-96.5 -88.5t-54 -114t-17 -110v-655h-76z" />
    <glyph glyph-name="s" unicode="s" horiz-adv-x="1103" 
d="M551 -18q-97 0 -173 19.5t-129.5 56.5t-82.5 91t-33 122v21v19h77v-18t1 -20q5 -105 93.5 -163t246.5 -58q103 0 180 25.5t119.5 73t42.5 114.5q0 110 -89.5 157.5t-259.5 76.5q-85 16 -157.5 37.5t-125 55.5t-81.5 84t-29 121q0 90 54.5 152t145 94.5t198.5 32.5
q110 0 201 -31.5t145.5 -98t54.5 -170.5v-11.5v-11.5h-77v10.5v10.5q0 86 -45 137t-118 73t-158 22t-159 -22t-120 -68t-46 -117q0 -73 43 -117.5t120 -70.5t180 -45q93 -17 167 -40t126 -56.5t79.5 -82.5t27.5 -119q0 -69 -31 -122t-87 -89.5t-132.5 -55.5t-168.5 -19z" />
    <glyph glyph-name="t" unicode="t" horiz-adv-x="793" 
d="M510 -17q-41 0 -78.5 12t-66.5 39.5t-46 75t-17 119.5v42.5v48.5v673h-251v69h200q19 0 29.5 1t15 6.5t5.5 17t1 33.5v275h78v-333h348v-69h-348v-646v-49v-42q0 -97 32 -150t108 -53q28 0 56.5 4.5t41.5 12.5v-69q-15 -8 -45 -13t-63 -5z" />
    <glyph glyph-name="u" unicode="u" horiz-adv-x="1181" 
d="M556 -18q-116 0 -188 41.5t-111.5 105.5t-54 135.5t-14.5 132.5v79.5v81.5v504h77v-500v-77.5v-73.5q0 -91 27.5 -173t93.5 -133.5t180 -51.5q104 0 185.5 53t128 136.5t46.5 175.5l52 -21q0 -71 -28 -144t-82 -134.5t-132.5 -99t-179.5 -37.5zM926 0v1062h77v-1062h-77z
" />
    <glyph glyph-name="v" unicode="v" horiz-adv-x="1039" 
d="M949 1062l-380 -1062h-93l-386 1062h80l359 -1006h-13l353 1006h80z" />
    <glyph glyph-name="w" unicode="w" horiz-adv-x="1466" 
d="M1024 0l-320 1062h71l308 -1016h-16l228 1016h81l-250 -1062h-102zM342 0l-252 1062h81l230 -1016h-16l305 1016h71l-317 -1062h-102z" />
    <glyph glyph-name="x" unicode="x" horiz-adv-x="1026" 
d="M486 548l-1 -38l-389 552h85l359 -505l-47 1l351 504h85l-383 -543l4 27l389 -546h-88l-360 503l47 4l-369 -507h-84z" />
    <glyph glyph-name="y" unicode="y" horiz-adv-x="1011" 
d="M171 -441q-33 0 -62 5.5t-35 8.5v70q12 -7 40.5 -11t54.5 -4q73 0 120 36.5t77 94t52 120.5l43 120l-379 1063h80l346 -987h-11l344 987h80l-420 -1179q-27 -77 -65 -151.5t-100.5 -123.5t-164.5 -49z" />
    <glyph glyph-name="z" unicode="z" horiz-adv-x="976" 
d="M185 71h690v-71h-773v69l676 925l1 -3h-638v71h721v-69l-676 -926z" />
    <glyph glyph-name="braceleft" unicode="{" horiz-adv-x="788" 
d="M665 1536q-107 0 -178.5 -68t-71.5 -182v-473q0 -72 -15 -122.5t-50 -81.5t-98 -48v4q63 -16 98 -48t50 -82.5t15 -122.5v-129v-146v-117.5v-104.5q0 -114 71.5 -167t178.5 -53v-62q-85 0 -159 25.5t-119 83.5t-45 156v107.5v120.5v149.5v131.5q0 71 -12 112.5t-43 67.5
t-91 47v56q60 21 91 47t43 68.5t12 111.5v483q0 98 45 164.5t119 100t159 33.5v-62z" />
    <glyph glyph-name="bar" unicode="|" horiz-adv-x="551" 
d="M196 -280v1834h64v-1834h-64z" />
    <glyph glyph-name="braceright" unicode="}" horiz-adv-x="788" 
d="M126 1536v62q85 0 159 -33.5t119.5 -100t45.5 -164.5v-116.5v-116.5v-124.5v-125.5q0 -69 11.5 -111.5t43 -68.5t90.5 -47v-56q-59 -21 -90.5 -47t-43 -67.5t-11.5 -112.5v-509q0 -98 -45.5 -156t-119.5 -83.5t-159 -25.5v62q107 0 179 53t72 167v497q0 72 14.5 122.5
t50 82.5t98.5 48v-4q-63 17 -98.5 48t-50 81.5t-14.5 122.5v122.5v122.5v114.5v113.5q0 114 -72 182t-179 68z" />
    <glyph glyph-name="asciitilde" unicode="~" horiz-adv-x="1131" 
d="M819 719q-2 -19 -13.5 -46t-39.5 -48.5t-78 -21.5q-41 0 -72 17t-56 37q-20 17 -42.5 30t-54.5 13q-46 0 -63 -23t-19 -45h-56q2 22 16.5 50t45 48.5t77.5 20.5q42 0 69.5 -16.5t51.5 -35.5t48 -32.5t54 -13.5q48 0 61 23.5t15 42.5h56z" />
    <glyph glyph-name="uni00A0" unicode="&#xa0;" horiz-adv-x="500" 
 />
    <glyph glyph-name="exclamdown" unicode="&#xa1;" horiz-adv-x="561" 
d="M245 -419l10 1170h59l10 -1170h-79zM285 1078q36 0 60.5 -24t24.5 -60q0 -35 -24.5 -59.5t-60.5 -24.5q-34 0 -59 24.5t-25 59.5q0 36 25 60t59 24z" />
    <glyph glyph-name="cent" unicode="&#xa2;" horiz-adv-x="1243" 
d="M612 1475h52v-1475h-52v1475zM652 194q-138 0 -257 64t-190.5 187t-71.5 297q0 175 71.5 297t190.5 185.5t257 63.5q108 0 193 -33.5t144 -87.5t90.5 -117.5t31.5 -122.5v-3v-4h-77q0 5 -0.5 11.5t-1.5 12.5q-11 78 -63 139.5t-134 97.5t-183 36q-115 0 -215.5 -53.5
t-163 -159.5t-62.5 -262t62 -262t163 -160.5t216 -54.5q129 0 213 44t125.5 111t43.5 136h77q0 -63 -29 -126.5t-87 -117t-143.5 -86t-199.5 -32.5z" />
    <glyph glyph-name="sterling" unicode="&#xa3;" horiz-adv-x="1062" 
d="M55 612v54h675v-54h-675zM875 1223q-23 56 -64 103t-104 76t-155 29q-107 0 -178 -44.5t-105.5 -115.5t-34.5 -151q0 -94 25.5 -169t58 -151.5t58 -170.5t25.5 -226q0 -79 -20.5 -142.5t-52.5 -112t-67 -83t-64 -55t-44 -27.5l-35 50q20 8 54.5 35.5t72 75t63 112.5
t25.5 148q0 118 -25.5 207t-59 167.5t-59 161t-25.5 187.5q0 102 47 184.5t133.5 131t203.5 48.5q85 0 148 -20t107.5 -54t75 -75.5t49.5 -85.5zM962 14q-19 -10 -72 -25t-120 -15q-73 0 -130.5 19t-112.5 38t-123 19q-58 0 -110.5 -14t-89.5 -30t-51 -23l10 34q9 4 26.5 15
t41.5 24.5t53.5 26t63.5 20.5t70 8q73 0 125.5 -19t104.5 -38t122 -19q56 0 101.5 13.5t61.5 22.5z" />
    <glyph glyph-name="currency" unicode="&#xa4;" horiz-adv-x="1292" 
d="M1234 1288l43 -44l-211 -210l-43 43zM1234 112l-211 210l43 44l211 -210zM122 1288l211 -211l-44 -43l-211 210zM122 112l-44 44l211 210l44 -44zM685 153q-152 0 -269.5 72.5t-184 197t-66.5 281.5t66.5 279.5t184 193t269.5 70.5t269 -70.5t183.5 -193t66.5 -279.5
t-66.5 -281.5t-183.5 -197t-269 -72.5zM685 224q129 0 228.5 63t156 171.5t56.5 245.5q0 136 -56.5 243t-156 168t-228.5 61t-228.5 -61t-156.5 -168t-57 -243q0 -137 57 -245.5t156.5 -171.5t228.5 -63z" />
    <glyph glyph-name="yen" unicode="&#xa5;" horiz-adv-x="1072" 
d="M171 511v53h707v-53h-707zM172 302v53h707v-53h-707zM970 1475l-395 -959v-516h-78v516l-394 959h82l367 -906h-32l367 906h83z" />
    <glyph glyph-name="brokenbar" unicode="&#xa6;" horiz-adv-x="551" 
d="M196 -258v765h64v-765h-64zM196 791v763h64v-763h-64z" />
    <glyph glyph-name="section" unicode="&#xa7;" horiz-adv-x="1305" 
d="M822 201l-56 26q61 20 118.5 56.5t94.5 93.5t37 137q0 86 -56.5 146.5t-146.5 106.5t-190 87q-103 44 -197.5 91t-154.5 107.5t-60 143.5q0 95 49.5 159.5t134 97.5t191.5 33t192.5 -30.5t136 -94.5t50.5 -165v-13v-13h-70v13v13q0 80 -32.5 128.5t-82 73t-102.5 32.5
t-93 8q-131 0 -217.5 -60.5t-86.5 -177.5q0 -70 51 -121t132.5 -91t172.5 -78q81 -33 159 -69t141.5 -81.5t101.5 -105t38 -138.5q0 -63 -21.5 -114t-58 -90t-82 -66.5t-93.5 -44.5zM622 -304q-106 0 -192 30.5t-136 95t-50 164.5v13v13h70v-13v-13q0 -80 32.5 -128.5
t82 -73t102 -32.5t92.5 -8q131 0 217.5 60.5t86.5 177.5q0 71 -50.5 121.5t-132 91t-173.5 77.5q-81 33 -159 69.5t-141.5 81.5t-101.5 104.5t-38 138.5q0 63 21.5 114t58.5 90t82.5 66.5t92.5 44.5l56 -26q-61 -19 -118.5 -56t-94 -93.5t-36.5 -137.5q0 -85 56.5 -146
t146.5 -107t190 -87q103 -43 197 -90.5t154 -108t60 -143.5q0 -95 -49 -159.5t-134 -97.5t-192 -33z" />
    <glyph glyph-name="dieresis" unicode="&#xa8;" horiz-adv-x="666" 
d="M170 1355q-29 0 -49.5 18t-20.5 47q0 28 20.5 46t49.5 18q28 0 49 -18t21 -46q0 -29 -21 -47t-49 -18zM497 1355q-29 0 -49.5 18t-20.5 47q0 28 20.5 46t49.5 18q28 0 49 -18t21 -46q0 -29 -21 -47t-49 -18z" />
    <glyph glyph-name="copyright" unicode="&#xa9;" horiz-adv-x="1792" 
d="M836 28q-205 0 -368.5 87t-258 247.5t-94.5 378.5t94.5 377t258 246t368.5 87q204 0 366.5 -87t257 -246t94.5 -377t-94.5 -378.5t-257 -247.5t-366.5 -87zM836 70q190 0 341.5 82.5t241 233t89.5 355.5q0 204 -89.5 354t-241 232.5t-341.5 82.5t-343 -82.5t-242 -232.5
t-89 -354q0 -205 89 -355.5t242 -233t343 -82.5zM838 262q-120 0 -214.5 54.5t-149 163t-54.5 267.5q0 153 50 258t143.5 160t224.5 55q109 0 181 -38t114 -93t60 -110t18 -89v-3.5v-4.5h-64v2.5v2.5q0 26 -13.5 72t-47 93.5t-94 81t-154.5 33.5q-168 0 -260.5 -108.5
t-92.5 -309.5q0 -141 46 -237.5t126 -146t181 -49.5q89 0 158.5 38.5t110 103t40.5 142.5h64q0 -98 -49 -174.5t-133.5 -120t-190.5 -43.5z" />
    <glyph glyph-name="ordfeminine" unicode="&#xaa;" horiz-adv-x="647" 
d="M537 1015h-47q-5 16 -9 41t-4 53v217v10v9q0 47 -33 74.5t-111 27.5q-80 0 -123 -31t-43 -88h-45q0 75 56.5 117t154.5 42q88 0 139 -36t51 -108v-8v-9v-211q0 -30 4.5 -58t9.5 -42zM293 1008q-87 0 -135 34t-48 94q0 41 22 69t65 45.5t108 28.5q108 18 140 31t32 31
l36 -23q-2 -21 -53 -40t-146 -35q-82 -14 -119 -38t-37 -68q0 -43 37 -66t108 -23q63 0 119 36t56 97l31 -16q0 -47 -29 -82.5t-78 -55t-109 -19.5z" />
    <glyph glyph-name="guillemotleft" unicode="&#xab;" horiz-adv-x="684" 
d="M417 885l-327 -320l327 -314h-56l-323 314l323 320h56zM647 885l-325 -320l324 -314h-56l-323 314l324 320h56z" />
    <glyph glyph-name="logicalnot" unicode="&#xac;" horiz-adv-x="1131" 
d="M836 365v302l36 -36h-662v53h680v-319h-54z" />
    <glyph glyph-name="uni00AD" unicode="&#xad;" horiz-adv-x="768" 
d="M98 539v54h477v-54h-477z" />
    <glyph glyph-name="registered" unicode="&#xae;" horiz-adv-x="1247" 
d="M611 493q-146 0 -262.5 61.5t-184.5 173t-68 262.5q0 150 68 261.5t184.5 172.5t262.5 61q145 0 261 -61t183.5 -172.5t67.5 -261.5q0 -151 -67.5 -262.5t-183.5 -173t-261 -61.5zM611 530q135 0 241 56t167 159t61 245q0 141 -61 243.5t-167 158.5t-241 56
q-136 0 -242.5 -56t-168 -158.5t-61.5 -243.5q0 -142 61.5 -245t168 -159t242.5 -56zM420 686v624h203q101 0 153 -36t52 -127q0 -69 -40.5 -106t-110.5 -43q73 -5 102 -37.5t29 -88.5v-56v-57q0 -37 4 -53.5t7 -19.5h-46q0 3 -4.5 19t-4.5 54v51.5v51.5q0 58 -28.5 81.5
t-69 28.5t-78.5 5h-122v-291h-46zM466 1014h125q98 0 146 35.5t48 97.5q0 76 -42.5 101t-110.5 25h-166v-259z" />
    <glyph glyph-name="macron" unicode="&#xaf;" horiz-adv-x="725" 
d="M138 1339v43h448v-43h-448z" />
    <glyph glyph-name="degree" unicode="&#xb0;" horiz-adv-x="673" 
d="M304 1202q51 0 87.5 35.5t36.5 87.5t-36.5 87.5t-87.5 35.5t-87 -35.5t-36 -87.5t36 -87.5t87 -35.5zM304 1156q-46 0 -84.5 23t-61.5 61.5t-23 84.5q0 47 23 85.5t61.5 61t84.5 22.5q47 0 85 -22.5t61 -61t23 -85.5q0 -46 -23 -84.5t-61 -61.5t-85 -23z" />
    <glyph glyph-name="plusminus" unicode="&#xb1;" horiz-adv-x="1131" 
d="M205 230v56h713v-56h-713zM929 673h-336v-276h-58v276h-337v56h337v276h58v-276h336v-56z" />
    <glyph glyph-name="uni00B2" unicode="&#xb2;" horiz-adv-x="839" 
d="M120 590v61q2 48 40 102.5t95.5 107t118.5 94.5q58 40 114.5 86t94 97.5t37.5 109.5q0 86 -52.5 132.5t-153.5 46.5q-122 0 -173 -64.5t-51 -157.5h-71q0 123 69.5 201t226.5 78q91 0 152.5 -28t92.5 -81t31 -127q0 -68 -40.5 -125.5t-99 -105t-114.5 -86.5
q-59 -42 -112 -91t-86 -99t-34 -95h502v-56h-587z" />
    <glyph glyph-name="uni00B3" unicode="&#xb3;" horiz-adv-x="841" 
d="M520 1056q107 -4 145 -64.5t38 -140.5q0 -79 -31 -140.5t-94 -97t-158 -35.5q-77 0 -133 18t-92.5 53t-54 86.5t-17.5 118.5v1.5v1.5h72v-1.5v-1.5q0 -119 59 -168.5t166 -49.5q99 0 155.5 58.5t56.5 161.5q0 40 -15.5 79.5t-59 66t-128.5 26.5h-42v51h42q82 0 126 25
t60.5 63.5t16.5 77.5q0 89 -56.5 135.5t-153.5 46.5q-106 0 -166.5 -49.5t-60.5 -157.5h-72q0 81 33.5 140.5t100 91.5t164.5 32q94 0 156.5 -29t94 -81.5t31.5 -123.5q0 -73 -39.5 -132t-143.5 -62z" />
    <glyph glyph-name="acute" unicode="&#xb4;" horiz-adv-x="608" 
d="M120 1251l219 224h104l-249 -224h-74z" />
    <glyph glyph-name="uni00B5" unicode="&#xb5;" horiz-adv-x="1117" 
d="M876 0v1062h77v-1062h-77zM876 398l39 -21q0 -67 -25.5 -136t-76 -128t-125.5 -94.5t-173 -35.5q-124 0 -186 50.5t-87 118.5v-589h-78v1499h78v-587v-32v-32q0 -91 21 -174t80 -135.5t173 -52.5q104 0 185.5 49t128 128.5t46.5 171.5z" />
    <glyph glyph-name="paragraph" unicode="&#xb6;" horiz-adv-x="1039" 
d="M637 -170v793h-22q-126 0 -215.5 36.5t-145 98t-82 137.5t-26.5 156q0 77 24 151.5t78 136t144.5 98t222.5 36.5h275v-1643h-63v1590h-129v-1590h-61z" />
    <glyph glyph-name="periodcentered" unicode="&#xb7;" horiz-adv-x="467" 
d="M234 651q-35 0 -59.5 24.5t-24.5 59.5q0 36 24.5 60t59.5 24t59.5 -24t24.5 -60q0 -35 -24.5 -59.5t-59.5 -24.5z" />
    <glyph glyph-name="cedilla" unicode="&#xb8;" horiz-adv-x="782" 
d="M437 -129q33 0 61.5 -13.5t45.5 -43.5t17 -79q0 -54 -28 -91t-74.5 -56t-100.5 -19q-52 0 -89.5 11.5t-48.5 19.5l22 42q10 -7 40.5 -18.5t80.5 -11.5q62 0 106.5 32.5t44.5 91.5q0 51 -24.5 73.5t-65.5 22.5q-26 0 -54.5 -11.5t-44.5 -28.5l-45 16l67 192h50l-63 -184
l-10 9q8 19 42.5 32.5t70.5 13.5z" />
    <glyph glyph-name="uni00B9" unicode="&#xb9;" horiz-adv-x="611" 
d="M345 1478v-888h-72v814q-5 -6 -36 -24t-77.5 -35.5t-98.5 -22.5v55q50 6 95 25.5t77.5 41t42.5 34.5h69z" />
    <glyph glyph-name="ordmasculine" unicode="&#xba;" horiz-adv-x="802" 
d="M392 1017q-63 0 -119.5 27t-92 78.5t-35.5 125.5q0 75 35.5 126.5t92 78.5t119.5 27q64 0 121 -27t93.5 -78.5t36.5 -126.5q0 -74 -36.5 -125.5t-93.5 -78.5t-121 -27zM392 1059q50 0 96.5 21.5t77 63.5t30.5 104t-30.5 104.5t-77 64t-96.5 21.5q-49 0 -95 -21.5
t-75.5 -64t-29.5 -104.5t29.5 -104t75.5 -63.5t95 -21.5z" />
    <glyph glyph-name="guillemotright" unicode="&#xbb;" horiz-adv-x="658" 
d="M239 885h56l326 -320l-326 -314h-56l329 314zM38 885h56l326 -320l-325 -314h-56l326 314z" />
    <glyph glyph-name="onequarter" unicode="&#xbc;" horiz-adv-x="1570" 
d="M345 1478v-888h-72v814q-5 -6 -36 -24t-77.5 -35.5t-98.5 -22.5v55q50 6 95 25.5t77.5 41t42.5 34.5h69zM178 0l940 1475h66l-939 -1475h-67zM1246 0v212h-386v49l366 627h91v-623h159v-53h-159v-212h-71zM916 235l-22 30h352v569l13 -4z" />
    <glyph glyph-name="onehalf" unicode="&#xbd;" horiz-adv-x="1590" 
d="M345 1478v-888h-72v814q-5 -6 -36 -24t-77.5 -35.5t-98.5 -22.5v55q50 6 95 25.5t77.5 41t42.5 34.5h69zM178 0l940 1475h66l-939 -1475h-67zM872 0v61q2 48 40 102.5t95.5 107t118.5 94.5q58 40 114.5 85.5t94 97.5t37.5 110q0 86 -52.5 132.5t-153.5 46.5
q-122 0 -173 -64.5t-51 -157.5h-71q0 123 69.5 201t226.5 78q91 0 152.5 -28t92.5 -81t31 -127q0 -68 -40.5 -125.5t-99 -105t-114.5 -86.5q-59 -42 -112 -91t-86 -99t-34 -95h502v-56h-587z" />
    <glyph glyph-name="threequarters" unicode="&#xbe;" horiz-adv-x="1800" 
d="M520 1056q107 -4 145 -64.5t38 -140.5q0 -79 -31 -140.5t-94 -97t-158 -35.5q-77 0 -133 18t-92.5 53t-54 86.5t-17.5 118.5v1.5v1.5h72v-1.5v-1.5q0 -119 59 -168.5t166 -49.5q99 0 155.5 58.5t56.5 161.5q0 40 -15.5 79.5t-59 66t-128.5 26.5h-42v51h42q82 0 126 25
t60.5 63.5t16.5 77.5q0 89 -56.5 135.5t-153.5 46.5q-106 0 -166.5 -49.5t-60.5 -157.5h-72q0 81 33.5 140.5t100 91.5t164.5 32q94 0 156.5 -29t94 -81.5t31.5 -123.5q0 -73 -39.5 -132t-143.5 -62zM408 0l940 1475h66l-939 -1475h-67zM1476 0v212h-386v49l366 627h91v-623
h159v-53h-159v-212h-71zM1146 235l-22 30h352v569l13 -4z" />
    <glyph glyph-name="questiondown" unicode="&#xbf;" horiz-adv-x="1083" 
d="M587 751q0 -87 -27 -155.5t-70 -125t-90 -110.5q-45 -51 -86.5 -106t-67.5 -120t-26 -150q0 -164 79.5 -256t236.5 -92q158 0 238.5 96t80.5 263h72q0 -138 -48.5 -233.5t-136.5 -144.5t-207 -49q-118 0 -205 48.5t-134.5 142.5t-47.5 228q0 97 29 169t73.5 130.5
t92.5 111.5q68 75 121.5 156t53.5 197h69zM545 1078q36 0 60 -24t24 -60q0 -35 -24 -59.5t-60 -24.5q-35 0 -59.5 24.5t-24.5 59.5q0 36 24.5 60t59.5 24z" />
    <glyph glyph-name="Agrave" unicode="&#xc0;" horiz-adv-x="1181" 
d="M103 0l431 1481h116l428 -1481h-81l-406 1422h2l-409 -1422h-81zM277 431v69h630v-69h-630zM684 1546h-93l-288 164h114z" />
    <glyph glyph-name="Aacute" unicode="&#xc1;" horiz-adv-x="1181" 
d="M103 0l431 1481h116l428 -1481h-81l-406 1422h2l-409 -1422h-81zM277 431v69h630v-69h-630zM511 1546l267 164h113l-287 -164h-93z" />
    <glyph glyph-name="Acircumflex" unicode="&#xc2;" horiz-adv-x="1181" 
d="M103 0l431 1481h116l428 -1481h-81l-406 1422h2l-409 -1422h-81zM277 431v69h630v-69h-630zM352 1544l195 160h87l196 -160h-83l-170 143h29l-173 -143h-81z" />
    <glyph glyph-name="Atilde" unicode="&#xc3;" horiz-adv-x="1181" 
d="M103 0l431 1481h116l428 -1481h-81l-406 1422h2l-409 -1422h-81zM277 431v69h630v-69h-630zM842 1659q-2 -18 -13.5 -45.5t-39.5 -48.5t-78 -21q-41 0 -72 16.5t-56 37.5q-20 16 -42.5 29.5t-54.5 13.5q-46 0 -63 -23.5t-19 -44.5h-56q2 22 16.5 49.5t45 48t77.5 20.5
q42 0 69.5 -16t51.5 -35q24 -20 48 -33t54 -13q48 0 61 23t15 42h56z" />
    <glyph glyph-name="Adieresis" unicode="&#xc4;" horiz-adv-x="1181" 
d="M103 0l431 1481h116l428 -1481h-81l-406 1422h2l-409 -1422h-81zM277 431v69h630v-69h-630zM429 1574q-29 0 -49.5 18t-20.5 47q0 28 20.5 46t49.5 18q28 0 49 -18t21 -46q0 -29 -21 -47t-49 -18zM756 1574q-29 0 -49.5 18t-20.5 47q0 28 20.5 46t49.5 18q28 0 49 -18
t21 -46q0 -29 -21 -47t-49 -18z" />
    <glyph glyph-name="Aring" unicode="&#xc5;" horiz-adv-x="1181" 
d="M103 0l431 1481h116l428 -1481h-81l-406 1422h2l-409 -1422h-81zM277 431v69h630v-69h-630zM591 1569q52 0 88 35.5t36 87.5t-36 87.5t-88 35.5q-51 0 -87 -35.5t-36 -87.5t36 -87.5t87 -35.5zM591 1523q-46 0 -84.5 23t-61.5 61.5t-23 84.5q0 47 23 85.5t61.5 61
t84.5 22.5q48 0 86 -22.5t60.5 -61t22.5 -85.5q0 -46 -22.5 -84.5t-60.5 -61.5t-86 -23z" />
    <glyph glyph-name="AE" unicode="&#xc6;" horiz-adv-x="1810" 
d="M10 0l868 1475h769v-69h-700l29 29v-687l-26 26h586v-68h-585l25 25v-689l-26 27h697v-69h-746v1395l9 -5l-814 -1390h-86zM290 366l18 69h630v-69h-648z" />
    <glyph glyph-name="Ccedilla" unicode="&#xc7;" horiz-adv-x="1265" 
d="M1155 487q0 -84 -31 -172.5t-93 -164t-155 -122t-218 -46.5q-129 0 -230.5 54.5t-172.5 154.5t-108 238.5t-37 307.5t37 307t108 238t172.5 154t230.5 54q146 0 249 -63t163 -160t77 -199q8 -42 8 -81h-78q0 28 -5 65q-13 91 -65 175.5t-139.5 138t-209.5 53.5
q-142 0 -247.5 -82t-163 -235t-57.5 -365t57.5 -365.5t163 -236.5t247.5 -83q103 0 181 39t131 103.5t80 141t27 151.5h78zM721 -129q33 0 61.5 -13.5t45.5 -43.5t17 -79q0 -54 -28 -91t-74.5 -56t-100.5 -19q-52 0 -89.5 11.5t-48.5 19.5l22 42q10 -7 40.5 -18.5
t80.5 -11.5q62 0 106.5 32.5t44.5 91.5q0 51 -24.5 73.5t-65.5 22.5q-26 0 -54.5 -11.5t-44.5 -28.5l-43 16l67 192h47l-64 -184l-5 9q8 19 41 32.5t69 13.5z" />
    <glyph glyph-name="Egrave" unicode="&#xc8;" horiz-adv-x="1073" 
d="M206 1406l35 42v-703l-24 29h621v-68h-621l24 29v-708l-35 42h703v-69h-745v1475h745v-69h-703zM639 1546h-93l-288 164h114z" />
    <glyph glyph-name="Eacute" unicode="&#xc9;" horiz-adv-x="1073" 
d="M206 1406l35 42v-703l-24 29h621v-68h-621l24 29v-708l-35 42h703v-69h-745v1475h745v-69h-703zM466 1546l267 164h113l-287 -164h-93z" />
    <glyph glyph-name="Ecircumflex" unicode="&#xca;" horiz-adv-x="1073" 
d="M206 1406l35 42v-703l-24 29h621v-68h-621l24 29v-708l-35 42h703v-69h-745v1475h745v-69h-703zM307 1544l195 160h87l196 -160h-83l-170 143h29l-173 -143h-81z" />
    <glyph glyph-name="Edieresis" unicode="&#xcb;" horiz-adv-x="1073" 
d="M206 1406l35 42v-703l-24 29h621v-68h-621l24 29v-708l-35 42h703v-69h-745v1475h745v-69h-703zM384 1574q-29 0 -49.5 18t-20.5 47q0 28 20.5 46t49.5 18q28 0 49 -18t21 -46q0 -29 -21 -47t-49 -18zM711 1574q-29 0 -49.5 18t-20.5 47q0 28 20.5 46t49.5 18
q28 0 49 -18t21 -46q0 -29 -21 -47t-49 -18z" />
    <glyph glyph-name="Igrave" unicode="&#xcc;" horiz-adv-x="448" 
d="M186 0v1475h76v-1475h-76zM317 1546h-93l-288 164h114z" />
    <glyph glyph-name="Iacute" unicode="&#xcd;" horiz-adv-x="448" 
d="M186 0v1475h76v-1475h-76zM143 1546l267 164h113l-287 -164h-93z" />
    <glyph glyph-name="Icircumflex" unicode="&#xce;" horiz-adv-x="448" 
d="M186 0v1475h76v-1475h-76zM-15 1544l195 160h87l196 -160h-83l-170 143h29l-173 -143h-81z" />
    <glyph glyph-name="Idieresis" unicode="&#xcf;" horiz-adv-x="448" 
d="M186 0v1475h76v-1475h-76zM120 1577q-28 0 -49 18.5t-21 46.5t21 46.5t49 18.5t49 -18.5t21 -46.5t-21 -46.5t-49 -18.5zM329 1577q-29 0 -49.5 18.5t-20.5 46.5t20.5 46.5t49.5 18.5q28 0 49 -18.5t21 -46.5t-21 -46.5t-49 -18.5z" />
    <glyph glyph-name="Eth" unicode="&#xd0;" horiz-adv-x="1204" 
d="M7 715v45h674v-45h-674zM164 0v1475h298q144 0 260.5 -49.5t199.5 -144t127.5 -231.5t44.5 -313q0 -177 -44.5 -313.5t-127.5 -231t-199.5 -143.5t-260.5 -49h-298zM243 27l-35 42h248q168 0 294 79.5t195.5 229t69.5 359.5t-69.5 360t-195.5 229.5t-294 79.5h-248l35 42
v-1421z" />
    <glyph glyph-name="Ntilde" unicode="&#xd1;" horiz-adv-x="1273" 
d="M239 0h-75v1475h125l753 -1429l-8 -5v1434h75v-1475h-128l-750 1428l8 3v-1431zM890 1659q-2 -18 -13.5 -45.5t-39.5 -48.5t-78 -21q-41 0 -72 16.5t-56 37.5q-20 16 -42.5 29.5t-54.5 13.5q-46 0 -63 -23.5t-19 -44.5h-56q2 22 16.5 49.5t45 48t77.5 20.5q42 0 69.5 -16
t51.5 -35q24 -20 48 -33t54 -13q48 0 61 23t15 42h56z" />
    <glyph glyph-name="Ograve" unicode="&#xd2;" horiz-adv-x="1346" 
d="M673 -18q-123 0 -226 51.5t-178.5 150t-117 238.5t-41.5 317t42 316.5t118 236t178.5 147.5t224.5 51t225 -51t179 -147.5t117.5 -236t41.5 -316.5t-41.5 -317t-117 -238.5t-178.5 -150t-226 -51.5zM673 52q142 0 251.5 82.5t171 237t61.5 367.5q0 214 -62.5 366.5
t-171.5 233t-250 80.5q-140 0 -249.5 -80.5t-172 -233t-62.5 -366.5t62.5 -368t172 -236.5t249.5 -82.5zM765 1546h-93l-288 164h114z" />
    <glyph glyph-name="Oacute" unicode="&#xd3;" horiz-adv-x="1346" 
d="M673 -18q-123 0 -226 51.5t-178.5 150t-117 238.5t-41.5 317t42 316.5t118 236t178.5 147.5t224.5 51t225 -51t179 -147.5t117.5 -236t41.5 -316.5t-41.5 -317t-117 -238.5t-178.5 -150t-226 -51.5zM673 52q142 0 251.5 82.5t171 237t61.5 367.5q0 214 -62.5 366.5
t-171.5 233t-250 80.5q-140 0 -249.5 -80.5t-172 -233t-62.5 -366.5t62.5 -368t172 -236.5t249.5 -82.5zM592 1546l267 164h113l-287 -164h-93z" />
    <glyph glyph-name="Ocircumflex" unicode="&#xd4;" horiz-adv-x="1346" 
d="M673 -18q-123 0 -226 51.5t-178.5 150t-117 238.5t-41.5 317t42 316.5t118 236t178.5 147.5t224.5 51t225 -51t179 -147.5t117.5 -236t41.5 -316.5t-41.5 -317t-117 -238.5t-178.5 -150t-226 -51.5zM673 52q142 0 251.5 82.5t171 237t61.5 367.5q0 214 -62.5 366.5
t-171.5 233t-250 80.5q-140 0 -249.5 -80.5t-172 -233t-62.5 -366.5t62.5 -368t172 -236.5t249.5 -82.5zM434 1544l195 160h87l196 -160h-83l-170 143h29l-173 -143h-81z" />
    <glyph glyph-name="Otilde" unicode="&#xd5;" horiz-adv-x="1346" 
d="M673 -18q-123 0 -226 51.5t-178.5 150t-117 238.5t-41.5 317t42 316.5t118 236t178.5 147.5t224.5 51t225 -51t179 -147.5t117.5 -236t41.5 -316.5t-41.5 -317t-117 -238.5t-178.5 -150t-226 -51.5zM673 52q142 0 251.5 82.5t171 237t61.5 367.5q0 214 -62.5 366.5
t-171.5 233t-250 80.5q-140 0 -249.5 -80.5t-172 -233t-62.5 -366.5t62.5 -368t172 -236.5t249.5 -82.5zM923 1659q-2 -18 -13.5 -45.5t-39.5 -48.5t-78 -21q-41 0 -72 16.5t-56 37.5q-20 16 -42.5 29.5t-54.5 13.5q-46 0 -63 -23.5t-19 -44.5h-56q2 22 16.5 49.5t45 48
t77.5 20.5q42 0 69.5 -16t51.5 -35q24 -20 48 -33t54 -13q48 0 61 23t15 42h56z" />
    <glyph glyph-name="Odieresis" unicode="&#xd6;" horiz-adv-x="1346" 
d="M673 -18q-123 0 -226 51.5t-178.5 150t-117 238.5t-41.5 317t42 316.5t118 236t178.5 147.5t224.5 51t225 -51t179 -147.5t117.5 -236t41.5 -316.5t-41.5 -317t-117 -238.5t-178.5 -150t-226 -51.5zM673 52q142 0 251.5 82.5t171 237t61.5 367.5q0 214 -62.5 366.5
t-171.5 233t-250 80.5q-140 0 -249.5 -80.5t-172 -233t-62.5 -366.5t62.5 -368t172 -236.5t249.5 -82.5zM510 1574q-29 0 -49.5 18t-20.5 47q0 28 20.5 46t49.5 18q28 0 49 -18t21 -46q0 -29 -21 -47t-49 -18zM837 1574q-29 0 -49.5 18t-20.5 47q0 28 20.5 46t49.5 18
q28 0 49 -18t21 -46q0 -29 -21 -47t-49 -18z" />
    <glyph glyph-name="multiply" unicode="&#xd7;" horiz-adv-x="1131" 
d="M306 254l-39 38l556 497l41 -39zM864 292l-41 -39l-558 497l40 39z" />
    <glyph glyph-name="Oslash" unicode="&#xd8;" horiz-adv-x="1346" 
d="M1161 1510l-927 -1571l-49 27l925 1570zM673 -18q-123 0 -226 51.5t-178.5 150t-117 238.5t-41.5 317t42 316.5t118 236t178.5 147.5t224.5 51t225 -51t179 -147.5t117.5 -236t41.5 -316.5t-41.5 -317t-117 -238.5t-178.5 -150t-226 -51.5zM673 52q142 0 251.5 82.5
t171 237t61.5 367.5q0 214 -62.5 366.5t-171.5 233t-250 80.5q-140 0 -249.5 -80.5t-172 -233t-62.5 -366.5t62.5 -368t172 -236.5t249.5 -82.5z" />
    <glyph glyph-name="Ugrave" unicode="&#xd9;" horiz-adv-x="1278" 
d="M1115 551q0 -292 -125 -430.5t-351 -138.5q-225 0 -350 138.5t-125 430.5v102v115v707h77v-703v-114v-98q0 -266 104 -387t294 -121q191 0 295 121t104 387v915h77v-924zM731 1546h-93l-288 164h114z" />
    <glyph glyph-name="Uacute" unicode="&#xda;" horiz-adv-x="1278" 
d="M1115 551q0 -292 -125 -430.5t-351 -138.5q-225 0 -350 138.5t-125 430.5v102v115v707h77v-703v-114v-98q0 -266 104 -387t294 -121q191 0 295 121t104 387v915h77v-924zM557 1546l267 164h113l-287 -164h-93z" />
    <glyph glyph-name="Ucircumflex" unicode="&#xdb;" horiz-adv-x="1278" 
d="M1115 551q0 -292 -125 -430.5t-351 -138.5q-225 0 -350 138.5t-125 430.5v102v115v707h77v-703v-114v-98q0 -266 104 -387t294 -121q191 0 295 121t104 387v915h77v-924zM399 1544l195 160h87l196 -160h-83l-170 143h29l-173 -143h-81z" />
    <glyph glyph-name="Udieresis" unicode="&#xdc;" horiz-adv-x="1278" 
d="M1115 551q0 -292 -125 -430.5t-351 -138.5q-225 0 -350 138.5t-125 430.5v102v115v707h77v-703v-114v-98q0 -266 104 -387t294 -121q191 0 295 121t104 387v915h77v-924zM475 1574q-29 0 -49.5 18t-20.5 47q0 28 20.5 46t49.5 18q28 0 49 -18t21 -46q0 -29 -21 -47
t-49 -18zM802 1574q-29 0 -49.5 18t-20.5 47q0 28 20.5 46t49.5 18q28 0 49 -18t21 -46q0 -29 -21 -47t-49 -18z" />
    <glyph glyph-name="Yacute" unicode="&#xdd;" horiz-adv-x="1072" 
d="M970 1475l-395 -959v-516h-78v516l-394 959h82l367 -906h-32l367 906h83zM455 1546l267 164h113l-287 -164h-93z" />
    <glyph glyph-name="Thorn" unicode="&#xde;" horiz-adv-x="1055" 
d="M164 0v1473h76v-356l-27 27h285q130 0 231 -48t158.5 -141t57.5 -226q0 -135 -58.5 -227.5t-159.5 -140t-229 -47.5h-285l27 27v-341h-76zM240 352l-24 30h277q107 0 192 40t134.5 117.5t49.5 189.5q0 113 -50 190t-135 116.5t-191 39.5h-278l25 32v-755z" />
    <glyph glyph-name="germandbls" unicode="&#xdf;" horiz-adv-x="1161" 
d="M156 0v1021q0 101 18.5 178.5t54 134t85 92.5t112 53t135.5 17q98 0 172.5 -37.5t116.5 -103.5t42 -154q0 -101 -45.5 -161.5t-90.5 -97.5q-32 -26 -53 -52t-21 -61q0 -37 42 -72t101 -74q49 -30 95 -73.5t77 -103.5t31 -143q0 -117 -51.5 -201t-147.5 -129.5t-229 -45.5
q-64 0 -114.5 10t-73.5 19l19 72q18 -8 65.5 -19.5t101.5 -11.5q155 0 253.5 76t98.5 224q0 70 -28 121.5t-71 90.5t-88 67q-62 41 -111 87.5t-49 104.5q0 47 24 81t56 58q50 39 92 93.5t42 140.5q0 58 -26 109.5t-83 83.5t-151 32q-155 0 -239.5 -96.5t-84.5 -311.5v-1018
h-77z" />
    <glyph glyph-name="agrave" unicode="&#xe0;" horiz-adv-x="1201" 
d="M547 -18q-125 0 -215.5 36t-139.5 105.5t-49 169.5q0 99 50 164t145 102t229 50q210 21 304 45t94 75v13.5v12.5q0 114 -93 182t-262 68q-175 0 -274 -75.5t-99 -214.5h-77q0 113 55.5 193.5t157 124t237.5 43.5q124 0 221.5 -38t154 -110.5t56.5 -175.5v-41v-41v-494
q0 -32 3 -61.5t10 -51.5q8 -26 16.5 -41.5t13.5 -21.5h-77q-5 4 -13 19.5t-15 39.5q-9 29 -12 61.5t-3 86.5l12 -11q-31 -64 -94 -112.5t-149 -75t-187 -26.5zM558 52q113 0 205 39t147 110.5t55 167.5v287l15 -29q-51 -33 -156.5 -52t-235.5 -32q-179 -17 -273.5 -72.5
t-94.5 -175.5q0 -116 87 -179.5t251 -63.5zM681 1251h-74l-249 224h104z" />
    <glyph glyph-name="aacute" unicode="&#xe1;" horiz-adv-x="1201" 
d="M547 -18q-125 0 -215.5 36t-139.5 105.5t-49 169.5q0 99 50 164t145 102t229 50q210 21 304 45t94 75v13.5v12.5q0 114 -93 182t-262 68q-175 0 -274 -75.5t-99 -214.5h-77q0 113 55.5 193.5t157 124t237.5 43.5q124 0 221.5 -38t154 -110.5t56.5 -175.5v-41v-41v-494
q0 -32 3 -61.5t10 -51.5q8 -26 16.5 -41.5t13.5 -21.5h-77q-5 4 -13 19.5t-15 39.5q-9 29 -12 61.5t-3 86.5l12 -11q-31 -64 -94 -112.5t-149 -75t-187 -26.5zM558 52q113 0 205 39t147 110.5t55 167.5v287l15 -29q-51 -33 -156.5 -52t-235.5 -32q-179 -17 -273.5 -72.5
t-94.5 -175.5q0 -116 87 -179.5t251 -63.5zM547 1251l219 224h104l-249 -224h-74z" />
    <glyph glyph-name="acircumflex" unicode="&#xe2;" horiz-adv-x="1201" 
d="M547 -18q-125 0 -215.5 36t-139.5 105.5t-49 169.5q0 99 50 164t145 102t229 50q210 21 304 45t94 75v13.5v12.5q0 114 -93 182t-262 68q-175 0 -274 -75.5t-99 -214.5h-77q0 113 55.5 193.5t157 124t237.5 43.5q124 0 221.5 -38t154 -110.5t56.5 -175.5v-41v-41v-494
q0 -32 3 -61.5t10 -51.5q8 -26 16.5 -41.5t13.5 -21.5h-77q-5 4 -13 19.5t-15 39.5q-9 29 -12 61.5t-3 86.5l12 -11q-31 -64 -94 -112.5t-149 -75t-187 -26.5zM558 52q113 0 205 39t147 110.5t55 167.5v287l15 -29q-51 -33 -156.5 -52t-235.5 -32q-179 -17 -273.5 -72.5
t-94.5 -175.5q0 -116 87 -179.5t251 -63.5zM383 1251l192 224h75l194 -224h-75l-170 205h30l-173 -205h-73z" />
    <glyph glyph-name="atilde" unicode="&#xe3;" horiz-adv-x="1201" 
d="M547 -18q-125 0 -215.5 36t-139.5 105.5t-49 169.5q0 99 50 164t145 102t229 50q210 21 304 45t94 75v13.5v12.5q0 114 -93 182t-262 68q-175 0 -274 -75.5t-99 -214.5h-77q0 113 55.5 193.5t157 124t237.5 43.5q124 0 221.5 -38t154 -110.5t56.5 -175.5v-41v-41v-494
q0 -32 3 -61.5t10 -51.5q8 -26 16.5 -41.5t13.5 -21.5h-77q-5 4 -13 19.5t-15 39.5q-9 29 -12 61.5t-3 86.5l12 -11q-31 -64 -94 -112.5t-149 -75t-187 -26.5zM558 52q113 0 205 39t147 110.5t55 167.5v287l15 -29q-51 -33 -156.5 -52t-235.5 -32q-179 -17 -273.5 -72.5
t-94.5 -175.5q0 -116 87 -179.5t251 -63.5zM861 1448q-2 -19 -13.5 -46t-39.5 -48.5t-78 -21.5q-41 0 -72 17t-56 37q-20 17 -42.5 30t-54.5 13q-46 0 -63 -23t-19 -45h-56q2 22 16.5 50t45 48.5t77.5 20.5q42 0 69.5 -16.5t51.5 -35.5t48 -32.5t54 -13.5q48 0 61 23.5
t15 42.5h56z" />
    <glyph glyph-name="adieresis" unicode="&#xe4;" horiz-adv-x="1201" 
d="M547 -18q-125 0 -215.5 36t-139.5 105.5t-49 169.5q0 99 50 164t145 102t229 50q210 21 304 45t94 75v13.5v12.5q0 114 -93 182t-262 68q-175 0 -274 -75.5t-99 -214.5h-77q0 113 55.5 193.5t157 124t237.5 43.5q124 0 221.5 -38t154 -110.5t56.5 -175.5v-41v-41v-494
q0 -32 3 -61.5t10 -51.5q8 -26 16.5 -41.5t13.5 -21.5h-77q-5 4 -13 19.5t-15 39.5q-9 29 -12 61.5t-3 86.5l12 -11q-31 -64 -94 -112.5t-149 -75t-187 -26.5zM558 52q113 0 205 39t147 110.5t55 167.5v287l15 -29q-51 -33 -156.5 -52t-235.5 -32q-179 -17 -273.5 -72.5
t-94.5 -175.5q0 -116 87 -179.5t251 -63.5zM450 1355q-29 0 -49.5 18t-20.5 47q0 28 20.5 46t49.5 18q28 0 49 -18t21 -46q0 -29 -21 -47t-49 -18zM777 1355q-29 0 -49.5 18t-20.5 47q0 28 20.5 46t49.5 18q28 0 49 -18t21 -46q0 -29 -21 -47t-49 -18z" />
    <glyph glyph-name="aring" unicode="&#xe5;" horiz-adv-x="1201" 
d="M547 -18q-125 0 -215.5 36t-139.5 105.5t-49 169.5q0 99 50 164t145 102t229 50q210 21 304 45t94 75v13.5v12.5q0 114 -93 182t-262 68q-175 0 -274 -75.5t-99 -214.5h-77q0 113 55.5 193.5t157 124t237.5 43.5q124 0 221.5 -38t154 -110.5t56.5 -175.5v-41v-41v-494
q0 -32 3 -61.5t10 -51.5q8 -26 16.5 -41.5t13.5 -21.5h-77q-5 4 -13 19.5t-15 39.5q-9 29 -12 61.5t-3 86.5l12 -11q-31 -64 -94 -112.5t-149 -75t-187 -26.5zM558 52q113 0 205 39t147 110.5t55 167.5v287l15 -29q-51 -33 -156.5 -52t-235.5 -32q-179 -17 -273.5 -72.5
t-94.5 -175.5q0 -116 87 -179.5t251 -63.5zM613 1204q52 0 88 36t36 88q0 51 -36 87t-88 36q-51 0 -87 -36t-36 -87q0 -52 36 -88t87 -36zM613 1159q-46 0 -84.5 22.5t-61.5 61t-23 85.5t23 85t61.5 61t84.5 23q48 0 86 -23t60.5 -61t22.5 -85t-22.5 -85.5t-60.5 -61
t-86 -22.5z" />
    <glyph glyph-name="ae" unicode="&#xe6;" horiz-adv-x="2165" 
d="M569 -17q-190 0 -308 87t-118 239q0 79 32 134.5t93 90t146 50.5t190 16q169 0 259 3t124 18.5t34 49.5v16v16q0 149 -97 227t-266 78q-116 0 -206.5 -35t-142 -100t-51.5 -158h-78q0 85 36 152t100.5 113.5t151.5 71t190 24.5q167 0 283.5 -75.5t138.5 -234.5
q1 -4 2.5 -8.5t2.5 -8.5l-18 2q57 148 182.5 236.5t291.5 88.5q150 0 260 -73t170.5 -195t60.5 -269v-22.5t-1 -20.5h-966l34 26v-9.5v-8.5q5 -132 63.5 -235t156.5 -161.5t223 -58.5q99 0 172 29t121.5 74.5t74 93.5t29.5 87h77q-4 -52 -36 -112.5t-91 -115t-146.5 -89
t-202.5 -34.5q-117 0 -215.5 44.5t-168.5 126.5t-103 192l19 4q-29 -138 -105 -218t-180.5 -114t-217.5 -34zM575 51q83 0 162.5 21t143.5 74.5t102.5 149t38.5 244.5v30.5v30.5l14 -33q-50 -23 -153 -28t-260 -5q-187 0 -294 -46.5t-107 -178.5q0 -120 98 -189.5t255 -69.5
zM1101 565h853q0 4 -0.5 9t-0.5 11q-4 110 -55 207t-141.5 157t-214.5 60q-123 0 -220 -58.5t-155.5 -159t-65.5 -226.5z" />
    <glyph glyph-name="ccedilla" unicode="&#xe7;" horiz-adv-x="1243" 
d="M713 -129q33 0 61.5 -13.5t46 -43.5t17.5 -79q0 -54 -28.5 -91t-75 -56t-100.5 -19q-51 0 -89 11.5t-49 19.5l22 42q10 -7 41 -18.5t80 -11.5q63 0 107 32.5t44 91.5q0 51 -24.5 73.5t-64.5 22.5q-27 0 -55.5 -11.5t-43.5 -28.5l-45 16l67 192h49l-63 -184l-10 9
q8 19 42.5 32.5t70.5 13.5zM652 -18q-138 0 -257 64t-190.5 187t-71.5 297q0 175 71.5 297t190.5 185.5t257 63.5q108 0 193 -33.5t144 -87.5t90.5 -117.5t31.5 -122.5v-3v-4h-77q0 5 -0.5 11.5t-1.5 12.5q-11 78 -63 139.5t-134 97.5t-183 36q-115 0 -215.5 -53.5
t-163 -159.5t-62.5 -262t62 -262t163 -160.5t216 -54.5q129 0 213 44t125.5 111t43.5 136h77q0 -63 -29 -126.5t-87 -117t-143.5 -86t-199.5 -32.5z" />
    <glyph glyph-name="egrave" unicode="&#xe8;" horiz-adv-x="1274" 
d="M180 496v69h899l-19 -18v10v8q0 115 -49 215.5t-140.5 163t-219.5 62.5q-129 0 -229 -63t-157 -171t-57 -243q0 -139 57 -246.5t157.5 -169t228.5 -61.5q100 0 173 28.5t121 72.5t73.5 92t29.5 88h78q-5 -54 -37 -115t-91 -114.5t-146 -87.5t-202 -34q-149 0 -265.5 69.5
t-184 192.5t-67.5 283q0 161 67.5 284.5t184.5 194t266 70.5q150 0 260 -72.5t170.5 -193.5t60.5 -267q0 -10 -0.5 -25t-1.5 -22h-960zM718 1251h-74l-249 224h104z" />
    <glyph glyph-name="eacute" unicode="&#xe9;" horiz-adv-x="1274" 
d="M180 496v69h899l-19 -18v10v8q0 115 -49 215.5t-140.5 163t-219.5 62.5q-129 0 -229 -63t-157 -171t-57 -243q0 -139 57 -246.5t157.5 -169t228.5 -61.5q100 0 173 28.5t121 72.5t73.5 92t29.5 88h78q-5 -54 -37 -115t-91 -114.5t-146 -87.5t-202 -34q-149 0 -265.5 69.5
t-184 192.5t-67.5 283q0 161 67.5 284.5t184.5 194t266 70.5q150 0 260 -72.5t170.5 -193.5t60.5 -267q0 -10 -0.5 -25t-1.5 -22h-960zM584 1251l219 224h104l-249 -224h-74z" />
    <glyph glyph-name="ecircumflex" unicode="&#xea;" horiz-adv-x="1274" 
d="M180 496v69h899l-19 -18v10v8q0 115 -49 215.5t-140.5 163t-219.5 62.5q-129 0 -229 -63t-157 -171t-57 -243q0 -139 57 -246.5t157.5 -169t228.5 -61.5q100 0 173 28.5t121 72.5t73.5 92t29.5 88h78q-5 -54 -37 -115t-91 -114.5t-146 -87.5t-202 -34q-149 0 -265.5 69.5
t-184 192.5t-67.5 283q0 161 67.5 284.5t184.5 194t266 70.5q150 0 260 -72.5t170.5 -193.5t60.5 -267q0 -10 -0.5 -25t-1.5 -22h-960zM420 1251l192 224h75l194 -224h-75l-170 205h30l-173 -205h-73z" />
    <glyph glyph-name="edieresis" unicode="&#xeb;" horiz-adv-x="1274" 
d="M180 496v69h899l-19 -18v10v8q0 115 -49 215.5t-140.5 163t-219.5 62.5q-129 0 -229 -63t-157 -171t-57 -243q0 -139 57 -246.5t157.5 -169t228.5 -61.5q100 0 173 28.5t121 72.5t73.5 92t29.5 88h78q-5 -54 -37 -115t-91 -114.5t-146 -87.5t-202 -34q-149 0 -265.5 69.5
t-184 192.5t-67.5 283q0 161 67.5 284.5t184.5 194t266 70.5q150 0 260 -72.5t170.5 -193.5t60.5 -267q0 -10 -0.5 -25t-1.5 -22h-960zM487 1355q-29 0 -49.5 18t-20.5 47q0 28 20.5 46t49.5 18q28 0 49 -18t21 -46q0 -29 -21 -47t-49 -18zM814 1355q-29 0 -49.5 18
t-20.5 47q0 28 20.5 46t49.5 18q28 0 49 -18t21 -46q0 -29 -21 -47t-49 -18z" />
    <glyph glyph-name="igrave" unicode="&#xec;" horiz-adv-x="466" 
d="M195 0v1062h76v-1062h-76zM300 1251h-74l-249 224h104z" />
    <glyph glyph-name="iacute" unicode="&#xed;" horiz-adv-x="466" 
d="M195 0v1062h76v-1062h-76zM166 1251l219 224h104l-249 -224h-74z" />
    <glyph glyph-name="icircumflex" unicode="&#xee;" horiz-adv-x="466" 
d="M195 0v1062h76v-1062h-76zM2 1251l192 224h75l194 -224h-75l-170 205h30l-173 -205h-73z" />
    <glyph glyph-name="idieresis" unicode="&#xef;" horiz-adv-x="466" 
d="M195 0v1062h76v-1062h-76zM128 1355q-28 0 -49 18t-21 47q0 28 21 46t49 18t49 -18t21 -46q0 -29 -21 -47t-49 -18zM337 1355q-29 0 -49.5 18t-20.5 47q0 28 20.5 46t49.5 18q28 0 49 -18t21 -46q0 -29 -21 -47t-49 -18z" />
    <glyph glyph-name="eth" unicode="&#xf0;" horiz-adv-x="1347" 
d="M648 1336l249 202l60 -37l-248 -201zM1097 533q0 240 -45 409.5t-124 282.5t-184 180t-225 101l52 51q128 -40 237 -114.5t191 -194.5t127 -296t45 -419h-74zM652 -16q-152 0 -269 71.5t-183.5 196t-66.5 281.5t66.5 279t183.5 192t269 70t269 -70t183.5 -192t66.5 -279
t-66.5 -281.5t-183.5 -196t-269 -71.5zM652 53q129 0 228.5 63t156.5 171.5t57 245.5q0 136 -57 243t-156.5 168t-228.5 61t-228.5 -61t-156.5 -168t-57 -243q0 -137 57 -245.5t156.5 -171.5t228.5 -63z" />
    <glyph glyph-name="ntilde" unicode="&#xf1;" horiz-adv-x="1209" 
d="M954 0v547v81v57q0 94 -35 166t-105 112t-177 40q-93 0 -179 -45t-140 -123t-54 -178l-51 20q0 117 63.5 207t163 141t207.5 51q118 0 204 -43.5t133 -127.5t47 -205v-84v-76v-540h-77zM188 0v1062h76v-1062h-76zM876 1448q-2 -19 -13.5 -46t-39.5 -48.5t-78 -21.5
q-41 0 -72 17t-56 37q-20 17 -42.5 30t-54.5 13q-46 0 -63 -23t-19 -45h-56q2 22 16.5 50t45 48.5t77.5 20.5q42 0 69.5 -16.5t51.5 -35.5t48 -32.5t54 -13.5q48 0 61 23.5t15 42.5h56z" />
    <glyph glyph-name="ograve" unicode="&#xf2;" horiz-adv-x="1304" 
d="M652 -18q-152 0 -269 72.5t-183.5 197t-66.5 281.5t66.5 279.5t183.5 193t269 70.5t269 -70.5t183.5 -193t66.5 -279.5t-66.5 -281.5t-183.5 -197t-269 -72.5zM652 53q129 0 228.5 63t156.5 171.5t57 245.5q0 136 -57 243t-156.5 168t-228.5 61t-228.5 -61t-156.5 -168
t-57 -243q0 -137 57 -245.5t156.5 -171.5t228.5 -63zM720 1251h-74l-249 224h104z" />
    <glyph glyph-name="oacute" unicode="&#xf3;" horiz-adv-x="1304" 
d="M652 -18q-152 0 -269 72.5t-183.5 197t-66.5 281.5t66.5 279.5t183.5 193t269 70.5t269 -70.5t183.5 -193t66.5 -279.5t-66.5 -281.5t-183.5 -197t-269 -72.5zM652 53q129 0 228.5 63t156.5 171.5t57 245.5q0 136 -57 243t-156.5 168t-228.5 61t-228.5 -61t-156.5 -168
t-57 -243q0 -137 57 -245.5t156.5 -171.5t228.5 -63zM586 1251l219 224h104l-249 -224h-74z" />
    <glyph glyph-name="ocircumflex" unicode="&#xf4;" horiz-adv-x="1304" 
d="M652 -18q-152 0 -269 72.5t-183.5 197t-66.5 281.5t66.5 279.5t183.5 193t269 70.5t269 -70.5t183.5 -193t66.5 -279.5t-66.5 -281.5t-183.5 -197t-269 -72.5zM652 53q129 0 228.5 63t156.5 171.5t57 245.5q0 136 -57 243t-156.5 168t-228.5 61t-228.5 -61t-156.5 -168
t-57 -243q0 -137 57 -245.5t156.5 -171.5t228.5 -63zM422 1251l192 224h75l194 -224h-75l-170 205h30l-173 -205h-73z" />
    <glyph glyph-name="otilde" unicode="&#xf5;" horiz-adv-x="1304" 
d="M652 -18q-152 0 -269 72.5t-183.5 197t-66.5 281.5t66.5 279.5t183.5 193t269 70.5t269 -70.5t183.5 -193t66.5 -279.5t-66.5 -281.5t-183.5 -197t-269 -72.5zM652 53q129 0 228.5 63t156.5 171.5t57 245.5q0 136 -57 243t-156.5 168t-228.5 61t-228.5 -61t-156.5 -168
t-57 -243q0 -137 57 -245.5t156.5 -171.5t228.5 -63zM899 1448q-2 -19 -13.5 -46t-39.5 -48.5t-78 -21.5q-41 0 -72 17t-56 37q-20 17 -42.5 30t-54.5 13q-46 0 -63 -23t-19 -45h-56q2 22 16.5 50t45 48.5t77.5 20.5q42 0 69.5 -16.5t51.5 -35.5t48 -32.5t54 -13.5
q48 0 61 23.5t15 42.5h56z" />
    <glyph glyph-name="odieresis" unicode="&#xf6;" horiz-adv-x="1304" 
d="M652 -18q-152 0 -269 72.5t-183.5 197t-66.5 281.5t66.5 279.5t183.5 193t269 70.5t269 -70.5t183.5 -193t66.5 -279.5t-66.5 -281.5t-183.5 -197t-269 -72.5zM652 53q129 0 228.5 63t156.5 171.5t57 245.5q0 136 -57 243t-156.5 168t-228.5 61t-228.5 -61t-156.5 -168
t-57 -243q0 -137 57 -245.5t156.5 -171.5t228.5 -63zM489 1355q-29 0 -49.5 18t-20.5 47q0 28 20.5 46t49.5 18q28 0 49 -18t21 -46q0 -29 -21 -47t-49 -18zM816 1355q-29 0 -49.5 18t-20.5 47q0 28 20.5 46t49.5 18q28 0 49 -18t21 -46q0 -29 -21 -47t-49 -18z" />
    <glyph glyph-name="divide" unicode="&#xf7;" horiz-adv-x="1131" 
d="M230 493v57h674v-57h-674zM562 793q-26 0 -44 16.5t-18 41.5t18 41.5t44 16.5q27 0 44.5 -16.5t17.5 -41.5t-17.5 -41.5t-44.5 -16.5zM562 144q-26 0 -44 16.5t-18 40.5q0 25 18 41.5t44 16.5q27 0 44.5 -16.5t17.5 -41.5q0 -24 -17.5 -40.5t-44.5 -16.5z" />
    <glyph glyph-name="oslash" unicode="&#xf8;" horiz-adv-x="1304" 
d="M989 1062l-631 -1093l-48 30l631 1093zM652 -18q-152 0 -269 72.5t-183.5 197t-66.5 281.5t66.5 279.5t183.5 193t269 70.5t269 -70.5t183.5 -193t66.5 -279.5t-66.5 -281.5t-183.5 -197t-269 -72.5zM652 53q129 0 228.5 63t156.5 171.5t57 245.5q0 136 -57 243
t-156.5 168t-228.5 61t-228.5 -61t-156.5 -168t-57 -243q0 -137 57 -245.5t156.5 -171.5t228.5 -63z" />
    <glyph glyph-name="ugrave" unicode="&#xf9;" horiz-adv-x="1181" 
d="M556 -18q-116 0 -188 41.5t-111.5 105.5t-54 135.5t-14.5 132.5v79.5v81.5v504h77v-500v-77.5v-73.5q0 -91 27.5 -173t93.5 -133.5t180 -51.5q104 0 185.5 53t128 136.5t46.5 175.5l52 -21q0 -71 -28 -144t-82 -134.5t-132.5 -99t-179.5 -37.5zM926 0v1062h77v-1062h-77z
M658 1251h-74l-249 224h104z" />
    <glyph glyph-name="uacute" unicode="&#xfa;" horiz-adv-x="1181" 
d="M556 -18q-116 0 -188 41.5t-111.5 105.5t-54 135.5t-14.5 132.5v79.5v81.5v504h77v-500v-77.5v-73.5q0 -91 27.5 -173t93.5 -133.5t180 -51.5q104 0 185.5 53t128 136.5t46.5 175.5l52 -21q0 -71 -28 -144t-82 -134.5t-132.5 -99t-179.5 -37.5zM926 0v1062h77v-1062h-77z
M524 1251l219 224h104l-249 -224h-74z" />
    <glyph glyph-name="ucircumflex" unicode="&#xfb;" horiz-adv-x="1181" 
d="M556 -18q-116 0 -188 41.5t-111.5 105.5t-54 135.5t-14.5 132.5v79.5v81.5v504h77v-500v-77.5v-73.5q0 -91 27.5 -173t93.5 -133.5t180 -51.5q104 0 185.5 53t128 136.5t46.5 175.5l52 -21q0 -71 -28 -144t-82 -134.5t-132.5 -99t-179.5 -37.5zM926 0v1062h77v-1062h-77z
M360 1251l192 224h75l194 -224h-75l-170 205h30l-173 -205h-73z" />
    <glyph glyph-name="udieresis" unicode="&#xfc;" horiz-adv-x="1181" 
d="M556 -18q-116 0 -188 41.5t-111.5 105.5t-54 135.5t-14.5 132.5v79.5v81.5v504h77v-500v-77.5v-73.5q0 -91 27.5 -173t93.5 -133.5t180 -51.5q104 0 185.5 53t128 136.5t46.5 175.5l52 -21q0 -71 -28 -144t-82 -134.5t-132.5 -99t-179.5 -37.5zM926 0v1062h77v-1062h-77z
M427 1355q-29 0 -49.5 18t-20.5 47q0 28 20.5 46t49.5 18q28 0 49 -18t21 -46q0 -29 -21 -47t-49 -18zM754 1355q-29 0 -49.5 18t-20.5 47q0 28 20.5 46t49.5 18q28 0 49 -18t21 -46q0 -29 -21 -47t-49 -18z" />
    <glyph glyph-name="yacute" unicode="&#xfd;" horiz-adv-x="1011" 
d="M171 -441q-33 0 -62 5.5t-35 8.5v70q12 -7 40.5 -11t54.5 -4q73 0 120 36.5t77 94t52 120.5l43 120l-379 1063h80l346 -987h-11l344 987h80l-420 -1179q-27 -77 -65 -151.5t-100.5 -123.5t-164.5 -49zM425 1251l219 224h104l-249 -224h-74z" />
    <glyph glyph-name="thorn" unicode="&#xfe;" horiz-adv-x="1229" 
d="M648 -18q-121 0 -222 57.5t-161.5 154t-60.5 211.5v4v4l61 1v-3.5v-4.5q0 -94 52 -174t137 -129t186 -49q167 0 272.5 122.5t105.5 353.5t-105.5 353t-272.5 122q-101 0 -186 -48.5t-137 -128t-52 -174.5l-61 1q0 117 60.5 212t161.5 152t222 57q129 0 230.5 -64
t160 -186t58.5 -296q0 -175 -58 -297.5t-159.5 -186.5t-231.5 -64zM188 -437v2000h78v-2000h-78z" />
    <glyph glyph-name="ydieresis" unicode="&#xff;" horiz-adv-x="1011" 
d="M171 -441q-33 0 -62 5.5t-35 8.5v70q12 -7 40.5 -11t54.5 -4q73 0 120 36.5t77 94t52 120.5l43 120l-379 1063h80l346 -987h-11l344 987h80l-420 -1179q-27 -77 -65 -151.5t-100.5 -123.5t-164.5 -49zM329 1355q-29 0 -49.5 18t-20.5 47q0 28 20.5 46t49.5 18
q28 0 49 -18t21 -46q0 -29 -21 -47t-49 -18zM656 1355q-29 0 -49.5 18t-20.5 47q0 28 20.5 46t49.5 18q28 0 49 -18t21 -46q0 -29 -21 -47t-49 -18z" />
    <glyph glyph-name="Amacron" unicode="&#x100;" horiz-adv-x="1181" 
d="M103 0l431 1481h116l428 -1481h-81l-406 1422h2l-409 -1422h-81zM277 431v69h630v-69h-630zM367 1606v43h448v-43h-448z" />
    <glyph glyph-name="amacron" unicode="&#x101;" horiz-adv-x="1201" 
d="M547 -18q-125 0 -215.5 36t-139.5 105.5t-49 169.5q0 99 50 164t145 102t229 50q210 21 304 45t94 75v13.5v12.5q0 114 -93 182t-262 68q-175 0 -274 -75.5t-99 -214.5h-77q0 113 55.5 193.5t157 124t237.5 43.5q124 0 221.5 -38t154 -110.5t56.5 -175.5v-41v-41v-494
q0 -32 3 -61.5t10 -51.5q8 -26 16.5 -41.5t13.5 -21.5h-77q-5 4 -13 19.5t-15 39.5q-9 29 -12 61.5t-3 86.5l12 -11q-31 -64 -94 -112.5t-149 -75t-187 -26.5zM558 52q113 0 205 39t147 110.5t55 167.5v287l15 -29q-51 -33 -156.5 -52t-235.5 -32q-179 -17 -273.5 -72.5
t-94.5 -175.5q0 -116 87 -179.5t251 -63.5zM391 1339v43h448v-43h-448z" />
    <glyph glyph-name="Abreve" unicode="&#x102;" horiz-adv-x="1181" 
d="M103 0l431 1481h116l428 -1481h-81l-406 1422h2l-409 -1422h-81zM277 431v69h630v-69h-630zM385 1684h58q0 -41 41 -74t108 -33q68 0 108.5 33t40.5 74h59q0 -63 -60.5 -107t-147.5 -44t-147 44t-60 107z" />
    <glyph glyph-name="abreve" unicode="&#x103;" horiz-adv-x="1201" 
d="M547 -18q-125 0 -215.5 36t-139.5 105.5t-49 169.5q0 99 50 164t145 102t229 50q210 21 304 45t94 75v13.5v12.5q0 114 -93 182t-262 68q-175 0 -274 -75.5t-99 -214.5h-77q0 113 55.5 193.5t157 124t237.5 43.5q124 0 221.5 -38t154 -110.5t56.5 -175.5v-41v-41v-494
q0 -32 3 -61.5t10 -51.5q8 -26 16.5 -41.5t13.5 -21.5h-77q-5 4 -13 19.5t-15 39.5q-9 29 -12 61.5t-3 86.5l12 -11q-31 -64 -94 -112.5t-149 -75t-187 -26.5zM558 52q113 0 205 39t147 110.5t55 167.5v287l15 -29q-51 -33 -156.5 -52t-235.5 -32q-179 -17 -273.5 -72.5
t-94.5 -175.5q0 -116 87 -179.5t251 -63.5zM407 1495h56q0 -63 42 -105.5t109 -42.5q68 0 109.5 42.5t41.5 105.5h57q0 -86 -60.5 -138.5t-147.5 -52.5t-147 52.5t-60 138.5z" />
    <glyph glyph-name="Aogonek" unicode="&#x104;" horiz-adv-x="1181" 
d="M103 0l431 1481h116l428 -1481h-81l-406 1422h2l-409 -1422h-81zM277 431v69h630v-69h-630zM1078 -349v-51q-18 -3 -43.5 -5.5t-48.5 -2.5q-44 0 -79.5 14t-56.5 44.5t-21 79.5q0 48 30 97t76 94t92 79h51q-40 -35 -84.5 -81t-75.5 -93t-31 -88q0 -48 28 -72t77 -24
q21 0 45 2.5t41 6.5z" />
    <glyph glyph-name="aogonek" unicode="&#x105;" horiz-adv-x="1201" 
d="M547 -18q-125 0 -215.5 36t-139.5 105.5t-49 169.5q0 99 50 164t145 102t229 50q210 21 304 45t94 75v13.5v12.5q0 114 -93 182t-262 68q-175 0 -274 -75.5t-99 -214.5h-77q0 113 55.5 193.5t157 124t237.5 43.5q124 0 221.5 -38t154 -110.5t56.5 -175.5v-41v-41v-494
q0 -32 3 -61.5t10 -51.5q8 -26 16.5 -41.5t13.5 -21.5h-77q-5 4 -13 19.5t-15 39.5q-9 29 -12 61.5t-3 86.5l12 -11q-31 -64 -94 -112.5t-149 -75t-187 -26.5zM558 52q113 0 205 39t147 110.5t55 167.5v287l15 -29q-51 -33 -156.5 -52t-235.5 -32q-179 -17 -273.5 -72.5
t-94.5 -175.5q0 -116 87 -179.5t251 -63.5zM1085 -349v-51q-18 -3 -43.5 -5.5t-48.5 -2.5q-44 0 -79.5 14t-56.5 44.5t-21 79.5q0 48 30 97t76 94t92 79h51q-40 -35 -84.5 -81t-75.5 -93t-31 -88q0 -48 28 -72t77 -24q21 0 45 2.5t41 6.5z" />
    <glyph glyph-name="Cacute" unicode="&#x106;" horiz-adv-x="1265" 
d="M1155 487q0 -84 -31 -172.5t-93 -164t-155 -122t-218 -46.5q-172 0 -294.5 95t-188 265t-65.5 395q0 226 65.5 395t188 263.5t294.5 94.5q146 0 249 -63t163 -160t77 -199q8 -42 8 -81h-78q0 28 -5 65q-13 91 -65 175.5t-139.5 138t-209.5 53.5q-142 0 -247.5 -82
t-163 -235t-57.5 -365t57.5 -365.5t163 -236.5t247.5 -83q103 0 181 39t131 103.5t80 141t27 151.5h78zM576 1546l267 164h113l-287 -164h-93z" />
    <glyph glyph-name="cacute" unicode="&#x107;" horiz-adv-x="1243" 
d="M652 -18q-138 0 -257 64t-190.5 187t-71.5 297q0 175 71.5 297t190.5 185.5t257 63.5q108 0 193 -33.5t144 -87.5t90.5 -117.5t31.5 -122.5v-3v-4h-77q0 5 -0.5 11.5t-1.5 12.5q-11 78 -63 139.5t-134 97.5t-183 36q-115 0 -215.5 -53.5t-163 -159.5t-62.5 -262t62 -262
t163 -160.5t216 -54.5q129 0 213 44t125.5 111t43.5 136h77q0 -63 -29 -126.5t-87 -117t-143.5 -86t-199.5 -32.5zM569 1251l219 224h104l-249 -224h-74z" />
    <glyph glyph-name="Ccircumflex" unicode="&#x108;" horiz-adv-x="1265" 
d="M1155 487q0 -84 -31 -172.5t-93 -164t-155 -122t-218 -46.5q-172 0 -294.5 95t-188 265t-65.5 395q0 226 65.5 395t188 263.5t294.5 94.5q146 0 249 -63t163 -160t77 -199q8 -42 8 -81h-78q0 28 -5 65q-13 91 -65 175.5t-139.5 138t-209.5 53.5q-142 0 -247.5 -82
t-163 -235t-57.5 -365t57.5 -365.5t163 -236.5t247.5 -83q103 0 181 39t131 103.5t80 141t27 151.5h78zM418 1544l195 160h87l196 -160h-83l-170 143h29l-173 -143h-81z" />
    <glyph glyph-name="ccircumflex" unicode="&#x109;" horiz-adv-x="1243" 
d="M652 -18q-138 0 -257 64t-190.5 187t-71.5 297q0 175 71.5 297t190.5 185.5t257 63.5q108 0 193 -33.5t144 -87.5t90.5 -117.5t31.5 -122.5v-3v-4h-77q0 5 -0.5 11.5t-1.5 12.5q-11 78 -63 139.5t-134 97.5t-183 36q-115 0 -215.5 -53.5t-163 -159.5t-62.5 -262t62 -262
t163 -160.5t216 -54.5q129 0 213 44t125.5 111t43.5 136h77q0 -63 -29 -126.5t-87 -117t-143.5 -86t-199.5 -32.5zM405 1251l192 224h75l194 -224h-75l-170 205h30l-173 -205h-73z" />
    <glyph glyph-name="Cdotaccent" unicode="&#x10a;" horiz-adv-x="1265" 
d="M1155 487q0 -84 -31 -172.5t-93 -164t-155 -122t-218 -46.5q-172 0 -294.5 95t-188 265t-65.5 395q0 226 65.5 395t188 263.5t294.5 94.5q146 0 249 -63t163 -160t77 -199q8 -42 8 -81h-78q0 28 -5 65q-13 91 -65 175.5t-139.5 138t-209.5 53.5q-142 0 -247.5 -82
t-163 -235t-57.5 -365t57.5 -365.5t163 -236.5t247.5 -83q103 0 181 39t131 103.5t80 141t27 151.5h78zM657 1577q-29 0 -50.5 19t-21.5 48t21.5 47.5t50.5 18.5q30 0 51.5 -18.5t21.5 -47.5q0 -30 -21.5 -48.5t-51.5 -18.5z" />
    <glyph glyph-name="cdotaccent" unicode="&#x10b;" horiz-adv-x="1243" 
d="M652 -18q-138 0 -257 64t-190.5 187t-71.5 297q0 175 71.5 297t190.5 185.5t257 63.5q108 0 193 -33.5t144 -87.5t90.5 -117.5t31.5 -122.5v-3v-4h-77q0 5 -0.5 11.5t-1.5 12.5q-11 78 -63 139.5t-134 97.5t-183 36q-115 0 -215.5 -53.5t-163 -159.5t-62.5 -262t62 -262
t163 -160.5t216 -54.5q129 0 213 44t125.5 111t43.5 136h77q0 -63 -29 -126.5t-87 -117t-143.5 -86t-199.5 -32.5zM635 1355q-29 0 -50.5 19t-21.5 48t21.5 47.5t50.5 18.5q30 0 51.5 -18.5t21.5 -47.5q0 -30 -21.5 -48.5t-51.5 -18.5z" />
    <glyph glyph-name="Ccaron" unicode="&#x10c;" horiz-adv-x="1265" 
d="M1155 487q0 -84 -31 -172.5t-93 -164t-155 -122t-218 -46.5q-172 0 -294.5 95t-188 265t-65.5 395q0 226 65.5 395t188 263.5t294.5 94.5q146 0 249 -63t163 -160t77 -199q8 -42 8 -81h-78q0 28 -5 65q-13 91 -65 175.5t-139.5 138t-209.5 53.5q-142 0 -247.5 -82
t-163 -235t-57.5 -365t57.5 -365.5t163 -236.5t247.5 -83q103 0 181 39t131 103.5t80 141t27 151.5h78zM418 1704h81l173 -144h-29l170 144h83l-196 -160h-87z" />
    <glyph glyph-name="ccaron" unicode="&#x10d;" horiz-adv-x="1243" 
d="M652 -18q-138 0 -257 64t-190.5 187t-71.5 297q0 175 71.5 297t190.5 185.5t257 63.5q108 0 193 -33.5t144 -87.5t90.5 -117.5t31.5 -122.5v-3v-4h-77q0 5 -0.5 11.5t-1.5 12.5q-11 78 -63 139.5t-134 97.5t-183 36q-115 0 -215.5 -53.5t-163 -159.5t-62.5 -262t62 -262
t163 -160.5t216 -54.5q129 0 213 44t125.5 111t43.5 136h77q0 -63 -29 -126.5t-87 -117t-143.5 -86t-199.5 -32.5zM405 1475h73l173 -205h-30l170 205h75l-194 -224h-75z" />
    <glyph glyph-name="Dcaron" unicode="&#x10e;" horiz-adv-x="1204" 
d="M164 0v1475h298q144 0 260.5 -49.5t199.5 -144t127.5 -231.5t44.5 -313q0 -177 -44.5 -313.5t-127.5 -231t-199.5 -143.5t-260.5 -49h-298zM243 27l-35 42h248q168 0 294 79.5t195.5 229t69.5 359.5t-69.5 360t-195.5 229.5t-294 79.5h-248l35 42v-1421zM349 1704h81
l173 -144h-29l170 144h83l-196 -160h-87z" />
    <glyph glyph-name="dcaron" unicode="&#x10f;" horiz-adv-x="1259" 
d="M582 -18q-130 0 -231.5 64t-159.5 186.5t-58 297.5q0 174 58 296t160 186t231 64q121 0 221.5 -57t161 -152t60.5 -212v-7v-9l-61 1v7v7q0 95 -51.5 174.5t-137 128t-185.5 48.5q-168 0 -273 -122t-105 -353t105.5 -353.5t272.5 -122.5q100 0 185 48.5t137 130t52 181.5
l61 -1q0 -122 -61 -220t-161.5 -154.5t-220.5 -56.5zM964 0v1563h78v-1563h-78zM1259 1563q0 -66 -6 -142t-13 -136.5t-11 -83.5h-51q4 24 9.5 82t9 133t3.5 147h59z" />
    <glyph glyph-name="Dcroat" unicode="&#x110;" horiz-adv-x="1204" 
d="M164 0v1475h298q144 0 260.5 -49.5t199.5 -144t127.5 -231.5t44.5 -313q0 -177 -44.5 -313.5t-127.5 -231t-199.5 -143.5t-260.5 -49h-298zM243 27l-35 42h248q168 0 294 79.5t195.5 229t69.5 359.5t-69.5 360t-195.5 229.5t-294 79.5h-248l35 42v-1421zM7 716v45h674
v-45h-674z" />
    <glyph glyph-name="dcroat" unicode="&#x111;" horiz-adv-x="1217" 
d="M614 1333v61h539v-61h-539zM582 -18q-130 0 -231.5 64t-159.5 186.5t-58 297.5q0 174 58 296t160 186t231 64q121 0 221.5 -57t161 -152t60.5 -212v-7v-9l-61 1v7v7q0 95 -51.5 174.5t-137 128t-185.5 48.5q-168 0 -273 -122t-105 -353t105.5 -353.5t272.5 -122.5
q100 0 185 48.5t137 130t52 181.5l61 -1q0 -122 -61 -220t-161.5 -154.5t-220.5 -56.5zM964 0v1563h78v-1563h-78z" />
    <glyph glyph-name="Emacron" unicode="&#x112;" horiz-adv-x="1073" 
d="M206 1406l35 42v-703l-24 29h621v-68h-621l24 29v-708l-35 42h703v-69h-745v1475h745v-69h-703zM322 1606v43h448v-43h-448z" />
    <glyph glyph-name="emacron" unicode="&#x113;" horiz-adv-x="1274" 
d="M180 496v69h899l-19 -18v10v8q0 115 -49 215.5t-140.5 163t-219.5 62.5q-129 0 -229 -63t-157 -171t-57 -243q0 -139 57 -246.5t157.5 -169t228.5 -61.5q100 0 173 28.5t121 72.5t73.5 92t29.5 88h78q-5 -54 -37 -115t-91 -114.5t-146 -87.5t-202 -34q-149 0 -265.5 69.5
t-184 192.5t-67.5 283q0 161 67.5 284.5t184.5 194t266 70.5q150 0 260 -72.5t170.5 -193.5t60.5 -267q0 -10 -0.5 -25t-1.5 -22h-960zM428 1339v43h448v-43h-448z" />
    <glyph glyph-name="Ebreve" unicode="&#x114;" horiz-adv-x="1073" 
d="M206 1406l35 42v-703l-24 29h621v-68h-621l24 29v-708l-35 42h703v-69h-745v1475h745v-69h-703zM340 1684h58q0 -41 41 -74t108 -33q68 0 108.5 33t40.5 74h59q0 -63 -60.5 -107t-147.5 -44t-147 44t-60 107z" />
    <glyph glyph-name="ebreve" unicode="&#x115;" horiz-adv-x="1274" 
d="M180 496v69h899l-19 -18v10v8q0 115 -49 215.5t-140.5 163t-219.5 62.5q-129 0 -229 -63t-157 -171t-57 -243q0 -139 57 -246.5t157.5 -169t228.5 -61.5q100 0 173 28.5t121 72.5t73.5 92t29.5 88h78q-5 -54 -37 -115t-91 -114.5t-146 -87.5t-202 -34q-149 0 -265.5 69.5
t-184 192.5t-67.5 283q0 161 67.5 284.5t184.5 194t266 70.5q150 0 260 -72.5t170.5 -193.5t60.5 -267q0 -10 -0.5 -25t-1.5 -22h-960zM443 1495h56q0 -63 42 -105.5t109 -42.5q68 0 109.5 42.5t41.5 105.5h57q0 -86 -60.5 -138.5t-147.5 -52.5t-147 52.5t-60 138.5z" />
    <glyph glyph-name="Edotaccent" unicode="&#x116;" horiz-adv-x="1073" 
d="M206 1406l35 42v-703l-24 29h621v-68h-621l24 29v-708l-35 42h703v-69h-745v1475h745v-69h-703zM547 1577q-29 0 -50.5 19t-21.5 48t21.5 47.5t50.5 18.5q30 0 51.5 -18.5t21.5 -47.5q0 -30 -21.5 -48.5t-51.5 -18.5z" />
    <glyph glyph-name="edotaccent" unicode="&#x117;" horiz-adv-x="1274" 
d="M180 496v69h899l-19 -18v10v8q0 115 -49 215.5t-140.5 163t-219.5 62.5q-129 0 -229 -63t-157 -171t-57 -243q0 -139 57 -246.5t157.5 -169t228.5 -61.5q100 0 173 28.5t121 72.5t73.5 92t29.5 88h78q-5 -54 -37 -115t-91 -114.5t-146 -87.5t-202 -34q-149 0 -265.5 69.5
t-184 192.5t-67.5 283q0 161 67.5 284.5t184.5 194t266 70.5q150 0 260 -72.5t170.5 -193.5t60.5 -267q0 -10 -0.5 -25t-1.5 -22h-960zM650 1355q-29 0 -50.5 19t-21.5 48t21.5 47.5t50.5 18.5q30 0 51.5 -18.5t21.5 -47.5q0 -30 -21.5 -48.5t-51.5 -18.5z" />
    <glyph glyph-name="Eogonek" unicode="&#x118;" horiz-adv-x="1073" 
d="M206 1406l35 42v-703l-24 29h621v-68h-621l24 29v-708l-35 42h703v-69h-745v1475h745v-69h-703zM909 -349v-51q-18 -3 -43.5 -5.5t-48.5 -2.5q-44 0 -79.5 14t-56.5 44.5t-21 79.5q0 48 30 97t76 94t92 79h51q-40 -35 -84.5 -81t-75.5 -93t-31 -88q0 -48 28 -72t77 -24
q21 0 45 2.5t41 6.5z" />
    <glyph glyph-name="eogonek" unicode="&#x119;" horiz-adv-x="1274" 
d="M853 -327v-51q-19 -4 -44 -6t-49 -2q-43 0 -79 14t-57 44.5t-21 78.5q0 49 30.5 97.5t76.5 93.5t91 80h52q-40 -36 -85 -81.5t-76 -92.5t-31 -88q0 -48 28 -72t78 -24q20 0 44.5 2.5t41.5 6.5zM180 496v69h899l-19 -18v10v8q0 115 -49 215.5t-140.5 163t-219.5 62.5
q-129 0 -229 -63t-157 -171t-57 -243q0 -139 57 -246.5t157.5 -169t228.5 -61.5q100 0 173 28.5t121 72.5t73.5 92t29.5 88h78q-5 -54 -37 -115t-91 -114.5t-146 -87.5t-202 -34q-149 0 -265.5 69.5t-184 192.5t-67.5 283q0 161 67.5 284.5t184.5 194t266 70.5
q150 0 260 -72.5t170.5 -193.5t60.5 -267q0 -10 -0.5 -25t-1.5 -22h-960z" />
    <glyph glyph-name="Ecaron" unicode="&#x11a;" horiz-adv-x="1073" 
d="M206 1406l35 42v-703l-24 29h621v-68h-621l24 29v-708l-35 42h703v-69h-745v1475h745v-69h-703zM307 1704h81l173 -144h-29l170 144h83l-196 -160h-87z" />
    <glyph glyph-name="ecaron" unicode="&#x11b;" horiz-adv-x="1274" 
d="M180 496v69h899l-19 -18v10v8q0 115 -49 215.5t-140.5 163t-219.5 62.5q-129 0 -229 -63t-157 -171t-57 -243q0 -139 57 -246.5t157.5 -169t228.5 -61.5q100 0 173 28.5t121 72.5t73.5 92t29.5 88h78q-5 -54 -37 -115t-91 -114.5t-146 -87.5t-202 -34q-149 0 -265.5 69.5
t-184 192.5t-67.5 283q0 161 67.5 284.5t184.5 194t266 70.5q150 0 260 -72.5t170.5 -193.5t60.5 -267q0 -10 -0.5 -25t-1.5 -22h-960zM420 1475h73l173 -205h-30l170 205h75l-194 -224h-75z" />
    <glyph glyph-name="Gcircumflex" unicode="&#x11c;" horiz-adv-x="1315" 
d="M668 -18q-162 0 -287.5 92t-198 261.5t-72.5 401.5q0 233 74.5 401.5t204 260t294.5 91.5q130 0 219.5 -47t144.5 -121t79.5 -158.5t24.5 -161.5v-6v-6h-75v6v6q0 70 -21.5 142.5t-68 135t-121.5 100.5t-182 38q-143 0 -254.5 -82t-176 -235t-64.5 -364
q0 -159 35.5 -285.5t100 -216t152 -136.5t193.5 -47q132 0 217 41.5t130.5 100t59.5 110.5v297h-407v67h479v-668h-64l-3 186q-8 -24 -37 -58.5t-80 -68t-124.5 -55.5t-171.5 -22zM438 1544l195 160h87l196 -160h-83l-170 143h29l-173 -143h-81z" />
    <glyph glyph-name="gcircumflex" unicode="&#x11d;" horiz-adv-x="1193" 
d="M811 25q78 -6 138 -28.5t94.5 -66t34.5 -112.5q0 -73 -51.5 -134t-161.5 -97t-285 -36q-241 0 -355.5 75t-114.5 190q0 42 10 72.5t21 49.5l73 -13q-9 -14 -18 -41.5t-9 -63.5q0 -97 103 -150.5t297 -53.5q148 0 240 28t134.5 73.5t42.5 97.5q0 78 -62.5 108.5
t-156.5 36.5l-405 30q-95 7 -152 50t-57 111q0 44 21.5 79t50.5 57.5t53 26.5l64 -34q-30 -6 -70.5 -37.5t-40.5 -80.5q0 -43 37 -72t129 -36zM978 1062h74l-22 -425q-6 -118 -59.5 -215t-150.5 -154.5t-235 -57.5q-143 0 -243 58t-152 156t-52 216q0 119 55.5 218.5
t156 158.5t233.5 59q127 0 215 -47.5t137 -115.5t58 -130l-27 4zM584 279q118 0 201 47t126.5 129.5t43.5 188.5q0 101 -44 183.5t-126.5 131t-198.5 48.5q-111 0 -194.5 -50t-130.5 -133t-47 -184q0 -103 44 -184.5t126.5 -129t199.5 -47.5zM351 1251l192 224h75l194 -224
h-75l-170 205h30l-173 -205h-73z" />
    <glyph glyph-name="Gbreve" unicode="&#x11e;" horiz-adv-x="1315" 
d="M668 -18q-162 0 -287.5 92t-198 261.5t-72.5 401.5q0 233 74.5 401.5t204 260t294.5 91.5q130 0 219.5 -47t144.5 -121t79.5 -158.5t24.5 -161.5v-6v-6h-75v6v6q0 70 -21.5 142.5t-68 135t-121.5 100.5t-182 38q-143 0 -254.5 -82t-176 -235t-64.5 -364
q0 -159 35.5 -285.5t100 -216t152 -136.5t193.5 -47q132 0 217 41.5t130.5 100t59.5 110.5v297h-407v67h479v-668h-64l-3 186q-8 -24 -37 -58.5t-80 -68t-124.5 -55.5t-171.5 -22zM470 1684h58q0 -41 41 -74t108 -33q68 0 108.5 33t40.5 74h59q0 -63 -60.5 -107t-147.5 -44
t-147 44t-60 107z" />
    <glyph glyph-name="gbreve" unicode="&#x11f;" horiz-adv-x="1193" 
d="M811 25q78 -6 138 -28.5t94.5 -66t34.5 -112.5q0 -73 -51.5 -134t-161.5 -97t-285 -36q-241 0 -355.5 75t-114.5 190q0 42 10 72.5t21 49.5l73 -13q-9 -14 -18 -41.5t-9 -63.5q0 -97 103 -150.5t297 -53.5q148 0 240 28t134.5 73.5t42.5 97.5q0 78 -62.5 108.5
t-156.5 36.5l-405 30q-95 7 -152 50t-57 111q0 44 21.5 79t50.5 57.5t53 26.5l64 -34q-30 -6 -70.5 -37.5t-40.5 -80.5q0 -43 37 -72t129 -36zM978 1062h74l-22 -425q-6 -118 -59.5 -215t-150.5 -154.5t-235 -57.5q-143 0 -243 58t-152 156t-52 216q0 119 55.5 218.5
t156 158.5t233.5 59q127 0 215 -47.5t137 -115.5t58 -130l-27 4zM584 279q118 0 201 47t126.5 129.5t43.5 188.5q0 101 -44 183.5t-126.5 131t-198.5 48.5q-111 0 -194.5 -50t-130.5 -133t-47 -184q0 -103 44 -184.5t126.5 -129t199.5 -47.5zM375 1495h56q0 -63 42 -105.5
t109 -42.5q68 0 109.5 42.5t41.5 105.5h57q0 -86 -60.5 -138.5t-147.5 -52.5t-147 52.5t-60 138.5z" />
    <glyph glyph-name="Gdotaccent" unicode="&#x120;" horiz-adv-x="1315" 
d="M668 -18q-162 0 -287.5 92t-198 261.5t-72.5 401.5q0 233 74.5 401.5t204 260t294.5 91.5q130 0 219.5 -47t144.5 -121t79.5 -158.5t24.5 -161.5v-6v-6h-75v6v6q0 70 -21.5 142.5t-68 135t-121.5 100.5t-182 38q-143 0 -254.5 -82t-176 -235t-64.5 -364
q0 -159 35.5 -285.5t100 -216t152 -136.5t193.5 -47q132 0 217 41.5t130.5 100t59.5 110.5v297h-407v67h479v-668h-64l-3 186q-8 -24 -37 -58.5t-80 -68t-124.5 -55.5t-171.5 -22zM677 1577q-29 0 -50.5 19t-21.5 48t21.5 47.5t50.5 18.5q30 0 51.5 -18.5t21.5 -47.5
q0 -30 -21.5 -48.5t-51.5 -18.5z" />
    <glyph glyph-name="gdotaccent" unicode="&#x121;" horiz-adv-x="1193" 
d="M811 25q78 -6 138 -28.5t94.5 -66t34.5 -112.5q0 -73 -51.5 -134t-161.5 -97t-285 -36q-241 0 -355.5 75t-114.5 190q0 42 10 72.5t21 49.5l73 -13q-9 -14 -18 -41.5t-9 -63.5q0 -97 103 -150.5t297 -53.5q148 0 240 28t134.5 73.5t42.5 97.5q0 78 -62.5 108.5
t-156.5 36.5l-405 30q-95 7 -152 50t-57 111q0 44 21.5 79t50.5 57.5t53 26.5l64 -34q-30 -6 -70.5 -37.5t-40.5 -80.5q0 -43 37 -72t129 -36zM978 1062h74l-22 -425q-6 -118 -59.5 -215t-150.5 -154.5t-235 -57.5q-143 0 -243 58t-152 156t-52 216q0 119 55.5 218.5
t156 158.5t233.5 59q127 0 215 -47.5t137 -115.5t58 -130l-27 4zM584 279q118 0 201 47t126.5 129.5t43.5 188.5q0 101 -44 183.5t-126.5 131t-198.5 48.5q-111 0 -194.5 -50t-130.5 -133t-47 -184q0 -103 44 -184.5t126.5 -129t199.5 -47.5zM581 1355q-29 0 -50.5 19
t-21.5 48t21.5 47.5t50.5 18.5q30 0 51.5 -18.5t21.5 -47.5q0 -30 -21.5 -48.5t-51.5 -18.5z" />
    <glyph glyph-name="uni0122" unicode="&#x122;" horiz-adv-x="1315" 
d="M668 -18q-162 0 -287.5 92t-198 261.5t-72.5 401.5q0 233 74.5 401.5t204 260t294.5 91.5q130 0 219.5 -47t144.5 -121t79.5 -158.5t24.5 -161.5v-6v-6h-75v6v6q0 70 -21.5 142.5t-68 135t-121.5 100.5t-182 38q-143 0 -254.5 -82t-176 -235t-64.5 -364
q0 -159 35.5 -285.5t100 -216t152 -136.5t193.5 -47q132 0 217 41.5t130.5 100t59.5 110.5v297h-407v67h479v-668h-64l-3 186q-8 -24 -37 -58.5t-80 -68t-124.5 -55.5t-171.5 -22zM665 -225q-28 0 -47.5 17.5t-19.5 45.5t21.5 46t54.5 18q21 0 39.5 -8t30 -25t11.5 -47
q0 -61 -18.5 -109.5t-48.5 -83t-66 -56.5l-14 27q27 14 52.5 42.5t42 69t16.5 86.5q-4 -8 -20 -15.5t-34 -7.5z" />
    <glyph glyph-name="uni0123" unicode="&#x123;" horiz-adv-x="1218" 
d="M602 1364q38 0 61 -22t23 -59t-24.5 -61.5t-71.5 -24.5q-49 0 -74 33.5t-25 83.5q0 49 22.5 87.5t57.5 65.5t74 42l16 -36q-28 -10 -53 -30t-40.5 -45.5t-15.5 -52.5q3 7 16.5 13t33.5 6zM831 65q86 -7 151.5 -31.5t102.5 -72t37 -124.5q0 -85 -58 -150.5t-176 -102.5
t-297 -37q-253 0 -382 73.5t-129 200.5q0 40 9.5 70.5t21.5 49.5l162 -24q-8 -11 -15.5 -33.5t-7.5 -52.5q0 -80 91 -112.5t258 -32.5q125 0 205 17t119 49t39 75q0 65 -54.5 80.5t-134.5 21.5l-404 30q-101 8 -164.5 62.5t-63.5 132.5q0 48 23.5 91t55 72.5t56.5 35.5
l134 -61q-25 -4 -61.5 -34.5t-36.5 -71.5q0 -37 29 -60.5t115 -30.5zM978 1062h160l-66 -418q-18 -117 -75 -211.5t-155.5 -150t-243.5 -55.5q-151 0 -258 55t-164 150.5t-57 215.5q0 122 59.5 219.5t165.5 154t243 56.5q123 0 215 -42.5t145.5 -106.5t59.5 -129l-64 -4z
M597 379q97 0 166.5 32t107 93t37.5 148q0 84 -37.5 145.5t-107 95t-165.5 33.5q-92 0 -162.5 -34.5t-110 -96.5t-39.5 -146q0 -85 37.5 -145.5t107 -92.5t166.5 -32z" />
    <glyph glyph-name="Hcircumflex" unicode="&#x124;" horiz-adv-x="1224" 
d="M1061 1475v-1475h-77v737l35 -37h-813l35 37v-737h-77v1475h77v-745l-35 39h813l-35 -39v745h77zM372 1544l195 160h87l196 -160h-83l-170 143h29l-173 -143h-81z" />
    <glyph glyph-name="hcircumflex" unicode="&#x125;" horiz-adv-x="1210" 
d="M956 0v407v73v82.5v74.5q0 174 -79 270t-238 96q-107 0 -192 -46.5t-134 -122t-49 -161.5l-56 15q0 101 56 189.5t156 143.5t230 55q189 0 286 -115.5t97 -318.5v-119.5v-129.5v-393h-77zM188 0v1563h76v-1563h-76zM-5 1734l192 224h75l194 -224h-75l-170 205h30
l-173 -205h-73z" />
    <glyph glyph-name="Hbar" unicode="&#x126;" horiz-adv-x="1224" 
d="M61 1123v61h1101v-61h-1101zM1061 1475v-1475h-77v737l35 -37h-813l35 37v-737h-77v1475h77v-745l-35 39h813l-35 -39v745h77z" />
    <glyph glyph-name="hbar" unicode="&#x127;" horiz-adv-x="1210" 
d="M51 1333v61h538v-61h-538zM956 0v407v73v82.5v74.5q0 174 -79 270t-238 96q-107 0 -192 -46.5t-134 -122t-49 -161.5l-56 15q0 101 56 189.5t156 143.5t230 55q189 0 286 -115.5t97 -318.5v-119.5v-129.5v-393h-77zM188 0v1563h76v-1563h-76z" />
    <glyph glyph-name="Itilde" unicode="&#x128;" horiz-adv-x="448" 
d="M186 0v1475h76v-1475h-76zM474 1659q-2 -18 -13.5 -45.5t-39.5 -48.5t-78 -21q-41 0 -72 16.5t-56 37.5q-20 16 -42.5 29.5t-54.5 13.5q-46 0 -63 -23.5t-19 -44.5h-56q2 22 16.5 49.5t45 48t77.5 20.5q42 0 69.5 -16t51.5 -35q24 -20 48 -33t54 -13q48 0 61 23t15 42h56
z" />
    <glyph glyph-name="itilde" unicode="&#x129;" horiz-adv-x="466" 
d="M195 0v1062h76v-1062h-76zM480 1448q-2 -19 -13.5 -46t-39.5 -48.5t-78 -21.5q-41 0 -72 17t-56 37q-20 17 -42.5 30t-54.5 13q-46 0 -63 -23t-19 -45h-56q2 22 16.5 50t45 48.5t77.5 20.5q42 0 69.5 -16.5t51.5 -35.5t48 -32.5t54 -13.5q48 0 61 23.5t15 42.5h56z" />
    <glyph glyph-name="Imacron" unicode="&#x12a;" horiz-adv-x="448" 
d="M186 0v1475h76v-1475h-76zM0 1606v43h448v-43h-448z" />
    <glyph glyph-name="imacron" unicode="&#x12b;" horiz-adv-x="466" 
d="M195 0v1062h76v-1062h-76zM72 1339v43h324v-43h-324z" />
    <glyph glyph-name="Ibreve" unicode="&#x12c;" horiz-adv-x="448" 
d="M186 0v1475h76v-1475h-76zM17 1684h58q0 -41 41 -74t108 -33q68 0 108.5 33t40.5 74h59q0 -63 -60.5 -107t-147.5 -44t-147 44t-60 107z" />
    <glyph glyph-name="ibreve" unicode="&#x12d;" horiz-adv-x="466" 
d="M195 0v1062h76v-1062h-76zM26 1495h56q0 -63 42 -105.5t109 -42.5q68 0 109.5 42.5t41.5 105.5h57q0 -86 -60.5 -138.5t-147.5 -52.5t-147 52.5t-60 138.5z" />
    <glyph glyph-name="Iogonek" unicode="&#x12e;" horiz-adv-x="448" 
d="M186 0v1475h76v-1475h-76zM262 -349v-51q-18 -3 -43.5 -5.5t-48.5 -2.5q-44 0 -79.5 14t-56.5 44.5t-21 79.5q0 48 30 97t76 94t92 79h51q-40 -35 -84.5 -81t-75.5 -93t-31 -88q0 -48 28 -72t77 -24q21 0 45 2.5t41 6.5z" />
    <glyph glyph-name="iogonek" unicode="&#x12f;" horiz-adv-x="466" 
d="M195 0v1062h76v-1062h-76zM272 -349v-51q-18 -3 -43.5 -5.5t-48.5 -2.5q-44 0 -79.5 14t-56.5 44.5t-21 79.5q0 48 30 97t76 94t92 79h51q-40 -35 -84.5 -81t-75.5 -93t-31 -88q0 -48 28 -72t77 -24q21 0 45 2.5t41 6.5zM233 1355q-29 0 -50.5 19t-21.5 48t21.5 47.5
t50.5 18.5q30 0 51.5 -18.5t21.5 -47.5q0 -30 -21.5 -48.5t-51.5 -18.5z" />
    <glyph glyph-name="Idotaccent" unicode="&#x130;" horiz-adv-x="448" 
d="M186 0v1475h76v-1475h-76zM224 1577q-29 0 -50.5 19t-21.5 48t21.5 47.5t50.5 18.5q30 0 51.5 -18.5t21.5 -47.5q0 -30 -21.5 -48.5t-51.5 -18.5z" />
    <glyph glyph-name="dotlessi" unicode="&#x131;" horiz-adv-x="466" 
d="M195 0v1062h76v-1062h-76z" />
    <glyph glyph-name="Jcircumflex" unicode="&#x134;" horiz-adv-x="1048" 
d="M495 -18q-132 0 -218 58.5t-127 164t-41 247.5v25.5v25.5h75v-20.5v-21.5q0 -121 32.5 -213.5t101.5 -144t177 -51.5q107 0 176 51.5t102.5 146.5t33.5 224v1001h77v-1008q0 -109 -22.5 -198t-70 -153.5t-121 -99t-175.5 -34.5zM606 1544l195 160h87l196 -160h-83
l-170 143h29l-173 -143h-81z" />
    <glyph glyph-name="jcircumflex" unicode="&#x135;" horiz-adv-x="511" 
d="M9 -442q-27 0 -49 2.5t-33 5.5v64q12 -4 34.5 -7.5t47.5 -3.5q79 0 124 25.5t65 68t25 92t5 98.5v1159h77v-1166q0 -66 -9.5 -126t-39 -108t-88.5 -76t-159 -28zM39 1251l192 224h75l194 -224h-75l-170 205h30l-173 -205h-73z" />
    <glyph glyph-name="uni0136" unicode="&#x136;" horiz-adv-x="1094" 
d="M410 768v61l590 -829h-89l-550 766l41 -5l-173 -220l12 54v-595h-77v1475h77v-841l-16 13l643 828h87zM560 -225q-28 0 -47.5 17.5t-19.5 45.5t21.5 46t54.5 18q21 0 39.5 -8t30 -25t11.5 -47q0 -61 -18.5 -109.5t-48.5 -83t-66 -56.5l-14 27q27 14 52.5 42.5t42 69
t16.5 86.5q-4 -8 -20 -15.5t-34 -7.5z" />
    <glyph glyph-name="uni0137" unicode="&#x137;" horiz-adv-x="1037" 
d="M188 0v1563h74v-1000l-23 9l596 490h102l-525 -437l16 44l522 -669h-88l-490 629l29 -15l-156 -128l17 43v-529h-74zM533 -225q-28 0 -47.5 17.5t-19.5 45.5t21.5 46t54.5 18q21 0 39.5 -8t30 -25t11.5 -47q0 -61 -18.5 -109.5t-48.5 -83t-66 -56.5l-14 27
q27 14 52.5 42.5t42 69t16.5 86.5q-4 -8 -20 -15.5t-34 -7.5z" />
    <glyph glyph-name="kgreenlandic" unicode="&#x138;" horiz-adv-x="893" 
d="M391 553l-10 44l424 -597h-87l-393 548l53 -7l-126 -160l10 48v-429h-74v1062h74v-605l-29 3l458 602h85z" />
    <glyph glyph-name="Lacute" unicode="&#x139;" horiz-adv-x="951" 
d="M164 0v1475h77v-1448l-35 42h639v-69h-681zM121 1546l267 164h113l-287 -164h-93z" />
    <glyph glyph-name="lacute" unicode="&#x13a;" horiz-adv-x="471" 
d="M279 1563v-1563h-76v1563h76zM157 1634l267 164h113l-287 -164h-93z" />
    <glyph glyph-name="uni013B" unicode="&#x13b;" horiz-adv-x="951" 
d="M164 0v1475h77v-1448l-35 42h639v-69h-681zM519 -225q-28 0 -47.5 17.5t-19.5 45.5t21.5 46t54.5 18q21 0 39.5 -8t30 -25t11.5 -47q0 -61 -18.5 -109.5t-48.5 -83t-66 -56.5l-14 27q27 14 52.5 42.5t42 69t16.5 86.5q-4 -8 -20 -15.5t-34 -7.5z" />
    <glyph glyph-name="uni013C" unicode="&#x13c;" horiz-adv-x="471" 
d="M279 1563v-1563h-76v1563h76zM227 -225q-28 0 -47.5 17.5t-19.5 45.5t21.5 46t54.5 18q21 0 39.5 -8t30 -25t11.5 -47q0 -61 -18.5 -109.5t-48.5 -83t-66 -56.5l-14 27q27 14 52.5 42.5t42 69t16.5 86.5q-4 -8 -20 -15.5t-34 -7.5z" />
    <glyph glyph-name="Lcaron" unicode="&#x13d;" horiz-adv-x="951" 
d="M164 0v1475h77v-1448l-35 42h639v-69h-681zM765 1475q0 -66 -6 -142t-13 -136.5t-11 -83.5h-51q4 24 9.5 82t9 133t3.5 147h59z" />
    <glyph glyph-name="lcaron" unicode="&#x13e;" horiz-adv-x="479" 
d="M279 1563v-1563h-76v1563h76zM479 1563q0 -66 -6 -142t-13 -136.5t-11 -83.5h-51q4 24 9.5 82t9 133t3.5 147h59z" />
    <glyph glyph-name="Ldot" unicode="&#x13f;" horiz-adv-x="931" 
d="M164 0v1475h77v-1448l-35 42h639v-69h-681zM658 722q-35 0 -59.5 24.5t-24.5 59.5q0 36 24.5 60t59.5 24t59.5 -24t24.5 -60q0 -35 -24.5 -59.5t-59.5 -24.5z" />
    <glyph glyph-name="ldot" unicode="&#x140;" horiz-adv-x="496" 
d="M264 1563v-1563h-76v1563h76zM438 722q-35 0 -59.5 24.5t-24.5 59.5q0 36 24.5 60t59.5 24t59.5 -24t24.5 -60q0 -35 -24.5 -59.5t-59.5 -24.5z" />
    <glyph glyph-name="Lslash" unicode="&#x141;" horiz-adv-x="969" 
d="M528 876l-484 -465l-37 52l485 465zM182 0v1475h77v-1448l-35 42h640v-69h-682z" />
    <glyph glyph-name="lslash" unicode="&#x142;" horiz-adv-x="464" 
d="M1 796l395 269l32 -47l-395 -269zM279 1563v-1563h-76v1563h76z" />
    <glyph glyph-name="Nacute" unicode="&#x143;" horiz-adv-x="1273" 
d="M239 0h-75v1475h125l753 -1429l-8 -5v1434h75v-1475h-128l-750 1428l8 3v-1431zM559 1546l267 164h113l-287 -164h-93z" />
    <glyph glyph-name="nacute" unicode="&#x144;" horiz-adv-x="1209" 
d="M954 0v547v81v57q0 94 -35 166t-105 112t-177 40q-93 0 -179 -45t-140 -123t-54 -178l-51 20q0 117 63.5 207t163 141t207.5 51q118 0 204 -43.5t133 -127.5t47 -205v-84v-76v-540h-77zM188 0v1062h76v-1062h-76zM562 1251l219 224h104l-249 -224h-74z" />
    <glyph glyph-name="uni0145" unicode="&#x145;" horiz-adv-x="1273" 
d="M239 0h-75v1475h125l753 -1429l-8 -5v1434h75v-1475h-128l-750 1428l8 3v-1431zM628 -225q-28 0 -47.5 17.5t-19.5 45.5t21.5 46t54.5 18q21 0 39.5 -8t30 -25t11.5 -47q0 -61 -18.5 -109.5t-48.5 -83t-66 -56.5l-14 27q27 14 52.5 42.5t42 69t16.5 86.5q-4 -8 -20 -15.5
t-34 -7.5z" />
    <glyph glyph-name="uni0146" unicode="&#x146;" horiz-adv-x="1209" 
d="M954 0v547v81v57q0 94 -35 166t-105 112t-177 40q-93 0 -179 -45t-140 -123t-54 -178l-51 20q0 117 63.5 207t163 141t207.5 51q118 0 204 -43.5t133 -127.5t47 -205v-84v-76v-540h-77zM188 0v1062h76v-1062h-76zM595 -225q-28 0 -47.5 17.5t-19.5 45.5t21.5 46t54.5 18
q21 0 39.5 -8t30 -25t11.5 -47q0 -61 -18.5 -109.5t-48.5 -83t-66 -56.5l-14 27q27 14 52.5 42.5t42 69t16.5 86.5q-4 -8 -20 -15.5t-34 -7.5z" />
    <glyph glyph-name="Ncaron" unicode="&#x147;" horiz-adv-x="1273" 
d="M239 0h-75v1475h125l753 -1429l-8 -5v1434h75v-1475h-128l-750 1428l8 3v-1431zM400 1704h81l173 -144h-29l170 144h83l-196 -160h-87z" />
    <glyph glyph-name="ncaron" unicode="&#x148;" horiz-adv-x="1209" 
d="M954 0v547v81v57q0 94 -35 166t-105 112t-177 40q-93 0 -179 -45t-140 -123t-54 -178l-51 20q0 117 63.5 207t163 141t207.5 51q118 0 204 -43.5t133 -127.5t47 -205v-84v-76v-540h-77zM188 0v1062h76v-1062h-76zM398 1475h73l173 -205h-30l170 205h75l-194 -224h-75z
" />
    <glyph glyph-name="Eng" unicode="&#x14a;" horiz-adv-x="1273" 
d="M779 -457q-34 0 -61 4.5t-39 8.5v60q14 -4 42 -8.5t58 -4.5q82 0 132 30t76.5 77t35.5 101t9 101v88h-44l-758 1423l9 2v-1425h-75v1475h121l761 -1425l-12 -2v1427h75v-1561q0 -69 -13.5 -135t-49 -119t-100 -85t-167.5 -32z" />
    <glyph glyph-name="eng" unicode="&#x14b;" horiz-adv-x="1182" 
d="M675 -457v60q81 0 131 30t76.5 77t36 101t9.5 101v635v69v69q0 94 -28.5 166t-92 112t-170.5 40q-93 0 -179 -45t-140 -123t-54 -178l-51 20q0 117 63.5 207t163 141t207.5 51q118 0 197.5 -43.5t119.5 -127.5t40 -205v-80v-80v-626q0 -69 -13.5 -135t-49 -119t-100 -85
t-166.5 -32zM188 0v1062h76v-1062h-76z" />
    <glyph glyph-name="Omacron" unicode="&#x14c;" horiz-adv-x="1346" 
d="M673 -18q-123 0 -226 51.5t-178.5 150t-117 238.5t-41.5 317t42 316.5t118 236t178.5 147.5t224.5 51t225 -51t179 -147.5t117.5 -236t41.5 -316.5t-41.5 -317t-117 -238.5t-178.5 -150t-226 -51.5zM673 52q142 0 251.5 82.5t171 237t61.5 367.5q0 214 -62.5 366.5
t-171.5 233t-250 80.5q-140 0 -249.5 -80.5t-172 -233t-62.5 -366.5t62.5 -368t172 -236.5t249.5 -82.5zM449 1606v43h448v-43h-448z" />
    <glyph glyph-name="omacron" unicode="&#x14d;" horiz-adv-x="1304" 
d="M652 -18q-152 0 -269 72.5t-183.5 197t-66.5 281.5t66.5 279.5t183.5 193t269 70.5t269 -70.5t183.5 -193t66.5 -279.5t-66.5 -281.5t-183.5 -197t-269 -72.5zM652 53q129 0 228.5 63t156.5 171.5t57 245.5q0 136 -57 243t-156.5 168t-228.5 61t-228.5 -61t-156.5 -168
t-57 -243q0 -137 57 -245.5t156.5 -171.5t228.5 -63zM430 1339v43h448v-43h-448z" />
    <glyph glyph-name="Obreve" unicode="&#x14e;" horiz-adv-x="1346" 
d="M673 -18q-123 0 -226 51.5t-178.5 150t-117 238.5t-41.5 317t42 316.5t118 236t178.5 147.5t224.5 51t225 -51t179 -147.5t117.5 -236t41.5 -316.5t-41.5 -317t-117 -238.5t-178.5 -150t-226 -51.5zM673 52q142 0 251.5 82.5t171 237t61.5 367.5q0 214 -62.5 366.5
t-171.5 233t-250 80.5q-140 0 -249.5 -80.5t-172 -233t-62.5 -366.5t62.5 -368t172 -236.5t249.5 -82.5zM466 1684h58q0 -41 41 -74t108 -33q68 0 108.5 33t40.5 74h59q0 -63 -60.5 -107t-147.5 -44t-147 44t-60 107z" />
    <glyph glyph-name="obreve" unicode="&#x14f;" horiz-adv-x="1304" 
d="M652 -18q-152 0 -269 72.5t-183.5 197t-66.5 281.5t66.5 279.5t183.5 193t269 70.5t269 -70.5t183.5 -193t66.5 -279.5t-66.5 -281.5t-183.5 -197t-269 -72.5zM652 53q129 0 228.5 63t156.5 171.5t57 245.5q0 136 -57 243t-156.5 168t-228.5 61t-228.5 -61t-156.5 -168
t-57 -243q0 -137 57 -245.5t156.5 -171.5t228.5 -63zM445 1495h56q0 -63 42 -105.5t109 -42.5q68 0 109.5 42.5t41.5 105.5h57q0 -86 -60.5 -138.5t-147.5 -52.5t-147 52.5t-60 138.5z" />
    <glyph glyph-name="Ohungarumlaut" unicode="&#x150;" horiz-adv-x="1346" 
d="M673 -18q-123 0 -226 51.5t-178.5 150t-117 238.5t-41.5 317t42 316.5t118 236t178.5 147.5t224.5 51t225 -51t179 -147.5t117.5 -236t41.5 -316.5t-41.5 -317t-117 -238.5t-178.5 -150t-226 -51.5zM673 52q142 0 251.5 82.5t171 237t61.5 367.5q0 214 -62.5 366.5
t-171.5 233t-250 80.5q-140 0 -249.5 -80.5t-172 -233t-62.5 -366.5t62.5 -368t172 -236.5t249.5 -82.5zM508 1546l217 164h101l-241 -164h-77zM745 1546l217 164h100l-241 -164h-76z" />
    <glyph glyph-name="ohungarumlaut" unicode="&#x151;" horiz-adv-x="1304" 
d="M652 -18q-152 0 -269 72.5t-183.5 197t-66.5 281.5t66.5 279.5t183.5 193t269 70.5t269 -70.5t183.5 -193t66.5 -279.5t-66.5 -281.5t-183.5 -197t-269 -72.5zM652 53q129 0 228.5 63t156.5 171.5t57 245.5q0 136 -57 243t-156.5 168t-228.5 61t-228.5 -61t-156.5 -168
t-57 -243q0 -137 57 -245.5t156.5 -171.5t228.5 -63zM458 1251l164 224h92l-193 -224h-63zM749 1251l166 224h92l-196 -224h-62z" />
    <glyph glyph-name="OE" unicode="&#x152;" horiz-adv-x="2042" 
d="M656 -18q-164 0 -286.5 91t-191 260.5t-68.5 405.5q0 237 69 404.5t192 257t285 89.5q179 0 302.5 -102.5t174.5 -282.5v370h745v-69h-706l35 42v-701l-24 27h597v-68h-597l24 27v-706l-35 42h706v-69h-745v377q-51 -182 -174.5 -288.5t-302.5 -106.5zM656 52
q143 0 249.5 82.5t166 237t59.5 367.5q0 214 -60 366.5t-166.5 233t-248.5 80.5q-141 0 -246 -80.5t-163 -233t-58 -366.5t58 -368t163 -236.5t246 -82.5z" />
    <glyph glyph-name="oe" unicode="&#x153;" horiz-adv-x="2236" 
d="M652 -18q-152 0 -269 72.5t-183.5 197t-66.5 281.5t66.5 279.5t183.5 193t269 70.5q122 0 221.5 -46.5t169 -130t100.5 -194.5h-20q32 112 102.5 195.5t169.5 129.5t218 46q150 0 260 -72.5t170.5 -193.5t60.5 -267q0 -11 -0.5 -25t-1.5 -22h-965l34 28v-10.5v-10.5
q6 -136 64 -238t156 -157.5t222 -55.5q101 0 174 28.5t121 72.5t73 92t29 88h78q-5 -54 -37 -115t-91 -114.5t-146 -87.5t-202 -34q-119 0 -219 46t-170 130t-101 197h19q-31 -109 -100.5 -193.5t-168.5 -132t-220 -47.5zM652 53q129 0 228.5 63t156.5 171.5t57 245.5
q0 136 -57 243t-156.5 168t-228.5 61t-228.5 -61t-156.5 -168t-57 -243q0 -137 57 -245.5t156.5 -171.5t228.5 -63zM1173 565h849v6.5v6.5q0 111 -50 209t-141 158.5t-218 60.5q-125 0 -222 -58t-154.5 -158t-63.5 -225z" />
    <glyph glyph-name="Racute" unicode="&#x154;" horiz-adv-x="1153" 
d="M164 0v1475h455q184 0 284 -89.5t100 -286.5q0 -120 -45.5 -204t-107.5 -129.5t-111 -52.5q49 -4 100.5 -28.5t86.5 -75t35 -135.5v-186.5v-186.5q0 -39 7 -66.5t12 -34.5h-79q-4 8 -10.5 34.5t-6.5 66.5v181v181q0 112 -73 163t-195 51h-402l25 31v-708h-75zM239 712
l-25 33h402q83 0 153 43t112.5 121t42.5 186q0 166 -82.5 238.5t-240.5 72.5h-388l26 34v-728zM476 1546l267 164h113l-287 -164h-93z" />
    <glyph glyph-name="racute" unicode="&#x155;" horiz-adv-x="773" 
d="M188 0v1062h76v-299l-31 6q7 41 29 93.5t63.5 101t105.5 80.5t153 32q63 0 101 -11.5t48 -18.5l-24 -73q-10 7 -41 18t-92 11q-85 0 -144.5 -34.5t-96.5 -88.5t-54 -114t-17 -110v-655h-76zM407 1251l219 224h104l-249 -224h-74z" />
    <glyph glyph-name="uni0156" unicode="&#x156;" horiz-adv-x="1153" 
d="M164 0v1475h455q184 0 284 -89.5t100 -286.5q0 -120 -45.5 -204t-107.5 -129.5t-111 -52.5q49 -4 100.5 -28.5t86.5 -75t35 -135.5v-186.5v-186.5q0 -39 7 -66.5t12 -34.5h-79q-4 8 -10.5 34.5t-6.5 66.5v181v181q0 112 -73 163t-195 51h-402l25 31v-708h-75zM239 712
l-25 33h402q83 0 153 43t112.5 121t42.5 186q0 166 -82.5 238.5t-240.5 72.5h-388l26 34v-728zM567 -225q-28 0 -47.5 17.5t-19.5 45.5t21.5 46t54.5 18q21 0 39.5 -8t30 -25t11.5 -47q0 -61 -18.5 -109.5t-48.5 -83t-66 -56.5l-14 27q27 14 52.5 42.5t42 69t16.5 86.5
q-4 -8 -20 -15.5t-34 -7.5z" />
    <glyph glyph-name="uni0157" unicode="&#x157;" horiz-adv-x="773" 
d="M188 0v1062h76v-299l-31 6q7 41 29 93.5t63.5 101t105.5 80.5t153 32q63 0 101 -11.5t48 -18.5l-24 -73q-10 7 -41 18t-92 11q-85 0 -144.5 -34.5t-96.5 -88.5t-54 -114t-17 -110v-655h-76zM215 -225q-28 0 -47.5 17.5t-19.5 45.5t21.5 46t54.5 18q21 0 39.5 -8t30 -25
t11.5 -47q0 -61 -18.5 -109.5t-48.5 -83t-66 -56.5l-14 27q27 14 52.5 42.5t42 69t16.5 86.5q-4 -8 -20 -15.5t-34 -7.5z" />
    <glyph glyph-name="Rcaron" unicode="&#x158;" horiz-adv-x="1153" 
d="M164 0v1475h455q184 0 284 -89.5t100 -286.5q0 -120 -45.5 -204t-107.5 -129.5t-111 -52.5q49 -4 100.5 -28.5t86.5 -75t35 -135.5v-186.5v-186.5q0 -39 7 -66.5t12 -34.5h-79q-4 8 -10.5 34.5t-6.5 66.5v181v181q0 112 -73 163t-195 51h-402l25 31v-708h-75zM239 712
l-25 33h402q83 0 153 43t112.5 121t42.5 186q0 166 -82.5 238.5t-240.5 72.5h-388l26 34v-728zM318 1704h81l173 -144h-29l170 144h83l-196 -160h-87z" />
    <glyph glyph-name="rcaron" unicode="&#x159;" horiz-adv-x="773" 
d="M188 0v1062h76v-299l-31 6q7 41 29 93.5t63.5 101t105.5 80.5t153 32q63 0 101 -11.5t48 -18.5l-24 -73q-10 7 -41 18t-92 11q-85 0 -144.5 -34.5t-96.5 -88.5t-54 -114t-17 -110v-655h-76zM243 1475h73l173 -205h-30l170 205h75l-194 -224h-75z" />
    <glyph glyph-name="Sacute" unicode="&#x15a;" horiz-adv-x="1117" 
d="M560 -18q-148 0 -248 47t-151 142.5t-51 238.5v37.5v37.5h78v-37v-37q0 -186 95 -272.5t273 -86.5q187 0 280.5 76.5t93.5 222.5q0 102 -46.5 167.5t-130 110.5t-197.5 83q-130 43 -228 98.5t-152 135t-54 198.5q0 113 51.5 190t147 116.5t227.5 39.5q141 0 241 -43.5
t153.5 -133t53.5 -227.5v-42.5v-42.5h-78v41.5v41.5q0 178 -96.5 257t-271.5 79q-167 0 -259 -69t-92 -207q0 -103 51.5 -170.5t141.5 -113t205 -84.5q130 -43 221.5 -96t140 -130t48.5 -196q0 -117 -51.5 -200t-151 -127.5t-244.5 -44.5zM475 1546l267 164h113l-287 -164
h-93z" />
    <glyph glyph-name="sacute" unicode="&#x15b;" horiz-adv-x="1103" 
d="M551 -18q-97 0 -173 19.5t-129.5 56.5t-82.5 91t-33 122v21v19h77v-18t1 -20q5 -105 93.5 -163t246.5 -58q103 0 180 25.5t119.5 73t42.5 114.5q0 110 -89.5 157.5t-259.5 76.5q-85 16 -157.5 37.5t-125 55.5t-81.5 84t-29 121q0 90 54.5 152t145 94.5t198.5 32.5
q110 0 201 -31.5t145.5 -98t54.5 -170.5v-11.5v-11.5h-77v10.5v10.5q0 86 -45 137t-118 73t-158 22t-159 -22t-120 -68t-46 -117q0 -73 43 -117.5t120 -70.5t180 -45q93 -17 167 -40t126 -56.5t79.5 -82.5t27.5 -119q0 -69 -31 -122t-87 -89.5t-132.5 -55.5t-168.5 -19z
M486 1251l219 224h104l-249 -224h-74z" />
    <glyph glyph-name="Scircumflex" unicode="&#x15c;" horiz-adv-x="1117" 
d="M560 -18q-148 0 -248 47t-151 142.5t-51 238.5v37.5v37.5h78v-37v-37q0 -186 95 -272.5t273 -86.5q187 0 280.5 76.5t93.5 222.5q0 102 -46.5 167.5t-130 110.5t-197.5 83q-130 43 -228 98.5t-152 135t-54 198.5q0 113 51.5 190t147 116.5t227.5 39.5q141 0 241 -43.5
t153.5 -133t53.5 -227.5v-42.5v-42.5h-78v41.5v41.5q0 178 -96.5 257t-271.5 79q-167 0 -259 -69t-92 -207q0 -103 51.5 -170.5t141.5 -113t205 -84.5q130 -43 221.5 -96t140 -130t48.5 -196q0 -117 -51.5 -200t-151 -127.5t-244.5 -44.5zM317 1544l195 160h87l196 -160h-83
l-170 143h29l-173 -143h-81z" />
    <glyph glyph-name="scircumflex" unicode="&#x15d;" horiz-adv-x="1103" 
d="M551 -18q-97 0 -173 19.5t-129.5 56.5t-82.5 91t-33 122v21v19h77v-18t1 -20q5 -105 93.5 -163t246.5 -58q103 0 180 25.5t119.5 73t42.5 114.5q0 110 -89.5 157.5t-259.5 76.5q-85 16 -157.5 37.5t-125 55.5t-81.5 84t-29 121q0 90 54.5 152t145 94.5t198.5 32.5
q110 0 201 -31.5t145.5 -98t54.5 -170.5v-11.5v-11.5h-77v10.5v10.5q0 86 -45 137t-118 73t-158 22t-159 -22t-120 -68t-46 -117q0 -73 43 -117.5t120 -70.5t180 -45q93 -17 167 -40t126 -56.5t79.5 -82.5t27.5 -119q0 -69 -31 -122t-87 -89.5t-132.5 -55.5t-168.5 -19z
M322 1251l192 224h75l194 -224h-75l-170 205h30l-173 -205h-73z" />
    <glyph glyph-name="Scedilla" unicode="&#x15e;" horiz-adv-x="1117" 
d="M624 -129q33 0 61.5 -13.5t45.5 -43.5t17 -79q0 -54 -28 -91t-74.5 -56t-100.5 -19q-52 0 -89.5 11.5t-48.5 19.5l22 42q10 -7 40.5 -18.5t80.5 -11.5q62 0 106.5 32.5t44.5 91.5q0 51 -24.5 73.5t-65.5 22.5q-26 0 -54.5 -11.5t-44.5 -28.5l-43 16l67 192h47l-64 -184
l-5 9q8 19 41 32.5t69 13.5zM560 -18q-148 0 -248 47t-151 142.5t-51 238.5v37.5v37.5h78v-37v-37q0 -186 95 -272.5t273 -86.5q187 0 280.5 76.5t93.5 222.5q0 102 -46.5 167.5t-130 110.5t-197.5 83q-130 43 -228 98.5t-152 135t-54 198.5q0 113 51.5 190t147 116.5
t227.5 39.5q141 0 241 -43.5t153.5 -133t53.5 -227.5v-42.5v-42.5h-78v41.5v41.5q0 178 -96.5 257t-271.5 79q-167 0 -259 -69t-92 -207q0 -103 51.5 -170.5t141.5 -113t205 -84.5q130 -43 221.5 -96t140 -130t48.5 -196q0 -117 -51.5 -200t-151 -127.5t-244.5 -44.5z" />
    <glyph glyph-name="scedilla" unicode="&#x15f;" horiz-adv-x="1103" 
d="M618 -141q34 0 62 -14t45.5 -43.5t17.5 -78.5q0 -55 -28.5 -92t-74.5 -56t-101 -19q-51 0 -88.5 11.5t-48.5 19.5l21 42q10 -7 41 -18.5t80 -11.5q63 0 107 32.5t44 92.5q0 50 -24.5 72.5t-64.5 22.5q-26 0 -55 -11t-44 -29l-45 16l67 192h50l-64 -184l-10 9
q9 20 43 33.5t70 13.5zM551 -18q-97 0 -173 19.5t-129.5 56.5t-82.5 91t-33 122v21v19h77v-18t1 -20q5 -105 93.5 -163t246.5 -58q103 0 180 25.5t119.5 73t42.5 114.5q0 110 -89.5 157.5t-259.5 76.5q-85 16 -157.5 37.5t-125 55.5t-81.5 84t-29 121q0 90 54.5 152
t145 94.5t198.5 32.5q110 0 201 -31.5t145.5 -98t54.5 -170.5v-11.5v-11.5h-77v10.5v10.5q0 86 -45 137t-118 73t-158 22t-159 -22t-120 -68t-46 -117q0 -73 43 -117.5t120 -70.5t180 -45q93 -17 167 -40t126 -56.5t79.5 -82.5t27.5 -119q0 -69 -31 -122t-87 -89.5
t-132.5 -55.5t-168.5 -19z" />
    <glyph glyph-name="Scaron" unicode="&#x160;" horiz-adv-x="1117" 
d="M560 -18q-148 0 -248 47t-151 142.5t-51 238.5v37.5v37.5h78v-37v-37q0 -186 95 -272.5t273 -86.5q187 0 280.5 76.5t93.5 222.5q0 102 -46.5 167.5t-130 110.5t-197.5 83q-130 43 -228 98.5t-152 135t-54 198.5q0 113 51.5 190t147 116.5t227.5 39.5q141 0 241 -43.5
t153.5 -133t53.5 -227.5v-42.5v-42.5h-78v41.5v41.5q0 178 -96.5 257t-271.5 79q-167 0 -259 -69t-92 -207q0 -103 51.5 -170.5t141.5 -113t205 -84.5q130 -43 221.5 -96t140 -130t48.5 -196q0 -117 -51.5 -200t-151 -127.5t-244.5 -44.5zM317 1704h81l173 -144h-29l170 144
h83l-196 -160h-87z" />
    <glyph glyph-name="scaron" unicode="&#x161;" horiz-adv-x="1103" 
d="M551 -18q-97 0 -173 19.5t-129.5 56.5t-82.5 91t-33 122v21v19h77v-18t1 -20q5 -105 93.5 -163t246.5 -58q103 0 180 25.5t119.5 73t42.5 114.5q0 110 -89.5 157.5t-259.5 76.5q-85 16 -157.5 37.5t-125 55.5t-81.5 84t-29 121q0 90 54.5 152t145 94.5t198.5 32.5
q110 0 201 -31.5t145.5 -98t54.5 -170.5v-11.5v-11.5h-77v10.5v10.5q0 86 -45 137t-118 73t-158 22t-159 -22t-120 -68t-46 -117q0 -73 43 -117.5t120 -70.5t180 -45q93 -17 167 -40t126 -56.5t79.5 -82.5t27.5 -119q0 -69 -31 -122t-87 -89.5t-132.5 -55.5t-168.5 -19z
M322 1475h73l173 -205h-30l170 205h75l-194 -224h-75z" />
    <glyph glyph-name="uni0162" unicode="&#x162;" horiz-adv-x="1088" 
d="M986 1406h-426l23 42v-1448h-78v1448l26 -42h-428v69h883v-69zM609 -129q33 0 61.5 -13.5t45.5 -43.5t17 -79q0 -54 -28 -91t-74.5 -56t-100.5 -19q-52 0 -89.5 11.5t-48.5 19.5l22 42q10 -7 40.5 -18.5t80.5 -11.5q62 0 106.5 32.5t44.5 91.5q0 51 -24.5 73.5
t-65.5 22.5q-26 0 -54.5 -11.5t-44.5 -28.5l-43 16l67 192h47l-64 -184l-5 9q8 19 41 32.5t69 13.5z" />
    <glyph glyph-name="uni0163" unicode="&#x163;" horiz-adv-x="793" 
d="M510 -17q-41 0 -78.5 12t-66.5 39.5t-46 75t-17 119.5v42.5v48.5v673h-251v69h200q19 0 29.5 1t15 6.5t5.5 17t1 33.5v275h78v-333h348v-69h-348v-646v-49v-42q0 -97 32 -150t108 -53q28 0 56.5 4.5t41.5 12.5v-69q-15 -8 -45 -13t-63 -5zM516 -129q33 0 61.5 -13.5
t45.5 -43.5t17 -79q0 -54 -28 -91t-74.5 -56t-100.5 -19q-52 0 -89.5 11.5t-48.5 19.5l22 42q10 -7 40.5 -18.5t80.5 -11.5q62 0 106.5 32.5t44.5 91.5q0 51 -24.5 73.5t-65.5 22.5q-26 0 -54.5 -11.5t-44.5 -28.5l-45 16l67 192h50l-63 -184l-10 9q8 19 42.5 32.5
t70.5 13.5z" />
    <glyph glyph-name="Tcaron" unicode="&#x164;" horiz-adv-x="1088" 
d="M986 1406h-426l23 42v-1448h-78v1448l26 -42h-428v69h883v-69zM304 1704h81l173 -144h-29l170 144h83l-196 -160h-87z" />
    <glyph glyph-name="tcaron" unicode="&#x165;" horiz-adv-x="786" 
d="M510 -17q-41 0 -78.5 12t-66.5 39.5t-46 75t-17 119.5v42.5v48.5v673h-251v69h200q19 0 29.5 1t15 6.5t5.5 17t1 33.5v275h78v-333h348v-69h-348v-646v-49v-42q0 -97 32 -150t108 -53q28 0 56.5 4.5t41.5 12.5v-69q-15 -8 -45 -13t-63 -5zM707 1563q0 -66 -6 -142
t-13 -136.5t-11 -83.5h-51q4 24 9.5 82t9 133t3.5 147h59z" />
    <glyph glyph-name="Tbar" unicode="&#x166;" horiz-adv-x="1088" 
d="M206 716v45h675v-45h-675zM986 1406h-426l23 42v-1448h-78v1448l26 -42h-428v69h883v-69z" />
    <glyph glyph-name="tbar" unicode="&#x167;" horiz-adv-x="793" 
d="M98 625v62h523v-62h-523zM510 -17q-41 0 -78.5 12t-66.5 39.5t-46 75t-17 119.5v42.5v48.5v673h-251v69h200q19 0 29.5 1t15 6.5t5.5 17t1 33.5v275h78v-333h348v-69h-348v-646v-49v-42q0 -97 32 -150t108 -53q28 0 56.5 4.5t41.5 12.5v-69q-15 -8 -45 -13t-63 -5z" />
    <glyph glyph-name="Utilde" unicode="&#x168;" horiz-adv-x="1278" 
d="M1115 551q0 -292 -125 -430.5t-351 -138.5q-225 0 -350 138.5t-125 430.5v102v115v707h77v-703v-114v-98q0 -266 104 -387t294 -121q191 0 295 121t104 387v915h77v-924zM888 1659q-2 -18 -13.5 -45.5t-39.5 -48.5t-78 -21q-41 0 -72 16.5t-56 37.5q-20 16 -42.5 29.5
t-54.5 13.5q-46 0 -63 -23.5t-19 -44.5h-56q2 22 16.5 49.5t45 48t77.5 20.5q42 0 69.5 -16t51.5 -35q24 -20 48 -33t54 -13q48 0 61 23t15 42h56z" />
    <glyph glyph-name="utilde" unicode="&#x169;" horiz-adv-x="1181" 
d="M556 -18q-116 0 -188 41.5t-111.5 105.5t-54 135.5t-14.5 132.5v79.5v81.5v504h77v-500v-77.5v-73.5q0 -91 27.5 -173t93.5 -133.5t180 -51.5q104 0 185.5 53t128 136.5t46.5 175.5l52 -21q0 -71 -28 -144t-82 -134.5t-132.5 -99t-179.5 -37.5zM926 0v1062h77v-1062h-77z
M837 1448q-2 -19 -13.5 -46t-39.5 -48.5t-78 -21.5q-41 0 -72 17t-56 37q-20 17 -42.5 30t-54.5 13q-46 0 -63 -23t-19 -45h-56q2 22 16.5 50t45 48.5t77.5 20.5q42 0 69.5 -16.5t51.5 -35.5t48 -32.5t54 -13.5q48 0 61 23.5t15 42.5h56z" />
    <glyph glyph-name="Umacron" unicode="&#x16a;" horiz-adv-x="1278" 
d="M1115 551q0 -292 -125 -430.5t-351 -138.5q-225 0 -350 138.5t-125 430.5v102v115v707h77v-703v-114v-98q0 -266 104 -387t294 -121q191 0 295 121t104 387v915h77v-924zM414 1606v43h448v-43h-448z" />
    <glyph glyph-name="umacron" unicode="&#x16b;" horiz-adv-x="1181" 
d="M556 -18q-116 0 -188 41.5t-111.5 105.5t-54 135.5t-14.5 132.5v79.5v81.5v504h77v-500v-77.5v-73.5q0 -91 27.5 -173t93.5 -133.5t180 -51.5q104 0 185.5 53t128 136.5t46.5 175.5l52 -21q0 -71 -28 -144t-82 -134.5t-132.5 -99t-179.5 -37.5zM926 0v1062h77v-1062h-77z
M368 1339v43h448v-43h-448z" />
    <glyph glyph-name="Ubreve" unicode="&#x16c;" horiz-adv-x="1278" 
d="M1115 551q0 -292 -125 -430.5t-351 -138.5q-225 0 -350 138.5t-125 430.5v102v115v707h77v-703v-114v-98q0 -266 104 -387t294 -121q191 0 295 121t104 387v915h77v-924zM431 1684h58q0 -41 41 -74t108 -33q68 0 108.5 33t40.5 74h59q0 -63 -60.5 -107t-147.5 -44
t-147 44t-60 107z" />
    <glyph glyph-name="ubreve" unicode="&#x16d;" horiz-adv-x="1181" 
d="M556 -18q-116 0 -188 41.5t-111.5 105.5t-54 135.5t-14.5 132.5v79.5v81.5v504h77v-500v-77.5v-73.5q0 -91 27.5 -173t93.5 -133.5t180 -51.5q104 0 185.5 53t128 136.5t46.5 175.5l52 -21q0 -71 -28 -144t-82 -134.5t-132.5 -99t-179.5 -37.5zM926 0v1062h77v-1062h-77z
M383 1495h56q0 -63 42 -105.5t109 -42.5q68 0 109.5 42.5t41.5 105.5h57q0 -86 -60.5 -138.5t-147.5 -52.5t-147 52.5t-60 138.5z" />
    <glyph glyph-name="Uring" unicode="&#x16e;" horiz-adv-x="1278" 
d="M1115 551q0 -292 -125 -430.5t-351 -138.5q-225 0 -350 138.5t-125 430.5v102v115v707h77v-703v-114v-98q0 -266 104 -387t294 -121q191 0 295 121t104 387v915h77v-924zM638 1569q52 0 88 35.5t36 87.5t-36 87.5t-88 35.5q-51 0 -87 -35.5t-36 -87.5t36 -87.5t87 -35.5z
M638 1523q-46 0 -84.5 23t-61.5 61.5t-23 84.5q0 47 23 85.5t61.5 61t84.5 22.5q48 0 86 -22.5t60.5 -61t22.5 -85.5q0 -46 -22.5 -84.5t-60.5 -61.5t-86 -23z" />
    <glyph glyph-name="uring" unicode="&#x16f;" horiz-adv-x="1181" 
d="M556 -18q-116 0 -188 41.5t-111.5 105.5t-54 135.5t-14.5 132.5v79.5v81.5v504h77v-500v-77.5v-73.5q0 -91 27.5 -173t93.5 -133.5t180 -51.5q104 0 185.5 53t128 136.5t46.5 175.5l52 -21q0 -71 -28 -144t-82 -134.5t-132.5 -99t-179.5 -37.5zM926 0v1062h77v-1062h-77z
M590 1204q52 0 88 36t36 88q0 51 -36 87t-88 36q-51 0 -87 -36t-36 -87q0 -52 36 -88t87 -36zM590 1159q-46 0 -84.5 22.5t-61.5 61t-23 85.5t23 85t61.5 61t84.5 23q48 0 86 -23t60.5 -61t22.5 -85t-22.5 -85.5t-60.5 -61t-86 -22.5z" />
    <glyph glyph-name="Uhungarumlaut" unicode="&#x170;" horiz-adv-x="1278" 
d="M1115 551q0 -292 -125 -430.5t-351 -138.5q-225 0 -350 138.5t-125 430.5v102v115v707h77v-703v-114v-98q0 -266 104 -387t294 -121q191 0 295 121t104 387v915h77v-924zM474 1546l217 164h101l-241 -164h-77zM711 1546l217 164h100l-241 -164h-76z" />
    <glyph glyph-name="uhungarumlaut" unicode="&#x171;" horiz-adv-x="1181" 
d="M556 -18q-116 0 -188 41.5t-111.5 105.5t-54 135.5t-14.5 132.5v79.5v81.5v504h77v-500v-77.5v-73.5q0 -91 27.5 -173t93.5 -133.5t180 -51.5q104 0 185.5 53t128 136.5t46.5 175.5l52 -21q0 -71 -28 -144t-82 -134.5t-132.5 -99t-179.5 -37.5zM926 0v1062h77v-1062h-77z
M396 1251l164 224h92l-193 -224h-63zM687 1251l166 224h92l-196 -224h-62z" />
    <glyph glyph-name="Uogonek" unicode="&#x172;" horiz-adv-x="1278" 
d="M840 -331v-51q-18 -3 -43.5 -5.5t-48.5 -2.5q-44 0 -79.5 14t-56.5 44.5t-21 79.5q0 48 30 97t76 94t92 79h51q-40 -35 -84.5 -81t-75.5 -93t-31 -88q0 -48 28 -72t77 -24q21 0 45 2.5t41 6.5zM1115 551q0 -292 -125 -430.5t-351 -138.5q-225 0 -350 138.5t-125 430.5
v102v115v707h77v-703v-114v-98q0 -266 104 -387t294 -121q191 0 295 121t104 387v915h77v-924z" />
    <glyph glyph-name="uogonek" unicode="&#x173;" horiz-adv-x="1181" 
d="M556 -18q-116 0 -188 41.5t-111.5 105.5t-54 135.5t-14.5 132.5v79.5v81.5v504h77v-500v-77.5v-73.5q0 -91 27.5 -173t93.5 -133.5t180 -51.5q104 0 185.5 53t128 136.5t46.5 175.5l52 -21q0 -71 -28 -144t-82 -134.5t-132.5 -99t-179.5 -37.5zM926 0v1062h77v-1062h-77z
M1003 -349v-51q-18 -3 -43.5 -5.5t-48.5 -2.5q-44 0 -79.5 14t-56.5 44.5t-21 79.5q0 48 30 97t76 94t92 79h51q-40 -35 -84.5 -81t-75.5 -93t-31 -88q0 -48 28 -72t77 -24q21 0 45 2.5t41 6.5z" />
    <glyph glyph-name="Wcircumflex" unicode="&#x174;" horiz-adv-x="1634" 
d="M376 0l-271 1475h81l252 -1430h-14l344 1430h98l342 -1430h-13l253 1430h81l-273 -1475h-111l-334 1400h12l-335 -1400h-112zM583 1544l195 160h87l196 -160h-83l-170 143h29l-173 -143h-81z" />
    <glyph glyph-name="wcircumflex" unicode="&#x175;" horiz-adv-x="1466" 
d="M1024 0l-320 1062h71l308 -1016h-16l228 1016h81l-250 -1062h-102zM342 0l-252 1062h81l230 -1016h-16l305 1016h71l-317 -1062h-102zM501 1251l192 224h75l194 -224h-75l-170 205h30l-173 -205h-73z" />
    <glyph glyph-name="Ycircumflex" unicode="&#x176;" horiz-adv-x="1072" 
d="M970 1475l-395 -959v-516h-78v516l-394 959h82l367 -906h-32l367 906h83zM296 1544l195 160h87l196 -160h-83l-170 143h29l-173 -143h-81z" />
    <glyph glyph-name="ycircumflex" unicode="&#x177;" horiz-adv-x="1011" 
d="M171 -441q-33 0 -62 5.5t-35 8.5v70q12 -7 40.5 -11t54.5 -4q73 0 120 36.5t77 94t52 120.5l43 120l-379 1063h80l346 -987h-11l344 987h80l-420 -1179q-27 -77 -65 -151.5t-100.5 -123.5t-164.5 -49zM261 1251l192 224h75l194 -224h-75l-170 205h30l-173 -205h-73z" />
    <glyph glyph-name="Ydieresis" unicode="&#x178;" horiz-adv-x="1072" 
d="M970 1475l-395 -959v-516h-78v516l-394 959h82l367 -906h-32l367 906h83zM373 1574q-29 0 -49.5 18t-20.5 47q0 28 20.5 46t49.5 18q28 0 49 -18t21 -46q0 -29 -21 -47t-49 -18zM700 1574q-29 0 -49.5 18t-20.5 47q0 28 20.5 46t49.5 18q28 0 49 -18t21 -46
q0 -29 -21 -47t-49 -18z" />
    <glyph glyph-name="Zacute" unicode="&#x179;" horiz-adv-x="1079" 
d="M213 69h731v-69h-819v63l743 1344l2 -1h-699v69h783v-61l-741 -1342v-3zM457 1546l267 164h113l-287 -164h-93z" />
    <glyph glyph-name="zacute" unicode="&#x17a;" horiz-adv-x="976" 
d="M185 71h690v-71h-773v69l676 925l1 -3h-638v71h721v-69l-676 -926zM429 1251l219 224h104l-249 -224h-74z" />
    <glyph glyph-name="Zdotaccent" unicode="&#x17b;" horiz-adv-x="1079" 
d="M213 69h731v-69h-819v63l743 1344l2 -1h-699v69h783v-61l-741 -1342v-3zM538 1577q-29 0 -50.5 19t-21.5 48t21.5 47.5t50.5 18.5q30 0 51.5 -18.5t21.5 -47.5q0 -30 -21.5 -48.5t-51.5 -18.5z" />
    <glyph glyph-name="zdotaccent" unicode="&#x17c;" horiz-adv-x="976" 
d="M185 71h690v-71h-773v69l676 925l1 -3h-638v71h721v-69l-676 -926zM495 1355q-29 0 -50.5 19t-21.5 48t21.5 47.5t50.5 18.5q30 0 51.5 -18.5t21.5 -47.5q0 -30 -21.5 -48.5t-51.5 -18.5z" />
    <glyph glyph-name="Zcaron" unicode="&#x17d;" horiz-adv-x="1079" 
d="M213 69h731v-69h-819v63l743 1344l2 -1h-699v69h783v-61l-741 -1342v-3zM299 1704h81l173 -144h-29l170 144h83l-196 -160h-87z" />
    <glyph glyph-name="zcaron" unicode="&#x17e;" horiz-adv-x="976" 
d="M185 71h690v-71h-773v69l676 925l1 -3h-638v71h721v-69l-676 -926zM265 1475h73l173 -205h-30l170 205h75l-194 -224h-75z" />
    <glyph glyph-name="uni018F" unicode="&#x18f;" horiz-adv-x="1192" 
d="M584 -11q-122 0 -211.5 56.5t-148 154.5t-86.5 222.5t-28 260.5v31.5t1 25.5h908v-69h-843l12 24v-19v-17q0 -109 22.5 -215.5t70.5 -193.5t123 -139t180 -52q114 0 194 56.5t129 153.5t72 218.5t23 251.5q0 148 -24.5 271.5t-75.5 213.5t-129 140t-186 50
q-106 0 -181 -43.5t-122 -108.5t-69 -131t-23 -112h-75q0 63 29 142t87 152.5t146 122t208 48.5q124 0 216.5 -54t154.5 -153.5t92.5 -236t30.5 -301.5q0 -147 -29.5 -281.5t-90 -240t-154.5 -167t-223 -61.5z" />
    <glyph glyph-name="florin" unicode="&#x192;" horiz-adv-x="918" 
d="M38 -361q-37 0 -68.5 6.5t-42.5 10.5l18 57q13 -4 38.5 -8.5t54.5 -4.5q85 0 130 46t65.5 116t30.5 141q8 53 22 146.5t31.5 210t36 242t36 243.5t31.5 214t23 154q10 60 28.5 123.5t52.5 117.5t89 88t136 34q37 0 69 -6t43 -11l-19 -57q-13 5 -38.5 9t-54.5 4
q-86 0 -130.5 -46t-64 -115.5t-30.5 -141.5q-9 -57 -23 -153.5t-32 -214.5t-36.5 -243t-36 -242t-32 -210t-22.5 -147q-9 -60 -28 -123.5t-53 -118t-88.5 -88t-135.5 -33.5zM161 1001l11 61h597l-11 -61h-597z" />
    <glyph glyph-name="uni019D" unicode="&#x19d;" horiz-adv-x="1273" 
d="M-81 -465v60q81 1 129.5 32t73.5 80t33.5 104t8.5 103v1561h125l753 -1428l-8 -3v1431h75v-1475h-127l-752 1426l9 3v-1515q0 -63 -10.5 -128.5t-43 -122.5t-96 -92t-170.5 -36z" />
    <glyph glyph-name="Ohorn" unicode="&#x1a0;" horiz-adv-x="1346" 
d="M1015 1345q91 0 144.5 63t53.5 191h58q0 -151 -70 -227t-186 -76v49zM673 -18q-123 0 -226 51.5t-178.5 150t-117 238.5t-41.5 317t42 316.5t118 236t178.5 147.5t224.5 51t225 -51t179 -147.5t117.5 -236t41.5 -316.5t-41.5 -317t-117 -238.5t-178.5 -150t-226 -51.5z
M673 52q142 0 251.5 82.5t171 237t61.5 367.5q0 214 -62.5 366.5t-171.5 233t-250 80.5q-140 0 -249.5 -80.5t-172 -233t-62.5 -366.5t62.5 -368t172 -236.5t249.5 -82.5z" />
    <glyph glyph-name="ohorn" unicode="&#x1a1;" horiz-adv-x="1301" 
d="M982 941q67 0 105.5 29.5t55 90t16.5 152.5h55q0 -106 -24 -177.5t-75 -106.5t-133 -35v47zM652 -18q-152 0 -269 72.5t-183.5 197t-66.5 281.5t66.5 279.5t183.5 193t269 70.5t269 -70.5t183.5 -193t66.5 -279.5t-66.5 -281.5t-183.5 -197t-269 -72.5zM652 53
q129 0 228.5 63t156.5 171.5t57 245.5q0 136 -57 243t-156.5 168t-228.5 61t-228.5 -61t-156.5 -168t-57 -243q0 -137 57 -245.5t156.5 -171.5t228.5 -63z" />
    <glyph glyph-name="Uhorn" unicode="&#x1af;" horiz-adv-x="1351" 
d="M1085 1475q91 0 144 63t53 191h59q0 -151 -70 -226.5t-186 -75.5v48zM1115 551q0 -292 -125 -430.5t-351 -138.5q-225 0 -350 138.5t-125 430.5v102v115v707h77v-703v-114v-98q0 -266 104 -387t294 -121q191 0 295 121t104 387v915h77v-924z" />
    <glyph glyph-name="uhorn" unicode="&#x1b0;" horiz-adv-x="1172" 
d="M924 1062q67 0 105.5 29.5t55 90.5t16.5 152h55q0 -106 -24 -177t-75 -106.5t-133 -35.5v47zM512 -18q-115 0 -183.5 41.5t-102.5 105.5t-44.5 135.5t-10.5 132.5v79.5v81.5v504h78v-500v-77.5v-73.5q0 -91 20.5 -173t80 -133.5t172.5 -51.5q105 0 186.5 53t127.5 136.5
t46 175.5l53 -21q0 -71 -28 -144t-82 -134.5t-133 -99t-180 -37.5zM882 0v1062h78v-1062h-78z" />
    <glyph glyph-name="uni01B7" unicode="&#x1b7;" horiz-adv-x="1092" 
d="M545 -18q-98 0 -170 28t-119.5 84t-70.5 140t-23 198v3v2h79v-2v-3q0 -208 79.5 -294.5t225.5 -86.5q135 0 210.5 96.5t75.5 278.5q0 107 -33 174t-104.5 99t-185.5 32h-64l394 675h-668v69h756v-62l-364 -614q130 0 206 -47t109 -130.5t33 -193.5q0 -136 -40.5 -236
t-121.5 -155t-204 -55z" />
    <glyph glyph-name="uni01C4" unicode="&#x1c4;" horiz-adv-x="2159" 
d="M164 0v1475h298q144 0 260.5 -49.5t199.5 -144t127.5 -231.5t44.5 -313q0 -177 -44.5 -313.5t-127.5 -231t-199.5 -143.5t-260.5 -49h-298zM243 27l-35 42h248q168 0 294 79.5t195.5 229t69.5 359.5t-69.5 360t-195.5 229.5t-294 79.5h-248l35 42v-1421zM1293 69h731v-69
h-819v63l743 1344l2 -1h-699v69h783v-61l-741 -1342v-3zM1379 1704h81l173 -144h-29l170 144h83l-196 -160h-87z" />
    <glyph glyph-name="uni01C5" unicode="&#x1c5;" horiz-adv-x="2180" 
d="M164 0v1475h298q144 0 260.5 -49.5t199.5 -144t127.5 -231.5t44.5 -313q0 -177 -44.5 -313.5t-127.5 -231t-199.5 -143.5t-260.5 -49h-298zM243 27l-35 42h248q168 0 294 79.5t195.5 229t69.5 359.5t-69.5 360t-195.5 229.5t-294 79.5h-248l35 42v-1421zM1389 71h690v-71
h-773v69l676 925l1 -3h-638v71h721v-69l-676 -926zM1469 1475h73l173 -205h-30l170 205h75l-194 -224h-75z" />
    <glyph glyph-name="uni01C6" unicode="&#x1c6;" horiz-adv-x="2194" 
d="M582 -18q-130 0 -231.5 64t-159.5 186.5t-58 297.5q0 174 58 296t160 186t231 64q121 0 221.5 -57t161 -152t60.5 -212v-7v-9l-61 1v7v7q0 95 -51.5 174.5t-137 128t-185.5 48.5q-168 0 -273 -122t-105 -353t105.5 -353.5t272.5 -122.5q100 0 185 48.5t137 130t52 181.5
l61 -1q0 -122 -61 -220t-161.5 -154.5t-220.5 -56.5zM964 0v1563h78v-1563h-78zM1402 71h690v-71h-773v69l676 925l1 -3h-638v71h721v-69l-676 -926zM1482 1475h73l173 -205h-30l170 205h75l-194 -224h-75z" />
    <glyph glyph-name="uni01C7" unicode="&#x1c7;" horiz-adv-x="1929" 
d="M164 0v1475h77v-1448l-35 42h639v-69h-681zM1376 -18q-132 0 -218 58.5t-127 164t-41 247.5v25.5v25.5h75v-20.5v-21.5q0 -121 32.5 -213.5t101.5 -144t177 -51.5q107 0 176 51.5t102.5 146.5t33.5 224v1001h77v-1008q0 -109 -22.5 -198t-70 -153.5t-121 -99
t-175.5 -34.5z" />
    <glyph glyph-name="uni01C8" unicode="&#x1c8;" horiz-adv-x="1462" 
d="M164 0v1475h77v-1448l-35 42h639v-69h-681zM960 -442q-27 0 -49 2.5t-33 5.5v64q12 -4 34.5 -7.5t47.5 -3.5q79 0 124 25.5t65 68t25 92t5 98.5v1159h77v-1166q0 -66 -9.5 -126t-39 -108t-88.5 -76t-159 -28zM1222 1353q-31 0 -52.5 19t-21.5 49q0 29 21.5 48t52.5 19
q29 0 50.5 -19t21.5 -48q0 -30 -21.5 -49t-50.5 -19z" />
    <glyph glyph-name="uni01C9" unicode="&#x1c9;" horiz-adv-x="1016" 
d="M368 -9q-26 0 -57 5t-59.5 24.5t-46 62t-17.5 116.5v35v38v1291h76v-1289v-33v-30q0 -68 17 -100.5t42 -42t49 -9.5q26 0 49 3t35 6v-68q-14 -3 -36.5 -6t-51.5 -3zM515 -442q-27 0 -49 2.5t-33 5.5v64q12 -4 34.5 -7.5t47.5 -3.5q79 0 124 25.5t65 68t25 92t5 98.5v1159
h77v-1166q0 -66 -9.5 -126t-39 -108t-88.5 -76t-159 -28zM777 1353q-31 0 -52.5 19t-21.5 49q0 29 21.5 48t52.5 19q29 0 50.5 -19t21.5 -48q0 -30 -21.5 -49t-50.5 -19z" />
    <glyph glyph-name="uni01CA" unicode="&#x1ca;" horiz-adv-x="2320" 
d="M239 0h-75v1475h125l753 -1429l-8 -5v1434h75v-1475h-128l-750 1428l8 3v-1431zM1768 -18q-132 0 -218 58.5t-127 164t-41 247.5v25.5v25.5h75v-20.5v-21.5q0 -121 32.5 -213.5t101.5 -144t177 -51.5q107 0 176 51.5t102.5 146.5t33.5 224v1001h77v-1008
q0 -109 -22.5 -198t-70 -153.5t-121 -99t-175.5 -34.5z" />
    <glyph glyph-name="uni01CB" unicode="&#x1cb;" horiz-adv-x="1727" 
d="M239 0h-75v1475h125l753 -1429l-8 -5v1434h75v-1475h-128l-750 1428l8 3v-1431zM1225 -442q-27 0 -49 2.5t-33 5.5v64q12 -4 34.5 -7.5t47.5 -3.5q79 0 124 25.5t65 68t25 92t5 98.5v1159h77v-1166q0 -66 -9.5 -126t-39 -108t-88.5 -76t-159 -28zM1487 1353
q-31 0 -52.5 19t-21.5 49q0 29 21.5 48t52.5 19q29 0 50.5 -19t21.5 -48q0 -30 -21.5 -49t-50.5 -19z" />
    <glyph glyph-name="uni01CC" unicode="&#x1cc;" horiz-adv-x="1719" 
d="M954 0v547v81v57q0 94 -35 166t-105 112t-177 40q-93 0 -179 -45t-140 -123t-54 -178l-51 20q0 117 63.5 207t163 141t207.5 51q118 0 204 -43.5t133 -127.5t47 -205v-84v-76v-540h-77zM188 0v1062h76v-1062h-76zM1218 -442q-27 0 -49 2.5t-33 5.5v64q12 -4 34.5 -7.5
t47.5 -3.5q79 0 124 25.5t65 68t25 92t5 98.5v1159h77v-1166q0 -66 -9.5 -126t-39 -108t-88.5 -76t-159 -28zM1480 1353q-31 0 -52.5 19t-21.5 49q0 29 21.5 48t52.5 19q29 0 50.5 -19t21.5 -48q0 -30 -21.5 -49t-50.5 -19z" />
    <glyph glyph-name="uni01CD" unicode="&#x1cd;" horiz-adv-x="1181" 
d="M103 0l431 1481h116l428 -1481h-81l-406 1422h2l-409 -1422h-81zM277 431v69h630v-69h-630zM352 1704h81l173 -144h-29l170 144h83l-196 -160h-87z" />
    <glyph glyph-name="uni01CE" unicode="&#x1ce;" horiz-adv-x="1201" 
d="M547 -18q-125 0 -215.5 36t-139.5 105.5t-49 169.5q0 99 50 164t145 102t229 50q210 21 304 45t94 75v13.5v12.5q0 114 -93 182t-262 68q-175 0 -274 -75.5t-99 -214.5h-77q0 113 55.5 193.5t157 124t237.5 43.5q124 0 221.5 -38t154 -110.5t56.5 -175.5v-41v-41v-494
q0 -32 3 -61.5t10 -51.5q8 -26 16.5 -41.5t13.5 -21.5h-77q-5 4 -13 19.5t-15 39.5q-9 29 -12 61.5t-3 86.5l12 -11q-31 -64 -94 -112.5t-149 -75t-187 -26.5zM558 52q113 0 205 39t147 110.5t55 167.5v287l15 -29q-51 -33 -156.5 -52t-235.5 -32q-179 -17 -273.5 -72.5
t-94.5 -175.5q0 -116 87 -179.5t251 -63.5zM383 1475h73l173 -205h-30l170 205h75l-194 -224h-75z" />
    <glyph glyph-name="uni01CF" unicode="&#x1cf;" horiz-adv-x="448" 
d="M186 0v1475h76v-1475h-76zM-15 1704h81l173 -144h-29l170 144h83l-196 -160h-87z" />
    <glyph glyph-name="uni01D0" unicode="&#x1d0;" horiz-adv-x="466" 
d="M195 0v1062h76v-1062h-76zM2 1475h73l173 -205h-30l170 205h75l-194 -224h-75z" />
    <glyph glyph-name="uni01D1" unicode="&#x1d1;" horiz-adv-x="1346" 
d="M673 -18q-123 0 -226 51.5t-178.5 150t-117 238.5t-41.5 317t42 316.5t118 236t178.5 147.5t224.5 51t225 -51t179 -147.5t117.5 -236t41.5 -316.5t-41.5 -317t-117 -238.5t-178.5 -150t-226 -51.5zM673 52q142 0 251.5 82.5t171 237t61.5 367.5q0 214 -62.5 366.5
t-171.5 233t-250 80.5q-140 0 -249.5 -80.5t-172 -233t-62.5 -366.5t62.5 -368t172 -236.5t249.5 -82.5zM434 1704h81l173 -144h-29l170 144h83l-196 -160h-87z" />
    <glyph glyph-name="uni01D2" unicode="&#x1d2;" horiz-adv-x="1304" 
d="M652 -18q-152 0 -269 72.5t-183.5 197t-66.5 281.5t66.5 279.5t183.5 193t269 70.5t269 -70.5t183.5 -193t66.5 -279.5t-66.5 -281.5t-183.5 -197t-269 -72.5zM652 53q129 0 228.5 63t156.5 171.5t57 245.5q0 136 -57 243t-156.5 168t-228.5 61t-228.5 -61t-156.5 -168
t-57 -243q0 -137 57 -245.5t156.5 -171.5t228.5 -63zM422 1475h73l173 -205h-30l170 205h75l-194 -224h-75z" />
    <glyph glyph-name="uni01D3" unicode="&#x1d3;" horiz-adv-x="1278" 
d="M1115 551q0 -292 -125 -430.5t-351 -138.5q-225 0 -350 138.5t-125 430.5v102v115v707h77v-703v-114v-98q0 -266 104 -387t294 -121q191 0 295 121t104 387v915h77v-924zM408 1888h73l173 -205h-30l170 205h75l-194 -224h-75z" />
    <glyph glyph-name="uni01D4" unicode="&#x1d4;" horiz-adv-x="1181" 
d="M556 -18q-116 0 -188 41.5t-111.5 105.5t-54 135.5t-14.5 132.5v79.5v81.5v504h77v-500v-77.5v-73.5q0 -91 27.5 -173t93.5 -133.5t180 -51.5q104 0 185.5 53t128 136.5t46.5 175.5l52 -21q0 -71 -28 -144t-82 -134.5t-132.5 -99t-179.5 -37.5zM926 0v1062h77v-1062h-77z
M360 1475h73l173 -205h-30l170 205h75l-194 -224h-75z" />
    <glyph glyph-name="uni01D5" unicode="&#x1d5;" horiz-adv-x="1278" 
d="M1115 551q0 -292 -125 -430.5t-351 -138.5q-225 0 -350 138.5t-125 430.5v102v115v707h77v-703v-114v-98q0 -266 104 -387t294 -121q191 0 295 121t104 387v915h77v-924zM475 1574q-29 0 -49.5 18t-20.5 47q0 28 20.5 46t49.5 18q28 0 49 -18t21 -46q0 -29 -21 -47
t-49 -18zM802 1574q-29 0 -49.5 18t-20.5 47q0 28 20.5 46t49.5 18q28 0 49 -18t21 -46q0 -29 -21 -47t-49 -18zM414 1828v43h448v-43h-448z" />
    <glyph glyph-name="uni01D6" unicode="&#x1d6;" horiz-adv-x="1181" 
d="M556 -18q-116 0 -188 41.5t-111.5 105.5t-54 135.5t-14.5 132.5v79.5v81.5v504h77v-500v-77.5v-73.5q0 -91 27.5 -173t93.5 -133.5t180 -51.5q104 0 185.5 53t128 136.5t46.5 175.5l52 -21q0 -71 -28 -144t-82 -134.5t-132.5 -99t-179.5 -37.5zM926 0v1062h77v-1062h-77z
M427 1355q-29 0 -49.5 18t-20.5 47q0 28 20.5 46t49.5 18q28 0 49 -18t21 -46q0 -29 -21 -47t-49 -18zM754 1355q-29 0 -49.5 18t-20.5 47q0 28 20.5 46t49.5 18q28 0 49 -18t21 -46q0 -29 -21 -47t-49 -18zM366 1615v43h448v-43h-448z" />
    <glyph glyph-name="uni01D7" unicode="&#x1d7;" horiz-adv-x="1278" 
d="M1115 551q0 -292 -125 -430.5t-351 -138.5q-225 0 -350 138.5t-125 430.5v102v115v707h77v-703v-114v-98q0 -266 104 -387t294 -121q191 0 295 121t104 387v915h77v-924zM475 1574q-29 0 -49.5 18t-20.5 47q0 28 20.5 46t49.5 18q28 0 49 -18t21 -46q0 -29 -21 -47
t-49 -18zM802 1574q-29 0 -49.5 18t-20.5 47q0 28 20.5 46t49.5 18q28 0 49 -18t21 -46q0 -29 -21 -47t-49 -18zM557 1768l267 164h113l-287 -164h-93z" />
    <glyph glyph-name="uni01D8" unicode="&#x1d8;" horiz-adv-x="1181" 
d="M556 -18q-116 0 -188 41.5t-111.5 105.5t-54 135.5t-14.5 132.5v79.5v81.5v504h77v-500v-77.5v-73.5q0 -91 27.5 -173t93.5 -133.5t180 -51.5q104 0 185.5 53t128 136.5t46.5 175.5l52 -21q0 -71 -28 -144t-82 -134.5t-132.5 -99t-179.5 -37.5zM926 0v1062h77v-1062h-77z
M427 1355q-29 0 -49.5 18t-20.5 47q0 28 20.5 46t49.5 18q28 0 49 -18t21 -46q0 -29 -21 -47t-49 -18zM754 1355q-29 0 -49.5 18t-20.5 47q0 28 20.5 46t49.5 18q28 0 49 -18t21 -46q0 -29 -21 -47t-49 -18zM509 1555l267 164h113l-287 -164h-93z" />
    <glyph glyph-name="uni01D9" unicode="&#x1d9;" horiz-adv-x="1278" 
d="M1115 551q0 -292 -125 -430.5t-351 -138.5q-225 0 -350 138.5t-125 430.5v102v115v707h77v-703v-114v-98q0 -266 104 -387t294 -121q191 0 295 121t104 387v915h77v-924zM475 1574q-29 0 -49.5 18t-20.5 47q0 28 20.5 46t49.5 18q28 0 49 -18t21 -46q0 -29 -21 -47
t-49 -18zM802 1574q-29 0 -49.5 18t-20.5 47q0 28 20.5 46t49.5 18q28 0 49 -18t21 -46q0 -29 -21 -47t-49 -18zM399 1926h81l173 -144h-29l170 144h83l-196 -160h-87z" />
    <glyph glyph-name="uni01DA" unicode="&#x1da;" horiz-adv-x="1181" 
d="M556 -18q-116 0 -188 41.5t-111.5 105.5t-54 135.5t-14.5 132.5v79.5v81.5v504h77v-500v-77.5v-73.5q0 -91 27.5 -173t93.5 -133.5t180 -51.5q104 0 185.5 53t128 136.5t46.5 175.5l52 -21q0 -71 -28 -144t-82 -134.5t-132.5 -99t-179.5 -37.5zM926 0v1062h77v-1062h-77z
M427 1355q-29 0 -49.5 18t-20.5 47q0 28 20.5 46t49.5 18q28 0 49 -18t21 -46q0 -29 -21 -47t-49 -18zM754 1355q-29 0 -49.5 18t-20.5 47q0 28 20.5 46t49.5 18q28 0 49 -18t21 -46q0 -29 -21 -47t-49 -18zM351 1713h81l173 -144h-29l170 144h83l-196 -160h-87z" />
    <glyph glyph-name="uni01DB" unicode="&#x1db;" horiz-adv-x="1278" 
d="M1115 551q0 -292 -125 -430.5t-351 -138.5q-225 0 -350 138.5t-125 430.5v102v115v707h77v-703v-114v-98q0 -266 104 -387t294 -121q191 0 295 121t104 387v915h77v-924zM475 1574q-29 0 -49.5 18t-20.5 47q0 28 20.5 46t49.5 18q28 0 49 -18t21 -46q0 -29 -21 -47
t-49 -18zM802 1574q-29 0 -49.5 18t-20.5 47q0 28 20.5 46t49.5 18q28 0 49 -18t21 -46q0 -29 -21 -47t-49 -18zM731 1768h-93l-288 164h114z" />
    <glyph glyph-name="uni01DC" unicode="&#x1dc;" horiz-adv-x="1181" 
d="M556 -18q-116 0 -188 41.5t-111.5 105.5t-54 135.5t-14.5 132.5v79.5v81.5v504h77v-500v-77.5v-73.5q0 -91 27.5 -173t93.5 -133.5t180 -51.5q104 0 185.5 53t128 136.5t46.5 175.5l52 -21q0 -71 -28 -144t-82 -134.5t-132.5 -99t-179.5 -37.5zM926 0v1062h77v-1062h-77z
M427 1355q-29 0 -49.5 18t-20.5 47q0 28 20.5 46t49.5 18q28 0 49 -18t21 -46q0 -29 -21 -47t-49 -18zM754 1355q-29 0 -49.5 18t-20.5 47q0 28 20.5 46t49.5 18q28 0 49 -18t21 -46q0 -29 -21 -47t-49 -18zM683 1555h-93l-288 164h114z" />
    <glyph glyph-name="uni01DE" unicode="&#x1de;" horiz-adv-x="1181" 
d="M103 0l431 1481h116l428 -1481h-81l-406 1422h2l-409 -1422h-81zM277 431v69h630v-69h-630zM429 1574q-29 0 -49.5 18t-20.5 47q0 28 20.5 46t49.5 18q28 0 49 -18t21 -46q0 -29 -21 -47t-49 -18zM756 1574q-29 0 -49.5 18t-20.5 47q0 28 20.5 46t49.5 18q28 0 49 -18
t21 -46q0 -29 -21 -47t-49 -18zM367 1828v43h448v-43h-448z" />
    <glyph glyph-name="uni01DF" unicode="&#x1df;" horiz-adv-x="1201" 
d="M547 -18q-125 0 -215.5 36t-139.5 105.5t-49 169.5q0 99 50 164t145 102t229 50q210 21 304 45t94 75v13.5v12.5q0 114 -93 182t-262 68q-175 0 -274 -75.5t-99 -214.5h-77q0 113 55.5 193.5t157 124t237.5 43.5q124 0 221.5 -38t154 -110.5t56.5 -175.5v-41v-41v-494
q0 -32 3 -61.5t10 -51.5q8 -26 16.5 -41.5t13.5 -21.5h-77q-5 4 -13 19.5t-15 39.5q-9 29 -12 61.5t-3 86.5l12 -11q-31 -64 -94 -112.5t-149 -75t-187 -26.5zM558 52q113 0 205 39t147 110.5t55 167.5v287l15 -29q-51 -33 -156.5 -52t-235.5 -32q-179 -17 -273.5 -72.5
t-94.5 -175.5q0 -116 87 -179.5t251 -63.5zM450 1355q-29 0 -49.5 18t-20.5 47q0 28 20.5 46t49.5 18q28 0 49 -18t21 -46q0 -29 -21 -47t-49 -18zM777 1355q-29 0 -49.5 18t-20.5 47q0 28 20.5 46t49.5 18q28 0 49 -18t21 -46q0 -29 -21 -47t-49 -18zM389 1615v43h448v-43
h-448z" />
    <glyph glyph-name="uni01E4" unicode="&#x1e4;" horiz-adv-x="1289" 
d="M648 345v54h607v-54h-607zM648 -18q-162 0 -282.5 92t-188 261.5t-67.5 401.5q0 233 69.5 401.5t194 260t289.5 91.5q130 0 219.5 -47t144.5 -121t79.5 -158.5t24.5 -161.5v-6v-6h-75v6v6q0 70 -21.5 142.5t-68 135t-121.5 100.5t-182 38q-143 0 -249.5 -82t-166 -235
t-59.5 -364q0 -159 32.5 -285.5t93 -216t145 -136.5t190.5 -47q132 0 217 41.5t130.5 100t59.5 110.5v297h-407v67h479v-668h-64l-3 186q-8 -24 -37 -58.5t-80 -68t-124.5 -55.5t-171.5 -22z" />
    <glyph glyph-name="uni01E5" unicode="&#x1e5;" horiz-adv-x="1289" 
d="M637 -448q-84 0 -167.5 19.5t-151.5 61.5t-108.5 107.5t-40.5 157.5v4.5v3.5h77v-3.5v-4.5q0 -94 57.5 -156.5t147.5 -93t187 -30.5q100 0 190.5 35.5t147.5 121t57 235.5v1052h78v-1052q0 -128 -41 -216.5t-110 -141.5t-153 -76.5t-170 -23.5zM648 -18q-97 0 -187.5 35
t-162 104.5t-113.5 172.5t-42 241q0 132 41.5 233.5t113.5 170t162.5 103t187.5 34.5q127 0 227 -54.5t157 -150t57 -221.5v-9v-9h-56v8.5v8.5q0 101 -49.5 182t-135 128t-193.5 47q-112 0 -210.5 -52.5t-160 -157.5t-61.5 -261q0 -158 61.5 -265.5t160 -162.5t210.5 -55
q109 0 194 47.5t134.5 129.5t49.5 182l56 -2q0 -126 -57 -222.5t-157 -150.5t-227 -54zM547 514v45h674v-45h-674z" />
    <glyph glyph-name="Gcaron" unicode="&#x1e6;" horiz-adv-x="1315" 
d="M668 -18q-162 0 -287.5 92t-198 261.5t-72.5 401.5q0 233 74.5 401.5t204 260t294.5 91.5q130 0 219.5 -47t144.5 -121t79.5 -158.5t24.5 -161.5v-6v-6h-75v6v6q0 70 -21.5 142.5t-68 135t-121.5 100.5t-182 38q-143 0 -254.5 -82t-176 -235t-64.5 -364
q0 -159 35.5 -285.5t100 -216t152 -136.5t193.5 -47q132 0 217 41.5t130.5 100t59.5 110.5v297h-407v67h479v-668h-64l-3 186q-8 -24 -37 -58.5t-80 -68t-124.5 -55.5t-171.5 -22zM438 1704h81l173 -144h-29l170 144h83l-196 -160h-87z" />
    <glyph glyph-name="gcaron" unicode="&#x1e7;" horiz-adv-x="1193" 
d="M811 25q78 -6 138 -28.5t94.5 -66t34.5 -112.5q0 -73 -51.5 -134t-161.5 -97t-285 -36q-241 0 -355.5 75t-114.5 190q0 42 10 72.5t21 49.5l73 -13q-9 -14 -18 -41.5t-9 -63.5q0 -97 103 -150.5t297 -53.5q148 0 240 28t134.5 73.5t42.5 97.5q0 78 -62.5 108.5
t-156.5 36.5l-405 30q-95 7 -152 50t-57 111q0 44 21.5 79t50.5 57.5t53 26.5l64 -34q-30 -6 -70.5 -37.5t-40.5 -80.5q0 -43 37 -72t129 -36zM978 1062h74l-22 -425q-6 -118 -59.5 -215t-150.5 -154.5t-235 -57.5q-143 0 -243 58t-152 156t-52 216q0 119 55.5 218.5
t156 158.5t233.5 59q127 0 215 -47.5t137 -115.5t58 -130l-27 4zM584 279q118 0 201 47t126.5 129.5t43.5 188.5q0 101 -44 183.5t-126.5 131t-198.5 48.5q-111 0 -194.5 -50t-130.5 -133t-47 -184q0 -103 44 -184.5t126.5 -129t199.5 -47.5zM351 1475h73l173 -205h-30
l170 205h75l-194 -224h-75z" />
    <glyph glyph-name="uni01E8" unicode="&#x1e8;" horiz-adv-x="1094" 
d="M410 768v61l590 -829h-89l-550 766l41 -5l-173 -220l12 54v-595h-77v1475h77v-841l-16 13l643 828h87zM306 1704h81l173 -144h-29l170 144h83l-196 -160h-87z" />
    <glyph glyph-name="uni01E9" unicode="&#x1e9;" horiz-adv-x="1037" 
d="M188 0v1563h74v-1000l-23 9l596 490h102l-525 -437l16 44l522 -669h-88l-490 629l29 -15l-156 -128l17 43v-529h-74zM-11 1792h81l173 -144h-29l170 144h83l-196 -160h-87z" />
    <glyph glyph-name="uni01EA" unicode="&#x1ea;" horiz-adv-x="1346" 
d="M890 -311v-50q-18 -4 -43.5 -6.5t-48.5 -2.5q-44 0 -79.5 14.5t-56.5 45t-21 78.5t30 97t76 94t92 79h51q-40 -35 -84.5 -81t-75.5 -93t-31 -87q0 -48 28 -72t77 -24q21 0 45 2.5t41 5.5zM673 -18q-123 0 -226 51.5t-178.5 150t-117 238.5t-41.5 317t42 316.5t118 236
t178.5 147.5t224.5 51t225 -51t179 -147.5t117.5 -236t41.5 -316.5t-41.5 -317t-117 -238.5t-178.5 -150t-226 -51.5zM673 52q142 0 251.5 82.5t171 237t61.5 367.5q0 214 -62.5 366.5t-171.5 233t-250 80.5q-140 0 -249.5 -80.5t-172 -233t-62.5 -366.5t62.5 -368
t172 -236.5t249.5 -82.5z" />
    <glyph glyph-name="uni01EB" unicode="&#x1eb;" horiz-adv-x="1304" 
d="M849 -327v-51q-18 -4 -43.5 -6t-48.5 -2q-44 0 -79.5 14t-56.5 44.5t-21 78.5q0 49 30 97.5t76 93.5t92 80h51q-40 -36 -84.5 -81.5t-75.5 -92.5t-31 -88q0 -48 28 -72t77 -24q21 0 45 2.5t41 6.5zM652 -18q-152 0 -269 72.5t-183.5 197t-66.5 281.5t66.5 279.5
t183.5 193t269 70.5t269 -70.5t183.5 -193t66.5 -279.5t-66.5 -281.5t-183.5 -197t-269 -72.5zM652 53q129 0 228.5 63t156.5 171.5t57 245.5q0 136 -57 243t-156.5 168t-228.5 61t-228.5 -61t-156.5 -168t-57 -243q0 -137 57 -245.5t156.5 -171.5t228.5 -63z" />
    <glyph glyph-name="uni01EE" unicode="&#x1ee;" horiz-adv-x="1092" 
d="M545 -18q-98 0 -170 28t-119.5 84t-70.5 140t-23 198v3v2h79v-2v-3q0 -208 79.5 -294.5t225.5 -86.5q135 0 210.5 96.5t75.5 278.5q0 107 -33 174t-104.5 99t-185.5 32h-64l394 675h-668v69h756v-62l-364 -614q130 0 206 -47t109 -130.5t33 -193.5q0 -136 -40.5 -236
t-121.5 -155t-204 -55zM307 1704h81l173 -144h-29l170 144h83l-196 -160h-87z" />
    <glyph glyph-name="uni01EF" unicode="&#x1ef;" horiz-adv-x="1072" 
d="M546 -431q-98 0 -170 28t-119.5 84t-70.5 140t-23 198v3v2h79v-2v-3q0 -208 79.5 -294.5t225.5 -86.5q135 0 210.5 96.5t75.5 278.5q0 107 -33 174t-104.5 99t-185.5 32h-64l394 675h-668v69h756v-62l-364 -614q130 0 206 -47t109 -130.5t33 -193.5q0 -136 -40.5 -236
t-121.5 -155t-204 -55zM306 1475h73l173 -205h-30l170 205h75l-194 -224h-75z" />
    <glyph glyph-name="Aringacute" unicode="&#x1fa;" horiz-adv-x="1181" 
d="M103 0l431 1481h116l428 -1481h-81l-406 1422h2l-409 -1422h-81zM277 431v69h630v-69h-630zM591 1569q52 0 88 35.5t36 87.5t-36 87.5t-88 35.5q-51 0 -87 -35.5t-36 -87.5t36 -87.5t87 -35.5zM591 1523q-46 0 -84.5 23t-61.5 61.5t-23 84.5q0 47 23 85.5t61.5 61
t84.5 22.5q48 0 86 -22.5t60.5 -61t22.5 -85.5q0 -46 -22.5 -84.5t-60.5 -61.5t-86 -23zM511 1903l267 164h113l-287 -164h-93z" />
    <glyph glyph-name="aringacute" unicode="&#x1fb;" horiz-adv-x="1201" 
d="M547 -18q-125 0 -215.5 36t-139.5 105.5t-49 169.5q0 99 50 164t145 102t229 50q210 21 304 45t94 75v13.5v12.5q0 114 -93 182t-262 68q-175 0 -274 -75.5t-99 -214.5h-77q0 113 55.5 193.5t157 124t237.5 43.5q124 0 221.5 -38t154 -110.5t56.5 -175.5v-41v-41v-494
q0 -32 3 -61.5t10 -51.5q8 -26 16.5 -41.5t13.5 -21.5h-77q-5 4 -13 19.5t-15 39.5q-9 29 -12 61.5t-3 86.5l12 -11q-31 -64 -94 -112.5t-149 -75t-187 -26.5zM558 52q113 0 205 39t147 110.5t55 167.5v287l15 -29q-51 -33 -156.5 -52t-235.5 -32q-179 -17 -273.5 -72.5
t-94.5 -175.5q0 -116 87 -179.5t251 -63.5zM613 1204q52 0 88 36t36 88q0 51 -36 87t-88 36q-51 0 -87 -36t-36 -87q0 -52 36 -88t87 -36zM613 1159q-46 0 -84.5 22.5t-61.5 61t-23 85.5t23 85t61.5 61t84.5 23q48 0 86 -23t60.5 -61t22.5 -85t-22.5 -85.5t-60.5 -61
t-86 -22.5zM519 1586l219 224h104l-249 -224h-74z" />
    <glyph glyph-name="AEacute" unicode="&#x1fc;" horiz-adv-x="1810" 
d="M10 0l868 1475h769v-69h-700l29 29v-687l-26 26h586v-68h-585l25 25v-689l-26 27h697v-69h-746v1395l9 -5l-814 -1390h-86zM290 366l18 69h630v-69h-648zM915 1544l267 164h113l-287 -164h-93z" />
    <glyph glyph-name="aeacute" unicode="&#x1fd;" horiz-adv-x="2165" 
d="M569 -17q-190 0 -308 87t-118 239q0 79 32 134.5t93 90t146 50.5t190 16q169 0 259 3t124 18.5t34 49.5v16v16q0 149 -97 227t-266 78q-116 0 -206.5 -35t-142 -100t-51.5 -158h-78q0 85 36 152t100.5 113.5t151.5 71t190 24.5q167 0 283.5 -75.5t138.5 -234.5
q1 -4 2.5 -8.5t2.5 -8.5l-18 2q57 148 182.5 236.5t291.5 88.5q150 0 260 -73t170.5 -195t60.5 -269v-22.5t-1 -20.5h-966l34 26v-9.5v-8.5q5 -132 63.5 -235t156.5 -161.5t223 -58.5q99 0 172 29t121.5 74.5t74 93.5t29.5 87h77q-4 -52 -36 -112.5t-91 -115t-146.5 -89
t-202.5 -34.5q-117 0 -215.5 44.5t-168.5 126.5t-103 192l19 4q-29 -138 -105 -218t-180.5 -114t-217.5 -34zM575 51q83 0 162.5 21t143.5 74.5t102.5 149t38.5 244.5v30.5v30.5l14 -33q-50 -23 -153 -28t-260 -5q-187 0 -294 -46.5t-107 -178.5q0 -120 98 -189.5t255 -69.5
zM1101 565h853q0 4 -0.5 9t-0.5 11q-4 110 -55 207t-141.5 157t-214.5 60q-123 0 -220 -58.5t-155.5 -159t-65.5 -226.5zM1025 1251l219 224h104l-249 -224h-74z" />
    <glyph glyph-name="Oslashacute" unicode="&#x1fe;" horiz-adv-x="1346" 
d="M1161 1510l-927 -1571l-49 27l925 1570zM673 -18q-123 0 -226 51.5t-178.5 150t-117 238.5t-41.5 317t42 316.5t118 236t178.5 147.5t224.5 51t225 -51t179 -147.5t117.5 -236t41.5 -316.5t-41.5 -317t-117 -238.5t-178.5 -150t-226 -51.5zM673 52q142 0 251.5 82.5
t171 237t61.5 367.5q0 214 -62.5 366.5t-171.5 233t-250 80.5q-140 0 -249.5 -80.5t-172 -233t-62.5 -366.5t62.5 -368t172 -236.5t249.5 -82.5zM592 1546l267 164h113l-287 -164h-93z" />
    <glyph glyph-name="oslashacute" unicode="&#x1ff;" horiz-adv-x="1304" 
d="M989 1062l-631 -1093l-48 30l631 1093zM652 -18q-152 0 -269 72.5t-183.5 197t-66.5 281.5t66.5 279.5t183.5 193t269 70.5t269 -70.5t183.5 -193t66.5 -279.5t-66.5 -281.5t-183.5 -197t-269 -72.5zM652 53q129 0 228.5 63t156.5 171.5t57 245.5q0 136 -57 243
t-156.5 168t-228.5 61t-228.5 -61t-156.5 -168t-57 -243q0 -137 57 -245.5t156.5 -171.5t228.5 -63zM582 1251l219 224h104l-249 -224h-74z" />
    <glyph glyph-name="uni0200" unicode="&#x200;" horiz-adv-x="1181" 
d="M103 0l431 1481h116l428 -1481h-81l-406 1422h2l-409 -1422h-81zM277 431v69h630v-69h-630zM786 1544h-72l-197 167h92zM497 1544h-73l-200 167h92z" />
    <glyph glyph-name="uni0201" unicode="&#x201;" horiz-adv-x="1201" 
d="M547 -18q-125 0 -215.5 36t-139.5 105.5t-49 169.5q0 99 50 164t145 102t229 50q210 21 304 45t94 75v13.5v12.5q0 114 -93 182t-262 68q-175 0 -274 -75.5t-99 -214.5h-77q0 113 55.5 193.5t157 124t237.5 43.5q124 0 221.5 -38t154 -110.5t56.5 -175.5v-41v-41v-494
q0 -32 3 -61.5t10 -51.5q8 -26 16.5 -41.5t13.5 -21.5h-77q-5 4 -13 19.5t-15 39.5q-9 29 -12 61.5t-3 86.5l12 -11q-31 -64 -94 -112.5t-149 -75t-187 -26.5zM558 52q113 0 205 39t147 110.5t55 167.5v287l15 -29q-51 -33 -156.5 -52t-235.5 -32q-179 -17 -273.5 -72.5
t-94.5 -175.5q0 -116 87 -179.5t251 -63.5zM817 1251h-63l-192 224h92zM528 1251h-64l-196 224h92z" />
    <glyph glyph-name="uni0202" unicode="&#x202;" horiz-adv-x="1181" 
d="M103 0l431 1481h116l428 -1481h-81l-406 1422h2l-409 -1422h-81zM277 431v69h630v-69h-630zM385 1528q0 63 60 102t147 39t147.5 -39t60.5 -102h-57q0 40 -41.5 69t-109.5 29q-67 0 -109 -29t-42 -69h-56z" />
    <glyph glyph-name="uni0203" unicode="&#x203;" horiz-adv-x="1201" 
d="M547 -18q-125 0 -215.5 36t-139.5 105.5t-49 169.5q0 99 50 164t145 102t229 50q210 21 304 45t94 75v13.5v12.5q0 114 -93 182t-262 68q-175 0 -274 -75.5t-99 -214.5h-77q0 113 55.5 193.5t157 124t237.5 43.5q124 0 221.5 -38t154 -110.5t56.5 -175.5v-41v-41v-494
q0 -32 3 -61.5t10 -51.5q8 -26 16.5 -41.5t13.5 -21.5h-77q-5 4 -13 19.5t-15 39.5q-9 29 -12 61.5t-3 86.5l12 -11q-31 -64 -94 -112.5t-149 -75t-187 -26.5zM558 52q113 0 205 39t147 110.5t55 167.5v287l15 -29q-51 -33 -156.5 -52t-235.5 -32q-179 -17 -273.5 -72.5
t-94.5 -175.5q0 -116 87 -179.5t251 -63.5zM406 1313q0 86 60 129.5t147 43.5q88 0 148 -43.5t60 -129.5h-57q0 63 -41.5 96t-108.5 33q-68 0 -109.5 -33t-41.5 -96h-57z" />
    <glyph glyph-name="uni0204" unicode="&#x204;" horiz-adv-x="1073" 
d="M206 1406l35 42v-703l-24 29h621v-68h-621l24 29v-708l-35 42h703v-69h-745v1475h745v-69h-703zM741 1544h-72l-197 167h92zM452 1544h-73l-200 167h92z" />
    <glyph glyph-name="uni0205" unicode="&#x205;" horiz-adv-x="1274" 
d="M180 496v69h899l-19 -18v10v8q0 115 -49 215.5t-140.5 163t-219.5 62.5q-129 0 -229 -63t-157 -171t-57 -243q0 -139 57 -246.5t157.5 -169t228.5 -61.5q100 0 173 28.5t121 72.5t73.5 92t29.5 88h78q-5 -54 -37 -115t-91 -114.5t-146 -87.5t-202 -34q-149 0 -265.5 69.5
t-184 192.5t-67.5 283q0 161 67.5 284.5t184.5 194t266 70.5q150 0 260 -72.5t170.5 -193.5t60.5 -267q0 -10 -0.5 -25t-1.5 -22h-960zM853 1251h-63l-192 224h92zM564 1251h-64l-196 224h92z" />
    <glyph glyph-name="uni0206" unicode="&#x206;" horiz-adv-x="1073" 
d="M206 1406l35 42v-703l-24 29h621v-68h-621l24 29v-708l-35 42h703v-69h-745v1475h745v-69h-703zM340 1528q0 63 60 102t147 39t147.5 -39t60.5 -102h-57q0 40 -41.5 69t-109.5 29q-67 0 -109 -29t-42 -69h-56z" />
    <glyph glyph-name="uni0207" unicode="&#x207;" horiz-adv-x="1274" 
d="M180 496v69h899l-19 -18v10v8q0 115 -49 215.5t-140.5 163t-219.5 62.5q-129 0 -229 -63t-157 -171t-57 -243q0 -139 57 -246.5t157.5 -169t228.5 -61.5q100 0 173 28.5t121 72.5t73.5 92t29.5 88h78q-5 -54 -37 -115t-91 -114.5t-146 -87.5t-202 -34q-149 0 -265.5 69.5
t-184 192.5t-67.5 283q0 161 67.5 284.5t184.5 194t266 70.5q150 0 260 -72.5t170.5 -193.5t60.5 -267q0 -10 -0.5 -25t-1.5 -22h-960zM443 1313q0 86 60 129.5t147 43.5q88 0 148 -43.5t60 -129.5h-57q0 63 -41.5 96t-108.5 33q-68 0 -109.5 -33t-41.5 -96h-57z" />
    <glyph glyph-name="uni0208" unicode="&#x208;" horiz-adv-x="448" 
d="M186 0v1475h76v-1475h-76zM418 1544h-72l-197 167h92zM129 1544h-73l-200 167h92z" />
    <glyph glyph-name="uni0209" unicode="&#x209;" horiz-adv-x="466" 
d="M195 0v1062h76v-1062h-76zM436 1251h-63l-192 224h92zM147 1251h-64l-196 224h92z" />
    <glyph glyph-name="uni020A" unicode="&#x20a;" horiz-adv-x="448" 
d="M186 0v1475h76v-1475h-76zM17 1528q0 63 60 102t147 39t147.5 -39t60.5 -102h-57q0 40 -41.5 69t-109.5 29q-67 0 -109 -29t-42 -69h-56z" />
    <glyph glyph-name="uni020B" unicode="&#x20b;" horiz-adv-x="466" 
d="M195 0v1062h76v-1062h-76zM26 1313q0 86 60 129.5t147 43.5q88 0 148 -43.5t60 -129.5h-57q0 63 -41.5 96t-108.5 33q-68 0 -109.5 -33t-41.5 -96h-57z" />
    <glyph glyph-name="uni020C" unicode="&#x20c;" horiz-adv-x="1346" 
d="M673 -18q-123 0 -226 51.5t-178.5 150t-117 238.5t-41.5 317t42 316.5t118 236t178.5 147.5t224.5 51t225 -51t179 -147.5t117.5 -236t41.5 -316.5t-41.5 -317t-117 -238.5t-178.5 -150t-226 -51.5zM673 52q142 0 251.5 82.5t171 237t61.5 367.5q0 214 -62.5 366.5
t-171.5 233t-250 80.5q-140 0 -249.5 -80.5t-172 -233t-62.5 -366.5t62.5 -368t172 -236.5t249.5 -82.5zM867 1544h-72l-197 167h92zM578 1544h-73l-200 167h92z" />
    <glyph glyph-name="uni020D" unicode="&#x20d;" horiz-adv-x="1304" 
d="M652 -18q-152 0 -269 72.5t-183.5 197t-66.5 281.5t66.5 279.5t183.5 193t269 70.5t269 -70.5t183.5 -193t66.5 -279.5t-66.5 -281.5t-183.5 -197t-269 -72.5zM652 53q129 0 228.5 63t156.5 171.5t57 245.5q0 136 -57 243t-156.5 168t-228.5 61t-228.5 -61t-156.5 -168
t-57 -243q0 -137 57 -245.5t156.5 -171.5t228.5 -63zM855 1251h-63l-192 224h92zM566 1251h-64l-196 224h92z" />
    <glyph glyph-name="uni020E" unicode="&#x20e;" horiz-adv-x="1346" 
d="M673 -18q-123 0 -226 51.5t-178.5 150t-117 238.5t-41.5 317t42 316.5t118 236t178.5 147.5t224.5 51t225 -51t179 -147.5t117.5 -236t41.5 -316.5t-41.5 -317t-117 -238.5t-178.5 -150t-226 -51.5zM673 52q142 0 251.5 82.5t171 237t61.5 367.5q0 214 -62.5 366.5
t-171.5 233t-250 80.5q-140 0 -249.5 -80.5t-172 -233t-62.5 -366.5t62.5 -368t172 -236.5t249.5 -82.5zM466 1528q0 63 60 102t147 39t147.5 -39t60.5 -102h-57q0 40 -41.5 69t-109.5 29q-67 0 -109 -29t-42 -69h-56z" />
    <glyph glyph-name="uni020F" unicode="&#x20f;" horiz-adv-x="1304" 
d="M652 -18q-152 0 -269 72.5t-183.5 197t-66.5 281.5t66.5 279.5t183.5 193t269 70.5t269 -70.5t183.5 -193t66.5 -279.5t-66.5 -281.5t-183.5 -197t-269 -72.5zM652 53q129 0 228.5 63t156.5 171.5t57 245.5q0 136 -57 243t-156.5 168t-228.5 61t-228.5 -61t-156.5 -168
t-57 -243q0 -137 57 -245.5t156.5 -171.5t228.5 -63zM445 1313q0 86 60 129.5t147 43.5q88 0 148 -43.5t60 -129.5h-57q0 63 -41.5 96t-108.5 33q-68 0 -109.5 -33t-41.5 -96h-57z" />
    <glyph glyph-name="uni0210" unicode="&#x210;" horiz-adv-x="1153" 
d="M164 0v1475h455q184 0 284 -89.5t100 -286.5q0 -120 -45.5 -204t-107.5 -129.5t-111 -52.5q49 -4 100.5 -28.5t86.5 -75t35 -135.5v-186.5v-186.5q0 -39 7 -66.5t12 -34.5h-79q-4 8 -10.5 34.5t-6.5 66.5v181v181q0 112 -73 163t-195 51h-402l25 31v-708h-75zM239 712
l-25 33h402q83 0 153 43t112.5 121t42.5 186q0 166 -82.5 238.5t-240.5 72.5h-388l26 34v-728zM751 1544h-72l-197 167h92zM462 1544h-73l-200 167h92z" />
    <glyph glyph-name="uni0211" unicode="&#x211;" horiz-adv-x="773" 
d="M188 0v1062h76v-299l-31 6q7 41 29 93.5t63.5 101t105.5 80.5t153 32q63 0 101 -11.5t48 -18.5l-24 -73q-10 7 -41 18t-92 11q-85 0 -144.5 -34.5t-96.5 -88.5t-54 -114t-17 -110v-655h-76zM676 1251h-63l-192 224h92zM387 1251h-64l-196 224h92z" />
    <glyph glyph-name="uni0212" unicode="&#x212;" horiz-adv-x="1153" 
d="M164 0v1475h455q184 0 284 -89.5t100 -286.5q0 -120 -45.5 -204t-107.5 -129.5t-111 -52.5q49 -4 100.5 -28.5t86.5 -75t35 -135.5v-186.5v-186.5q0 -39 7 -66.5t12 -34.5h-79q-4 8 -10.5 34.5t-6.5 66.5v181v181q0 112 -73 163t-195 51h-402l25 31v-708h-75zM239 712
l-25 33h402q83 0 153 43t112.5 121t42.5 186q0 166 -82.5 238.5t-240.5 72.5h-388l26 34v-728zM350 1528q0 63 60 102t147 39t147.5 -39t60.5 -102h-57q0 40 -41.5 69t-109.5 29q-67 0 -109 -29t-42 -69h-56z" />
    <glyph glyph-name="uni0213" unicode="&#x213;" horiz-adv-x="773" 
d="M188 0v1062h76v-299l-31 6q7 41 29 93.5t63.5 101t105.5 80.5t153 32q63 0 101 -11.5t48 -18.5l-24 -73q-10 7 -41 18t-92 11q-85 0 -144.5 -34.5t-96.5 -88.5t-54 -114t-17 -110v-655h-76zM266 1313q0 86 60 129.5t147 43.5q88 0 148 -43.5t60 -129.5h-57q0 63 -41.5 96
t-108.5 33q-68 0 -109.5 -33t-41.5 -96h-57z" />
    <glyph glyph-name="uni0214" unicode="&#x214;" horiz-adv-x="1278" 
d="M1115 551q0 -292 -125 -430.5t-351 -138.5q-225 0 -350 138.5t-125 430.5v102v115v707h77v-703v-114v-98q0 -266 104 -387t294 -121q191 0 295 121t104 387v915h77v-924zM832 1544h-72l-197 167h92zM543 1544h-73l-200 167h92z" />
    <glyph glyph-name="uni0215" unicode="&#x215;" horiz-adv-x="1181" 
d="M556 -18q-116 0 -188 41.5t-111.5 105.5t-54 135.5t-14.5 132.5v79.5v81.5v504h77v-500v-77.5v-73.5q0 -91 27.5 -173t93.5 -133.5t180 -51.5q104 0 185.5 53t128 136.5t46.5 175.5l52 -21q0 -71 -28 -144t-82 -134.5t-132.5 -99t-179.5 -37.5zM926 0v1062h77v-1062h-77z
M793 1251h-63l-192 224h92zM504 1251h-64l-196 224h92z" />
    <glyph glyph-name="uni0216" unicode="&#x216;" horiz-adv-x="1278" 
d="M1115 551q0 -292 -125 -430.5t-351 -138.5q-225 0 -350 138.5t-125 430.5v102v115v707h77v-703v-114v-98q0 -266 104 -387t294 -121q191 0 295 121t104 387v915h77v-924zM431 1528q0 63 60 102t147 39t147.5 -39t60.5 -102h-57q0 40 -41.5 69t-109.5 29q-67 0 -109 -29
t-42 -69h-56z" />
    <glyph glyph-name="uni0217" unicode="&#x217;" horiz-adv-x="1181" 
d="M556 -18q-116 0 -188 41.5t-111.5 105.5t-54 135.5t-14.5 132.5v79.5v81.5v504h77v-500v-77.5v-73.5q0 -91 27.5 -173t93.5 -133.5t180 -51.5q104 0 185.5 53t128 136.5t46.5 175.5l52 -21q0 -71 -28 -144t-82 -134.5t-132.5 -99t-179.5 -37.5zM926 0v1062h77v-1062h-77z
M383 1313q0 86 60 129.5t147 43.5q88 0 148 -43.5t60 -129.5h-57q0 63 -41.5 96t-108.5 33q-68 0 -109.5 -33t-41.5 -96h-57z" />
    <glyph glyph-name="uni0218" unicode="&#x218;" horiz-adv-x="1117" 
d="M560 -18q-148 0 -248 47t-151 142.5t-51 238.5v37.5v37.5h78v-37v-37q0 -186 95 -272.5t273 -86.5q187 0 280.5 76.5t93.5 222.5q0 102 -46.5 167.5t-130 110.5t-197.5 83q-130 43 -228 98.5t-152 135t-54 198.5q0 113 51.5 190t147 116.5t227.5 39.5q141 0 241 -43.5
t153.5 -133t53.5 -227.5v-42.5v-42.5h-78v41.5v41.5q0 178 -96.5 257t-271.5 79q-167 0 -259 -69t-92 -207q0 -103 51.5 -170.5t141.5 -113t205 -84.5q130 -43 221.5 -96t140 -130t48.5 -196q0 -117 -51.5 -200t-151 -127.5t-244.5 -44.5zM549 -225q-28 0 -47.5 17.5
t-19.5 45.5t21.5 46t54.5 18q21 0 39.5 -8t30 -25t11.5 -47q0 -61 -18.5 -109.5t-48.5 -83t-66 -56.5l-14 27q27 14 52.5 42.5t42 69t16.5 86.5q-4 -8 -20 -15.5t-34 -7.5z" />
    <glyph glyph-name="uni0219" unicode="&#x219;" horiz-adv-x="1103" 
d="M551 -18q-97 0 -173 19.5t-129.5 56.5t-82.5 91t-33 122v21v19h77v-18t1 -20q5 -105 93.5 -163t246.5 -58q103 0 180 25.5t119.5 73t42.5 114.5q0 110 -89.5 157.5t-259.5 76.5q-85 16 -157.5 37.5t-125 55.5t-81.5 84t-29 121q0 90 54.5 152t145 94.5t198.5 32.5
q110 0 201 -31.5t145.5 -98t54.5 -170.5v-11.5v-11.5h-77v10.5v10.5q0 86 -45 137t-118 73t-158 22t-159 -22t-120 -68t-46 -117q0 -73 43 -117.5t120 -70.5t180 -45q93 -17 167 -40t126 -56.5t79.5 -82.5t27.5 -119q0 -69 -31 -122t-87 -89.5t-132.5 -55.5t-168.5 -19z
M539 -225q-28 0 -47.5 17.5t-19.5 45.5t21.5 46t54.5 18q21 0 39.5 -8t30 -25t11.5 -47q0 -61 -18.5 -109.5t-48.5 -83t-66 -56.5l-14 27q27 14 52.5 42.5t42 69t16.5 86.5q-4 -8 -20 -15.5t-34 -7.5z" />
    <glyph glyph-name="uni021A" unicode="&#x21a;" horiz-adv-x="1088" 
d="M986 1406h-426l23 42v-1448h-78v1448l26 -42h-428v69h883v-69zM534 -225q-28 0 -47.5 17.5t-19.5 45.5t21.5 46t54.5 18q21 0 39.5 -8t30 -25t11.5 -47q0 -61 -18.5 -109.5t-48.5 -83t-66 -56.5l-14 27q27 14 52.5 42.5t42 69t16.5 86.5q-4 -8 -20 -15.5t-34 -7.5z" />
    <glyph glyph-name="uni021B" unicode="&#x21b;" horiz-adv-x="793" 
d="M510 -17q-41 0 -78.5 12t-66.5 39.5t-46 75t-17 119.5v42.5v48.5v673h-251v69h200q19 0 29.5 1t15 6.5t5.5 17t1 33.5v275h78v-333h348v-69h-348v-646v-49v-42q0 -97 32 -150t108 -53q28 0 56.5 4.5t41.5 12.5v-69q-15 -8 -45 -13t-63 -5zM438 -225q-28 0 -47.5 17.5
t-19.5 45.5t21.5 46t54.5 18q21 0 39.5 -8t30 -25t11.5 -47q0 -61 -18.5 -109.5t-48.5 -83t-66 -56.5l-14 27q27 14 52.5 42.5t42 69t16.5 86.5q-4 -8 -20 -15.5t-34 -7.5z" />
    <glyph glyph-name="uni0228" unicode="&#x228;" horiz-adv-x="1073" 
d="M206 1406l35 42v-703l-24 29h621v-68h-621l24 29v-708l-35 42h703v-69h-745v1475h745v-69h-703zM636 -129q33 0 61.5 -13.5t45.5 -43.5t17 -79q0 -54 -28 -91t-74.5 -56t-100.5 -19q-52 0 -89.5 11.5t-48.5 19.5l22 42q10 -7 40.5 -18.5t80.5 -11.5q62 0 106.5 32.5
t44.5 91.5q0 51 -24.5 73.5t-65.5 22.5q-26 0 -54.5 -11.5t-44.5 -28.5l-43 16l67 192h47l-64 -184l-5 9q8 19 41 32.5t69 13.5z" />
    <glyph glyph-name="uni0229" unicode="&#x229;" horiz-adv-x="1274" 
d="M717 -129q33 0 61.5 -13.5t45.5 -43.5t17 -79q0 -54 -28 -91t-74.5 -56t-100.5 -19q-52 0 -89.5 11.5t-48.5 19.5l22 42q10 -7 40.5 -18.5t80.5 -11.5q62 0 106.5 32.5t44.5 91.5q0 51 -24.5 73.5t-65.5 22.5q-26 0 -54.5 -11.5t-44.5 -28.5l-45 16l67 192h50l-63 -184
l-10 9q8 19 42.5 32.5t70.5 13.5zM180 496v69h899l-19 -18v10v8q0 115 -49 215.5t-140.5 163t-219.5 62.5q-129 0 -229 -63t-157 -171t-57 -243q0 -139 57 -246.5t157.5 -169t228.5 -61.5q100 0 173 28.5t121 72.5t73.5 92t29.5 88h78q-5 -54 -37 -115t-91 -114.5
t-146 -87.5t-202 -34q-149 0 -265.5 69.5t-184 192.5t-67.5 283q0 161 67.5 284.5t184.5 194t266 70.5q150 0 260 -72.5t170.5 -193.5t60.5 -267q0 -10 -0.5 -25t-1.5 -22h-960z" />
    <glyph glyph-name="uni022A" unicode="&#x22a;" horiz-adv-x="1346" 
d="M673 -18q-123 0 -226 51.5t-178.5 150t-117 238.5t-41.5 317t42 316.5t118 236t178.5 147.5t224.5 51t225 -51t179 -147.5t117.5 -236t41.5 -316.5t-41.5 -317t-117 -238.5t-178.5 -150t-226 -51.5zM673 52q142 0 251.5 82.5t171 237t61.5 367.5q0 214 -62.5 366.5
t-171.5 233t-250 80.5q-140 0 -249.5 -80.5t-172 -233t-62.5 -366.5t62.5 -368t172 -236.5t249.5 -82.5zM510 1574q-29 0 -49.5 18t-20.5 47q0 28 20.5 46t49.5 18q28 0 49 -18t21 -46q0 -29 -21 -47t-49 -18zM837 1574q-29 0 -49.5 18t-20.5 47q0 28 20.5 46t49.5 18
q28 0 49 -18t21 -46q0 -29 -21 -47t-49 -18zM449 1828v43h448v-43h-448z" />
    <glyph glyph-name="uni022B" unicode="&#x22b;" horiz-adv-x="1304" 
d="M652 -18q-152 0 -269 72.5t-183.5 197t-66.5 281.5t66.5 279.5t183.5 193t269 70.5t269 -70.5t183.5 -193t66.5 -279.5t-66.5 -281.5t-183.5 -197t-269 -72.5zM652 53q129 0 228.5 63t156.5 171.5t57 245.5q0 136 -57 243t-156.5 168t-228.5 61t-228.5 -61t-156.5 -168
t-57 -243q0 -137 57 -245.5t156.5 -171.5t228.5 -63zM489 1355q-29 0 -49.5 18t-20.5 47q0 28 20.5 46t49.5 18q28 0 49 -18t21 -46q0 -29 -21 -47t-49 -18zM816 1355q-29 0 -49.5 18t-20.5 47q0 28 20.5 46t49.5 18q28 0 49 -18t21 -46q0 -29 -21 -47t-49 -18zM428 1615v43
h448v-43h-448z" />
    <glyph glyph-name="uni022C" unicode="&#x22c;" horiz-adv-x="1346" 
d="M673 -18q-123 0 -226 51.5t-178.5 150t-117 238.5t-41.5 317t42 316.5t118 236t178.5 147.5t224.5 51t225 -51t179 -147.5t117.5 -236t41.5 -316.5t-41.5 -317t-117 -238.5t-178.5 -150t-226 -51.5zM673 52q142 0 251.5 82.5t171 237t61.5 367.5q0 214 -62.5 366.5
t-171.5 233t-250 80.5q-140 0 -249.5 -80.5t-172 -233t-62.5 -366.5t62.5 -368t172 -236.5t249.5 -82.5zM923 1659q-2 -18 -13.5 -45.5t-39.5 -48.5t-78 -21q-41 0 -72 16.5t-56 37.5q-20 16 -42.5 29.5t-54.5 13.5q-46 0 -63 -23.5t-19 -44.5h-56q2 22 16.5 49.5t45 48
t77.5 20.5q42 0 69.5 -16t51.5 -35q24 -20 48 -33t54 -13q48 0 61 23t15 42h56zM449 1818v43h448v-43h-448z" />
    <glyph glyph-name="uni022D" unicode="&#x22d;" horiz-adv-x="1304" 
d="M652 -18q-152 0 -269 72.5t-183.5 197t-66.5 281.5t66.5 279.5t183.5 193t269 70.5t269 -70.5t183.5 -193t66.5 -279.5t-66.5 -281.5t-183.5 -197t-269 -72.5zM652 53q129 0 228.5 63t156.5 171.5t57 245.5q0 136 -57 243t-156.5 168t-228.5 61t-228.5 -61t-156.5 -168
t-57 -243q0 -137 57 -245.5t156.5 -171.5t228.5 -63zM899 1448q-2 -19 -13.5 -46t-39.5 -48.5t-78 -21.5q-41 0 -72 17t-56 37q-20 17 -42.5 30t-54.5 13q-46 0 -63 -23t-19 -45h-56q2 22 16.5 50t45 48.5t77.5 20.5q42 0 69.5 -16.5t51.5 -35.5t48 -32.5t54 -13.5
q48 0 61 23.5t15 42.5h56zM428 1607v43h448v-43h-448z" />
    <glyph glyph-name="uni0230" unicode="&#x230;" horiz-adv-x="1346" 
d="M673 -18q-123 0 -226 51.5t-178.5 150t-117 238.5t-41.5 317t42 316.5t118 236t178.5 147.5t224.5 51t225 -51t179 -147.5t117.5 -236t41.5 -316.5t-41.5 -317t-117 -238.5t-178.5 -150t-226 -51.5zM673 52q142 0 251.5 82.5t171 237t61.5 367.5q0 214 -62.5 366.5
t-171.5 233t-250 80.5q-140 0 -249.5 -80.5t-172 -233t-62.5 -366.5t62.5 -368t172 -236.5t249.5 -82.5zM673 1577q-29 0 -50.5 19t-21.5 48t21.5 47.5t50.5 18.5q30 0 51.5 -18.5t21.5 -47.5q0 -30 -21.5 -48.5t-51.5 -18.5zM449 1841v43h448v-43h-448z" />
    <glyph glyph-name="uni0231" unicode="&#x231;" horiz-adv-x="1304" 
d="M652 -18q-152 0 -269 72.5t-183.5 197t-66.5 281.5t66.5 279.5t183.5 193t269 70.5t269 -70.5t183.5 -193t66.5 -279.5t-66.5 -281.5t-183.5 -197t-269 -72.5zM652 53q129 0 228.5 63t156.5 171.5t57 245.5q0 136 -57 243t-156.5 168t-228.5 61t-228.5 -61t-156.5 -168
t-57 -243q0 -137 57 -245.5t156.5 -171.5t228.5 -63zM652 1355q-29 0 -50.5 19t-21.5 48t21.5 47.5t50.5 18.5q30 0 51.5 -18.5t21.5 -47.5q0 -30 -21.5 -48.5t-51.5 -18.5zM428 1619v43h448v-43h-448z" />
    <glyph glyph-name="uni0232" unicode="&#x232;" horiz-adv-x="1072" 
d="M970 1475l-395 -959v-516h-78v516l-394 959h82l367 -906h-32l367 906h83zM311 1606v43h448v-43h-448z" />
    <glyph glyph-name="uni0233" unicode="&#x233;" horiz-adv-x="1011" 
d="M171 -441q-33 0 -62 5.5t-35 8.5v70q12 -7 40.5 -11t54.5 -4q73 0 120 36.5t77 94t52 120.5l43 120l-379 1063h80l346 -987h-11l344 987h80l-420 -1179q-27 -77 -65 -151.5t-100.5 -123.5t-164.5 -49zM269 1339v43h448v-43h-448z" />
    <glyph glyph-name="uni0237" unicode="&#x237;" horiz-adv-x="511" 
d="M9 -442q-27 0 -49 2.5t-33 5.5v64q12 -4 34.5 -7.5t47.5 -3.5q79 0 124 25.5t65 68t25 92t5 98.5v1159h77v-1166q0 -66 -9.5 -126t-39 -108t-88.5 -76t-159 -28z" />
    <glyph glyph-name="uni0259" unicode="&#x259;" horiz-adv-x="1274" 
d="M624 -18q-151 0 -261 72t-170 193.5t-60 267.5v24.5v22.5h961v-71h-899l19 20v-9.5v-8.5q0 -115 48.5 -215.5t139.5 -163t221 -62.5q131 0 231 62t156 170t56 245q0 141 -56 248t-156 167.5t-231 60.5q-100 0 -173.5 -28t-121 -72t-72.5 -92t-30 -88h-77q4 54 36 114.5
t91 114.5t146.5 88t202.5 34q148 0 265 -69.5t184.5 -192.5t67.5 -284q0 -160 -68 -284t-184.5 -194t-265.5 -70z" />
    <glyph glyph-name="uni0272" unicode="&#x272;" horiz-adv-x="1166" 
d="M912 0v547v81v57q0 94 -28.5 166t-92 112t-170.5 40q-93 0 -179 -45t-140 -123t-54 -178l-51 20q0 117 63.5 207t163 141t207.5 51q118 0 197.5 -43.5t119.5 -127.5t40 -205v-84v-76v-540h-76zM-73 -458v60q80 0 128.5 30.5t74 78t34 102t8.5 101.5v1148h77v-1148
q0 -63 -11 -128t-43.5 -120.5t-96.5 -89.5t-171 -34z" />
    <glyph glyph-name="uni0292" unicode="&#x292;" horiz-adv-x="1072" 
d="M546 -431q-98 0 -170 28t-119.5 84t-70.5 140t-23 198v3v2h79v-2v-3q0 -208 79.5 -294.5t225.5 -86.5q135 0 210.5 96.5t75.5 278.5q0 107 -33 174t-104.5 99t-185.5 32h-64l394 675h-668v69h756v-62l-364 -614q130 0 206 -47t109 -130.5t33 -193.5q0 -136 -40.5 -236
t-121.5 -155t-204 -55z" />
    <glyph glyph-name="uni02BC" unicode="&#x2bc;" horiz-adv-x="277" 
d="M184 1475l-18 -359h-57l-16 359h91z" />
    <glyph glyph-name="circumflex" unicode="&#x2c6;" horiz-adv-x="789" 
d="M172 1251l192 224h75l194 -224h-75l-170 205h30l-173 -205h-73z" />
    <glyph glyph-name="caron" unicode="&#x2c7;" horiz-adv-x="789" 
d="M172 1475h73l173 -205h-30l170 205h75l-194 -224h-75z" />
    <glyph glyph-name="uni02C9" unicode="&#x2c9;" horiz-adv-x="725" 
d="M138 1339v43h448v-43h-448z" />
    <glyph glyph-name="breve" unicode="&#x2d8;" horiz-adv-x="618" 
d="M94 1495h56q0 -63 42 -105.5t109 -42.5q68 0 109.5 42.5t41.5 105.5h57q0 -86 -60.5 -138.5t-147.5 -52.5t-147 52.5t-60 138.5z" />
    <glyph glyph-name="dotaccent" unicode="&#x2d9;" horiz-adv-x="451" 
d="M224 1355q-29 0 -50.5 19t-21.5 48t21.5 47.5t50.5 18.5q30 0 51.5 -18.5t21.5 -47.5q0 -30 -21.5 -48.5t-51.5 -18.5z" />
    <glyph glyph-name="ring" unicode="&#x2da;" horiz-adv-x="688" 
d="M328 1204q52 0 88 36t36 88q0 51 -36 87t-88 36q-51 0 -87 -36t-36 -87q0 -52 36 -88t87 -36zM328 1159q-46 0 -84.5 22.5t-61.5 61t-23 85.5t23 85t61.5 61t84.5 23q48 0 86 -23t60.5 -61t22.5 -85t-22.5 -85.5t-60.5 -61t-86 -22.5z" />
    <glyph glyph-name="ogonek" unicode="&#x2db;" horiz-adv-x="761" 
d="M448 -349v-51q-18 -3 -43.5 -5.5t-48.5 -2.5q-44 0 -79.5 14t-56.5 44.5t-21 79.5q0 48 30 97t76 94t92 79h51q-40 -35 -84.5 -81t-75.5 -93t-31 -88q0 -48 28 -72t77 -24q21 0 45 2.5t41 6.5z" />
    <glyph glyph-name="tilde" unicode="&#x2dc;" horiz-adv-x="859" 
d="M677 1448q-2 -19 -13.5 -46t-39.5 -48.5t-78 -21.5q-41 0 -72 17t-56 37q-20 17 -42.5 30t-54.5 13q-46 0 -63 -23t-19 -45h-56q2 22 16.5 50t45 48.5t77.5 20.5q42 0 69.5 -16.5t51.5 -35.5t48 -32.5t54 -13.5q48 0 61 23.5t15 42.5h56z" />
    <glyph glyph-name="hungarumlaut" unicode="&#x2dd;" horiz-adv-x="912" 
d="M160 1251l164 224h92l-193 -224h-63zM451 1251l166 224h92l-196 -224h-62z" />
    <glyph glyph-name="gravecomb" unicode="&#x300;" 
d="M463 1251h-74l-249 224h104z" />
    <glyph glyph-name="acutecomb" unicode="&#x301;" 
d="M120 1251l219 224h104l-249 -224h-74z" />
    <glyph glyph-name="uni0302" unicode="&#x302;" 
d="M172 1251l192 224h75l194 -224h-75l-170 205h30l-173 -205h-73z" />
    <glyph glyph-name="tildecomb" unicode="&#x303;" 
d="M677 1448q-2 -19 -13.5 -46t-39.5 -48.5t-78 -21.5q-41 0 -72 17t-56 37q-20 17 -42.5 30t-54.5 13q-46 0 -63 -23t-19 -45h-56q2 22 16.5 50t45 48.5t77.5 20.5q42 0 69.5 -16.5t51.5 -35.5t48 -32.5t54 -13.5q48 0 61 23.5t15 42.5h56z" />
    <glyph glyph-name="uni0304" unicode="&#x304;" 
d="M138 1339v43h448v-43h-448z" />
    <glyph glyph-name="uni0306" unicode="&#x306;" 
d="M94 1495h56q0 -63 42 -105.5t109 -42.5q68 0 109.5 42.5t41.5 105.5h57q0 -86 -60.5 -138.5t-147.5 -52.5t-147 52.5t-60 138.5z" />
    <glyph glyph-name="uni0307" unicode="&#x307;" 
d="M224 1355q-29 0 -50.5 19t-21.5 48t21.5 47.5t50.5 18.5q30 0 51.5 -18.5t21.5 -47.5q0 -30 -21.5 -48.5t-51.5 -18.5z" />
    <glyph glyph-name="uni0308" unicode="&#x308;" 
d="M170 1355q-29 0 -49.5 18t-20.5 47q0 28 20.5 46t49.5 18q28 0 49 -18t21 -46q0 -29 -21 -47t-49 -18zM497 1355q-29 0 -49.5 18t-20.5 47q0 28 20.5 46t49.5 18q28 0 49 -18t21 -46q0 -29 -21 -47t-49 -18z" />
    <glyph glyph-name="hookabovecomb" unicode="&#x309;" 
d="M209 1477q106 0 179 -7.5t112 -30t39 -66.5q0 -40 -31 -63.5t-77.5 -33.5t-94.5 -10l-16 35q39 2 76.5 8t63 21t25.5 41q0 45 -76.5 56t-199.5 11v39z" />
    <glyph glyph-name="uni030A" unicode="&#x30a;" 
d="M328 1204q52 0 88 36t36 88q0 51 -36 87t-88 36q-51 0 -87 -36t-36 -87q0 -52 36 -88t87 -36zM328 1159q-46 0 -84.5 22.5t-61.5 61t-23 85.5t23 85t61.5 61t84.5 23q48 0 86 -23t60.5 -61t22.5 -85t-22.5 -85.5t-60.5 -61t-86 -22.5z" />
    <glyph glyph-name="uni030B" unicode="&#x30b;" 
d="M160 1251l164 224h92l-193 -224h-63zM451 1251l166 224h92l-196 -224h-62z" />
    <glyph glyph-name="uni030C" unicode="&#x30c;" 
d="M172 1475h73l173 -205h-30l170 205h75l-194 -224h-75z" />
    <glyph glyph-name="uni030F" unicode="&#x30f;" 
d="M604 1251h-63l-192 224h92zM315 1251h-64l-196 224h92z" />
    <glyph glyph-name="uni0311" unicode="&#x311;" 
d="M90 1313q0 86 60 129.5t147 43.5q88 0 148 -43.5t60 -129.5h-57q0 63 -41.5 96t-108.5 33q-68 0 -109.5 -33t-41.5 -96h-57z" />
    <glyph glyph-name="uni0312" unicode="&#x312;" 
d="M213 1361q33 0 51.5 -19t18.5 -49q0 -29 -19 -49.5t-58 -20.5q-42 0 -62.5 29.5t-20.5 71.5t17.5 76t47.5 59t65 37l11 -27q-28 -9 -50 -28.5t-34.5 -45.5t-12.5 -55q4 8 17 14.5t29 6.5z" />
    <glyph glyph-name="uni031B" unicode="&#x31b;" 
d="M234 1062q67 0 105.5 30t55 90.5t16.5 151.5h55q0 -106 -24 -177t-75 -106.5t-133 -35.5v47z" />
    <glyph glyph-name="dotbelowcomb" unicode="&#x323;" 
d="M224 -295q-29 0 -50.5 19t-21.5 48t21.5 47.5t50.5 18.5t50.5 -18.5t21.5 -47.5q0 -30 -21.5 -48.5t-50.5 -18.5z" />
    <glyph glyph-name="uni0324" unicode="&#x324;" 
d="M170 -295q-29 0 -49.5 18.5t-20.5 46.5t20.5 46.5t49.5 18.5q28 0 49 -18.5t21 -46.5t-21 -46.5t-49 -18.5zM497 -295q-29 0 -49.5 18.5t-20.5 46.5t20.5 46.5t49.5 18.5q28 0 49 -18.5t21 -46.5t-21 -46.5t-49 -18.5z" />
    <glyph glyph-name="uni0326" unicode="&#x326;" 
d="M238 -225q-28 0 -47.5 17.5t-19.5 45.5t21.5 46t54.5 18q21 0 39.5 -8t30 -25t11.5 -47q0 -61 -18.5 -109.5t-48.5 -83t-66 -56.5l-14 27q27 14 52.5 42.5t42 69t16.5 86.5q-4 -8 -20 -15.5t-34 -7.5z" />
    <glyph glyph-name="uni0327" unicode="&#x327;" 
d="M437 -129q33 0 61.5 -13.5t45.5 -43.5t17 -79q0 -54 -28 -91t-74.5 -56t-100.5 -19q-52 0 -89.5 11.5t-48.5 19.5l22 42q10 -7 40.5 -18.5t80.5 -11.5q62 0 106.5 32.5t44.5 91.5q0 51 -24.5 73.5t-65.5 22.5q-26 0 -54.5 -11.5t-44.5 -28.5l-45 16l67 192h50l-63 -184
l-10 9q8 19 42.5 32.5t70.5 13.5z" />
    <glyph glyph-name="uni0328" unicode="&#x328;" 
d="M448 -349v-51q-18 -3 -43.5 -5.5t-48.5 -2.5q-44 0 -79.5 14t-56.5 44.5t-21 79.5q0 48 30 97t76 94t92 79h51q-40 -35 -84.5 -81t-75.5 -93t-31 -88q0 -48 28 -72t77 -24q21 0 45 2.5t41 6.5z" />
    <glyph glyph-name="uni032E" unicode="&#x32e;" 
d="M162 -128h57q0 -64 42 -97t109 -33q68 0 109.5 33t41.5 97h56q0 -86 -60 -129.5t-147 -43.5t-147.5 43.5t-60.5 129.5z" />
    <glyph glyph-name="uni0331" unicode="&#x331;" 
d="M108 -230v43h439v-43h-439z" />
    <glyph glyph-name="uni0335" unicode="&#x335;" 
d="M98 544v45h674v-45h-674z" />
    <glyph glyph-name="uni0336" unicode="&#x336;" 
d="M98 544v45h960v-45h-960z" />
    <glyph glyph-name="uni0337" unicode="&#x337;" 
d="M847 1062l-631 -1093l-49 30l632 1093z" />
    <glyph glyph-name="uni0338" unicode="&#x338;" 
d="M1171 1499l-927 -1571l-49 27l925 1570z" />
    <glyph glyph-name="uni1E08" unicode="&#x1e08;" horiz-adv-x="1265" 
d="M1155 487q0 -84 -31 -172.5t-93 -164t-155 -122t-218 -46.5q-129 0 -230.5 54.5t-172.5 154.5t-108 238.5t-37 307.5t37 307t108 238t172.5 154t230.5 54q146 0 249 -63t163 -160t77 -199q8 -42 8 -81h-78q0 28 -5 65q-13 91 -65 175.5t-139.5 138t-209.5 53.5
q-142 0 -247.5 -82t-163 -235t-57.5 -365t57.5 -365.5t163 -236.5t247.5 -83q103 0 181 39t131 103.5t80 141t27 151.5h78zM721 -129q33 0 61.5 -13.5t45.5 -43.5t17 -79q0 -54 -28 -91t-74.5 -56t-100.5 -19q-52 0 -89.5 11.5t-48.5 19.5l22 42q10 -7 40.5 -18.5
t80.5 -11.5q62 0 106.5 32.5t44.5 91.5q0 51 -24.5 73.5t-65.5 22.5q-26 0 -54.5 -11.5t-44.5 -28.5l-43 16l67 192h47l-64 -184l-5 9q8 19 41 32.5t69 13.5zM576 1546l267 164h113l-287 -164h-93z" />
    <glyph glyph-name="uni1E09" unicode="&#x1e09;" horiz-adv-x="1243" 
d="M713 -129q33 0 61.5 -13.5t46 -43.5t17.5 -79q0 -54 -28.5 -91t-75 -56t-100.5 -19q-51 0 -89 11.5t-49 19.5l22 42q10 -7 41 -18.5t80 -11.5q63 0 107 32.5t44 91.5q0 51 -24.5 73.5t-64.5 22.5q-27 0 -55.5 -11.5t-43.5 -28.5l-45 16l67 192h49l-63 -184l-10 9
q8 19 42.5 32.5t70.5 13.5zM652 -18q-138 0 -257 64t-190.5 187t-71.5 297q0 175 71.5 297t190.5 185.5t257 63.5q108 0 193 -33.5t144 -87.5t90.5 -117.5t31.5 -122.5v-3v-4h-77q0 5 -0.5 11.5t-1.5 12.5q-11 78 -63 139.5t-134 97.5t-183 36q-115 0 -215.5 -53.5
t-163 -159.5t-62.5 -262t62 -262t163 -160.5t216 -54.5q129 0 213 44t125.5 111t43.5 136h77q0 -63 -29 -126.5t-87 -117t-143.5 -86t-199.5 -32.5zM569 1251l219 224h104l-249 -224h-74z" />
    <glyph glyph-name="uni1E0C" unicode="&#x1e0c;" horiz-adv-x="1204" 
d="M164 0v1475h298q144 0 260.5 -49.5t199.5 -144t127.5 -231.5t44.5 -313q0 -177 -44.5 -313.5t-127.5 -231t-199.5 -143.5t-260.5 -49h-298zM243 27l-35 42h248q168 0 294 79.5t195.5 229t69.5 359.5t-69.5 360t-195.5 229.5t-294 79.5h-248l35 42v-1421zM589 -295
q-29 0 -50.5 18.5t-21.5 47.5q0 30 21.5 48.5t50.5 18.5t50.5 -18.5t21.5 -48.5q0 -29 -21.5 -47.5t-50.5 -18.5z" />
    <glyph glyph-name="uni1E0D" unicode="&#x1e0d;" horiz-adv-x="1217" 
d="M582 -18q-130 0 -231.5 64t-159.5 186.5t-58 297.5q0 174 58 296t160 186t231 64q121 0 221.5 -57t161 -152t60.5 -212v-7v-9l-61 1v7v7q0 95 -51.5 174.5t-137 128t-185.5 48.5q-168 0 -273 -122t-105 -353t105.5 -353.5t272.5 -122.5q100 0 185 48.5t137 130t52 181.5
l61 -1q0 -122 -61 -220t-161.5 -154.5t-220.5 -56.5zM964 0v1563h78v-1563h-78zM703 -297q-29 0 -50.5 19t-21.5 48t21.5 47.5t50.5 18.5t50.5 -18.5t21.5 -47.5q0 -30 -21.5 -48.5t-50.5 -18.5z" />
    <glyph glyph-name="uni1E0E" unicode="&#x1e0e;" horiz-adv-x="1204" 
d="M164 0v1475h298q144 0 260.5 -49.5t199.5 -144t127.5 -231.5t44.5 -313q0 -177 -44.5 -313.5t-127.5 -231t-199.5 -143.5t-260.5 -49h-298zM243 27l-35 42h248q168 0 294 79.5t195.5 229t69.5 359.5t-69.5 360t-195.5 229.5t-294 79.5h-248l35 42v-1421zM329 -230v43h519
v-43h-519z" />
    <glyph glyph-name="uni1E0F" unicode="&#x1e0f;" horiz-adv-x="1217" 
d="M582 -18q-130 0 -231.5 64t-159.5 186.5t-58 297.5q0 174 58 296t160 186t231 64q121 0 221.5 -57t161 -152t60.5 -212v-7v-9l-61 1v7v7q0 95 -51.5 174.5t-137 128t-185.5 48.5q-168 0 -273 -122t-105 -353t105.5 -353.5t272.5 -122.5q100 0 185 48.5t137 130t52 181.5
l61 -1q0 -122 -61 -220t-161.5 -154.5t-220.5 -56.5zM964 0v1563h78v-1563h-78zM483 -232v43h439v-43h-439z" />
    <glyph glyph-name="uni1E14" unicode="&#x1e14;" horiz-adv-x="1073" 
d="M206 1406l35 42v-703l-24 29h621v-68h-621l24 29v-708l-35 42h703v-69h-745v1475h745v-69h-703zM322 1606v43h448v-43h-448zM639 1720h-93l-288 164h114z" />
    <glyph glyph-name="uni1E15" unicode="&#x1e15;" horiz-adv-x="1274" 
d="M180 496v69h899l-19 -18v10v8q0 115 -49 215.5t-140.5 163t-219.5 62.5q-129 0 -229 -63t-157 -171t-57 -243q0 -139 57 -246.5t157.5 -169t228.5 -61.5q100 0 173 28.5t121 72.5t73.5 92t29.5 88h78q-5 -54 -37 -115t-91 -114.5t-146 -87.5t-202 -34q-149 0 -265.5 69.5
t-184 192.5t-67.5 283q0 161 67.5 284.5t184.5 194t266 70.5q150 0 260 -72.5t170.5 -193.5t60.5 -267q0 -10 -0.5 -25t-1.5 -22h-960zM428 1339v43h448v-43h-448zM718 1571h-74l-249 224h104z" />
    <glyph glyph-name="uni1E16" unicode="&#x1e16;" horiz-adv-x="1073" 
d="M206 1406l35 42v-703l-24 29h621v-68h-621l24 29v-708l-35 42h703v-69h-745v1475h745v-69h-703zM322 1606v43h448v-43h-448zM466 1720l267 164h113l-287 -164h-93z" />
    <glyph glyph-name="uni1E17" unicode="&#x1e17;" horiz-adv-x="1274" 
d="M180 496v69h899l-19 -18v10v8q0 115 -49 215.5t-140.5 163t-219.5 62.5q-129 0 -229 -63t-157 -171t-57 -243q0 -139 57 -246.5t157.5 -169t228.5 -61.5q100 0 173 28.5t121 72.5t73.5 92t29.5 88h78q-5 -54 -37 -115t-91 -114.5t-146 -87.5t-202 -34q-149 0 -265.5 69.5
t-184 192.5t-67.5 283q0 161 67.5 284.5t184.5 194t266 70.5q150 0 260 -72.5t170.5 -193.5t60.5 -267q0 -10 -0.5 -25t-1.5 -22h-960zM428 1339v43h448v-43h-448zM584 1571l219 224h104l-249 -224h-74z" />
    <glyph glyph-name="uni1E1C" unicode="&#x1e1c;" horiz-adv-x="1073" 
d="M206 1406l35 42v-703l-24 29h621v-68h-621l24 29v-708l-35 42h703v-69h-745v1475h745v-69h-703zM636 -129q33 0 61.5 -13.5t45.5 -43.5t17 -79q0 -54 -28 -91t-74.5 -56t-100.5 -19q-52 0 -89.5 11.5t-48.5 19.5l22 42q10 -7 40.5 -18.5t80.5 -11.5q62 0 106.5 32.5
t44.5 91.5q0 51 -24.5 73.5t-65.5 22.5q-26 0 -54.5 -11.5t-44.5 -28.5l-43 16l67 192h47l-64 -184l-5 9q8 19 41 32.5t69 13.5zM340 1684h58q0 -41 41 -74t108 -33q68 0 108.5 33t40.5 74h59q0 -63 -60.5 -107t-147.5 -44t-147 44t-60 107z" />
    <glyph glyph-name="uni1E1D" unicode="&#x1e1d;" horiz-adv-x="1274" 
d="M717 -129q33 0 61.5 -13.5t45.5 -43.5t17 -79q0 -54 -28 -91t-74.5 -56t-100.5 -19q-52 0 -89.5 11.5t-48.5 19.5l22 42q10 -7 40.5 -18.5t80.5 -11.5q62 0 106.5 32.5t44.5 91.5q0 51 -24.5 73.5t-65.5 22.5q-26 0 -54.5 -11.5t-44.5 -28.5l-45 16l67 192h50l-63 -184
l-10 9q8 19 42.5 32.5t70.5 13.5zM180 496v69h899l-19 -18v10v8q0 115 -49 215.5t-140.5 163t-219.5 62.5q-129 0 -229 -63t-157 -171t-57 -243q0 -139 57 -246.5t157.5 -169t228.5 -61.5q100 0 173 28.5t121 72.5t73.5 92t29.5 88h78q-5 -54 -37 -115t-91 -114.5
t-146 -87.5t-202 -34q-149 0 -265.5 69.5t-184 192.5t-67.5 283q0 161 67.5 284.5t184.5 194t266 70.5q150 0 260 -72.5t170.5 -193.5t60.5 -267q0 -10 -0.5 -25t-1.5 -22h-960zM443 1495h56q0 -63 42 -105.5t109 -42.5q68 0 109.5 42.5t41.5 105.5h57q0 -86 -60.5 -138.5
t-147.5 -52.5t-147 52.5t-60 138.5z" />
    <glyph glyph-name="uni1E20" unicode="&#x1e20;" horiz-adv-x="1315" 
d="M668 -18q-162 0 -287.5 92t-198 261.5t-72.5 401.5q0 233 74.5 401.5t204 260t294.5 91.5q130 0 219.5 -47t144.5 -121t79.5 -158.5t24.5 -161.5v-6v-6h-75v6v6q0 70 -21.5 142.5t-68 135t-121.5 100.5t-182 38q-143 0 -254.5 -82t-176 -235t-64.5 -364
q0 -159 35.5 -285.5t100 -216t152 -136.5t193.5 -47q132 0 217 41.5t130.5 100t59.5 110.5v297h-407v67h479v-668h-64l-3 186q-8 -24 -37 -58.5t-80 -68t-124.5 -55.5t-171.5 -22zM453 1606v43h448v-43h-448z" />
    <glyph glyph-name="uni1E21" unicode="&#x1e21;" horiz-adv-x="1193" 
d="M811 25q78 -6 138 -28.5t94.5 -66t34.5 -112.5q0 -73 -51.5 -134t-161.5 -97t-285 -36q-241 0 -355.5 75t-114.5 190q0 42 10 72.5t21 49.5l73 -13q-9 -14 -18 -41.5t-9 -63.5q0 -97 103 -150.5t297 -53.5q148 0 240 28t134.5 73.5t42.5 97.5q0 78 -62.5 108.5
t-156.5 36.5l-405 30q-95 7 -152 50t-57 111q0 44 21.5 79t50.5 57.5t53 26.5l64 -34q-30 -6 -70.5 -37.5t-40.5 -80.5q0 -43 37 -72t129 -36zM978 1062h74l-22 -425q-6 -118 -59.5 -215t-150.5 -154.5t-235 -57.5q-143 0 -243 58t-152 156t-52 216q0 119 55.5 218.5
t156 158.5t233.5 59q127 0 215 -47.5t137 -115.5t58 -130l-27 4zM584 279q118 0 201 47t126.5 129.5t43.5 188.5q0 101 -44 183.5t-126.5 131t-198.5 48.5q-111 0 -194.5 -50t-130.5 -133t-47 -184q0 -103 44 -184.5t126.5 -129t199.5 -47.5zM359 1339v43h448v-43h-448z" />
    <glyph glyph-name="uni1E24" unicode="&#x1e24;" horiz-adv-x="1224" 
d="M1061 1475v-1475h-77v737l35 -37h-813l35 37v-737h-77v1475h77v-745l-35 39h813l-35 -39v745h77zM611 -295q-29 0 -50.5 18.5t-21.5 47.5q0 30 21.5 48.5t50.5 18.5t50.5 -18.5t21.5 -48.5q0 -29 -21.5 -47.5t-50.5 -18.5z" />
    <glyph glyph-name="uni1E25" unicode="&#x1e25;" horiz-adv-x="1210" 
d="M956 0v407v73v82.5v74.5q0 174 -79 270t-238 96q-107 0 -192 -46.5t-134 -122t-49 -161.5l-56 15q0 101 56 189.5t156 143.5t230 55q189 0 286 -115.5t97 -318.5v-119.5v-129.5v-393h-77zM188 0v1563h76v-1563h-76zM594 -295q-29 0 -50.5 19t-21.5 48t21.5 47.5
t50.5 18.5t50.5 -18.5t21.5 -47.5q0 -30 -21.5 -48.5t-50.5 -18.5z" />
    <glyph glyph-name="uni1E2A" unicode="&#x1e2a;" horiz-adv-x="1224" 
d="M1061 1475v-1475h-77v737l35 -37h-813l35 37v-737h-77v1475h77v-745l-35 39h813l-35 -39v745h77zM403 -128h57q0 -64 42 -97t109 -33q68 0 109.5 33t41.5 97h56q0 -86 -60 -129.5t-147 -43.5t-147.5 43.5t-60.5 129.5z" />
    <glyph glyph-name="uni1E2B" unicode="&#x1e2b;" horiz-adv-x="1210" 
d="M956 0v407v73v82.5v74.5q0 174 -79 270t-238 96q-107 0 -192 -46.5t-134 -122t-49 -161.5l-56 15q0 101 56 189.5t156 143.5t230 55q189 0 286 -115.5t97 -318.5v-119.5v-129.5v-393h-77zM188 0v1563h76v-1563h-76zM386 -128h57q0 -64 42 -97t109 -33q68 0 109.5 33
t41.5 97h56q0 -86 -60 -129.5t-147 -43.5t-147.5 43.5t-60.5 129.5z" />
    <glyph glyph-name="uni1E2E" unicode="&#x1e2e;" horiz-adv-x="448" 
d="M186 0v1475h76v-1475h-76zM120 1577q-28 0 -49 18.5t-21 46.5t21 46.5t49 18.5t49 -18.5t21 -46.5t-21 -46.5t-49 -18.5zM329 1577q-29 0 -49.5 18.5t-20.5 46.5t20.5 46.5t49.5 18.5q28 0 49 -18.5t21 -46.5t-21 -46.5t-49 -18.5zM144 1774l267 164h113l-287 -164h-93z
" />
    <glyph glyph-name="uni1E2F" unicode="&#x1e2f;" horiz-adv-x="466" 
d="M195 0v1062h76v-1062h-76zM128 1355q-28 0 -49 18t-21 47q0 28 21 46t49 18t49 -18t21 -46q0 -29 -21 -47t-49 -18zM337 1355q-29 0 -49.5 18t-20.5 47q0 28 20.5 46t49.5 18q28 0 49 -18t21 -46q0 -29 -21 -47t-49 -18zM166 1675l219 224h104l-249 -224h-74z" />
    <glyph glyph-name="uni1E36" unicode="&#x1e36;" horiz-adv-x="951" 
d="M164 0v1475h77v-1448l-35 42h639v-69h-681zM531 -295q-29 0 -50.5 18.5t-21.5 47.5q0 30 21.5 48.5t50.5 18.5t50.5 -18.5t21.5 -48.5q0 -29 -21.5 -47.5t-50.5 -18.5z" />
    <glyph glyph-name="uni1E37" unicode="&#x1e37;" horiz-adv-x="471" 
d="M279 1563v-1563h-76v1563h76zM239 -295q-29 0 -50.5 19t-21.5 48t21.5 47.5t50.5 18.5t50.5 -18.5t21.5 -47.5q0 -30 -21.5 -48.5t-50.5 -18.5z" />
    <glyph glyph-name="uni1E3A" unicode="&#x1e3a;" horiz-adv-x="951" 
d="M164 0v1475h77v-1448l-35 42h639v-69h-681zM271 -230v43h519v-43h-519z" />
    <glyph glyph-name="uni1E3B" unicode="&#x1e3b;" horiz-adv-x="471" 
d="M279 1563v-1563h-76v1563h76zM19 -230v43h439v-43h-439z" />
    <glyph glyph-name="uni1E42" unicode="&#x1e42;" horiz-adv-x="1510" 
d="M1197 1475h130v-1475h-74v1413l5 -1l-445 -1412h-117l-444 1412l5 1v-1413h-74v1475h130l444 -1421h-6zM748 -295q-29 0 -50.5 18.5t-21.5 47.5q0 30 21.5 48.5t50.5 18.5t50.5 -18.5t21.5 -48.5q0 -29 -21.5 -47.5t-50.5 -18.5z" />
    <glyph glyph-name="uni1E43" unicode="&#x1e43;" horiz-adv-x="1733" 
d="M834 0v507v112v78q0 39 -6 91t-29 101t-73 81.5t-138 32.5q-92 0 -154.5 -37.5t-100 -95t-53.5 -120t-16 -112.5l-50 19q0 109 46 205t132.5 155t206.5 59q114 0 182 -44.5t98.5 -125.5t30.5 -192v-93.5v-121.5v-499h-76zM188 0v1062h76v-1062h-76zM1479 0v508v117v78
q0 36 -5 87t-27.5 99.5t-74 81t-144.5 32.5q-94 0 -155.5 -37t-97 -93t-50.5 -113.5t-15 -99.5l-50 15q0 102 44 193.5t129 149.5t206 58q105 0 175.5 -38.5t106 -114t35.5 -185.5v-96v-118v-524h-77zM877 -295q-29 0 -50.5 19t-21.5 48t21.5 47.5t50.5 18.5t50.5 -18.5
t21.5 -47.5q0 -30 -21.5 -48.5t-50.5 -18.5z" />
    <glyph glyph-name="uni1E44" unicode="&#x1e44;" horiz-adv-x="1273" 
d="M239 0h-75v1475h125l753 -1429l-8 -5v1434h75v-1475h-128l-750 1428l8 3v-1431zM640 1577q-29 0 -50.5 19t-21.5 48t21.5 47.5t50.5 18.5q30 0 51.5 -18.5t21.5 -47.5q0 -30 -21.5 -48.5t-51.5 -18.5z" />
    <glyph glyph-name="uni1E45" unicode="&#x1e45;" horiz-adv-x="1209" 
d="M954 0v547v81v57q0 94 -35 166t-105 112t-177 40q-93 0 -179 -45t-140 -123t-54 -178l-51 20q0 117 63.5 207t163 141t207.5 51q118 0 204 -43.5t133 -127.5t47 -205v-84v-76v-540h-77zM188 0v1062h76v-1062h-76zM629 1355q-29 0 -50.5 19t-21.5 48t21.5 47.5t50.5 18.5
q30 0 51.5 -18.5t21.5 -47.5q0 -30 -21.5 -48.5t-51.5 -18.5z" />
    <glyph glyph-name="uni1E46" unicode="&#x1e46;" horiz-adv-x="1273" 
d="M239 0h-75v1475h125l753 -1429l-8 -5v1434h75v-1475h-128l-750 1428l8 3v-1431zM640 -295q-29 0 -50.5 18.5t-21.5 47.5q0 30 21.5 48.5t50.5 18.5t50.5 -18.5t21.5 -48.5q0 -29 -21.5 -47.5t-50.5 -18.5z" />
    <glyph glyph-name="uni1E47" unicode="&#x1e47;" horiz-adv-x="1209" 
d="M954 0v547v81v57q0 94 -35 166t-105 112t-177 40q-93 0 -179 -45t-140 -123t-54 -178l-51 20q0 117 63.5 207t163 141t207.5 51q118 0 204 -43.5t133 -127.5t47 -205v-84v-76v-540h-77zM188 0v1062h76v-1062h-76zM607 -295q-29 0 -50.5 19t-21.5 48t21.5 47.5t50.5 18.5
t50.5 -18.5t21.5 -47.5q0 -30 -21.5 -48.5t-50.5 -18.5z" />
    <glyph glyph-name="uni1E48" unicode="&#x1e48;" horiz-adv-x="1273" 
d="M239 0h-75v1475h125l753 -1429l-8 -5v1434h75v-1475h-128l-750 1428l8 3v-1431zM380 -230v43h519v-43h-519z" />
    <glyph glyph-name="uni1E49" unicode="&#x1e49;" horiz-adv-x="1209" 
d="M954 0v547v81v57q0 94 -35 166t-105 112t-177 40q-93 0 -179 -45t-140 -123t-54 -178l-51 20q0 117 63.5 207t163 141t207.5 51q118 0 204 -43.5t133 -127.5t47 -205v-84v-76v-540h-77zM188 0v1062h76v-1062h-76zM387 -230v43h439v-43h-439z" />
    <glyph glyph-name="uni1E4C" unicode="&#x1e4c;" horiz-adv-x="1383" 
d="M965 1689q-2 -28 -17 -63t-48 -61t-87 -26q-42 0 -73 17t-55 35q-21 15 -44 28t-53 13q-38 0 -52 -22.5t-16 -45.5h-94q2 31 20.5 66.5t53.5 61t88 25.5q43 0 72.5 -16t51.5 -33t45.5 -31t49.5 -14q39 0 51 21t14 45h93zM583 1781l248 160h148l-260 -160h-136zM691 -20
q-129 0 -236.5 51t-187 148.5t-123 238.5t-43.5 321t43.5 320.5t123 237t187.5 146.5t236 50q129 0 237 -50t187.5 -146.5t123 -237t43.5 -320.5t-43.5 -321t-123 -238.5t-187.5 -148.5t-237 -51zM691 134q123 0 217 67t147 201.5t53 336.5q0 203 -53.5 336t-147.5 198
t-216 65q-121 0 -215.5 -65t-148 -198t-53.5 -336t53.5 -337.5t148 -201t215.5 -66.5z" />
    <glyph glyph-name="uni1E4D" unicode="&#x1e4d;" horiz-adv-x="1304" 
d="M652 -18q-152 0 -269 72.5t-183.5 197t-66.5 281.5t66.5 279.5t183.5 193t269 70.5t269 -70.5t183.5 -193t66.5 -279.5t-66.5 -281.5t-183.5 -197t-269 -72.5zM652 53q129 0 228.5 63t156.5 171.5t57 245.5q0 136 -57 243t-156.5 168t-228.5 61t-228.5 -61t-156.5 -168
t-57 -243q0 -137 57 -245.5t156.5 -171.5t228.5 -63zM899 1448q-2 -19 -13.5 -46t-39.5 -48.5t-78 -21.5q-41 0 -72 17t-56 37q-20 17 -42.5 30t-54.5 13q-46 0 -63 -23t-19 -45h-56q2 22 16.5 50t45 48.5t77.5 20.5q42 0 69.5 -16.5t51.5 -35.5t48 -32.5t54 -13.5
q48 0 61 23.5t15 42.5h56zM571 1547l267 164h113l-287 -164h-93z" />
    <glyph glyph-name="uni1E4E" unicode="&#x1e4e;" horiz-adv-x="1346" 
d="M673 -18q-123 0 -226 51.5t-178.5 150t-117 238.5t-41.5 317t42 316.5t118 236t178.5 147.5t224.5 51t225 -51t179 -147.5t117.5 -236t41.5 -316.5t-41.5 -317t-117 -238.5t-178.5 -150t-226 -51.5zM673 52q142 0 251.5 82.5t171 237t61.5 367.5q0 214 -62.5 366.5
t-171.5 233t-250 80.5q-140 0 -249.5 -80.5t-172 -233t-62.5 -366.5t62.5 -368t172 -236.5t249.5 -82.5zM923 1659q-2 -18 -13.5 -45.5t-39.5 -48.5t-78 -21q-41 0 -72 16.5t-56 37.5q-20 16 -42.5 29.5t-54.5 13.5q-46 0 -63 -23.5t-19 -44.5h-56q2 22 16.5 49.5t45 48
t77.5 20.5q42 0 69.5 -16t51.5 -35q24 -20 48 -33t54 -13q48 0 61 23t15 42h56zM510 1786q-29 0 -49.5 18t-20.5 47q0 28 20.5 46t49.5 18q28 0 49 -18t21 -46q0 -29 -21 -47t-49 -18zM837 1786q-29 0 -49.5 18t-20.5 47q0 28 20.5 46t49.5 18q28 0 49 -18t21 -46
q0 -29 -21 -47t-49 -18z" />
    <glyph glyph-name="uni1E4F" unicode="&#x1e4f;" horiz-adv-x="1304" 
d="M652 -18q-152 0 -269 72.5t-183.5 197t-66.5 281.5t66.5 279.5t183.5 193t269 70.5t269 -70.5t183.5 -193t66.5 -279.5t-66.5 -281.5t-183.5 -197t-269 -72.5zM652 53q129 0 228.5 63t156.5 171.5t57 245.5q0 136 -57 243t-156.5 168t-228.5 61t-228.5 -61t-156.5 -168
t-57 -243q0 -137 57 -245.5t156.5 -171.5t228.5 -63zM899 1448q-2 -19 -13.5 -46t-39.5 -48.5t-78 -21.5q-41 0 -72 17t-56 37q-20 17 -42.5 30t-54.5 13q-46 0 -63 -23t-19 -45h-56q2 22 16.5 50t45 48.5t77.5 20.5q42 0 69.5 -16.5t51.5 -35.5t48 -32.5t54 -13.5
q48 0 61 23.5t15 42.5h56zM489 1575q-29 0 -49.5 18t-20.5 47q0 28 20.5 46t49.5 18q28 0 49 -18t21 -46q0 -29 -21 -47t-49 -18zM816 1575q-29 0 -49.5 18t-20.5 47q0 28 20.5 46t49.5 18q28 0 49 -18t21 -46q0 -29 -21 -47t-49 -18z" />
    <glyph glyph-name="uni1E50" unicode="&#x1e50;" horiz-adv-x="1346" 
d="M673 -18q-123 0 -226 51.5t-178.5 150t-117 238.5t-41.5 317t42 316.5t118 236t178.5 147.5t224.5 51t225 -51t179 -147.5t117.5 -236t41.5 -316.5t-41.5 -317t-117 -238.5t-178.5 -150t-226 -51.5zM673 52q142 0 251.5 82.5t171 237t61.5 367.5q0 214 -62.5 366.5
t-171.5 233t-250 80.5q-140 0 -249.5 -80.5t-172 -233t-62.5 -366.5t62.5 -368t172 -236.5t249.5 -82.5zM449 1606v43h448v-43h-448zM765 1720h-93l-288 164h114z" />
    <glyph glyph-name="uni1E51" unicode="&#x1e51;" horiz-adv-x="1304" 
d="M652 -18q-152 0 -269 72.5t-183.5 197t-66.5 281.5t66.5 279.5t183.5 193t269 70.5t269 -70.5t183.5 -193t66.5 -279.5t-66.5 -281.5t-183.5 -197t-269 -72.5zM652 53q129 0 228.5 63t156.5 171.5t57 245.5q0 136 -57 243t-156.5 168t-228.5 61t-228.5 -61t-156.5 -168
t-57 -243q0 -137 57 -245.5t156.5 -171.5t228.5 -63zM430 1339v43h448v-43h-448zM720 1571h-74l-249 224h104z" />
    <glyph glyph-name="uni1E52" unicode="&#x1e52;" horiz-adv-x="1346" 
d="M673 -18q-123 0 -226 51.5t-178.5 150t-117 238.5t-41.5 317t42 316.5t118 236t178.5 147.5t224.5 51t225 -51t179 -147.5t117.5 -236t41.5 -316.5t-41.5 -317t-117 -238.5t-178.5 -150t-226 -51.5zM673 52q142 0 251.5 82.5t171 237t61.5 367.5q0 214 -62.5 366.5
t-171.5 233t-250 80.5q-140 0 -249.5 -80.5t-172 -233t-62.5 -366.5t62.5 -368t172 -236.5t249.5 -82.5zM449 1606v43h448v-43h-448zM592 1720l267 164h113l-287 -164h-93z" />
    <glyph glyph-name="uni1E53" unicode="&#x1e53;" horiz-adv-x="1304" 
d="M652 -18q-152 0 -269 72.5t-183.5 197t-66.5 281.5t66.5 279.5t183.5 193t269 70.5t269 -70.5t183.5 -193t66.5 -279.5t-66.5 -281.5t-183.5 -197t-269 -72.5zM652 53q129 0 228.5 63t156.5 171.5t57 245.5q0 136 -57 243t-156.5 168t-228.5 61t-228.5 -61t-156.5 -168
t-57 -243q0 -137 57 -245.5t156.5 -171.5t228.5 -63zM430 1339v43h448v-43h-448zM586 1571l219 224h104l-249 -224h-74z" />
    <glyph glyph-name="uni1E5A" unicode="&#x1e5a;" horiz-adv-x="1153" 
d="M164 0v1475h455q184 0 284 -89.5t100 -286.5q0 -120 -45.5 -204t-107.5 -129.5t-111 -52.5q49 -4 100.5 -28.5t86.5 -75t35 -135.5v-186.5v-186.5q0 -39 7 -66.5t12 -34.5h-79q-4 8 -10.5 34.5t-6.5 66.5v181v181q0 112 -73 163t-195 51h-402l25 31v-708h-75zM239 712
l-25 33h402q83 0 153 43t112.5 121t42.5 186q0 166 -82.5 238.5t-240.5 72.5h-388l26 34v-728zM579 -295q-29 0 -50.5 18.5t-21.5 47.5q0 30 21.5 48.5t50.5 18.5t50.5 -18.5t21.5 -48.5q0 -29 -21.5 -47.5t-50.5 -18.5z" />
    <glyph glyph-name="uni1E5B" unicode="&#x1e5b;" horiz-adv-x="773" 
d="M188 0v1062h76v-299l-31 6q7 41 29 93.5t63.5 101t105.5 80.5t153 32q63 0 101 -11.5t48 -18.5l-24 -73q-10 7 -41 18t-92 11q-85 0 -144.5 -34.5t-96.5 -88.5t-54 -114t-17 -110v-655h-76zM227 -295q-29 0 -50.5 19t-21.5 48t21.5 47.5t50.5 18.5t50.5 -18.5t21.5 -47.5
q0 -30 -21.5 -48.5t-50.5 -18.5z" />
    <glyph glyph-name="uni1E5E" unicode="&#x1e5e;" horiz-adv-x="1153" 
d="M164 0v1475h455q184 0 284 -89.5t100 -286.5q0 -120 -45.5 -204t-107.5 -129.5t-111 -52.5q49 -4 100.5 -28.5t86.5 -75t35 -135.5v-186.5v-186.5q0 -39 7 -66.5t12 -34.5h-79q-4 8 -10.5 34.5t-6.5 66.5v181v181q0 112 -73 163t-195 51h-402l25 31v-708h-75zM239 712
l-25 33h402q83 0 153 43t112.5 121t42.5 186q0 166 -82.5 238.5t-240.5 72.5h-388l26 34v-728zM319 -230v43h519v-43h-519z" />
    <glyph glyph-name="uni1E5F" unicode="&#x1e5f;" horiz-adv-x="773" 
d="M188 0v1062h76v-299l-31 6q7 41 29 93.5t63.5 101t105.5 80.5t153 32q63 0 101 -11.5t48 -18.5l-24 -73q-10 7 -41 18t-92 11q-85 0 -144.5 -34.5t-96.5 -88.5t-54 -114t-17 -110v-655h-76zM7 -230v43h439v-43h-439z" />
    <glyph glyph-name="uni1E60" unicode="&#x1e60;" horiz-adv-x="1117" 
d="M560 -18q-148 0 -248 47t-151 142.5t-51 238.5v37.5v37.5h78v-37v-37q0 -186 95 -272.5t273 -86.5q187 0 280.5 76.5t93.5 222.5q0 102 -46.5 167.5t-130 110.5t-197.5 83q-130 43 -228 98.5t-152 135t-54 198.5q0 113 51.5 190t147 116.5t227.5 39.5q141 0 241 -43.5
t153.5 -133t53.5 -227.5v-42.5v-42.5h-78v41.5v41.5q0 178 -96.5 257t-271.5 79q-167 0 -259 -69t-92 -207q0 -103 51.5 -170.5t141.5 -113t205 -84.5q130 -43 221.5 -96t140 -130t48.5 -196q0 -117 -51.5 -200t-151 -127.5t-244.5 -44.5zM556 1577q-29 0 -50.5 19t-21.5 48
t21.5 47.5t50.5 18.5q30 0 51.5 -18.5t21.5 -47.5q0 -30 -21.5 -48.5t-51.5 -18.5z" />
    <glyph glyph-name="uni1E61" unicode="&#x1e61;" horiz-adv-x="1103" 
d="M551 -18q-97 0 -173 19.5t-129.5 56.5t-82.5 91t-33 122v21v19h77v-18t1 -20q5 -105 93.5 -163t246.5 -58q103 0 180 25.5t119.5 73t42.5 114.5q0 110 -89.5 157.5t-259.5 76.5q-85 16 -157.5 37.5t-125 55.5t-81.5 84t-29 121q0 90 54.5 152t145 94.5t198.5 32.5
q110 0 201 -31.5t145.5 -98t54.5 -170.5v-11.5v-11.5h-77v10.5v10.5q0 86 -45 137t-118 73t-158 22t-159 -22t-120 -68t-46 -117q0 -73 43 -117.5t120 -70.5t180 -45q93 -17 167 -40t126 -56.5t79.5 -82.5t27.5 -119q0 -69 -31 -122t-87 -89.5t-132.5 -55.5t-168.5 -19z
M552 1355q-29 0 -50.5 19t-21.5 48t21.5 47.5t50.5 18.5q30 0 51.5 -18.5t21.5 -47.5q0 -30 -21.5 -48.5t-51.5 -18.5z" />
    <glyph glyph-name="uni1E62" unicode="&#x1e62;" horiz-adv-x="1117" 
d="M560 -18q-148 0 -248 47t-151 142.5t-51 238.5v37.5v37.5h78v-37v-37q0 -186 95 -272.5t273 -86.5q187 0 280.5 76.5t93.5 222.5q0 102 -46.5 167.5t-130 110.5t-197.5 83q-130 43 -228 98.5t-152 135t-54 198.5q0 113 51.5 190t147 116.5t227.5 39.5q141 0 241 -43.5
t153.5 -133t53.5 -227.5v-42.5v-42.5h-78v41.5v41.5q0 178 -96.5 257t-271.5 79q-167 0 -259 -69t-92 -207q0 -103 51.5 -170.5t141.5 -113t205 -84.5q130 -43 221.5 -96t140 -130t48.5 -196q0 -117 -51.5 -200t-151 -127.5t-244.5 -44.5zM561 -295q-29 0 -50.5 18.5
t-21.5 47.5q0 30 21.5 48.5t50.5 18.5t50.5 -18.5t21.5 -48.5q0 -29 -21.5 -47.5t-50.5 -18.5z" />
    <glyph glyph-name="uni1E63" unicode="&#x1e63;" horiz-adv-x="1103" 
d="M551 -18q-97 0 -173 19.5t-129.5 56.5t-82.5 91t-33 122v21v19h77v-18t1 -20q5 -105 93.5 -163t246.5 -58q103 0 180 25.5t119.5 73t42.5 114.5q0 110 -89.5 157.5t-259.5 76.5q-85 16 -157.5 37.5t-125 55.5t-81.5 84t-29 121q0 90 54.5 152t145 94.5t198.5 32.5
q110 0 201 -31.5t145.5 -98t54.5 -170.5v-11.5v-11.5h-77v10.5v10.5q0 86 -45 137t-118 73t-158 22t-159 -22t-120 -68t-46 -117q0 -73 43 -117.5t120 -70.5t180 -45q93 -17 167 -40t126 -56.5t79.5 -82.5t27.5 -119q0 -69 -31 -122t-87 -89.5t-132.5 -55.5t-168.5 -19z
M551 -295q-29 0 -50.5 19t-21.5 48t21.5 47.5t50.5 18.5t50.5 -18.5t21.5 -47.5q0 -30 -21.5 -48.5t-50.5 -18.5z" />
    <glyph glyph-name="uni1E64" unicode="&#x1e64;" horiz-adv-x="1173" 
d="M472 1545l260 167h154l-271 -167h-143zM587 1805q-45 0 -78 25.5t-33 68.5q0 44 33 69.5t78 25.5q44 0 77 -25.5t33 -69.5t-33 -69t-77 -25zM587 -20q-153 0 -261.5 48.5t-166.5 146.5t-58 244v34v34h171v-32v-33q0 -153 80 -220.5t233 -67.5q158 0 239 54t81 175
q0 85 -46.5 141.5t-128.5 96t-191 72.5q-123 38 -219.5 96t-152 143.5t-55.5 208.5q0 120 58.5 203t163.5 126t244 43q147 0 255.5 -45.5t168 -138t59.5 -232.5v-37.5v-37.5h-171v34v34q0 146 -79 207.5t-230 61.5q-145 0 -224 -51t-79 -167q0 -87 48.5 -143.5t132.5 -96
t192 -75.5q131 -43 225.5 -97.5t145 -135.5t50.5 -204t-58.5 -210t-167 -133t-259.5 -46z" />
    <glyph glyph-name="uni1E65" unicode="&#x1e65;" horiz-adv-x="1103" 
d="M551 -18q-97 0 -173 19.5t-129.5 56.5t-82.5 91t-33 122v21v19h77v-18t1 -20q5 -105 93.5 -163t246.5 -58q103 0 180 25.5t119.5 73t42.5 114.5q0 110 -89.5 157.5t-259.5 76.5q-85 16 -157.5 37.5t-125 55.5t-81.5 84t-29 121q0 90 54.5 152t145 94.5t198.5 32.5
q110 0 201 -31.5t145.5 -98t54.5 -170.5v-11.5v-11.5h-77v10.5v10.5q0 86 -45 137t-118 73t-158 22t-159 -22t-120 -68t-46 -117q0 -73 43 -117.5t120 -70.5t180 -45q93 -17 167 -40t126 -56.5t79.5 -82.5t27.5 -119q0 -69 -31 -122t-87 -89.5t-132.5 -55.5t-168.5 -19z
M486 1251l219 224h104l-249 -224h-74zM609 1603q-29 0 -50.5 19t-21.5 48t21.5 47.5t50.5 18.5q30 0 51.5 -18.5t21.5 -47.5q0 -30 -21.5 -48.5t-51.5 -18.5z" />
    <glyph glyph-name="uni1E66" unicode="&#x1e66;" horiz-adv-x="1117" 
d="M560 -18q-148 0 -248 47t-151 142.5t-51 238.5v37.5v37.5h78v-37v-37q0 -186 95 -272.5t273 -86.5q187 0 280.5 76.5t93.5 222.5q0 102 -46.5 167.5t-130 110.5t-197.5 83q-130 43 -228 98.5t-152 135t-54 198.5q0 113 51.5 190t147 116.5t227.5 39.5q141 0 241 -43.5
t153.5 -133t53.5 -227.5v-42.5v-42.5h-78v41.5v41.5q0 178 -96.5 257t-271.5 79q-167 0 -259 -69t-92 -207q0 -103 51.5 -170.5t141.5 -113t205 -84.5q130 -43 221.5 -96t140 -130t48.5 -196q0 -117 -51.5 -200t-151 -127.5t-244.5 -44.5zM317 1704h81l173 -144h-29l170 144
h83l-196 -160h-87zM556 1806q-29 0 -50.5 19t-21.5 48t21.5 47.5t50.5 18.5q30 0 51.5 -18.5t21.5 -47.5q0 -30 -21.5 -48.5t-51.5 -18.5z" />
    <glyph glyph-name="uni1E67" unicode="&#x1e67;" horiz-adv-x="1103" 
d="M551 -18q-97 0 -173 19.5t-129.5 56.5t-82.5 91t-33 122v21v19h77v-18t1 -20q5 -105 93.5 -163t246.5 -58q103 0 180 25.5t119.5 73t42.5 114.5q0 110 -89.5 157.5t-259.5 76.5q-85 16 -157.5 37.5t-125 55.5t-81.5 84t-29 121q0 90 54.5 152t145 94.5t198.5 32.5
q110 0 201 -31.5t145.5 -98t54.5 -170.5v-11.5v-11.5h-77v10.5v10.5q0 86 -45 137t-118 73t-158 22t-159 -22t-120 -68t-46 -117q0 -73 43 -117.5t120 -70.5t180 -45q93 -17 167 -40t126 -56.5t79.5 -82.5t27.5 -119q0 -69 -31 -122t-87 -89.5t-132.5 -55.5t-168.5 -19z
M322 1475h73l173 -205h-30l170 205h75l-194 -224h-75zM552 1577q-29 0 -50.5 19t-21.5 48t21.5 47.5t50.5 18.5q30 0 51.5 -18.5t21.5 -47.5q0 -30 -21.5 -48.5t-51.5 -18.5z" />
    <glyph glyph-name="uni1E68" unicode="&#x1e68;" horiz-adv-x="1117" 
d="M560 -18q-148 0 -248 47t-151 142.5t-51 238.5v37.5v37.5h78v-37v-37q0 -186 95 -272.5t273 -86.5q187 0 280.5 76.5t93.5 222.5q0 102 -46.5 167.5t-130 110.5t-197.5 83q-130 43 -228 98.5t-152 135t-54 198.5q0 113 51.5 190t147 116.5t227.5 39.5q141 0 241 -43.5
t153.5 -133t53.5 -227.5v-42.5v-42.5h-78v41.5v41.5q0 178 -96.5 257t-271.5 79q-167 0 -259 -69t-92 -207q0 -103 51.5 -170.5t141.5 -113t205 -84.5q130 -43 221.5 -96t140 -130t48.5 -196q0 -117 -51.5 -200t-151 -127.5t-244.5 -44.5zM561 -295q-29 0 -50.5 18.5
t-21.5 47.5q0 30 21.5 48.5t50.5 18.5t50.5 -18.5t21.5 -48.5q0 -29 -21.5 -47.5t-50.5 -18.5zM556 1577q-29 0 -50.5 19t-21.5 48t21.5 47.5t50.5 18.5q30 0 51.5 -18.5t21.5 -47.5q0 -30 -21.5 -48.5t-51.5 -18.5z" />
    <glyph glyph-name="uni1E69" unicode="&#x1e69;" horiz-adv-x="1103" 
d="M551 -18q-97 0 -173 19.5t-129.5 56.5t-82.5 91t-33 122v21v19h77v-18t1 -20q5 -105 93.5 -163t246.5 -58q103 0 180 25.5t119.5 73t42.5 114.5q0 110 -89.5 157.5t-259.5 76.5q-85 16 -157.5 37.5t-125 55.5t-81.5 84t-29 121q0 90 54.5 152t145 94.5t198.5 32.5
q110 0 201 -31.5t145.5 -98t54.5 -170.5v-11.5v-11.5h-77v10.5v10.5q0 86 -45 137t-118 73t-158 22t-159 -22t-120 -68t-46 -117q0 -73 43 -117.5t120 -70.5t180 -45q93 -17 167 -40t126 -56.5t79.5 -82.5t27.5 -119q0 -69 -31 -122t-87 -89.5t-132.5 -55.5t-168.5 -19z
M551 -295q-29 0 -50.5 19t-21.5 48t21.5 47.5t50.5 18.5t50.5 -18.5t21.5 -47.5q0 -30 -21.5 -48.5t-50.5 -18.5zM552 1355q-29 0 -50.5 19t-21.5 48t21.5 47.5t50.5 18.5q30 0 51.5 -18.5t21.5 -47.5q0 -30 -21.5 -48.5t-51.5 -18.5z" />
    <glyph glyph-name="uni1E6C" unicode="&#x1e6c;" horiz-adv-x="1088" 
d="M986 1406h-426l23 42v-1448h-78v1448l26 -42h-428v69h883v-69zM546 -295q-29 0 -50.5 18.5t-21.5 47.5q0 30 21.5 48.5t50.5 18.5t50.5 -18.5t21.5 -48.5q0 -29 -21.5 -47.5t-50.5 -18.5z" />
    <glyph glyph-name="uni1E6D" unicode="&#x1e6d;" horiz-adv-x="793" 
d="M510 -17q-41 0 -78.5 12t-66.5 39.5t-46 75t-17 119.5v42.5v48.5v673h-251v69h200q19 0 29.5 1t15 6.5t5.5 17t1 33.5v275h78v-333h348v-69h-348v-646v-49v-42q0 -97 32 -150t108 -53q28 0 56.5 4.5t41.5 12.5v-69q-15 -8 -45 -13t-63 -5zM451 -295q-29 0 -50.5 19
t-21.5 48t21.5 47.5t50.5 18.5t50.5 -18.5t21.5 -47.5q0 -30 -21.5 -48.5t-50.5 -18.5z" />
    <glyph glyph-name="uni1E6E" unicode="&#x1e6e;" horiz-adv-x="1088" 
d="M986 1406h-426l23 42v-1448h-78v1448l26 -42h-428v69h883v-69zM286 -230v43h519v-43h-519z" />
    <glyph glyph-name="uni1E6F" unicode="&#x1e6f;" horiz-adv-x="793" 
d="M510 -17q-41 0 -78.5 12t-66.5 39.5t-46 75t-17 119.5v42.5v48.5v673h-251v69h200q19 0 29.5 1t15 6.5t5.5 17t1 33.5v275h78v-333h348v-69h-348v-646v-49v-42q0 -97 32 -150t108 -53q28 0 56.5 4.5t41.5 12.5v-69q-15 -8 -45 -13t-63 -5zM230 -230v43h439v-43h-439z" />
    <glyph glyph-name="uni1E78" unicode="&#x1e78;" horiz-adv-x="1278" 
d="M1115 551q0 -292 -125 -430.5t-351 -138.5q-225 0 -350 138.5t-125 430.5v102v115v707h77v-703v-114v-98q0 -266 104 -387t294 -121q191 0 295 121t104 387v915h77v-924zM888 1659q-2 -18 -13.5 -45.5t-39.5 -48.5t-78 -21q-41 0 -72 16.5t-56 37.5q-20 16 -42.5 29.5
t-54.5 13.5q-46 0 -63 -23.5t-19 -44.5h-56q2 22 16.5 49.5t45 48t77.5 20.5q42 0 69.5 -16t51.5 -35q24 -20 48 -33t54 -13q48 0 61 23t15 42h56zM557 1758l267 164h113l-287 -164h-93z" />
    <glyph glyph-name="uni1E79" unicode="&#x1e79;" horiz-adv-x="1181" 
d="M556 -18q-116 0 -188 41.5t-111.5 105.5t-54 135.5t-14.5 132.5v79.5v81.5v504h77v-500v-77.5v-73.5q0 -91 27.5 -173t93.5 -133.5t180 -51.5q104 0 185.5 53t128 136.5t46.5 175.5l52 -21q0 -71 -28 -144t-82 -134.5t-132.5 -99t-179.5 -37.5zM926 0v1062h77v-1062h-77z
M837 1448q-2 -19 -13.5 -46t-39.5 -48.5t-78 -21.5q-41 0 -72 17t-56 37q-20 17 -42.5 30t-54.5 13q-46 0 -63 -23t-19 -45h-56q2 22 16.5 50t45 48.5t77.5 20.5q42 0 69.5 -16.5t51.5 -35.5t48 -32.5t54 -13.5q48 0 61 23.5t15 42.5h56zM487 1569l219 224h104l-249 -224
h-74z" />
    <glyph glyph-name="uni1E7A" unicode="&#x1e7a;" horiz-adv-x="1278" 
d="M1115 551q0 -292 -125 -430.5t-351 -138.5q-225 0 -350 138.5t-125 430.5v102v115v707h77v-703v-114v-98q0 -266 104 -387t294 -121q191 0 295 121t104 387v915h77v-924zM414 1606v43h448v-43h-448zM475 1748q-29 0 -49.5 18t-20.5 47q0 28 20.5 46t49.5 18q28 0 49 -18
t21 -46q0 -29 -21 -47t-49 -18zM802 1748q-29 0 -49.5 18t-20.5 47q0 28 20.5 46t49.5 18q28 0 49 -18t21 -46q0 -29 -21 -47t-49 -18z" />
    <glyph glyph-name="uni1E7B" unicode="&#x1e7b;" horiz-adv-x="1181" 
d="M556 -18q-116 0 -188 41.5t-111.5 105.5t-54 135.5t-14.5 132.5v79.5v81.5v504h77v-500v-77.5v-73.5q0 -91 27.5 -173t93.5 -133.5t180 -51.5q104 0 185.5 53t128 136.5t46.5 175.5l52 -21q0 -71 -28 -144t-82 -134.5t-132.5 -99t-179.5 -37.5zM926 0v1062h77v-1062h-77z
M368 1339v43h448v-43h-448zM427 1675q-29 0 -49.5 18t-20.5 47q0 28 20.5 46t49.5 18q28 0 49 -18t21 -46q0 -29 -21 -47t-49 -18zM754 1675q-29 0 -49.5 18t-20.5 47q0 28 20.5 46t49.5 18q28 0 49 -18t21 -46q0 -29 -21 -47t-49 -18z" />
    <glyph glyph-name="Wgrave" unicode="&#x1e80;" horiz-adv-x="1634" 
d="M376 0l-271 1475h81l252 -1430h-14l344 1430h98l342 -1430h-13l253 1430h81l-273 -1475h-111l-334 1400h12l-335 -1400h-112zM914 1546h-93l-288 164h114z" />
    <glyph glyph-name="wgrave" unicode="&#x1e81;" horiz-adv-x="1466" 
d="M1024 0l-320 1062h71l308 -1016h-16l228 1016h81l-250 -1062h-102zM342 0l-252 1062h81l230 -1016h-16l305 1016h71l-317 -1062h-102zM799 1251h-74l-249 224h104z" />
    <glyph glyph-name="Wacute" unicode="&#x1e82;" horiz-adv-x="1634" 
d="M376 0l-271 1475h81l252 -1430h-14l344 1430h98l342 -1430h-13l253 1430h81l-273 -1475h-111l-334 1400h12l-335 -1400h-112zM741 1546l267 164h113l-287 -164h-93z" />
    <glyph glyph-name="wacute" unicode="&#x1e83;" horiz-adv-x="1466" 
d="M1024 0l-320 1062h71l308 -1016h-16l228 1016h81l-250 -1062h-102zM342 0l-252 1062h81l230 -1016h-16l305 1016h71l-317 -1062h-102zM665 1251l219 224h104l-249 -224h-74z" />
    <glyph glyph-name="Wdieresis" unicode="&#x1e84;" horiz-adv-x="1634" 
d="M376 0l-271 1475h81l252 -1430h-14l344 1430h98l342 -1430h-13l253 1430h81l-273 -1475h-111l-334 1400h12l-335 -1400h-112zM659 1574q-29 0 -49.5 18t-20.5 47q0 28 20.5 46t49.5 18q28 0 49 -18t21 -46q0 -29 -21 -47t-49 -18zM986 1574q-29 0 -49.5 18t-20.5 47
q0 28 20.5 46t49.5 18q28 0 49 -18t21 -46q0 -29 -21 -47t-49 -18z" />
    <glyph glyph-name="wdieresis" unicode="&#x1e85;" horiz-adv-x="1466" 
d="M1024 0l-320 1062h71l308 -1016h-16l228 1016h81l-250 -1062h-102zM342 0l-252 1062h81l230 -1016h-16l305 1016h71l-317 -1062h-102zM568 1355q-29 0 -49.5 18t-20.5 47q0 28 20.5 46t49.5 18q28 0 49 -18t21 -46q0 -29 -21 -47t-49 -18zM895 1355q-29 0 -49.5 18
t-20.5 47q0 28 20.5 46t49.5 18q28 0 49 -18t21 -46q0 -29 -21 -47t-49 -18z" />
    <glyph glyph-name="uni1E8F" unicode="&#x1e8f;" horiz-adv-x="1011" 
d="M171 -441q-33 0 -62 5.5t-35 8.5v70q12 -7 40.5 -11t54.5 -4q73 0 120 36.5t77 94t52 120.5l43 120l-379 1063h80l346 -987h-11l344 987h80l-420 -1179q-27 -77 -65 -151.5t-100.5 -123.5t-164.5 -49zM492 1355q-29 0 -50.5 19t-21.5 48t21.5 47.5t50.5 18.5
q30 0 51.5 -18.5t21.5 -47.5q0 -30 -21.5 -48.5t-51.5 -18.5z" />
    <glyph glyph-name="uni1E92" unicode="&#x1e92;" horiz-adv-x="1079" 
d="M213 69h731v-69h-819v63l743 1344l2 -1h-699v69h783v-61l-741 -1342v-3zM538 -285q-29 0 -50.5 18.5t-21.5 47.5q0 30 21.5 48.5t50.5 18.5t50.5 -18.5t21.5 -48.5q0 -29 -21.5 -47.5t-50.5 -18.5z" />
    <glyph glyph-name="uni1E93" unicode="&#x1e93;" horiz-adv-x="976" 
d="M185 71h690v-71h-773v69l676 925l1 -3h-638v71h721v-69l-676 -926zM496 -295q-29 0 -50.5 19t-21.5 48t21.5 47.5t50.5 18.5t50.5 -18.5t21.5 -47.5q0 -30 -21.5 -48.5t-50.5 -18.5z" />
    </font>
</defs>
</svg>
