<?xml version="1.0" standalone="no"?>
<!DOCTYPE svg PUBLIC "-//W3C//DTD SVG 1.1//EN" "http://www.w3.org/Graphics/SVG/1.1/DTD/svg11.dtd" >
<svg xmlns="http://www.w3.org/2000/svg" xmlns:xlink="http://www.w3.org/1999/xlink" version="1.1">
<metadata>
Created by FontForge 20170731 at Thu Jul 22 19:25:12 2021
 By Aleksey,,,
Copyright 2020 The Epilogue Project Authors (https://github.com/Etcetera-Type-Co/Epilogue)
</metadata>
<defs>
<font id="Epilogue-LightItalic" horiz-adv-x="0" >
  <font-face 
    font-family="Epilogue Light"
    font-weight="300"
    font-style="italic"
    font-stretch="normal"
    units-per-em="2000"
    panose-1="0 0 0 0 0 0 0 0 0 0"
    ascent="1600"
    descent="-400"
    x-height="1062"
    cap-height="1475"
    bbox="-560 -467 2420 2101"
    underline-thickness="50"
    underline-position="-175"
    slope="-12"
    unicode-range="U+000D-FB02"
  />
<missing-glyph horiz-adv-x="669" 
d="M-16 73l286 1344h509l-286 -1344h-509zM156 176l-24 26l129 98l-88 98l36 26l88 -98l130 98l24 -26l-130 -98l89 -98l-36 -26l-88 98zM249 612l-25 26l130 98l-88 98l35 26l89 -98l129 98l25 -26l-130 -98l88 -98l-35 -26l-88 98zM30 107h431l272 1276h-431zM341 1048
l-24 26l131 98l-89 98l35 25l88 -97l130 97l25 -25l-131 -98l89 -98l-36 -26l-88 98z" />
    <glyph glyph-name="fi" unicode="fi" horiz-adv-x="1264" 
d="M174 0l202 953h-234l23 109h235l31 147q17 81 52 149t87 117t120.5 76t152.5 27q43 0 69 -5.5t36 -10.5l-23 -109q-12 4 -37.5 9t-56.5 5q-93 0 -149 -40t-86 -103.5t-45 -134.5l-28 -127h313l-23 -109h-313l-203 -953h-123zM847 0l225 1062h123l-225 -1062h-123z
M1205 1330q-37 0 -63.5 21t-26.5 57q0 27 13.5 46.5t36.5 30t49 10.5q37 0 63 -21t26 -56q0 -27 -13.5 -46.5t-36 -30.5t-48.5 -11z" />
    <glyph glyph-name="fl" unicode="fl" horiz-adv-x="1260" 
d="M174 0l202 953h-234l23 109h235l31 147q17 81 52 149t87 117t120.5 76t152.5 27q43 0 69 -5.5t36 -10.5l-23 -109q-12 4 -37.5 9t-56.5 5q-93 0 -149 -40t-86 -103.5t-45 -134.5l-28 -127h313l-23 -109h-313l-203 -953h-123zM1308 1563l-332 -1563h-123l332 1563h123z
" />
    <glyph glyph-name="f_f" unicode="ff" horiz-adv-x="1562" 
d="M174 0l202 953h-234l23 109h235l31 147q17 81 52 149t87 117t120.5 76t152.5 27q43 0 69 -5.5t36 -10.5l-23 -109q-12 4 -37.5 9t-56.5 5q-93 0 -149 -40t-86 -103.5t-45 -134.5l-28 -127h313l-23 -109h-313l-203 -953h-123zM955 0l202 953h-234l23 109h235l31 147
q17 81 52 149t87 117t120.5 76t152.5 27q43 0 69 -5.5t36 -10.5l-23 -109q-12 4 -37.5 9t-56.5 5q-93 0 -149 -40t-86 -103.5t-45 -134.5l-28 -127h313l-23 -109h-313l-203 -953h-123z" />
    <glyph glyph-name="f_f_i" unicode="ffi" horiz-adv-x="2045" 
d="M174 0l202 953h-234l23 109h235l31 147q17 81 52 149t87 117t120.5 76t152.5 27q43 0 69 -5.5t36 -10.5l-23 -109q-12 4 -37.5 9t-56.5 5q-93 0 -149 -40t-86 -103.5t-45 -134.5l-28 -127h313l-23 -109h-313l-203 -953h-123zM955 0l202 953h-234l23 109h235l31 147
q17 81 52 149t87 117t120.5 76t152.5 27q43 0 69 -5.5t36 -10.5l-23 -109q-12 4 -37.5 9t-56.5 5q-93 0 -149 -40t-86 -103.5t-45 -134.5l-28 -127h313l-23 -109h-313l-203 -953h-123zM1628 0l225 1062h123l-225 -1062h-123zM1986 1330q-37 0 -63.5 21t-26.5 57
q0 27 13.5 46.5t36.5 30t49 10.5q37 0 63 -21t26 -56q0 -27 -13.5 -46.5t-36 -30.5t-48.5 -11z" />
    <glyph glyph-name="f_f_l" unicode="ffl" horiz-adv-x="2041" 
d="M174 0l202 953h-234l23 109h235l31 147q17 81 52 149t87 117t120.5 76t152.5 27q43 0 69 -5.5t36 -10.5l-23 -109q-12 4 -37.5 9t-56.5 5q-93 0 -149 -40t-86 -103.5t-45 -134.5l-28 -127h313l-23 -109h-313l-203 -953h-123zM955 0l202 953h-234l23 109h235l31 147
q17 81 52 149t87 117t120.5 76t152.5 27q43 0 69 -5.5t36 -10.5l-23 -109q-12 4 -37.5 9t-56.5 5q-93 0 -149 -40t-86 -103.5t-45 -134.5l-28 -127h313l-23 -109h-313l-203 -953h-123zM2089 1563l-332 -1563h-123l332 1563h123z" />
    <glyph glyph-name=".notdef" horiz-adv-x="669" 
d="M-16 73l286 1344h509l-286 -1344h-509zM156 176l-24 26l129 98l-88 98l36 26l88 -98l130 98l24 -26l-130 -98l89 -98l-36 -26l-88 98zM249 612l-25 26l130 98l-88 98l35 26l89 -98l129 98l25 -26l-130 -98l88 -98l-35 -26l-88 98zM30 107h431l272 1276h-431zM341 1048
l-24 26l131 98l-89 98l35 25l88 -97l130 97l25 -25l-131 -98l89 -98l-36 -26l-88 98z" />
    <glyph glyph-name=".null" 
 />
    <glyph glyph-name="nonmarkingreturn" horiz-adv-x="666" 
 />
    <glyph glyph-name="CR" unicode="&#xd;" horiz-adv-x="942" 
 />
    <glyph glyph-name="space" unicode=" " horiz-adv-x="500" 
 />
    <glyph glyph-name="exclam" unicode="!" horiz-adv-x="578" 
d="M496 1473l-268 -1148h-84l226 1148h126zM140 -25q-42 0 -71 29t-29 71t29 71t71 29t71 -29t29 -71t-29 -71t-71 -29z" />
    <glyph glyph-name="quotedbl" unicode="&#x22;" horiz-adv-x="730" 
d="M454 1475l-101 -386h-77l63 386h115zM732 1475l-101 -386h-77l64 386h114z" />
    <glyph glyph-name="numbersign" unicode="#" horiz-adv-x="1676" 
d="M863 1475h117l-678 -1475h-116zM1377 1475h116l-677 -1475h-116zM268 997h1359l-38 -83h-1356zM90 560h1357l-37 -84h-1357z" />
    <glyph glyph-name="dollar" unicode="$" horiz-adv-x="1055" 
d="M668 1475h89l-313 -1475h-90zM464 200q-87 0 -157.5 17.5t-121 49.5t-78 78t-27.5 103q0 22 4 47t8 40h125q-4 -12 -6.5 -31t-2.5 -33q0 -76 70.5 -117.5t201.5 -41.5q88 0 168.5 21.5t132 69t51.5 123.5q0 77 -67 113.5t-210 60.5q-99 16 -178 46.5t-125 82.5t-46 133
q0 84 39.5 146.5t106.5 104.5t151.5 62.5t173.5 20.5q100 0 183 -29t132.5 -84.5t49.5 -134.5q0 -25 -3 -46t-7 -37h-124q4 14 6 27.5t2 32.5q0 57 -35 92t-91.5 51.5t-124.5 16.5q-84 0 -160.5 -22t-125.5 -67t-49 -114q0 -80 73 -116.5t200 -61.5q77 -15 142 -34.5
t112 -49t73 -72t26 -103.5q0 -91 -41 -156.5t-111 -107t-158 -61.5t-182 -20z" />
    <glyph glyph-name="percent" unicode="%" horiz-adv-x="1163" 
d="M1314 1401l-1355 -1343l-44 45l1355 1343zM470 971q-66 0 -125 28t-96 82t-37 130q0 77 37 130.5t96 81.5t125 28q67 0 127 -28t97.5 -81.5t37.5 -130.5q0 -76 -37.5 -130t-97.5 -82t-127 -28zM470 1030q48 0 93 20.5t74 60.5t29 100t-29 100.5t-74 61t-93 20.5
q-47 0 -91 -20.5t-72 -61t-28 -100.5t28 -100t72 -60.5t91 -20.5zM785 28q-66 0 -125 28.5t-96 82t-37 129.5q0 77 37 130.5t96 82t125 28.5q67 0 127 -28.5t97.5 -82t37.5 -130.5q0 -76 -37.5 -129.5t-97.5 -82t-127 -28.5zM785 87q48 0 93 20.5t74 61t29 99.5
q0 60 -29 100.5t-74 61t-93 20.5q-47 0 -91 -20.5t-72 -61t-28 -100.5q0 -59 28 -99.5t72 -61t91 -20.5z" />
    <glyph glyph-name="ampersand" unicode="&#x26;" horiz-adv-x="1391" 
d="M443 -18q-137 0 -228 41t-136.5 110.5t-45.5 154.5q0 127 76.5 225.5t202.5 182.5t275 164q98 53 179.5 114.5t130.5 133t49 153.5q0 68 -47.5 105t-120.5 37q-35 0 -80 -13t-87 -40.5t-69.5 -75t-27.5 -116.5q0 -44 11 -88t37.5 -98t70.5 -131l395 -681q27 -46 50.5 -61
t41.5 -15q15 0 28 3t19 5l-20 -92q-4 -2 -19.5 -5t-37.5 -3q-39 0 -73.5 18t-67.5 74l-410 701q-60 103 -97 187t-37 174q0 89 35.5 154t92.5 107t123.5 62t129.5 20q128 0 199 -57t71 -156q0 -106 -62 -196.5t-158.5 -164.5t-203.5 -133q-134 -73 -242.5 -145.5t-172 -152
t-63.5 -174.5q0 -62 34 -116t101 -87t169 -33q148 0 269 40.5t202 111.5q96 85 155.5 202.5t85.5 240.5h107q-33 -153 -108 -286.5t-181 -225.5q-91 -79 -227 -127t-318 -48z" />
    <glyph glyph-name="quotesingle" unicode="'" horiz-adv-x="292" 
d="M410 1475l-103 -386h-80l62 386h121z" />
    <glyph glyph-name="parenleft" unicode="(" horiz-adv-x="742" 
d="M329 -467q-22 21 -59 81t-74.5 154.5t-63 220t-25.5 276.5q0 216 50.5 423t140 387.5t208.5 320t255 218.5l58 -74q-122 -77 -230.5 -206.5t-192 -297t-132 -362t-48.5 -400.5q0 -132 21 -245t52.5 -200t63 -144.5t54.5 -80.5z" />
    <glyph glyph-name="parenright" unicode=")" horiz-adv-x="742" 
d="M-55 -467l-53 71q143 94 255 244t190 332.5t118 375t40 369.5q0 134 -21 240t-52 184t-63 126.5t-54 67.5l82 71q23 -18 59.5 -71t73 -139.5t61 -206.5t24.5 -273t-28 -316t-82 -322t-134 -302.5t-184 -259.5t-232 -191z" />
    <glyph glyph-name="asterisk" unicode="*" horiz-adv-x="929" 
d="M633 1209l122 -197l-65 -40l-120 212l-211 -212l-56 40l207 197l-220 83l45 59l214 -88l44 223h74l-50 -223l251 88l20 -59z" />
    <glyph glyph-name="plus" unicode="+" horiz-adv-x="1163" 
d="M939 484h-329l-56 -268h-85l56 268h-328l16 83h328l59 268h85l-58 -268h328z" />
    <glyph glyph-name="comma" unicode="," horiz-adv-x="505" 
d="M3 -252l-15 39q37 16 82 53.5t79.5 83t36.5 84.5q1 6 0 11.5t-2 10.5h37q-17 -28 -38.5 -41.5t-49.5 -13.5q-42 0 -70.5 20.5t-28.5 63.5q0 57 36 85.5t89 28.5q48 0 77.5 -27t29.5 -80q0 -67 -42 -132t-103 -114.5t-118 -71.5z" />
    <glyph glyph-name="hyphen" unicode="-" horiz-adv-x="954" 
d="M87 526l17 80h685l-16 -80h-686z" />
    <glyph glyph-name="period" unicode="." horiz-adv-x="476" 
d="M141 -25q-42 0 -71 29t-29 71t29 71t71 29t71 -29t29 -71t-29 -71t-71 -29z" />
    <glyph glyph-name="slash" unicode="/" horiz-adv-x="881" 
d="M1007 1563l-999 -1718h-112l1002 1718h109z" />
    <glyph glyph-name="zero" unicode="0" horiz-adv-x="1118" 
d="M431 -19q-110 0 -179 53.5t-101 149t-32 219.5q0 144 27.5 296.5t80 294t127.5 254t171 178t210 65.5q111 0 179.5 -54.5t100.5 -151t32 -221.5q0 -144 -27.5 -296t-80 -292.5t-127.5 -252t-171 -177t-210 -65.5zM446 90q87 0 161 64t133 170.5t100.5 236t63 264
t21.5 250.5q0 148 -50 226.5t-155 78.5q-88 0 -162 -64t-133 -171t-100 -237.5t-63 -264.5t-22 -251q0 -147 50.5 -224.5t155.5 -77.5z" />
    <glyph glyph-name="one" unicode="1" horiz-adv-x="746" 
d="M681 1481l-315 -1481h-124l285 1342q-10 -11 -52.5 -28.5t-104.5 -34t-132 -24.5l24 112q69 11 130.5 30.5t106 42t61.5 41.5h121z" />
    <glyph glyph-name="two" unicode="2" horiz-adv-x="1104" 
d="M15 0l23 107q17 57 65.5 121.5t115.5 132t142 131.5t143 117q107 84 202.5 168.5t156 182t60.5 218.5q0 97 -51.5 149.5t-156.5 52.5q-104 0 -176.5 -45.5t-117.5 -125.5t-67 -184h-125q30 137 93.5 242.5t165 164.5t243.5 59q109 0 179 -37.5t103.5 -106t33.5 -162.5
q0 -140 -63 -250.5t-163 -203t-212 -178.5q-99 -77 -188.5 -154.5t-152 -150.5t-83.5 -135h663l-24 -113h-809z" />
    <glyph glyph-name="three" unicode="3" horiz-adv-x="1108" 
d="M765 773q65 -3 103.5 -33t56 -80.5t17.5 -113.5q0 -116 -34.5 -218t-99.5 -180t-155.5 -122t-202.5 -44q-116 0 -191 35t-111.5 103t-36.5 166q0 58 7 101.5t12 57.5h125q-3 -8 -10.5 -52t-7.5 -89q0 -118 60 -165.5t168 -47.5q84 0 149.5 36t110.5 98t68 141t23 166
q0 52 -17.5 95t-64 69t-133.5 26h-57l22 102h56q106 0 180 45.5t113 126t39 184.5q0 102 -55 151.5t-157 49.5q-133 0 -226 -75.5t-133 -255.5h-125q30 136 93.5 235t163.5 153t238 54q114 0 186.5 -38.5t106.5 -106.5t34 -159q0 -111 -37.5 -203.5t-107.5 -149.5t-170 -62z
" />
    <glyph glyph-name="four" unicode="4" horiz-adv-x="1078" 
d="M535 0l73 348h-575l21 100l750 1033h168l-219 -1023h206l-23 -110h-206l-73 -348h-122zM157 392l-34 66h509l198 931l37 -7z" />
    <glyph glyph-name="five" unicode="5" horiz-adv-x="1105" 
d="M1066 1366h-563l-175 -560q5 12 28 36t63.5 49.5t97.5 43t129 17.5q141 0 210.5 -86t69.5 -240q0 -130 -33 -246.5t-98.5 -206t-161.5 -141t-221 -51.5q-112 0 -185.5 37.5t-109.5 106.5t-36 163q0 43 5.5 78.5t6.5 42.5h124q-2 -11 -6.5 -42t-4.5 -63q0 -112 57 -163
t164 -51q94 0 164 45t116.5 120.5t70 169t23.5 190.5q0 113 -47.5 170.5t-141.5 57.5q-79 0 -146 -32.5t-115 -78t-72 -85.5l-114 31l251 797h673z" />
    <glyph glyph-name="six" unicode="6" horiz-adv-x="1114" 
d="M441 -19q-156 0 -228 106t-72 285q0 111 17.5 236t52 251t87 239t121.5 202t155 140t189 51q82 0 134.5 -26t81.5 -68t40.5 -92t11.5 -98q0 -19 -2.5 -46.5t-5.5 -36.5h-117q2 11 4 32t2 36q0 46 -14 89.5t-50 71.5t-103 28q-72 0 -138.5 -47.5t-126 -142.5
t-109.5 -237.5t-89 -332.5l-57 -6q24 96 87.5 170t152.5 115.5t189 41.5q102 0 168 -44t98 -121t32 -179q0 -123 -36 -234t-103 -197.5t-161 -136t-211 -49.5zM457 90q89 0 157.5 42t115.5 112.5t71.5 159t24.5 180.5q0 110 -47 179.5t-150 69.5q-121 0 -205.5 -61.5
t-128.5 -168t-44 -240.5q0 -119 51.5 -196t154.5 -77z" />
    <glyph glyph-name="seven" unicode="7" horiz-adv-x="989" 
d="M928 1365v-2h-663l23 112h815l-22 -107q-139 -87 -244.5 -209.5t-184 -266t-135 -297t-97 -305.5t-70.5 -290h-125q41 185 97 381t137 382t196 342t273 260z" />
    <glyph glyph-name="eight" unicode="8" horiz-adv-x="1186" 
d="M481 -19q-117 0 -199.5 40.5t-125.5 115t-43 175.5q0 116 46.5 215.5t129 168t191.5 90.5q-47 11 -87.5 41.5t-65.5 83.5t-25 132q0 101 37.5 183.5t104 141.5t154 91t188.5 32t178 -37t121 -106t44 -165t-40.5 -183.5t-110.5 -148.5t-160 -78q55 -13 99.5 -45.5t71 -87
t26.5 -135.5q0 -114 -39.5 -209.5t-111.5 -166t-169.5 -109.5t-213.5 -39zM497 90q114 0 201 49.5t137 136.5t50 199q0 113 -65 181.5t-189 68.5q-111 0 -199 -53.5t-139.5 -143.5t-51.5 -201q0 -118 71 -177.5t185 -59.5zM654 832q99 0 178.5 44t126 121t46.5 174
q0 109 -68 159t-166 50q-100 0 -179 -41t-124.5 -115t-45.5 -176q0 -98 59 -157t173 -59z" />
    <glyph glyph-name="nine" unicode="9" horiz-adv-x="1103" 
d="M427 -18q-81 0 -133.5 25t-83 66t-43 90t-12.5 97q0 20 3.5 50.5t6.5 38.5h117q-2 -8 -5.5 -35t-3.5 -45q0 -44 15 -84.5t52 -66.5t103 -26q72 0 139 47.5t126 142.5t109 237.5t89 332.5l58 6q-24 -95 -87.5 -169.5t-152.5 -116t-190 -41.5t-167.5 44t-98 121.5
t-31.5 178.5q0 123 36 234t103 197.5t160.5 136t210.5 49.5q155 0 231 -101t76 -277q0 -108 -19 -233.5t-56 -252.5t-91 -242.5t-124 -207t-154.5 -144t-182.5 -52.5zM559 640q117 0 202 65t131 173t46 238q0 117 -51.5 192t-155.5 75q-88 0 -156.5 -42t-115.5 -112.5
t-71.5 -159t-24.5 -180.5q0 -110 46.5 -179.5t149.5 -69.5z" />
    <glyph glyph-name="colon" unicode=":" horiz-adv-x="477" 
d="M141 -25q-42 0 -71 29t-29 71t29 71t71 29t71 -29t29 -71t-29 -71t-71 -29zM317 801q-42 0 -71 29t-29 71t29 71t71 29t71 -29t29 -71t-29 -71t-71 -29z" />
    <glyph glyph-name="semicolon" unicode=";" horiz-adv-x="509" 
d="M7 -254l-15 39q37 16 82 53.5t79.5 83t36.5 84.5q1 6 0 11.5t-2 10.5h37q-17 -28 -38.5 -41.5t-49.5 -13.5q-42 0 -70.5 20.5t-28.5 63.5q0 57 36 85.5t89 28.5q48 0 77.5 -27t29.5 -80q0 -67 -42 -132t-103 -114.5t-118 -71.5zM324 801q-42 0 -71 29t-29 71t29 71t71 29
t71 -29t29 -71t-29 -71t-71 -29z" />
    <glyph glyph-name="less" unicode="&#x3c;" horiz-adv-x="1163" 
d="M770 44l-521 438l21 98l708 439l-27 -121l-632 -381l4 16l470 -380z" />
    <glyph glyph-name="equal" unicode="=" horiz-adv-x="1163" 
d="M955 653h-696l17 82h696zM885 324h-697l17 82h697z" />
    <glyph glyph-name="greater" unicode="&#x3e;" horiz-adv-x="1163" 
d="M375 1019l521 -439l-21 -98l-708 -438l27 122l632 382l-5 -22l-470 382z" />
    <glyph glyph-name="question" unicode="?" horiz-adv-x="1092" 
d="M396 324q22 104 67 179.5t103 133t116 108.5q63 55 118 113.5t90 132t35 172.5q0 111 -58 165t-176 54q-146 0 -240 -86t-128 -246h-112q31 144 99.5 241t168 146t221.5 49q103 0 179 -35t117.5 -104.5t41.5 -172.5q0 -122 -39.5 -206.5t-102 -147.5t-131.5 -121
q-58 -48 -112 -100.5t-95 -118.5t-59 -156h-103zM407 -25q-42 0 -71 29t-29 71t29 71t71 29t71 -29t29 -71t-29 -71t-71 -29z" />
    <glyph glyph-name="at" unicode="@" horiz-adv-x="1919" 
d="M1423 127q-90 -44 -198 -74t-227.5 -45t-245.5 -15q-209 0 -353 67.5t-218.5 189.5t-74.5 285q0 206 86 379.5t236.5 300.5t345 197t412.5 70q147 0 262.5 -38t196 -106t123 -159.5t42.5 -198.5q0 -140 -50 -262.5t-139.5 -216t-208.5 -146t-257 -52.5q-37 0 -72 7.5
t-57.5 31t-22.5 70.5v3.5t1 2.5q-39 -53 -105.5 -80.5t-149.5 -27.5q-80 0 -132.5 30.5t-78 85.5t-25.5 128q0 116 43.5 223t120 191t178 133t217.5 49q71 0 128.5 -28t57.5 -85l43 91h91l-292 -645q-4 -7 -7.5 -18.5t-3.5 -20.5q0 -45 31 -57.5t73 -12.5q114 0 209.5 49
t165 134.5t108 194t38.5 227.5q0 131 -66 228t-187.5 151t-287.5 54q-196 0 -371.5 -65.5t-310.5 -183.5t-212 -277.5t-77 -347.5q0 -221 145.5 -348t408.5 -127q111 0 217 14t205 42t187 70zM771 381q89 0 154.5 38t101.5 114q2 4 18.5 41t41 90.5t49 108t42 94t20.5 46.5
q7 16 12 36.5t5 34.5q0 44 -38.5 70.5t-108.5 26.5q-94 0 -177 -45.5t-146.5 -121.5t-99.5 -167.5t-36 -183.5q0 -84 39.5 -133t122.5 -49z" />
    <glyph glyph-name="A" unicode="A" horiz-adv-x="1206" 
d="M-23 0l734 1480h191l101 -1480h-123l-87 1395h2l-683 -1395h-135zM259 411l21 109h645l-21 -109h-645z" />
    <glyph glyph-name="B" unicode="B" horiz-adv-x="1206" 
d="M809 1475q121 0 200 -30t118 -88.5t39 -142.5q0 -98 -32.5 -177.5t-89 -137t-129.5 -89.5t-155 -35q80 -2 143.5 -35t101 -99t37.5 -168q0 -149 -68.5 -255t-193 -162t-292.5 -56h-449l314 1475h456zM326 781l-48 38h318q132 0 231 41t154.5 122t55.5 202
q0 105 -71.5 150t-202.5 45h-365l68 55zM485 96q194 0 312.5 96t118.5 279q0 99 -41.5 154t-115 77t-169.5 22h-332l63 34l-152 -717l-44 55h360z" />
    <glyph glyph-name="C" unicode="C" horiz-adv-x="1265" 
d="M1164 500q-19 -87 -68 -178t-128 -168.5t-184 -125t-236 -47.5q-150 0 -246 67t-141.5 185.5t-45.5 271.5q0 186 50 362t145 317t230.5 224t307.5 83q154 0 248 -63t136.5 -160.5t42.5 -202.5q0 -26 -3 -50.5t-8 -39.5h-124q3 14 6.5 40t3.5 49q0 84 -33.5 155.5
t-103 115.5t-178.5 44q-143 0 -253.5 -76t-186.5 -203t-115 -281.5t-39 -312.5q0 -195 77.5 -304t240.5 -109q96 0 177 36t143.5 96t103.5 132t56 143h125z" />
    <glyph glyph-name="D" unicode="D" horiz-adv-x="1224" 
d="M39 0l314 1475h332q187 0 298 -69.5t160 -187.5t49 -263q0 -220 -69 -396.5t-185 -301t-260.5 -191t-296.5 -66.5h-342zM174 41l-44 55h251q124 0 245.5 60t220.5 172t158.5 269t59.5 350q0 120 -38.5 217.5t-127.5 156t-242 58.5h-254l68 55z" />
    <glyph glyph-name="E" unicode="E" horiz-adv-x="1080" 
d="M398 1366l71 69l-145 -684l-24 44h593l-23 -110h-593l42 44l-146 -689l-42 69h707l-23 -109h-776l314 1475h776l-23 -109h-708z" />
    <glyph glyph-name="F" unicode="F" horiz-adv-x="1019" 
d="M397 1366l71 69l-147 -692l-33 41h595l-23 -109h-595l50 42l-152 -717h-124l314 1475h766l-23 -109h-699z" />
    <glyph glyph-name="G" unicode="G" horiz-adv-x="1331" 
d="M564 -19q-133 0 -234.5 66.5t-158 187.5t-56.5 285q0 186 55 359.5t156.5 311.5t242.5 219t313 81q112 0 189.5 -34.5t125 -92t69.5 -127t22 -138.5q0 -26 -3.5 -59t-8.5 -52h-121q5 18 8 49.5t3 52.5q0 73 -29 139t-95 107.5t-174 41.5q-146 0 -262 -74t-198 -198
t-125 -276.5t-43 -309.5q0 -133 42.5 -228.5t119.5 -147t179 -51.5q126 0 217 47t148.5 113t82.5 122l43 203h-384l22 104h497l-145 -682h-96l32 175q-16 -26 -69 -72.5t-143 -84t-222 -37.5z" />
    <glyph glyph-name="H" unicode="H" horiz-adv-x="1254" 
d="M1302 1475l-314 -1475h-124l158 741l44 -61h-813l68 61l-158 -741h-124l314 1475h124l-160 -748l-44 63h814l-68 -63l159 748h124z" />
    <glyph glyph-name="I" unicode="I" horiz-adv-x="456" 
d="M51 0l313 1475h123l-313 -1475h-123z" />
    <glyph glyph-name="J" unicode="J" horiz-adv-x="1067" 
d="M401 -19q-172 0 -255.5 87t-83.5 233q0 51 9.5 108t20.5 103h122q-11 -50 -18.5 -97t-7.5 -94q0 -110 54 -169.5t171 -59.5q149 0 238.5 103.5t128.5 289.5l211 990h123l-212 -1005q-23 -107 -63 -196.5t-100.5 -155t-144 -101.5t-193.5 -36z" />
    <glyph glyph-name="K" unicode="K" horiz-adv-x="1120" 
d="M507 757l22 97l404 -854h-134l-361 756l55 -8l-235 -241l31 83l-125 -590h-124l313 1475h125l-176 -826l-31 25l790 801h146z" />
    <glyph glyph-name="L" unicode="L" horiz-adv-x="965" 
d="M40 0l313 1475h124l-305 -1435l-41 69h650l-24 -109h-717z" />
    <glyph glyph-name="M" unicode="M" horiz-adv-x="1569" 
d="M1380 1475h216l-314 -1475h-118l291 1370l4 -2l-698 -1368h-180l-117 1370l5 1l-292 -1371h-118l314 1475h208l107 -1380h-4z" />
    <glyph glyph-name="N" unicode="N" horiz-adv-x="1306" 
d="M160 0h-121l314 1475h202l390 -1403l-11 -6l300 1409h121l-314 -1475h-205l-388 1401l11 6z" />
    <glyph glyph-name="O" unicode="O" horiz-adv-x="1367" 
d="M575 -19q-140 0 -243 64.5t-159 186t-56 292.5q0 185 54 358.5t153.5 311t239.5 217.5t312 80q141 0 244 -63t158.5 -183t55.5 -291q0 -186 -54 -360t-154 -312.5t-239.5 -219.5t-311.5 -81zM588 93q146 0 261 74.5t195.5 199t123 277t42.5 307.5q0 139 -43 234
t-120.5 144.5t-185.5 49.5q-145 0 -260 -74.5t-195.5 -197.5t-122.5 -274.5t-42 -307.5q0 -209 93.5 -320.5t253.5 -111.5z" />
    <glyph glyph-name="P" unicode="P" horiz-adv-x="1124" 
d="M163 0h-124l314 1475h375q151 0 242 -50t132 -134t41 -185q0 -130 -43.5 -234.5t-123 -180.5t-189.5 -116t-242 -40h-268zM287 581l-42 63h298q145 0 252 58.5t166 162.5t59 242q0 79 -32 136.5t-103 90t-188 32.5h-299l70 69z" />
    <glyph glyph-name="Q" unicode="Q" horiz-adv-x="1367" 
d="M510 7l111 -3q0 -68 27.5 -113.5t67.5 -73t78.5 -41t60.5 -18.5l-54 -87q-17 3 -51.5 13t-75.5 31.5t-78.5 58.5t-61.5 94t-24 139zM575 -19q-140 0 -243 64.5t-159 186t-56 292.5q0 185 54 358.5t153.5 311t239.5 217.5t312 80q141 0 244 -63t158.5 -183t55.5 -291
q0 -186 -54 -360t-154 -312.5t-239.5 -219.5t-311.5 -81zM588 93q146 0 261 74.5t195.5 199t123 277t42.5 307.5q0 139 -43 234t-120.5 144.5t-185.5 49.5q-145 0 -260 -74.5t-195.5 -197.5t-122.5 -274.5t-42 -307.5q0 -209 93.5 -320.5t253.5 -111.5z" />
    <glyph glyph-name="R" unicode="R" horiz-adv-x="1172" 
d="M39 0l314 1475h472q171 0 253.5 -77.5t82.5 -208.5q0 -78 -25 -159t-71.5 -150.5t-110.5 -115.5t-140 -54q45 -4 84.5 -22.5t65 -56.5t25.5 -100q0 -26 -9 -75t-22.5 -109t-27 -120.5t-23 -110.5t-9.5 -77q0 -14 1.5 -24.5t3.5 -14.5h-125q-4 11 -4 36t9 72t22 104
t25.5 114t21.5 104.5t9 71.5q0 81 -58 116t-158 35h-400l64 44l-148 -697h-122zM314 720l-48 43h403q102 0 183.5 54t129.5 143t48 192q0 99 -57 156.5t-185 57.5h-390l68 68z" />
    <glyph glyph-name="S" unicode="S" horiz-adv-x="1123" 
d="M452 -19q-124 0 -214 35t-137.5 104.5t-47.5 172.5q0 49 7.5 92t21.5 101h124q-14 -58 -20 -96.5t-6 -77.5q0 -116 72 -167.5t210 -51.5q119 0 211.5 35.5t145.5 106.5t53 179q0 102 -78 167t-214 111q-105 37 -185 87t-125 120t-45 164q0 104 39.5 183.5t110.5 134
t165 82.5t205 28q123 0 212.5 -33.5t137.5 -100t48 -167.5q0 -44 -7 -89.5t-19 -99.5h-125q13 54 19 93.5t6 77.5q0 113 -74 160t-210 47q-111 0 -198 -31.5t-136.5 -96.5t-49.5 -166q0 -114 84.5 -179t225.5 -115q107 -37 182 -86.5t115 -115.5t40 -155q0 -144 -71 -245.5
t-194 -154.5t-279 -53z" />
    <glyph glyph-name="T" unicode="T" horiz-adv-x="1095" 
d="M1182 1366h-451l70 69l-304 -1435h-124l305 1435l41 -69h-450l23 109h914z" />
    <glyph glyph-name="U" unicode="U" horiz-adv-x="1290" 
d="M1141 548q-61 -290 -217 -428.5t-380 -138.5q-197 0 -300.5 92.5t-103.5 282.5q0 82 15 169.5t45 230.5l156 719h124l-156 -725q-21 -95 -34 -161t-19 -116.5t-6 -102.5q0 -150 72.5 -213.5t213.5 -63.5q178 0 297 108t171 352l195 922h124z" />
    <glyph glyph-name="V" unicode="V" horiz-adv-x="1179" 
d="M389 -10l-98 1485h134l77 -1388h-10l659 1388h140l-724 -1485h-178z" />
    <glyph glyph-name="W" unicode="W" horiz-adv-x="1679" 
d="M232 0l61 1475h125l-76 -1416l-20 1l630 1415h163l26 -1415l-20 -1l528 1416h133l-568 -1475h-188l-20 1365h17l-603 -1365h-188z" />
    <glyph glyph-name="X" unicode="X" horiz-adv-x="1151" 
d="M593 781l-7 -95l-293 789h132l252 -703l-88 -6l544 709h146l-619 -796l20 108l293 -787h-132l-256 701l79 -7l-556 -694h-148z" />
    <glyph glyph-name="Y" unicode="Y" horiz-adv-x="1111" 
d="M1222 1475l-608 -961l-110 -514h-123l109 514l-199 961h128l174 -880h-54l548 880h135z" />
    <glyph glyph-name="Z" unicode="Z" horiz-adv-x="1091" 
d="M170 109h706l-24 -109h-852l21 99l987 1268l2 -1h-673l23 109h816l-20 -96l-985 -1268z" />
    <glyph glyph-name="bracketleft" unicode="[" horiz-adv-x="784" 
d="M838 1626l-20 -92h-294l-399 -1879h294l-19 -92h-408l438 2063h408z" />
    <glyph glyph-name="backslash" unicode="\" horiz-adv-x="1001" 
d="M264 1563h107l355 -1718h-105z" />
    <glyph glyph-name="bracketright" unicode="]" horiz-adv-x="784" 
d="M366 1626h407l-438 -2062h-408l20 92h295l399 1878h-295z" />
    <glyph glyph-name="asciicircum" unicode="^" horiz-adv-x="1163" 
d="M169 919l568 614h98l309 -614h-110l-264 551h16l-497 -551h-120z" />
    <glyph glyph-name="underscore" unicode="_" horiz-adv-x="1379" 
d="M-108 -196l17 85h1239l-17 -85h-1239z" />
    <glyph glyph-name="grave" unicode="`" horiz-adv-x="646" 
d="M660 1242h-107l-253 233h130z" />
    <glyph glyph-name="a" unicode="a" horiz-adv-x="1286" 
d="M531 -19q-115 0 -209 47.5t-149.5 143.5t-55.5 240q0 141 47 261.5t131.5 211.5t200 141.5t251.5 50.5q109 0 191.5 -40.5t129 -117t46.5 -184.5q0 -31 -4 -65t-11 -62h-77q6 20 9 45.5t3 47.5q0 81 -37 140.5t-102.5 91.5t-149.5 32q-115 0 -206.5 -41.5t-157 -115.5
t-100 -172.5t-34.5 -211.5q0 -110 40.5 -184t111.5 -110.5t160 -36.5q101 0 190 43.5t152.5 121.5t84.5 182l87 -5q-30 -145 -110 -246.5t-191.5 -154.5t-240.5 -53zM1017 0h-125l225 1062h125z" />
    <glyph glyph-name="b" unicode="b" horiz-adv-x="1250" 
d="M552 -19q-107 0 -192 46t-133.5 126.5t-48.5 183.5q0 28 3.5 54t8.5 45l84 2q-3 -12 -5.5 -32t-2.5 -39q0 -76 37.5 -137t102 -96.5t146.5 -35.5q108 0 192.5 44.5t143 122.5t88.5 178t30 211q0 152 -69 231t-201 79q-93 0 -182 -45t-154 -120t-85 -166l-96 3
q27 126 111 226t199.5 157.5t237.5 57.5q171 0 268.5 -109t97.5 -309q0 -138 -41.5 -260.5t-118.5 -216.5t-184 -147.5t-237 -53.5zM57 0l333 1563h124l-332 -1563h-125z" />
    <glyph glyph-name="c" unicode="c" horiz-adv-x="1257" 
d="M548 -19q-195 0 -313 115t-118 324q0 140 49.5 259.5t137 209t205.5 139t255 49.5q135 0 225 -50.5t134.5 -127.5t44.5 -158q0 -16 -1 -30t-3 -21h-123q1 6 2 14.5t1 17.5q0 74 -35.5 128t-101.5 84t-159 30q-112 0 -205 -41t-160 -114t-104 -170.5t-37 -212.5
q0 -164 87.5 -248t233.5 -84q121 0 206.5 39t136 101t67.5 129h123q-13 -70 -55.5 -138t-112.5 -123t-165.5 -88t-214.5 -33z" />
    <glyph glyph-name="d" unicode="d" horiz-adv-x="1239" 
d="M483 -19q-170 0 -269 109t-99 306q0 138 41.5 261t118 217.5t183.5 148t238 53.5q108 0 192.5 -45t133.5 -124t49 -182q0 -27 -4 -56.5t-9 -46.5l-85 -2q5 17 7.5 38.5t2.5 36.5q0 76 -37.5 137t-102 96t-146.5 35q-109 0 -193.5 -44.5t-142.5 -122t-88.5 -178
t-30.5 -211.5q0 -149 71.5 -229t202.5 -80q99 0 186.5 46t150 122.5t81.5 169.5l98 -2q-27 -126 -107 -229t-195.5 -163.5t-246.5 -60.5zM841 0l332 1563h124l-332 -1563h-124z" />
    <glyph glyph-name="e" unicode="e" horiz-adv-x="1288" 
d="M184 479l24 111h860l-25 -35q5 21 9 49.5t4 62.5q0 83 -33.5 150.5t-101.5 107.5t-173 40q-113 0 -206.5 -42t-162 -116.5t-106 -173t-37.5 -212.5q0 -97 35.5 -171t108.5 -115t184 -41q93 0 165.5 22.5t124 59.5t83 78.5t43.5 78.5h125q-15 -59 -59.5 -120.5
t-116.5 -114.5t-168.5 -85.5t-214.5 -32.5q-136 0 -232.5 55.5t-147 154t-50.5 227.5q0 139 49.5 258.5t138 210t205.5 141t251 50.5t226.5 -55.5t140.5 -150.5t48 -214q0 -42 -7.5 -92t-17.5 -86h-966z" />
    <glyph glyph-name="f" unicode="f" horiz-adv-x="781" 
d="M174 0l202 953h-234l23 109h235l31 147q17 81 52 149t87 117t120.5 76t152.5 27q43 0 69 -5.5t36 -10.5l-23 -109q-12 4 -37.5 9t-56.5 5q-93 0 -149 -40t-86 -103.5t-45 -134.5l-28 -127h313l-23 -109h-313l-203 -953h-123z" />
    <glyph glyph-name="g" unicode="g" horiz-adv-x="1284" 
d="M458 -450q-77 0 -154 16.5t-141.5 50.5t-103 87.5t-38.5 127.5q0 21 3 39t8 39h124q-4 -18 -6 -31t-2 -26q0 -68 44.5 -112t117 -65.5t154.5 -21.5q98 0 185 33t151.5 113t94.5 220l222 1042h124l-221 -1042q-28 -132 -83 -222.5t-130 -144.5t-164 -78.5t-185 -24.5z
M537 -19q-114 0 -210 47t-153.5 142.5t-57.5 239.5q0 140 47 260.5t132.5 212t200.5 143t250 51.5q109 0 193 -40.5t132 -117t48 -184.5q0 -27 -4.5 -65t-11.5 -62h-82q5 17 8.5 45.5t3.5 47.5q0 81 -37 140.5t-102 91.5t-150 32q-113 0 -205 -42.5t-157.5 -117.5t-101 -174
t-35.5 -212q0 -110 41.5 -182.5t112.5 -108t160 -35.5q98 0 187 43.5t153.5 121.5t86.5 182l87 -5q-30 -144 -109 -245.5t-190 -155t-237 -53.5z" />
    <glyph glyph-name="h" unicode="h" horiz-adv-x="1219" 
d="M821 0l100 454q16 66 26.5 121.5t16.5 102t6 82.5q0 40 -13 76t-41.5 63.5t-73.5 44t-109 16.5q-101 0 -189 -42t-147.5 -111.5t-78.5 -153.5l-83 24q23 107 102 198t194 146.5t246 55.5q84 0 145.5 -23t100.5 -62.5t57.5 -91t18.5 -109.5q0 -62 -14.5 -143.5
t-42.5 -204.5l-98 -443h-123zM57 0l332 1563h124l-332 -1563h-124z" />
    <glyph glyph-name="i" unicode="i" horiz-adv-x="483" 
d="M66 0l225 1062h123l-225 -1062h-123zM424 1330q-37 0 -63.5 21t-26.5 57q0 27 13.5 46.5t36.5 30t49 10.5q37 0 63 -21t26 -56q0 -27 -13.5 -46.5t-36 -30.5t-48.5 -11z" />
    <glyph glyph-name="j" unicode="j" horiz-adv-x="511" 
d="M-217 -443q-31 0 -52.5 4.5t-32.5 9.5l25 92q13 -4 31 -8t48 -4q90 0 144 40.5t82 100t40 117.5l246 1153h124l-247 -1162q-14 -65 -39.5 -126t-71.5 -110t-118 -78t-179 -29zM445 1330q-37 0 -63.5 21t-26.5 57q0 27 13.5 46.5t36.5 30t49 10.5q37 0 63.5 -21t26.5 -56
q0 -27 -14 -46.5t-36.5 -30.5t-48.5 -11z" />
    <glyph glyph-name="k" unicode="k" horiz-adv-x="1030" 
d="M57 0l332 1563h118l-208 -979l-43 22l641 456h179l-611 -443l42 63l339 -682h-129l-297 608l20 -8l-184 -135l32 62l-113 -527h-118z" />
    <glyph glyph-name="l" unicode="l" horiz-adv-x="479" 
d="M527 1563l-332 -1563h-123l332 1563h123z" />
    <glyph glyph-name="m" unicode="m" horiz-adv-x="1753" 
d="M707 0l114 530q22 98 33 160.5t11 99.5q0 43 -15 81.5t-54.5 63.5t-112.5 25q-85 0 -149.5 -33.5t-110 -86.5t-73.5 -113t-39 -113l-68 30q25 114 92 213t166 159.5t221 60.5q94 0 154 -30.5t89 -87t29 -133.5q0 -31 -6.5 -74.5t-18 -101t-28.5 -131.5l-111 -519h-123z
M57 0l226 1062h124l-226 -1062h-124zM1355 0l118 529q17 79 25.5 128t11.5 80.5t3 56.5q0 42 -14.5 79.5t-55 62t-117.5 24.5q-85 0 -149 -33t-108 -84.5t-69.5 -108t-35.5 -102.5l-68 27q23 108 87.5 203.5t162 155t220.5 59.5q91 0 153 -29.5t93 -85t31 -135.5
q0 -34 -5 -75.5t-15.5 -96t-26.5 -129.5l-118 -526h-123z" />
    <glyph glyph-name="n" unicode="n" horiz-adv-x="1217" 
d="M821 0l122 567q16 76 23.5 120.5t7.5 81.5q0 89 -62 140t-183 51q-89 0 -177.5 -44.5t-153.5 -120.5t-85 -171l-74 28q20 92 73.5 169.5t129 134.5t162 89t172.5 32q151 0 240 -70t89 -199q0 -49 -11 -110.5t-29 -140.5l-121 -557h-123zM57 0l226 1062h124l-226 -1062
h-124z" />
    <glyph glyph-name="o" unicode="o" horiz-adv-x="1308" 
d="M554 -19q-136 0 -234 54.5t-151 151.5t-53 226q0 140 48.5 261t135 211.5t203 141t252.5 50.5q137 0 234.5 -56t149.5 -152.5t52 -218.5q0 -148 -49.5 -270.5t-136.5 -211.5t-202.5 -138t-248.5 -49zM563 92q141 0 254.5 68.5t180.5 191t67 285.5q0 100 -37 173.5
t-107.5 114.5t-173.5 41q-110 0 -202.5 -41.5t-160 -115.5t-105 -172t-37.5 -212q0 -154 83.5 -243.5t237.5 -89.5z" />
    <glyph glyph-name="p" unicode="p" horiz-adv-x="1250" 
d="M-35 -437l318 1499h124l-319 -1499h-123zM552 -19q-107 0 -192 46t-133.5 126.5t-48.5 183.5q0 34 4 62.5t7 36.5l85 2q-3 -10 -6 -32t-3 -39q0 -76 37.5 -137t102.5 -96.5t147 -35.5q108 0 192.5 44.5t143 122.5t88.5 178t30 211q0 152 -69 231t-201 79
q-93 0 -182.5 -45t-154 -120t-84.5 -166l-96 3q27 126 111 226t199.5 157.5t237.5 57.5q171 0 268.5 -109t97.5 -309q0 -138 -41.5 -260.5t-118.5 -216.5t-184 -147.5t-237 -53.5z" />
    <glyph glyph-name="q" unicode="q" horiz-adv-x="1239" 
d="M483 -19q-170 0 -269 109t-99 306q0 138 41.5 261.5t118 217.5t183.5 148t238 54q108 0 192.5 -45t133.5 -124.5t49 -182.5q0 -27 -4.5 -57t-8.5 -46l-85 -2q5 17 7.5 38.5t2.5 36.5q0 76 -37.5 137t-102 96.5t-146.5 35.5q-109 0 -193.5 -45t-142.5 -122.5t-88.5 -178
t-30.5 -211.5q0 -149 71.5 -229t202.5 -80q99 0 186.5 46t150 122.5t81.5 169.5l98 -2q-26 -126 -107 -228.5t-196 -163.5t-246 -61zM748 -437l319 1499h123l-318 -1499h-124z" />
    <glyph glyph-name="r" unicode="r" horiz-adv-x="790" 
d="M58 0l225 1062h124l-66 -313l-47 14q17 50 52 104.5t88 102.5t123.5 77.5t158.5 29.5q63 0 101.5 -11t46.5 -17l-59 -120q-9 7 -37.5 18t-86.5 11q-84 0 -148 -32.5t-109 -84.5t-72.5 -111t-38.5 -112l-132 -618h-123z" />
    <glyph glyph-name="s" unicode="s" horiz-adv-x="1119" 
d="M451 -19q-87 0 -157.5 17.5t-121 49.5t-78 78t-27.5 103q0 22 4 47t8 40h125q-4 -12 -6.5 -31t-2.5 -33q0 -76 70.5 -117.5t201.5 -41.5q88 0 168.5 21.5t132 68.5t51.5 124t-67 113.5t-210 60.5q-99 16 -178 46.5t-125 82.5t-46 133q0 84 39.5 146.5t106.5 104.5
t151.5 62.5t173.5 20.5q100 0 183 -29t132.5 -84.5t49.5 -134.5q0 -25 -3 -46t-7 -37h-124q4 14 6 27.5t2 32.5q0 57 -35 92t-91.5 51.5t-124.5 16.5q-84 0 -160.5 -22t-125.5 -67t-49 -114q0 -80 73 -116.5t200 -61.5q77 -15 142 -34.5t112 -49t73 -72t26 -103.5
q0 -91 -41 -156.5t-111 -107t-158 -61.5t-182 -20z" />
    <glyph glyph-name="t" unicode="t" horiz-adv-x="836" 
d="M431 -16q-38 0 -73 7.5t-62.5 26.5t-43 52t-15.5 83q0 35 7.5 77.5t20.5 100.5l132 622h-255l23 109h189q25 0 39 3t22 11.5t13 26.5t12 48l54 254h124l-73 -343h340l-23 -109h-340l-124 -581q-14 -65 -22 -109.5t-8 -74.5q0 -44 19.5 -69.5t66.5 -25.5q30 0 61.5 5.5
t46.5 11.5l-22 -109q-17 -6 -45 -11.5t-64 -5.5z" />
    <glyph glyph-name="u" unicode="u" horiz-adv-x="1183" 
d="M442 -18q-114 0 -182.5 40t-99 105t-30.5 137q0 51 9 105.5t26 136.5l118 556h125l-115 -542q-17 -78 -26 -132t-9 -98q0 -83 52.5 -138.5t167.5 -55.5q98 0 184.5 54t147 137.5t78.5 171.5l77 -31q-17 -80 -63 -158.5t-115 -144t-156.5 -104.5t-188.5 -39zM790 0
l226 1062h123l-225 -1062h-124z" />
    <glyph glyph-name="v" unicode="v" horiz-adv-x="1050" 
d="M1091 1062l-597 -1062h-158l-152 1062h128l125 -989h-20l540 989h134z" />
    <glyph glyph-name="w" unicode="w" horiz-adv-x="1495" 
d="M900 0l-83 1062h107l81 -1002h-23l420 1002h133l-465 -1062h-170zM200 0l-16 1062h125l-4 -1002h-24l505 1002h116l-531 -1062h-171z" />
    <glyph glyph-name="x" unicode="x" horiz-adv-x="1055" 
d="M489 571l-25 -49l-275 540h135l253 -502l-69 31l428 471h142l-525 -566l32 58l276 -554h-136l-255 510l62 -35l-447 -475h-141z" />
    <glyph glyph-name="y" unicode="y" horiz-adv-x="1018" 
d="M-29 -444q-37 0 -68 4.5t-37 7.5l23 111q11 -7 39.5 -11.5t55.5 -4.5q69 0 122.5 34t94.5 86t71 107l59 107l-144 1065h126l121 -950h-22l513 950h133l-648 -1167q-48 -87 -105.5 -164.5t-137.5 -126t-196 -48.5z" />
    <glyph glyph-name="z" unicode="z" horiz-adv-x="973" 
d="M146 113h652l-24 -113h-797l24 109l821 843l1 -3h-612l24 113h754l-23 -109l-818 -841z" />
    <glyph glyph-name="braceleft" unicode="{" horiz-adv-x="801" 
d="M884 1517q-68 0 -127.5 -28.5t-100.5 -82t-57 -128.5l-98 -457q-16 -76 -45.5 -127.5t-75.5 -81.5t-111 -42l1 6q43 -10 74.5 -28.5t48.5 -48.5t17 -74q0 -42 -18.5 -128.5t-41.5 -183.5q-24 -100 -43.5 -194t-19.5 -140q0 -79 54 -115.5t141 -36.5l-20 -94
q-81 0 -149 20t-109 66t-41 123q0 52 21 151t45 201q24 96 41.5 180.5t17.5 124.5q0 53 -26.5 82t-88.5 50l18 82q64 20 102.5 46t60 69t36.5 113l99 468q22 103 83 170t148 100t184 33z" />
    <glyph glyph-name="bar" unicode="|" horiz-adv-x="568" 
d="M15 -280l391 1834h101l-392 -1834h-100z" />
    <glyph glyph-name="braceright" unicode="}" horiz-adv-x="801" 
d="M349 1517l20 95q83 0 149.5 -25t105.5 -76.5t39 -129.5q0 -36 -18 -125t-41 -189q-23 -101 -42.5 -192.5t-19.5 -128.5q0 -53 27 -82t89 -51l-18 -82q-64 -19 -102.5 -45t-60 -69t-36.5 -113l-106 -495q-22 -103 -82.5 -163t-145.5 -86.5t-180 -26.5l20 94
q102 0 178.5 50.5t101.5 163.5l102 482q16 76 46 127.5t76 82.5t111 43l-1 -6q-43 11 -74.5 29t-49 47.5t-17.5 73.5q0 33 18.5 120.5t40.5 186.5q23 101 41.5 191.5t18.5 125.5q0 82 -52 127.5t-138 45.5z" />
    <glyph glyph-name="asciitilde" unicode="~" horiz-adv-x="1163" 
d="M895 720q-4 -24 -21.5 -56.5t-51.5 -57t-88 -24.5q-43 0 -73 17.5t-53 37.5q-19 16 -41.5 30t-54.5 14q-44 0 -62 -24t-22 -47h-79q5 28 26 60.5t57.5 56.5t87.5 24q44 0 71 -16.5t49 -35.5q21 -19 45 -33t53 -14q45 0 60 23t20 45h77z" />
    <glyph glyph-name="uni00A0" unicode="&#xa0;" horiz-adv-x="500" 
 />
    <glyph glyph-name="exclamdown" unicode="&#xa1;" horiz-adv-x="578" 
d="M35 -419l269 1148h84l-226 -1148h-127zM392 1079q42 0 71 -29t29 -71q0 -41 -29 -70.5t-71 -29.5t-71 29.5t-29 70.5q0 42 29 71t71 29z" />
    <glyph glyph-name="cent" unicode="&#xa2;" horiz-adv-x="1257" 
d="M813 1475h69l-314 -1475h-69zM593 193q-195 0 -313 115t-118 324q0 140 49.5 259.5t137 209t205.5 139t255 49.5q135 0 225 -50.5t134.5 -127.5t44.5 -158q0 -16 -1 -30t-3 -21h-123q1 6 2 14.5t1 17.5q0 74 -35.5 128t-101.5 84t-159 30q-112 0 -205 -41t-160 -114
t-104 -170.5t-37 -212.5q0 -164 87.5 -248t233.5 -84q121 0 206.5 39t136 101t67.5 129h123q-13 -70 -55.5 -138t-112.5 -123t-165.5 -88t-214.5 -33z" />
    <glyph glyph-name="sterling" unicode="&#xa3;" horiz-adv-x="1059" 
d="M28 603l17 80h685l-16 -80h-686zM971 1201q-10 51 -39.5 96t-84 73.5t-142.5 28.5q-110 0 -194.5 -50.5t-131.5 -139.5t-47 -205q0 -62 11.5 -120t23 -121.5t11.5 -143.5q0 -96 -24.5 -192.5t-72.5 -183.5t-119 -154.5t-165 -105.5l-38 75q75 30 132 87t96.5 131t60 155
t20.5 158q0 76 -12 140.5t-24 128.5t-12 137q0 148 61.5 259.5t171 174t252.5 62.5q90 0 153 -21t104 -56t64.5 -77t33.5 -84zM832 16q-21 -10 -80.5 -26t-131.5 -16q-74 0 -128 19t-106.5 37.5t-120.5 18.5q-58 0 -114 -13.5t-97.5 -29.5t-56.5 -23l15 34q11 5 32.5 19
t51 32.5t65 35.5t75 29t80.5 12q54 0 93 -11.5t72 -26t70 -25.5t88 -11q56 0 103.5 14t64.5 22z" />
    <glyph glyph-name="currency" unicode="&#xa4;" horiz-adv-x="1307" 
d="M1392 1291l51 -65l-264 -217l-51 65zM1152 112l-172 218l70 56l171 -217zM297 1291l172 -217l-70 -57l-172 217zM53 104l-53 67l266 219l51 -68zM626 152q-136 0 -234.5 54.5t-151 151.5t-52.5 226q0 140 48 261t135 211.5t203.5 141t252.5 50.5q137 0 234.5 -56
t149 -152.5t51.5 -218.5q0 -148 -49 -270.5t-136 -211.5t-203 -138t-248 -49zM635 263q141 0 254.5 68.5t180 191t66.5 285.5q0 100 -36.5 173.5t-107 114.5t-174.5 41q-110 0 -202 -41.5t-159.5 -115.5t-105 -172t-37.5 -212q0 -154 83 -243.5t238 -89.5z" />
    <glyph glyph-name="yen" unicode="&#xa5;" horiz-adv-x="1111" 
d="M165 509l21 81h750l-21 -81h-750zM113 281l21 81h750l-20 -81h-751zM1222 1475l-608 -961l-110 -514h-123l109 514l-199 961h128l174 -880h-54l548 880h135z" />
    <glyph glyph-name="brokenbar" unicode="&#xa6;" horiz-adv-x="568" 
d="M21 -258l162 765h101l-162 -765h-101zM244 791l162 763h101l-162 -763h-101z" />
    <glyph glyph-name="section" unicode="&#xa7;" horiz-adv-x="1289" 
d="M755 201l-83 35q78 22 150.5 68t118.5 110.5t46 141.5q0 67 -42 116.5t-110 89.5t-149 78q-86 41 -167 86t-132.5 101t-51.5 128q0 104 64 178t165.5 113.5t215.5 39.5q149 0 245 -56t96 -174q0 -19 -4 -46t-9 -48h-109q5 22 9 47.5t4 41.5q0 54 -24 86.5t-61.5 49.5
t-79 23t-76.5 6q-85 0 -159.5 -31t-120.5 -87t-46 -132q0 -57 39.5 -100.5t103.5 -79t137 -68.5q88 -40 170.5 -86.5t136 -107.5t53.5 -147q0 -90 -46 -164.5t-121.5 -128.5t-162.5 -83zM447 -304q-149 0 -245.5 56t-96.5 175q0 19 4.5 46t9.5 48h108q-5 -22 -9 -48t-4 -42
q0 -54 24.5 -86.5t62 -49.5t79 -23t75.5 -6q86 0 160.5 31t120.5 87t46 131q0 59 -40 103t-104.5 79.5t-136.5 67.5q-88 39 -170.5 85.5t-135.5 108t-53 147.5q0 89 46 163.5t121.5 128.5t162.5 83l82 -35q-78 -21 -150.5 -67t-118.5 -110t-46 -142q0 -67 42 -117t110.5 -90
t149.5 -78q87 -40 167.5 -85t131.5 -101t51 -131q0 -102 -62 -176t-162.5 -113.5t-219.5 -39.5z" />
    <glyph glyph-name="dieresis" unicode="&#xa8;" horiz-adv-x="707" 
d="M360 1329q-35 0 -60 21t-25 54q0 37 28 60t66 23q34 0 59 -20.5t25 -54.5q0 -37 -28 -60t-65 -23zM718 1329q-34 0 -59 21t-25 54q0 37 28 60t65 23q34 0 59.5 -20.5t25.5 -54.5q0 -37 -28.5 -60t-65.5 -23z" />
    <glyph glyph-name="copyright" unicode="&#xa9;" horiz-adv-x="1772" 
d="M787 28q-177 0 -311 66t-208.5 188.5t-74.5 290.5q0 183 68 342t189.5 279.5t281.5 188.5t343 68q177 0 310.5 -66t208 -187.5t74.5 -290.5q0 -181 -68 -340t-189.5 -280.5t-281 -190t-342.5 -68.5zM792 83q169 0 317 64.5t260 177.5t175.5 260.5t63.5 313.5
q0 154 -67.5 265.5t-188.5 172t-281 60.5q-169 0 -317.5 -63.5t-261 -176t-176 -259.5t-63.5 -314q0 -155 67.5 -267.5t189 -173t282.5 -60.5zM841 262q-102 0 -180 39.5t-121.5 117.5t-43.5 192q0 126 37.5 236t107 193.5t168 131.5t220.5 48q94 0 156.5 -30.5t98.5 -77
t51.5 -95.5t15.5 -86q0 -19 -1.5 -31t-5.5 -27h-96q2 7 4 19t2 29q0 26 -10 63t-36 73t-72 60.5t-118 24.5q-134 0 -229.5 -74t-146 -194t-50.5 -259q0 -135 70 -205t187 -70q87 0 159.5 39.5t121 101.5t63.5 128h96q-22 -96 -87 -174.5t-158.5 -125.5t-202.5 -47z" />
    <glyph glyph-name="ordfeminine" unicode="&#xaa;" horiz-adv-x="652" 
d="M649 1017h-65q0 18 2 44t7 50l47 212q1 6 4 20t3 20q0 35 -27.5 53t-91.5 18q-75 0 -121 -27t-58 -80h-60q16 77 80.5 119t163.5 42q79 0 127.5 -29t48.5 -88q0 -9 -2 -23.5t-4 -24.5l-48 -237q-4 -17 -5 -36t-1 -33zM402 1010q-79 0 -123.5 30t-44.5 84q0 51 31 82
t83 48t116 27q107 16 141.5 28.5t38.5 30.5l41 -30q-7 -20 -66.5 -41.5t-153.5 -36.5q-77 -12 -121 -32t-44 -71q0 -33 31 -48.5t88 -15.5q40 0 81.5 15.5t72.5 43.5t39 66l39 -21q-15 -72 -87 -115.5t-162 -43.5z" />
    <glyph glyph-name="guillemotleft" unicode="&#xab;" horiz-adv-x="725" 
d="M511 885l-391 -320l255 -314h-80l-253 314l387 320h82zM765 885l-390 -320l251 -314h-78l-253 314l387 320h83z" />
    <glyph glyph-name="logicalnot" unicode="&#xac;" horiz-adv-x="1163" 
d="M790 351l68 321l45 -57h-672l17 81h696l-74 -345h-80z" />
    <glyph glyph-name="uni00AD" unicode="&#xad;" horiz-adv-x="753" 
d="M87 526l18 80h484l-17 -80h-485z" />
    <glyph glyph-name="registered" unicode="&#xae;" horiz-adv-x="1238" 
d="M606 494q-127 0 -223 48t-150 135t-54 205q0 125 49 234t135.5 192t200 129.5t240.5 46.5t223 -48t149.5 -134.5t53.5 -204.5q0 -125 -48.5 -234t-135 -192t-199.5 -130t-241 -47zM610 541q120 0 223 43.5t180 120t120.5 177.5t43.5 216q0 158 -102 248t-275 90
q-119 0 -222 -43t-180.5 -119t-121.5 -177t-44 -216q0 -158 103 -249t275 -91zM451 690l130 613h202q85 0 130.5 -26t45.5 -88q0 -79 -48 -133t-130 -59q54 -4 77 -25.5t23 -58.5q0 -21 -9 -60t-18 -78.5t-9 -65.5q0 -16 3 -19h-59q0 2 -0.5 6.5t-0.5 13.5q0 26 8 61t16 69
t8 54q0 38 -20 53.5t-52 19t-68 3.5h-111l-59 -280h-59zM579 1019h114q94 0 151.5 40t57.5 119q0 46 -31 62.5t-86 16.5h-155z" />
    <glyph glyph-name="macron" unicode="&#xaf;" horiz-adv-x="750" 
d="M300 1328l14 60h483l-14 -60h-483z" />
    <glyph glyph-name="degree" unicode="&#xb0;" horiz-adv-x="669" 
d="M453 1207q49 0 97 39t48 105q0 34 -23 63t-72 29q-51 0 -98.5 -40t-47.5 -102q0 -36 23 -65t73 -29zM445 1144q-75 0 -114 44t-39 104q0 61 33 109t83 76.5t103 28.5q74 0 113 -45.5t39 -102.5q0 -62 -33.5 -110.5t-84 -76t-100.5 -27.5z" />
    <glyph glyph-name="plusminus" unicode="&#xb1;" horiz-adv-x="1163" 
d="M147 211l17 83h724l-17 -83h-724zM977 664h-329l-56 -267h-85l56 267h-328l16 84h328l59 268h85l-58 -268h328z" />
    <glyph glyph-name="uni00B2" unicode="&#xb2;" horiz-adv-x="870" 
d="M122 590l19 90q13 42 64.5 91.5t122 99t141.5 89.5q72 43 142.5 90.5t118 104.5t47.5 126q0 58 -41.5 89t-123.5 31q-117 0 -177.5 -59t-78.5 -147h-108q28 130 120 210.5t257 80.5q130 0 195 -52.5t65 -140.5q0 -87 -49 -152.5t-123.5 -117.5t-152.5 -98
q-64 -39 -126 -83t-105.5 -87.5t-53.5 -83.5h494l-17 -81h-630z" />
    <glyph glyph-name="uni00B3" unicode="&#xb3;" horiz-adv-x="874" 
d="M679 1056q83 -2 115.5 -42t32.5 -98q0 -99 -47.5 -176t-130 -120t-187.5 -43q-96 0 -157 25t-90 71t-29 109q0 30 4.5 52.5t5.5 29.5h108q-2 -7 -5.5 -24.5t-3.5 -43.5q0 -74 47.5 -104.5t131.5 -30.5q74 0 129 33.5t86.5 89.5t31.5 125q0 45 -36.5 76t-128.5 31h-40
l15 73h40q66 0 117.5 23t82 65.5t30.5 100.5q0 62 -44.5 93t-123.5 31q-98 0 -165.5 -44.5t-89.5 -143.5h-108q18 80 64.5 141t123.5 96t185 35q91 0 150.5 -24t88 -65.5t28.5 -97.5q0 -102 -63.5 -171t-167.5 -72z" />
    <glyph glyph-name="acute" unicode="&#xb4;" horiz-adv-x="601" 
d="M274 1242l229 233h131l-254 -233h-106z" />
    <glyph glyph-name="uni00B5" unicode="&#xb5;" horiz-adv-x="1136" 
d="M745 0l225 1062h124l-225 -1062h-124zM835 419l43 -31q-15 -71 -54.5 -143t-99.5 -131.5t-138.5 -95.5t-171.5 -36q-112 0 -160 45.5t-60 109.5l-121 -574h-125l318 1499h125l-138 -647q-6 -32 -10.5 -66.5t-4.5 -64.5q0 -82 41.5 -140t153.5 -58q98 0 182.5 46.5
t143 122.5t76.5 164z" />
    <glyph glyph-name="paragraph" unicode="&#xb6;" horiz-adv-x="1101" 
d="M486 -170l168 784h-20q-150 0 -235.5 51.5t-121.5 134t-36 174.5q0 158 72.5 269.5t201 170.5t296.5 59h338l-350 -1643h-93l333 1562h-129l-333 -1562h-91z" />
    <glyph glyph-name="periodcentered" unicode="&#xb7;" horiz-adv-x="476" 
d="M282 637q-42 0 -71 29t-29 71q0 41 29 70.5t71 29.5t71 -29.5t29 -70.5q0 -42 -29 -71t-71 -29z" />
    <glyph glyph-name="cedilla" unicode="&#xb8;" horiz-adv-x="805" 
d="M299 -114q45 0 81 -28t36 -88q0 -65 -34 -109t-89 -66.5t-117 -22.5q-36 0 -68 5.5t-54.5 14t-30.5 14.5l37 57q11 -8 43.5 -21t81.5 -13q67 0 116.5 35.5t49.5 101.5q0 36 -20.5 52t-54.5 16q-26 0 -55 -10.5t-46 -28.5l-58 20l93 185h70l-87 -173l-18 7
q11 21 48.5 36.5t75.5 15.5z" />
    <glyph glyph-name="uni00B9" unicode="&#xb9;" horiz-adv-x="597" 
d="M544 1478l-188 -888h-108l167 783q-8 -6 -42.5 -23.5t-84.5 -33.5t-104 -21l17 79q52 7 101.5 25.5t87 41t50.5 37.5h104z" />
    <glyph glyph-name="ordmasculine" unicode="&#xba;" horiz-adv-x="794" 
d="M539 1017q-63 0 -120 27t-92.5 79t-35.5 125q0 74 35.5 125.5t92.5 79t120 27.5q65 0 122.5 -27.5t94 -79t36.5 -125.5q0 -73 -36.5 -125t-94 -79t-122.5 -27zM539 1073q47 0 90 20t71.5 59t28.5 96q0 58 -28.5 97t-71.5 59t-90 20q-45 0 -88 -20t-70 -59t-27 -97
q0 -57 27 -96t70 -59t88 -20z" />
    <glyph glyph-name="guillemotright" unicode="&#xbb;" horiz-adv-x="697" 
d="M336 885h79l255 -320l-387 -314h-83l392 316zM111 885h78l255 -320l-384 -314h-84l389 316z" />
    <glyph glyph-name="onequarter" unicode="&#xbc;" horiz-adv-x="1623" 
d="M544 1478l-188 -888h-108l167 783q-8 -6 -42.5 -23.5t-84.5 -33.5t-104 -21l17 79q52 7 101.5 25.5t87 41t50.5 37.5h104zM37 0l1282 1475h100l-1281 -1475h-101zM1155 0l42 202h-399l15 69l500 617h137l-130 -611h155l-16 -75h-155l-42 -202h-107zM889 234l-24 43h348
l114 535l22 -6z" />
    <glyph glyph-name="onehalf" unicode="&#xbd;" horiz-adv-x="1642" 
d="M544 1478l-188 -888h-108l167 783q-8 -6 -42.5 -23.5t-84.5 -33.5t-104 -21l17 79q52 7 101.5 25.5t87 41t50.5 37.5h104zM37 0l1282 1475h100l-1281 -1475h-101zM764 0l19 90q13 42 64.5 91.5t122 99t141.5 89.5q72 43 142.5 90.5t118 104.5t47.5 126q0 58 -41.5 89
t-123.5 31q-117 0 -177.5 -59t-78.5 -147h-108q28 130 120 210.5t257 80.5q130 0 195 -52.5t65 -140.5q0 -87 -49 -152.5t-123.5 -117.5t-152.5 -98q-64 -39 -126 -83t-105.5 -87.5t-53.5 -83.5h494l-17 -81h-630z" />
    <glyph glyph-name="threequarters" unicode="&#xbe;" horiz-adv-x="1900" 
d="M679 1056q83 -2 115.5 -42t32.5 -98q0 -99 -47.5 -176t-130 -120t-187.5 -43q-96 0 -157 25t-90 71t-29 109q0 30 4.5 52.5t5.5 29.5h108q-2 -7 -5.5 -24.5t-3.5 -43.5q0 -74 47.5 -104.5t131.5 -30.5q74 0 129 33.5t86.5 89.5t31.5 125q0 45 -36.5 76t-128.5 31h-40
l15 73h40q66 0 117.5 23t82 65.5t30.5 100.5q0 62 -44.5 93t-123.5 31q-98 0 -165.5 -44.5t-89.5 -143.5h-108q18 80 64.5 141t123.5 96t185 35q91 0 150.5 -24t88 -65.5t28.5 -97.5q0 -102 -63.5 -171t-167.5 -72zM314 0l1282 1475h100l-1281 -1475h-101zM1432 0l42 202
h-399l15 69l500 617h137l-130 -611h155l-16 -75h-155l-42 -202h-107zM1166 234l-24 43h348l114 535l22 -6z" />
    <glyph glyph-name="questiondown" unicode="&#xbf;" horiz-adv-x="1092" 
d="M674 730q-21 -104 -66.5 -179.5t-103 -133t-116.5 -108.5q-63 -54 -118 -111t-90 -130t-35 -177q0 -110 58 -164.5t176 -54.5q146 0 240 86.5t128 245.5h112q-30 -144 -99 -241t-168.5 -146t-221.5 -49q-102 0 -178.5 35t-118 104.5t-41.5 172.5q0 122 39.5 206.5
t102 148t131.5 120.5q58 49 112 101t95 118.5t59 155.5h103zM663 1079q42 0 71 -29t29 -71q0 -41 -29 -70.5t-71 -29.5t-71 29.5t-29 70.5q0 42 29 71t71 29z" />
    <glyph glyph-name="Agrave" unicode="&#xc0;" horiz-adv-x="1206" 
d="M-23 0l734 1480h191l101 -1480h-123l-87 1395h2l-683 -1395h-135zM259 411l21 109h645l-21 -109h-645zM921 1550h-124l-290 173h140z" />
    <glyph glyph-name="Aacute" unicode="&#xc1;" horiz-adv-x="1206" 
d="M-23 0l734 1480h191l101 -1480h-123l-87 1395h2l-683 -1395h-135zM259 411l21 109h645l-21 -109h-645zM719 1548l274 173h141l-291 -173h-124z" />
    <glyph glyph-name="Acircumflex" unicode="&#xc2;" horiz-adv-x="1206" 
d="M-23 0l734 1480h191l101 -1480h-123l-87 1395h2l-683 -1395h-135zM259 411l21 109h645l-21 -109h-645zM574 1546l222 170h110l187 -170h-105l-157 148h40l-191 -148h-106z" />
    <glyph glyph-name="Atilde" unicode="&#xc3;" horiz-adv-x="1206" 
d="M-23 0l734 1480h191l101 -1480h-123l-87 1395h2l-683 -1395h-135zM259 411l21 109h645l-21 -109h-645zM1111 1682q-4 -25 -21.5 -57t-51.5 -57t-88 -25q-43 0 -73 18t-53 37q-19 17 -42 30.5t-55 13.5q-43 0 -61 -23.5t-23 -47.5h-78q5 28 25.5 61t57 57t88.5 24
q44 0 71 -17t48 -36q22 -18 46 -32.5t53 -14.5q44 0 59.5 23.5t19.5 45.5h78z" />
    <glyph glyph-name="Adieresis" unicode="&#xc4;" horiz-adv-x="1206" 
d="M-23 0l734 1480h191l101 -1480h-123l-87 1395h2l-683 -1395h-135zM259 411l21 109h645l-21 -109h-645zM662 1567q-35 0 -60 21t-25 54q0 37 28 60t65 23q35 0 60 -20.5t25 -54.5q0 -37 -28 -60t-65 -23zM1020 1567q-35 0 -60 21t-25 54q0 37 28 60t65 23q35 0 60 -20.5
t25 -54.5q0 -37 -28 -60t-65 -23z" />
    <glyph glyph-name="Aring" unicode="&#xc5;" horiz-adv-x="1206" 
d="M-23 0l734 1480h191l101 -1480h-123l-87 1395h2l-683 -1395h-135zM259 411l21 109h645l-21 -109h-645zM850 1585q49 0 83.5 34.5t34.5 83.5t-34.5 83.5t-83.5 34.5t-83.5 -34.5t-34.5 -83.5t34.5 -83.5t83.5 -34.5zM850 1522q-50 0 -91 24.5t-65.5 65.5t-24.5 91t24.5 91
t65.5 65.5t91 24.5q51 0 91.5 -24.5t65 -65.5t24.5 -91t-24.5 -91t-65 -65.5t-91.5 -24.5z" />
    <glyph glyph-name="AE" unicode="&#xc6;" horiz-adv-x="1816" 
d="M-97 0l1128 1475h834l-24 -109h-699l52 43l-140 -658l-29 44h584l-23 -110h-582l45 42l-140 -656l-30 38h695l-23 -109h-776l289 1360l11 -7l-1030 -1353h-142zM250 346l49 109h631l-23 -109h-657z" />
    <glyph glyph-name="Ccedilla" unicode="&#xc7;" horiz-adv-x="1265" 
d="M1164 500q-19 -87 -68 -178t-128 -168.5t-184 -125t-236 -47.5q-150 0 -246 67t-141.5 185.5t-45.5 271.5q0 186 50 362t145 317t230.5 224t307.5 83q154 0 248 -63t136.5 -160.5t42.5 -202.5q0 -26 -3 -50.5t-8 -39.5h-124q3 14 6.5 40t3.5 49q0 84 -33.5 155.5
t-103 115.5t-178.5 44q-143 0 -253.5 -76t-186.5 -203t-115 -281.5t-39 -312.5q0 -195 77.5 -304t240.5 -109q96 0 177 36t143.5 96t103.5 132t56 143h125zM598 -128q46 0 81.5 -27.5t35.5 -87.5q0 -65 -34 -109t-88.5 -66.5t-117.5 -22.5q-35 0 -67 5.5t-55 13.5t-31 15
l37 57q11 -8 43.5 -21t82.5 -13q66 0 115.5 35.5t49.5 100.5q0 37 -20.5 53t-54.5 16q-25 0 -54.5 -11t-46.5 -28l-55 20l93 185h64l-86 -173l-9 7q11 20 45 35.5t72 15.5z" />
    <glyph glyph-name="Egrave" unicode="&#xc8;" horiz-adv-x="1080" 
d="M398 1366l71 69l-145 -684l-24 44h593l-23 -110h-593l42 44l-146 -689l-42 69h707l-23 -109h-776l314 1475h776l-23 -109h-708zM882 1550h-124l-290 173h140z" />
    <glyph glyph-name="Eacute" unicode="&#xc9;" horiz-adv-x="1080" 
d="M398 1366l71 69l-145 -684l-24 44h593l-23 -110h-593l42 44l-146 -689l-42 69h707l-23 -109h-776l314 1475h776l-23 -109h-708zM679 1548l274 173h141l-291 -173h-124z" />
    <glyph glyph-name="Ecircumflex" unicode="&#xca;" horiz-adv-x="1080" 
d="M398 1366l71 69l-145 -684l-24 44h593l-23 -110h-593l42 44l-146 -689l-42 69h707l-23 -109h-776l314 1475h776l-23 -109h-708zM535 1546l222 170h110l187 -170h-105l-157 148h40l-191 -148h-106z" />
    <glyph glyph-name="Edieresis" unicode="&#xcb;" horiz-adv-x="1080" 
d="M398 1366l71 69l-145 -684l-24 44h593l-23 -110h-593l42 44l-146 -689l-42 69h707l-23 -109h-776l314 1475h776l-23 -109h-708zM623 1567q-35 0 -60 21t-25 54q0 37 28 60t65 23q35 0 60 -20.5t25 -54.5q0 -37 -28 -60t-65 -23zM981 1567q-35 0 -60 21t-25 54q0 37 28 60
t65 23q35 0 60 -20.5t25 -54.5q0 -37 -28 -60t-65 -23z" />
    <glyph glyph-name="Igrave" unicode="&#xcc;" horiz-adv-x="456" 
d="M51 0l313 1475h123l-313 -1475h-123zM542 1550h-124l-290 173h140z" />
    <glyph glyph-name="Iacute" unicode="&#xcd;" horiz-adv-x="456" 
d="M51 0l313 1475h123l-313 -1475h-123zM340 1548l274 173h141l-291 -173h-124z" />
    <glyph glyph-name="Icircumflex" unicode="&#xce;" horiz-adv-x="456" 
d="M51 0l313 1475h123l-313 -1475h-123zM195 1546l222 170h110l187 -170h-105l-157 148h40l-191 -148h-106z" />
    <glyph glyph-name="Idieresis" unicode="&#xcf;" horiz-adv-x="456" 
d="M51 0l313 1475h123l-313 -1475h-123zM342 1572q-35 0 -60 21t-25 54q0 37 28 60t65 23q35 0 60 -20.5t25 -54.5q0 -37 -28.5 -60t-64.5 -23zM583 1572q-35 0 -59.5 21t-24.5 54q0 37 28 60t65 23q34 0 59.5 -20.5t25.5 -54.5q0 -37 -28.5 -60t-65.5 -23z" />
    <glyph glyph-name="Eth" unicode="&#xd0;" horiz-adv-x="1224" 
d="M37 706l15 64h684l-13 -64h-686zM39 0l314 1475h332q187 0 298 -69.5t160 -187.5t49 -263q0 -220 -69 -396.5t-185 -301t-260.5 -191t-296.5 -66.5h-342zM174 41l-44 55h251q124 0 245.5 60t220.5 172t158.5 269t59.5 350q0 120 -38.5 217.5t-127.5 156t-242 58.5h-254
l68 55z" />
    <glyph glyph-name="Ntilde" unicode="&#xd1;" horiz-adv-x="1306" 
d="M160 0h-121l314 1475h202l390 -1403l-11 -6l300 1409h121l-314 -1475h-205l-388 1401l11 6zM1176 1682q-4 -25 -21.5 -57t-51.5 -57t-88 -25q-43 0 -73 18t-53 37q-19 17 -42 30.5t-55 13.5q-43 0 -61 -23.5t-23 -47.5h-78q5 28 25.5 61t57 57t88.5 24q44 0 71 -17
t48 -36q22 -18 46 -32.5t53 -14.5q44 0 59.5 23.5t19.5 45.5h78z" />
    <glyph glyph-name="Ograve" unicode="&#xd2;" horiz-adv-x="1367" 
d="M575 -19q-140 0 -243 64.5t-159 186t-56 292.5q0 185 54 358.5t153.5 311t239.5 217.5t312 80q141 0 244 -63t158.5 -183t55.5 -291q0 -186 -54 -360t-154 -312.5t-239.5 -219.5t-311.5 -81zM588 93q146 0 261 74.5t195.5 199t123 277t42.5 307.5q0 139 -43 234
t-120.5 144.5t-185.5 49.5q-145 0 -260 -74.5t-195.5 -197.5t-122.5 -274.5t-42 -307.5q0 -209 93.5 -320.5t253.5 -111.5zM996 1550h-124l-290 173h140z" />
    <glyph glyph-name="Oacute" unicode="&#xd3;" horiz-adv-x="1367" 
d="M575 -19q-140 0 -243 64.5t-159 186t-56 292.5q0 185 54 358.5t153.5 311t239.5 217.5t312 80q141 0 244 -63t158.5 -183t55.5 -291q0 -186 -54 -360t-154 -312.5t-239.5 -219.5t-311.5 -81zM588 93q146 0 261 74.5t195.5 199t123 277t42.5 307.5q0 139 -43 234
t-120.5 144.5t-185.5 49.5q-145 0 -260 -74.5t-195.5 -197.5t-122.5 -274.5t-42 -307.5q0 -209 93.5 -320.5t253.5 -111.5zM794 1548l274 173h141l-291 -173h-124z" />
    <glyph glyph-name="Ocircumflex" unicode="&#xd4;" horiz-adv-x="1367" 
d="M575 -19q-140 0 -243 64.5t-159 186t-56 292.5q0 185 54 358.5t153.5 311t239.5 217.5t312 80q141 0 244 -63t158.5 -183t55.5 -291q0 -186 -54 -360t-154 -312.5t-239.5 -219.5t-311.5 -81zM588 93q146 0 261 74.5t195.5 199t123 277t42.5 307.5q0 139 -43 234
t-120.5 144.5t-185.5 49.5q-145 0 -260 -74.5t-195.5 -197.5t-122.5 -274.5t-42 -307.5q0 -209 93.5 -320.5t253.5 -111.5zM649 1546l222 170h110l187 -170h-105l-157 148h40l-191 -148h-106z" />
    <glyph glyph-name="Otilde" unicode="&#xd5;" horiz-adv-x="1367" 
d="M575 -19q-140 0 -243 64.5t-159 186t-56 292.5q0 185 54 358.5t153.5 311t239.5 217.5t312 80q141 0 244 -63t158.5 -183t55.5 -291q0 -186 -54 -360t-154 -312.5t-239.5 -219.5t-311.5 -81zM588 93q146 0 261 74.5t195.5 199t123 277t42.5 307.5q0 139 -43 234
t-120.5 144.5t-185.5 49.5q-145 0 -260 -74.5t-195.5 -197.5t-122.5 -274.5t-42 -307.5q0 -209 93.5 -320.5t253.5 -111.5zM1185 1682q-4 -25 -21.5 -57t-51.5 -57t-88 -25q-43 0 -73 18t-53 37q-19 17 -42 30.5t-55 13.5q-43 0 -61 -23.5t-23 -47.5h-78q5 28 25.5 61t57 57
t88.5 24q44 0 71 -17t48 -36q22 -18 46 -32.5t53 -14.5q44 0 59.5 23.5t19.5 45.5h78z" />
    <glyph glyph-name="Odieresis" unicode="&#xd6;" horiz-adv-x="1367" 
d="M575 -19q-140 0 -243 64.5t-159 186t-56 292.5q0 185 54 358.5t153.5 311t239.5 217.5t312 80q141 0 244 -63t158.5 -183t55.5 -291q0 -186 -54 -360t-154 -312.5t-239.5 -219.5t-311.5 -81zM588 93q146 0 261 74.5t195.5 199t123 277t42.5 307.5q0 139 -43 234
t-120.5 144.5t-185.5 49.5q-145 0 -260 -74.5t-195.5 -197.5t-122.5 -274.5t-42 -307.5q0 -209 93.5 -320.5t253.5 -111.5zM737 1567q-35 0 -60 21t-25 54q0 37 28 60t65 23q35 0 60 -20.5t25 -54.5q0 -37 -28 -60t-65 -23zM1095 1567q-35 0 -60 21t-25 54q0 37 28 60t65 23
q35 0 60 -20.5t25 -54.5q0 -37 -28 -60t-65 -23z" />
    <glyph glyph-name="multiply" unicode="&#xd7;" horiz-adv-x="1163" 
d="M274 240l-55 58l658 505l56 -58zM839 295l-70 -55l-455 508l69 55z" />
    <glyph glyph-name="Oslash" unicode="&#xd8;" horiz-adv-x="1367" 
d="M1347 1504l-1270 -1577l-64 45l1269 1576zM575 -19q-140 0 -243 64.5t-159 186t-56 292.5q0 185 54 358.5t153.5 311t239.5 217.5t312 80q141 0 244 -63t158.5 -183t55.5 -291q0 -186 -54 -360t-154 -312.5t-239.5 -219.5t-311.5 -81zM588 93q146 0 261 74.5t195.5 199
t123 277t42.5 307.5q0 139 -43 234t-120.5 144.5t-185.5 49.5q-145 0 -260 -74.5t-195.5 -197.5t-122.5 -274.5t-42 -307.5q0 -209 93.5 -320.5t253.5 -111.5z" />
    <glyph glyph-name="Ugrave" unicode="&#xd9;" horiz-adv-x="1290" 
d="M1141 548q-61 -290 -217 -428.5t-380 -138.5q-197 0 -300.5 92.5t-103.5 282.5q0 82 15 169.5t45 230.5l156 719h124l-156 -725q-21 -95 -34 -161t-19 -116.5t-6 -102.5q0 -150 72.5 -213.5t213.5 -63.5q178 0 297 108t171 352l195 922h124zM971 1550h-124l-290 173h140z
" />
    <glyph glyph-name="Uacute" unicode="&#xda;" horiz-adv-x="1290" 
d="M1141 548q-61 -290 -217 -428.5t-380 -138.5q-197 0 -300.5 92.5t-103.5 282.5q0 82 15 169.5t45 230.5l156 719h124l-156 -725q-21 -95 -34 -161t-19 -116.5t-6 -102.5q0 -150 72.5 -213.5t213.5 -63.5q178 0 297 108t171 352l195 922h124zM769 1548l274 173h141
l-291 -173h-124z" />
    <glyph glyph-name="Ucircumflex" unicode="&#xdb;" horiz-adv-x="1290" 
d="M1141 548q-61 -290 -217 -428.5t-380 -138.5q-197 0 -300.5 92.5t-103.5 282.5q0 82 15 169.5t45 230.5l156 719h124l-156 -725q-21 -95 -34 -161t-19 -116.5t-6 -102.5q0 -150 72.5 -213.5t213.5 -63.5q178 0 297 108t171 352l195 922h124zM624 1546l222 170h110
l187 -170h-105l-157 148h40l-191 -148h-106z" />
    <glyph glyph-name="Udieresis" unicode="&#xdc;" horiz-adv-x="1290" 
d="M1141 548q-61 -290 -217 -428.5t-380 -138.5q-197 0 -300.5 92.5t-103.5 282.5q0 82 15 169.5t45 230.5l156 719h124l-156 -725q-21 -95 -34 -161t-19 -116.5t-6 -102.5q0 -150 72.5 -213.5t213.5 -63.5q178 0 297 108t171 352l195 922h124zM712 1567q-35 0 -60 21
t-25 54q0 37 28 60t65 23q35 0 60 -20.5t25 -54.5q0 -37 -28 -60t-65 -23zM1070 1567q-35 0 -60 21t-25 54q0 37 28 60t65 23q35 0 60 -20.5t25 -54.5q0 -37 -28 -60t-65 -23z" />
    <glyph glyph-name="Yacute" unicode="&#xdd;" horiz-adv-x="1111" 
d="M1222 1475l-608 -961l-110 -514h-123l109 514l-199 961h128l174 -880h-54l548 880h135zM671 1548l274 173h141l-291 -173h-124z" />
    <glyph glyph-name="Thorn" unicode="&#xde;" horiz-adv-x="1067" 
d="M39 0l314 1473h124l-78 -363l-25 36h272q182 0 278 -86t96 -243q0 -154 -72 -267.5t-195 -175.5t-277 -62h-280l41 34l-74 -346h-124zM242 374l-24 48h266q116 0 209.5 47t148.5 133t55 201q0 117 -72 175t-204 58h-268l41 49z" />
    <glyph glyph-name="germandbls" unicode="&#xdf;" horiz-adv-x="1185" 
d="M27 0l213 1002q29 134 81 229t121.5 155t152.5 88t174 28q93 0 161 -32.5t105.5 -90.5t37.5 -137q0 -108 -54 -177t-134 -129q-33 -25 -62.5 -56t-29.5 -66q0 -28 25 -59t68 -68q50 -42 95.5 -103.5t45.5 -156.5q0 -136 -71 -234.5t-190.5 -152t-265.5 -53.5
q-45 0 -82.5 4.5t-65 11t-40.5 11.5l47 115q16 -7 60 -18.5t102 -11.5q106 0 192 35.5t136.5 103t50.5 165.5q0 75 -35 126.5t-79 88.5q-46 38 -83 86t-37 100q0 57 36 99.5t77 71.5q76 54 126 113.5t50 146.5q0 67 -45.5 112t-158.5 45q-148 0 -246.5 -95.5t-143.5 -304.5
l-211 -992h-123z" />
    <glyph glyph-name="agrave" unicode="&#xe0;" horiz-adv-x="1286" 
d="M531 -19q-115 0 -209 47.5t-149.5 143.5t-55.5 240q0 141 47 261.5t131.5 211.5t200 141.5t251.5 50.5q109 0 191.5 -40.5t129 -117t46.5 -184.5q0 -31 -4 -65t-11 -62h-77q6 20 9 45.5t3 47.5q0 81 -37 140.5t-102.5 91.5t-149.5 32q-115 0 -206.5 -41.5t-157 -115.5
t-100 -172.5t-34.5 -211.5q0 -110 40.5 -184t111.5 -110.5t160 -36.5q101 0 190 43.5t152.5 121.5t84.5 182l87 -5q-30 -145 -110 -246.5t-191.5 -154.5t-240.5 -53zM1017 0h-125l225 1062h125zM890 1242h-107l-253 233h130z" />
    <glyph glyph-name="aacute" unicode="&#xe1;" horiz-adv-x="1286" 
d="M531 -19q-115 0 -209 47.5t-149.5 143.5t-55.5 240q0 141 47 261.5t131.5 211.5t200 141.5t251.5 50.5q109 0 191.5 -40.5t129 -117t46.5 -184.5q0 -31 -4 -65t-11 -62h-77q6 20 9 45.5t3 47.5q0 81 -37 140.5t-102.5 91.5t-149.5 32q-115 0 -206.5 -41.5t-157 -115.5
t-100 -172.5t-34.5 -211.5q0 -110 40.5 -184t111.5 -110.5t160 -36.5q101 0 190 43.5t152.5 121.5t84.5 182l87 -5q-30 -145 -110 -246.5t-191.5 -154.5t-240.5 -53zM1017 0h-125l225 1062h125zM710 1242l229 233h131l-254 -233h-106z" />
    <glyph glyph-name="acircumflex" unicode="&#xe2;" horiz-adv-x="1286" 
d="M531 -19q-115 0 -209 47.5t-149.5 143.5t-55.5 240q0 141 47 261.5t131.5 211.5t200 141.5t251.5 50.5q109 0 191.5 -40.5t129 -117t46.5 -184.5q0 -31 -4 -65t-11 -62h-77q6 20 9 45.5t3 47.5q0 81 -37 140.5t-102.5 91.5t-149.5 32q-115 0 -206.5 -41.5t-157 -115.5
t-100 -172.5t-34.5 -211.5q0 -110 40.5 -184t111.5 -110.5t160 -36.5q101 0 190 43.5t152.5 121.5t84.5 182l87 -5q-30 -145 -110 -246.5t-191.5 -154.5t-240.5 -53zM1017 0h-125l225 1062h125zM569 1242l227 233h100l177 -233h-97l-151 207h41l-198 -207h-99z" />
    <glyph glyph-name="atilde" unicode="&#xe3;" horiz-adv-x="1286" 
d="M531 -19q-115 0 -209 47.5t-149.5 143.5t-55.5 240q0 141 47 261.5t131.5 211.5t200 141.5t251.5 50.5q109 0 191.5 -40.5t129 -117t46.5 -184.5q0 -31 -4 -65t-11 -62h-77q6 20 9 45.5t3 47.5q0 81 -37 140.5t-102.5 91.5t-149.5 32q-115 0 -206.5 -41.5t-157 -115.5
t-100 -172.5t-34.5 -211.5q0 -110 40.5 -184t111.5 -110.5t160 -36.5q101 0 190 43.5t152.5 121.5t84.5 182l87 -5q-30 -145 -110 -246.5t-191.5 -154.5t-240.5 -53zM1017 0h-125l225 1062h125zM1105 1449q-4 -24 -21.5 -56.5t-51.5 -57t-88 -24.5q-43 0 -73 17.5t-53 37.5
q-19 16 -41.5 30t-54.5 14q-44 0 -62 -24t-22 -47h-79q5 28 26 60.5t57.5 56.5t87.5 24q44 0 71 -16.5t49 -35.5q21 -19 45 -33t53 -14q45 0 60 23t20 45h77z" />
    <glyph glyph-name="adieresis" unicode="&#xe4;" horiz-adv-x="1286" 
d="M531 -19q-115 0 -209 47.5t-149.5 143.5t-55.5 240q0 141 47 261.5t131.5 211.5t200 141.5t251.5 50.5q109 0 191.5 -40.5t129 -117t46.5 -184.5q0 -31 -4 -65t-11 -62h-77q6 20 9 45.5t3 47.5q0 81 -37 140.5t-102.5 91.5t-149.5 32q-115 0 -206.5 -41.5t-157 -115.5
t-100 -172.5t-34.5 -211.5q0 -110 40.5 -184t111.5 -110.5t160 -36.5q101 0 190 43.5t152.5 121.5t84.5 182l87 -5q-30 -145 -110 -246.5t-191.5 -154.5t-240.5 -53zM1017 0h-125l225 1062h125zM654 1329q-35 0 -60 21t-25 54q0 37 28 60t66 23q34 0 59 -20.5t25 -54.5
q0 -37 -28 -60t-65 -23zM1012 1329q-34 0 -59 21t-25 54q0 37 28 60t65 23q34 0 59.5 -20.5t25.5 -54.5q0 -37 -28.5 -60t-65.5 -23z" />
    <glyph glyph-name="aring" unicode="&#xe5;" horiz-adv-x="1286" 
d="M531 -19q-115 0 -209 47.5t-149.5 143.5t-55.5 240q0 141 47 261.5t131.5 211.5t200 141.5t251.5 50.5q109 0 191.5 -40.5t129 -117t46.5 -184.5q0 -31 -4 -65t-11 -62h-77q6 20 9 45.5t3 47.5q0 81 -37 140.5t-102.5 91.5t-149.5 32q-115 0 -206.5 -41.5t-157 -115.5
t-100 -172.5t-34.5 -211.5q0 -110 40.5 -184t111.5 -110.5t160 -36.5q101 0 190 43.5t152.5 121.5t84.5 182l87 -5q-30 -145 -110 -246.5t-191.5 -154.5t-240.5 -53zM1017 0h-125l225 1062h125zM822 1219q50 0 84 34t34 83q0 50 -34 84t-84 34q-49 0 -83 -34t-34 -84
q0 -49 34 -83t83 -34zM823 1155q-50 0 -91.5 24.5t-66 66t-24.5 90.5q0 50 24.5 91.5t66 65.5t90.5 24q50 0 91.5 -24t65.5 -65.5t24 -90.5q0 -50 -24 -91.5t-65.5 -66t-90.5 -24.5z" />
    <glyph glyph-name="ae" unicode="&#xe6;" horiz-adv-x="2145" 
d="M462 -19q-184 0 -285.5 73t-101.5 209q0 94 42.5 159t116 105t167.5 57.5t196 17.5q154 0 241.5 3t126.5 16.5t45 43.5q7 33 10.5 59.5t3.5 42.5q0 101 -77 152t-212 51q-107 0 -196.5 -30t-149 -88t-77.5 -142h-124q25 116 105 198t198.5 125.5t258.5 43.5
q148 0 253.5 -58.5t126.5 -180.5q2 -8 2.5 -20.5t-1.5 -28.5l-31 9q88 125 224 202t296 77q133 0 225.5 -54t140.5 -147.5t48 -212.5q0 -42 -8 -94.5t-19 -89.5h-968l58 37q-3 -24 -4.5 -49t-1.5 -50q0 -97 37 -171.5t110.5 -116.5t181.5 -42q91 0 163.5 25t126 63.5
t86.5 81t44 76.5h122q-17 -54 -62 -115t-116.5 -115t-167.5 -88.5t-214 -34.5q-116 0 -203.5 41.5t-142.5 115.5t-73 172l33 1q-58 -124 -147.5 -196t-194 -102.5t-212.5 -30.5zM478 91q76 0 152.5 18t146 66.5t123 135.5t82.5 224q3 12 5 23l4 22l15 -49
q-62 -20 -164.5 -25.5t-238.5 -5.5q-112 0 -203 -17.5t-144.5 -65t-53.5 -138.5q0 -95 73 -141.5t203 -46.5zM1119 590h789q3 14 4 35.5t1 39.5q0 84 -33.5 153.5t-101.5 111.5t-171 42q-117 0 -216 -50.5t-169 -137t-103 -194.5z" />
    <glyph glyph-name="ccedilla" unicode="&#xe7;" horiz-adv-x="1257" 
d="M591 -129q45 0 81 -28t36 -88q0 -65 -34.5 -109t-89 -66.5t-116.5 -22.5q-36 0 -68 5.5t-54.5 14t-31.5 14.5l38 57q10 -8 42.5 -21t82.5 -13q67 0 116 35.5t49 101.5q0 36 -20 52t-54 16q-26 0 -55.5 -10.5t-45.5 -28.5l-58 20l93 185h69l-86 -173l-19 7
q12 21 49.5 36.5t75.5 15.5zM548 -19q-195 0 -313 115t-118 324q0 140 49.5 259.5t137 209t205.5 139t255 49.5q135 0 225 -50.5t134.5 -127.5t44.5 -158q0 -16 -1 -30t-3 -21h-123q1 6 2 14.5t1 17.5q0 74 -35.5 128t-101.5 84t-159 30q-112 0 -205 -41t-160 -114
t-104 -170.5t-37 -212.5q0 -164 87.5 -248t233.5 -84q121 0 206.5 39t136 101t67.5 129h123q-13 -70 -55.5 -138t-112.5 -123t-165.5 -88t-214.5 -33z" />
    <glyph glyph-name="egrave" unicode="&#xe8;" horiz-adv-x="1288" 
d="M184 479l24 111h860l-25 -35q5 21 9 49.5t4 62.5q0 83 -33.5 150.5t-101.5 107.5t-173 40q-113 0 -206.5 -42t-162 -116.5t-106 -173t-37.5 -212.5q0 -97 35.5 -171t108.5 -115t184 -41q93 0 165.5 22.5t124 59.5t83 78.5t43.5 78.5h125q-15 -59 -59.5 -120.5
t-116.5 -114.5t-168.5 -85.5t-214.5 -32.5q-136 0 -232.5 55.5t-147 154t-50.5 227.5q0 139 49.5 258.5t138 210t205.5 141t251 50.5t226.5 -55.5t140.5 -150.5t48 -214q0 -42 -7.5 -92t-17.5 -86h-966zM886 1242h-107l-253 233h130z" />
    <glyph glyph-name="eacute" unicode="&#xe9;" horiz-adv-x="1288" 
d="M184 479l24 111h860l-25 -35q5 21 9 49.5t4 62.5q0 83 -33.5 150.5t-101.5 107.5t-173 40q-113 0 -206.5 -42t-162 -116.5t-106 -173t-37.5 -212.5q0 -97 35.5 -171t108.5 -115t184 -41q93 0 165.5 22.5t124 59.5t83 78.5t43.5 78.5h125q-15 -59 -59.5 -120.5
t-116.5 -114.5t-168.5 -85.5t-214.5 -32.5q-136 0 -232.5 55.5t-147 154t-50.5 227.5q0 139 49.5 258.5t138 210t205.5 141t251 50.5t226.5 -55.5t140.5 -150.5t48 -214q0 -42 -7.5 -92t-17.5 -86h-966zM706 1242l229 233h131l-254 -233h-106z" />
    <glyph glyph-name="ecircumflex" unicode="&#xea;" horiz-adv-x="1288" 
d="M184 479l24 111h860l-25 -35q5 21 9 49.5t4 62.5q0 83 -33.5 150.5t-101.5 107.5t-173 40q-113 0 -206.5 -42t-162 -116.5t-106 -173t-37.5 -212.5q0 -97 35.5 -171t108.5 -115t184 -41q93 0 165.5 22.5t124 59.5t83 78.5t43.5 78.5h125q-15 -59 -59.5 -120.5
t-116.5 -114.5t-168.5 -85.5t-214.5 -32.5q-136 0 -232.5 55.5t-147 154t-50.5 227.5q0 139 49.5 258.5t138 210t205.5 141t251 50.5t226.5 -55.5t140.5 -150.5t48 -214q0 -42 -7.5 -92t-17.5 -86h-966zM565 1242l227 233h100l177 -233h-97l-151 207h41l-198 -207h-99z" />
    <glyph glyph-name="edieresis" unicode="&#xeb;" horiz-adv-x="1288" 
d="M184 479l24 111h860l-25 -35q5 21 9 49.5t4 62.5q0 83 -33.5 150.5t-101.5 107.5t-173 40q-113 0 -206.5 -42t-162 -116.5t-106 -173t-37.5 -212.5q0 -97 35.5 -171t108.5 -115t184 -41q93 0 165.5 22.5t124 59.5t83 78.5t43.5 78.5h125q-15 -59 -59.5 -120.5
t-116.5 -114.5t-168.5 -85.5t-214.5 -32.5q-136 0 -232.5 55.5t-147 154t-50.5 227.5q0 139 49.5 258.5t138 210t205.5 141t251 50.5t226.5 -55.5t140.5 -150.5t48 -214q0 -42 -7.5 -92t-17.5 -86h-966zM650 1329q-35 0 -60 21t-25 54q0 37 28 60t66 23q34 0 59 -20.5
t25 -54.5q0 -37 -28 -60t-65 -23zM1008 1329q-34 0 -59 21t-25 54q0 37 28 60t65 23q34 0 59.5 -20.5t25.5 -54.5q0 -37 -28.5 -60t-65.5 -23z" />
    <glyph glyph-name="igrave" unicode="&#xec;" horiz-adv-x="483" 
d="M66 0l225 1062h123l-225 -1062h-123zM476 1242h-107l-253 233h130z" />
    <glyph glyph-name="iacute" unicode="&#xed;" horiz-adv-x="483" 
d="M66 0l225 1062h123l-225 -1062h-123zM295 1242l229 233h131l-254 -233h-106z" />
    <glyph glyph-name="icircumflex" unicode="&#xee;" horiz-adv-x="483" 
d="M66 0l225 1062h123l-225 -1062h-123zM155 1242l227 233h100l177 -233h-97l-151 207h41l-198 -207h-99z" />
    <glyph glyph-name="idieresis" unicode="&#xef;" horiz-adv-x="483" 
d="M66 0l225 1062h123l-225 -1062h-123zM306 1332q-35 0 -60 20.5t-25 53.5q0 38 28 60.5t65 22.5q35 0 60 -20t25 -54q0 -38 -28 -60.5t-65 -22.5zM548 1332q-35 0 -60 20.5t-25 53.5q0 38 28 60.5t65 22.5q35 0 60 -20t25 -54q0 -38 -28 -60.5t-65 -22.5z" />
    <glyph glyph-name="eth" unicode="&#xf0;" horiz-adv-x="1346" 
d="M685 1312l297 233l100 -53l-295 -232zM1072 649q0 186 -34.5 328t-97 245t-147.5 167.5t-186 94.5l80 75q147 -40 261.5 -157t180 -306t65.5 -446zM550 -19q-135 0 -232 54.5t-149.5 151.5t-52.5 226q0 140 48.5 261t136 211.5t204.5 141t253 50.5q137 0 234.5 -56
t149.5 -152.5t52 -218.5q0 -148 -50 -270.5t-138.5 -211.5t-205.5 -138t-250 -49zM559 92q106 0 198 39t162 112t109.5 173.5t39.5 222.5q0 99 -36.5 172.5t-107 114t-174.5 40.5q-110 0 -202.5 -41.5t-161 -115.5t-106.5 -172t-38 -212q0 -154 81 -243.5t236 -89.5z" />
    <glyph glyph-name="ntilde" unicode="&#xf1;" horiz-adv-x="1217" 
d="M821 0l122 567q16 76 23.5 120.5t7.5 81.5q0 89 -62 140t-183 51q-89 0 -177.5 -44.5t-153.5 -120.5t-85 -171l-74 28q20 92 73.5 169.5t129 134.5t162 89t172.5 32q151 0 240 -70t89 -199q0 -49 -11 -110.5t-29 -140.5l-121 -557h-123zM57 0l226 1062h124l-226 -1062
h-124zM1097 1449q-4 -24 -21.5 -56.5t-51.5 -57t-88 -24.5q-43 0 -73 17.5t-53 37.5q-19 16 -41.5 30t-54.5 14q-44 0 -62 -24t-22 -47h-79q5 28 26 60.5t57.5 56.5t87.5 24q44 0 71 -16.5t49 -35.5q21 -19 45 -33t53 -14q45 0 60 23t20 45h77z" />
    <glyph glyph-name="ograve" unicode="&#xf2;" horiz-adv-x="1308" 
d="M554 -19q-136 0 -234 54.5t-151 151.5t-53 226q0 140 48.5 261t135 211.5t203 141t252.5 50.5q137 0 234.5 -56t149.5 -152.5t52 -218.5q0 -148 -49.5 -270.5t-136.5 -211.5t-202.5 -138t-248.5 -49zM563 92q141 0 254.5 68.5t180.5 191t67 285.5q0 100 -37 173.5
t-107.5 114.5t-173.5 41q-110 0 -202.5 -41.5t-160 -115.5t-105 -172t-37.5 -212q0 -154 83.5 -243.5t237.5 -89.5zM891 1242h-107l-253 233h130z" />
    <glyph glyph-name="oacute" unicode="&#xf3;" horiz-adv-x="1308" 
d="M554 -19q-136 0 -234 54.5t-151 151.5t-53 226q0 140 48.5 261t135 211.5t203 141t252.5 50.5q137 0 234.5 -56t149.5 -152.5t52 -218.5q0 -148 -49.5 -270.5t-136.5 -211.5t-202.5 -138t-248.5 -49zM563 92q141 0 254.5 68.5t180.5 191t67 285.5q0 100 -37 173.5
t-107.5 114.5t-173.5 41q-110 0 -202.5 -41.5t-160 -115.5t-105 -172t-37.5 -212q0 -154 83.5 -243.5t237.5 -89.5zM711 1242l229 233h131l-254 -233h-106z" />
    <glyph glyph-name="ocircumflex" unicode="&#xf4;" horiz-adv-x="1308" 
d="M554 -19q-136 0 -234 54.5t-151 151.5t-53 226q0 140 48.5 261t135 211.5t203 141t252.5 50.5q137 0 234.5 -56t149.5 -152.5t52 -218.5q0 -148 -49.5 -270.5t-136.5 -211.5t-202.5 -138t-248.5 -49zM563 92q141 0 254.5 68.5t180.5 191t67 285.5q0 100 -37 173.5
t-107.5 114.5t-173.5 41q-110 0 -202.5 -41.5t-160 -115.5t-105 -172t-37.5 -212q0 -154 83.5 -243.5t237.5 -89.5zM570 1242l227 233h100l177 -233h-97l-151 207h41l-198 -207h-99z" />
    <glyph glyph-name="otilde" unicode="&#xf5;" horiz-adv-x="1308" 
d="M554 -19q-136 0 -234 54.5t-151 151.5t-53 226q0 140 48.5 261t135 211.5t203 141t252.5 50.5q137 0 234.5 -56t149.5 -152.5t52 -218.5q0 -148 -49.5 -270.5t-136.5 -211.5t-202.5 -138t-248.5 -49zM563 92q141 0 254.5 68.5t180.5 191t67 285.5q0 100 -37 173.5
t-107.5 114.5t-173.5 41q-110 0 -202.5 -41.5t-160 -115.5t-105 -172t-37.5 -212q0 -154 83.5 -243.5t237.5 -89.5zM1106 1449q-4 -24 -21.5 -56.5t-51.5 -57t-88 -24.5q-43 0 -73 17.5t-53 37.5q-19 16 -41.5 30t-54.5 14q-44 0 -62 -24t-22 -47h-79q5 28 26 60.5
t57.5 56.5t87.5 24q44 0 71 -16.5t49 -35.5q21 -19 45 -33t53 -14q45 0 60 23t20 45h77z" />
    <glyph glyph-name="odieresis" unicode="&#xf6;" horiz-adv-x="1308" 
d="M554 -19q-136 0 -234 54.5t-151 151.5t-53 226q0 140 48.5 261t135 211.5t203 141t252.5 50.5q137 0 234.5 -56t149.5 -152.5t52 -218.5q0 -148 -49.5 -270.5t-136.5 -211.5t-202.5 -138t-248.5 -49zM563 92q141 0 254.5 68.5t180.5 191t67 285.5q0 100 -37 173.5
t-107.5 114.5t-173.5 41q-110 0 -202.5 -41.5t-160 -115.5t-105 -172t-37.5 -212q0 -154 83.5 -243.5t237.5 -89.5zM655 1329q-35 0 -60 21t-25 54q0 37 28 60t66 23q34 0 59 -20.5t25 -54.5q0 -37 -28 -60t-65 -23zM1013 1329q-34 0 -59 21t-25 54q0 37 28 60t65 23
q34 0 59.5 -20.5t25.5 -54.5q0 -37 -28.5 -60t-65.5 -23z" />
    <glyph glyph-name="divide" unicode="&#xf7;" horiz-adv-x="1163" 
d="M231 480l17 83h685l-17 -83h-685zM653 783q-32 0 -53.5 20.5t-21.5 49.5q0 31 21.5 51t53.5 20q31 0 52 -20t21 -51q0 -29 -21 -49.5t-52 -20.5zM511 127q-32 0 -53.5 20t-21.5 50q0 31 21.5 51t53.5 20t52.5 -20t20.5 -51q0 -30 -20.5 -50t-52.5 -20z" />
    <glyph glyph-name="oslash" unicode="&#xf8;" horiz-adv-x="1308" 
d="M1124 1054l-896 -1094l-61 47l897 1093zM554 -19q-136 0 -234 54.5t-151 151.5t-53 226q0 140 48.5 261t135 211.5t203 141t252.5 50.5q137 0 234.5 -56t149.5 -152.5t52 -218.5q0 -148 -49.5 -270.5t-136.5 -211.5t-202.5 -138t-248.5 -49zM563 92q141 0 254.5 68.5
t180.5 191t67 285.5q0 100 -37 173.5t-107.5 114.5t-173.5 41q-110 0 -202.5 -41.5t-160 -115.5t-105 -172t-37.5 -212q0 -154 83.5 -243.5t237.5 -89.5z" />
    <glyph glyph-name="ugrave" unicode="&#xf9;" horiz-adv-x="1183" 
d="M442 -18q-114 0 -182.5 40t-99 105t-30.5 137q0 51 9 105.5t26 136.5l118 556h125l-115 -542q-17 -78 -26 -132t-9 -98q0 -83 52.5 -138.5t167.5 -55.5q98 0 184.5 54t147 137.5t78.5 171.5l77 -31q-17 -80 -63 -158.5t-115 -144t-156.5 -104.5t-188.5 -39zM790 0
l226 1062h123l-225 -1062h-124zM827 1242h-107l-253 233h130z" />
    <glyph glyph-name="uacute" unicode="&#xfa;" horiz-adv-x="1183" 
d="M442 -18q-114 0 -182.5 40t-99 105t-30.5 137q0 51 9 105.5t26 136.5l118 556h125l-115 -542q-17 -78 -26 -132t-9 -98q0 -83 52.5 -138.5t167.5 -55.5q98 0 184.5 54t147 137.5t78.5 171.5l77 -31q-17 -80 -63 -158.5t-115 -144t-156.5 -104.5t-188.5 -39zM790 0
l226 1062h123l-225 -1062h-124zM647 1242l229 233h131l-254 -233h-106z" />
    <glyph glyph-name="ucircumflex" unicode="&#xfb;" horiz-adv-x="1183" 
d="M442 -18q-114 0 -182.5 40t-99 105t-30.5 137q0 51 9 105.5t26 136.5l118 556h125l-115 -542q-17 -78 -26 -132t-9 -98q0 -83 52.5 -138.5t167.5 -55.5q98 0 184.5 54t147 137.5t78.5 171.5l77 -31q-17 -80 -63 -158.5t-115 -144t-156.5 -104.5t-188.5 -39zM790 0
l226 1062h123l-225 -1062h-124zM506 1242l227 233h100l177 -233h-97l-151 207h41l-198 -207h-99z" />
    <glyph glyph-name="udieresis" unicode="&#xfc;" horiz-adv-x="1183" 
d="M442 -18q-114 0 -182.5 40t-99 105t-30.5 137q0 51 9 105.5t26 136.5l118 556h125l-115 -542q-17 -78 -26 -132t-9 -98q0 -83 52.5 -138.5t167.5 -55.5q98 0 184.5 54t147 137.5t78.5 171.5l77 -31q-17 -80 -63 -158.5t-115 -144t-156.5 -104.5t-188.5 -39zM790 0
l226 1062h123l-225 -1062h-124zM591 1329q-35 0 -60 21t-25 54q0 37 28 60t66 23q34 0 59 -20.5t25 -54.5q0 -37 -28 -60t-65 -23zM949 1329q-34 0 -59 21t-25 54q0 37 28 60t65 23q34 0 59.5 -20.5t25.5 -54.5q0 -37 -28.5 -60t-65.5 -23z" />
    <glyph glyph-name="yacute" unicode="&#xfd;" horiz-adv-x="1018" 
d="M-29 -444q-37 0 -68 4.5t-37 7.5l23 111q11 -7 39.5 -11.5t55.5 -4.5q69 0 122.5 34t94.5 86t71 107l59 107l-144 1065h126l121 -950h-22l513 950h133l-648 -1167q-48 -87 -105.5 -164.5t-137.5 -126t-196 -48.5zM570 1242l229 233h131l-254 -233h-106z" />
    <glyph glyph-name="thorn" unicode="&#xfe;" horiz-adv-x="1251" 
d="M553 -19q-107 0 -191.5 46t-133.5 126t-49 183q0 24 4 54.5t8 45.5l85 2q-3 -8 -5.5 -32t-2.5 -39q0 -76 37 -137t101.5 -96.5t146.5 -35.5q108 0 192.5 44.5t143 122.5t88.5 178.5t30 210.5q0 152 -69 231t-201 79q-93 0 -182 -45t-154 -120t-85 -166l-96 3
q27 126 109.5 226t196.5 157.5t236 57.5q114 0 197 -49t129 -143t46 -228q0 -137 -42 -259.5t-118.5 -216t-183.5 -147t-237 -53.5zM-36 -437l428 2000h124l-426 -2000h-126z" />
    <glyph glyph-name="ydieresis" unicode="&#xff;" horiz-adv-x="1018" 
d="M-29 -444q-37 0 -68 4.5t-37 7.5l23 111q11 -7 39.5 -11.5t55.5 -4.5q69 0 122.5 34t94.5 86t71 107l59 107l-144 1065h126l121 -950h-22l513 950h133l-648 -1167q-48 -87 -105.5 -164.5t-137.5 -126t-196 -48.5zM514 1329q-35 0 -60 21t-25 54q0 37 28 60t66 23
q34 0 59 -20.5t25 -54.5q0 -37 -28 -60t-65 -23zM872 1329q-34 0 -59 21t-25 54q0 37 28 60t65 23q34 0 59.5 -20.5t25.5 -54.5q0 -37 -28.5 -60t-65.5 -23z" />
    <glyph glyph-name="Amacron" unicode="&#x100;" horiz-adv-x="1206" 
d="M-23 0l734 1480h191l101 -1480h-123l-87 1395h2l-683 -1395h-135zM259 411l21 109h645l-21 -109h-645zM595 1608l13 60h483l-13 -60h-483z" />
    <glyph glyph-name="amacron" unicode="&#x101;" horiz-adv-x="1286" 
d="M531 -19q-115 0 -209 47.5t-149.5 143.5t-55.5 240q0 141 47 261.5t131.5 211.5t200 141.5t251.5 50.5q109 0 191.5 -40.5t129 -117t46.5 -184.5q0 -31 -4 -65t-11 -62h-77q6 20 9 45.5t3 47.5q0 81 -37 140.5t-102.5 91.5t-149.5 32q-115 0 -206.5 -41.5t-157 -115.5
t-100 -172.5t-34.5 -211.5q0 -110 40.5 -184t111.5 -110.5t160 -36.5q101 0 190 43.5t152.5 121.5t84.5 182l87 -5q-30 -145 -110 -246.5t-191.5 -154.5t-240.5 -53zM1017 0h-125l225 1062h125zM578 1328l14 60h483l-14 -60h-483z" />
    <glyph glyph-name="Abreve" unicode="&#x102;" horiz-adv-x="1206" 
d="M-23 0l734 1480h191l101 -1480h-123l-87 1395h2l-683 -1395h-135zM259 411l21 109h645l-21 -109h-645zM615 1696h83q0 -39 33.5 -71.5t97.5 -32.5t105.5 32t45.5 72h83q-7 -69 -76 -115.5t-164 -46.5t-151.5 46.5t-56.5 115.5z" />
    <glyph glyph-name="abreve" unicode="&#x103;" horiz-adv-x="1286" 
d="M531 -19q-115 0 -209 47.5t-149.5 143.5t-55.5 240q0 141 47 261.5t131.5 211.5t200 141.5t251.5 50.5q109 0 191.5 -40.5t129 -117t46.5 -184.5q0 -31 -4 -65t-11 -62h-77q6 20 9 45.5t3 47.5q0 81 -37 140.5t-102.5 91.5t-149.5 32q-115 0 -206.5 -41.5t-157 -115.5
t-100 -172.5t-34.5 -211.5q0 -110 40.5 -184t111.5 -110.5t160 -36.5q101 0 190 43.5t152.5 121.5t84.5 182l87 -5q-30 -145 -110 -246.5t-191.5 -154.5t-240.5 -53zM1017 0h-125l225 1062h125zM614 1475h82q0 -63 32.5 -105t96.5 -42q65 0 107 42t49 105h81
q-9 -94 -78.5 -149.5t-164.5 -55.5q-94 0 -149.5 55.5t-55.5 149.5z" />
    <glyph glyph-name="Aogonek" unicode="&#x104;" horiz-adv-x="1206" 
d="M-23 0l734 1480h191l101 -1480h-123l-87 1395h2l-683 -1395h-135zM259 411l21 109h645l-21 -109h-645zM966 -342l-7 -70q-18 -4 -44 -6t-49 -2q-48 0 -84 15.5t-56 46t-20 76.5q0 54 36 106t87.5 97.5t98.5 78.5h75q-31 -25 -68 -58.5t-71 -71t-55.5 -74t-21.5 -68.5
q0 -41 24.5 -59.5t70.5 -18.5q20 0 43.5 2.5t40.5 5.5z" />
    <glyph glyph-name="aogonek" unicode="&#x105;" horiz-adv-x="1286" 
d="M531 -19q-115 0 -209 47.5t-149.5 143.5t-55.5 240q0 141 47 261.5t131.5 211.5t200 141.5t251.5 50.5q109 0 191.5 -40.5t129 -117t46.5 -184.5q0 -31 -4 -65t-11 -62h-77q6 20 9 45.5t3 47.5q0 81 -37 140.5t-102.5 91.5t-149.5 32q-115 0 -206.5 -41.5t-157 -115.5
t-100 -172.5t-34.5 -211.5q0 -110 40.5 -184t111.5 -110.5t160 -36.5q101 0 190 43.5t152.5 121.5t84.5 182l87 -5q-30 -145 -110 -246.5t-191.5 -154.5t-240.5 -53zM1017 0h-125l225 1062h125zM980 -342l-7 -70q-18 -4 -44 -6t-49 -2q-71 0 -115.5 35t-44.5 103
q0 54 36 106t87.5 97.5t98.5 78.5h75q-31 -25 -68 -58.5t-71 -71t-55.5 -74t-21.5 -68.5q0 -41 24.5 -59.5t70.5 -18.5q20 0 43.5 2.5t40.5 5.5z" />
    <glyph glyph-name="Cacute" unicode="&#x106;" horiz-adv-x="1265" 
d="M1164 500q-19 -87 -68 -178t-128 -168.5t-184 -125t-236 -47.5q-150 0 -246 67t-141.5 185.5t-45.5 271.5q0 186 50 362t145 317t230.5 224t307.5 83q154 0 248 -63t136.5 -160.5t42.5 -202.5q0 -26 -3 -50.5t-8 -39.5h-124q3 14 6.5 40t3.5 49q0 84 -33.5 155.5
t-103 115.5t-178.5 44q-143 0 -253.5 -76t-186.5 -203t-115 -281.5t-39 -312.5q0 -195 77.5 -304t240.5 -109q96 0 177 36t143.5 96t103.5 132t56 143h125zM762 1548l274 173h141l-291 -173h-124z" />
    <glyph glyph-name="cacute" unicode="&#x107;" horiz-adv-x="1257" 
d="M548 -19q-195 0 -313 115t-118 324q0 140 49.5 259.5t137 209t205.5 139t255 49.5q135 0 225 -50.5t134.5 -127.5t44.5 -158q0 -16 -1 -30t-3 -21h-123q1 6 2 14.5t1 17.5q0 74 -35.5 128t-101.5 84t-159 30q-112 0 -205 -41t-160 -114t-104 -170.5t-37 -212.5
q0 -164 87.5 -248t233.5 -84q121 0 206.5 39t136 101t67.5 129h123q-13 -70 -55.5 -138t-112.5 -123t-165.5 -88t-214.5 -33zM703 1242l229 233h131l-254 -233h-106z" />
    <glyph glyph-name="Ccircumflex" unicode="&#x108;" horiz-adv-x="1265" 
d="M1164 500q-19 -87 -68 -178t-128 -168.5t-184 -125t-236 -47.5q-150 0 -246 67t-141.5 185.5t-45.5 271.5q0 186 50 362t145 317t230.5 224t307.5 83q154 0 248 -63t136.5 -160.5t42.5 -202.5q0 -26 -3 -50.5t-8 -39.5h-124q3 14 6.5 40t3.5 49q0 84 -33.5 155.5
t-103 115.5t-178.5 44q-143 0 -253.5 -76t-186.5 -203t-115 -281.5t-39 -312.5q0 -195 77.5 -304t240.5 -109q96 0 177 36t143.5 96t103.5 132t56 143h125zM617 1546l222 170h110l187 -170h-105l-157 148h40l-191 -148h-106z" />
    <glyph glyph-name="ccircumflex" unicode="&#x109;" horiz-adv-x="1257" 
d="M548 -19q-195 0 -313 115t-118 324q0 140 49.5 259.5t137 209t205.5 139t255 49.5q135 0 225 -50.5t134.5 -127.5t44.5 -158q0 -16 -1 -30t-3 -21h-123q1 6 2 14.5t1 17.5q0 74 -35.5 128t-101.5 84t-159 30q-112 0 -205 -41t-160 -114t-104 -170.5t-37 -212.5
q0 -164 87.5 -248t233.5 -84q121 0 206.5 39t136 101t67.5 129h123q-13 -70 -55.5 -138t-112.5 -123t-165.5 -88t-214.5 -33zM562 1242l227 233h100l177 -233h-97l-151 207h41l-198 -207h-99z" />
    <glyph glyph-name="Cdotaccent" unicode="&#x10a;" horiz-adv-x="1265" 
d="M1164 500q-19 -87 -68 -178t-128 -168.5t-184 -125t-236 -47.5q-150 0 -246 67t-141.5 185.5t-45.5 271.5q0 186 50 362t145 317t230.5 224t307.5 83q154 0 248 -63t136.5 -160.5t42.5 -202.5q0 -26 -3 -50.5t-8 -39.5h-124q3 14 6.5 40t3.5 49q0 84 -33.5 155.5
t-103 115.5t-178.5 44q-143 0 -253.5 -76t-186.5 -203t-115 -281.5t-39 -312.5q0 -195 77.5 -304t240.5 -109q96 0 177 36t143.5 96t103.5 132t56 143h125zM885 1574q-38 0 -66 22.5t-28 59.5q0 38 28 60.5t66 22.5t66 -22.5t28 -60.5q0 -37 -28 -59.5t-66 -22.5z" />
    <glyph glyph-name="cdotaccent" unicode="&#x10b;" horiz-adv-x="1257" 
d="M548 -19q-195 0 -313 115t-118 324q0 140 49.5 259.5t137 209t205.5 139t255 49.5q135 0 225 -50.5t134.5 -127.5t44.5 -158q0 -16 -1 -30t-3 -21h-123q1 6 2 14.5t1 17.5q0 74 -35.5 128t-101.5 84t-159 30q-112 0 -205 -41t-160 -114t-104 -170.5t-37 -212.5
q0 -164 87.5 -248t233.5 -84q121 0 206.5 39t136 101t67.5 129h123q-13 -70 -55.5 -138t-112.5 -123t-165.5 -88t-214.5 -33zM827 1330q-36 0 -62.5 21.5t-26.5 56.5q0 26 14 45.5t36.5 30.5t48.5 11q37 0 63 -21.5t26 -56.5q0 -26 -13.5 -46t-36 -30.5t-49.5 -10.5z" />
    <glyph glyph-name="Ccaron" unicode="&#x10c;" horiz-adv-x="1265" 
d="M1164 500q-19 -87 -68 -178t-128 -168.5t-184 -125t-236 -47.5q-150 0 -246 67t-141.5 185.5t-45.5 271.5q0 186 50 362t145 317t230.5 224t307.5 83q154 0 248 -63t136.5 -160.5t42.5 -202.5q0 -26 -3 -50.5t-8 -39.5h-124q3 14 6.5 40t3.5 49q0 84 -33.5 155.5
t-103 115.5t-178.5 44q-143 0 -253.5 -76t-186.5 -203t-115 -281.5t-39 -312.5q0 -195 77.5 -304t240.5 -109q96 0 177 36t143.5 96t103.5 132t56 143h125zM624 1716h103l160 -147h-40l189 147h108l-223 -170h-110z" />
    <glyph glyph-name="ccaron" unicode="&#x10d;" horiz-adv-x="1257" 
d="M548 -19q-195 0 -313 115t-118 324q0 140 49.5 259.5t137 209t205.5 139t255 49.5q135 0 225 -50.5t134.5 -127.5t44.5 -158q0 -16 -1 -30t-3 -21h-123q1 6 2 14.5t1 17.5q0 74 -35.5 128t-101.5 84t-159 30q-112 0 -205 -41t-160 -114t-104 -170.5t-37 -212.5
q0 -164 87.5 -248t233.5 -84q121 0 206.5 39t136 101t67.5 129h123q-13 -70 -55.5 -138t-112.5 -123t-165.5 -88t-214.5 -33zM578 1475h95l154 -207h-40l194 207h101l-227 -233h-100z" />
    <glyph glyph-name="Dcaron" unicode="&#x10e;" horiz-adv-x="1224" 
d="M39 0l314 1475h332q187 0 298 -69.5t160 -187.5t49 -263q0 -220 -69 -396.5t-185 -301t-260.5 -191t-296.5 -66.5h-342zM174 41l-44 55h251q124 0 245.5 60t220.5 172t158.5 269t59.5 350q0 120 -38.5 217.5t-127.5 156t-242 58.5h-254l68 55zM568 1716h103l160 -147h-40
l189 147h108l-223 -170h-110z" />
    <glyph glyph-name="dcaron" unicode="&#x10f;" horiz-adv-x="1283" 
d="M483 -19q-170 0 -269 109t-99 306q0 138 41.5 261t118 217.5t183.5 148t238 53.5q108 0 192.5 -45t133.5 -124t49 -182q0 -27 -4 -56.5t-9 -46.5l-85 -2q5 17 7.5 38.5t2.5 36.5q0 76 -37.5 137t-102 96t-146.5 35q-109 0 -193.5 -44.5t-142.5 -122t-88.5 -178
t-30.5 -211.5q0 -149 71.5 -229t202.5 -80q99 0 186.5 46t150 122.5t81.5 169.5l98 -2q-27 -126 -107 -229t-195.5 -163.5t-246.5 -60.5zM841 0l332 1563h124l-332 -1563h-124zM1482 1563q-7 -71 -22.5 -149t-30 -139.5t-21.5 -85.5h-70q7 25 19.5 85t25 137t19.5 152h80z
" />
    <glyph glyph-name="Dcroat" unicode="&#x110;" horiz-adv-x="1224" 
d="M39 0l314 1475h332q187 0 298 -69.5t160 -187.5t49 -263q0 -220 -69 -396.5t-185 -301t-260.5 -191t-296.5 -66.5h-342zM174 41l-44 55h251q124 0 245.5 60t220.5 172t158.5 269t59.5 350q0 120 -38.5 217.5t-127.5 156t-242 58.5h-254l68 55zM37 705l15 64h684l-13 -64
h-686z" />
    <glyph glyph-name="dcroat" unicode="&#x111;" horiz-adv-x="1234" 
d="M760 1304l20 95h591l-21 -95h-590zM483 -19q-170 0 -269 109t-99 306q0 138 41.5 261t118 217.5t183.5 148t238 53.5q108 0 192.5 -45t133.5 -124t49 -182q0 -27 -4 -56.5t-9 -46.5l-85 -2q5 17 7.5 38.5t2.5 36.5q0 76 -37.5 137t-102 96t-146.5 35q-109 0 -193.5 -44.5
t-142.5 -122t-88.5 -178t-30.5 -211.5q0 -149 71.5 -229t202.5 -80q99 0 186.5 46t150 122.5t81.5 169.5l98 -2q-27 -126 -107 -229t-195.5 -163.5t-246.5 -60.5zM841 0l332 1563h124l-332 -1563h-124z" />
    <glyph glyph-name="Emacron" unicode="&#x112;" horiz-adv-x="1080" 
d="M398 1366l71 69l-145 -684l-24 44h593l-23 -110h-593l42 44l-146 -689l-42 69h707l-23 -109h-776l314 1475h776l-23 -109h-708zM555 1608l13 60h483l-13 -60h-483z" />
    <glyph glyph-name="emacron" unicode="&#x113;" horiz-adv-x="1288" 
d="M184 479l24 111h860l-25 -35q5 21 9 49.5t4 62.5q0 83 -33.5 150.5t-101.5 107.5t-173 40q-113 0 -206.5 -42t-162 -116.5t-106 -173t-37.5 -212.5q0 -97 35.5 -171t108.5 -115t184 -41q93 0 165.5 22.5t124 59.5t83 78.5t43.5 78.5h125q-15 -59 -59.5 -120.5
t-116.5 -114.5t-168.5 -85.5t-214.5 -32.5q-136 0 -232.5 55.5t-147 154t-50.5 227.5q0 139 49.5 258.5t138 210t205.5 141t251 50.5t226.5 -55.5t140.5 -150.5t48 -214q0 -42 -7.5 -92t-17.5 -86h-966zM574 1328l14 60h483l-14 -60h-483z" />
    <glyph glyph-name="Ebreve" unicode="&#x114;" horiz-adv-x="1080" 
d="M398 1366l71 69l-145 -684l-24 44h593l-23 -110h-593l42 44l-146 -689l-42 69h707l-23 -109h-776l314 1475h776l-23 -109h-708zM575 1696h83q0 -39 33.5 -71.5t97.5 -32.5t105.5 32t45.5 72h83q-7 -69 -76 -115.5t-164 -46.5t-151.5 46.5t-56.5 115.5z" />
    <glyph glyph-name="ebreve" unicode="&#x115;" horiz-adv-x="1288" 
d="M184 479l24 111h860l-25 -35q5 21 9 49.5t4 62.5q0 83 -33.5 150.5t-101.5 107.5t-173 40q-113 0 -206.5 -42t-162 -116.5t-106 -173t-37.5 -212.5q0 -97 35.5 -171t108.5 -115t184 -41q93 0 165.5 22.5t124 59.5t83 78.5t43.5 78.5h125q-15 -59 -59.5 -120.5
t-116.5 -114.5t-168.5 -85.5t-214.5 -32.5q-136 0 -232.5 55.5t-147 154t-50.5 227.5q0 139 49.5 258.5t138 210t205.5 141t251 50.5t226.5 -55.5t140.5 -150.5t48 -214q0 -42 -7.5 -92t-17.5 -86h-966zM611 1475h82q0 -63 32.5 -105t96.5 -42q65 0 107 42t49 105h81
q-9 -94 -78.5 -149.5t-164.5 -55.5q-94 0 -149.5 55.5t-55.5 149.5z" />
    <glyph glyph-name="Edotaccent" unicode="&#x116;" horiz-adv-x="1080" 
d="M398 1366l71 69l-145 -684l-24 44h593l-23 -110h-593l42 44l-146 -689l-42 69h707l-23 -109h-776l314 1475h776l-23 -109h-708zM803 1574q-38 0 -66 22.5t-28 59.5q0 38 28 60.5t66 22.5t66 -22.5t28 -60.5q0 -37 -28 -59.5t-66 -22.5z" />
    <glyph glyph-name="edotaccent" unicode="&#x117;" horiz-adv-x="1288" 
d="M184 479l24 111h860l-25 -35q5 21 9 49.5t4 62.5q0 83 -33.5 150.5t-101.5 107.5t-173 40q-113 0 -206.5 -42t-162 -116.5t-106 -173t-37.5 -212.5q0 -97 35.5 -171t108.5 -115t184 -41q93 0 165.5 22.5t124 59.5t83 78.5t43.5 78.5h125q-15 -59 -59.5 -120.5
t-116.5 -114.5t-168.5 -85.5t-214.5 -32.5q-136 0 -232.5 55.5t-147 154t-50.5 227.5q0 139 49.5 258.5t138 210t205.5 141t251 50.5t226.5 -55.5t140.5 -150.5t48 -214q0 -42 -7.5 -92t-17.5 -86h-966zM831 1330q-36 0 -62.5 21.5t-26.5 56.5q0 26 14 45.5t36.5 30.5
t48.5 11q37 0 63 -21.5t26 -56.5q0 -26 -13.5 -46t-36 -30.5t-49.5 -10.5z" />
    <glyph glyph-name="Eogonek" unicode="&#x118;" horiz-adv-x="1080" 
d="M398 1366l71 69l-145 -684l-24 44h593l-23 -110h-593l42 44l-146 -689l-42 69h707l-23 -109h-776l314 1475h776l-23 -109h-708zM778 -342l-7 -70q-18 -4 -44 -6t-49 -2q-48 0 -84 15.5t-56 46t-20 76.5q0 54 36 106t87.5 97.5t98.5 78.5h75q-31 -25 -68 -58.5t-71 -71
t-55.5 -74t-21.5 -68.5q0 -41 24.5 -59.5t70.5 -18.5q20 0 43.5 2.5t40.5 5.5z" />
    <glyph glyph-name="eogonek" unicode="&#x119;" horiz-adv-x="1288" 
d="M736 -322l-7 -70q-19 -3 -44.5 -5.5t-49.5 -2.5q-71 0 -115.5 35t-44.5 103q0 54 36 106.5t88 98t99 77.5h74q-31 -25 -68 -58.5t-71 -70.5t-55.5 -74t-21.5 -69q0 -41 24.5 -59.5t70.5 -18.5q21 0 44.5 2.5t40.5 5.5zM184 479l24 111h860l-25 -35q5 21 9 49.5t4 62.5
q0 83 -33.5 150.5t-101.5 107.5t-173 40q-113 0 -206.5 -42t-162 -116.5t-106 -173t-37.5 -212.5q0 -97 35.5 -171t108.5 -115t184 -41q93 0 165.5 22.5t124 59.5t83 78.5t43.5 78.5h125q-15 -59 -59.5 -120.5t-116.5 -114.5t-168.5 -85.5t-214.5 -32.5q-136 0 -232.5 55.5
t-147 154t-50.5 227.5q0 139 49.5 258.5t138 210t205.5 141t251 50.5t226.5 -55.5t140.5 -150.5t48 -214q0 -42 -7.5 -92t-17.5 -86h-966z" />
    <glyph glyph-name="Ecaron" unicode="&#x11a;" horiz-adv-x="1080" 
d="M398 1366l71 69l-145 -684l-24 44h593l-23 -110h-593l42 44l-146 -689l-42 69h707l-23 -109h-776l314 1475h776l-23 -109h-708zM542 1716h103l160 -147h-40l189 147h108l-223 -170h-110z" />
    <glyph glyph-name="ecaron" unicode="&#x11b;" horiz-adv-x="1288" 
d="M184 479l24 111h860l-25 -35q5 21 9 49.5t4 62.5q0 83 -33.5 150.5t-101.5 107.5t-173 40q-113 0 -206.5 -42t-162 -116.5t-106 -173t-37.5 -212.5q0 -97 35.5 -171t108.5 -115t184 -41q93 0 165.5 22.5t124 59.5t83 78.5t43.5 78.5h125q-15 -59 -59.5 -120.5
t-116.5 -114.5t-168.5 -85.5t-214.5 -32.5q-136 0 -232.5 55.5t-147 154t-50.5 227.5q0 139 49.5 258.5t138 210t205.5 141t251 50.5t226.5 -55.5t140.5 -150.5t48 -214q0 -42 -7.5 -92t-17.5 -86h-966zM581 1475h95l154 -207h-40l194 207h101l-227 -233h-100z" />
    <glyph glyph-name="Gcircumflex" unicode="&#x11c;" horiz-adv-x="1331" 
d="M564 -19q-133 0 -234.5 66.5t-158 187.5t-56.5 285q0 186 55 359.5t156.5 311.5t242.5 219t313 81q112 0 189.5 -34.5t125 -92t69.5 -127t22 -138.5q0 -26 -3.5 -59t-8.5 -52h-121q5 18 8 49.5t3 52.5q0 73 -29 139t-95 107.5t-174 41.5q-146 0 -262 -74t-198 -198
t-125 -276.5t-43 -309.5q0 -133 42.5 -228.5t119.5 -147t179 -51.5q126 0 217 47t148.5 113t82.5 122l43 203h-384l22 104h497l-145 -682h-96l32 175q-16 -26 -69 -72.5t-143 -84t-222 -37.5zM635 1546l222 170h110l187 -170h-105l-157 148h40l-191 -148h-106z" />
    <glyph glyph-name="gcircumflex" unicode="&#x11d;" horiz-adv-x="1284" 
d="M458 -450q-77 0 -154 16.5t-141.5 50.5t-103 87.5t-38.5 127.5q0 21 3 39t8 39h124q-4 -18 -6 -31t-2 -26q0 -68 44.5 -112t117 -65.5t154.5 -21.5q98 0 185 33t151.5 113t94.5 220l222 1042h124l-221 -1042q-28 -132 -83 -222.5t-130 -144.5t-164 -78.5t-185 -24.5z
M537 -19q-114 0 -210 47t-153.5 142.5t-57.5 239.5q0 140 47 260.5t132.5 212t200.5 143t250 51.5q109 0 193 -40.5t132 -117t48 -184.5q0 -27 -4.5 -65t-11.5 -62h-82q5 17 8.5 45.5t3.5 47.5q0 81 -37 140.5t-102 91.5t-150 32q-113 0 -205 -42.5t-157.5 -117.5t-101 -174
t-35.5 -212q0 -110 41.5 -182.5t112.5 -108t160 -35.5q98 0 187 43.5t153.5 121.5t86.5 182l87 -5q-30 -144 -109 -245.5t-190 -155t-237 -53.5zM569 1242l227 233h100l177 -233h-97l-151 207h41l-198 -207h-99z" />
    <glyph glyph-name="Gbreve" unicode="&#x11e;" horiz-adv-x="1331" 
d="M564 -19q-133 0 -234.5 66.5t-158 187.5t-56.5 285q0 186 55 359.5t156.5 311.5t242.5 219t313 81q112 0 189.5 -34.5t125 -92t69.5 -127t22 -138.5q0 -26 -3.5 -59t-8.5 -52h-121q5 18 8 49.5t3 52.5q0 73 -29 139t-95 107.5t-174 41.5q-146 0 -262 -74t-198 -198
t-125 -276.5t-43 -309.5q0 -133 42.5 -228.5t119.5 -147t179 -51.5q126 0 217 47t148.5 113t82.5 122l43 203h-384l22 104h497l-145 -682h-96l32 175q-16 -26 -69 -72.5t-143 -84t-222 -37.5zM676 1696h83q0 -39 33.5 -71.5t97.5 -32.5t105.5 32t45.5 72h83
q-7 -69 -76 -115.5t-164 -46.5t-151.5 46.5t-56.5 115.5z" />
    <glyph glyph-name="gbreve" unicode="&#x11f;" horiz-adv-x="1284" 
d="M458 -450q-77 0 -154 16.5t-141.5 50.5t-103 87.5t-38.5 127.5q0 21 3 39t8 39h124q-4 -18 -6 -31t-2 -26q0 -68 44.5 -112t117 -65.5t154.5 -21.5q98 0 185 33t151.5 113t94.5 220l222 1042h124l-221 -1042q-28 -132 -83 -222.5t-130 -144.5t-164 -78.5t-185 -24.5z
M537 -19q-114 0 -210 47t-153.5 142.5t-57.5 239.5q0 140 47 260.5t132.5 212t200.5 143t250 51.5q109 0 193 -40.5t132 -117t48 -184.5q0 -27 -4.5 -65t-11.5 -62h-82q5 17 8.5 45.5t3.5 47.5q0 81 -37 140.5t-102 91.5t-150 32q-113 0 -205 -42.5t-157.5 -117.5t-101 -174
t-35.5 -212q0 -110 41.5 -182.5t112.5 -108t160 -35.5q98 0 187 43.5t153.5 121.5t86.5 182l87 -5q-30 -144 -109 -245.5t-190 -155t-237 -53.5zM615 1475h82q0 -63 32.5 -105t96.5 -42q65 0 107 42t49 105h81q-9 -94 -78.5 -149.5t-164.5 -55.5q-94 0 -149.5 55.5
t-55.5 149.5z" />
    <glyph glyph-name="Gdotaccent" unicode="&#x120;" horiz-adv-x="1331" 
d="M564 -19q-133 0 -234.5 66.5t-158 187.5t-56.5 285q0 186 55 359.5t156.5 311.5t242.5 219t313 81q112 0 189.5 -34.5t125 -92t69.5 -127t22 -138.5q0 -26 -3.5 -59t-8.5 -52h-121q5 18 8 49.5t3 52.5q0 73 -29 139t-95 107.5t-174 41.5q-146 0 -262 -74t-198 -198
t-125 -276.5t-43 -309.5q0 -133 42.5 -228.5t119.5 -147t179 -51.5q126 0 217 47t148.5 113t82.5 122l43 203h-384l22 104h497l-145 -682h-96l32 175q-16 -26 -69 -72.5t-143 -84t-222 -37.5zM903 1574q-38 0 -66 22.5t-28 59.5q0 38 28 60.5t66 22.5t66 -22.5t28 -60.5
q0 -37 -28 -59.5t-66 -22.5z" />
    <glyph glyph-name="gdotaccent" unicode="&#x121;" horiz-adv-x="1284" 
d="M458 -450q-77 0 -154 16.5t-141.5 50.5t-103 87.5t-38.5 127.5q0 21 3 39t8 39h124q-4 -18 -6 -31t-2 -26q0 -68 44.5 -112t117 -65.5t154.5 -21.5q98 0 185 33t151.5 113t94.5 220l222 1042h124l-221 -1042q-28 -132 -83 -222.5t-130 -144.5t-164 -78.5t-185 -24.5z
M537 -19q-114 0 -210 47t-153.5 142.5t-57.5 239.5q0 140 47 260.5t132.5 212t200.5 143t250 51.5q109 0 193 -40.5t132 -117t48 -184.5q0 -27 -4.5 -65t-11.5 -62h-82q5 17 8.5 45.5t3.5 47.5q0 81 -37 140.5t-102 91.5t-150 32q-113 0 -205 -42.5t-157.5 -117.5t-101 -174
t-35.5 -212q0 -110 41.5 -182.5t112.5 -108t160 -35.5q98 0 187 43.5t153.5 121.5t86.5 182l87 -5q-30 -144 -109 -245.5t-190 -155t-237 -53.5zM835 1330q-36 0 -62.5 21.5t-26.5 56.5q0 26 14 45.5t36.5 30.5t48.5 11q37 0 63 -21.5t26 -56.5q0 -26 -13.5 -46t-36 -30.5
t-49.5 -10.5z" />
    <glyph glyph-name="uni0122" unicode="&#x122;" horiz-adv-x="1331" 
d="M564 -19q-133 0 -234.5 66.5t-158 187.5t-56.5 285q0 186 55 359.5t156.5 311.5t242.5 219t313 81q112 0 189.5 -34.5t125 -92t69.5 -127t22 -138.5q0 -26 -3.5 -59t-8.5 -52h-121q5 18 8 49.5t3 52.5q0 73 -29 139t-95 107.5t-174 41.5q-146 0 -262 -74t-198 -198
t-125 -276.5t-43 -309.5q0 -133 42.5 -228.5t119.5 -147t179 -51.5q126 0 217 47t148.5 113t82.5 122l43 203h-384l22 104h497l-145 -682h-96l32 175q-16 -26 -69 -72.5t-143 -84t-222 -37.5zM520 -233q-30 0 -49.5 16.5t-19.5 44.5q0 35 26.5 56.5t64.5 21.5q31 0 57 -17.5
t26 -58.5q0 -56 -23.5 -107.5t-62.5 -91t-87 -63.5l-14 30q28 14 60 42t55 67t25 84q-6 -10 -22.5 -17t-35.5 -7z" />
    <glyph glyph-name="uni0123" unicode="&#x123;" horiz-adv-x="1284" 
d="M458 -450q-77 0 -154 16.5t-141.5 50.5t-103 87.5t-38.5 127.5q0 21 3 39t8 39h124q-4 -18 -6 -31t-2 -26q0 -68 44.5 -112t117 -65.5t154.5 -21.5q98 0 185 33t151.5 113t94.5 220l222 1042h124l-221 -1042q-28 -132 -83 -222.5t-130 -144.5t-164 -78.5t-185 -24.5z
M537 -19q-114 0 -210 47t-153.5 142.5t-57.5 239.5q0 140 47 260.5t132.5 212t200.5 143t250 51.5q109 0 193 -40.5t132 -117t48 -184.5q0 -27 -4.5 -65t-11.5 -62h-82q5 17 8.5 45.5t3.5 47.5q0 81 -37 140.5t-102 91.5t-150 32q-113 0 -205 -42.5t-157.5 -117.5t-101 -174
t-35.5 -212q0 -110 41.5 -182.5t112.5 -108t160 -35.5q98 0 187 43.5t153.5 121.5t86.5 182l87 -5q-30 -144 -109 -245.5t-190 -155t-237 -53.5zM846 1371q31 0 48 -15.5t17 -41.5q0 -41 -28 -70t-77 -29q-39 0 -58 22t-19 57q0 50 27 94.5t70.5 77.5t92.5 49l7 -32
q-28 -9 -56.5 -30t-49.5 -47t-28 -55q5 8 20 14t34 6z" />
    <glyph glyph-name="Hcircumflex" unicode="&#x124;" horiz-adv-x="1254" 
d="M1302 1475l-314 -1475h-124l158 741l44 -61h-813l68 61l-158 -741h-124l314 1475h124l-160 -748l-44 63h814l-68 -63l159 748h124zM595 1546l222 170h110l187 -170h-105l-157 148h40l-191 -148h-106z" />
    <glyph glyph-name="hcircumflex" unicode="&#x125;" horiz-adv-x="1219" 
d="M821 0l100 454q16 66 26.5 121.5t16.5 102t6 82.5q0 40 -13 76t-41.5 63.5t-73.5 44t-109 16.5q-101 0 -189 -42t-147.5 -111.5t-78.5 -153.5l-83 24q23 107 102 198t194 146.5t246 55.5q84 0 145.5 -23t100.5 -62.5t57.5 -91t18.5 -109.5q0 -62 -14.5 -143.5
t-42.5 -204.5l-98 -443h-123zM57 0l332 1563h124l-332 -1563h-124zM255 1730l227 233h100l177 -233h-97l-151 207h41l-198 -207h-99z" />
    <glyph glyph-name="Hbar" unicode="&#x126;" horiz-adv-x="1254" 
d="M175 1103l21 95h1145l-21 -95h-1145zM1302 1475l-314 -1475h-124l158 741l44 -61h-813l68 61l-158 -741h-124l314 1475h124l-160 -748l-44 63h814l-68 -63l159 748h124z" />
    <glyph glyph-name="hbar" unicode="&#x127;" horiz-adv-x="1202" 
d="M203 1304l20 95h585l-21 -95h-584zM821 0l100 454q16 66 26.5 121.5t16.5 102t6 82.5q0 40 -13 76t-41.5 63.5t-73.5 44t-109 16.5q-101 0 -189 -42t-147.5 -111.5t-78.5 -153.5l-83 24q23 107 102 198t194 146.5t246 55.5q84 0 145.5 -23t100.5 -62.5t57.5 -91
t18.5 -109.5q0 -62 -14.5 -143.5t-42.5 -204.5l-98 -443h-123zM57 0l332 1563h124l-332 -1563h-124z" />
    <glyph glyph-name="Itilde" unicode="&#x128;" horiz-adv-x="456" 
d="M51 0l313 1475h123l-313 -1475h-123zM731 1682q-4 -25 -21.5 -57t-51.5 -57t-88 -25q-43 0 -73 18t-53 37q-19 17 -42 30.5t-55 13.5q-43 0 -61 -23.5t-23 -47.5h-78q5 28 25.5 61t57 57t88.5 24q44 0 71 -17t48 -36q22 -18 46 -32.5t53 -14.5q44 0 59.5 23.5t19.5 45.5
h78z" />
    <glyph glyph-name="itilde" unicode="&#x129;" horiz-adv-x="483" 
d="M66 0l225 1062h123l-225 -1062h-123zM690 1449q-4 -24 -21.5 -56.5t-51.5 -57t-88 -24.5q-43 0 -73 17.5t-53 37.5q-19 16 -41.5 30t-54.5 14q-44 0 -62 -24t-22 -47h-79q5 28 26 60.5t57.5 56.5t87.5 24q44 0 71 -16.5t49 -35.5q21 -19 45 -33t53 -14q45 0 60 23t20 45
h77z" />
    <glyph glyph-name="Imacron" unicode="&#x12a;" horiz-adv-x="456" 
d="M51 0l313 1475h123l-313 -1475h-123zM215 1608l13 60h483l-13 -60h-483z" />
    <glyph glyph-name="imacron" unicode="&#x12b;" horiz-adv-x="483" 
d="M66 0l225 1062h123l-225 -1062h-123zM230 1328l13 60h348l-13 -60h-348z" />
    <glyph glyph-name="Ibreve" unicode="&#x12c;" horiz-adv-x="456" 
d="M51 0l313 1475h123l-313 -1475h-123zM235 1696h83q0 -39 33.5 -71.5t97.5 -32.5t105.5 32t45.5 72h83q-7 -69 -76 -115.5t-164 -46.5t-151.5 46.5t-56.5 115.5z" />
    <glyph glyph-name="ibreve" unicode="&#x12d;" horiz-adv-x="483" 
d="M66 0l225 1062h123l-225 -1062h-123zM200 1475h82q0 -63 32.5 -105t96.5 -42q65 0 107 42t49 105h81q-9 -94 -78.5 -149.5t-164.5 -55.5q-94 0 -149.5 55.5t-55.5 149.5z" />
    <glyph glyph-name="Iogonek" unicode="&#x12e;" horiz-adv-x="456" 
d="M51 0l313 1475h123l-313 -1475h-123zM137 -342l-7 -70q-18 -4 -44 -6t-49 -2q-48 0 -84 15.5t-56 46t-20 76.5q0 54 36 106t87.5 97.5t98.5 78.5h75q-31 -25 -68 -58.5t-71 -71t-55.5 -74t-21.5 -68.5q0 -41 24.5 -59.5t70.5 -18.5q20 0 43.5 2.5t40.5 5.5z" />
    <glyph glyph-name="iogonek" unicode="&#x12f;" horiz-adv-x="483" 
d="M66 0l225 1062h123l-225 -1062h-123zM152 -342l-7 -70q-18 -4 -44 -6t-49 -2q-71 0 -115.5 35t-44.5 103q0 54 36 106t87.5 97.5t98.5 78.5h75q-31 -25 -68 -58.5t-71 -71t-55.5 -74t-21.5 -68.5q0 -41 24.5 -59.5t70.5 -18.5q20 0 43.5 2.5t40.5 5.5zM420 1330
q-36 0 -62.5 21.5t-26.5 56.5q0 26 14 45.5t36.5 30.5t48.5 11q37 0 63 -21.5t26 -56.5q0 -26 -13.5 -46t-36 -30.5t-49.5 -10.5z" />
    <glyph glyph-name="Idotaccent" unicode="&#x130;" horiz-adv-x="456" 
d="M51 0l313 1475h123l-313 -1475h-123zM463 1574q-38 0 -66 22.5t-28 59.5q0 38 28 60.5t66 22.5t66 -22.5t28 -60.5q0 -37 -28 -59.5t-66 -22.5z" />
    <glyph glyph-name="dotlessi" unicode="&#x131;" horiz-adv-x="483" 
d="M66 0l225 1062h123l-225 -1062h-123z" />
    <glyph glyph-name="Jcircumflex" unicode="&#x134;" horiz-adv-x="1067" 
d="M401 -19q-172 0 -255.5 87t-83.5 233q0 51 9.5 108t20.5 103h122q-11 -50 -18.5 -97t-7.5 -94q0 -110 54 -169.5t171 -59.5q149 0 238.5 103.5t128.5 289.5l211 990h123l-212 -1005q-23 -107 -63 -196.5t-100.5 -155t-144 -101.5t-193.5 -36zM823 1546l222 170h110
l187 -170h-105l-157 148h40l-191 -148h-106z" />
    <glyph glyph-name="jcircumflex" unicode="&#x135;" horiz-adv-x="511" 
d="M-217 -443q-31 0 -52.5 4.5t-32.5 9.5l25 92q13 -4 31 -8t48 -4q90 0 144 40.5t82 100t40 117.5l246 1153h124l-247 -1162q-14 -65 -39.5 -126t-71.5 -110t-118 -78t-179 -29zM181 1242l227 233h100l177 -233h-97l-151 207h41l-198 -207h-99z" />
    <glyph glyph-name="uni0136" unicode="&#x136;" horiz-adv-x="1120" 
d="M507 757l22 97l404 -854h-134l-361 756l55 -8l-235 -241l31 83l-125 -590h-124l313 1475h125l-176 -826l-31 25l790 801h146zM406 -233q-30 0 -49.5 16.5t-19.5 44.5q0 35 26.5 56.5t64.5 21.5q31 0 57 -17.5t26 -58.5q0 -56 -23.5 -107.5t-62.5 -91t-87 -63.5l-14 30
q28 14 60 42t55 67t25 84q-6 -10 -22.5 -17t-35.5 -7z" />
    <glyph glyph-name="uni0137" unicode="&#x137;" horiz-adv-x="1030" 
d="M57 0l332 1563h118l-208 -979l-43 22l641 456h179l-611 -443l42 63l339 -682h-129l-297 608l20 -8l-184 -135l32 62l-113 -527h-118zM391 -233q-30 0 -49.5 16.5t-19.5 44.5q0 35 26.5 56.5t64.5 21.5q31 0 57 -17.5t26 -58.5q0 -56 -23.5 -107.5t-62.5 -91t-87 -63.5
l-14 30q28 14 60 42t55 67t25 84q-6 -10 -22.5 -17t-35.5 -7z" />
    <glyph glyph-name="kgreenlandic" unicode="&#x138;" horiz-adv-x="910" 
d="M439 545l2 70l295 -615h-125l-260 544l65 -17l-176 -177l25 75l-90 -425h-118l226 1062h118l-126 -595l-49 19l573 576h140z" />
    <glyph glyph-name="Lacute" unicode="&#x139;" horiz-adv-x="965" 
d="M40 0l313 1475h124l-305 -1435l-41 69h650l-24 -109h-717zM337 1548l274 173h141l-291 -173h-124z" />
    <glyph glyph-name="lacute" unicode="&#x13a;" horiz-adv-x="479" 
d="M527 1563l-332 -1563h-123l332 1563h123zM377 1636l274 173h141l-291 -173h-124z" />
    <glyph glyph-name="uni013B" unicode="&#x13b;" horiz-adv-x="965" 
d="M40 0l313 1475h124l-305 -1435l-41 69h650l-24 -109h-717zM369 -233q-30 0 -49.5 16.5t-19.5 44.5q0 35 26.5 56.5t64.5 21.5q31 0 57 -17.5t26 -58.5q0 -56 -23.5 -107.5t-62.5 -91t-87 -63.5l-14 30q28 14 60 42t55 67t25 84q-6 -10 -22.5 -17t-35.5 -7z" />
    <glyph glyph-name="uni013C" unicode="&#x13c;" horiz-adv-x="479" 
d="M527 1563l-332 -1563h-123l332 1563h123zM85 -233q-30 0 -49.5 16.5t-19.5 44.5q0 35 26.5 56.5t64.5 21.5q31 0 57 -17.5t26 -58.5q0 -56 -23.5 -107.5t-62.5 -91t-87 -63.5l-14 30q28 14 60 42t55 67t25 84q-6 -10 -22.5 -17t-35.5 -7z" />
    <glyph glyph-name="Lcaron" unicode="&#x13d;" horiz-adv-x="965" 
d="M40 0l313 1475h124l-305 -1435l-41 69h650l-24 -109h-717zM907 1475q-7 -71 -22.5 -149t-30 -139.5t-21.5 -85.5h-70q7 25 19.5 85t25 137t19.5 152h80z" />
    <glyph glyph-name="lcaron" unicode="&#x13e;" horiz-adv-x="470" 
d="M512 1563l-332 -1563h-123l332 1563h123zM669 1563q-7 -71 -22.5 -149t-30 -139.5t-21.5 -85.5h-70q7 25 19.5 85t25 137t19.5 152h80z" />
    <glyph glyph-name="Ldot" unicode="&#x13f;" horiz-adv-x="955" 
d="M40 0l313 1475h124l-305 -1435l-41 69h650l-24 -109h-717zM736 634q-42 0 -71 29t-29 71q0 41 29 70.5t71 29.5t71 -29.5t29 -70.5q0 -42 -29 -71t-71 -29z" />
    <glyph glyph-name="ldot" unicode="&#x140;" horiz-adv-x="553" 
d="M512 1563l-332 -1563h-123l332 1563h123zM525 634q-42 0 -71 29t-29 71q0 41 29 70.5t71 29.5t71 -29.5t29 -70.5q0 -42 -29 -71t-71 -29z" />
    <glyph glyph-name="Lslash" unicode="&#x141;" horiz-adv-x="1007" 
d="M677 861l-653 -457l-34 84l653 456zM82 0l313 1475h124l-305 -1435l-41 69h650l-24 -109h-717z" />
    <glyph glyph-name="lslash" unicode="&#x142;" horiz-adv-x="501" 
d="M52 794l491 274l26 -70l-491 -274zM527 1563l-332 -1563h-123l332 1563h123z" />
    <glyph glyph-name="Nacute" unicode="&#x143;" horiz-adv-x="1306" 
d="M160 0h-121l314 1475h202l390 -1403l-11 -6l300 1409h121l-314 -1475h-205l-388 1401l11 6zM784 1548l274 173h141l-291 -173h-124z" />
    <glyph glyph-name="nacute" unicode="&#x144;" horiz-adv-x="1217" 
d="M821 0l122 567q16 76 23.5 120.5t7.5 81.5q0 89 -62 140t-183 51q-89 0 -177.5 -44.5t-153.5 -120.5t-85 -171l-74 28q20 92 73.5 169.5t129 134.5t162 89t172.5 32q151 0 240 -70t89 -199q0 -49 -11 -110.5t-29 -140.5l-121 -557h-123zM57 0l226 1062h124l-226 -1062
h-124zM702 1242l229 233h131l-254 -233h-106z" />
    <glyph glyph-name="uni0145" unicode="&#x145;" horiz-adv-x="1306" 
d="M160 0h-121l314 1475h202l390 -1403l-11 -6l300 1409h121l-314 -1475h-205l-388 1401l11 6zM501 -233q-30 0 -49.5 16.5t-19.5 44.5q0 35 26.5 56.5t64.5 21.5q31 0 57 -17.5t26 -58.5q0 -56 -23.5 -107.5t-62.5 -91t-87 -63.5l-14 30q28 14 60 42t55 67t25 84
q-6 -10 -22.5 -17t-35.5 -7z" />
    <glyph glyph-name="uni0146" unicode="&#x146;" horiz-adv-x="1217" 
d="M821 0l122 567q16 76 23.5 120.5t7.5 81.5q0 89 -62 140t-183 51q-89 0 -177.5 -44.5t-153.5 -120.5t-85 -171l-74 28q20 92 73.5 169.5t129 134.5t162 89t172.5 32q151 0 240 -70t89 -199q0 -49 -11 -110.5t-29 -140.5l-121 -557h-123zM57 0l226 1062h124l-226 -1062
h-124zM454 -233q-30 0 -49.5 16.5t-19.5 44.5q0 35 26.5 56.5t64.5 21.5q31 0 57 -17.5t26 -58.5q0 -56 -23.5 -107.5t-62.5 -91t-87 -63.5l-14 30q28 14 60 42t55 67t25 84q-6 -10 -22.5 -17t-35.5 -7z" />
    <glyph glyph-name="Ncaron" unicode="&#x147;" horiz-adv-x="1306" 
d="M160 0h-121l314 1475h202l390 -1403l-11 -6l300 1409h121l-314 -1475h-205l-388 1401l11 6zM646 1716h103l160 -147h-40l189 147h108l-223 -170h-110z" />
    <glyph glyph-name="ncaron" unicode="&#x148;" horiz-adv-x="1217" 
d="M821 0l122 567q16 76 23.5 120.5t7.5 81.5q0 89 -62 140t-183 51q-89 0 -177.5 -44.5t-153.5 -120.5t-85 -171l-74 28q20 92 73.5 169.5t129 134.5t162 89t172.5 32q151 0 240 -70t89 -199q0 -49 -11 -110.5t-29 -140.5l-121 -557h-123zM57 0l226 1062h124l-226 -1062
h-124zM577 1475h95l154 -207h-40l194 207h101l-227 -233h-100z" />
    <glyph glyph-name="Eng" unicode="&#x14a;" horiz-adv-x="1307" 
d="M572 -457q-34 0 -62 4t-39 8l20 94q13 -4 41 -8.5t59 -4.5q76 0 130.5 26.5t91 69t58 92.5t31.5 97l17 79h-65l-405 1391l8 3l-296 -1394h-121l313 1475h196l406 -1397l-18 -3l297 1400h121l-329 -1552q-17 -77 -48.5 -145.5t-84 -121.5t-131.5 -83t-190 -30z" />
    <glyph glyph-name="eng" unicode="&#x14b;" horiz-adv-x="1193" 
d="M450 -457l20 93q75 0 129.5 26.5t91 69t58 92.5t31.5 97l140 646q16 75 23 120.5t7 82.5q0 88 -50.5 139t-170.5 51q-89 0 -177.5 -44.5t-153.5 -120.5t-85 -171l-75 28q20 92 73.5 169.5t129 134.5t162.5 89t173 32q150 0 227.5 -70t77.5 -200q0 -48 -11 -108.5
t-28 -141.5l-137 -634q-17 -77 -49 -145.5t-84.5 -121.5t-131 -83t-190.5 -30zM57 0l226 1062h124l-226 -1062h-124z" />
    <glyph glyph-name="Omacron" unicode="&#x14c;" horiz-adv-x="1367" 
d="M575 -19q-140 0 -243 64.5t-159 186t-56 292.5q0 185 54 358.5t153.5 311t239.5 217.5t312 80q141 0 244 -63t158.5 -183t55.5 -291q0 -186 -54 -360t-154 -312.5t-239.5 -219.5t-311.5 -81zM588 93q146 0 261 74.5t195.5 199t123 277t42.5 307.5q0 139 -43 234
t-120.5 144.5t-185.5 49.5q-145 0 -260 -74.5t-195.5 -197.5t-122.5 -274.5t-42 -307.5q0 -209 93.5 -320.5t253.5 -111.5zM669 1608l13 60h483l-13 -60h-483z" />
    <glyph glyph-name="omacron" unicode="&#x14d;" horiz-adv-x="1308" 
d="M554 -19q-136 0 -234 54.5t-151 151.5t-53 226q0 140 48.5 261t135 211.5t203 141t252.5 50.5q137 0 234.5 -56t149.5 -152.5t52 -218.5q0 -148 -49.5 -270.5t-136.5 -211.5t-202.5 -138t-248.5 -49zM563 92q141 0 254.5 68.5t180.5 191t67 285.5q0 100 -37 173.5
t-107.5 114.5t-173.5 41q-110 0 -202.5 -41.5t-160 -115.5t-105 -172t-37.5 -212q0 -154 83.5 -243.5t237.5 -89.5zM579 1328l14 60h483l-14 -60h-483z" />
    <glyph glyph-name="Obreve" unicode="&#x14e;" horiz-adv-x="1367" 
d="M575 -19q-140 0 -243 64.5t-159 186t-56 292.5q0 185 54 358.5t153.5 311t239.5 217.5t312 80q141 0 244 -63t158.5 -183t55.5 -291q0 -186 -54 -360t-154 -312.5t-239.5 -219.5t-311.5 -81zM588 93q146 0 261 74.5t195.5 199t123 277t42.5 307.5q0 139 -43 234
t-120.5 144.5t-185.5 49.5q-145 0 -260 -74.5t-195.5 -197.5t-122.5 -274.5t-42 -307.5q0 -209 93.5 -320.5t253.5 -111.5zM689 1696h83q0 -39 33.5 -71.5t97.5 -32.5t105.5 32t45.5 72h83q-7 -69 -76 -115.5t-164 -46.5t-151.5 46.5t-56.5 115.5z" />
    <glyph glyph-name="obreve" unicode="&#x14f;" horiz-adv-x="1308" 
d="M554 -19q-136 0 -234 54.5t-151 151.5t-53 226q0 140 48.5 261t135 211.5t203 141t252.5 50.5q137 0 234.5 -56t149.5 -152.5t52 -218.5q0 -148 -49.5 -270.5t-136.5 -211.5t-202.5 -138t-248.5 -49zM563 92q141 0 254.5 68.5t180.5 191t67 285.5q0 100 -37 173.5
t-107.5 114.5t-173.5 41q-110 0 -202.5 -41.5t-160 -115.5t-105 -172t-37.5 -212q0 -154 83.5 -243.5t237.5 -89.5zM616 1475h82q0 -63 32.5 -105t96.5 -42q65 0 107 42t49 105h81q-9 -94 -78.5 -149.5t-164.5 -55.5q-94 0 -149.5 55.5t-55.5 149.5z" />
    <glyph glyph-name="Ohungarumlaut" unicode="&#x150;" horiz-adv-x="1367" 
d="M575 -19q-140 0 -243 64.5t-159 186t-56 292.5q0 185 54 358.5t153.5 311t239.5 217.5t312 80q141 0 244 -63t158.5 -183t55.5 -291q0 -186 -54 -360t-154 -312.5t-239.5 -219.5t-311.5 -81zM588 93q146 0 261 74.5t195.5 199t123 277t42.5 307.5q0 139 -43 234
t-120.5 144.5t-185.5 49.5q-145 0 -260 -74.5t-195.5 -197.5t-122.5 -274.5t-42 -307.5q0 -209 93.5 -320.5t253.5 -111.5zM697 1548l222 173h120l-246 -173h-96zM955 1548l222 173h120l-246 -173h-96z" />
    <glyph glyph-name="ohungarumlaut" unicode="&#x151;" horiz-adv-x="1308" 
d="M554 -19q-136 0 -234 54.5t-151 151.5t-53 226q0 140 48.5 261t135 211.5t203 141t252.5 50.5q137 0 234.5 -56t149.5 -152.5t52 -218.5q0 -148 -49.5 -270.5t-136.5 -211.5t-202.5 -138t-248.5 -49zM563 92q141 0 254.5 68.5t180.5 191t67 285.5q0 100 -37 173.5
t-107.5 114.5t-173.5 41q-110 0 -202.5 -41.5t-160 -115.5t-105 -172t-37.5 -212q0 -154 83.5 -243.5t237.5 -89.5zM558 1242l161 233h112l-192 -233h-81zM859 1242l166 233h111l-196 -233h-81z" />
    <glyph glyph-name="OE" unicode="&#x152;" horiz-adv-x="2035" 
d="M547 -19q-139 0 -235 61.5t-146.5 178t-50.5 281.5q0 186 50 362.5t145.5 318t232 225t308.5 83.5q114 0 199 -42t134 -118t57 -176l67 320h775l-23 -109h-712l71 69l-145 -681l-25 41h606l-24 -110h-606l43 42l-146 -687l-41 69h712l-24 -109h-775l56 268
q-44 -83 -118 -148t-171.5 -102t-213.5 -37zM562 93q116 0 211.5 50t169 136t123.5 197.5t76 236t26 250.5q0 204 -87 310t-246 106q-144 0 -255 -76.5t-187 -204t-114.5 -282t-38.5 -311.5q0 -200 82.5 -306t239.5 -106z" />
    <glyph glyph-name="oe" unicode="&#x153;" horiz-adv-x="2230" 
d="M554 -19q-136 0 -234 54.5t-151 151.5t-53 226q0 140 48.5 261t135 211.5t203 141t252.5 50.5q176 0 286.5 -92.5t135.5 -247.5l-32 4q54 101 138.5 176t191 117.5t227.5 42.5q134 0 226.5 -55.5t140.5 -150.5t48 -214q0 -42 -7.5 -92t-17.5 -86h-968l64 37
q-7 -23 -9 -47t-2 -48q0 -97 35.5 -171t108.5 -115t184 -41q94 0 166 22.5t123.5 59.5t83.5 78.5t43 78.5h125q-14 -59 -58.5 -120.5t-116.5 -114.5t-168.5 -85.5t-214.5 -32.5t-205 42.5t-140.5 118t-71.5 176.5l32 -5q-52 -101 -135.5 -175.5t-188.5 -115t-225 -40.5z
M563 92q141 0 254.5 68.5t180.5 191t67 285.5q0 100 -37 173.5t-107.5 114.5t-173.5 41q-110 0 -202.5 -41.5t-160 -115.5t-105 -172t-37.5 -212q0 -154 83.5 -243.5t237.5 -89.5zM1202 590h789q3 15 4.5 37t1.5 40q0 83 -33 150.5t-101 107.5t-173 40q-121 0 -220 -48.5
t-168 -133t-100 -193.5z" />
    <glyph glyph-name="Racute" unicode="&#x154;" horiz-adv-x="1172" 
d="M39 0l314 1475h472q171 0 253.5 -77.5t82.5 -208.5q0 -78 -25 -159t-71.5 -150.5t-110.5 -115.5t-140 -54q45 -4 84.5 -22.5t65 -56.5t25.5 -100q0 -26 -9 -75t-22.5 -109t-27 -120.5t-23 -110.5t-9.5 -77q0 -14 1.5 -24.5t3.5 -14.5h-125q-4 11 -4 36t9 72t22 104
t25.5 114t21.5 104.5t9 71.5q0 81 -58 116t-158 35h-400l64 44l-148 -697h-122zM314 720l-48 43h403q102 0 183.5 54t129.5 143t48 192q0 99 -57 156.5t-185 57.5h-390l68 68zM639 1548l274 173h141l-291 -173h-124z" />
    <glyph glyph-name="racute" unicode="&#x155;" horiz-adv-x="790" 
d="M58 0l225 1062h124l-66 -313l-47 14q17 50 52 104.5t88 102.5t123.5 77.5t158.5 29.5q63 0 101.5 -11t46.5 -17l-59 -120q-9 7 -37.5 18t-86.5 11q-84 0 -148 -32.5t-109 -84.5t-72.5 -111t-38.5 -112l-132 -618h-123zM543 1242l229 233h131l-254 -233h-106z" />
    <glyph glyph-name="uni0156" unicode="&#x156;" horiz-adv-x="1172" 
d="M39 0l314 1475h472q171 0 253.5 -77.5t82.5 -208.5q0 -78 -25 -159t-71.5 -150.5t-110.5 -115.5t-140 -54q45 -4 84.5 -22.5t65 -56.5t25.5 -100q0 -26 -9 -75t-22.5 -109t-27 -120.5t-23 -110.5t-9.5 -77q0 -14 1.5 -24.5t3.5 -14.5h-125q-4 11 -4 36t9 72t22 104
t25.5 114t21.5 104.5t9 71.5q0 81 -58 116t-158 35h-400l64 44l-148 -697h-122zM314 720l-48 43h403q102 0 183.5 54t129.5 143t48 192q0 99 -57 156.5t-185 57.5h-390l68 68zM404 -233q-30 0 -49.5 16.5t-19.5 44.5q0 35 26.5 56.5t64.5 21.5q31 0 57 -17.5t26 -58.5
q0 -56 -23.5 -107.5t-62.5 -91t-87 -63.5l-14 30q28 14 60 42t55 67t25 84q-6 -10 -22.5 -17t-35.5 -7z" />
    <glyph glyph-name="uni0157" unicode="&#x157;" horiz-adv-x="790" 
d="M58 0l225 1062h124l-66 -313l-47 14q17 50 52 104.5t88 102.5t123.5 77.5t158.5 29.5q63 0 101.5 -11t46.5 -17l-59 -120q-9 7 -37.5 18t-86.5 11q-84 0 -148 -32.5t-109 -84.5t-72.5 -111t-38.5 -112l-132 -618h-123zM73 -233q-30 0 -49.5 16.5t-19.5 44.5
q0 35 26.5 56.5t64.5 21.5q31 0 57 -17.5t26 -58.5q0 -56 -23.5 -107.5t-62.5 -91t-87 -63.5l-14 30q28 14 60 42t55 67t25 84q-6 -10 -22.5 -17t-35.5 -7z" />
    <glyph glyph-name="Rcaron" unicode="&#x158;" horiz-adv-x="1172" 
d="M39 0l314 1475h472q171 0 253.5 -77.5t82.5 -208.5q0 -78 -25 -159t-71.5 -150.5t-110.5 -115.5t-140 -54q45 -4 84.5 -22.5t65 -56.5t25.5 -100q0 -26 -9 -75t-22.5 -109t-27 -120.5t-23 -110.5t-9.5 -77q0 -14 1.5 -24.5t3.5 -14.5h-125q-4 11 -4 36t9 72t22 104
t25.5 114t21.5 104.5t9 71.5q0 81 -58 116t-158 35h-400l64 44l-148 -697h-122zM314 720l-48 43h403q102 0 183.5 54t129.5 143t48 192q0 99 -57 156.5t-185 57.5h-390l68 68zM501 1716h103l160 -147h-40l189 147h108l-223 -170h-110z" />
    <glyph glyph-name="rcaron" unicode="&#x159;" horiz-adv-x="790" 
d="M58 0l225 1062h124l-66 -313l-47 14q17 50 52 104.5t88 102.5t123.5 77.5t158.5 29.5q63 0 101.5 -11t46.5 -17l-59 -120q-9 7 -37.5 18t-86.5 11q-84 0 -148 -32.5t-109 -84.5t-72.5 -111t-38.5 -112l-132 -618h-123zM418 1475h95l154 -207h-40l194 207h101l-227 -233
h-100z" />
    <glyph glyph-name="Sacute" unicode="&#x15a;" horiz-adv-x="1123" 
d="M452 -19q-124 0 -214 35t-137.5 104.5t-47.5 172.5q0 49 7.5 92t21.5 101h124q-14 -58 -20 -96.5t-6 -77.5q0 -116 72 -167.5t210 -51.5q119 0 211.5 35.5t145.5 106.5t53 179q0 102 -78 167t-214 111q-105 37 -185 87t-125 120t-45 164q0 104 39.5 183.5t110.5 134
t165 82.5t205 28q123 0 212.5 -33.5t137.5 -100t48 -167.5q0 -44 -7 -89.5t-19 -99.5h-125q13 54 19 93.5t6 77.5q0 113 -74 160t-210 47q-111 0 -198 -31.5t-136.5 -96.5t-49.5 -166q0 -114 84.5 -179t225.5 -115q107 -37 182 -86.5t115 -115.5t40 -155q0 -144 -71 -245.5
t-194 -154.5t-279 -53zM662 1548l274 173h141l-291 -173h-124z" />
    <glyph glyph-name="sacute" unicode="&#x15b;" horiz-adv-x="1119" 
d="M451 -19q-87 0 -157.5 17.5t-121 49.5t-78 78t-27.5 103q0 22 4 47t8 40h125q-4 -12 -6.5 -31t-2.5 -33q0 -76 70.5 -117.5t201.5 -41.5q88 0 168.5 21.5t132 68.5t51.5 124t-67 113.5t-210 60.5q-99 16 -178 46.5t-125 82.5t-46 133q0 84 39.5 146.5t106.5 104.5
t151.5 62.5t173.5 20.5q100 0 183 -29t132.5 -84.5t49.5 -134.5q0 -25 -3 -46t-7 -37h-124q4 14 6 27.5t2 32.5q0 57 -35 92t-91.5 51.5t-124.5 16.5q-84 0 -160.5 -22t-125.5 -67t-49 -114q0 -80 73 -116.5t200 -61.5q77 -15 142 -34.5t112 -49t73 -72t26 -103.5
q0 -91 -41 -156.5t-111 -107t-158 -61.5t-182 -20zM610 1242l229 233h131l-254 -233h-106z" />
    <glyph glyph-name="Scircumflex" unicode="&#x15c;" horiz-adv-x="1123" 
d="M452 -19q-124 0 -214 35t-137.5 104.5t-47.5 172.5q0 49 7.5 92t21.5 101h124q-14 -58 -20 -96.5t-6 -77.5q0 -116 72 -167.5t210 -51.5q119 0 211.5 35.5t145.5 106.5t53 179q0 102 -78 167t-214 111q-105 37 -185 87t-125 120t-45 164q0 104 39.5 183.5t110.5 134
t165 82.5t205 28q123 0 212.5 -33.5t137.5 -100t48 -167.5q0 -44 -7 -89.5t-19 -99.5h-125q13 54 19 93.5t6 77.5q0 113 -74 160t-210 47q-111 0 -198 -31.5t-136.5 -96.5t-49.5 -166q0 -114 84.5 -179t225.5 -115q107 -37 182 -86.5t115 -115.5t40 -155q0 -144 -71 -245.5
t-194 -154.5t-279 -53zM517 1546l222 170h110l187 -170h-105l-157 148h40l-191 -148h-106z" />
    <glyph glyph-name="scircumflex" unicode="&#x15d;" horiz-adv-x="1119" 
d="M451 -19q-87 0 -157.5 17.5t-121 49.5t-78 78t-27.5 103q0 22 4 47t8 40h125q-4 -12 -6.5 -31t-2.5 -33q0 -76 70.5 -117.5t201.5 -41.5q88 0 168.5 21.5t132 68.5t51.5 124t-67 113.5t-210 60.5q-99 16 -178 46.5t-125 82.5t-46 133q0 84 39.5 146.5t106.5 104.5
t151.5 62.5t173.5 20.5q100 0 183 -29t132.5 -84.5t49.5 -134.5q0 -25 -3 -46t-7 -37h-124q4 14 6 27.5t2 32.5q0 57 -35 92t-91.5 51.5t-124.5 16.5q-84 0 -160.5 -22t-125.5 -67t-49 -114q0 -80 73 -116.5t200 -61.5q77 -15 142 -34.5t112 -49t73 -72t26 -103.5
q0 -91 -41 -156.5t-111 -107t-158 -61.5t-182 -20zM469 1242l227 233h100l177 -233h-97l-151 207h41l-198 -207h-99z" />
    <glyph glyph-name="Scedilla" unicode="&#x15e;" horiz-adv-x="1123" 
d="M504 -129q46 0 81.5 -27.5t35.5 -87.5q0 -65 -34 -109t-88.5 -66.5t-117.5 -22.5q-35 0 -67 5.5t-55 13.5t-31 15l37 57q11 -8 43.5 -21t82.5 -13q66 0 115.5 35.5t49.5 100.5q0 37 -20.5 53t-54.5 16q-25 0 -54.5 -11t-46.5 -28l-55 20l93 185h64l-86 -173l-9 7
q11 20 45 35.5t72 15.5zM452 -19q-124 0 -214 35t-137.5 104.5t-47.5 172.5q0 49 7.5 92t21.5 101h124q-14 -58 -20 -96.5t-6 -77.5q0 -116 72 -167.5t210 -51.5q119 0 211.5 35.5t145.5 106.5t53 179q0 102 -78 167t-214 111q-105 37 -185 87t-125 120t-45 164
q0 104 39.5 183.5t110.5 134t165 82.5t205 28q123 0 212.5 -33.5t137.5 -100t48 -167.5q0 -44 -7 -89.5t-19 -99.5h-125q13 54 19 93.5t6 77.5q0 113 -74 160t-210 47q-111 0 -198 -31.5t-136.5 -96.5t-49.5 -166q0 -114 84.5 -179t225.5 -115q107 -37 182 -86.5t115 -115.5
t40 -155q0 -144 -71 -245.5t-194 -154.5t-279 -53z" />
    <glyph glyph-name="scedilla" unicode="&#x15f;" horiz-adv-x="1116" 
d="M496 -128q45 0 81 -27.5t36 -87.5q0 -65 -34 -109t-89 -66.5t-117 -22.5q-36 0 -68 5.5t-54.5 13.5t-30.5 15l37 57q11 -8 43.5 -21t81.5 -13q67 0 116.5 35.5t49.5 100.5q0 37 -20.5 53t-54.5 16q-26 0 -55 -11t-46 -28l-58 20l93 185h70l-87 -173l-18 7
q11 20 48.5 35.5t75.5 15.5zM451 -19q-87 0 -157.5 17.5t-121 49.5t-78 78t-27.5 103q0 22 4 47t8 40h125q-4 -12 -6.5 -31t-2.5 -33q0 -76 70.5 -117.5t201.5 -41.5q88 0 168.5 21.5t132 68.5t51.5 124t-67 113.5t-210 60.5q-99 16 -178 46.5t-125 82.5t-46 133
q0 84 39.5 146.5t106.5 104.5t151.5 62.5t173.5 20.5q100 0 183 -29t132.5 -84.5t49.5 -134.5q0 -25 -3 -46t-7 -37h-124q4 14 6 27.5t2 32.5q0 57 -35 92t-91.5 51.5t-124.5 16.5q-84 0 -160.5 -22t-125.5 -67t-49 -114q0 -80 73 -116.5t200 -61.5q77 -15 142 -34.5
t112 -49t73 -72t26 -103.5q0 -91 -41 -156.5t-111 -107t-158 -61.5t-182 -20z" />
    <glyph glyph-name="Scaron" unicode="&#x160;" horiz-adv-x="1123" 
d="M452 -19q-124 0 -214 35t-137.5 104.5t-47.5 172.5q0 49 7.5 92t21.5 101h124q-14 -58 -20 -96.5t-6 -77.5q0 -116 72 -167.5t210 -51.5q119 0 211.5 35.5t145.5 106.5t53 179q0 102 -78 167t-214 111q-105 37 -185 87t-125 120t-45 164q0 104 39.5 183.5t110.5 134
t165 82.5t205 28q123 0 212.5 -33.5t137.5 -100t48 -167.5q0 -44 -7 -89.5t-19 -99.5h-125q13 54 19 93.5t6 77.5q0 113 -74 160t-210 47q-111 0 -198 -31.5t-136.5 -96.5t-49.5 -166q0 -114 84.5 -179t225.5 -115q107 -37 182 -86.5t115 -115.5t40 -155q0 -144 -71 -245.5
t-194 -154.5t-279 -53zM524 1716h103l160 -147h-40l189 147h108l-223 -170h-110z" />
    <glyph glyph-name="scaron" unicode="&#x161;" horiz-adv-x="1119" 
d="M451 -19q-87 0 -157.5 17.5t-121 49.5t-78 78t-27.5 103q0 22 4 47t8 40h125q-4 -12 -6.5 -31t-2.5 -33q0 -76 70.5 -117.5t201.5 -41.5q88 0 168.5 21.5t132 68.5t51.5 124t-67 113.5t-210 60.5q-99 16 -178 46.5t-125 82.5t-46 133q0 84 39.5 146.5t106.5 104.5
t151.5 62.5t173.5 20.5q100 0 183 -29t132.5 -84.5t49.5 -134.5q0 -25 -3 -46t-7 -37h-124q4 14 6 27.5t2 32.5q0 57 -35 92t-91.5 51.5t-124.5 16.5q-84 0 -160.5 -22t-125.5 -67t-49 -114q0 -80 73 -116.5t200 -61.5q77 -15 142 -34.5t112 -49t73 -72t26 -103.5
q0 -91 -41 -156.5t-111 -107t-158 -61.5t-182 -20zM485 1475h95l154 -207h-40l194 207h101l-227 -233h-100z" />
    <glyph glyph-name="uni0162" unicode="&#x162;" horiz-adv-x="1095" 
d="M1182 1366h-451l70 69l-304 -1435h-124l305 1435l41 -69h-450l23 109h914zM491 -114q45 0 81 -28t36 -88q0 -65 -34 -109t-89 -66.5t-117 -22.5q-36 0 -68 5.5t-54.5 14t-30.5 14.5l37 57q11 -8 43.5 -21t81.5 -13q67 0 116.5 35.5t49.5 101.5q0 36 -20.5 52t-54.5 16
q-26 0 -55 -10.5t-46 -28.5l-55 20l93 185h64l-86 -173l-10 7q12 21 46 36.5t72 15.5z" />
    <glyph glyph-name="uni0163" unicode="&#x163;" horiz-adv-x="836" 
d="M431 -16q-38 0 -73 7.5t-62.5 26.5t-43 52t-15.5 83q0 35 7.5 77.5t20.5 100.5l132 622h-255l23 109h189q25 0 39 3t22 11.5t13 26.5t12 48l54 254h124l-73 -343h340l-23 -109h-340l-124 -581q-14 -65 -22 -109.5t-8 -74.5q0 -44 19.5 -69.5t66.5 -25.5q30 0 61.5 5.5
t46.5 11.5l-22 -109q-17 -6 -45 -11.5t-64 -5.5zM433 -112q45 0 81 -28t36 -88q0 -65 -34 -109t-89 -66.5t-117 -22.5q-36 0 -68 5.5t-54.5 14t-30.5 14.5l37 57q11 -8 43.5 -21t81.5 -13q67 0 116.5 35.5t49.5 101.5q0 36 -20.5 52t-54.5 16q-26 0 -55 -10.5t-46 -28.5
l-58 20l93 185h70l-87 -173l-18 7q11 21 48.5 36.5t75.5 15.5z" />
    <glyph glyph-name="Tcaron" unicode="&#x164;" horiz-adv-x="1095" 
d="M1182 1366h-451l70 69l-304 -1435h-124l305 1435l41 -69h-450l23 109h914zM522 1716h103l160 -147h-40l189 147h108l-223 -170h-110z" />
    <glyph glyph-name="tcaron" unicode="&#x165;" horiz-adv-x="836" 
d="M431 -16q-38 0 -73 7.5t-62.5 26.5t-43 52t-15.5 83q0 35 7.5 77.5t20.5 100.5l132 622h-255l23 109h189q25 0 39 3t22 11.5t13 26.5t12 48l54 254h124l-73 -343h340l-23 -109h-340l-124 -581q-14 -65 -22 -109.5t-8 -74.5q0 -44 19.5 -69.5t66.5 -25.5q30 0 61.5 5.5
t46.5 11.5l-22 -109q-17 -6 -45 -11.5t-64 -5.5zM913 1563q-7 -71 -22.5 -149t-30 -139.5t-21.5 -85.5h-70q7 25 19.5 85t25 137t19.5 152h80z" />
    <glyph glyph-name="Tbar" unicode="&#x166;" horiz-adv-x="1095" 
d="M240 706l15 64h684l-13 -64h-686zM1182 1366h-451l70 69l-304 -1435h-124l305 1435l41 -69h-450l23 109h914z" />
    <glyph glyph-name="tbar" unicode="&#x167;" horiz-adv-x="836" 
d="M110 594l21 96h554l-21 -96h-554zM431 -16q-38 0 -73 7.5t-62.5 26.5t-43 52t-15.5 83q0 35 7.5 77.5t20.5 100.5l132 622h-255l23 109h189q25 0 39 3t22 11.5t13 26.5t12 48l54 254h124l-73 -343h340l-23 -109h-340l-124 -581q-14 -65 -22 -109.5t-8 -74.5
q0 -44 19.5 -69.5t66.5 -25.5q30 0 61.5 5.5t46.5 11.5l-22 -109q-17 -6 -45 -11.5t-64 -5.5z" />
    <glyph glyph-name="Utilde" unicode="&#x168;" horiz-adv-x="1290" 
d="M1141 548q-61 -290 -217 -428.5t-380 -138.5q-197 0 -300.5 92.5t-103.5 282.5q0 82 15 169.5t45 230.5l156 719h124l-156 -725q-21 -95 -34 -161t-19 -116.5t-6 -102.5q0 -150 72.5 -213.5t213.5 -63.5q178 0 297 108t171 352l195 922h124zM1161 1682q-4 -25 -21.5 -57
t-51.5 -57t-88 -25q-43 0 -73 18t-53 37q-19 17 -42 30.5t-55 13.5q-43 0 -61 -23.5t-23 -47.5h-78q5 28 25.5 61t57 57t88.5 24q44 0 71 -17t48 -36q22 -18 46 -32.5t53 -14.5q44 0 59.5 23.5t19.5 45.5h78z" />
    <glyph glyph-name="utilde" unicode="&#x169;" horiz-adv-x="1183" 
d="M442 -18q-114 0 -182.5 40t-99 105t-30.5 137q0 51 9 105.5t26 136.5l118 556h125l-115 -542q-17 -78 -26 -132t-9 -98q0 -83 52.5 -138.5t167.5 -55.5q98 0 184.5 54t147 137.5t78.5 171.5l77 -31q-17 -80 -63 -158.5t-115 -144t-156.5 -104.5t-188.5 -39zM790 0
l226 1062h123l-225 -1062h-124zM1042 1449q-4 -24 -21.5 -56.5t-51.5 -57t-88 -24.5q-43 0 -73 17.5t-53 37.5q-19 16 -41.5 30t-54.5 14q-44 0 -62 -24t-22 -47h-79q5 28 26 60.5t57.5 56.5t87.5 24q44 0 71 -16.5t49 -35.5q21 -19 45 -33t53 -14q45 0 60 23t20 45h77z" />
    <glyph glyph-name="Umacron" unicode="&#x16a;" horiz-adv-x="1290" 
d="M1141 548q-61 -290 -217 -428.5t-380 -138.5q-197 0 -300.5 92.5t-103.5 282.5q0 82 15 169.5t45 230.5l156 719h124l-156 -725q-21 -95 -34 -161t-19 -116.5t-6 -102.5q0 -150 72.5 -213.5t213.5 -63.5q178 0 297 108t171 352l195 922h124zM645 1608l13 60h483l-13 -60
h-483z" />
    <glyph glyph-name="umacron" unicode="&#x16b;" horiz-adv-x="1183" 
d="M442 -18q-114 0 -182.5 40t-99 105t-30.5 137q0 51 9 105.5t26 136.5l118 556h125l-115 -542q-17 -78 -26 -132t-9 -98q0 -83 52.5 -138.5t167.5 -55.5q98 0 184.5 54t147 137.5t78.5 171.5l77 -31q-17 -80 -63 -158.5t-115 -144t-156.5 -104.5t-188.5 -39zM790 0
l226 1062h123l-225 -1062h-124zM515 1328l14 60h483l-14 -60h-483z" />
    <glyph glyph-name="Ubreve" unicode="&#x16c;" horiz-adv-x="1290" 
d="M1141 548q-61 -290 -217 -428.5t-380 -138.5q-197 0 -300.5 92.5t-103.5 282.5q0 82 15 169.5t45 230.5l156 719h124l-156 -725q-21 -95 -34 -161t-19 -116.5t-6 -102.5q0 -150 72.5 -213.5t213.5 -63.5q178 0 297 108t171 352l195 922h124zM665 1696h83
q0 -39 33.5 -71.5t97.5 -32.5t105.5 32t45.5 72h83q-7 -69 -76 -115.5t-164 -46.5t-151.5 46.5t-56.5 115.5z" />
    <glyph glyph-name="ubreve" unicode="&#x16d;" horiz-adv-x="1183" 
d="M442 -18q-114 0 -182.5 40t-99 105t-30.5 137q0 51 9 105.5t26 136.5l118 556h125l-115 -542q-17 -78 -26 -132t-9 -98q0 -83 52.5 -138.5t167.5 -55.5q98 0 184.5 54t147 137.5t78.5 171.5l77 -31q-17 -80 -63 -158.5t-115 -144t-156.5 -104.5t-188.5 -39zM790 0
l226 1062h123l-225 -1062h-124zM551 1475h82q0 -63 32.5 -105t96.5 -42q65 0 107 42t49 105h81q-9 -94 -78.5 -149.5t-164.5 -55.5q-94 0 -149.5 55.5t-55.5 149.5z" />
    <glyph glyph-name="Uring" unicode="&#x16e;" horiz-adv-x="1290" 
d="M1141 548q-61 -290 -217 -428.5t-380 -138.5q-197 0 -300.5 92.5t-103.5 282.5q0 82 15 169.5t45 230.5l156 719h124l-156 -725q-21 -95 -34 -161t-19 -116.5t-6 -102.5q0 -150 72.5 -213.5t213.5 -63.5q178 0 297 108t171 352l195 922h124zM900 1585q49 0 83.5 34.5
t34.5 83.5t-34.5 83.5t-83.5 34.5t-83.5 -34.5t-34.5 -83.5t34.5 -83.5t83.5 -34.5zM900 1522q-50 0 -91 24.5t-65.5 65.5t-24.5 91t24.5 91t65.5 65.5t91 24.5q51 0 91.5 -24.5t65 -65.5t24.5 -91t-24.5 -91t-65 -65.5t-91.5 -24.5z" />
    <glyph glyph-name="uring" unicode="&#x16f;" horiz-adv-x="1183" 
d="M442 -18q-114 0 -182.5 40t-99 105t-30.5 137q0 51 9 105.5t26 136.5l118 556h125l-115 -542q-17 -78 -26 -132t-9 -98q0 -83 52.5 -138.5t167.5 -55.5q98 0 184.5 54t147 137.5t78.5 171.5l77 -31q-17 -80 -63 -158.5t-115 -144t-156.5 -104.5t-188.5 -39zM790 0
l226 1062h123l-225 -1062h-124zM759 1219q50 0 84 34t34 83q0 50 -34 84t-84 34q-49 0 -83 -34t-34 -84q0 -49 34 -83t83 -34zM760 1155q-50 0 -91.5 24.5t-66 66t-24.5 90.5q0 50 24.5 91.5t66 65.5t90.5 24q50 0 91.5 -24t65.5 -65.5t24 -90.5q0 -50 -24 -91.5t-65.5 -66
t-90.5 -24.5z" />
    <glyph glyph-name="Uhungarumlaut" unicode="&#x170;" horiz-adv-x="1290" 
d="M1141 548q-61 -290 -217 -428.5t-380 -138.5q-197 0 -300.5 92.5t-103.5 282.5q0 82 15 169.5t45 230.5l156 719h124l-156 -725q-21 -95 -34 -161t-19 -116.5t-6 -102.5q0 -150 72.5 -213.5t213.5 -63.5q178 0 297 108t171 352l195 922h124zM672 1548l222 173h120
l-246 -173h-96zM930 1548l222 173h120l-246 -173h-96z" />
    <glyph glyph-name="uhungarumlaut" unicode="&#x171;" horiz-adv-x="1183" 
d="M442 -18q-114 0 -182.5 40t-99 105t-30.5 137q0 51 9 105.5t26 136.5l118 556h125l-115 -542q-17 -78 -26 -132t-9 -98q0 -83 52.5 -138.5t167.5 -55.5q98 0 184.5 54t147 137.5t78.5 171.5l77 -31q-17 -80 -63 -158.5t-115 -144t-156.5 -104.5t-188.5 -39zM790 0
l226 1062h123l-225 -1062h-124zM494 1242l161 233h112l-192 -233h-81zM795 1242l166 233h111l-196 -233h-81z" />
    <glyph glyph-name="Uogonek" unicode="&#x172;" horiz-adv-x="1290" 
d="M722 -323l-7 -70q-19 -4 -44.5 -6t-49.5 -2q-47 0 -83 15.5t-56.5 46t-20.5 76.5q0 54 36.5 106t88 97.5t98.5 78.5h75q-32 -25 -69 -58.5t-70.5 -71t-55 -74t-21.5 -68.5q0 -41 24.5 -59.5t70.5 -18.5q20 0 43.5 2.5t40.5 5.5zM1141 548q-61 -290 -217 -428.5
t-380 -138.5q-197 0 -300.5 92.5t-103.5 282.5q0 82 15 169.5t45 230.5l156 719h124l-156 -725q-21 -95 -34 -161t-19 -116.5t-6 -102.5q0 -150 72.5 -213.5t213.5 -63.5q178 0 297 108t171 352l195 922h124z" />
    <glyph glyph-name="uogonek" unicode="&#x173;" horiz-adv-x="1183" 
d="M442 -18q-114 0 -182.5 40t-99 105t-30.5 137q0 51 9 105.5t26 136.5l118 556h125l-115 -542q-17 -78 -26 -132t-9 -98q0 -83 52.5 -138.5t167.5 -55.5q98 0 184.5 54t147 137.5t78.5 171.5l77 -31q-17 -80 -63 -158.5t-115 -144t-156.5 -104.5t-188.5 -39zM790 0
l226 1062h123l-225 -1062h-124zM877 -342l-7 -70q-18 -4 -44 -6t-49 -2q-71 0 -115.5 35t-44.5 103q0 54 36 106t87.5 97.5t98.5 78.5h75q-31 -25 -68 -58.5t-71 -71t-55.5 -74t-21.5 -68.5q0 -41 24.5 -59.5t70.5 -18.5q20 0 43.5 2.5t40.5 5.5z" />
    <glyph glyph-name="Wcircumflex" unicode="&#x174;" horiz-adv-x="1679" 
d="M232 0l61 1475h125l-76 -1416l-20 1l630 1415h163l26 -1415l-20 -1l528 1416h133l-568 -1475h-188l-20 1365h17l-603 -1365h-188zM806 1546l222 170h110l187 -170h-105l-157 148h40l-191 -148h-106z" />
    <glyph glyph-name="wcircumflex" unicode="&#x175;" horiz-adv-x="1495" 
d="M900 0l-83 1062h107l81 -1002h-23l420 1002h133l-465 -1062h-170zM200 0l-16 1062h125l-4 -1002h-24l505 1002h116l-531 -1062h-171zM657 1242l227 233h100l177 -233h-97l-151 207h41l-198 -207h-99z" />
    <glyph glyph-name="Ycircumflex" unicode="&#x176;" horiz-adv-x="1111" 
d="M1222 1475l-608 -961l-110 -514h-123l109 514l-199 961h128l174 -880h-54l548 880h135zM527 1546l222 170h110l187 -170h-105l-157 148h40l-191 -148h-106z" />
    <glyph glyph-name="ycircumflex" unicode="&#x177;" horiz-adv-x="1018" 
d="M-29 -444q-37 0 -68 4.5t-37 7.5l23 111q11 -7 39.5 -11.5t55.5 -4.5q69 0 122.5 34t94.5 86t71 107l59 107l-144 1065h126l121 -950h-22l513 950h133l-648 -1167q-48 -87 -105.5 -164.5t-137.5 -126t-196 -48.5zM430 1242l227 233h100l177 -233h-97l-151 207h41
l-198 -207h-99z" />
    <glyph glyph-name="Ydieresis" unicode="&#x178;" horiz-adv-x="1111" 
d="M1222 1475l-608 -961l-110 -514h-123l109 514l-199 961h128l174 -880h-54l548 880h135zM615 1567q-35 0 -60 21t-25 54q0 37 28 60t65 23q35 0 60 -20.5t25 -54.5q0 -37 -28 -60t-65 -23zM973 1567q-35 0 -60 21t-25 54q0 37 28 60t65 23q35 0 60 -20.5t25 -54.5
q0 -37 -28 -60t-65 -23z" />
    <glyph glyph-name="Zacute" unicode="&#x179;" horiz-adv-x="1091" 
d="M170 109h706l-24 -109h-852l21 99l987 1268l2 -1h-673l23 109h816l-20 -96l-985 -1268zM671 1548l274 173h141l-291 -173h-124z" />
    <glyph glyph-name="zacute" unicode="&#x17a;" horiz-adv-x="973" 
d="M146 113h652l-24 -113h-797l24 109l821 843l1 -3h-612l24 113h754l-23 -109l-818 -841zM543 1242l229 233h131l-254 -233h-106z" />
    <glyph glyph-name="Zdotaccent" unicode="&#x17b;" horiz-adv-x="1091" 
d="M170 109h706l-24 -109h-852l21 99l987 1268l2 -1h-673l23 109h816l-20 -96l-985 -1268zM794 1574q-38 0 -66 22.5t-28 59.5q0 38 28 60.5t66 22.5t66 -22.5t28 -60.5q0 -37 -28 -59.5t-66 -22.5z" />
    <glyph glyph-name="zdotaccent" unicode="&#x17c;" horiz-adv-x="973" 
d="M146 113h652l-24 -113h-797l24 109l821 843l1 -3h-612l24 113h754l-23 -109l-818 -841zM667 1330q-36 0 -62.5 21.5t-26.5 56.5q0 26 14 45.5t36.5 30.5t48.5 11q37 0 63 -21.5t26 -56.5q0 -26 -13.5 -46t-36 -30.5t-49.5 -10.5z" />
    <glyph glyph-name="Zcaron" unicode="&#x17d;" horiz-adv-x="1091" 
d="M170 109h706l-24 -109h-852l21 99l987 1268l2 -1h-673l23 109h816l-20 -96l-985 -1268zM533 1716h103l160 -147h-40l189 147h108l-223 -170h-110z" />
    <glyph glyph-name="zcaron" unicode="&#x17e;" horiz-adv-x="973" 
d="M146 113h652l-24 -113h-797l24 109l821 843l1 -3h-612l24 113h754l-23 -109l-818 -841zM418 1475h95l154 -207h-40l194 207h101l-227 -233h-100z" />
    <glyph glyph-name="uni018F" unicode="&#x18f;" horiz-adv-x="1198" 
d="M477 -11q-130 0 -212.5 61t-121.5 168.5t-39 244.5q0 38 2.5 77t7.5 78t11.5 75t15.5 69h902l-23 -111h-791l20 41q-9 -39 -15.5 -76.5t-9.5 -75.5t-3 -81q0 -100 27 -181t86.5 -128.5t158.5 -47.5q108 0 195.5 52t154 142t111.5 205.5t68 244.5t23 256
q0 117 -28.5 199.5t-90 126t-159.5 43.5t-176 -36.5t-135 -93t-91 -117t-43 -108.5h-120q15 73 62 154t122.5 152.5t175 116.5t220.5 45q130 0 216 -58.5t128.5 -167.5t42.5 -262q0 -148 -30 -293.5t-88 -274t-142 -227.5t-192.5 -155.5t-239.5 -56.5z" />
    <glyph glyph-name="florin" unicode="&#x192;" horiz-adv-x="920" 
d="M-172 -375q-41 0 -73 7t-42 11l45 90q12 -4 36.5 -9t53.5 -5q82 0 132.5 42.5t83.5 108t59 135.5q22 59 55 151.5t72.5 205.5t81 233.5t81 234.5t73 209t55.5 157q26 72 65.5 140t93 121.5t121 85t149.5 31.5q40 0 72.5 -6.5t42.5 -11.5l-46 -89q-10 5 -35 9.5t-54 4.5
q-82 0 -134 -42t-85 -108t-60 -136q-23 -62 -57 -157t-74 -209t-81.5 -234t-81 -233.5t-71.5 -206t-54 -151.5q-25 -72 -64 -140t-91.5 -121.5t-119.5 -85.5t-149 -32zM208 969l37 93h639l-37 -93h-639z" />
    <glyph glyph-name="uni019D" unicode="&#x19d;" horiz-adv-x="1307" 
d="M-290 -456l18 93q74 1 125.5 27t85.5 69t54.5 93t30.5 98l329 1551h202l392 -1403l-11 -3l298 1406h121l-313 -1475h-205l-390 1397l11 3l-314 -1477q-14 -66 -40 -132.5t-73.5 -122t-125 -89t-195.5 -35.5z" />
    <glyph glyph-name="Ohorn" unicode="&#x1a0;" horiz-adv-x="1353" 
d="M1189 1351q89 0 146 63.5t70 191.5h85q-17 -163 -98 -243t-217 -80zM575 -19q-140 0 -243 64.5t-159 186t-56 292.5q0 185 54 358.5t153.5 311t239.5 217.5t312 80q141 0 244 -63t158.5 -183t55.5 -291q0 -186 -54 -360t-154 -312.5t-239.5 -219.5t-311.5 -81zM588 93
q146 0 261 74.5t195.5 199t123 277t42.5 307.5q0 139 -43 234t-120.5 144.5t-185.5 49.5q-145 0 -260 -74.5t-195.5 -197.5t-122.5 -274.5t-42 -307.5q0 -209 93.5 -320.5t253.5 -111.5z" />
    <glyph glyph-name="ohorn" unicode="&#x1a1;" horiz-adv-x="1287" 
d="M1052 952q65 0 104.5 30t61 91t31.5 151h77q-12 -117 -47 -191.5t-95 -110.5t-147 -36zM546 -19q-136 0 -234.5 54.5t-151 151.5t-52.5 226q0 140 48 261t135 211.5t203.5 141t252.5 50.5q137 0 234.5 -56t149 -152.5t51.5 -218.5q0 -148 -49 -270.5t-136 -211.5
t-203 -138t-248 -49zM555 92q141 0 254.5 68.5t180 191t66.5 285.5q0 100 -36.5 173.5t-107 114.5t-174.5 41q-110 0 -202 -41.5t-159.5 -115.5t-105 -172t-37.5 -212q0 -154 83 -243.5t238 -89.5z" />
    <glyph glyph-name="Uhorn" unicode="&#x1af;" horiz-adv-x="1301" 
d="M1291 1475q89 0 146 63.5t70 191.5h85q-17 -163 -98 -243.5t-217 -80.5zM1141 548q-61 -290 -217 -428.5t-380 -138.5q-197 0 -300.5 92.5t-103.5 282.5q0 82 15 169.5t45 230.5l156 719h124l-156 -725q-21 -95 -34 -161t-19 -116.5t-6 -102.5q0 -150 72.5 -213.5
t213.5 -63.5q178 0 297 108t171 352l195 922h124z" />
    <glyph glyph-name="uhorn" unicode="&#x1b0;" horiz-adv-x="1220" 
d="M1058 1062q66 0 105.5 30t61 90.5t30.5 151.5h78q-12 -117 -47.5 -192t-95.5 -110.5t-147 -35.5zM419 -18q-114 0 -177 40t-87.5 105t-24.5 137q0 51 9 105.5t26 136.5l118 556h125l-115 -542q-17 -78 -26 -132t-9 -98q0 -83 41 -138.5t155 -55.5q98 0 185 54
t147.5 137.5t78.5 171.5l76 -31q-17 -80 -62.5 -158.5t-114.5 -144t-156.5 -104.5t-188.5 -39zM767 0l225 1062h124l-226 -1062h-123z" />
    <glyph glyph-name="uni01B7" unicode="&#x1b7;" horiz-adv-x="1118" 
d="M449 -19q-116 0 -191.5 35t-111.5 103t-36 165q0 57 7.5 100.5t12.5 60.5h125q-5 -17 -11.5 -57.5t-6.5 -84.5q0 -116 60 -164.5t168 -48.5q83 0 147 34t109 92t68 133t23 159q0 105 -64.5 149.5t-209.5 44.5h-82l522 664h-638l23 109h791l-22 -101l-449 -566
q125 0 191.5 -73.5t66.5 -210.5q0 -117 -34 -216t-98 -173t-155 -114t-205 -40z" />
    <glyph glyph-name="uni01C4" unicode="&#x1c4;" horiz-adv-x="2197" 
d="M39 0l314 1475h332q187 0 298 -69.5t160 -187.5t49 -263q0 -220 -69 -396.5t-185 -301t-260.5 -191t-296.5 -66.5h-342zM174 41l-44 55h251q124 0 245.5 60t220.5 172t158.5 269t59.5 350q0 120 -38.5 217.5t-127.5 156t-242 58.5h-254l68 55zM1276 109h706l-24 -109
h-852l21 99l987 1268l2 -1h-673l23 109h816l-20 -96l-985 -1268zM1640 1716h103l160 -147h-40l189 147h108l-223 -170h-110z" />
    <glyph glyph-name="uni01C5" unicode="&#x1c5;" horiz-adv-x="2196" 
d="M39 0l314 1475h332q187 0 298 -69.5t160 -187.5t49 -263q0 -220 -69 -396.5t-185 -301t-260.5 -191t-296.5 -66.5h-342zM174 41l-44 55h251q124 0 245.5 60t220.5 172t158.5 269t59.5 350q0 120 -38.5 217.5t-127.5 156t-242 58.5h-254l68 55zM1370 113h652l-24 -113
h-797l24 109l821 843l1 -3h-612l24 113h754l-23 -109l-818 -841zM1641 1475h95l154 -207h-40l194 207h101l-227 -233h-100z" />
    <glyph glyph-name="uni01C6" unicode="&#x1c6;" horiz-adv-x="2212" 
d="M483 -19q-170 0 -269 109t-99 306q0 138 41.5 261t118 217.5t183.5 148t238 53.5q108 0 192.5 -45t133.5 -124t49 -182q0 -27 -4 -56.5t-9 -46.5l-85 -2q5 17 7.5 38.5t2.5 36.5q0 76 -37.5 137t-102 96t-146.5 35q-109 0 -193.5 -44.5t-142.5 -122t-88.5 -178
t-30.5 -211.5q0 -149 71.5 -229t202.5 -80q99 0 186.5 46t150 122.5t81.5 169.5l98 -2q-27 -126 -107 -229t-195.5 -163.5t-246.5 -60.5zM841 0l332 1563h124l-332 -1563h-124zM1385 113h652l-24 -113h-797l24 109l821 843l1 -3h-612l24 113h754l-23 -109l-818 -841z
M1657 1475h95l154 -207h-40l194 207h101l-227 -233h-100z" />
    <glyph glyph-name="uni01C7" unicode="&#x1c7;" horiz-adv-x="1972" 
d="M40 0l313 1475h124l-305 -1435l-41 69h650l-24 -109h-717zM1306 -19q-172 0 -255.5 87t-83.5 233q0 51 9.5 108t20.5 103h122q-11 -50 -18.5 -97t-7.5 -94q0 -110 54 -169.5t171 -59.5q149 0 238.5 103.5t128.5 289.5l211 990h123l-212 -1005q-23 -107 -63 -196.5
t-100.5 -155t-144 -101.5t-193.5 -36z" />
    <glyph glyph-name="uni01C8" unicode="&#x1c8;" horiz-adv-x="1477" 
d="M40 0l313 1475h124l-305 -1435l-41 69h650l-24 -109h-717zM748 -443q-31 0 -52.5 4.5t-32.5 9.5l25 92q13 -4 31 -8t48 -4q90 0 144 40.5t82 100t40 117.5l246 1153h124l-247 -1162q-14 -65 -39.5 -126t-71.5 -110t-118 -78t-179 -29zM1410 1330q-37 0 -63.5 21t-26.5 57
q0 27 13.5 46.5t36.5 30t49 10.5q37 0 63.5 -21t26.5 -56q0 -27 -14 -46.5t-36.5 -30.5t-48.5 -11z" />
    <glyph glyph-name="uni01C9" unicode="&#x1c9;" horiz-adv-x="1038" 
d="M279 -12q-31 0 -62.5 5t-57.5 21t-42.5 48t-16.5 87q0 34 3.5 60t11.5 62l275 1292h123l-272 -1278q-7 -33 -12 -60.5t-5 -50.5q0 -49 22.5 -63t55.5 -14q26 0 52 3.5t41 6.5l-24 -107q-14 -5 -36.5 -8.5t-55.5 -3.5zM310 -443q-31 0 -52.5 4.5t-32.5 9.5l25 92
q13 -4 31 -8t48 -4q90 0 144 40.5t82 100t40 117.5l246 1153h124l-247 -1162q-14 -65 -39.5 -126t-71.5 -110t-118 -78t-179 -29zM972 1330q-37 0 -63.5 21t-26.5 57q0 27 13.5 46.5t36.5 30t49 10.5q37 0 63.5 -21t26.5 -56q0 -27 -14 -46.5t-36.5 -30.5t-48.5 -11z" />
    <glyph glyph-name="uni01CA" unicode="&#x1ca;" horiz-adv-x="2373" 
d="M160 0h-121l314 1475h202l390 -1403l-11 -6l300 1409h121l-314 -1475h-205l-388 1401l11 6zM1707 -19q-172 0 -255.5 87t-83.5 233q0 51 9.5 108t20.5 103h122q-11 -50 -18.5 -97t-7.5 -94q0 -110 54 -169.5t171 -59.5q149 0 238.5 103.5t128.5 289.5l211 990h123
l-212 -1005q-23 -107 -63 -196.5t-100.5 -155t-144 -101.5t-193.5 -36z" />
    <glyph glyph-name="uni01CB" unicode="&#x1cb;" horiz-adv-x="1765" 
d="M160 0h-121l314 1475h202l390 -1403l-11 -6l300 1409h121l-314 -1475h-205l-388 1401l11 6zM1037 -443q-31 0 -52.5 4.5t-32.5 9.5l25 92q13 -4 31 -8t48 -4q90 0 144 40.5t82 100t40 117.5l246 1153h124l-247 -1162q-14 -65 -39.5 -126t-71.5 -110t-118 -78t-179 -29z
M1699 1330q-37 0 -63.5 21t-26.5 57q0 27 13.5 46.5t36.5 30t49 10.5q37 0 63.5 -21t26.5 -56q0 -27 -14 -46.5t-36.5 -30.5t-48.5 -11z" />
    <glyph glyph-name="uni01CC" unicode="&#x1cc;" horiz-adv-x="1728" 
d="M821 0l122 567q16 76 23.5 120.5t7.5 81.5q0 89 -62 140t-183 51q-89 0 -177.5 -44.5t-153.5 -120.5t-85 -171l-74 28q20 92 73.5 169.5t129 134.5t162 89t172.5 32q151 0 240 -70t89 -199q0 -49 -11 -110.5t-29 -140.5l-121 -557h-123zM57 0l226 1062h124l-226 -1062
h-124zM1000 -443q-31 0 -52.5 4.5t-32.5 9.5l25 92q13 -4 31 -8t48 -4q90 0 144 40.5t82 100t40 117.5l246 1153h124l-247 -1162q-14 -65 -39.5 -126t-71.5 -110t-118 -78t-179 -29zM1662 1330q-37 0 -63.5 21t-26.5 57q0 27 13.5 46.5t36.5 30t49 10.5q37 0 63.5 -21
t26.5 -56q0 -27 -14 -46.5t-36.5 -30.5t-48.5 -11z" />
    <glyph glyph-name="uni01CD" unicode="&#x1cd;" horiz-adv-x="1206" 
d="M-23 0l734 1480h191l101 -1480h-123l-87 1395h2l-683 -1395h-135zM259 411l21 109h645l-21 -109h-645zM581 1716h103l160 -147h-40l189 147h108l-223 -170h-110z" />
    <glyph glyph-name="uni01CE" unicode="&#x1ce;" horiz-adv-x="1286" 
d="M531 -19q-115 0 -209 47.5t-149.5 143.5t-55.5 240q0 141 47 261.5t131.5 211.5t200 141.5t251.5 50.5q109 0 191.5 -40.5t129 -117t46.5 -184.5q0 -31 -4 -65t-11 -62h-77q6 20 9 45.5t3 47.5q0 81 -37 140.5t-102.5 91.5t-149.5 32q-115 0 -206.5 -41.5t-157 -115.5
t-100 -172.5t-34.5 -211.5q0 -110 40.5 -184t111.5 -110.5t160 -36.5q101 0 190 43.5t152.5 121.5t84.5 182l87 -5q-30 -145 -110 -246.5t-191.5 -154.5t-240.5 -53zM1017 0h-125l225 1062h125zM585 1475h95l154 -207h-40l194 207h101l-227 -233h-100z" />
    <glyph glyph-name="uni01CF" unicode="&#x1cf;" horiz-adv-x="456" 
d="M51 0l313 1475h123l-313 -1475h-123zM202 1716h103l160 -147h-40l189 147h108l-223 -170h-110z" />
    <glyph glyph-name="uni01D0" unicode="&#x1d0;" horiz-adv-x="483" 
d="M66 0l225 1062h123l-225 -1062h-123zM170 1475h95l154 -207h-40l194 207h101l-227 -233h-100z" />
    <glyph glyph-name="uni01D1" unicode="&#x1d1;" horiz-adv-x="1367" 
d="M575 -19q-140 0 -243 64.5t-159 186t-56 292.5q0 185 54 358.5t153.5 311t239.5 217.5t312 80q141 0 244 -63t158.5 -183t55.5 -291q0 -186 -54 -360t-154 -312.5t-239.5 -219.5t-311.5 -81zM588 93q146 0 261 74.5t195.5 199t123 277t42.5 307.5q0 139 -43 234
t-120.5 144.5t-185.5 49.5q-145 0 -260 -74.5t-195.5 -197.5t-122.5 -274.5t-42 -307.5q0 -209 93.5 -320.5t253.5 -111.5zM656 1716h103l160 -147h-40l189 147h108l-223 -170h-110z" />
    <glyph glyph-name="uni01D2" unicode="&#x1d2;" horiz-adv-x="1308" 
d="M554 -19q-136 0 -234 54.5t-151 151.5t-53 226q0 140 48.5 261t135 211.5t203 141t252.5 50.5q137 0 234.5 -56t149.5 -152.5t52 -218.5q0 -148 -49.5 -270.5t-136.5 -211.5t-202.5 -138t-248.5 -49zM563 92q141 0 254.5 68.5t180.5 191t67 285.5q0 100 -37 173.5
t-107.5 114.5t-173.5 41q-110 0 -202.5 -41.5t-160 -115.5t-105 -172t-37.5 -212q0 -154 83.5 -243.5t237.5 -89.5zM586 1475h95l154 -207h-40l194 207h101l-227 -233h-100z" />
    <glyph glyph-name="uni01D3" unicode="&#x1d3;" horiz-adv-x="1290" 
d="M1141 548q-61 -290 -217 -428.5t-380 -138.5q-197 0 -300.5 92.5t-103.5 282.5q0 82 15 169.5t45 230.5l156 719h124l-156 -725q-21 -95 -34 -161t-19 -116.5t-6 -102.5q0 -150 72.5 -213.5t213.5 -63.5q178 0 297 108t171 352l195 922h124zM677 1888h95l154 -207h-40
l194 207h101l-227 -233h-100z" />
    <glyph glyph-name="uni01D4" unicode="&#x1d4;" horiz-adv-x="1183" 
d="M442 -18q-114 0 -182.5 40t-99 105t-30.5 137q0 51 9 105.5t26 136.5l118 556h125l-115 -542q-17 -78 -26 -132t-9 -98q0 -83 52.5 -138.5t167.5 -55.5q98 0 184.5 54t147 137.5t78.5 171.5l77 -31q-17 -80 -63 -158.5t-115 -144t-156.5 -104.5t-188.5 -39zM790 0
l226 1062h123l-225 -1062h-124zM522 1475h95l154 -207h-40l194 207h101l-227 -233h-100z" />
    <glyph glyph-name="uni01D5" unicode="&#x1d5;" horiz-adv-x="1290" 
d="M1141 548q-61 -290 -217 -428.5t-380 -138.5q-197 0 -300.5 92.5t-103.5 282.5q0 82 15 169.5t45 230.5l156 719h124l-156 -725q-21 -95 -34 -161t-19 -116.5t-6 -102.5q0 -150 72.5 -213.5t213.5 -63.5q178 0 297 108t171 352l195 922h124zM712 1567q-35 0 -60 21
t-25 54q0 37 28 60t65 23q35 0 60 -20.5t25 -54.5q0 -37 -28 -60t-65 -23zM1070 1567q-35 0 -60 21t-25 54q0 37 28 60t65 23q35 0 60 -20.5t25 -54.5q0 -37 -28 -60t-65 -23zM689 1844l13 60h483l-13 -60h-483z" />
    <glyph glyph-name="uni01D6" unicode="&#x1d6;" horiz-adv-x="1183" 
d="M442 -18q-114 0 -182.5 40t-99 105t-30.5 137q0 51 9 105.5t26 136.5l118 556h125l-115 -542q-17 -78 -26 -132t-9 -98q0 -83 52.5 -138.5t167.5 -55.5q98 0 184.5 54t147 137.5t78.5 171.5l77 -31q-17 -80 -63 -158.5t-115 -144t-156.5 -104.5t-188.5 -39zM790 0
l226 1062h123l-225 -1062h-124zM591 1329q-35 0 -60 21t-25 54q0 37 28 60t66 23q34 0 59 -20.5t25 -54.5q0 -37 -28 -60t-65 -23zM949 1329q-34 0 -59 21t-25 54q0 37 28 60t65 23q34 0 59.5 -20.5t25.5 -54.5q0 -37 -28.5 -60t-65.5 -23zM579 1620l13 60h483l-13 -60h-483
z" />
    <glyph glyph-name="uni01D7" unicode="&#x1d7;" horiz-adv-x="1290" 
d="M1141 548q-61 -290 -217 -428.5t-380 -138.5q-197 0 -300.5 92.5t-103.5 282.5q0 82 15 169.5t45 230.5l156 719h124l-156 -725q-21 -95 -34 -161t-19 -116.5t-6 -102.5q0 -150 72.5 -213.5t213.5 -63.5q178 0 297 108t171 352l195 922h124zM712 1567q-35 0 -60 21
t-25 54q0 37 28 60t65 23q35 0 60 -20.5t25 -54.5q0 -37 -28 -60t-65 -23zM1070 1567q-35 0 -60 21t-25 54q0 37 28 60t65 23q35 0 60 -20.5t25 -54.5q0 -37 -28 -60t-65 -23zM814 1784l274 173h141l-291 -173h-124z" />
    <glyph glyph-name="uni01D8" unicode="&#x1d8;" horiz-adv-x="1183" 
d="M442 -18q-114 0 -182.5 40t-99 105t-30.5 137q0 51 9 105.5t26 136.5l118 556h125l-115 -542q-17 -78 -26 -132t-9 -98q0 -83 52.5 -138.5t167.5 -55.5q98 0 184.5 54t147 137.5t78.5 171.5l77 -31q-17 -80 -63 -158.5t-115 -144t-156.5 -104.5t-188.5 -39zM790 0
l226 1062h123l-225 -1062h-124zM591 1329q-35 0 -60 21t-25 54q0 37 28 60t66 23q34 0 59 -20.5t25 -54.5q0 -37 -28 -60t-65 -23zM949 1329q-34 0 -59 21t-25 54q0 37 28 60t65 23q34 0 59.5 -20.5t25.5 -54.5q0 -37 -28.5 -60t-65.5 -23zM704 1560l274 173h141l-291 -173
h-124z" />
    <glyph glyph-name="uni01D9" unicode="&#x1d9;" horiz-adv-x="1290" 
d="M1141 548q-61 -290 -217 -428.5t-380 -138.5q-197 0 -300.5 92.5t-103.5 282.5q0 82 15 169.5t45 230.5l156 719h124l-156 -725q-21 -95 -34 -161t-19 -116.5t-6 -102.5q0 -150 72.5 -213.5t213.5 -63.5q178 0 297 108t171 352l195 922h124zM712 1567q-35 0 -60 21
t-25 54q0 37 28 60t65 23q35 0 60 -20.5t25 -54.5q0 -37 -28 -60t-65 -23zM1070 1567q-35 0 -60 21t-25 54q0 37 28 60t65 23q35 0 60 -20.5t25 -54.5q0 -37 -28 -60t-65 -23zM676 1952h103l160 -147h-40l189 147h108l-223 -170h-110z" />
    <glyph glyph-name="uni01DA" unicode="&#x1da;" horiz-adv-x="1183" 
d="M442 -18q-114 0 -182.5 40t-99 105t-30.5 137q0 51 9 105.5t26 136.5l118 556h125l-115 -542q-17 -78 -26 -132t-9 -98q0 -83 52.5 -138.5t167.5 -55.5q98 0 184.5 54t147 137.5t78.5 171.5l77 -31q-17 -80 -63 -158.5t-115 -144t-156.5 -104.5t-188.5 -39zM790 0
l226 1062h123l-225 -1062h-124zM591 1329q-35 0 -60 21t-25 54q0 37 28 60t66 23q34 0 59 -20.5t25 -54.5q0 -37 -28 -60t-65 -23zM949 1329q-34 0 -59 21t-25 54q0 37 28 60t65 23q34 0 59.5 -20.5t25.5 -54.5q0 -37 -28.5 -60t-65.5 -23zM566 1728h103l160 -147h-40
l189 147h108l-223 -170h-110z" />
    <glyph glyph-name="uni01DB" unicode="&#x1db;" horiz-adv-x="1290" 
d="M1141 548q-61 -290 -217 -428.5t-380 -138.5q-197 0 -300.5 92.5t-103.5 282.5q0 82 15 169.5t45 230.5l156 719h124l-156 -725q-21 -95 -34 -161t-19 -116.5t-6 -102.5q0 -150 72.5 -213.5t213.5 -63.5q178 0 297 108t171 352l195 922h124zM712 1567q-35 0 -60 21
t-25 54q0 37 28 60t65 23q35 0 60 -20.5t25 -54.5q0 -37 -28 -60t-65 -23zM1070 1567q-35 0 -60 21t-25 54q0 37 28 60t65 23q35 0 60 -20.5t25 -54.5q0 -37 -28 -60t-65 -23zM1016 1787h-124l-290 173h140z" />
    <glyph glyph-name="uni01DC" unicode="&#x1dc;" horiz-adv-x="1183" 
d="M442 -18q-114 0 -182.5 40t-99 105t-30.5 137q0 51 9 105.5t26 136.5l118 556h125l-115 -542q-17 -78 -26 -132t-9 -98q0 -83 52.5 -138.5t167.5 -55.5q98 0 184.5 54t147 137.5t78.5 171.5l77 -31q-17 -80 -63 -158.5t-115 -144t-156.5 -104.5t-188.5 -39zM790 0
l226 1062h123l-225 -1062h-124zM591 1329q-35 0 -60 21t-25 54q0 37 28 60t66 23q34 0 59 -20.5t25 -54.5q0 -37 -28 -60t-65 -23zM949 1329q-34 0 -59 21t-25 54q0 37 28 60t65 23q34 0 59.5 -20.5t25.5 -54.5q0 -37 -28.5 -60t-65.5 -23zM906 1562h-124l-290 173h140z" />
    <glyph glyph-name="uni01DE" unicode="&#x1de;" horiz-adv-x="1206" 
d="M-23 0l734 1480h191l101 -1480h-123l-87 1395h2l-683 -1395h-135zM259 411l21 109h645l-21 -109h-645zM662 1567q-35 0 -60 21t-25 54q0 37 28 60t65 23q35 0 60 -20.5t25 -54.5q0 -37 -28 -60t-65 -23zM1020 1567q-35 0 -60 21t-25 54q0 37 28 60t65 23q35 0 60 -20.5
t25 -54.5q0 -37 -28 -60t-65 -23zM639 1844l13 60h483l-13 -60h-483z" />
    <glyph glyph-name="uni01DF" unicode="&#x1df;" horiz-adv-x="1286" 
d="M531 -19q-115 0 -209 47.5t-149.5 143.5t-55.5 240q0 141 47 261.5t131.5 211.5t200 141.5t251.5 50.5q109 0 191.5 -40.5t129 -117t46.5 -184.5q0 -31 -4 -65t-11 -62h-77q6 20 9 45.5t3 47.5q0 81 -37 140.5t-102.5 91.5t-149.5 32q-115 0 -206.5 -41.5t-157 -115.5
t-100 -172.5t-34.5 -211.5q0 -110 40.5 -184t111.5 -110.5t160 -36.5q101 0 190 43.5t152.5 121.5t84.5 182l87 -5q-30 -145 -110 -246.5t-191.5 -154.5t-240.5 -53zM1017 0h-125l225 1062h125zM654 1329q-35 0 -60 21t-25 54q0 37 28 60t66 23q34 0 59 -20.5t25 -54.5
q0 -37 -28 -60t-65 -23zM1012 1329q-34 0 -59 21t-25 54q0 37 28 60t65 23q34 0 59.5 -20.5t25.5 -54.5q0 -37 -28.5 -60t-65.5 -23zM642 1620l13 60h483l-13 -60h-483z" />
    <glyph glyph-name="uni01E4" unicode="&#x1e4;" horiz-adv-x="1267" 
d="M612 335l17 82h623l-17 -82h-623zM544 -19q-203 0 -315.5 140t-112.5 391q0 187 52 362t149.5 314.5t235 221t308.5 81.5q113 0 190.5 -34t125 -91t68.5 -125.5t21 -137.5q0 -27 -4 -61.5t-9 -53.5h-121q5 18 8.5 49.5t3.5 52.5q0 73 -29.5 139t-95 107.5t-174.5 41.5
q-147 0 -259.5 -74.5t-189 -199t-116 -278.5t-39.5 -314q0 -136 37 -229.5t108 -141.5t176 -48q127 0 216.5 43.5t145 105.5t80.5 118l45 218h-384l22 104h497l-145 -682h-95l31 175q-16 -26 -67 -72.5t-140.5 -84t-223.5 -37.5z" />
    <glyph glyph-name="uni01E5" unicode="&#x1e5;" horiz-adv-x="1284" 
d="M458 -450q-77 0 -154 16.5t-141.5 50.5t-103 87.5t-38.5 127.5q0 21 3 39t8 39h124q-4 -18 -6 -31t-2 -26q0 -68 44.5 -112t117 -65.5t154.5 -21.5q98 0 185 33t151.5 113t94.5 220l222 1042h124l-221 -1042q-28 -132 -83 -222.5t-130 -144.5t-164 -78.5t-185 -24.5z
M537 -19q-114 0 -210 47t-153.5 142.5t-57.5 239.5q0 140 47 260.5t132.5 212t200.5 143t250 51.5q109 0 193 -40.5t132 -117t48 -184.5q0 -27 -4.5 -65t-11.5 -62h-82q5 17 8.5 45.5t3.5 47.5q0 81 -37 140.5t-102 91.5t-150 32q-113 0 -205 -42.5t-157.5 -117.5t-101 -174
t-35.5 -212q0 -110 41.5 -182.5t112.5 -108t160 -35.5q98 0 187 43.5t153.5 121.5t86.5 182l87 -5q-30 -144 -109 -245.5t-190 -155t-237 -53.5zM564 503l15 64h684l-13 -64h-686z" />
    <glyph glyph-name="Gcaron" unicode="&#x1e6;" horiz-adv-x="1331" 
d="M564 -19q-133 0 -234.5 66.5t-158 187.5t-56.5 285q0 186 55 359.5t156.5 311.5t242.5 219t313 81q112 0 189.5 -34.5t125 -92t69.5 -127t22 -138.5q0 -26 -3.5 -59t-8.5 -52h-121q5 18 8 49.5t3 52.5q0 73 -29 139t-95 107.5t-174 41.5q-146 0 -262 -74t-198 -198
t-125 -276.5t-43 -309.5q0 -133 42.5 -228.5t119.5 -147t179 -51.5q126 0 217 47t148.5 113t82.5 122l43 203h-384l22 104h497l-145 -682h-96l32 175q-16 -26 -69 -72.5t-143 -84t-222 -37.5zM642 1716h103l160 -147h-40l189 147h108l-223 -170h-110z" />
    <glyph glyph-name="gcaron" unicode="&#x1e7;" horiz-adv-x="1284" 
d="M458 -450q-77 0 -154 16.5t-141.5 50.5t-103 87.5t-38.5 127.5q0 21 3 39t8 39h124q-4 -18 -6 -31t-2 -26q0 -68 44.5 -112t117 -65.5t154.5 -21.5q98 0 185 33t151.5 113t94.5 220l222 1042h124l-221 -1042q-28 -132 -83 -222.5t-130 -144.5t-164 -78.5t-185 -24.5z
M537 -19q-114 0 -210 47t-153.5 142.5t-57.5 239.5q0 140 47 260.5t132.5 212t200.5 143t250 51.5q109 0 193 -40.5t132 -117t48 -184.5q0 -27 -4.5 -65t-11.5 -62h-82q5 17 8.5 45.5t3.5 47.5q0 81 -37 140.5t-102 91.5t-150 32q-113 0 -205 -42.5t-157.5 -117.5t-101 -174
t-35.5 -212q0 -110 41.5 -182.5t112.5 -108t160 -35.5q98 0 187 43.5t153.5 121.5t86.5 182l87 -5q-30 -144 -109 -245.5t-190 -155t-237 -53.5zM585 1475h95l154 -207h-40l194 207h101l-227 -233h-100z" />
    <glyph glyph-name="uni01E8" unicode="&#x1e8;" horiz-adv-x="1120" 
d="M507 757l22 97l404 -854h-134l-361 756l55 -8l-235 -241l31 83l-125 -590h-124l313 1475h125l-176 -826l-31 25l790 801h146zM587 1716h103l160 -147h-40l189 147h108l-223 -170h-110z" />
    <glyph glyph-name="uni01E9" unicode="&#x1e9;" horiz-adv-x="1030" 
d="M57 0l332 1563h118l-208 -979l-43 22l641 456h179l-611 -443l42 63l339 -682h-129l-297 608l20 -8l-184 -135l32 62l-113 -527h-118zM223 1804h103l160 -147h-40l189 147h108l-223 -170h-110z" />
    <glyph glyph-name="uni01EA" unicode="&#x1ea;" horiz-adv-x="1367" 
d="M786 -302l-7 -71q-18 -3 -44 -5t-49 -2q-48 0 -84 15.5t-56 46t-20 75.5q0 55 35 107t86 97.5t98 78.5h85q-32 -26 -70 -59.5t-73 -70.5t-57.5 -74t-22.5 -69q0 -41 24.5 -59.5t70.5 -18.5q20 0 43.5 2.5t40.5 6.5zM575 -19q-140 0 -243 64.5t-159 186t-56 292.5
q0 185 54 358.5t153.5 311t239.5 217.5t312 80q141 0 244 -63t158.5 -183t55.5 -291q0 -186 -54 -360t-154 -312.5t-239.5 -219.5t-311.5 -81zM588 93q146 0 261 74.5t195.5 199t123 277t42.5 307.5q0 139 -43 234t-120.5 144.5t-185.5 49.5q-145 0 -260 -74.5
t-195.5 -197.5t-122.5 -274.5t-42 -307.5q0 -209 93.5 -320.5t253.5 -111.5z" />
    <glyph glyph-name="uni01EB" unicode="&#x1eb;" horiz-adv-x="1308" 
d="M732 -322l-7 -70q-19 -3 -44.5 -5.5t-49.5 -2.5q-71 0 -115.5 35t-44.5 103q0 54 36 106.5t88 98t99 77.5h74q-31 -25 -68 -58.5t-71 -70.5t-55.5 -74t-21.5 -69q0 -41 24.5 -59.5t70.5 -18.5q21 0 44.5 2.5t40.5 5.5zM554 -19q-136 0 -234 54.5t-151 151.5t-53 226
q0 140 48.5 261t135 211.5t203 141t252.5 50.5q137 0 234.5 -56t149.5 -152.5t52 -218.5q0 -148 -49.5 -270.5t-136.5 -211.5t-202.5 -138t-248.5 -49zM563 92q141 0 254.5 68.5t180.5 191t67 285.5q0 100 -37 173.5t-107.5 114.5t-173.5 41q-110 0 -202.5 -41.5
t-160 -115.5t-105 -172t-37.5 -212q0 -154 83.5 -243.5t237.5 -89.5z" />
    <glyph glyph-name="uni01EE" unicode="&#x1ee;" horiz-adv-x="1118" 
d="M449 -19q-116 0 -191.5 35t-111.5 103t-36 165q0 57 7.5 100.5t12.5 60.5h125q-5 -17 -11.5 -57.5t-6.5 -84.5q0 -116 60 -164.5t168 -48.5q83 0 147 34t109 92t68 133t23 159q0 105 -64.5 149.5t-209.5 44.5h-82l522 664h-638l23 109h791l-22 -101l-449 -566
q125 0 191.5 -73.5t66.5 -210.5q0 -117 -34 -216t-98 -173t-155 -114t-205 -40zM536 1716h103l160 -147h-40l189 147h108l-223 -170h-110z" />
    <glyph glyph-name="uni01EF" unicode="&#x1ef;" horiz-adv-x="1108" 
d="M372 -432q-116 0 -191.5 35t-111.5 103t-36 165q0 57 7.5 100.5t12.5 60.5h125q-5 -17 -11.5 -57.5t-6.5 -84.5q0 -116 60 -164.5t168 -48.5q83 0 147 34t109 92t68 133t23 159q0 105 -64.5 149.5t-209.5 44.5h-82l522 664h-638l23 109h791l-22 -101l-449 -566
q125 0 191.5 -73.5t66.5 -210.5q0 -117 -34 -216t-98 -173t-155 -114t-205 -40zM488 1475h95l154 -207h-40l194 207h101l-227 -233h-100z" />
    <glyph glyph-name="Aringacute" unicode="&#x1fa;" horiz-adv-x="1206" 
d="M-23 0l734 1480h191l101 -1480h-123l-87 1395h2l-683 -1395h-135zM259 411l21 109h645l-21 -109h-645zM850 1585q49 0 83.5 34.5t34.5 83.5t-34.5 83.5t-83.5 34.5t-83.5 -34.5t-34.5 -83.5t34.5 -83.5t83.5 -34.5zM850 1522q-50 0 -91 24.5t-65.5 65.5t-24.5 91t24.5 91
t65.5 65.5t91 24.5q51 0 91.5 -24.5t65 -65.5t24.5 -91t-24.5 -91t-65 -65.5t-91.5 -24.5zM797 1928l274 173h141l-291 -173h-124z" />
    <glyph glyph-name="aringacute" unicode="&#x1fb;" horiz-adv-x="1286" 
d="M531 -19q-115 0 -209 47.5t-149.5 143.5t-55.5 240q0 141 47 261.5t131.5 211.5t200 141.5t251.5 50.5q109 0 191.5 -40.5t129 -117t46.5 -184.5q0 -31 -4 -65t-11 -62h-77q6 20 9 45.5t3 47.5q0 81 -37 140.5t-102.5 91.5t-149.5 32q-115 0 -206.5 -41.5t-157 -115.5
t-100 -172.5t-34.5 -211.5q0 -110 40.5 -184t111.5 -110.5t160 -36.5q101 0 190 43.5t152.5 121.5t84.5 182l87 -5q-30 -145 -110 -246.5t-191.5 -154.5t-240.5 -53zM1017 0h-125l225 1062h125zM822 1219q50 0 84 34t34 83q0 50 -34 84t-84 34q-49 0 -83 -34t-34 -84
q0 -49 34 -83t83 -34zM823 1155q-50 0 -91.5 24.5t-66 66t-24.5 90.5q0 50 24.5 91.5t66 65.5t90.5 24q50 0 91.5 -24t65.5 -65.5t24 -90.5q0 -50 -24 -91.5t-65.5 -66t-90.5 -24.5zM768 1610l229 233h131l-254 -233h-106z" />
    <glyph glyph-name="AEacute" unicode="&#x1fc;" horiz-adv-x="1816" 
d="M-97 0l1128 1475h834l-24 -109h-699l52 43l-140 -658l-29 44h584l-23 -110h-582l45 42l-140 -656l-30 38h695l-23 -109h-776l289 1360l11 -7l-1030 -1353h-142zM250 346l49 109h631l-23 -109h-657zM1208 1548l274 173h141l-291 -173h-124z" />
    <glyph glyph-name="aeacute" unicode="&#x1fd;" horiz-adv-x="2145" 
d="M462 -19q-184 0 -285.5 73t-101.5 209q0 94 42.5 159t116 105t167.5 57.5t196 17.5q154 0 241.5 3t126.5 16.5t45 43.5q7 33 10.5 59.5t3.5 42.5q0 101 -77 152t-212 51q-107 0 -196.5 -30t-149 -88t-77.5 -142h-124q25 116 105 198t198.5 125.5t258.5 43.5
q148 0 253.5 -58.5t126.5 -180.5q2 -8 2.5 -20.5t-1.5 -28.5l-31 9q88 125 224 202t296 77q133 0 225.5 -54t140.5 -147.5t48 -212.5q0 -42 -8 -94.5t-19 -89.5h-968l58 37q-3 -24 -4.5 -49t-1.5 -50q0 -97 37 -171.5t110.5 -116.5t181.5 -42q91 0 163.5 25t126 63.5
t86.5 81t44 76.5h122q-17 -54 -62 -115t-116.5 -115t-167.5 -88.5t-214 -34.5q-116 0 -203.5 41.5t-142.5 115.5t-73 172l33 1q-58 -124 -147.5 -196t-194 -102.5t-212.5 -30.5zM478 91q76 0 152.5 18t146 66.5t123 135.5t82.5 224q3 12 5 23l4 22l15 -49
q-62 -20 -164.5 -25.5t-238.5 -5.5q-112 0 -203 -17.5t-144.5 -65t-53.5 -138.5q0 -95 73 -141.5t203 -46.5zM1119 590h789q3 14 4 35.5t1 39.5q0 84 -33.5 153.5t-101.5 111.5t-171 42q-117 0 -216 -50.5t-169 -137t-103 -194.5zM1145 1242l229 233h131l-254 -233h-106z
" />
    <glyph glyph-name="Oslashacute" unicode="&#x1fe;" horiz-adv-x="1367" 
d="M1347 1504l-1270 -1577l-64 45l1269 1576zM575 -19q-140 0 -243 64.5t-159 186t-56 292.5q0 185 54 358.5t153.5 311t239.5 217.5t312 80q141 0 244 -63t158.5 -183t55.5 -291q0 -186 -54 -360t-154 -312.5t-239.5 -219.5t-311.5 -81zM588 93q146 0 261 74.5t195.5 199
t123 277t42.5 307.5q0 139 -43 234t-120.5 144.5t-185.5 49.5q-145 0 -260 -74.5t-195.5 -197.5t-122.5 -274.5t-42 -307.5q0 -209 93.5 -320.5t253.5 -111.5zM797 1548l274 173h141l-291 -173h-124z" />
    <glyph glyph-name="oslashacute" unicode="&#x1ff;" horiz-adv-x="1308" 
d="M1124 1054l-896 -1094l-61 47l897 1093zM554 -19q-136 0 -234 54.5t-151 151.5t-53 226q0 140 48.5 261t135 211.5t203 141t252.5 50.5q137 0 234.5 -56t149.5 -152.5t52 -218.5q0 -148 -49.5 -270.5t-136.5 -211.5t-202.5 -138t-248.5 -49zM563 92q141 0 254.5 68.5
t180.5 191t67 285.5q0 100 -37 173.5t-107.5 114.5t-173.5 41q-110 0 -202.5 -41.5t-160 -115.5t-105 -172t-37.5 -212q0 -154 83.5 -243.5t237.5 -89.5zM687 1242l229 233h131l-254 -233h-106z" />
    <glyph glyph-name="uni0200" unicode="&#x200;" horiz-adv-x="1206" 
d="M-23 0l734 1480h191l101 -1480h-123l-87 1395h2l-683 -1395h-135zM259 411l21 109h645l-21 -109h-645zM1012 1546h-92l-199 176h112zM714 1546h-91l-207 176h112z" />
    <glyph glyph-name="uni0201" unicode="&#x201;" horiz-adv-x="1286" 
d="M531 -19q-115 0 -209 47.5t-149.5 143.5t-55.5 240q0 141 47 261.5t131.5 211.5t200 141.5t251.5 50.5q109 0 191.5 -40.5t129 -117t46.5 -184.5q0 -31 -4 -65t-11 -62h-77q6 20 9 45.5t3 47.5q0 81 -37 140.5t-102.5 91.5t-149.5 32q-115 0 -206.5 -41.5t-157 -115.5
t-100 -172.5t-34.5 -211.5q0 -110 40.5 -184t111.5 -110.5t160 -36.5q101 0 190 43.5t152.5 121.5t84.5 182l87 -5q-30 -145 -110 -246.5t-191.5 -154.5t-240.5 -53zM1017 0h-125l225 1062h125zM985 1242h-84l-189 233h112zM687 1242h-84l-196 233h111z" />
    <glyph glyph-name="uni0202" unicode="&#x202;" horiz-adv-x="1206" 
d="M-23 0l734 1480h191l101 -1480h-123l-87 1395h2l-683 -1395h-135zM259 411l21 109h645l-21 -109h-645zM597 1546q7 70 76.5 112.5t163.5 42.5q95 0 151.5 -42.5t56.5 -112.5h-82q0 40 -33.5 68.5t-98.5 28.5q-64 0 -106 -28.5t-46 -68.5h-82z" />
    <glyph glyph-name="uni0203" unicode="&#x203;" horiz-adv-x="1286" 
d="M531 -19q-115 0 -209 47.5t-149.5 143.5t-55.5 240q0 141 47 261.5t131.5 211.5t200 141.5t251.5 50.5q109 0 191.5 -40.5t129 -117t46.5 -184.5q0 -31 -4 -65t-11 -62h-77q6 20 9 45.5t3 47.5q0 81 -37 140.5t-102.5 91.5t-149.5 32q-115 0 -206.5 -41.5t-157 -115.5
t-100 -172.5t-34.5 -211.5q0 -110 40.5 -184t111.5 -110.5t160 -36.5q101 0 190 43.5t152.5 121.5t84.5 182l87 -5q-30 -145 -110 -246.5t-191.5 -154.5t-240.5 -53zM1017 0h-125l225 1062h125zM593 1295q10 94 79 141t164 47t150 -47t55 -141h-82q0 63 -32.5 96t-96.5 33
t-106 -33t-49 -96h-82z" />
    <glyph glyph-name="uni0204" unicode="&#x204;" horiz-adv-x="1080" 
d="M398 1366l71 69l-145 -684l-24 44h593l-23 -110h-593l42 44l-146 -689l-42 69h707l-23 -109h-776l314 1475h776l-23 -109h-708zM973 1546h-92l-199 176h112zM675 1546h-91l-207 176h112z" />
    <glyph glyph-name="uni0205" unicode="&#x205;" horiz-adv-x="1288" 
d="M184 479l24 111h860l-25 -35q5 21 9 49.5t4 62.5q0 83 -33.5 150.5t-101.5 107.5t-173 40q-113 0 -206.5 -42t-162 -116.5t-106 -173t-37.5 -212.5q0 -97 35.5 -171t108.5 -115t184 -41q93 0 165.5 22.5t124 59.5t83 78.5t43.5 78.5h125q-15 -59 -59.5 -120.5
t-116.5 -114.5t-168.5 -85.5t-214.5 -32.5q-136 0 -232.5 55.5t-147 154t-50.5 227.5q0 139 49.5 258.5t138 210t205.5 141t251 50.5t226.5 -55.5t140.5 -150.5t48 -214q0 -42 -7.5 -92t-17.5 -86h-966zM981 1242h-84l-189 233h112zM683 1242h-84l-196 233h111z" />
    <glyph glyph-name="uni0206" unicode="&#x206;" horiz-adv-x="1080" 
d="M398 1366l71 69l-145 -684l-24 44h593l-23 -110h-593l42 44l-146 -689l-42 69h707l-23 -109h-776l314 1475h776l-23 -109h-708zM557 1546q7 70 76.5 112.5t163.5 42.5q95 0 151.5 -42.5t56.5 -112.5h-82q0 40 -33.5 68.5t-98.5 28.5q-64 0 -106 -28.5t-46 -68.5h-82z" />
    <glyph glyph-name="uni0207" unicode="&#x207;" horiz-adv-x="1288" 
d="M184 479l24 111h860l-25 -35q5 21 9 49.5t4 62.5q0 83 -33.5 150.5t-101.5 107.5t-173 40q-113 0 -206.5 -42t-162 -116.5t-106 -173t-37.5 -212.5q0 -97 35.5 -171t108.5 -115t184 -41q93 0 165.5 22.5t124 59.5t83 78.5t43.5 78.5h125q-15 -59 -59.5 -120.5
t-116.5 -114.5t-168.5 -85.5t-214.5 -32.5q-136 0 -232.5 55.5t-147 154t-50.5 227.5q0 139 49.5 258.5t138 210t205.5 141t251 50.5t226.5 -55.5t140.5 -150.5t48 -214q0 -42 -7.5 -92t-17.5 -86h-966zM590 1295q10 94 79 141t164 47t150 -47t55 -141h-82q0 63 -32.5 96
t-96.5 33t-106 -33t-49 -96h-82z" />
    <glyph glyph-name="uni0208" unicode="&#x208;" horiz-adv-x="456" 
d="M51 0l313 1475h123l-313 -1475h-123zM633 1546h-92l-199 176h112zM335 1546h-91l-207 176h112z" />
    <glyph glyph-name="uni0209" unicode="&#x209;" horiz-adv-x="483" 
d="M66 0l225 1062h123l-225 -1062h-123zM571 1242h-84l-189 233h112zM273 1242h-84l-196 233h111z" />
    <glyph glyph-name="uni020A" unicode="&#x20a;" horiz-adv-x="456" 
d="M51 0l313 1475h123l-313 -1475h-123zM217 1546q7 70 76.5 112.5t163.5 42.5q95 0 151.5 -42.5t56.5 -112.5h-82q0 40 -33.5 68.5t-98.5 28.5q-64 0 -106 -28.5t-46 -68.5h-82z" />
    <glyph glyph-name="uni020B" unicode="&#x20b;" horiz-adv-x="483" 
d="M66 0l225 1062h123l-225 -1062h-123zM179 1295q10 94 79 141t164 47t150 -47t55 -141h-82q0 63 -32.5 96t-96.5 33t-106 -33t-49 -96h-82z" />
    <glyph glyph-name="uni020C" unicode="&#x20c;" horiz-adv-x="1367" 
d="M575 -19q-140 0 -243 64.5t-159 186t-56 292.5q0 185 54 358.5t153.5 311t239.5 217.5t312 80q141 0 244 -63t158.5 -183t55.5 -291q0 -186 -54 -360t-154 -312.5t-239.5 -219.5t-311.5 -81zM588 93q146 0 261 74.5t195.5 199t123 277t42.5 307.5q0 139 -43 234
t-120.5 144.5t-185.5 49.5q-145 0 -260 -74.5t-195.5 -197.5t-122.5 -274.5t-42 -307.5q0 -209 93.5 -320.5t253.5 -111.5zM1087 1546h-92l-199 176h112zM789 1546h-91l-207 176h112z" />
    <glyph glyph-name="uni020D" unicode="&#x20d;" horiz-adv-x="1308" 
d="M554 -19q-136 0 -234 54.5t-151 151.5t-53 226q0 140 48.5 261t135 211.5t203 141t252.5 50.5q137 0 234.5 -56t149.5 -152.5t52 -218.5q0 -148 -49.5 -270.5t-136.5 -211.5t-202.5 -138t-248.5 -49zM563 92q141 0 254.5 68.5t180.5 191t67 285.5q0 100 -37 173.5
t-107.5 114.5t-173.5 41q-110 0 -202.5 -41.5t-160 -115.5t-105 -172t-37.5 -212q0 -154 83.5 -243.5t237.5 -89.5zM986 1242h-84l-189 233h112zM688 1242h-84l-196 233h111z" />
    <glyph glyph-name="uni020E" unicode="&#x20e;" horiz-adv-x="1367" 
d="M575 -19q-140 0 -243 64.5t-159 186t-56 292.5q0 185 54 358.5t153.5 311t239.5 217.5t312 80q141 0 244 -63t158.5 -183t55.5 -291q0 -186 -54 -360t-154 -312.5t-239.5 -219.5t-311.5 -81zM588 93q146 0 261 74.5t195.5 199t123 277t42.5 307.5q0 139 -43 234
t-120.5 144.5t-185.5 49.5q-145 0 -260 -74.5t-195.5 -197.5t-122.5 -274.5t-42 -307.5q0 -209 93.5 -320.5t253.5 -111.5zM671 1546q7 70 76.5 112.5t163.5 42.5q95 0 151.5 -42.5t56.5 -112.5h-82q0 40 -33.5 68.5t-98.5 28.5q-64 0 -106 -28.5t-46 -68.5h-82z" />
    <glyph glyph-name="uni020F" unicode="&#x20f;" horiz-adv-x="1308" 
d="M554 -19q-136 0 -234 54.5t-151 151.5t-53 226q0 140 48.5 261t135 211.5t203 141t252.5 50.5q137 0 234.5 -56t149.5 -152.5t52 -218.5q0 -148 -49.5 -270.5t-136.5 -211.5t-202.5 -138t-248.5 -49zM563 92q141 0 254.5 68.5t180.5 191t67 285.5q0 100 -37 173.5
t-107.5 114.5t-173.5 41q-110 0 -202.5 -41.5t-160 -115.5t-105 -172t-37.5 -212q0 -154 83.5 -243.5t237.5 -89.5zM595 1295q10 94 79 141t164 47t150 -47t55 -141h-82q0 63 -32.5 96t-96.5 33t-106 -33t-49 -96h-82z" />
    <glyph glyph-name="uni0210" unicode="&#x210;" horiz-adv-x="1172" 
d="M39 0l314 1475h472q171 0 253.5 -77.5t82.5 -208.5q0 -78 -25 -159t-71.5 -150.5t-110.5 -115.5t-140 -54q45 -4 84.5 -22.5t65 -56.5t25.5 -100q0 -26 -9 -75t-22.5 -109t-27 -120.5t-23 -110.5t-9.5 -77q0 -14 1.5 -24.5t3.5 -14.5h-125q-4 11 -4 36t9 72t22 104
t25.5 114t21.5 104.5t9 71.5q0 81 -58 116t-158 35h-400l64 44l-148 -697h-122zM314 720l-48 43h403q102 0 183.5 54t129.5 143t48 192q0 99 -57 156.5t-185 57.5h-390l68 68zM932 1546h-92l-199 176h112zM634 1546h-91l-207 176h112z" />
    <glyph glyph-name="uni0211" unicode="&#x211;" horiz-adv-x="790" 
d="M58 0l225 1062h124l-66 -313l-47 14q17 50 52 104.5t88 102.5t123.5 77.5t158.5 29.5q63 0 101.5 -11t46.5 -17l-59 -120q-9 7 -37.5 18t-86.5 11q-84 0 -148 -32.5t-109 -84.5t-72.5 -111t-38.5 -112l-132 -618h-123zM818 1242h-84l-189 233h112zM520 1242h-84l-196 233
h111z" />
    <glyph glyph-name="uni0212" unicode="&#x212;" horiz-adv-x="1172" 
d="M39 0l314 1475h472q171 0 253.5 -77.5t82.5 -208.5q0 -78 -25 -159t-71.5 -150.5t-110.5 -115.5t-140 -54q45 -4 84.5 -22.5t65 -56.5t25.5 -100q0 -26 -9 -75t-22.5 -109t-27 -120.5t-23 -110.5t-9.5 -77q0 -14 1.5 -24.5t3.5 -14.5h-125q-4 11 -4 36t9 72t22 104
t25.5 114t21.5 104.5t9 71.5q0 81 -58 116t-158 35h-400l64 44l-148 -697h-122zM314 720l-48 43h403q102 0 183.5 54t129.5 143t48 192q0 99 -57 156.5t-185 57.5h-390l68 68zM517 1546q7 70 76.5 112.5t163.5 42.5q95 0 151.5 -42.5t56.5 -112.5h-82q0 40 -33.5 68.5
t-98.5 28.5q-64 0 -106 -28.5t-46 -68.5h-82z" />
    <glyph glyph-name="uni0213" unicode="&#x213;" horiz-adv-x="790" 
d="M58 0l225 1062h124l-66 -313l-47 14q17 50 52 104.5t88 102.5t123.5 77.5t158.5 29.5q63 0 101.5 -11t46.5 -17l-59 -120q-9 7 -37.5 18t-86.5 11q-84 0 -148 -32.5t-109 -84.5t-72.5 -111t-38.5 -112l-132 -618h-123zM426 1295q10 94 79 141t164 47t150 -47t55 -141h-82
q0 63 -32.5 96t-96.5 33t-106 -33t-49 -96h-82z" />
    <glyph glyph-name="uni0214" unicode="&#x214;" horiz-adv-x="1290" 
d="M1141 548q-61 -290 -217 -428.5t-380 -138.5q-197 0 -300.5 92.5t-103.5 282.5q0 82 15 169.5t45 230.5l156 719h124l-156 -725q-21 -95 -34 -161t-19 -116.5t-6 -102.5q0 -150 72.5 -213.5t213.5 -63.5q178 0 297 108t171 352l195 922h124zM1062 1546h-92l-199 176h112z
M764 1546h-91l-207 176h112z" />
    <glyph glyph-name="uni0215" unicode="&#x215;" horiz-adv-x="1183" 
d="M442 -18q-114 0 -182.5 40t-99 105t-30.5 137q0 51 9 105.5t26 136.5l118 556h125l-115 -542q-17 -78 -26 -132t-9 -98q0 -83 52.5 -138.5t167.5 -55.5q98 0 184.5 54t147 137.5t78.5 171.5l77 -31q-17 -80 -63 -158.5t-115 -144t-156.5 -104.5t-188.5 -39zM790 0
l226 1062h123l-225 -1062h-124zM922 1242h-84l-189 233h112zM624 1242h-84l-196 233h111z" />
    <glyph glyph-name="uni0216" unicode="&#x216;" horiz-adv-x="1290" 
d="M1141 548q-61 -290 -217 -428.5t-380 -138.5q-197 0 -300.5 92.5t-103.5 282.5q0 82 15 169.5t45 230.5l156 719h124l-156 -725q-21 -95 -34 -161t-19 -116.5t-6 -102.5q0 -150 72.5 -213.5t213.5 -63.5q178 0 297 108t171 352l195 922h124zM647 1546q7 70 76.5 112.5
t163.5 42.5q95 0 151.5 -42.5t56.5 -112.5h-82q0 40 -33.5 68.5t-98.5 28.5q-64 0 -106 -28.5t-46 -68.5h-82z" />
    <glyph glyph-name="uni0217" unicode="&#x217;" horiz-adv-x="1183" 
d="M442 -18q-114 0 -182.5 40t-99 105t-30.5 137q0 51 9 105.5t26 136.5l118 556h125l-115 -542q-17 -78 -26 -132t-9 -98q0 -83 52.5 -138.5t167.5 -55.5q98 0 184.5 54t147 137.5t78.5 171.5l77 -31q-17 -80 -63 -158.5t-115 -144t-156.5 -104.5t-188.5 -39zM790 0
l226 1062h123l-225 -1062h-124zM530 1295q10 94 79 141t164 47t150 -47t55 -141h-82q0 63 -32.5 96t-96.5 33t-106 -33t-49 -96h-82z" />
    <glyph glyph-name="uni0218" unicode="&#x218;" horiz-adv-x="1123" 
d="M452 -19q-124 0 -214 35t-137.5 104.5t-47.5 172.5q0 49 7.5 92t21.5 101h124q-14 -58 -20 -96.5t-6 -77.5q0 -116 72 -167.5t210 -51.5q119 0 211.5 35.5t145.5 106.5t53 179q0 102 -78 167t-214 111q-105 37 -185 87t-125 120t-45 164q0 104 39.5 183.5t110.5 134
t165 82.5t205 28q123 0 212.5 -33.5t137.5 -100t48 -167.5q0 -44 -7 -89.5t-19 -99.5h-125q13 54 19 93.5t6 77.5q0 113 -74 160t-210 47q-111 0 -198 -31.5t-136.5 -96.5t-49.5 -166q0 -114 84.5 -179t225.5 -115q107 -37 182 -86.5t115 -115.5t40 -155q0 -144 -71 -245.5
t-194 -154.5t-279 -53zM394 -233q-30 0 -49.5 16.5t-19.5 44.5q0 35 26.5 56.5t64.5 21.5q31 0 57 -17.5t26 -58.5q0 -56 -23.5 -107.5t-62.5 -91t-87 -63.5l-14 30q28 14 60 42t55 67t25 84q-6 -10 -22.5 -17t-35.5 -7z" />
    <glyph glyph-name="uni0219" unicode="&#x219;" horiz-adv-x="1119" 
d="M451 -19q-87 0 -157.5 17.5t-121 49.5t-78 78t-27.5 103q0 22 4 47t8 40h125q-4 -12 -6.5 -31t-2.5 -33q0 -76 70.5 -117.5t201.5 -41.5q88 0 168.5 21.5t132 68.5t51.5 124t-67 113.5t-210 60.5q-99 16 -178 46.5t-125 82.5t-46 133q0 84 39.5 146.5t106.5 104.5
t151.5 62.5t173.5 20.5q100 0 183 -29t132.5 -84.5t49.5 -134.5q0 -25 -3 -46t-7 -37h-124q4 14 6 27.5t2 32.5q0 57 -35 92t-91.5 51.5t-124.5 16.5q-84 0 -160.5 -22t-125.5 -67t-49 -114q0 -80 73 -116.5t200 -61.5q77 -15 142 -34.5t112 -49t73 -72t26 -103.5
q0 -91 -41 -156.5t-111 -107t-158 -61.5t-182 -20zM395 -233q-30 0 -49.5 16.5t-19.5 44.5q0 35 26.5 56.5t64.5 21.5q31 0 57 -17.5t26 -58.5q0 -56 -23.5 -107.5t-62.5 -91t-87 -63.5l-14 30q28 14 60 42t55 67t25 84q-6 -10 -22.5 -17t-35.5 -7z" />
    <glyph glyph-name="uni021A" unicode="&#x21a;" horiz-adv-x="1095" 
d="M1182 1366h-451l70 69l-304 -1435h-124l305 1435l41 -69h-450l23 109h914zM380 -233q-30 0 -49.5 16.5t-19.5 44.5q0 35 26.5 56.5t64.5 21.5q31 0 57 -17.5t26 -58.5q0 -56 -23.5 -107.5t-62.5 -91t-87 -63.5l-14 30q28 14 60 42t55 67t25 84q-6 -10 -22.5 -17t-35.5 -7
z" />
    <glyph glyph-name="uni021B" unicode="&#x21b;" horiz-adv-x="836" 
d="M431 -16q-38 0 -73 7.5t-62.5 26.5t-43 52t-15.5 83q0 35 7.5 77.5t20.5 100.5l132 622h-255l23 109h189q25 0 39 3t22 11.5t13 26.5t12 48l54 254h124l-73 -343h340l-23 -109h-340l-124 -581q-14 -65 -22 -109.5t-8 -74.5q0 -44 19.5 -69.5t66.5 -25.5q30 0 61.5 5.5
t46.5 11.5l-22 -109q-17 -6 -45 -11.5t-64 -5.5zM331 -231q-30 0 -49.5 16.5t-19.5 44.5q0 35 26.5 56.5t64.5 21.5q31 0 57 -17.5t26 -58.5q0 -56 -23.5 -107.5t-62.5 -91t-87 -63.5l-14 30q28 14 60 42t55 67t25 84q-6 -10 -22.5 -17t-35.5 -7z" />
    <glyph glyph-name="uni0228" unicode="&#x228;" horiz-adv-x="1080" 
d="M398 1366l71 69l-145 -684l-24 44h593l-23 -110h-593l42 44l-146 -689l-42 69h707l-23 -109h-776l314 1475h776l-23 -109h-708zM511 -114q45 0 81 -28t36 -88q0 -65 -34 -109t-89 -66.5t-117 -22.5q-36 0 -68 5.5t-54.5 14t-30.5 14.5l37 57q11 -8 43.5 -21t81.5 -13
q67 0 116.5 35.5t49.5 101.5q0 36 -20.5 52t-54.5 16q-26 0 -55 -10.5t-46 -28.5l-55 20l93 185h64l-86 -173l-10 7q12 21 46 36.5t72 15.5z" />
    <glyph glyph-name="uni0229" unicode="&#x229;" horiz-adv-x="1285" 
d="M600 -114q46 0 81.5 -28t35.5 -88q0 -65 -34 -109t-88.5 -66.5t-117.5 -22.5q-35 0 -67 5.5t-55 14t-31 14.5l37 57q11 -8 43.5 -21t82.5 -13q66 0 115.5 35.5t49.5 101.5q0 36 -20.5 52t-54.5 16q-25 0 -54.5 -10.5t-46.5 -28.5l-57 20l93 185h69l-86 -173l-19 7
q12 21 49 36.5t75 15.5zM184 479l24 111h860l-25 -35q5 21 9 49.5t4 62.5q0 83 -33.5 150.5t-101.5 107.5t-173 40q-113 0 -206.5 -42t-162 -116.5t-106 -173t-37.5 -212.5q0 -97 35.5 -171t108.5 -115t184 -41q93 0 165.5 22.5t124 59.5t83 78.5t43.5 78.5h125
q-15 -59 -59.5 -120.5t-116.5 -114.5t-168.5 -85.5t-214.5 -32.5q-136 0 -232.5 55.5t-147 154t-50.5 227.5q0 139 49.5 258.5t138 210t205.5 141t251 50.5t226.5 -55.5t140.5 -150.5t48 -214q0 -42 -7.5 -92t-17.5 -86h-966z" />
    <glyph glyph-name="uni022A" unicode="&#x22a;" horiz-adv-x="1367" 
d="M575 -19q-140 0 -243 64.5t-159 186t-56 292.5q0 185 54 358.5t153.5 311t239.5 217.5t312 80q141 0 244 -63t158.5 -183t55.5 -291q0 -186 -54 -360t-154 -312.5t-239.5 -219.5t-311.5 -81zM588 93q146 0 261 74.5t195.5 199t123 277t42.5 307.5q0 139 -43 234
t-120.5 144.5t-185.5 49.5q-145 0 -260 -74.5t-195.5 -197.5t-122.5 -274.5t-42 -307.5q0 -209 93.5 -320.5t253.5 -111.5zM737 1567q-35 0 -60 21t-25 54q0 37 28 60t65 23q35 0 60 -20.5t25 -54.5q0 -37 -28 -60t-65 -23zM1095 1567q-35 0 -60 21t-25 54q0 37 28 60t65 23
q35 0 60 -20.5t25 -54.5q0 -37 -28 -60t-65 -23zM714 1844l13 60h483l-13 -60h-483z" />
    <glyph glyph-name="uni022B" unicode="&#x22b;" horiz-adv-x="1308" 
d="M554 -19q-136 0 -234 54.5t-151 151.5t-53 226q0 140 48.5 261t135 211.5t203 141t252.5 50.5q137 0 234.5 -56t149.5 -152.5t52 -218.5q0 -148 -49.5 -270.5t-136.5 -211.5t-202.5 -138t-248.5 -49zM563 92q141 0 254.5 68.5t180.5 191t67 285.5q0 100 -37 173.5
t-107.5 114.5t-173.5 41q-110 0 -202.5 -41.5t-160 -115.5t-105 -172t-37.5 -212q0 -154 83.5 -243.5t237.5 -89.5zM655 1329q-35 0 -60 21t-25 54q0 37 28 60t66 23q34 0 59 -20.5t25 -54.5q0 -37 -28 -60t-65 -23zM1013 1329q-34 0 -59 21t-25 54q0 37 28 60t65 23
q34 0 59.5 -20.5t25.5 -54.5q0 -37 -28.5 -60t-65.5 -23zM644 1620l13 60h483l-13 -60h-483z" />
    <glyph glyph-name="uni022C" unicode="&#x22c;" horiz-adv-x="1367" 
d="M575 -19q-140 0 -243 64.5t-159 186t-56 292.5q0 185 54 358.5t153.5 311t239.5 217.5t312 80q141 0 244 -63t158.5 -183t55.5 -291q0 -186 -54 -360t-154 -312.5t-239.5 -219.5t-311.5 -81zM588 93q146 0 261 74.5t195.5 199t123 277t42.5 307.5q0 139 -43 234
t-120.5 144.5t-185.5 49.5q-145 0 -260 -74.5t-195.5 -197.5t-122.5 -274.5t-42 -307.5q0 -209 93.5 -320.5t253.5 -111.5zM1185 1682q-4 -25 -21.5 -57t-51.5 -57t-88 -25q-43 0 -73 18t-53 37q-19 17 -42 30.5t-55 13.5q-43 0 -61 -23.5t-23 -47.5h-78q5 28 25.5 61t57 57
t88.5 24q44 0 71 -17t48 -36q22 -18 46 -32.5t53 -14.5q44 0 59.5 23.5t19.5 45.5h78zM720 1842l13 60h483l-13 -60h-483z" />
    <glyph glyph-name="uni022D" unicode="&#x22d;" horiz-adv-x="1308" 
d="M554 -19q-136 0 -234 54.5t-151 151.5t-53 226q0 140 48.5 261t135 211.5t203 141t252.5 50.5q137 0 234.5 -56t149.5 -152.5t52 -218.5q0 -148 -49.5 -270.5t-136.5 -211.5t-202.5 -138t-248.5 -49zM563 92q141 0 254.5 68.5t180.5 191t67 285.5q0 100 -37 173.5
t-107.5 114.5t-173.5 41q-110 0 -202.5 -41.5t-160 -115.5t-105 -172t-37.5 -212q0 -154 83.5 -243.5t237.5 -89.5zM1106 1449q-4 -24 -21.5 -56.5t-51.5 -57t-88 -24.5q-43 0 -73 17.5t-53 37.5q-19 16 -41.5 30t-54.5 14q-44 0 -62 -24t-22 -47h-79q5 28 26 60.5
t57.5 56.5t87.5 24q44 0 71 -16.5t49 -35.5q21 -19 45 -33t53 -14q45 0 60 23t20 45h77zM643 1610l13 60h483l-13 -60h-483z" />
    <glyph glyph-name="uni0230" unicode="&#x230;" horiz-adv-x="1367" 
d="M575 -19q-140 0 -243 64.5t-159 186t-56 292.5q0 185 54 358.5t153.5 311t239.5 217.5t312 80q141 0 244 -63t158.5 -183t55.5 -291q0 -186 -54 -360t-154 -312.5t-239.5 -219.5t-311.5 -81zM588 93q146 0 261 74.5t195.5 199t123 277t42.5 307.5q0 139 -43 234
t-120.5 144.5t-185.5 49.5q-145 0 -260 -74.5t-195.5 -197.5t-122.5 -274.5t-42 -307.5q0 -209 93.5 -320.5t253.5 -111.5zM917 1574q-38 0 -66 22.5t-28 59.5q0 38 28 60.5t66 22.5t66 -22.5t28 -60.5q0 -37 -28 -59.5t-66 -22.5zM727 1872l13 60h483l-13 -60h-483z" />
    <glyph glyph-name="uni0231" unicode="&#x231;" horiz-adv-x="1308" 
d="M554 -19q-136 0 -234 54.5t-151 151.5t-53 226q0 140 48.5 261t135 211.5t203 141t252.5 50.5q137 0 234.5 -56t149.5 -152.5t52 -218.5q0 -148 -49.5 -270.5t-136.5 -211.5t-202.5 -138t-248.5 -49zM563 92q141 0 254.5 68.5t180.5 191t67 285.5q0 100 -37 173.5
t-107.5 114.5t-173.5 41q-110 0 -202.5 -41.5t-160 -115.5t-105 -172t-37.5 -212q0 -154 83.5 -243.5t237.5 -89.5zM836 1330q-36 0 -62.5 21.5t-26.5 56.5q0 26 14 45.5t36.5 30.5t48.5 11q37 0 63 -21.5t26 -56.5q0 -26 -13.5 -46t-36 -30.5t-49.5 -10.5zM648 1628l13 60
h483l-13 -60h-483z" />
    <glyph glyph-name="uni0232" unicode="&#x232;" horiz-adv-x="1111" 
d="M1222 1475l-608 -961l-110 -514h-123l109 514l-199 961h128l174 -880h-54l548 880h135zM547 1608l13 60h483l-13 -60h-483z" />
    <glyph glyph-name="uni0233" unicode="&#x233;" horiz-adv-x="1018" 
d="M-29 -444q-37 0 -68 4.5t-37 7.5l23 111q11 -7 39.5 -11.5t55.5 -4.5q69 0 122.5 34t94.5 86t71 107l59 107l-144 1065h126l121 -950h-22l513 950h133l-648 -1167q-48 -87 -105.5 -164.5t-137.5 -126t-196 -48.5zM438 1328l14 60h483l-14 -60h-483z" />
    <glyph glyph-name="uni0237" unicode="&#x237;" horiz-adv-x="511" 
d="M-217 -443q-31 0 -52.5 4.5t-32.5 9.5l25 92q13 -4 31 -8t48 -4q90 0 144 40.5t82 100t40 117.5l246 1153h124l-247 -1162q-14 -65 -39.5 -126t-71.5 -110t-118 -78t-179 -29z" />
    <glyph glyph-name="uni0259" unicode="&#x259;" horiz-adv-x="1289" 
d="M525 -20q-134 0 -226.5 54t-140 148t-47.5 214q0 43 7 94t18 88h966l-23 -111h-860l31 34q-6 -25 -9.5 -52t-3.5 -63q0 -81 32 -148t99 -106.5t170 -39.5q117 0 211 41.5t161.5 116t104 173.5t36.5 215q0 100 -35.5 173t-108 113t-184.5 40q-94 0 -166.5 -23t-124.5 -60
t-83.5 -78.5t-43.5 -78.5h-123q17 59 62 121t115.5 114.5t166 85t213.5 32.5q137 0 233.5 -55.5t147 -154t50.5 -228.5q0 -139 -49 -259t-137.5 -209.5t-206 -140t-252.5 -50.5z" />
    <glyph glyph-name="uni0272" unicode="&#x272;" horiz-adv-x="1159" 
d="M763 0l123 567q16 76 23.5 120.5t7.5 81.5q0 89 -51 140t-171 51q-90 0 -178.5 -44.5t-153.5 -120.5t-85 -171l-74 28q20 92 73.5 169.5t129 134.5t162 89t172.5 32q151 0 228.5 -70t77.5 -200q0 -48 -11 -109.5t-29 -140.5l-121 -557h-123zM-308 -459l19 93q72 0 124 27
t86.5 71t55 94.5t30.5 97.5l243 1138h123l-242 -1139q-15 -67 -41 -134.5t-74 -123.5t-126.5 -90t-197.5 -34z" />
    <glyph glyph-name="uni0292" unicode="&#x292;" horiz-adv-x="1108" 
d="M372 -432q-116 0 -191.5 35t-111.5 103t-36 165q0 57 7.5 100.5t12.5 60.5h125q-5 -17 -11.5 -57.5t-6.5 -84.5q0 -116 60 -164.5t168 -48.5q83 0 147 34t109 92t68 133t23 159q0 105 -64.5 149.5t-209.5 44.5h-82l522 664h-638l23 109h791l-22 -101l-449 -566
q125 0 191.5 -73.5t66.5 -210.5q0 -117 -34 -216t-98 -173t-155 -114t-205 -40z" />
    <glyph glyph-name="uni02BC" unicode="&#x2bc;" horiz-adv-x="292" 
d="M410 1475l-103 -386h-80l62 386h121z" />
    <glyph glyph-name="circumflex" unicode="&#x2c6;" horiz-adv-x="818" 
d="M305 1242l227 233h100l177 -233h-97l-151 207h41l-198 -207h-99z" />
    <glyph glyph-name="caron" unicode="&#x2c7;" horiz-adv-x="823" 
d="M326 1475h95l154 -207h-40l194 207h101l-227 -233h-100z" />
    <glyph glyph-name="uni02C9" unicode="&#x2c9;" horiz-adv-x="750" 
d="M300 1328l14 60h483l-14 -60h-483z" />
    <glyph glyph-name="breve" unicode="&#x2d8;" horiz-adv-x="635" 
d="M273 1475h82q0 -63 32.5 -105t96.5 -42q65 0 107 42t49 105h81q-9 -94 -78.5 -149.5t-164.5 -55.5q-94 0 -149.5 55.5t-55.5 149.5z" />
    <glyph glyph-name="dotaccent" unicode="&#x2d9;" horiz-adv-x="459" 
d="M411 1330q-36 0 -62.5 21.5t-26.5 56.5q0 26 14 45.5t36.5 30.5t48.5 11q37 0 63 -21.5t26 -56.5q0 -26 -13.5 -46t-36 -30.5t-49.5 -10.5z" />
    <glyph glyph-name="ring" unicode="&#x2da;" horiz-adv-x="707" 
d="M520 1219q50 0 84 34t34 83q0 50 -34 84t-84 34q-49 0 -83 -34t-34 -84q0 -49 34 -83t83 -34zM521 1155q-50 0 -91.5 24.5t-66 66t-24.5 90.5q0 50 24.5 91.5t66 65.5t90.5 24q50 0 91.5 -24t65.5 -65.5t24 -90.5q0 -50 -24 -91.5t-65.5 -66t-90.5 -24.5z" />
    <glyph glyph-name="ogonek" unicode="&#x2db;" horiz-adv-x="783" 
d="M272 -342l-7 -70q-18 -4 -44 -6t-49 -2q-71 0 -115.5 35t-44.5 103q0 54 36 106t87.5 97.5t98.5 78.5h75q-31 -25 -68 -58.5t-71 -71t-55.5 -74t-21.5 -68.5q0 -41 24.5 -59.5t70.5 -18.5q20 0 43.5 2.5t40.5 5.5z" />
    <glyph glyph-name="tilde" unicode="&#x2dc;" horiz-adv-x="872" 
d="M883 1449q-4 -24 -21.5 -56.5t-51.5 -57t-88 -24.5q-43 0 -73 17.5t-53 37.5q-19 16 -41.5 30t-54.5 14q-44 0 -62 -24t-22 -47h-79q5 28 26 60.5t57.5 56.5t87.5 24q44 0 71 -16.5t49 -35.5q21 -19 45 -33t53 -14q45 0 60 23t20 45h77z" />
    <glyph glyph-name="hungarumlaut" unicode="&#x2dd;" horiz-adv-x="909" 
d="M321 1242l161 233h112l-192 -233h-81zM622 1242l166 233h111l-196 -233h-81z" />
    <glyph glyph-name="gravecomb" unicode="&#x300;" 
d="M660 1242h-107l-253 233h130z" />
    <glyph glyph-name="acutecomb" unicode="&#x301;" 
d="M274 1242l229 233h131l-254 -233h-106z" />
    <glyph glyph-name="uni0302" unicode="&#x302;" 
d="M305 1242l227 233h100l177 -233h-97l-151 207h41l-198 -207h-99z" />
    <glyph glyph-name="tildecomb" unicode="&#x303;" 
d="M883 1449q-4 -24 -21.5 -56.5t-51.5 -57t-88 -24.5q-43 0 -73 17.5t-53 37.5q-19 16 -41.5 30t-54.5 14q-44 0 -62 -24t-22 -47h-79q5 28 26 60.5t57.5 56.5t87.5 24q44 0 71 -16.5t49 -35.5q21 -19 45 -33t53 -14q45 0 60 23t20 45h77z" />
    <glyph glyph-name="uni0304" unicode="&#x304;" 
d="M300 1328l14 60h483l-14 -60h-483z" />
    <glyph glyph-name="uni0306" unicode="&#x306;" 
d="M273 1475h82q0 -63 32.5 -105t96.5 -42q65 0 107 42t49 105h81q-9 -94 -78.5 -149.5t-164.5 -55.5q-94 0 -149.5 55.5t-55.5 149.5z" />
    <glyph glyph-name="uni0307" unicode="&#x307;" 
d="M411 1330q-36 0 -62.5 21.5t-26.5 56.5q0 26 14 45.5t36.5 30.5t48.5 11q37 0 63 -21.5t26 -56.5q0 -26 -13.5 -46t-36 -30.5t-49.5 -10.5z" />
    <glyph glyph-name="uni0308" unicode="&#x308;" 
d="M360 1329q-35 0 -60 21t-25 54q0 37 28 60t66 23q34 0 59 -20.5t25 -54.5q0 -37 -28 -60t-65 -23zM718 1329q-34 0 -59 21t-25 54q0 37 28 60t65 23q34 0 59.5 -20.5t25.5 -54.5q0 -37 -28.5 -60t-65.5 -23z" />
    <glyph glyph-name="hookabovecomb" unicode="&#x309;" 
d="M365 1488q103 0 178 -7.5t116.5 -28.5t41.5 -65q0 -46 -34.5 -73.5t-88 -40t-110.5 -12.5l-14 45q39 1 78.5 7.5t67 21.5t27.5 42q0 40 -74 49.5t-194 9.5z" />
    <glyph glyph-name="uni030A" unicode="&#x30a;" 
d="M520 1219q50 0 84 34t34 83q0 50 -34 84t-84 34q-49 0 -83 -34t-34 -84q0 -49 34 -83t83 -34zM521 1155q-50 0 -91.5 24.5t-66 66t-24.5 90.5q0 50 24.5 91.5t66 65.5t90.5 24q50 0 91.5 -24t65.5 -65.5t24 -90.5q0 -50 -24 -91.5t-65.5 -66t-90.5 -24.5z" />
    <glyph glyph-name="uni030B" unicode="&#x30b;" 
d="M321 1242l161 233h112l-192 -233h-81zM622 1242l166 233h111l-196 -233h-81z" />
    <glyph glyph-name="uni030C" unicode="&#x30c;" 
d="M326 1475h95l154 -207h-40l194 207h101l-227 -233h-100z" />
    <glyph glyph-name="uni030F" unicode="&#x30f;" 
d="M801 1242h-84l-189 233h112zM503 1242h-84l-196 233h111z" />
    <glyph glyph-name="uni0311" unicode="&#x311;" 
d="M251 1295q10 94 79 141t164 47t150 -47t55 -141h-82q0 63 -32.5 96t-96.5 33t-106 -33t-49 -96h-82z" />
    <glyph glyph-name="uni0312" unicode="&#x312;" 
d="M398 1371q31 0 48 -15.5t17 -41.5q0 -41 -28 -70t-77 -29q-39 0 -58 22t-19 57q0 50 27 94.5t70.5 77.5t92.5 49l7 -32q-28 -9 -56.5 -30t-49.5 -47t-28 -55q5 8 20 14t34 6z" />
    <glyph glyph-name="uni031B" unicode="&#x31b;" 
d="M330 1063q66 0 105.5 30t61 90.5t31.5 151.5h77q-12 -117 -47.5 -192t-95.5 -110.5t-147 -35.5z" />
    <glyph glyph-name="dotbelowcomb" unicode="&#x323;" 
d="M70 -318q-37 0 -63 21.5t-26 56.5q0 26 13.5 45.5t36.5 30.5t49 11q36 0 62.5 -21.5t26.5 -56.5q0 -26 -14 -46t-36.5 -30.5t-48.5 -10.5z" />
    <glyph glyph-name="uni0324" unicode="&#x324;" 
d="M11 -317q-35 0 -60 20.5t-25 53.5q0 38 28 60.5t65 22.5q35 0 60 -20t25 -54q0 -38 -28 -60.5t-65 -22.5zM369 -317q-35 0 -60 20.5t-25 53.5q0 38 28 60.5t65 22.5q35 0 60 -20t25 -54q0 -38 -28 -60.5t-65 -22.5z" />
    <glyph glyph-name="uni0326" unicode="&#x326;" 
d="M91 -233q-30 0 -49.5 16.5t-19.5 44.5q0 35 26.5 56.5t64.5 21.5q31 0 57 -17.5t26 -58.5q0 -56 -23.5 -107.5t-62.5 -91t-87 -63.5l-14 30q28 14 60 42t55 67t25 84q-6 -10 -22.5 -17t-35.5 -7z" />
    <glyph glyph-name="uni0327" unicode="&#x327;" 
d="M299 -114q45 0 81 -28t36 -88q0 -65 -34 -109t-89 -66.5t-117 -22.5q-36 0 -68 5.5t-54.5 14t-30.5 14.5l37 57q11 -8 43.5 -21t81.5 -13q67 0 116.5 35.5t49.5 101.5q0 36 -20.5 52t-54.5 16q-26 0 -55 -10.5t-46 -28.5l-58 20l93 185h70l-87 -173l-18 7
q11 21 48.5 36.5t75.5 15.5z" />
    <glyph glyph-name="uni0328" unicode="&#x328;" 
d="M272 -342l-7 -70q-18 -4 -44 -6t-49 -2q-71 0 -115.5 35t-44.5 103q0 54 36 106t87.5 97.5t98.5 78.5h75q-31 -25 -68 -58.5t-71 -71t-55.5 -74t-21.5 -68.5q0 -41 24.5 -59.5t70.5 -18.5q20 0 43.5 2.5t40.5 5.5z" />
    <glyph glyph-name="uni032E" unicode="&#x32e;" 
d="M2 -127h82q0 -60 32.5 -94.5t96.5 -34.5q65 0 107 33.5t49 95.5h81q-9 -93 -78.5 -140t-164.5 -47t-150 48t-55 139z" />
    <glyph glyph-name="uni0331" unicode="&#x331;" 
d="M-58 -244l13 60h465l-12 -60h-466z" />
    <glyph glyph-name="uni0335" unicode="&#x335;" 
d="M88 534l15 64h684l-13 -64h-686z" />
    <glyph glyph-name="uni0336" unicode="&#x336;" 
d="M86 534l14 64h975l-14 -64h-975z" />
    <glyph glyph-name="uni0337" unicode="&#x337;" 
d="M996 1055l-896 -1093l-61 47l896 1093z" />
    <glyph glyph-name="uni0338" unicode="&#x338;" 
d="M1357 1495l-1270 -1577l-63 45l1269 1576z" />
    <glyph glyph-name="uni1E08" unicode="&#x1e08;" horiz-adv-x="1265" 
d="M1164 500q-19 -87 -68 -178t-128 -168.5t-184 -125t-236 -47.5q-150 0 -246 67t-141.5 185.5t-45.5 271.5q0 186 50 362t145 317t230.5 224t307.5 83q154 0 248 -63t136.5 -160.5t42.5 -202.5q0 -26 -3 -50.5t-8 -39.5h-124q3 14 6.5 40t3.5 49q0 84 -33.5 155.5
t-103 115.5t-178.5 44q-143 0 -253.5 -76t-186.5 -203t-115 -281.5t-39 -312.5q0 -195 77.5 -304t240.5 -109q96 0 177 36t143.5 96t103.5 132t56 143h125zM598 -128q46 0 81.5 -27.5t35.5 -87.5q0 -65 -34 -109t-88.5 -66.5t-117.5 -22.5q-35 0 -67 5.5t-55 13.5t-31 15
l37 57q11 -8 43.5 -21t82.5 -13q66 0 115.5 35.5t49.5 100.5q0 37 -20.5 53t-54.5 16q-25 0 -54.5 -11t-46.5 -28l-55 20l93 185h64l-86 -173l-9 7q11 20 45 35.5t72 15.5zM765 1548l274 173h141l-291 -173h-124z" />
    <glyph glyph-name="uni1E09" unicode="&#x1e09;" horiz-adv-x="1257" 
d="M591 -129q45 0 81 -28t36 -88q0 -65 -34.5 -109t-89 -66.5t-116.5 -22.5q-36 0 -68 5.5t-54.5 14t-31.5 14.5l38 57q10 -8 42.5 -21t82.5 -13q67 0 116 35.5t49 101.5q0 36 -20 52t-54 16q-26 0 -55.5 -10.5t-45.5 -28.5l-58 20l93 185h69l-86 -173l-19 7
q12 21 49.5 36.5t75.5 15.5zM548 -19q-195 0 -313 115t-118 324q0 140 49.5 259.5t137 209t205.5 139t255 49.5q135 0 225 -50.5t134.5 -127.5t44.5 -158q0 -16 -1 -30t-3 -21h-123q1 6 2 14.5t1 17.5q0 74 -35.5 128t-101.5 84t-159 30q-112 0 -205 -41t-160 -114
t-104 -170.5t-37 -212.5q0 -164 87.5 -248t233.5 -84q121 0 206.5 39t136 101t67.5 129h123q-13 -70 -55.5 -138t-112.5 -123t-165.5 -88t-214.5 -33zM703 1242l229 233h131l-254 -233h-106z" />
    <glyph glyph-name="uni1E0C" unicode="&#x1e0c;" horiz-adv-x="1224" 
d="M39 0l314 1475h332q187 0 298 -69.5t160 -187.5t49 -263q0 -220 -69 -396.5t-185 -301t-260.5 -191t-296.5 -66.5h-342zM174 41l-44 55h251q124 0 245.5 60t220.5 172t158.5 269t59.5 350q0 120 -38.5 217.5t-127.5 156t-242 58.5h-254l68 55zM424 -319q-37 0 -63 21.5
t-26 56.5q0 27 13.5 46.5t36.5 30t49 10.5q36 0 62.5 -21.5t26.5 -56.5q0 -26 -14 -45.5t-36.5 -30.5t-48.5 -11z" />
    <glyph glyph-name="uni1E0D" unicode="&#x1e0d;" horiz-adv-x="1239" 
d="M483 -19q-170 0 -269 109t-99 306q0 138 41.5 261t118 217.5t183.5 148t238 53.5q108 0 192.5 -45t133.5 -124t49 -182q0 -27 -4 -56.5t-9 -46.5l-85 -2q5 17 7.5 38.5t2.5 36.5q0 76 -37.5 137t-102 96t-146.5 35q-109 0 -193.5 -44.5t-142.5 -122t-88.5 -178
t-30.5 -211.5q0 -149 71.5 -229t202.5 -80q99 0 186.5 46t150 122.5t81.5 169.5l98 -2q-27 -126 -107 -229t-195.5 -163.5t-246.5 -60.5zM841 0l332 1563h124l-332 -1563h-124zM553 -318q-37 0 -63 21.5t-26 56.5q0 26 13.5 45.5t36.5 30.5t49 11q36 0 62.5 -21.5
t26.5 -56.5q0 -26 -14 -46t-36.5 -30.5t-48.5 -10.5z" />
    <glyph glyph-name="uni1E0E" unicode="&#x1e0e;" horiz-adv-x="1224" 
d="M39 0l314 1475h332q187 0 298 -69.5t160 -187.5t49 -263q0 -220 -69 -396.5t-185 -301t-260.5 -191t-296.5 -66.5h-342zM174 41l-44 55h251q124 0 245.5 60t220.5 172t158.5 269t59.5 350q0 120 -38.5 217.5t-127.5 156t-242 58.5h-254l68 55zM154 -244l13 60h545
l-12 -60h-546z" />
    <glyph glyph-name="uni1E0F" unicode="&#x1e0f;" horiz-adv-x="1239" 
d="M483 -19q-170 0 -269 109t-99 306q0 138 41.5 261t118 217.5t183.5 148t238 53.5q108 0 192.5 -45t133.5 -124t49 -182q0 -27 -4 -56.5t-9 -46.5l-85 -2q5 17 7.5 38.5t2.5 36.5q0 76 -37.5 137t-102 96t-146.5 35q-109 0 -193.5 -44.5t-142.5 -122t-88.5 -178
t-30.5 -211.5q0 -149 71.5 -229t202.5 -80q99 0 186.5 46t150 122.5t81.5 169.5l98 -2q-27 -126 -107 -229t-195.5 -163.5t-246.5 -60.5zM841 0l332 1563h124l-332 -1563h-124zM324 -244l13 60h465l-12 -60h-466z" />
    <glyph glyph-name="uni1E14" unicode="&#x1e14;" horiz-adv-x="1080" 
d="M398 1366l71 69l-145 -684l-24 44h593l-23 -110h-593l42 44l-146 -689l-42 69h707l-23 -109h-776l314 1475h776l-23 -109h-708zM555 1608l13 60h483l-13 -60h-483zM925 1745h-124l-290 173h140z" />
    <glyph glyph-name="uni1E15" unicode="&#x1e15;" horiz-adv-x="1288" 
d="M184 479l24 111h860l-25 -35q5 21 9 49.5t4 62.5q0 83 -33.5 150.5t-101.5 107.5t-173 40q-113 0 -206.5 -42t-162 -116.5t-106 -173t-37.5 -212.5q0 -97 35.5 -171t108.5 -115t184 -41q93 0 165.5 22.5t124 59.5t83 78.5t43.5 78.5h125q-15 -59 -59.5 -120.5
t-116.5 -114.5t-168.5 -85.5t-214.5 -32.5q-136 0 -232.5 55.5t-147 154t-50.5 227.5q0 139 49.5 258.5t138 210t205.5 141t251 50.5t226.5 -55.5t140.5 -150.5t48 -214q0 -42 -7.5 -92t-17.5 -86h-966zM574 1328l14 60h483l-14 -60h-483zM955 1568h-107l-253 233h130z" />
    <glyph glyph-name="uni1E16" unicode="&#x1e16;" horiz-adv-x="1080" 
d="M398 1366l71 69l-145 -684l-24 44h593l-23 -110h-593l42 44l-146 -689l-42 69h707l-23 -109h-776l314 1475h776l-23 -109h-708zM555 1608l13 60h483l-13 -60h-483zM722 1742l274 173h141l-291 -173h-124z" />
    <glyph glyph-name="uni1E17" unicode="&#x1e17;" horiz-adv-x="1288" 
d="M184 479l24 111h860l-25 -35q5 21 9 49.5t4 62.5q0 83 -33.5 150.5t-101.5 107.5t-173 40q-113 0 -206.5 -42t-162 -116.5t-106 -173t-37.5 -212.5q0 -97 35.5 -171t108.5 -115t184 -41q93 0 165.5 22.5t124 59.5t83 78.5t43.5 78.5h125q-15 -59 -59.5 -120.5
t-116.5 -114.5t-168.5 -85.5t-214.5 -32.5q-136 0 -232.5 55.5t-147 154t-50.5 227.5q0 139 49.5 258.5t138 210t205.5 141t251 50.5t226.5 -55.5t140.5 -150.5t48 -214q0 -42 -7.5 -92t-17.5 -86h-966zM574 1328l14 60h483l-14 -60h-483zM775 1568l229 233h131l-254 -233
h-106z" />
    <glyph glyph-name="uni1E1C" unicode="&#x1e1c;" horiz-adv-x="1080" 
d="M398 1366l71 69l-145 -684l-24 44h593l-23 -110h-593l42 44l-146 -689l-42 69h707l-23 -109h-776l314 1475h776l-23 -109h-708zM511 -114q45 0 81 -28t36 -88q0 -65 -34 -109t-89 -66.5t-117 -22.5q-36 0 -68 5.5t-54.5 14t-30.5 14.5l37 57q11 -8 43.5 -21t81.5 -13
q67 0 116.5 35.5t49.5 101.5q0 36 -20.5 52t-54.5 16q-26 0 -55 -10.5t-46 -28.5l-55 20l93 185h64l-86 -173l-10 7q12 21 46 36.5t72 15.5zM575 1696h83q0 -39 33.5 -71.5t97.5 -32.5t105.5 32t45.5 72h83q-7 -69 -76 -115.5t-164 -46.5t-151.5 46.5t-56.5 115.5z" />
    <glyph glyph-name="uni1E1D" unicode="&#x1e1d;" horiz-adv-x="1285" 
d="M600 -114q46 0 81.5 -28t35.5 -88q0 -65 -34 -109t-88.5 -66.5t-117.5 -22.5q-35 0 -67 5.5t-55 14t-31 14.5l37 57q11 -8 43.5 -21t82.5 -13q66 0 115.5 35.5t49.5 101.5q0 36 -20.5 52t-54.5 16q-25 0 -54.5 -10.5t-46.5 -28.5l-57 20l93 185h69l-86 -173l-19 7
q12 21 49 36.5t75 15.5zM184 479l24 111h860l-25 -35q5 21 9 49.5t4 62.5q0 83 -33.5 150.5t-101.5 107.5t-173 40q-113 0 -206.5 -42t-162 -116.5t-106 -173t-37.5 -212.5q0 -97 35.5 -171t108.5 -115t184 -41q93 0 165.5 22.5t124 59.5t83 78.5t43.5 78.5h125
q-15 -59 -59.5 -120.5t-116.5 -114.5t-168.5 -85.5t-214.5 -32.5q-136 0 -232.5 55.5t-147 154t-50.5 227.5q0 139 49.5 258.5t138 210t205.5 141t251 50.5t226.5 -55.5t140.5 -150.5t48 -214q0 -42 -7.5 -92t-17.5 -86h-966zM611 1475h82q0 -63 32.5 -105t96.5 -42
q65 0 107 42t49 105h81q-9 -94 -78.5 -149.5t-164.5 -55.5q-94 0 -149.5 55.5t-55.5 149.5z" />
    <glyph glyph-name="uni1E20" unicode="&#x1e20;" horiz-adv-x="1331" 
d="M564 -19q-133 0 -234.5 66.5t-158 187.5t-56.5 285q0 186 55 359.5t156.5 311.5t242.5 219t313 81q112 0 189.5 -34.5t125 -92t69.5 -127t22 -138.5q0 -26 -3.5 -59t-8.5 -52h-121q5 18 8 49.5t3 52.5q0 73 -29 139t-95 107.5t-174 41.5q-146 0 -262 -74t-198 -198
t-125 -276.5t-43 -309.5q0 -133 42.5 -228.5t119.5 -147t179 -51.5q126 0 217 47t148.5 113t82.5 122l43 203h-384l22 104h497l-145 -682h-96l32 175q-16 -26 -69 -72.5t-143 -84t-222 -37.5zM656 1608l13 60h483l-13 -60h-483z" />
    <glyph glyph-name="uni1E21" unicode="&#x1e21;" horiz-adv-x="1284" 
d="M458 -450q-77 0 -154 16.5t-141.5 50.5t-103 87.5t-38.5 127.5q0 21 3 39t8 39h124q-4 -18 -6 -31t-2 -26q0 -68 44.5 -112t117 -65.5t154.5 -21.5q98 0 185 33t151.5 113t94.5 220l222 1042h124l-221 -1042q-28 -132 -83 -222.5t-130 -144.5t-164 -78.5t-185 -24.5z
M537 -19q-114 0 -210 47t-153.5 142.5t-57.5 239.5q0 140 47 260.5t132.5 212t200.5 143t250 51.5q109 0 193 -40.5t132 -117t48 -184.5q0 -27 -4.5 -65t-11.5 -62h-82q5 17 8.5 45.5t3.5 47.5q0 81 -37 140.5t-102 91.5t-150 32q-113 0 -205 -42.5t-157.5 -117.5t-101 -174
t-35.5 -212q0 -110 41.5 -182.5t112.5 -108t160 -35.5q98 0 187 43.5t153.5 121.5t86.5 182l87 -5q-30 -144 -109 -245.5t-190 -155t-237 -53.5zM578 1328l14 60h483l-14 -60h-483z" />
    <glyph glyph-name="uni1E24" unicode="&#x1e24;" horiz-adv-x="1254" 
d="M1302 1475l-314 -1475h-124l158 741l44 -61h-813l68 61l-158 -741h-124l314 1475h124l-160 -748l-44 63h814l-68 -63l159 748h124zM458 -319q-37 0 -63 21.5t-26 56.5q0 27 13.5 46.5t36.5 30t49 10.5q36 0 62.5 -21.5t26.5 -56.5q0 -26 -14 -45.5t-36.5 -30.5t-48.5 -11
z" />
    <glyph glyph-name="uni1E25" unicode="&#x1e25;" horiz-adv-x="1219" 
d="M821 0l100 454q16 66 26.5 121.5t16.5 102t6 82.5q0 40 -13 76t-41.5 63.5t-73.5 44t-109 16.5q-101 0 -189 -42t-147.5 -111.5t-78.5 -153.5l-83 24q23 107 102 198t194 146.5t246 55.5q84 0 145.5 -23t100.5 -62.5t57.5 -91t18.5 -109.5q0 -62 -14.5 -143.5
t-42.5 -204.5l-98 -443h-123zM57 0l332 1563h124l-332 -1563h-124zM457 -318q-37 0 -63 21.5t-26 56.5q0 26 13.5 45.5t36.5 30.5t49 11q36 0 62.5 -21.5t26.5 -56.5q0 -26 -14 -46t-36.5 -30.5t-48.5 -10.5z" />
    <glyph glyph-name="uni1E2A" unicode="&#x1e2a;" horiz-adv-x="1254" 
d="M1302 1475l-314 -1475h-124l158 741l44 -61h-813l68 61l-158 -741h-124l314 1475h124l-160 -748l-44 63h814l-68 -63l159 748h124zM261 -127h82q0 -60 32.5 -94.5t96.5 -34.5q65 0 107 33.5t49 95.5h81q-9 -93 -78.5 -140t-164.5 -47t-150 48t-55 139z" />
    <glyph glyph-name="uni1E2B" unicode="&#x1e2b;" horiz-adv-x="1219" 
d="M821 0l100 454q16 66 26.5 121.5t16.5 102t6 82.5q0 40 -13 76t-41.5 63.5t-73.5 44t-109 16.5q-101 0 -189 -42t-147.5 -111.5t-78.5 -153.5l-83 24q23 107 102 198t194 146.5t246 55.5q84 0 145.5 -23t100.5 -62.5t57.5 -91t18.5 -109.5q0 -62 -14.5 -143.5
t-42.5 -204.5l-98 -443h-123zM57 0l332 1563h124l-332 -1563h-124zM245 -127h82q0 -60 32.5 -94.5t96.5 -34.5q65 0 107 33.5t49 95.5h81q-9 -93 -78.5 -140t-164.5 -47t-150 48t-55 139z" />
    <glyph glyph-name="uni1E2E" unicode="&#x1e2e;" horiz-adv-x="456" 
d="M51 0l313 1475h123l-313 -1475h-123zM342 1572q-35 0 -60 21t-25 54q0 37 28 60t65 23q35 0 60 -20.5t25 -54.5q0 -37 -28.5 -60t-64.5 -23zM583 1572q-35 0 -59.5 21t-24.5 54q0 37 28 60t65 23q34 0 59.5 -20.5t25.5 -54.5q0 -37 -28.5 -60t-65.5 -23zM394 1793
l274 173h141l-291 -173h-124z" />
    <glyph glyph-name="uni1E2F" unicode="&#x1e2f;" horiz-adv-x="483" 
d="M66 0l225 1062h123l-225 -1062h-123zM306 1332q-35 0 -60 20.5t-25 53.5q0 38 28 60.5t65 22.5q35 0 60 -20t25 -54q0 -38 -28 -60.5t-65 -22.5zM548 1332q-35 0 -60 20.5t-25 53.5q0 38 28 60.5t65 22.5q35 0 60 -20t25 -54q0 -38 -28 -60.5t-65 -22.5zM385 1669
l229 233h131l-254 -233h-106z" />
    <glyph glyph-name="uni1E36" unicode="&#x1e36;" horiz-adv-x="965" 
d="M40 0l313 1475h124l-305 -1435l-41 69h650l-24 -109h-717zM371 -319q-37 0 -63 21.5t-26 56.5q0 27 13.5 46.5t36.5 30t49 10.5q36 0 62.5 -21.5t26.5 -56.5q0 -26 -14 -45.5t-36.5 -30.5t-48.5 -11z" />
    <glyph glyph-name="uni1E37" unicode="&#x1e37;" horiz-adv-x="479" 
d="M527 1563l-332 -1563h-123l332 1563h123zM76 -318q-37 0 -63 21.5t-26 56.5q0 26 13.5 45.5t36.5 30.5t49 11q36 0 62.5 -21.5t26.5 -56.5q0 -26 -14 -46t-36.5 -30.5t-48.5 -10.5z" />
    <glyph glyph-name="uni1E3A" unicode="&#x1e3a;" horiz-adv-x="965" 
d="M40 0l313 1475h124l-305 -1435l-41 69h650l-24 -109h-717zM102 -244l13 60h545l-12 -60h-546z" />
    <glyph glyph-name="uni1E3B" unicode="&#x1e3b;" horiz-adv-x="479" 
d="M527 1563l-332 -1563h-123l332 1563h123zM-152 -244l13 60h465l-12 -60h-466z" />
    <glyph glyph-name="uni1E42" unicode="&#x1e42;" horiz-adv-x="1569" 
d="M1380 1475h216l-314 -1475h-118l291 1370l4 -2l-698 -1368h-180l-117 1370l5 1l-292 -1371h-118l314 1475h208l107 -1380h-4zM653 -319q-37 0 -63 21.5t-26 56.5q0 27 13.5 46.5t36.5 30t49 10.5q36 0 62.5 -21.5t26.5 -56.5q0 -26 -14 -45.5t-36.5 -30.5t-48.5 -11z" />
    <glyph glyph-name="uni1E43" unicode="&#x1e43;" horiz-adv-x="1753" 
d="M707 0l114 530q22 98 33 160.5t11 99.5q0 43 -15 81.5t-54.5 63.5t-112.5 25q-85 0 -149.5 -33.5t-110 -86.5t-73.5 -113t-39 -113l-68 30q25 114 92 213t166 159.5t221 60.5q94 0 154 -30.5t89 -87t29 -133.5q0 -31 -6.5 -74.5t-18 -101t-28.5 -131.5l-111 -519h-123z
M57 0l226 1062h124l-226 -1062h-124zM1355 0l118 529q17 79 25.5 128t11.5 80.5t3 56.5q0 42 -14.5 79.5t-55 62t-117.5 24.5q-85 0 -149 -33t-108 -84.5t-69.5 -108t-35.5 -102.5l-68 27q23 108 87.5 203.5t162 155t220.5 59.5q91 0 153 -29.5t93 -85t31 -135.5
q0 -34 -5 -75.5t-15.5 -96t-26.5 -129.5l-118 -526h-123zM717 -318q-37 0 -63 21.5t-26 56.5q0 26 13.5 45.5t36.5 30.5t49 11q36 0 62.5 -21.5t26.5 -56.5q0 -26 -14 -46t-36.5 -30.5t-48.5 -10.5z" />
    <glyph glyph-name="uni1E44" unicode="&#x1e44;" horiz-adv-x="1306" 
d="M160 0h-121l314 1475h202l390 -1403l-11 -6l300 1409h121l-314 -1475h-205l-388 1401l11 6zM907 1574q-38 0 -66 22.5t-28 59.5q0 38 28 60.5t66 22.5t66 -22.5t28 -60.5q0 -37 -28 -59.5t-66 -22.5z" />
    <glyph glyph-name="uni1E45" unicode="&#x1e45;" horiz-adv-x="1217" 
d="M821 0l122 567q16 76 23.5 120.5t7.5 81.5q0 89 -62 140t-183 51q-89 0 -177.5 -44.5t-153.5 -120.5t-85 -171l-74 28q20 92 73.5 169.5t129 134.5t162 89t172.5 32q151 0 240 -70t89 -199q0 -49 -11 -110.5t-29 -140.5l-121 -557h-123zM57 0l226 1062h124l-226 -1062
h-124zM827 1330q-36 0 -62.5 21.5t-26.5 56.5q0 26 14 45.5t36.5 30.5t48.5 11q37 0 63 -21.5t26 -56.5q0 -26 -13.5 -46t-36 -30.5t-49.5 -10.5z" />
    <glyph glyph-name="uni1E46" unicode="&#x1e46;" horiz-adv-x="1306" 
d="M160 0h-121l314 1475h202l390 -1403l-11 -6l300 1409h121l-314 -1475h-205l-388 1401l11 6zM502 -319q-37 0 -63 21.5t-26 56.5q0 27 13.5 46.5t36.5 30t49 10.5q36 0 62.5 -21.5t26.5 -56.5q0 -26 -14 -45.5t-36.5 -30.5t-48.5 -11z" />
    <glyph glyph-name="uni1E47" unicode="&#x1e47;" horiz-adv-x="1217" 
d="M821 0l122 567q16 76 23.5 120.5t7.5 81.5q0 89 -62 140t-183 51q-89 0 -177.5 -44.5t-153.5 -120.5t-85 -171l-74 28q20 92 73.5 169.5t129 134.5t162 89t172.5 32q151 0 240 -70t89 -199q0 -49 -11 -110.5t-29 -140.5l-121 -557h-123zM57 0l226 1062h124l-226 -1062
h-124zM446 -318q-37 0 -63 21.5t-26 56.5q0 26 13.5 45.5t36.5 30.5t49 11q36 0 62.5 -21.5t26.5 -56.5q0 -26 -14 -46t-36.5 -30.5t-48.5 -10.5z" />
    <glyph glyph-name="uni1E48" unicode="&#x1e48;" horiz-adv-x="1306" 
d="M160 0h-121l314 1475h202l390 -1403l-11 -6l300 1409h121l-314 -1475h-205l-388 1401l11 6zM233 -244l13 60h545l-12 -60h-546z" />
    <glyph glyph-name="uni1E49" unicode="&#x1e49;" horiz-adv-x="1217" 
d="M821 0l122 567q16 76 23.5 120.5t7.5 81.5q0 89 -62 140t-183 51q-89 0 -177.5 -44.5t-153.5 -120.5t-85 -171l-74 28q20 92 73.5 169.5t129 134.5t162 89t172.5 32q151 0 240 -70t89 -199q0 -49 -11 -110.5t-29 -140.5l-121 -557h-123zM57 0l226 1062h124l-226 -1062
h-124zM217 -244l13 60h465l-12 -60h-466z" />
    <glyph glyph-name="uni1E4C" unicode="&#x1e4c;" horiz-adv-x="1386" 
d="M1197 1689q-5 -28 -24 -63t-54.5 -61t-89.5 -26q-42 0 -71.5 17t-51.5 35q-19 15 -41 28t-51 13q-39 0 -55 -22.5t-20 -45.5h-94q5 31 27 66.5t60 61t91 25.5q43 0 70 -16t47 -33t43 -31t49 -14q38 0 52.5 21t19.5 45h93zM849 1781l249 160h147l-259 -160h-137zM586 -20
q-145 0 -253 65t-167.5 189.5t-59.5 301.5q0 186 55.5 358t158 307t245.5 213.5t318 78.5q146 0 254 -64t167 -187t59 -300q0 -186 -55.5 -358.5t-158.5 -308.5t-245.5 -215.5t-317.5 -79.5zM605 134q140 0 249 70.5t184 187.5t114.5 260.5t39.5 288.5q0 134 -41.5 222
t-115.5 131.5t-174 43.5q-139 0 -248 -70t-184 -186t-114 -258.5t-39 -288.5q0 -202 90.5 -301.5t238.5 -99.5z" />
    <glyph glyph-name="uni1E4D" unicode="&#x1e4d;" horiz-adv-x="1308" 
d="M554 -19q-136 0 -234 54.5t-151 151.5t-53 226q0 140 48.5 261t135 211.5t203 141t252.5 50.5q137 0 234.5 -56t149.5 -152.5t52 -218.5q0 -148 -49.5 -270.5t-136.5 -211.5t-202.5 -138t-248.5 -49zM563 92q141 0 254.5 68.5t180.5 191t67 285.5q0 100 -37 173.5
t-107.5 114.5t-173.5 41q-110 0 -202.5 -41.5t-160 -115.5t-105 -172t-37.5 -212q0 -154 83.5 -243.5t237.5 -89.5zM1106 1449q-4 -24 -21.5 -56.5t-51.5 -57t-88 -24.5q-43 0 -73 17.5t-53 37.5q-19 16 -41.5 30t-54.5 14q-44 0 -62 -24t-22 -47h-79q5 28 26 60.5
t57.5 56.5t87.5 24q44 0 71 -16.5t49 -35.5q21 -19 45 -33t53 -14q45 0 60 23t20 45h77zM767 1550l274 173h141l-291 -173h-124z" />
    <glyph glyph-name="uni1E4E" unicode="&#x1e4e;" horiz-adv-x="1367" 
d="M575 -19q-140 0 -243 64.5t-159 186t-56 292.5q0 185 54 358.5t153.5 311t239.5 217.5t312 80q141 0 244 -63t158.5 -183t55.5 -291q0 -186 -54 -360t-154 -312.5t-239.5 -219.5t-311.5 -81zM588 93q146 0 261 74.5t195.5 199t123 277t42.5 307.5q0 139 -43 234
t-120.5 144.5t-185.5 49.5q-145 0 -260 -74.5t-195.5 -197.5t-122.5 -274.5t-42 -307.5q0 -209 93.5 -320.5t253.5 -111.5zM1185 1682q-4 -25 -21.5 -57t-51.5 -57t-88 -25q-43 0 -73 18t-53 37q-19 17 -42 30.5t-55 13.5q-43 0 -61 -23.5t-23 -47.5h-78q5 28 25.5 61t57 57
t88.5 24q44 0 71 -17t48 -36q22 -18 46 -32.5t53 -14.5q44 0 59.5 23.5t19.5 45.5h78zM787 1801q-35 0 -60 21t-25 54q0 37 28 60t65 23q35 0 60 -20.5t25 -54.5q0 -37 -28 -60t-65 -23zM1145 1801q-35 0 -60 21t-25 54q0 37 28 60t65 23q35 0 60 -20.5t25 -54.5
q0 -37 -28 -60t-65 -23z" />
    <glyph glyph-name="uni1E4F" unicode="&#x1e4f;" horiz-adv-x="1308" 
d="M554 -19q-136 0 -234 54.5t-151 151.5t-53 226q0 140 48.5 261t135 211.5t203 141t252.5 50.5q137 0 234.5 -56t149.5 -152.5t52 -218.5q0 -148 -49.5 -270.5t-136.5 -211.5t-202.5 -138t-248.5 -49zM563 92q141 0 254.5 68.5t180.5 191t67 285.5q0 100 -37 173.5
t-107.5 114.5t-173.5 41q-110 0 -202.5 -41.5t-160 -115.5t-105 -172t-37.5 -212q0 -154 83.5 -243.5t237.5 -89.5zM1106 1449q-4 -24 -21.5 -56.5t-51.5 -57t-88 -24.5q-43 0 -73 17.5t-53 37.5q-19 16 -41.5 30t-54.5 14q-44 0 -62 -24t-22 -47h-79q5 28 26 60.5
t57.5 56.5t87.5 24q44 0 71 -16.5t49 -35.5q21 -19 45 -33t53 -14q45 0 60 23t20 45h77zM710 1569q-35 0 -60 21t-25 54q0 37 28 60t65 23q35 0 60 -20.5t25 -54.5q0 -37 -28 -60t-65 -23zM1068 1569q-35 0 -60 21t-25 54q0 37 28 60t65 23q35 0 60 -20.5t25 -54.5
q0 -37 -28 -60t-65 -23z" />
    <glyph glyph-name="uni1E50" unicode="&#x1e50;" horiz-adv-x="1367" 
d="M575 -19q-140 0 -243 64.5t-159 186t-56 292.5q0 185 54 358.5t153.5 311t239.5 217.5t312 80q141 0 244 -63t158.5 -183t55.5 -291q0 -186 -54 -360t-154 -312.5t-239.5 -219.5t-311.5 -81zM588 93q146 0 261 74.5t195.5 199t123 277t42.5 307.5q0 139 -43 234
t-120.5 144.5t-185.5 49.5q-145 0 -260 -74.5t-195.5 -197.5t-122.5 -274.5t-42 -307.5q0 -209 93.5 -320.5t253.5 -111.5zM669 1608l13 60h483l-13 -60h-483zM1039 1745h-124l-290 173h140z" />
    <glyph glyph-name="uni1E51" unicode="&#x1e51;" horiz-adv-x="1308" 
d="M554 -19q-136 0 -234 54.5t-151 151.5t-53 226q0 140 48.5 261t135 211.5t203 141t252.5 50.5q137 0 234.5 -56t149.5 -152.5t52 -218.5q0 -148 -49.5 -270.5t-136.5 -211.5t-202.5 -138t-248.5 -49zM563 92q141 0 254.5 68.5t180.5 191t67 285.5q0 100 -37 173.5
t-107.5 114.5t-173.5 41q-110 0 -202.5 -41.5t-160 -115.5t-105 -172t-37.5 -212q0 -154 83.5 -243.5t237.5 -89.5zM579 1328l14 60h483l-14 -60h-483zM960 1568h-107l-253 233h130z" />
    <glyph glyph-name="uni1E52" unicode="&#x1e52;" horiz-adv-x="1367" 
d="M575 -19q-140 0 -243 64.5t-159 186t-56 292.5q0 185 54 358.5t153.5 311t239.5 217.5t312 80q141 0 244 -63t158.5 -183t55.5 -291q0 -186 -54 -360t-154 -312.5t-239.5 -219.5t-311.5 -81zM588 93q146 0 261 74.5t195.5 199t123 277t42.5 307.5q0 139 -43 234
t-120.5 144.5t-185.5 49.5q-145 0 -260 -74.5t-195.5 -197.5t-122.5 -274.5t-42 -307.5q0 -209 93.5 -320.5t253.5 -111.5zM669 1608l13 60h483l-13 -60h-483zM837 1742l274 173h141l-291 -173h-124z" />
    <glyph glyph-name="uni1E53" unicode="&#x1e53;" horiz-adv-x="1308" 
d="M554 -19q-136 0 -234 54.5t-151 151.5t-53 226q0 140 48.5 261t135 211.5t203 141t252.5 50.5q137 0 234.5 -56t149.5 -152.5t52 -218.5q0 -148 -49.5 -270.5t-136.5 -211.5t-202.5 -138t-248.5 -49zM563 92q141 0 254.5 68.5t180.5 191t67 285.5q0 100 -37 173.5
t-107.5 114.5t-173.5 41q-110 0 -202.5 -41.5t-160 -115.5t-105 -172t-37.5 -212q0 -154 83.5 -243.5t237.5 -89.5zM579 1328l14 60h483l-14 -60h-483zM780 1568l229 233h131l-254 -233h-106z" />
    <glyph glyph-name="uni1E5A" unicode="&#x1e5a;" horiz-adv-x="1172" 
d="M39 0l314 1475h472q171 0 253.5 -77.5t82.5 -208.5q0 -78 -25 -159t-71.5 -150.5t-110.5 -115.5t-140 -54q45 -4 84.5 -22.5t65 -56.5t25.5 -100q0 -26 -9 -75t-22.5 -109t-27 -120.5t-23 -110.5t-9.5 -77q0 -14 1.5 -24.5t3.5 -14.5h-125q-4 11 -4 36t9 72t22 104
t25.5 114t21.5 104.5t9 71.5q0 81 -58 116t-158 35h-400l64 44l-148 -697h-122zM314 720l-48 43h403q102 0 183.5 54t129.5 143t48 192q0 99 -57 156.5t-185 57.5h-390l68 68zM406 -319q-37 0 -63 21.5t-26 56.5q0 27 13.5 46.5t36.5 30t49 10.5q36 0 62.5 -21.5t26.5 -56.5
q0 -26 -14 -45.5t-36.5 -30.5t-48.5 -11z" />
    <glyph glyph-name="uni1E5B" unicode="&#x1e5b;" horiz-adv-x="790" 
d="M58 0l225 1062h124l-66 -313l-47 14q17 50 52 104.5t88 102.5t123.5 77.5t158.5 29.5q63 0 101.5 -11t46.5 -17l-59 -120q-9 7 -37.5 18t-86.5 11q-84 0 -148 -32.5t-109 -84.5t-72.5 -111t-38.5 -112l-132 -618h-123zM65 -318q-37 0 -63 21.5t-26 56.5q0 26 13.5 45.5
t36.5 30.5t49 11q36 0 62.5 -21.5t26.5 -56.5q0 -26 -14 -46t-36.5 -30.5t-48.5 -10.5z" />
    <glyph glyph-name="uni1E5E" unicode="&#x1e5e;" horiz-adv-x="1172" 
d="M39 0l314 1475h472q171 0 253.5 -77.5t82.5 -208.5q0 -78 -25 -159t-71.5 -150.5t-110.5 -115.5t-140 -54q45 -4 84.5 -22.5t65 -56.5t25.5 -100q0 -26 -9 -75t-22.5 -109t-27 -120.5t-23 -110.5t-9.5 -77q0 -14 1.5 -24.5t3.5 -14.5h-125q-4 11 -4 36t9 72t22 104
t25.5 114t21.5 104.5t9 71.5q0 81 -58 116t-158 35h-400l64 44l-148 -697h-122zM314 720l-48 43h403q102 0 183.5 54t129.5 143t48 192q0 99 -57 156.5t-185 57.5h-390l68 68zM136 -244l13 60h545l-12 -60h-546z" />
    <glyph glyph-name="uni1E5F" unicode="&#x1e5f;" horiz-adv-x="790" 
d="M58 0l225 1062h124l-66 -313l-47 14q17 50 52 104.5t88 102.5t123.5 77.5t158.5 29.5q63 0 101.5 -11t46.5 -17l-59 -120q-9 7 -37.5 18t-86.5 11q-84 0 -148 -32.5t-109 -84.5t-72.5 -111t-38.5 -112l-132 -618h-123zM-164 -244l13 60h465l-12 -60h-466z" />
    <glyph glyph-name="uni1E60" unicode="&#x1e60;" horiz-adv-x="1123" 
d="M452 -19q-124 0 -214 35t-137.5 104.5t-47.5 172.5q0 49 7.5 92t21.5 101h124q-14 -58 -20 -96.5t-6 -77.5q0 -116 72 -167.5t210 -51.5q119 0 211.5 35.5t145.5 106.5t53 179q0 102 -78 167t-214 111q-105 37 -185 87t-125 120t-45 164q0 104 39.5 183.5t110.5 134
t165 82.5t205 28q123 0 212.5 -33.5t137.5 -100t48 -167.5q0 -44 -7 -89.5t-19 -99.5h-125q13 54 19 93.5t6 77.5q0 113 -74 160t-210 47q-111 0 -198 -31.5t-136.5 -96.5t-49.5 -166q0 -114 84.5 -179t225.5 -115q107 -37 182 -86.5t115 -115.5t40 -155q0 -144 -71 -245.5
t-194 -154.5t-279 -53zM785 1574q-38 0 -66 22.5t-28 59.5q0 38 28 60.5t66 22.5t66 -22.5t28 -60.5q0 -37 -28 -59.5t-66 -22.5z" />
    <glyph glyph-name="uni1E61" unicode="&#x1e61;" horiz-adv-x="1119" 
d="M451 -19q-87 0 -157.5 17.5t-121 49.5t-78 78t-27.5 103q0 22 4 47t8 40h125q-4 -12 -6.5 -31t-2.5 -33q0 -76 70.5 -117.5t201.5 -41.5q88 0 168.5 21.5t132 68.5t51.5 124t-67 113.5t-210 60.5q-99 16 -178 46.5t-125 82.5t-46 133q0 84 39.5 146.5t106.5 104.5
t151.5 62.5t173.5 20.5q100 0 183 -29t132.5 -84.5t49.5 -134.5q0 -25 -3 -46t-7 -37h-124q4 14 6 27.5t2 32.5q0 57 -35 92t-91.5 51.5t-124.5 16.5q-84 0 -160.5 -22t-125.5 -67t-49 -114q0 -80 73 -116.5t200 -61.5q77 -15 142 -34.5t112 -49t73 -72t26 -103.5
q0 -91 -41 -156.5t-111 -107t-158 -61.5t-182 -20zM734 1330q-36 0 -62.5 21.5t-26.5 56.5q0 26 14 45.5t36.5 30.5t48.5 11q37 0 63 -21.5t26 -56.5q0 -26 -13.5 -46t-36 -30.5t-49.5 -10.5z" />
    </font>
</defs>
</svg>
