<svg width="37" height="38" viewBox="0 0 37 38" fill="none" xmlns="http://www.w3.org/2000/svg">
<g opacity="0.25">
<path fill-rule="evenodd" clip-rule="evenodd" d="M18.5 36.3232C28.165 36.3232 36 28.4882 36 18.8232C36 9.15826 28.165 1.32324 18.5 1.32324C8.83502 1.32324 1 9.15826 1 18.8232C1 28.4882 8.83502 36.3232 18.5 36.3232Z" stroke="black" stroke-width="1.5"/>
<path fill-rule="evenodd" clip-rule="evenodd" d="M18.5 36.3232C28.165 36.3232 36 28.4882 36 18.8232C36 9.15826 28.165 1.32324 18.5 1.32324C8.83502 1.32324 1 9.15826 1 18.8232C1 28.4882 8.83502 36.3232 18.5 36.3232Z" stroke="black" stroke-opacity="0.2" stroke-width="1.5"/>
</g>
<path d="M20.0932 14.344H21.7016C21.8495 14.344 21.9696 14.2309 21.9696 14.0914V12.5758C21.9696 12.4364 21.8495 12.3232 21.7016 12.3232H20.0932C18.4677 12.3232 17.1445 13.5696 17.1445 15.1018V16.87H15.2681C15.1201 16.87 15 16.9832 15 17.1226V18.6382C15 18.7776 15.1201 18.8908 15.2681 18.8908H17.1445V24.1953C17.1445 24.3348 17.2646 24.4479 17.4126 24.4479H19.0209C19.1689 24.4479 19.289 24.3348 19.289 24.1953V18.8908H21.1655C21.2807 18.8908 21.3831 18.8211 21.4201 18.718L21.9562 17.2024C21.9836 17.1256 21.9696 17.0408 21.9192 16.9746C21.8683 16.9089 21.7879 16.87 21.7016 16.87H19.289V15.1018C19.289 14.684 19.6498 14.344 20.0932 14.344Z" fill="black"/>
<path d="M20.0932 14.344H21.7016C21.8495 14.344 21.9696 14.2309 21.9696 14.0914V12.5758C21.9696 12.4364 21.8495 12.3232 21.7016 12.3232H20.0932C18.4677 12.3232 17.1445 13.5696 17.1445 15.1018V16.87H15.2681C15.1201 16.87 15 16.9832 15 17.1226V18.6382C15 18.7776 15.1201 18.8908 15.2681 18.8908H17.1445V24.1953C17.1445 24.3348 17.2646 24.4479 17.4126 24.4479H19.0209C19.1689 24.4479 19.289 24.3348 19.289 24.1953V18.8908H21.1655C21.2807 18.8908 21.3831 18.8211 21.4201 18.718L21.9562 17.2024C21.9836 17.1256 21.9696 17.0408 21.9192 16.9746C21.8683 16.9089 21.7879 16.87 21.7016 16.87H19.289V15.1018C19.289 14.684 19.6498 14.344 20.0932 14.344Z" fill="black" fill-opacity="0.2"/>
</svg>
