<svg width="120" height="20" viewBox="0 0 120 20" fill="none" xmlns="http://www.w3.org/2000/svg">
<g clip-path="url(#clip0_506_42)">
<path d="M0 18.6843V1.36523H3.53988V8.31769H5.14571C9.08589 8.31769 10.9693 4.87904 10.9693 1.36523H14.6595C14.6595 5.10603 13.0031 8.01707 10.2423 9.74867C13.3298 11.3545 15.2377 14.5186 15.2377 18.6843H11.4724C11.4724 14.5922 9.2638 11.6306 5.42331 11.6306H3.53988V18.6843H0Z" fill="#010101"/>
<path d="M23.0169 18.6843V1.36523H26.6565L34.2869 13.0125V1.36523H37.8007V18.6843H34.1105L26.5292 7.16278V18.6843H23.0154H23.0169Z" fill="#010101"/>
<path d="M63.3084 10.0005C63.3084 15.0956 59.1918 19.163 54.1458 19.163C49.0998 19.163 45.0093 15.0971 45.0093 10.0005C45.0093 4.90384 49.1013 0.837891 54.1719 0.837891C59.2424 0.837891 63.3084 4.90384 63.3084 10.0005ZM59.7194 10.0005C59.7194 6.73666 57.1596 4.15231 54.1473 4.15231C51.135 4.15231 48.5998 6.7382 48.5998 10.0005C48.5998 13.2627 51.1596 15.8241 54.1473 15.8241C57.135 15.8241 59.7194 13.2643 59.7194 10.0005Z" fill="#010101"/>
<path d="M73.2146 18.6843V4.6275H68.4202V1.36523H81.5735V4.6275H76.7284V18.6843H73.2146Z" fill="#010101"/>
<path d="M88.8728 18.6843V1.36523H100.745V4.75327H92.3866V8.468H99.8161V11.5309H92.3866V15.2962H100.997V18.6843H88.8728Z" fill="#010101"/>
<path d="M120 18.7318H117.991C115.132 18.7318 112.747 17.5539 111.093 15.3238C109.719 13.471 108.962 10.9833 108.955 8.3146C108.945 8.00479 108.876 5.58761 108.955 1.33301L112.462 1.39896C112.379 5.76399 112.462 8.19957 112.462 8.22411V8.28393C112.462 13.4066 115.442 15.2256 117.991 15.2256H120V18.7318Z" fill="#010101"/>
</g>
<defs>
<clipPath id="clip0_506_42">
<rect width="120" height="18.3236" fill="white" transform="translate(0 0.837891)"/>
</clipPath>
</defs>
</svg>
