<svg width="6" height="14" viewBox="0 0 6 14" fill="none" xmlns="http://www.w3.org/2000/svg">
<path d="M3.00009 1C3.2653 1 3.51966 1.10536 3.70719 1.29289C3.89473 1.48043 4.00009 1.73478 4.00009 2C4.00009 2.26522 3.89473 2.51957 3.70719 2.70711C3.51966 2.89464 3.2653 3 3.00009 3C2.73487 3 2.48052 2.89464 2.29298 2.70711C2.10544 2.51957 2.00009 2.26522 2.00009 2C2.00009 1.73478 2.10544 1.48043 2.29298 1.29289C2.48052 1.10536 2.73487 1 3.00009 1ZM3.00009 0C2.46965 0 1.96095 0.210714 1.58587 0.585786C1.2108 0.960859 1.00009 1.46957 1.00009 2C1.00009 2.53043 1.2108 3.03914 1.58587 3.41421C1.96095 3.78929 2.46965 4 3.00009 4C3.53052 4 4.03923 3.78929 4.4143 3.41421C4.78937 3.03914 5.00009 2.53043 5.00009 2C5.00009 1.46957 4.78937 0.960859 4.4143 0.585786C4.03923 0.210714 3.53052 0 3.00009 0ZM4.23009 4.49H1.77009C1.30065 4.49 0.850448 4.67648 0.518508 5.00842C0.186569 5.34036 8.71287e-05 5.79057 8.71287e-05 6.26V8.9C-0.0108406 9.17788 0.087868 9.44892 0.274932 9.65469C0.461996 9.86046 0.722431 9.98447 1.00009 10V12.33C1.00009 12.6483 1.12652 12.9535 1.35156 13.1785C1.5766 13.4036 1.88183 13.53 2.20009 13.53H3.80009C3.9611 13.5301 4.12048 13.4978 4.26874 13.435C4.417 13.3722 4.55111 13.2802 4.66308 13.1645C4.77505 13.0488 4.86259 12.9118 4.92048 12.7615C4.97838 12.6113 5.00545 12.4509 5.00009 12.29V10C5.27774 9.98447 5.53818 9.86046 5.72524 9.65469C5.91231 9.44892 6.01101 9.17788 6.00009 8.9V6.26C6.00009 5.79057 5.81361 5.34036 5.48167 5.00842C5.14973 4.67648 4.69952 4.49 4.23009 4.49ZM1.00009 9V6.26C0.998743 6.15851 1.01774 6.05778 1.05596 5.96375C1.09418 5.86972 1.15085 5.7843 1.22262 5.71253C1.29439 5.64076 1.37981 5.58409 1.47384 5.54587C1.56787 5.50765 1.6686 5.48866 1.77009 5.49H4.23009C4.33158 5.48866 4.43231 5.50765 4.52634 5.54587C4.62036 5.58409 4.70578 5.64076 4.77755 5.71253C4.84933 5.7843 4.90599 5.86972 4.94421 5.96375C4.98243 6.05778 5.00143 6.15851 5.00009 6.26V9H4.00009V12.31C4.00009 12.363 3.97902 12.4139 3.94151 12.4514C3.904 12.4889 3.85313 12.51 3.80009 12.51H2.20009C2.14704 12.51 2.09617 12.4889 2.05867 12.4514C2.02116 12.4139 2.00009 12.363 2.00009 12.31V9H1.00009Z" fill="black"/>
<path d="M3.00009 1C3.2653 1 3.51966 1.10536 3.70719 1.29289C3.89473 1.48043 4.00009 1.73478 4.00009 2C4.00009 2.26522 3.89473 2.51957 3.70719 2.70711C3.51966 2.89464 3.2653 3 3.00009 3C2.73487 3 2.48052 2.89464 2.29298 2.70711C2.10544 2.51957 2.00009 2.26522 2.00009 2C2.00009 1.73478 2.10544 1.48043 2.29298 1.29289C2.48052 1.10536 2.73487 1 3.00009 1ZM3.00009 0C2.46965 0 1.96095 0.210714 1.58587 0.585786C1.2108 0.960859 1.00009 1.46957 1.00009 2C1.00009 2.53043 1.2108 3.03914 1.58587 3.41421C1.96095 3.78929 2.46965 4 3.00009 4C3.53052 4 4.03923 3.78929 4.4143 3.41421C4.78937 3.03914 5.00009 2.53043 5.00009 2C5.00009 1.46957 4.78937 0.960859 4.4143 0.585786C4.03923 0.210714 3.53052 0 3.00009 0ZM4.23009 4.49H1.77009C1.30065 4.49 0.850448 4.67648 0.518508 5.00842C0.186569 5.34036 8.71287e-05 5.79057 8.71287e-05 6.26V8.9C-0.0108406 9.17788 0.087868 9.44892 0.274932 9.65469C0.461996 9.86046 0.722431 9.98447 1.00009 10V12.33C1.00009 12.6483 1.12652 12.9535 1.35156 13.1785C1.5766 13.4036 1.88183 13.53 2.20009 13.53H3.80009C3.9611 13.5301 4.12048 13.4978 4.26874 13.435C4.417 13.3722 4.55111 13.2802 4.66308 13.1645C4.77505 13.0488 4.86259 12.9118 4.92048 12.7615C4.97838 12.6113 5.00545 12.4509 5.00009 12.29V10C5.27774 9.98447 5.53818 9.86046 5.72524 9.65469C5.91231 9.44892 6.01101 9.17788 6.00009 8.9V6.26C6.00009 5.79057 5.81361 5.34036 5.48167 5.00842C5.14973 4.67648 4.69952 4.49 4.23009 4.49ZM1.00009 9V6.26C0.998743 6.15851 1.01774 6.05778 1.05596 5.96375C1.09418 5.86972 1.15085 5.7843 1.22262 5.71253C1.29439 5.64076 1.37981 5.58409 1.47384 5.54587C1.56787 5.50765 1.6686 5.48866 1.77009 5.49H4.23009C4.33158 5.48866 4.43231 5.50765 4.52634 5.54587C4.62036 5.58409 4.70578 5.64076 4.77755 5.71253C4.84933 5.7843 4.90599 5.86972 4.94421 5.96375C4.98243 6.05778 5.00143 6.15851 5.00009 6.26V9H4.00009V12.31C4.00009 12.363 3.97902 12.4139 3.94151 12.4514C3.904 12.4889 3.85313 12.51 3.80009 12.51H2.20009C2.14704 12.51 2.09617 12.4889 2.05867 12.4514C2.02116 12.4139 2.00009 12.363 2.00009 12.31V9H1.00009Z" fill="black" fill-opacity="0.2"/>
</svg>
