<svg width="16" height="16" viewBox="0 0 16 16" fill="none" xmlns="http://www.w3.org/2000/svg">
<g clip-path="url(#clip0_109_20392)">
<path d="M14.2221 6.66634H9.95989L14.071 2.55523C14.1438 2.47021 14.1819 2.36084 14.1775 2.24898C14.1732 2.13713 14.1269 2.03102 14.0477 1.95187C13.9685 1.87272 13.8624 1.82635 13.7506 1.82203C13.6387 1.8177 13.5294 1.85575 13.4443 1.92856L9.33322 6.03967V1.77745C9.33322 1.65958 9.2864 1.54653 9.20305 1.46318C9.1197 1.37983 9.00665 1.33301 8.88878 1.33301C8.77091 1.33301 8.65786 1.37983 8.57451 1.46318C8.49116 1.54653 8.44434 1.65958 8.44434 1.77745V7.55523H14.2221C14.34 7.55523 14.453 7.50841 14.5364 7.42506C14.6197 7.34171 14.6666 7.22866 14.6666 7.11079C14.6666 6.99291 14.6197 6.87987 14.5364 6.79652C14.453 6.71317 14.34 6.66634 14.2221 6.66634Z" fill="black"/>
<path d="M14.2221 6.66634H9.95989L14.071 2.55523C14.1438 2.47021 14.1819 2.36084 14.1775 2.24898C14.1732 2.13713 14.1269 2.03102 14.0477 1.95187C13.9685 1.87272 13.8624 1.82635 13.7506 1.82203C13.6387 1.8177 13.5294 1.85575 13.4443 1.92856L9.33322 6.03967V1.77745C9.33322 1.65958 9.2864 1.54653 9.20305 1.46318C9.1197 1.37983 9.00665 1.33301 8.88878 1.33301C8.77091 1.33301 8.65786 1.37983 8.57451 1.46318C8.49116 1.54653 8.44434 1.65958 8.44434 1.77745V7.55523H14.2221C14.34 7.55523 14.453 7.50841 14.5364 7.42506C14.6197 7.34171 14.6666 7.22866 14.6666 7.11079C14.6666 6.99291 14.6197 6.87987 14.5364 6.79652C14.453 6.71317 14.34 6.66634 14.2221 6.66634Z" fill="black" fill-opacity="0.2"/>
<path d="M1.7777 8.44434C1.65982 8.44434 1.54678 8.49116 1.46343 8.57451C1.38008 8.65786 1.33325 8.77091 1.33325 8.88878C1.33325 9.00665 1.38008 9.1197 1.46343 9.20305C1.54678 9.2864 1.65982 9.33322 1.7777 9.33322H6.03992L1.92436 13.4443C1.87784 13.4842 1.84005 13.5332 1.81337 13.5883C1.7867 13.6435 1.77171 13.7035 1.76934 13.7648C1.76698 13.826 1.77729 13.887 1.79964 13.944C1.82198 14.0011 1.85587 14.0529 1.89919 14.0962C1.9425 14.1395 1.9943 14.1734 2.05133 14.1957C2.10836 14.2181 2.1694 14.2284 2.23061 14.226C2.29182 14.2237 2.35188 14.2087 2.40702 14.182C2.46216 14.1553 2.51119 14.1175 2.55103 14.071L6.66659 9.95989V14.2221C6.66659 14.34 6.71341 14.453 6.79676 14.5364C6.88011 14.6197 6.99316 14.6666 7.11103 14.6666C7.2289 14.6666 7.34195 14.6197 7.4253 14.5364C7.50865 14.453 7.55547 14.34 7.55547 14.2221V8.44434H1.7777Z" fill="black"/>
<path d="M1.7777 8.44434C1.65982 8.44434 1.54678 8.49116 1.46343 8.57451C1.38008 8.65786 1.33325 8.77091 1.33325 8.88878C1.33325 9.00665 1.38008 9.1197 1.46343 9.20305C1.54678 9.2864 1.65982 9.33322 1.7777 9.33322H6.03992L1.92436 13.4443C1.87784 13.4842 1.84005 13.5332 1.81337 13.5883C1.7867 13.6435 1.77171 13.7035 1.76934 13.7648C1.76698 13.826 1.77729 13.887 1.79964 13.944C1.82198 14.0011 1.85587 14.0529 1.89919 14.0962C1.9425 14.1395 1.9943 14.1734 2.05133 14.1957C2.10836 14.2181 2.1694 14.2284 2.23061 14.226C2.29182 14.2237 2.35188 14.2087 2.40702 14.182C2.46216 14.1553 2.51119 14.1175 2.55103 14.071L6.66659 9.95989V14.2221C6.66659 14.34 6.71341 14.453 6.79676 14.5364C6.88011 14.6197 6.99316 14.6666 7.11103 14.6666C7.2289 14.6666 7.34195 14.6197 7.4253 14.5364C7.50865 14.453 7.55547 14.34 7.55547 14.2221V8.44434H1.7777Z" fill="black" fill-opacity="0.2"/>
</g>
<defs>
<clipPath id="clip0_109_20392">
<rect width="16" height="16" fill="white"/>
</clipPath>
</defs>
</svg>
