<?xml version="1.0" standalone="no"?>
<!DOCTYPE svg PUBLIC "-//W3C//DTD SVG 1.1//EN" "http://www.w3.org/Graphics/SVG/1.1/DTD/svg11.dtd" >
<svg xmlns="http://www.w3.org/2000/svg" xmlns:xlink="http://www.w3.org/1999/xlink" version="1.1">
<metadata>
Created by FontForge 20170731 at Thu Jul 22 19:25:12 2021
 By Aleksey,,,
Copyright 2020 The Epilogue Project Authors (https://github.com/Etcetera-Type-Co/Epilogue)
</metadata>
<defs>
<font id="Epilogue-ExtraBoldItalic" horiz-adv-x="0" >
  <font-face 
    font-family="Epilogue ExtraBold"
    font-weight="800"
    font-style="italic"
    font-stretch="normal"
    units-per-em="2000"
    panose-1="0 0 0 0 0 0 0 0 0 0"
    ascent="1600"
    descent="-400"
    x-height="1062"
    cap-height="1475"
    bbox="-621 -467 2793 2266"
    underline-thickness="50"
    underline-position="-175"
    slope="-12"
    unicode-range="U+000D-FB02"
  />
<missing-glyph horiz-adv-x="669" 
d="M-16 73l286 1344h509l-286 -1344h-509zM156 176l-24 26l129 98l-88 98l36 26l88 -98l130 98l24 -26l-130 -98l89 -98l-36 -26l-88 98zM249 612l-25 26l130 98l-88 98l35 26l89 -98l129 98l25 -26l-130 -98l88 -98l-35 -26l-88 98zM30 107h431l272 1276h-431zM341 1048
l-24 26l131 98l-89 98l35 25l88 -97l130 97l25 -25l-131 -98l89 -98l-36 -26l-88 98z" />
    <glyph glyph-name="fi" unicode="fi" horiz-adv-x="1457" 
d="M127 0l169 792h-218l58 270h217l12 52q32 145 99 236.5t152.5 141t177 67.5t172.5 18q54 0 96 -7t54 -12l-60 -274q-11 4 -41 9.5t-66 5.5q-73 0 -119 -24t-72 -67t-40 -103l-9 -43h277l-58 -270h-277l-168 -792h-356zM891 0l225 1062h355l-225 -1062h-355zM1345 1211
q-77 0 -131 37.5t-54 107.5q0 57 31 96.5t81 60t106 20.5q75 0 130 -37t55 -107q0 -57 -31 -97t-81 -60.5t-106 -20.5z" />
    <glyph glyph-name="fl" unicode="fl" horiz-adv-x="1501" 
d="M127 0l169 792h-218l58 270h217l12 52q32 145 99 236.5t152.5 141t177 67.5t172.5 18q54 0 96 -7t54 -12l-60 -274q-11 4 -41 9.5t-66 5.5q-73 0 -119 -24t-72 -67t-40 -103l-9 -43h277l-58 -270h-277l-168 -792h-356zM1606 1563l-332 -1563h-354l332 1563h354z" />
    <glyph glyph-name="f_f" unicode="ff" horiz-adv-x="1813" 
d="M127 0l169 792h-218l58 270h217l12 52q32 145 99 236.5t152.5 141t177 67.5t172.5 18q54 0 96 -7t54 -12l-60 -274q-11 4 -41 9.5t-66 5.5q-73 0 -119 -24t-72 -67t-40 -103l-9 -43h277l-58 -270h-277l-168 -792h-356zM1034 0l169 792h-218l58 270h217l12 52
q32 145 99 236.5t152.5 141t177 67.5t172.5 18q54 0 96 -7t54 -12l-60 -274q-11 4 -41 9.5t-66 5.5q-73 0 -119 -24t-72 -67t-40 -103l-9 -43h277l-58 -270h-277l-168 -792h-356z" />
    <glyph glyph-name="f_f_i" unicode="ffi" horiz-adv-x="2364" 
d="M127 0l169 792h-218l58 270h217l12 52q32 145 99 236.5t152.5 141t177 67.5t172.5 18q54 0 96 -7t54 -12l-60 -274q-11 4 -41 9.5t-66 5.5q-73 0 -119 -24t-72 -67t-40 -103l-9 -43h277l-58 -270h-277l-168 -792h-356zM1034 0l169 792h-218l58 270h217l12 52
q32 145 99 236.5t152.5 141t177 67.5t172.5 18q54 0 96 -7t54 -12l-60 -274q-11 4 -41 9.5t-66 5.5q-73 0 -119 -24t-72 -67t-40 -103l-9 -43h277l-58 -270h-277l-168 -792h-356zM1797 0l225 1062h355l-225 -1062h-355zM2251 1211q-77 0 -131 37.5t-54 107.5q0 57 31 96.5
t81 60t106 20.5q75 0 130 -37t55 -107q0 -57 -31 -97t-81 -60.5t-106 -20.5z" />
    <glyph glyph-name="f_f_l" unicode="ffl" horiz-adv-x="2408" 
d="M127 0l169 792h-218l58 270h217l12 52q32 145 99 236.5t152.5 141t177 67.5t172.5 18q54 0 96 -7t54 -12l-60 -274q-11 4 -41 9.5t-66 5.5q-73 0 -119 -24t-72 -67t-40 -103l-9 -43h277l-58 -270h-277l-168 -792h-356zM1034 0l169 792h-218l58 270h217l12 52
q32 145 99 236.5t152.5 141t177 67.5t172.5 18q54 0 96 -7t54 -12l-60 -274q-11 4 -41 9.5t-66 5.5q-73 0 -119 -24t-72 -67t-40 -103l-9 -43h277l-58 -270h-277l-168 -792h-356zM2512 1563l-332 -1563h-354l332 1563h354z" />
    <glyph glyph-name=".notdef" horiz-adv-x="669" 
d="M-16 73l286 1344h509l-286 -1344h-509zM156 176l-24 26l129 98l-88 98l36 26l88 -98l130 98l24 -26l-130 -98l89 -98l-36 -26l-88 98zM249 612l-25 26l130 98l-88 98l35 26l89 -98l129 98l25 -26l-130 -98l88 -98l-35 -26l-88 98zM30 107h431l272 1276h-431zM341 1048
l-24 26l131 98l-89 98l35 25l88 -97l130 97l25 -25l-131 -98l89 -98l-36 -26l-88 98z" />
    <glyph glyph-name=".null" 
 />
    <glyph glyph-name="nonmarkingreturn" horiz-adv-x="666" 
 />
    <glyph glyph-name="CR" unicode="&#xd;" horiz-adv-x="845" 
 />
    <glyph glyph-name="space" unicode=" " horiz-adv-x="500" 
 />
    <glyph glyph-name="exclam" unicode="!" horiz-adv-x="631" 
d="M670 1473l-306 -1038h-209l158 1038h357zM213 -31q-76 0 -128.5 53t-52.5 128q0 74 52.5 127t128.5 53q74 0 127 -53t53 -127q0 -75 -53 -128t-127 -53z" />
    <glyph glyph-name="quotedbl" unicode="&#x22;" horiz-adv-x="844" 
d="M548 1475l-138 -527h-193l86 527h245zM937 1475l-138 -527h-192l86 527h244z" />
    <glyph glyph-name="numbersign" unicode="#" horiz-adv-x="1692" 
d="M761 1475h308l-677 -1475h-309zM1343 1475h308l-677 -1475h-308zM293 1079h1442l-98 -220h-1441zM108 614h1443l-97 -220h-1443z" />
    <glyph glyph-name="dollar" unicode="$" horiz-adv-x="1162" 
d="M705 1475h140l-314 -1475h-140zM525 194q-83 0 -164 19t-147 56t-105 92.5t-39 129.5q0 21 3 41.5t6 31.5h354q-2 -6 -3.5 -15t-1.5 -16q0 -40 38.5 -57.5t106.5 -17.5q37 0 77 8.5t68 29.5t28 56q0 33 -50.5 50t-154.5 34q-87 15 -171.5 44.5t-139.5 88t-55 156.5
q0 97 46 168t124.5 117.5t177.5 69t204 22.5q113 0 213 -36.5t163 -103.5t63 -159q0 -20 -3 -39t-5 -30h-350q2 6 3 13t1 16q0 28 -18.5 44.5t-46.5 25t-59 8.5t-69 -7.5t-65 -25.5t-27 -50q0 -35 47 -53.5t132 -32.5q55 -9 122 -25t128 -47t99.5 -80.5t38.5 -126.5
q0 -103 -48 -178t-129.5 -124t-183 -73t-208.5 -24z" />
    <glyph glyph-name="percent" unicode="%" horiz-adv-x="1319" 
d="M1455 1357l-1398 -1326l-100 105l1397 1325zM486 958q-76 0 -142 31.5t-106.5 90.5t-40.5 139q0 81 40.5 140t106.5 91t142 32q78 0 144.5 -32t107.5 -91t41 -140q0 -80 -41 -139t-107.5 -90.5t-144.5 -31.5zM486 1102q32 0 62 12t49.5 38t19.5 67q0 43 -19.5 69
t-49.5 37.5t-62 11.5t-61.5 -11.5t-47.5 -37.5t-18 -69q0 -41 18 -67t47.5 -38t61.5 -12zM936 4q-76 0 -142 31.5t-106.5 90t-40.5 139.5t40.5 140t106.5 90.5t142 31.5q78 0 144.5 -31.5t107.5 -90.5t41 -140t-41 -139.5t-107.5 -90t-144.5 -31.5zM936 147q32 0 62 12
t49.5 38t19.5 68t-19.5 68t-49.5 38t-62 12t-61.5 -12t-47.5 -38t-18 -68t18 -68t47.5 -38t61.5 -12z" />
    <glyph glyph-name="ampersand" unicode="&#x26;" horiz-adv-x="1500" 
d="M501 -25q-157 0 -264.5 42t-162.5 116.5t-55 170.5q0 138 77.5 237.5t213 182.5t306.5 170q95 49 159 92t97 87.5t33 95.5q0 39 -22.5 64.5t-76.5 25.5q-25 0 -52.5 -9.5t-50 -28t-36.5 -47.5t-14 -68q0 -34 9 -68t28 -70.5t47 -82.5l374 -592q27 -43 58 -54t54 -11
q24 0 52.5 7t41.5 11l-52 -246q-7 -3 -44 -13t-90 -10q-68 0 -133.5 26.5t-100.5 81.5l-410 644q-50 79 -89 164.5t-39 187.5q0 91 39 166t106 129.5t152 83.5t179 29q190 0 279 -77.5t89 -195.5q0 -112 -64 -207t-172 -175.5t-243 -153.5q-119 -63 -199.5 -112
t-121.5 -97.5t-41 -110.5q0 -36 20.5 -66t61 -48t103.5 -18q99 0 197 24.5t169 83.5q70 59 124.5 145t80.5 210h290q-36 -166 -123 -297t-200 -228q-118 -100 -266.5 -145.5t-317.5 -45.5z" />
    <glyph glyph-name="quotesingle" unicode="'" horiz-adv-x="370" 
d="M514 1475l-141 -527h-196l84 527h253z" />
    <glyph glyph-name="parenleft" unicode="(" horiz-adv-x="893" 
d="M468 -467q-20 18 -67.5 70t-100 143.5t-89.5 225t-37 311.5q0 211 43 414.5t130.5 386t222.5 334.5t319 261l161 -203q-139 -94 -245.5 -223.5t-179 -283.5t-109.5 -322t-37 -339q0 -130 23 -230.5t57 -172t66 -116t51 -62.5z" />
    <glyph glyph-name="parenright" unicode=")" horiz-adv-x="893" 
d="M21 -467l-144 194q142 97 249 235.5t179 302t107.5 334.5t35.5 330q0 132 -23 228.5t-57 163t-66 106.5t-51 58l225 194q21 -16 66 -69t94 -144.5t83.5 -226.5t34.5 -317q0 -165 -28.5 -329.5t-86 -319t-145.5 -293t-206 -252t-267 -195.5z" />
    <glyph glyph-name="asterisk" unicode="*" horiz-adv-x="902" 
d="M712 1181l103 -143l-157 -94l-87 177l-162 -177l-128 94l163 143l-185 62l104 141l163 -73l27 175h180l-47 -175l194 73l43 -141z" />
    <glyph glyph-name="plus" unicode="+" horiz-adv-x="1319" 
d="M1033 416h-287l-49 -227h-221l48 227h-287l43 219h286l50 228h222l-48 -228h287z" />
    <glyph glyph-name="comma" unicode="," horiz-adv-x="649" 
d="M-7 -341l-30 83q66 28 128.5 76t103 97.5t40.5 81.5q0 13 -5.5 26t-9.5 21h88q-16 -26 -44.5 -51t-89.5 -25t-107 37.5t-46 115.5q0 95 62.5 152t149.5 57q82 0 129.5 -52.5t47.5 -133.5q0 -106 -61.5 -200.5t-157 -168t-198.5 -116.5z" />
    <glyph glyph-name="hyphen" unicode="-" horiz-adv-x="910" 
d="M51 458l42 217h740l-42 -217h-740z" />
    <glyph glyph-name="period" unicode="." horiz-adv-x="630" 
d="M216 -31q-75 0 -128 53t-53 128q0 74 53 127t128 53q74 0 127 -53t53 -127q0 -75 -53 -128t-127 -53z" />
    <glyph glyph-name="slash" unicode="/" horiz-adv-x="839" 
d="M1041 1563l-877 -1718h-292l878 1718h291z" />
    <glyph glyph-name="zero" unicode="0" horiz-adv-x="1212" 
d="M487 -25q-151 0 -243.5 65.5t-134.5 177t-42 248.5q0 155 32.5 304.5t93 281t148.5 232t200 158t245 57.5q152 0 243.5 -67t133 -180t41.5 -251q0 -154 -32 -303.5t-92.5 -279.5t-148 -230t-199.5 -156.5t-245 -56.5zM531 246q59 0 109 57t91 149.5t69.5 201t43.5 213
t15 182.5q0 95 -33 134t-87 39q-58 0 -108.5 -57.5t-90.5 -151t-69 -202t-44.5 -212.5t-15.5 -182q0 -93 33 -132t87 -39z" />
    <glyph glyph-name="one" unicode="1" horiz-adv-x="894" 
d="M898 1476l-314 -1476h-354l244 1151q-16 -9 -62 -24t-107.5 -28t-122.5 -17l58 274q63 6 127 25.5t113.5 45t69.5 49.5h348z" />
    <glyph glyph-name="two" unicode="2" horiz-adv-x="1267" 
d="M-49 0l61 290q13 14 66.5 53t130 91t159 107.5t152.5 102.5q91 62 177 128.5t143 144.5t57 173q0 62 -33.5 99.5t-108.5 37.5q-76 0 -126.5 -34t-81 -94t-47.5 -140h-358q36 168 121 289t217 186t310 65q154 0 258 -50t157 -135t53 -192q0 -140 -68 -250.5t-174 -199
t-220 -164.5q-106 -70 -180 -119.5t-117 -80t-58 -44.5h630l-56 -264h-1064z" />
    <glyph glyph-name="three" unicode="3" horiz-adv-x="1284" 
d="M957 777q78 -3 127.5 -40t73.5 -96.5t24 -129.5q0 -120 -47.5 -217.5t-131.5 -166.5t-196 -106t-243 -37q-176 0 -279.5 48.5t-147.5 130.5t-44 183q0 55 7 93t9 47h357q-2 -9 -7.5 -39.5t-5.5 -61.5q0 -80 42 -109.5t111 -29.5q55 0 96.5 21.5t69 58t41.5 85t14 102.5
q0 44 -18 73.5t-57 43.5t-102 14h-50l52 244h50q75 0 132.5 28.5t90 79t32.5 117.5q0 59 -38 86.5t-99 27.5q-83 0 -149.5 -47t-92.5 -169h-357q28 127 100 236t202 176t327 67q171 0 274.5 -46.5t150 -122.5t46.5 -164q0 -102 -49 -187t-131.5 -137t-183.5 -56z" />
    <glyph glyph-name="four" unicode="4" horiz-adv-x="1244" 
d="M546 0l57 267h-635l50 241l733 968h457l-202 -948h169l-55 -261h-169l-57 -267h-348zM272 382l-79 146h465l154 724l83 -20z" />
    <glyph glyph-name="five" unicode="5" horiz-adv-x="1254" 
d="M1221 1213h-605l-118 -352q5 9 27 25t58 32.5t86 27.5t112 11q171 0 256.5 -90.5t85.5 -243.5q0 -147 -44.5 -266t-128.5 -204.5t-202.5 -131.5t-267.5 -46q-164 0 -261 54.5t-139 140.5t-42 180q0 32 4.5 64t6.5 42h353q-1 -11 -3 -31t-2 -38q0 -65 29.5 -103t103.5 -38
q59 0 102 27.5t71.5 74.5t42.5 106t14 122q0 64 -28.5 99t-93.5 35q-49 0 -89.5 -18.5t-70 -45.5t-44.5 -55l-311 88l258 796h896z" />
    <glyph glyph-name="six" unicode="6" horiz-adv-x="1290" 
d="M535 -25q-222 0 -325.5 121.5t-103.5 335.5q0 129 22.5 257t66.5 247.5t107.5 221.5t145 178.5t181 119.5t213.5 43q121 0 198 -35.5t120.5 -91t61 -118t17.5 -116.5q0 -19 -2 -43t-7 -39h-331q2 11 4.5 27t2.5 25q0 29 -9.5 56t-33 45.5t-68.5 18.5q-51 0 -95.5 -34
t-81.5 -101t-69 -164.5t-58 -223.5l-50 -1q15 50 62.5 101.5t128.5 87t196 35.5q118 0 193.5 -44t111 -118.5t35.5 -167.5q0 -134 -47.5 -248t-133 -198t-200.5 -130.5t-252 -46.5zM577 246q57 0 98.5 24t70 65.5t42.5 94.5t14 110q0 70 -31.5 106t-91.5 36
q-72 0 -123.5 -40.5t-78 -106t-26.5 -139.5q0 -70 33 -110t93 -40z" />
    <glyph glyph-name="seven" unicode="7" horiz-adv-x="1111" 
d="M816 1214l-1 -2h-626l56 263h1010l-52 -243q-111 -70 -202.5 -170t-165.5 -223t-132 -261t-102 -284.5t-76 -293.5h-357q43 198 101 380t136 340t180 283.5t231 210.5z" />
    <glyph glyph-name="eight" unicode="8" horiz-adv-x="1335" 
d="M562 -25q-163 0 -269 50.5t-158 135t-52 186.5q0 106 50 198.5t133.5 155t183.5 78.5q-39 9 -82 39.5t-72 85.5t-29 137q0 109 47.5 193.5t130 144t188 90t221.5 30.5q138 0 239.5 -42t157.5 -115.5t56 -171.5q0 -95 -43.5 -178.5t-116 -140.5t-162.5 -76q49 -8 98 -42
t82 -93t33 -143q0 -118 -50 -214t-138 -165t-203 -106t-245 -37zM604 246q67 0 119.5 35t82.5 92.5t30 122.5q0 69 -38.5 110t-108.5 41q-67 0 -120 -35.5t-83.5 -92.5t-30.5 -123q0 -70 40.5 -110t108.5 -40zM744 908q60 0 106.5 26.5t74 72.5t27.5 101q0 58 -38.5 88.5
t-101.5 30.5q-61 0 -107.5 -25.5t-73 -69.5t-26.5 -101q0 -56 36 -89.5t103 -33.5z" />
    <glyph glyph-name="nine" unicode="9" horiz-adv-x="1252" 
d="M504 -26q-120 0 -197.5 35.5t-121.5 90.5t-61.5 117.5t-17.5 115.5q0 20 2.5 45t6.5 39h331q-2 -9 -4.5 -27t-2.5 -29q0 -27 9.5 -54t34 -44.5t68.5 -17.5q51 0 95 34t81.5 101t69 164.5t58.5 223.5l50 1q-15 -49 -63 -101t-128.5 -87.5t-195.5 -35.5q-119 0 -194 44
t-110.5 119t-35.5 167q0 134 47 248t132.5 198t201 130.5t252.5 46.5q221 0 325.5 -120t104.5 -333q0 -128 -22.5 -256.5t-67 -248t-108.5 -222.5t-146 -180t-181 -120.5t-212 -43.5zM667 791q71 0 122 41.5t78.5 107.5t27.5 139q0 69 -33 108.5t-93 39.5q-56 0 -98.5 -24
t-70.5 -65.5t-42 -94.5t-14 -110q0 -70 31 -106t92 -36z" />
    <glyph glyph-name="colon" unicode=":" horiz-adv-x="630" 
d="M216 -31q-75 0 -128 53t-53 128q0 74 53 127t128 53q74 0 127 -53t53 -127q0 -75 -53 -128t-127 -53zM372 706q-75 0 -128 53t-53 128q0 74 53 127t128 53q74 0 127 -53t53 -127q0 -75 -53 -128t-127 -53z" />
    <glyph glyph-name="semicolon" unicode=";" horiz-adv-x="665" 
d="M7 -348l-30 83q66 28 128.5 76t103 97.5t40.5 81.5q0 13 -5.5 26t-9.5 21h88q-16 -26 -44.5 -51t-89.5 -25t-107 37.5t-46 115.5q0 95 62.5 152t149.5 57q82 0 129.5 -52.5t47.5 -133.5q0 -106 -61.5 -200.5t-157 -168t-198.5 -116.5zM374 705q-75 0 -128 53t-53 128
q0 74 53 127t128 53q74 0 127 -53t53 -127q0 -75 -53 -128t-127 -53z" />
    <glyph glyph-name="less" unicode="&#x3c;" horiz-adv-x="1319" 
d="M852 44l-604 370l50 234l762 371l-66 -305l-601 -239l19 86l499 -237z" />
    <glyph glyph-name="equal" unicode="=" horiz-adv-x="1319" 
d="M1063 603h-777l46 220h778zM985 236h-778l46 219h778z" />
    <glyph glyph-name="greater" unicode="&#x3e;" horiz-adv-x="1319" 
d="M418 1019l604 -371l-50 -234l-762 -370l65 302l601 238l-19 -87l-499 239z" />
    <glyph glyph-name="question" unicode="?" horiz-adv-x="1146" 
d="M402 425q18 97 61 170t100 130.5t112 107.5q50 45 92 88t68 90.5t26 104.5q0 61 -32 95t-100 34q-86 0 -146 -58t-85 -178h-313q36 170 119.5 275t200 153.5t251.5 48.5q120 0 214.5 -36.5t149.5 -110.5t55 -186t-39.5 -189.5t-101.5 -133.5t-128 -106
q-54 -41 -103 -83.5t-84.5 -94t-48.5 -121.5h-268zM505 -31q-76 0 -128.5 53t-52.5 128q0 74 52.5 127t128.5 53q74 0 127 -53t53 -127q0 -75 -53 -128t-127 -53z" />
    <glyph glyph-name="at" unicode="@" horiz-adv-x="1998" 
d="M1518 103q-71 -37 -186 -65.5t-253.5 -45.5t-283.5 -17q-224 0 -386.5 67t-249.5 190.5t-87 292.5q0 219 94.5 398.5t258.5 308.5t375 198.5t445 69.5q186 0 319 -45t218.5 -120.5t126 -167.5t40.5 -186q0 -144 -62.5 -267t-170 -215.5t-244.5 -143.5t-285 -51
q-42 0 -77.5 9.5t-57 34t-21.5 66.5q0 1 0.5 3t0.5 3q-27 -43 -90 -76.5t-148 -33.5q-97 0 -156.5 35.5t-85.5 94.5t-26 130q0 116 45 220.5t123.5 185.5t181.5 127.5t220 46.5q65 0 114 -24.5t49 -67.5l35 70h235l-253 -547q-7 -13 -12.5 -31.5t-5.5 -28.5q0 -20 13 -28
t38 -8q83 0 154.5 44t124 117t82.5 161t30 176q0 99 -53 175.5t-161.5 120.5t-273.5 44q-184 0 -345.5 -57t-283.5 -161t-190.5 -249t-68.5 -321q0 -192 135 -287.5t358 -95.5q111 0 219.5 14t202 38t158.5 52zM868 486q56 0 92.5 22.5t56.5 58.5q3 5 15.5 31t29.5 64
t36.5 78.5t35 75t23.5 53.5q8 17 12.5 32t4.5 29q0 20 -16 35t-59 15q-62 0 -119.5 -37t-102 -97t-71 -129t-26.5 -133q0 -47 22 -72.5t66 -25.5z" />
    <glyph glyph-name="A" unicode="A" horiz-adv-x="1370" 
d="M-65 0l670 1476h566l40 -1476h-350l-3 1261h2l-543 -1261h-382zM287 326l58 273h714l-57 -273h-715z" />
    <glyph glyph-name="B" unicode="B" horiz-adv-x="1309" 
d="M931 1475q158 0 242.5 -39t116.5 -101t32 -131q0 -102 -36 -181.5t-92 -135.5t-118 -86.5t-115 -33.5q65 -2 122 -37t92.5 -93.5t35.5 -135.5q0 -139 -70.5 -252.5t-203.5 -181t-321 -67.5h-613l314 1475h614zM510 792l-140 97h334q72 0 127 25.5t86 72.5t31 109
q0 56 -34.5 84.5t-131.5 28.5h-342l195 158zM603 267q107 0 175.5 58.5t68.5 159.5q0 42 -16 73.5t-53.5 49t-103.5 17.5h-358l178 87l-127 -603l-128 158h364z" />
    <glyph glyph-name="C" unicode="C" horiz-adv-x="1439" 
d="M1370 548q-21 -98 -77 -199t-147 -185.5t-216 -136.5t-284 -52q-186 0 -305.5 77.5t-177 212t-57.5 305.5q0 199 60 368.5t169.5 295t260.5 195.5t333 70q183 0 297.5 -66.5t168 -170.5t53.5 -220q0 -30 -3 -59t-10 -56h-358q4 16 6.5 41t2.5 43q0 63 -20.5 109t-63.5 72
t-112 26q-105 0 -184 -60t-132.5 -158t-80 -215.5t-26.5 -230.5q0 -143 56.5 -221t160.5 -78q63 0 117 23t96.5 63.5t72 93.5t42.5 113h358z" />
    <glyph glyph-name="D" unicode="D" horiz-adv-x="1368" 
d="M3 0l314 1475h504q175 0 293.5 -74t179 -201t60.5 -286q0 -192 -65.5 -358.5t-180.5 -291t-266.5 -194.5t-324.5 -70h-514zM384 109l-127 173h268q100 0 184.5 51.5t147.5 137.5t98.5 194t35.5 221q0 94 -30.5 163t-89.5 106.5t-145 37.5h-269l195 174z" />
    <glyph glyph-name="E" unicode="E" horiz-adv-x="1159" 
d="M458 1205l196 165l-127 -593l-59 98h537l-57 -270h-537l100 97l-126 -597l-126 165h729l-58 -270h-927l314 1475h927l-58 -270h-728z" />
    <glyph glyph-name="F" unicode="F" horiz-adv-x="1148" 
d="M454 1205l196 165l-128 -604l-91 87h606l-58 -271h-606l130 94l-144 -676h-356l314 1475h941l-57 -270h-747z" />
    <glyph glyph-name="G" unicode="G" horiz-adv-x="1459" 
d="M611 -25q-153 0 -267.5 65.5t-178.5 191t-64 305.5q0 198 58.5 372t168.5 306.5t264.5 208t345.5 75.5q140 0 237 -40t157.5 -104.5t88 -140t27.5 -145.5q0 -20 -3 -47t-6 -40h-347q2 9 4.5 26.5t2.5 32.5q0 48 -21.5 88t-65 64.5t-108.5 24.5q-111 0 -194.5 -61.5
t-138.5 -162t-82.5 -218.5t-27.5 -230q0 -109 32.5 -173t85.5 -91t114 -27q82 0 145 32.5t105.5 78t60.5 83.5l10 54h-269l54 252h586l-161 -755h-176v163q-15 -28 -66 -72.5t-142 -80t-229 -35.5z" />
    <glyph glyph-name="H" unicode="H" horiz-adv-x="1440" 
d="M1525 1475l-314 -1475h-358l162 758l127 -159h-815l195 159l-161 -758h-358l314 1475h358l-164 -766l-127 160h815l-195 -160l163 766h358z" />
    <glyph glyph-name="I" unicode="I" horiz-adv-x="584" 
d="M-2 0l314 1475h357l-313 -1475h-358z" />
    <glyph glyph-name="J" unicode="J" horiz-adv-x="1195" 
d="M478 -25q-232 0 -345.5 97.5t-113.5 256.5q0 60 11.5 118t24.5 111h354q-8 -32 -16.5 -77t-8.5 -92q0 -62 29.5 -98t103.5 -36q96 0 138 76.5t69 208.5l199 935h356l-209 -986q-22 -104 -60.5 -196t-105.5 -164t-171 -113t-255 -41z" />
    <glyph glyph-name="K" unicode="K" horiz-adv-x="1368" 
d="M768 705l58 273l374 -978h-373l-225 705l133 -21l-324 -346l69 223l-119 -561h-356l312 1475h358l-161 -751l-83 31l676 720h386z" />
    <glyph glyph-name="L" unicode="L" horiz-adv-x="1080" 
d="M3 0l314 1475h358l-291 -1369l-124 181h699l-61 -287h-895z" />
    <glyph glyph-name="M" unicode="M" horiz-adv-x="1903" 
d="M1367 1475h609l-314 -1475h-338l271 1276l6 -4l-529 -1272h-460l7 1275l7 3l-272 -1278h-340l314 1475h595l-40 -1324h-33z" />
    <glyph glyph-name="N" unicode="N" horiz-adv-x="1514" 
d="M351 0h-348l314 1475h581l87 -1359l-25 -14l292 1373h347l-314 -1475h-585l-88 1354l30 14z" />
    <glyph glyph-name="O" unicode="O" horiz-adv-x="1535" 
d="M676 -25q-161 0 -290.5 68.5t-204.5 202t-75 328.5q0 194 60 361.5t171 294t265.5 198t343.5 71.5q164 0 292.5 -67.5t203.5 -199t75 -326.5q0 -192 -60.5 -360.5t-172.5 -297t-266 -201t-342 -72.5zM708 256q115 0 199 58t139 153.5t82 211t27 230.5t-32 182.5t-86.5 97
t-123.5 29.5q-115 0 -199 -55.5t-139 -148.5t-81 -207t-26 -232q0 -176 68.5 -247.5t171.5 -71.5z" />
    <glyph glyph-name="P" unicode="P" horiz-adv-x="1272" 
d="M361 0h-358l314 1475h533q154 0 252.5 -57t146 -152.5t47.5 -210.5q0 -132 -52 -241.5t-143 -189t-210 -123t-253 -43.5h-179zM481 568l-127 159h302q86 0 148.5 39t96.5 106.5t34 153.5q0 57 -20.5 97t-60 61t-97.5 21h-301l195 162z" />
    <glyph glyph-name="Q" unicode="Q" horiz-adv-x="1535" 
d="M484 20l303 -1q0 -45 27.5 -73.5t66 -45t74 -23.5t51.5 -10l-142 -237q-17 1 -59.5 7t-97 26.5t-105.5 62.5t-84.5 113t-33.5 181zM676 -25q-161 0 -290.5 68.5t-204.5 202t-75 328.5q0 194 60 361.5t171 294t265.5 198t343.5 71.5q164 0 292.5 -67.5t203.5 -199
t75 -326.5q0 -192 -60.5 -360.5t-172.5 -297t-266 -201t-342 -72.5zM708 256q115 0 199 58t139 153.5t82 211t27 230.5t-32 182.5t-86.5 97t-123.5 29.5q-115 0 -199 -55.5t-139 -148.5t-81 -207t-26 -232q0 -176 68.5 -247.5t171.5 -71.5z" />
    <glyph glyph-name="R" unicode="R" horiz-adv-x="1303" 
d="M3 0l314 1475h623q213 0 306 -86.5t93 -226.5q0 -82 -27 -162t-75 -146.5t-113.5 -109.5t-142.5 -49q52 -3 96 -22.5t70 -60t26 -107.5q0 -32 -7.5 -76t-19 -95t-23.5 -102t-19.5 -96t-7.5 -77q0 -19 2.5 -34.5t7.5 -24.5h-357q-9 19 -9 58q0 30 7 69.5t16.5 83
t19.5 86.5t17 80.5t7 65.5q0 57 -38.5 86.5t-112.5 29.5h-346l182 96l-140 -655h-349zM508 734l-141 95h358q62 0 115.5 28.5t86 79t32.5 117.5q0 65 -37 108.5t-120 43.5h-354l195 161z" />
    <glyph glyph-name="S" unicode="S" horiz-adv-x="1271" 
d="M530 -25q-137 0 -248 42t-175.5 122.5t-64.5 197.5q0 48 6.5 83t15.5 72h357q-8 -31 -12 -56t-4 -46q0 -63 42.5 -99t127.5 -36q66 0 121 16t88 50t33 89q0 66 -78 115.5t-200 94.5q-86 33 -166.5 79.5t-132.5 115.5t-52 170q0 119 50 214t137 162t200.5 102.5
t240.5 35.5q141 0 251 -42.5t172.5 -121t62.5 -187.5q0 -41 -6.5 -80.5t-13.5 -63.5h-357q4 16 8.5 41.5t4.5 49.5q0 59 -41 92t-124 33q-68 0 -120.5 -18.5t-83 -55t-30.5 -94.5q0 -64 74 -108t192 -91q106 -42 189.5 -91.5t131.5 -118t48 -170.5q0 -160 -87 -271.5
t-233 -169t-324 -57.5z" />
    <glyph glyph-name="T" unicode="T" horiz-adv-x="1191" 
d="M1272 1205h-515l195 162l-291 -1367h-356l291 1367l126 -162h-514l58 270h1063z" />
    <glyph glyph-name="U" unicode="U" horiz-adv-x="1373" 
d="M1257 529q-59 -278 -233 -416t-424 -138q-239 0 -368 101.5t-129 300.5q0 68 12 136.5t36 179.5l170 782h357l-181 -836q-12 -57 -19.5 -97t-11 -70.5t-3.5 -62.5q0 -78 39.5 -116t126.5 -38q114 0 177.5 66t91.5 200l203 954h357z" />
    <glyph glyph-name="V" unicode="V" horiz-adv-x="1333" 
d="M287 -2l-38 1477h387l-29 -1265h-15l492 1265h404l-664 -1477h-537z" />
    <glyph glyph-name="W" unicode="W" horiz-adv-x="1943" 
d="M161 0l104 1475h366l-157 -1410l-58 3l528 1407h440l-72 -1407l-44 -3l442 1410h368l-524 -1475h-546l96 1237h36l-432 -1237h-547z" />
    <glyph glyph-name="X" unicode="X" horiz-adv-x="1372" 
d="M607 873l-49 -286l-289 888h394l149 -651l-144 -2l445 653h409l-657 -890l48 290l300 -875h-394l-167 639l152 -2l-460 -637h-409z" />
    <glyph glyph-name="Y" unicode="Y" horiz-adv-x="1314" 
d="M1468 1475l-637 -968l-110 -507h-355l108 507l-225 968h369l130 -797h-142l475 797h387z" />
    <glyph glyph-name="Z" unicode="Z" horiz-adv-x="1190" 
d="M436 271h607l-58 -271h-1016l50 232l825 975l2 -2h-575l57 270h980l-48 -229l-823 -973z" />
    <glyph glyph-name="bracketleft" unicode="[" horiz-adv-x="906" 
d="M1006 1657l-55 -256h-308l-336 -1582h308l-54 -256h-627l445 2094h627z" />
    <glyph glyph-name="backslash" unicode="\" horiz-adv-x="919" 
d="M242 1563h281l218 -1718h-280z" />
    <glyph glyph-name="bracketright" unicode="]" horiz-adv-x="906" 
d="M356 1657h626l-444 -2094h-627l54 256h309l336 1582h-308z" />
    <glyph glyph-name="asciicircum" unicode="^" horiz-adv-x="1319" 
d="M244 851l514 682h235l226 -682h-283l-122 550h86l-354 -550h-302z" />
    <glyph glyph-name="underscore" unicode="_" horiz-adv-x="1321" 
d="M-164 -346l48 235h1280l-47 -235h-1281z" />
    <glyph glyph-name="grave" unicode="`" horiz-adv-x="740" 
d="M787 1194h-226l-276 281h264z" />
    <glyph glyph-name="a" unicode="a" horiz-adv-x="1348" 
d="M472 -25q-121 0 -216 51.5t-148.5 153t-53.5 250.5q0 136 44.5 254.5t126 208.5t193 140t243.5 50q107 0 195 -48t140 -135.5t52 -206.5q0 -28 -4.5 -66.5t-12.5 -67.5l-134 -7q3 15 5.5 32.5t2.5 31.5q0 56 -27 94t-70 57t-91 19q-62 0 -114 -22.5t-90.5 -63t-59.5 -97
t-21 -123.5q0 -69 23.5 -114.5t65 -69t94.5 -23.5q60 0 116 26t98 76.5t57 124.5l133 -17q-33 -158 -116 -272t-195.5 -175t-235.5 -61zM1136 0h-357l225 1062h357z" />
    <glyph glyph-name="b" unicode="b" horiz-adv-x="1347" 
d="M691 -24q-109 0 -195 52.5t-135 143.5t-49 207q0 48 4.5 80.5t11.5 52.5l136 3q-3 -13 -5 -32t-2 -31q0 -54 25 -93t66 -59.5t90 -20.5q70 0 123.5 25t89.5 70t54 103.5t18 126.5q0 96 -48 141t-129 45q-54 0 -111 -25.5t-100.5 -74t-58.5 -119.5l-137 9q31 146 113 259
t195.5 178t239.5 65q179 0 291.5 -117t112.5 -331q0 -141 -42.5 -260.5t-121.5 -209t-190 -139t-246 -49.5zM-2 0l332 1563h358l-333 -1563h-357z" />
    <glyph glyph-name="c" unicode="c" horiz-adv-x="1274" 
d="M560 -25q-247 0 -376 127t-129 332q0 151 52 271t146 204.5t222.5 129t283.5 44.5q162 0 269.5 -57.5t161.5 -145.5t54 -181q0 -19 -2 -35t-4 -25h-353q1 6 1 11v12q0 34 -15 66t-52 53.5t-105 21.5t-123.5 -28t-94.5 -77.5t-60 -112t-21 -131.5q0 -93 48 -146t135 -53
q70 0 117.5 21.5t77 58t44.5 81.5h354q-13 -80 -61.5 -158t-129.5 -142t-192 -102.5t-248 -38.5z" />
    <glyph glyph-name="d" unicode="d" horiz-adv-x="1342" 
d="M439 -25q-178 0 -283.5 112.5t-105.5 323.5q0 137 46.5 258.5t130 214.5t195.5 146t245 53q109 0 191.5 -49t129 -135t46.5 -199q0 -30 -5 -70t-13 -71l-136 -1q3 13 5.5 32t2.5 31q0 55 -26 92.5t-67.5 57t-89.5 19.5q-65 0 -117.5 -24t-90 -67.5t-57.5 -101.5t-20 -124
q0 -95 49.5 -144.5t127.5 -49.5q56 0 113 27t100 77.5t58 120.5l139 -8q-31 -145 -117 -263t-204.5 -188t-246.5 -70zM761 0l332 1563h358l-333 -1563h-357z" />
    <glyph glyph-name="e" unicode="e" horiz-adv-x="1305" 
d="M230 429l46 223h665l-38 -52q6 20 8.5 37.5t2.5 34.5q0 39 -19 74t-61 57t-112 22q-80 0 -141.5 -30t-102.5 -84t-62.5 -125.5t-21.5 -155.5q0 -60 20 -103.5t65.5 -66.5t122.5 -23q56 0 97.5 9t70.5 23.5t46 32t22 34.5h353q-20 -69 -70 -133.5t-129 -116t-186.5 -81.5
t-242.5 -30q-162 0 -276 58.5t-174 162t-60 238.5q0 142 53 261t148 206t221 134.5t270 47.5q160 0 274 -55t175 -155t61 -237q0 -47 -9 -106t-24 -101h-992z" />
    <glyph glyph-name="f" unicode="f" horiz-adv-x="907" 
d="M127 0l169 792h-218l58 270h217l12 52q32 145 99 236.5t152.5 141t177 67.5t172.5 18q54 0 96 -7t54 -12l-60 -274q-11 4 -41 9.5t-66 5.5q-73 0 -119 -24t-72 -67t-40 -103l-9 -43h277l-58 -270h-277l-168 -792h-356z" />
    <glyph glyph-name="g" unicode="g" horiz-adv-x="1348" 
d="M485 -456q-88 0 -179 17t-167.5 52.5t-123 92t-46.5 136.5q0 25 2.5 45.5t6.5 38.5h357q-2 -7 -3 -14t-1 -16q0 -29 21 -52t61 -36.5t97 -13.5q72 0 127 23t91.5 70t51.5 119l224 1056h357l-224 -1056q-28 -135 -92 -224t-152.5 -141t-193 -74.5t-214.5 -22.5zM474 -25
q-121 0 -216.5 51.5t-149.5 153t-54 250.5q0 136 44.5 254.5t126 208.5t193 140t243.5 50q107 0 195.5 -47t141.5 -133.5t53 -205.5q0 -28 -4.5 -67t-12.5 -67l-136 -7q3 15 5 32t2 31q0 57 -26.5 95t-69.5 57t-91 19q-62 0 -114 -22.5t-90.5 -63.5t-59.5 -97t-21 -124
t23.5 -113.5t65 -69t94.5 -23.5q60 0 116 26t97.5 76.5t57.5 124.5l133 -17q-33 -158 -116 -273t-195 -177t-235 -62z" />
    <glyph glyph-name="h" unicode="h" horiz-adv-x="1311" 
d="M741 0l98 459q7 29 14 67.5t12.5 75t5.5 58.5q0 27 -7.5 50t-24 39.5t-44.5 25.5t-70 9q-70 0 -122 -28t-84.5 -80t-48.5 -124l-70 71q30 139 108 242.5t190 160.5t244 57q95 0 156 -25.5t95 -67t47.5 -91t13.5 -96.5q0 -55 -14.5 -133t-40.5 -197l-102 -473h-356zM-2 0
l332 1563h356l-332 -1563h-356z" />
    <glyph glyph-name="i" unicode="i" horiz-adv-x="551" 
d="M-16 0l225 1062h355l-225 -1062h-355zM438 1211q-77 0 -131 37.5t-54 107.5q0 57 31 96.5t81 60t106 20.5q75 0 130 -37t55 -107q0 -57 -31 -97t-81 -60.5t-106 -20.5z" />
    <glyph glyph-name="j" unicode="j" horiz-adv-x="550" 
d="M-249 -460q-30 0 -58.5 2t-46.5 3l56 261q18 -3 45.5 -5.5t58.5 -2.5q55 0 88.5 18.5t51 46.5t22.5 54l244 1145h355l-243 -1153q-14 -66 -46 -131t-95 -119t-167.5 -86.5t-264.5 -32.5zM428 1211q-76 0 -130.5 37.5t-54.5 107.5q0 57 31 96.5t81 60t106 20.5
q75 0 130 -37t55 -107q0 -57 -31 -97t-80.5 -60.5t-106.5 -20.5z" />
    <glyph glyph-name="k" unicode="k" horiz-adv-x="1186" 
d="M-2 0l332 1563h338l-186 -874l-84 36l449 337h454l-634 -478l99 128l292 -712h-356l-199 525h83l-207 -160l66 151l-109 -516h-338z" />
    <glyph glyph-name="l" unicode="l" horiz-adv-x="595" 
d="M699 1563l-332 -1563h-354l332 1563h354z" />
    <glyph glyph-name="m" unicode="m" horiz-adv-x="1900" 
d="M664 0l84 390q23 108 35 175t12 106q0 32 -9 57.5t-32 40.5t-65 15q-43 0 -79 -19t-64 -52.5t-48 -79t-31 -97.5l-63 79q30 141 96 246t163.5 163.5t223.5 58.5q106 0 168 -37t88.5 -100.5t26.5 -142.5q0 -44 -8 -102.5t-25 -141.5t-43 -205l-76 -354h-354zM-2 0
l226 1062h356l-226 -1062h-356zM1326 0l85 390q17 80 27.5 134t15.5 89.5t5 60.5q0 33 -9.5 57.5t-33 38.5t-65.5 14q-43 0 -79 -19t-63.5 -52.5t-46.5 -78.5t-30 -95l-64 79q30 140 95 244t163 162.5t223 58.5q106 0 168.5 -37.5t90 -101t27.5 -143.5q0 -47 -7 -103.5
t-22.5 -136.5t-41.5 -202l-81 -359h-357z" />
    <glyph glyph-name="n" unicode="n" horiz-adv-x="1313" 
d="M741 0l94 432q18 84 27 136t9 87q0 57 -31.5 93t-113.5 36q-67 0 -119.5 -29.5t-87 -83.5t-50.5 -127l-68 71q22 106 72.5 192.5t122.5 148t159 94.5t182 33q162 0 238 -78.5t76 -210.5q0 -65 -17.5 -158.5t-48.5 -236.5l-88 -399h-356zM-2 0l226 1062h356l-226 -1062
h-356z" />
    <glyph glyph-name="o" unicode="o" horiz-adv-x="1309" 
d="M565 -24q-157 0 -272 57t-177.5 159t-62.5 238q0 144 53 263.5t147.5 207t220 135t269.5 47.5q157 0 272 -57t178 -159t63 -236q0 -146 -53.5 -266t-148 -207t-220 -134.5t-269.5 -47.5zM602 250q87 0 152.5 48t101.5 128.5t36 178.5q0 64 -19.5 109t-60.5 69.5
t-105 24.5q-66 0 -119.5 -27.5t-91.5 -76t-58.5 -112t-20.5 -136.5q0 -97 45 -151.5t140 -54.5z" />
    <glyph glyph-name="p" unicode="p" horiz-adv-x="1347" 
d="M-95 -437l319 1499h357l-318 -1499h-358zM691 -25q-109 0 -195 52.5t-135 144t-49 207.5q0 50 5 83t11 50l136 3q-3 -12 -5 -31.5t-2 -31.5q0 -54 25 -93t66 -59.5t90 -20.5q70 0 123.5 25t89.5 70t54 103.5t18 126.5q0 96 -48 141t-129 45q-54 0 -111 -25.5t-100.5 -74
t-58.5 -119.5l-137 9q31 146 113 259t195.5 178.5t239.5 65.5q179 0 291.5 -117.5t112.5 -331.5q0 -141 -42.5 -261t-121.5 -209t-190 -139t-246 -50z" />
    <glyph glyph-name="q" unicode="q" horiz-adv-x="1341" 
d="M439 -25q-178 0 -283.5 112.5t-105.5 323.5q0 137 46.5 258.5t130 214.5t195.5 146t245 53q109 0 191.5 -49t129 -135t46.5 -199q0 -30 -5 -70t-13 -71l-136 -1q3 13 5.5 32t2.5 31q0 55 -26 92.5t-67.5 57t-89.5 19.5q-65 0 -117.5 -24t-90 -67.5t-57.5 -101.5t-20 -124
q0 -95 49.5 -144.5t127.5 -49.5q56 0 113 27t100 77.5t58 120.5l139 -8q-31 -145 -117 -263t-204.5 -188t-246.5 -70zM668 -437l318 1499h357l-318 -1499h-357z" />
    <glyph glyph-name="r" unicode="r" horiz-adv-x="958" 
d="M-2 0l226 1062h357l-80 -380l-59 48q30 79 75 144.5t103 112t127.5 71.5t148.5 25q65 0 97 -9t39 -14l-120 -315q-8 5 -36.5 15.5t-75.5 10.5q-79 0 -138.5 -25.5t-101 -68t-67 -95t-37.5 -106.5l-100 -476h-358z" />
    <glyph glyph-name="s" unicode="s" horiz-adv-x="1134" 
d="M465 -25q-83 0 -164 19t-147 56t-105.5 92.5t-39.5 129.5q0 21 3.5 41.5t6.5 31.5h354q-2 -6 -3.5 -15t-1.5 -16q0 -40 38.5 -57.5t106.5 -17.5q37 0 77 8.5t67.5 29t27.5 56.5q0 33 -50 50t-154 34q-87 15 -171.5 44.5t-139.5 88t-55 156.5q0 97 46 168t124.5 117.5
t177.5 69t204 22.5q113 0 213 -36.5t163 -103.5t63 -159q0 -20 -3 -39t-6 -30h-350q3 6 4 13t1 16q0 28 -18.5 44.5t-46.5 25t-59 8.5t-69 -7.5t-65 -25.5t-27 -50q0 -35 47 -53.5t132 -32.5q55 -9 122 -25t127.5 -47t99.5 -80.5t39 -126.5q0 -103 -48.5 -178t-129.5 -124
t-182.5 -73t-208.5 -24z" />
    <glyph glyph-name="t" unicode="t" horiz-adv-x="985" 
d="M545 -24q-57 0 -117 8t-110.5 31.5t-81.5 69t-31 121.5q0 37 8 81t20 99l86 406h-241l58 270h38q69 0 112 7t68.5 32.5t42.5 77.5t35 141l18 91h358l-74 -349h301l-57 -270h-301l-72 -337q-11 -55 -17 -85.5t-6 -55.5q0 -32 15 -51t55 -19q35 0 68 7t50 13l-56 -262
q-24 -9 -69 -17.5t-100 -8.5z" />
    <glyph glyph-name="u" unicode="u" horiz-adv-x="1280" 
d="M366 -21q-108 0 -174 37t-95 100.5t-29 143.5q0 39 6 83t18 98l132 621h356l-114 -529q-10 -46 -15.5 -81.5t-5.5 -64.5q0 -50 28.5 -80.5t93.5 -30.5q66 0 119 35.5t89 94t51 126.5l69 -80q-22 -105 -70 -191.5t-117 -149.5t-155.5 -97.5t-186.5 -34.5zM712 0l226 1062
h356l-226 -1062h-356z" />
    <glyph glyph-name="v" unicode="v" horiz-adv-x="1143" 
d="M1250 1062l-544 -1062h-484l-102 1062h372l15 -967h-56l417 967h382z" />
    <glyph glyph-name="w" unicode="w" horiz-adv-x="1655" 
d="M845 0l29 1062h242l-3 -970l-50 -2l330 972h369l-432 -1062h-485zM100 0l20 1062h359l-84 -972l-55 2l407 970h260l-421 -1062h-486z" />
    <glyph glyph-name="x" unicode="x" horiz-adv-x="1212" 
d="M519 653l-41 -228l-330 637h369l226 -474l-205 10l367 464h402l-589 -644l50 149l305 -567h-370l-202 422l181 15l-375 -437h-409z" />
    <glyph glyph-name="y" unicode="y" horiz-adv-x="1132" 
d="M16 -463q-54 0 -100 3t-54 7l58 265q13 -7 44 -10t69 -3q45 0 84.5 17.5t72.5 49.5t57 76l22 41l-137 1079h362l30 -856h-41l381 856h376l-590 -1102q-73 -136 -153 -230.5t-193.5 -143.5t-287.5 -49z" />
    <glyph glyph-name="z" unicode="z" horiz-adv-x="1047" 
d="M389 272h549l-58 -272h-937l54 256l647 556l8 -21h-523l58 271h906l-54 -256l-642 -554z" />
    <glyph glyph-name="braceleft" unicode="{" horiz-adv-x="869" 
d="M947 1426q-54 0 -91.5 -18.5t-61.5 -60t-39 -110.5l-80 -373q-20 -96 -74 -150t-121 -76t-125 -24l4 18q50 -2 101.5 -18.5t86.5 -55t35 -108.5q0 -33 -15.5 -109.5t-36.5 -163.5q-21 -89 -37.5 -171t-16.5 -116q0 -55 31 -77t93 -22l-55 -258q-126 0 -222 22.5
t-150 76.5t-54 148q0 45 18 132.5t40 180.5q21 87 37 164.5t16 115.5q0 63 -33.5 95.5t-108.5 44.5l47 219q70 11 114.5 37t71 72.5t41.5 118.5l82 390q27 128 104 201t193.5 103.5t260.5 30.5z" />
    <glyph glyph-name="bar" unicode="|" horiz-adv-x="649" 
d="M-8 -280l391 1834h278l-391 -1834h-278z" />
    <glyph glyph-name="braceright" unicode="}" horiz-adv-x="869" 
d="M310 1426l55 259q127 0 222.5 -23.5t149.5 -78.5t54 -149q0 -37 -15.5 -113t-35.5 -162q-20 -87 -37 -167.5t-17 -119.5q0 -62 33.5 -94.5t108.5 -45.5l-47 -219q-70 -11 -114.5 -37t-70.5 -72.5t-42 -118.5l-90 -422q-27 -127 -103.5 -199t-192.5 -101.5t-260 -29.5
l55 258q82 0 124.5 38.5t65.5 142.5l88 409q21 97 74.5 150.5t120.5 76t125 24.5l-4 -18q-49 2 -101 18t-87 55t-35 108q0 30 15 100.5t33 151.5q20 84 35.5 162t15.5 113q0 55 -30 79.5t-93 24.5z" />
    <glyph glyph-name="asciitilde" unicode="~" horiz-adv-x="1319" 
d="M1036 728q-6 -58 -37 -115t-83.5 -95t-125.5 -38q-56 0 -86.5 22t-49.5 41q-20 22 -38.5 36.5t-45.5 14.5q-32 0 -51 -25.5t-24 -69.5h-176q6 59 37.5 116.5t86 96t129.5 38.5q51 0 82 -22t50 -43q20 -20 41.5 -34.5t45.5 -14.5q28 0 45.5 24t22.5 68h177z" />
    <glyph glyph-name="uni00A0" unicode="&#xa0;" horiz-adv-x="500" 
 />
    <glyph glyph-name="exclamdown" unicode="&#xa1;" horiz-adv-x="631" 
d="M-64 -419l306 1038h209l-157 -1038h-358zM393 1085q76 0 129 -53t53 -128q0 -74 -53 -127t-129 -53q-74 0 -126.5 53t-52.5 127q0 75 52.5 128t126.5 53z" />
    <glyph glyph-name="cent" unicode="&#xa2;" horiz-adv-x="1274" 
d="M780 1475h157l-314 -1475h-157zM605 187q-247 0 -376 127t-129 332q0 151 52 271t146 204.5t222.5 129t283.5 44.5q162 0 269.5 -57.5t161.5 -145.5t54 -181q0 -19 -2 -35t-4 -25h-353q1 6 1 11v12q0 34 -15 66t-52 53.5t-105 21.5t-123.5 -28t-94.5 -77.5t-60 -112
t-21 -131.5q0 -93 48 -146t135 -53q70 0 117.5 21.5t77 58t44.5 81.5h354q-13 -80 -61.5 -158t-129.5 -142t-192 -102.5t-248 -38.5z" />
    <glyph glyph-name="sterling" unicode="&#xa3;" horiz-adv-x="1222" 
d="M62 554l42 217h740l-43 -217h-739zM999 1094q-7 27 -29 60t-62.5 57t-108.5 24q-78 0 -138.5 -29.5t-95 -84.5t-34.5 -134q0 -45 10 -86t19 -88.5t9 -114.5q0 -106 -38 -219t-106 -215t-158 -177t-195 -104l-96 204q58 27 109 69t90.5 96.5t62 117.5t22.5 131
q0 61 -10.5 119.5t-22 121t-11.5 133.5q0 163 79 278t212 176.5t297 61.5q114 0 193.5 -26t130.5 -66t78.5 -83t37.5 -75zM1017 30q-21 -10 -96 -33t-174 -23q-78 0 -137 18.5t-116 36.5t-129 18q-65 0 -127 -13.5t-106.5 -28.5t-59.5 -22l16 34q16 5 46 36.5t72.5 74.5
t94.5 85t110.5 70.5t120.5 28.5q54 0 87.5 -10t58 -23t51.5 -22.5t68 -9.5q57 0 99.5 16.5t54.5 23.5z" />
    <glyph glyph-name="currency" unicode="&#xa4;" horiz-adv-x="1378" 
d="M1371 1309l130 -165l-307 -252l-130 164zM1122 90l-199 254l178 146l199 -253zM361 1309l199 -253l-178 -146l-200 252zM107 72l-130 166l307 253l131 -165zM648 147q-157 0 -272 57t-177.5 159t-62.5 238q0 144 53 263.5t147.5 207t220 135t269.5 47.5q157 0 272 -57
t178 -159t63 -236q0 -146 -53.5 -266t-148.5 -207t-220 -134.5t-269 -47.5zM685 421q87 0 152 48t101.5 128.5t36.5 178.5q0 64 -20 109t-60.5 69.5t-104.5 24.5q-66 0 -119.5 -27.5t-91.5 -76t-58.5 -112t-20.5 -136.5q0 -97 45 -151.5t140 -54.5z" />
    <glyph glyph-name="yen" unicode="&#xa5;" horiz-adv-x="1314" 
d="M171 499l57 218h969l-58 -218h-968zM90 176l57 218h969l-58 -218h-968zM1468 1475l-637 -968l-110 -507h-355l108 507l-225 968h369l130 -797h-142l475 797h387z" />
    <glyph glyph-name="brokenbar" unicode="&#xa6;" horiz-adv-x="649" 
d="M-2 -258l162 765h278l-162 -765h-278zM221 791l162 763h278l-162 -763h-278z" />
    <glyph glyph-name="section" unicode="&#xa7;" horiz-adv-x="1285" 
d="M799 201l-216 77q56 15 122.5 53t114.5 92.5t48 117.5q0 44 -27.5 82t-78 73.5t-118.5 70.5q-90 46 -169 101t-128 122t-49 149q0 115 70 192t183.5 116t243.5 39q184 0 288 -67.5t104 -196.5q0 -22 -4.5 -50t-9.5 -51h-300q5 21 8.5 46.5t3.5 40.5q0 29 -9 47.5t-25 30
t-37.5 16.5t-46.5 5q-49 0 -86.5 -17t-59.5 -47.5t-22 -73.5q0 -45 35.5 -83.5t90.5 -71t114 -60.5q80 -38 147 -81t107.5 -101t40.5 -143q0 -94 -48.5 -180.5t-124.5 -152t-162 -95.5zM453 -303q-184 0 -288 68t-104 196q0 22 4.5 50t9.5 51h300q-5 -21 -9 -46.5t-4 -40.5
q0 -29 9 -47.5t25.5 -30.5t38 -16.5t46.5 -4.5q47 0 85 16.5t60 47t22 71.5q0 50 -36.5 89.5t-91.5 71t-111 57.5q-79 38 -146.5 80.5t-108 101.5t-40.5 143q0 94 48.5 180.5t125 152t161.5 95.5l216 -77q-56 -15 -122.5 -53t-114.5 -92t-48 -118q0 -44 27.5 -82t78.5 -73.5
t118 -70.5q91 -46 170 -100.5t127 -122.5t48 -154q0 -112 -64 -188t-176 -115t-256 -39z" />
    <glyph glyph-name="dieresis" unicode="&#xa8;" horiz-adv-x="911" 
d="M358 1203q-69 0 -119 34.5t-50 98.5q0 78 61 120t138 42q69 0 119 -34t50 -99q0 -78 -61 -120t-138 -42zM872 1203q-69 0 -119 34.5t-50 98.5q0 78 61 120t138 42q69 0 119 -34t50 -99q0 -78 -61 -120t-138 -42z" />
    <glyph glyph-name="copyright" unicode="&#xa9;" horiz-adv-x="1675" 
d="M743 28q-179 0 -313.5 68t-208.5 193t-74 295q0 183 67.5 340.5t187 275.5t278.5 184.5t343 66.5q179 0 312.5 -68t207.5 -192.5t74 -294.5q0 -181 -67 -338.5t-187 -276.5t-278.5 -186t-341.5 -67zM758 147q153 0 287 58t235.5 159.5t159 234t57.5 282.5
q0 140 -61.5 241.5t-171.5 156t-255 54.5q-152 0 -286 -56t-236 -155.5t-160 -231t-58 -283.5q0 -143 60.5 -246.5t171 -158.5t257.5 -55zM794 262q-105 0 -191.5 42t-138 124t-51.5 201q0 123 42 229.5t118 188t179.5 127.5t225.5 46q97 0 167.5 -27.5t117 -73t69.5 -99.5
t23 -108q0 -21 -3 -40t-8 -40h-257q2 10 4.5 25.5t2.5 26.5q0 23 -8 47t-25.5 44.5t-46 32.5t-69.5 12q-91 0 -152.5 -56.5t-92 -144.5t-30.5 -185q0 -86 40 -128.5t117 -42.5q61 0 107 26.5t75.5 69.5t39.5 91h257q-26 -119 -100 -206.5t-181 -134.5t-231 -47z" />
    <glyph glyph-name="ordfeminine" unicode="&#xaa;" horiz-adv-x="714" 
d="M711 1021h-143q0 25 2.5 55.5t7.5 52.5l37 168q2 10 4.5 23t2.5 20q0 22 -19.5 32t-60.5 10q-51 0 -83 -16.5t-39 -49.5h-138q17 82 96.5 126t184.5 44q87 0 145.5 -31.5t58.5 -102.5q0 -17 -2.5 -32.5t-6.5 -29.5l-33 -159q-5 -23 -9.5 -57.5t-4.5 -52.5zM393 1014
q-73 0 -119.5 27t-46.5 89q0 54 36 85t93.5 47t119.5 22q79 8 112 21t34 31l24 -75q-7 -17 -51 -32.5t-113 -24.5q-48 -6 -74.5 -15t-26.5 -31t18 -30.5t55 -8.5q30 0 61 12t55 36.5t32 62.5l36 -50q-16 -76 -88 -121t-157 -45z" />
    <glyph glyph-name="guillemotleft" unicode="&#xab;" horiz-adv-x="954" 
d="M625 885l-393 -320l254 -314h-202l-254 314l385 320h210zM1007 885l-393 -320l251 -314h-201l-254 314l385 320h212z" />
    <glyph glyph-name="logicalnot" unicode="&#xac;" horiz-adv-x="1319" 
d="M762 284l89 416l126 -161h-718l47 218h774l-101 -473h-217z" />
    <glyph glyph-name="uni00AD" unicode="&#xad;" horiz-adv-x="689" 
d="M47 458l46 217h523l-46 -217h-523z" />
    <glyph glyph-name="registered" unicode="&#xae;" horiz-adv-x="1189" 
d="M587 498q-129 0 -226 52.5t-151 144.5t-54 209q0 120 49.5 224t136.5 182.5t199 123t236 44.5q128 0 225.5 -52.5t151.5 -144t54 -208.5q0 -119 -50 -223.5t-137 -183.5t-198.5 -123.5t-235.5 -44.5zM599 599q107 0 197.5 36.5t158.5 102t105.5 152.5t37.5 189
q0 134 -86.5 216t-247.5 82q-106 0 -196.5 -36.5t-158.5 -101.5t-106 -152.5t-38 -188.5q0 -134 87.5 -216.5t246.5 -82.5zM428 709l119 563h201q81 0 125.5 -30.5t44.5 -87.5q0 -56 -33 -106.5t-89 -56.5q26 -2 39.5 -17.5t13.5 -41.5q0 -18 -9 -56.5t-18 -78t-9 -62.5
q0 -20 5 -26h-128q-1 2 -1 6v12q0 26 7 57.5t14.5 61t7.5 48.5t-9.5 27.5t-25.5 10.5t-38 2h-43l-47 -225h-127zM625 1041h63q52 0 78.5 27.5t26.5 60.5q0 20 -15.5 32t-51.5 12h-73z" />
    <glyph glyph-name="macron" unicode="&#xaf;" horiz-adv-x="875" 
d="M264 1276l31 146h658l-31 -146h-658z" />
    <glyph glyph-name="degree" unicode="&#xb0;" horiz-adv-x="652" 
d="M474 1235q37 0 74 30t37 79q0 27 -17.5 48.5t-55.5 21.5t-74.5 -30.5t-36.5 -78.5q0 -26 17.5 -48t55.5 -22zM453 1083q-99 0 -153 56t-54 137q0 82 42 147.5t108 103.5t137 38q96 0 151.5 -57.5t55.5 -138.5t-44 -145.5t-110 -102.5t-133 -38z" />
    <glyph glyph-name="plusminus" unicode="&#xb1;" horiz-adv-x="1319" 
d="M181 115l44 220h782l-45 -220h-781zM1076 618h-287l-49 -226h-221l48 226h-287l43 220h286l50 227h222l-48 -227h287z" />
    <glyph glyph-name="uni00B2" unicode="&#xb2;" horiz-adv-x="1028" 
d="M77 590l50 234q14 11 75 37.5t143 60t160 66.5q57 25 120.5 57.5t108.5 72t45 84.5q0 33 -29.5 53t-93.5 20q-90 0 -130.5 -35.5t-52.5 -95.5h-287q35 166 167 257t345 91q190 0 280 -76t90 -184q0 -93 -51 -154t-130 -103.5t-163 -78.5q-47 -21 -94.5 -40.5t-82 -34
t-42.5 -22.5h465l-45 -209h-848z" />
    <glyph glyph-name="uni00B3" unicode="&#xb3;" horiz-adv-x="1041" 
d="M882 1057q83 -2 119.5 -41t36.5 -101q0 -110 -66.5 -186.5t-175.5 -116t-240 -39.5q-146 0 -229.5 37.5t-118 96t-34.5 121.5q0 22 3.5 41t4.5 26h286q-1 -3 -2.5 -13.5t-1.5 -19.5q0 -45 36.5 -59t96.5 -14q41 0 76.5 12t57 35.5t21.5 57.5t-38.5 48t-85.5 14h-31
l39 184h31q34 0 70 7.5t60.5 25t24.5 45.5q0 31 -31.5 45.5t-85.5 14.5q-65 0 -114 -19.5t-61 -74.5h-287q17 73 72.5 144t159 117.5t260.5 46.5q136 0 220.5 -30t124 -78t39.5 -103q0 -93 -69 -157t-168 -67z" />
    <glyph glyph-name="acute" unicode="&#xb4;" horiz-adv-x="607" 
d="M213 1194l238 281h264l-277 -281h-225z" />
    <glyph glyph-name="uni00B5" unicode="&#xb5;" horiz-adv-x="1274" 
d="M703 0l225 1062h357l-225 -1062h-357zM814 520l85 -80q-19 -92 -58 -175t-93 -147t-121.5 -100.5t-145.5 -36.5q-67 0 -94.5 22.5t-33.5 45.5l-102 -486h-357l318 1499h357l-112 -522q-7 -31 -14 -73.5t-7 -68.5q0 -54 26.5 -89t96.5 -35q66 0 118.5 34.5t88 91
t48.5 120.5z" />
    <glyph glyph-name="paragraph" unicode="&#xb6;" horiz-adv-x="1420" 
d="M511 -170l159 739h-14q-162 0 -259 52.5t-140 137.5t-43 184q0 168 77.5 286.5t216 181t321.5 62.5h646l-350 -1643h-243l306 1425h-130l-306 -1425h-241z" />
    <glyph glyph-name="periodcentered" unicode="&#xb7;" horiz-adv-x="630" 
d="M342 563q-75 0 -128 52.5t-53 128.5q0 74 53 127t128 53q74 0 127 -53t53 -127q0 -76 -53 -128.5t-127 -52.5z" />
    <glyph glyph-name="cedilla" unicode="&#xb8;" horiz-adv-x="942" 
d="M419 -65q49 0 95 -28.5t46 -96.5q0 -75 -45 -124.5t-117 -74t-151 -24.5q-43 0 -90.5 7.5t-86 20t-56.5 25.5l86 127q18 -12 67 -31t101 -19q58 0 98.5 22t40.5 64q0 23 -16 33.5t-39 10.5q-24 0 -48.5 -8t-38.5 -25l-127 36l94 150h151l-75 -118l-14 1q13 24 45.5 38
t79.5 14z" />
    <glyph glyph-name="uni00B9" unicode="&#xb9;" horiz-adv-x="732" 
d="M725 1474l-188 -884h-285l134 628q-10 -9 -46 -22.5t-86 -24.5t-102 -12l44 203q53 5 103.5 22t90 41.5t55.5 48.5h280z" />
    <glyph glyph-name="ordmasculine" unicode="&#xba;" horiz-adv-x="797" 
d="M542 1018q-66 0 -124.5 28t-94 79.5t-35.5 123.5q0 71 35.5 123t94 80.5t124.5 28.5q69 0 128 -28.5t95.5 -80.5t36.5 -123q0 -72 -36.5 -123.5t-95.5 -79.5t-128 -28zM542 1144q30 0 56.5 10.5t44 34t17.5 60.5q0 38 -17.5 60.5t-44 33.5t-56.5 11q-27 0 -53.5 -11
t-43 -33.5t-16.5 -60.5q0 -37 16.5 -60.5t43 -34t53.5 -10.5z" />
    <glyph glyph-name="guillemotright" unicode="&#xbb;" horiz-adv-x="926" 
d="M451 885h205l255 -320l-389 -314h-205l392 314zM98 885h205l254 -320l-385 -314h-207l389 314z" />
    <glyph glyph-name="onequarter" unicode="&#xbc;" horiz-adv-x="2086" 
d="M725 1474l-188 -884h-285l134 628q-10 -9 -46 -22.5t-86 -24.5t-102 -12l44 203q53 5 103.5 22t90 41.5t55.5 48.5h280zM111 0l1420 1475h254l-1420 -1475h-254zM1476 0l31 149h-464l38 176l504 559h365l-116 -544h134l-41 -191h-134l-31 -149h-286zM1268 226l-50 114
h330l78 366l51 -16z" />
    <glyph glyph-name="onehalf" unicode="&#xbd;" horiz-adv-x="2105" 
d="M725 1474l-188 -884h-285l134 628q-10 -9 -46 -22.5t-86 -24.5t-102 -12l44 203q53 5 103.5 22t90 41.5t55.5 48.5h280zM111 0l1420 1475h254l-1420 -1475h-254zM1023 0l50 234q14 11 75 37.5t143 60t160 66.5q57 25 120.5 57.5t108.5 72t45 84.5q0 33 -29.5 53t-93.5 20
q-90 0 -130.5 -35.5t-52.5 -95.5h-287q35 166 167 257t345 91q190 0 280 -76t90 -184q0 -93 -51 -154t-130 -103.5t-163 -78.5q-47 -21 -94.5 -40.5t-82 -34t-42.5 -22.5h465l-45 -209h-848z" />
    <glyph glyph-name="threequarters" unicode="&#xbe;" horiz-adv-x="2395" 
d="M882 1057q83 -2 119.5 -41t36.5 -101q0 -110 -66.5 -186.5t-175.5 -116t-240 -39.5q-146 0 -229.5 37.5t-118 96t-34.5 121.5q0 22 3.5 41t4.5 26h286q-1 -3 -2.5 -13.5t-1.5 -19.5q0 -45 36.5 -59t96.5 -14q41 0 76.5 12t57 35.5t21.5 57.5t-38.5 48t-85.5 14h-31
l39 184h31q34 0 70 7.5t60.5 25t24.5 45.5q0 31 -31.5 45.5t-85.5 14.5q-65 0 -114 -19.5t-61 -74.5h-287q17 73 72.5 144t159 117.5t260.5 46.5q136 0 220.5 -30t124 -78t39.5 -103q0 -93 -69 -157t-168 -67zM420 0l1420 1475h254l-1420 -1475h-254zM1785 0l31 149h-464
l38 176l504 559h365l-116 -544h134l-41 -191h-134l-31 -149h-286zM1577 226l-50 114h330l78 366l51 -16z" />
    <glyph glyph-name="questiondown" unicode="&#xbf;" horiz-adv-x="1146" 
d="M773 629q-17 -96 -60.5 -169.5t-100 -131t-112.5 -107.5q-50 -44 -92 -87t-68 -90.5t-26 -105.5q0 -61 32 -95t101 -34q86 0 145.5 58t84.5 178h313q-36 -169 -119.5 -274.5t-200 -154t-251.5 -48.5q-119 0 -214 36.5t-150 110.5t-55 186q0 113 39.5 190t102 133
t127.5 106q54 41 103 83.5t84.5 94.5t48.5 121h268zM671 1085q75 0 127.5 -53t52.5 -128q0 -74 -52.5 -127t-127.5 -53t-127.5 53t-52.5 127q0 75 52.5 128t127.5 53z" />
    <glyph glyph-name="Agrave" unicode="&#xc0;" horiz-adv-x="1370" 
d="M-65 0l670 1476h566l40 -1476h-350l-3 1261h2l-543 -1261h-382zM287 326l58 273h714l-57 -273h-715zM1084 1561h-237l-307 215h274z" />
    <glyph glyph-name="Aacute" unicode="&#xc1;" horiz-adv-x="1370" 
d="M-65 0l670 1476h566l40 -1476h-350l-3 1261h2l-543 -1261h-382zM287 326l58 273h714l-57 -273h-715zM719 1561l270 215h274l-308 -215h-236z" />
    <glyph glyph-name="Acircumflex" unicode="&#xc2;" horiz-adv-x="1370" 
d="M-65 0l670 1476h566l40 -1476h-350l-3 1261h2l-543 -1261h-382zM287 326l58 273h714l-57 -273h-715zM563 1559l273 216h226l226 -216h-219l-169 166h92l-203 -166h-226z" />
    <glyph glyph-name="Atilde" unicode="&#xc3;" horiz-adv-x="1370" 
d="M-65 0l670 1476h566l40 -1476h-350l-3 1261h2l-543 -1261h-382zM287 326l58 273h714l-57 -273h-715zM1286 1794q-5 -58 -36 -115.5t-84 -95.5t-125 -38q-56 0 -87 22t-50 42q-19 21 -37.5 35.5t-46.5 14.5q-32 0 -50.5 -25t-23.5 -70h-177q7 59 38.5 116.5t86 96
t128.5 38.5q51 0 82 -22t51 -42q20 -21 41 -35.5t45 -14.5q29 0 46.5 24t22.5 69h176z" />
    <glyph glyph-name="Adieresis" unicode="&#xc4;" horiz-adv-x="1370" 
d="M-65 0l670 1476h566l40 -1476h-350l-3 1261h2l-543 -1261h-382zM287 326l58 273h714l-57 -273h-715zM663 1536q-69 0 -119 34.5t-50 98.5q0 78 61 120t138 42q69 0 119 -34t50 -99q0 -78 -61 -120t-138 -42zM1177 1536q-69 0 -119 34.5t-50 98.5q0 78 61 120t138 42
q69 0 119 -34t50 -99q0 -78 -61 -120t-138 -42z" />
    <glyph glyph-name="Aring" unicode="&#xc5;" horiz-adv-x="1370" 
d="M-65 0l670 1476h566l40 -1476h-350l-3 1261h2l-543 -1261h-382zM287 326l58 273h714l-57 -273h-715zM941 1668q37 0 63.5 26t26.5 63q0 38 -26.5 64t-63.5 26t-63.5 -26t-26.5 -64q0 -37 26.5 -63t63.5 -26zM941 1516q-66 0 -121 33t-87.5 87.5t-32.5 120.5
q0 67 32.5 121.5t87.5 87t121 32.5q67 0 121 -32.5t87 -87t33 -120.5q0 -67 -33 -121.5t-87 -87.5t-121 -33z" />
    <glyph glyph-name="AE" unicode="&#xc6;" horiz-adv-x="1998" 
d="M-109 0l1094 1475h1098l-58 -270h-702l142 116l-117 -549l-80 103h575l-56 -270h-567l112 94l-112 -530l-80 101h686l-57 -270h-928l252 1186l23 -21l-836 -1165h-389zM349 273l124 257h643l-54 -257h-713z" />
    <glyph glyph-name="Ccedilla" unicode="&#xc7;" horiz-adv-x="1439" 
d="M1370 548q-21 -98 -77 -199t-147 -185.5t-216 -136.5t-284 -52q-186 0 -305.5 77.5t-177 212t-57.5 305.5q0 199 60 368.5t169.5 295t260.5 195.5t333 70q183 0 297.5 -66.5t168 -170.5t53.5 -220q0 -30 -3 -59t-10 -56h-358q4 16 6.5 41t2.5 43q0 63 -20.5 109t-63.5 72
t-112 26q-105 0 -184 -60t-132.5 -158t-80 -215.5t-26.5 -230.5q0 -143 56.5 -221t160.5 -78q63 0 117 23t96.5 63.5t72 93.5t42.5 113h358zM747 -68q49 0 95 -28t46 -97q0 -75 -45.5 -124.5t-117 -74t-151.5 -24.5q-42 0 -89.5 7.5t-86.5 20.5t-57 25l87 127
q18 -12 67 -30.5t101 -18.5q58 0 98 21.5t40 63.5q0 23 -15.5 34t-39.5 11q-23 0 -48 -8.5t-38 -25.5l-126 36l94 150h149l-76 -118l-10 1q12 24 43.5 38t79.5 14z" />
    <glyph glyph-name="Egrave" unicode="&#xc8;" horiz-adv-x="1159" 
d="M458 1205l196 165l-127 -593l-59 98h537l-57 -270h-537l100 97l-126 -597l-126 165h729l-58 -270h-927l314 1475h927l-58 -270h-728zM981 1561h-237l-307 215h274z" />
    <glyph glyph-name="Eacute" unicode="&#xc9;" horiz-adv-x="1159" 
d="M458 1205l196 165l-127 -593l-59 98h537l-57 -270h-537l100 97l-126 -597l-126 165h729l-58 -270h-927l314 1475h927l-58 -270h-728zM616 1561l270 215h274l-308 -215h-236z" />
    <glyph glyph-name="Ecircumflex" unicode="&#xca;" horiz-adv-x="1159" 
d="M458 1205l196 165l-127 -593l-59 98h537l-57 -270h-537l100 97l-126 -597l-126 165h729l-58 -270h-927l314 1475h927l-58 -270h-728zM460 1559l273 216h226l226 -216h-219l-169 166h92l-203 -166h-226z" />
    <glyph glyph-name="Edieresis" unicode="&#xcb;" horiz-adv-x="1159" 
d="M458 1205l196 165l-127 -593l-59 98h537l-57 -270h-537l100 97l-126 -597l-126 165h729l-58 -270h-927l314 1475h927l-58 -270h-728zM559 1536q-69 0 -119 34.5t-50 98.5q0 78 61 120t138 42q69 0 119 -34t50 -99q0 -78 -61 -120t-138 -42zM1073 1536q-69 0 -119 34.5
t-50 98.5q0 78 61 120t138 42q69 0 119 -34t50 -99q0 -78 -61 -120t-138 -42z" />
    <glyph glyph-name="Igrave" unicode="&#xcc;" horiz-adv-x="584" 
d="M-2 0l314 1475h357l-313 -1475h-358zM688 1561h-237l-307 215h274z" />
    <glyph glyph-name="Iacute" unicode="&#xcd;" horiz-adv-x="584" 
d="M-2 0l314 1475h357l-313 -1475h-358zM323 1561l270 215h274l-308 -215h-236z" />
    <glyph glyph-name="Icircumflex" unicode="&#xce;" horiz-adv-x="584" 
d="M-2 0l314 1475h357l-313 -1475h-358zM167 1559l273 216h226l226 -216h-219l-169 166h92l-203 -166h-226z" />
    <glyph glyph-name="Idieresis" unicode="&#xcf;" horiz-adv-x="584" 
d="M-2 0l314 1475h357l-313 -1475h-358zM319 1546q-70 0 -120 34.5t-50 98.5q0 78 61 120t138 42q69 0 119 -34t50 -99q0 -78 -61 -120t-137 -42zM725 1546q-70 0 -119.5 34.5t-49.5 98.5q0 78 60.5 120t137.5 42q69 0 119.5 -34t50.5 -99q0 -78 -61 -120t-138 -42z" />
    <glyph glyph-name="Eth" unicode="&#xd0;" horiz-adv-x="1368" 
d="M34 655l35 160h739l-34 -160h-740zM3 0l314 1475h504q175 0 293.5 -74t179 -201t60.5 -286q0 -192 -65.5 -358.5t-180.5 -291t-266.5 -194.5t-324.5 -70h-514zM384 109l-127 173h268q100 0 184.5 51.5t147.5 137.5t98.5 194t35.5 221q0 94 -30.5 163t-89.5 106.5
t-145 37.5h-269l195 174z" />
    <glyph glyph-name="Ntilde" unicode="&#xd1;" horiz-adv-x="1514" 
d="M351 0h-348l314 1475h581l87 -1359l-25 -14l292 1373h347l-314 -1475h-585l-88 1354l30 14zM1385 1794q-5 -58 -36 -115.5t-84 -95.5t-125 -38q-56 0 -87 22t-50 42q-19 21 -37.5 35.5t-46.5 14.5q-32 0 -50.5 -25t-23.5 -70h-177q7 59 38.5 116.5t86 96t128.5 38.5
q51 0 82 -22t51 -42q20 -21 41 -35.5t45 -14.5q29 0 46.5 24t22.5 69h176z" />
    <glyph glyph-name="Ograve" unicode="&#xd2;" horiz-adv-x="1535" 
d="M676 -25q-161 0 -290.5 68.5t-204.5 202t-75 328.5q0 194 60 361.5t171 294t265.5 198t343.5 71.5q164 0 292.5 -67.5t203.5 -199t75 -326.5q0 -192 -60.5 -360.5t-172.5 -297t-266 -201t-342 -72.5zM708 256q115 0 199 58t139 153.5t82 211t27 230.5t-32 182.5t-86.5 97
t-123.5 29.5q-115 0 -199 -55.5t-139 -148.5t-81 -207t-26 -232q0 -176 68.5 -247.5t171.5 -71.5zM1146 1561h-237l-307 215h274z" />
    <glyph glyph-name="Oacute" unicode="&#xd3;" horiz-adv-x="1535" 
d="M676 -25q-161 0 -290.5 68.5t-204.5 202t-75 328.5q0 194 60 361.5t171 294t265.5 198t343.5 71.5q164 0 292.5 -67.5t203.5 -199t75 -326.5q0 -192 -60.5 -360.5t-172.5 -297t-266 -201t-342 -72.5zM708 256q115 0 199 58t139 153.5t82 211t27 230.5t-32 182.5t-86.5 97
t-123.5 29.5q-115 0 -199 -55.5t-139 -148.5t-81 -207t-26 -232q0 -176 68.5 -247.5t171.5 -71.5zM781 1561l270 215h274l-308 -215h-236z" />
    <glyph glyph-name="Ocircumflex" unicode="&#xd4;" horiz-adv-x="1535" 
d="M676 -25q-161 0 -290.5 68.5t-204.5 202t-75 328.5q0 194 60 361.5t171 294t265.5 198t343.5 71.5q164 0 292.5 -67.5t203.5 -199t75 -326.5q0 -192 -60.5 -360.5t-172.5 -297t-266 -201t-342 -72.5zM708 256q115 0 199 58t139 153.5t82 211t27 230.5t-32 182.5t-86.5 97
t-123.5 29.5q-115 0 -199 -55.5t-139 -148.5t-81 -207t-26 -232q0 -176 68.5 -247.5t171.5 -71.5zM625 1559l273 216h226l226 -216h-219l-169 166h92l-203 -166h-226z" />
    <glyph glyph-name="Otilde" unicode="&#xd5;" horiz-adv-x="1535" 
d="M676 -25q-161 0 -290.5 68.5t-204.5 202t-75 328.5q0 194 60 361.5t171 294t265.5 198t343.5 71.5q164 0 292.5 -67.5t203.5 -199t75 -326.5q0 -192 -60.5 -360.5t-172.5 -297t-266 -201t-342 -72.5zM708 256q115 0 199 58t139 153.5t82 211t27 230.5t-32 182.5t-86.5 97
t-123.5 29.5q-115 0 -199 -55.5t-139 -148.5t-81 -207t-26 -232q0 -176 68.5 -247.5t171.5 -71.5zM1348 1794q-5 -58 -36 -115.5t-84 -95.5t-125 -38q-56 0 -87 22t-50 42q-19 21 -37.5 35.5t-46.5 14.5q-32 0 -50.5 -25t-23.5 -70h-177q7 59 38.5 116.5t86 96t128.5 38.5
q51 0 82 -22t51 -42q20 -21 41 -35.5t45 -14.5q29 0 46.5 24t22.5 69h176z" />
    <glyph glyph-name="Odieresis" unicode="&#xd6;" horiz-adv-x="1535" 
d="M676 -25q-161 0 -290.5 68.5t-204.5 202t-75 328.5q0 194 60 361.5t171 294t265.5 198t343.5 71.5q164 0 292.5 -67.5t203.5 -199t75 -326.5q0 -192 -60.5 -360.5t-172.5 -297t-266 -201t-342 -72.5zM708 256q115 0 199 58t139 153.5t82 211t27 230.5t-32 182.5t-86.5 97
t-123.5 29.5q-115 0 -199 -55.5t-139 -148.5t-81 -207t-26 -232q0 -176 68.5 -247.5t171.5 -71.5zM725 1536q-69 0 -119 34.5t-50 98.5q0 78 61 120t138 42q69 0 119 -34t50 -99q0 -78 -61 -120t-138 -42zM1239 1536q-69 0 -119 34.5t-50 98.5q0 78 61 120t138 42
q69 0 119 -34t50 -99q0 -78 -61 -120t-138 -42z" />
    <glyph glyph-name="multiply" unicode="&#xd7;" horiz-adv-x="1319" 
d="M370 173l-142 155l701 542l143 -154zM997 319l-189 -148l-496 552l187 147z" />
    <glyph glyph-name="Oslash" unicode="&#xd8;" horiz-adv-x="1535" 
d="M1501 1487l-1316 -1603l-160 105l1314 1603zM676 -25q-161 0 -290.5 68.5t-204.5 202t-75 328.5q0 194 60 361.5t171 294t265.5 198t343.5 71.5q164 0 292.5 -67.5t203.5 -199t75 -326.5q0 -192 -60.5 -360.5t-172.5 -297t-266 -201t-342 -72.5zM708 256q115 0 199 58
t139 153.5t82 211t27 230.5t-32 182.5t-86.5 97t-123.5 29.5q-115 0 -199 -55.5t-139 -148.5t-81 -207t-26 -232q0 -176 68.5 -247.5t171.5 -71.5z" />
    <glyph glyph-name="Ugrave" unicode="&#xd9;" horiz-adv-x="1373" 
d="M1257 529q-59 -278 -233 -416t-424 -138q-239 0 -368 101.5t-129 300.5q0 68 12 136.5t36 179.5l170 782h357l-181 -836q-12 -57 -19.5 -97t-11 -70.5t-3.5 -62.5q0 -78 39.5 -116t126.5 -38q114 0 177.5 66t91.5 200l203 954h357zM1097 1561h-237l-307 215h274z" />
    <glyph glyph-name="Uacute" unicode="&#xda;" horiz-adv-x="1373" 
d="M1257 529q-59 -278 -233 -416t-424 -138q-239 0 -368 101.5t-129 300.5q0 68 12 136.5t36 179.5l170 782h357l-181 -836q-12 -57 -19.5 -97t-11 -70.5t-3.5 -62.5q0 -78 39.5 -116t126.5 -38q114 0 177.5 66t91.5 200l203 954h357zM732 1561l270 215h274l-308 -215h-236z
" />
    <glyph glyph-name="Ucircumflex" unicode="&#xdb;" horiz-adv-x="1373" 
d="M1257 529q-59 -278 -233 -416t-424 -138q-239 0 -368 101.5t-129 300.5q0 68 12 136.5t36 179.5l170 782h357l-181 -836q-12 -57 -19.5 -97t-11 -70.5t-3.5 -62.5q0 -78 39.5 -116t126.5 -38q114 0 177.5 66t91.5 200l203 954h357zM575 1559l273 216h226l226 -216h-219
l-169 166h92l-203 -166h-226z" />
    <glyph glyph-name="Udieresis" unicode="&#xdc;" horiz-adv-x="1373" 
d="M1257 529q-59 -278 -233 -416t-424 -138q-239 0 -368 101.5t-129 300.5q0 68 12 136.5t36 179.5l170 782h357l-181 -836q-12 -57 -19.5 -97t-11 -70.5t-3.5 -62.5q0 -78 39.5 -116t126.5 -38q114 0 177.5 66t91.5 200l203 954h357zM675 1536q-69 0 -119 34.5t-50 98.5
q0 78 61 120t138 42q69 0 119 -34t50 -99q0 -78 -61 -120t-138 -42zM1189 1536q-69 0 -119 34.5t-50 98.5q0 78 61 120t138 42q69 0 119 -34t50 -99q0 -78 -61 -120t-138 -42z" />
    <glyph glyph-name="Yacute" unicode="&#xdd;" horiz-adv-x="1314" 
d="M1468 1475l-637 -968l-110 -507h-355l108 507l-225 968h369l130 -797h-142l475 797h387zM704 1561l270 215h274l-308 -215h-236z" />
    <glyph glyph-name="Thorn" unicode="&#xde;" horiz-adv-x="1219" 
d="M3 0l314 1473h357l-88 -411l-59 90h257q197 0 303 -84.5t106 -252.5q0 -165 -77 -278.5t-210.5 -172t-300.5 -58.5h-262l100 84l-83 -390h-357zM463 485l-58 91h220q58 0 106 22t76 63.5t28 99.5q0 61 -37 90.5t-106 29.5h-224l100 95z" />
    <glyph glyph-name="germandbls" unicode="&#xdf;" horiz-adv-x="1287" 
d="M-31 0l201 946q37 175 111 283t168 165.5t194.5 78t191.5 20.5q115 0 212 -36t156 -104t59 -164q0 -91 -40.5 -164.5t-112.5 -130.5q-32 -25 -55.5 -50t-23.5 -52q0 -24 17 -50t47 -57q37 -36 72 -89t35 -130q0 -156 -74 -263t-206 -161.5t-306 -54.5q-34 0 -73 3t-72 8
t-48 10l101 268q16 -7 49 -16t77 -9q61 0 104.5 18t67 53.5t23.5 90.5q0 41 -16.5 76.5t-46.5 70.5q-33 38 -62.5 86.5t-29.5 105.5q0 73 33.5 125t86.5 91q47 36 79.5 72t32.5 85q0 41 -27.5 69t-98.5 28q-111 0 -177 -71t-104 -250l-192 -901h-353z" />
    <glyph glyph-name="agrave" unicode="&#xe0;" horiz-adv-x="1348" 
d="M472 -25q-121 0 -216 51.5t-148.5 153t-53.5 250.5q0 136 44.5 254.5t126 208.5t193 140t243.5 50q107 0 195 -48t140 -135.5t52 -206.5q0 -28 -4.5 -66.5t-12.5 -67.5l-134 -7q3 15 5.5 32.5t2.5 31.5q0 56 -27 94t-70 57t-91 19q-62 0 -114 -22.5t-90.5 -63t-59.5 -97
t-21 -123.5q0 -69 23.5 -114.5t65 -69t94.5 -23.5q60 0 116 26t98 76.5t57 124.5l133 -17q-33 -158 -116 -272t-195.5 -175t-235.5 -61zM1136 0h-357l225 1062h357zM955 1194h-226l-276 281h264z" />
    <glyph glyph-name="aacute" unicode="&#xe1;" horiz-adv-x="1348" 
d="M472 -25q-121 0 -216 51.5t-148.5 153t-53.5 250.5q0 136 44.5 254.5t126 208.5t193 140t243.5 50q107 0 195 -48t140 -135.5t52 -206.5q0 -28 -4.5 -66.5t-12.5 -67.5l-134 -7q3 15 5.5 32.5t2.5 31.5q0 56 -27 94t-70 57t-91 19q-62 0 -114 -22.5t-90.5 -63t-59.5 -97
t-21 -123.5q0 -69 23.5 -114.5t65 -69t94.5 -23.5q60 0 116 26t98 76.5t57 124.5l133 -17q-33 -158 -116 -272t-195.5 -175t-235.5 -61zM1136 0h-357l225 1062h357zM602 1194l238 281h264l-277 -281h-225z" />
    <glyph glyph-name="acircumflex" unicode="&#xe2;" horiz-adv-x="1348" 
d="M472 -25q-121 0 -216 51.5t-148.5 153t-53.5 250.5q0 136 44.5 254.5t126 208.5t193 140t243.5 50q107 0 195 -48t140 -135.5t52 -206.5q0 -28 -4.5 -66.5t-12.5 -67.5l-134 -7q3 15 5.5 32.5t2.5 31.5q0 56 -27 94t-70 57t-91 19q-62 0 -114 -22.5t-90.5 -63t-59.5 -97
t-21 -123.5q0 -69 23.5 -114.5t65 -69t94.5 -23.5q60 0 116 26t98 76.5t57 124.5l133 -17q-33 -158 -116 -272t-195.5 -175t-235.5 -61zM1136 0h-357l225 1062h357zM433 1194l279 281h224l219 -281h-217l-165 217h93l-209 -217h-224z" />
    <glyph glyph-name="atilde" unicode="&#xe3;" horiz-adv-x="1348" 
d="M472 -25q-121 0 -216 51.5t-148.5 153t-53.5 250.5q0 136 44.5 254.5t126 208.5t193 140t243.5 50q107 0 195 -48t140 -135.5t52 -206.5q0 -28 -4.5 -66.5t-12.5 -67.5l-134 -7q3 15 5.5 32.5t2.5 31.5q0 56 -27 94t-70 57t-91 19q-62 0 -114 -22.5t-90.5 -63t-59.5 -97
t-21 -123.5q0 -69 23.5 -114.5t65 -69t94.5 -23.5q60 0 116 26t98 76.5t57 124.5l133 -17q-33 -158 -116 -272t-195.5 -175t-235.5 -61zM1136 0h-357l225 1062h357zM1165 1457q-6 -58 -37 -115t-83.5 -95t-125.5 -38q-56 0 -86.5 22t-49.5 41q-20 22 -38.5 36.5t-45.5 14.5
q-32 0 -51 -25.5t-24 -69.5h-176q6 59 37.5 116.5t86 96t129.5 38.5q51 0 82 -22t50 -43q20 -20 41.5 -34.5t45.5 -14.5q28 0 45.5 24t22.5 68h177z" />
    <glyph glyph-name="adieresis" unicode="&#xe4;" horiz-adv-x="1348" 
d="M472 -25q-121 0 -216 51.5t-148.5 153t-53.5 250.5q0 136 44.5 254.5t126 208.5t193 140t243.5 50q107 0 195 -48t140 -135.5t52 -206.5q0 -28 -4.5 -66.5t-12.5 -67.5l-134 -7q3 15 5.5 32.5t2.5 31.5q0 56 -27 94t-70 57t-91 19q-62 0 -114 -22.5t-90.5 -63t-59.5 -97
t-21 -123.5q0 -69 23.5 -114.5t65 -69t94.5 -23.5q60 0 116 26t98 76.5t57 124.5l133 -17q-33 -158 -116 -272t-195.5 -175t-235.5 -61zM1136 0h-357l225 1062h357zM538 1203q-69 0 -119 34.5t-50 98.5q0 78 61 120t138 42q69 0 119 -34t50 -99q0 -78 -61 -120t-138 -42z
M1052 1203q-69 0 -119 34.5t-50 98.5q0 78 61 120t138 42q69 0 119 -34t50 -99q0 -78 -61 -120t-138 -42z" />
    <glyph glyph-name="aring" unicode="&#xe5;" horiz-adv-x="1348" 
d="M472 -25q-121 0 -216 51.5t-148.5 153t-53.5 250.5q0 136 44.5 254.5t126 208.5t193 140t243.5 50q107 0 195 -48t140 -135.5t52 -206.5q0 -28 -4.5 -66.5t-12.5 -67.5l-134 -7q3 15 5.5 32.5t2.5 31.5q0 56 -27 94t-70 57t-91 19q-62 0 -114 -22.5t-90.5 -63t-59.5 -97
t-21 -123.5q0 -69 23.5 -114.5t65 -69t94.5 -23.5q60 0 116 26t98 76.5t57 124.5l133 -17q-33 -158 -116 -272t-195.5 -175t-235.5 -61zM1136 0h-357l225 1062h357zM813 1290q38 0 64 26t26 63q0 38 -26 64t-63 26q-38 0 -64 -26t-26 -63q0 -38 26 -64t63 -26zM814 1138
q-66 0 -121 33t-88 87.5t-33 120.5q0 67 33 121.5t87.5 87t120.5 32.5q67 0 121.5 -32.5t87 -87t32.5 -120.5t-32.5 -121t-87 -88t-120.5 -33z" />
    <glyph glyph-name="ae" unicode="&#xe6;" horiz-adv-x="2121" 
d="M467 -26q-222 0 -338 84.5t-116 221.5q0 101 47.5 168.5t129 108t182.5 57.5t208 17q122 0 188 3t93.5 14t32.5 35q3 12 4 21.5t1 14.5q0 44 -49 71t-130 27q-62 0 -116 -13.5t-90.5 -42t-45.5 -73.5h-352q29 131 126 218.5t236 131.5t292 44q133 0 241.5 -41.5
t166.5 -125.5q7 -9 13.5 -18.5t11.5 -20.5l-137 11q96 92 225 143.5t278 51.5q157 0 270 -52.5t173.5 -150t60.5 -231.5q0 -49 -11 -113.5t-26 -105.5h-991l178 129q-8 -37 -12.5 -70t-4.5 -64q0 -58 21 -101t67.5 -66t121.5 -23q55 0 97 9.5t71.5 25t47 33t22.5 33.5h352
q-21 -68 -73.5 -132t-134 -116t-189.5 -82.5t-240 -30.5q-119 0 -213 31.5t-159.5 89.5t-98.5 138l111 8q-52 -99 -141 -157.5t-194 -84t-207 -25.5zM520 243q44 0 96.5 13t103 44.5t89 85.5t55.5 134q4 14 5.5 29.5t2.5 31.5l76 -127q-87 -15 -186 -20.5t-180 -5.5
q-66 0 -112.5 -10.5t-70.5 -33.5t-24 -60q0 -39 35.5 -60t109.5 -21zM1255 643h472q1 7 1.5 14t0.5 13q0 40 -19.5 75.5t-61 58t-111.5 22.5q-66 0 -120 -23t-95 -64.5t-67 -95.5z" />
    <glyph glyph-name="ccedilla" unicode="&#xe7;" horiz-adv-x="1274" 
d="M658 -81q49 0 95 -28t46 -97q0 -75 -45 -124.5t-117 -74t-151 -24.5q-43 0 -90.5 7.5t-86 20.5t-56.5 25l86 127q18 -12 67 -30.5t101 -18.5q58 0 98.5 21.5t40.5 63.5q0 23 -16 34t-39 11q-24 0 -48.5 -8.5t-38.5 -25.5l-127 36l94 150h151l-75 -118l-14 1
q13 24 45.5 38t79.5 14zM560 -25q-247 0 -376 127t-129 332q0 151 52 271t146 204.5t222.5 129t283.5 44.5q162 0 269.5 -57.5t161.5 -145.5t54 -181q0 -19 -2 -35t-4 -25h-353q1 6 1 11v12q0 34 -15 66t-52 53.5t-105 21.5t-123.5 -28t-94.5 -77.5t-60 -112t-21 -131.5
q0 -93 48 -146t135 -53q70 0 117.5 21.5t77 58t44.5 81.5h354q-13 -80 -61.5 -158t-129.5 -142t-192 -102.5t-248 -38.5z" />
    <glyph glyph-name="egrave" unicode="&#xe8;" horiz-adv-x="1305" 
d="M230 429l46 223h665l-38 -52q6 20 8.5 37.5t2.5 34.5q0 39 -19 74t-61 57t-112 22q-80 0 -141.5 -30t-102.5 -84t-62.5 -125.5t-21.5 -155.5q0 -60 20 -103.5t65.5 -66.5t122.5 -23q56 0 97.5 9t70.5 23.5t46 32t22 34.5h353q-20 -69 -70 -133.5t-129 -116t-186.5 -81.5
t-242.5 -30q-162 0 -276 58.5t-174 162t-60 238.5q0 142 53 261t148 206t221 134.5t270 47.5q160 0 274 -55t175 -155t61 -237q0 -47 -9 -106t-24 -101h-992zM961 1194h-226l-276 281h264z" />
    <glyph glyph-name="eacute" unicode="&#xe9;" horiz-adv-x="1305" 
d="M230 429l46 223h665l-38 -52q6 20 8.5 37.5t2.5 34.5q0 39 -19 74t-61 57t-112 22q-80 0 -141.5 -30t-102.5 -84t-62.5 -125.5t-21.5 -155.5q0 -60 20 -103.5t65.5 -66.5t122.5 -23q56 0 97.5 9t70.5 23.5t46 32t22 34.5h353q-20 -69 -70 -133.5t-129 -116t-186.5 -81.5
t-242.5 -30q-162 0 -276 58.5t-174 162t-60 238.5q0 142 53 261t148 206t221 134.5t270 47.5q160 0 274 -55t175 -155t61 -237q0 -47 -9 -106t-24 -101h-992zM609 1194l238 281h264l-277 -281h-225z" />
    <glyph glyph-name="ecircumflex" unicode="&#xea;" horiz-adv-x="1305" 
d="M230 429l46 223h665l-38 -52q6 20 8.5 37.5t2.5 34.5q0 39 -19 74t-61 57t-112 22q-80 0 -141.5 -30t-102.5 -84t-62.5 -125.5t-21.5 -155.5q0 -60 20 -103.5t65.5 -66.5t122.5 -23q56 0 97.5 9t70.5 23.5t46 32t22 34.5h353q-20 -69 -70 -133.5t-129 -116t-186.5 -81.5
t-242.5 -30q-162 0 -276 58.5t-174 162t-60 238.5q0 142 53 261t148 206t221 134.5t270 47.5q160 0 274 -55t175 -155t61 -237q0 -47 -9 -106t-24 -101h-992zM440 1194l279 281h224l219 -281h-217l-165 217h93l-209 -217h-224z" />
    <glyph glyph-name="edieresis" unicode="&#xeb;" horiz-adv-x="1305" 
d="M230 429l46 223h665l-38 -52q6 20 8.5 37.5t2.5 34.5q0 39 -19 74t-61 57t-112 22q-80 0 -141.5 -30t-102.5 -84t-62.5 -125.5t-21.5 -155.5q0 -60 20 -103.5t65.5 -66.5t122.5 -23q56 0 97.5 9t70.5 23.5t46 32t22 34.5h353q-20 -69 -70 -133.5t-129 -116t-186.5 -81.5
t-242.5 -30q-162 0 -276 58.5t-174 162t-60 238.5q0 142 53 261t148 206t221 134.5t270 47.5q160 0 274 -55t175 -155t61 -237q0 -47 -9 -106t-24 -101h-992zM545 1203q-69 0 -119 34.5t-50 98.5q0 78 61 120t138 42q69 0 119 -34t50 -99q0 -78 -61 -120t-138 -42z
M1059 1203q-69 0 -119 34.5t-50 98.5q0 78 61 120t138 42q69 0 119 -34t50 -99q0 -78 -61 -120t-138 -42z" />
    <glyph glyph-name="igrave" unicode="&#xec;" horiz-adv-x="551" 
d="M-16 0l225 1062h355l-225 -1062h-355zM588 1194h-226l-276 281h264z" />
    <glyph glyph-name="iacute" unicode="&#xed;" horiz-adv-x="551" 
d="M-16 0l225 1062h355l-225 -1062h-355zM236 1194l238 281h264l-277 -281h-225z" />
    <glyph glyph-name="icircumflex" unicode="&#xee;" horiz-adv-x="551" 
d="M-16 0l225 1062h355l-225 -1062h-355zM67 1194l279 281h224l219 -281h-217l-165 217h93l-209 -217h-224z" />
    <glyph glyph-name="idieresis" unicode="&#xef;" horiz-adv-x="551" 
d="M-16 0l225 1062h355l-225 -1062h-355zM229 1213q-70 0 -120 34t-50 98q0 79 61 120.5t138 41.5q69 0 119 -33.5t50 -98.5q0 -79 -61 -120.5t-137 -41.5zM635 1213q-70 0 -119.5 34t-49.5 98q0 79 60.5 120.5t137.5 41.5q69 0 119.5 -33.5t50.5 -98.5q0 -79 -61 -120.5
t-138 -41.5z" />
    <glyph glyph-name="eth" unicode="&#xf0;" horiz-adv-x="1360" 
d="M453 1235l379 348l200 -112l-377 -344zM907 644q0 196 -36.5 328.5t-106 217t-167.5 135t-222 82.5l157 166q207 -48 370.5 -164t258.5 -308t95 -470zM565 -25q-156 0 -271 57t-178 159.5t-63 238.5q0 144 53 263.5t147.5 207t220 135t269.5 47.5q157 0 272 -57t178 -159
t63 -236q0 -146 -53.5 -266t-148 -207t-220 -135t-269.5 -48zM594 250q68 0 123 27.5t95 76.5t62 113.5t22 138.5q0 63 -20.5 108t-60.5 69.5t-101 24.5q-68 0 -123.5 -27.5t-95 -76t-60.5 -112t-21 -136.5q0 -97 44.5 -151.5t135.5 -54.5z" />
    <glyph glyph-name="ntilde" unicode="&#xf1;" horiz-adv-x="1313" 
d="M741 0l94 432q18 84 27 136t9 87q0 57 -31.5 93t-113.5 36q-67 0 -119.5 -29.5t-87 -83.5t-50.5 -127l-68 71q22 106 72.5 192.5t122.5 148t159 94.5t182 33q162 0 238 -78.5t76 -210.5q0 -65 -17.5 -158.5t-48.5 -236.5l-88 -399h-356zM-2 0l226 1062h356l-226 -1062
h-356zM1209 1457q-6 -58 -37 -115t-83.5 -95t-125.5 -38q-56 0 -86.5 22t-49.5 41q-20 22 -38.5 36.5t-45.5 14.5q-32 0 -51 -25.5t-24 -69.5h-176q6 59 37.5 116.5t86 96t129.5 38.5q51 0 82 -22t50 -43q20 -20 41.5 -34.5t45.5 -14.5q28 0 45.5 24t22.5 68h177z" />
    <glyph glyph-name="ograve" unicode="&#xf2;" horiz-adv-x="1309" 
d="M565 -24q-157 0 -272 57t-177.5 159t-62.5 238q0 144 53 263.5t147.5 207t220 135t269.5 47.5q157 0 272 -57t178 -159t63 -236q0 -146 -53.5 -266t-148 -207t-220 -134.5t-269.5 -47.5zM602 250q87 0 152.5 48t101.5 128.5t36 178.5q0 64 -19.5 109t-60.5 69.5
t-105 24.5q-66 0 -119.5 -27.5t-91.5 -76t-58.5 -112t-20.5 -136.5q0 -97 45 -151.5t140 -54.5zM958 1194h-226l-276 281h264z" />
    <glyph glyph-name="oacute" unicode="&#xf3;" horiz-adv-x="1309" 
d="M565 -24q-157 0 -272 57t-177.5 159t-62.5 238q0 144 53 263.5t147.5 207t220 135t269.5 47.5q157 0 272 -57t178 -159t63 -236q0 -146 -53.5 -266t-148 -207t-220 -134.5t-269.5 -47.5zM602 250q87 0 152.5 48t101.5 128.5t36 178.5q0 64 -19.5 109t-60.5 69.5
t-105 24.5q-66 0 -119.5 -27.5t-91.5 -76t-58.5 -112t-20.5 -136.5q0 -97 45 -151.5t140 -54.5zM606 1194l238 281h264l-277 -281h-225z" />
    <glyph glyph-name="ocircumflex" unicode="&#xf4;" horiz-adv-x="1309" 
d="M565 -24q-157 0 -272 57t-177.5 159t-62.5 238q0 144 53 263.5t147.5 207t220 135t269.5 47.5q157 0 272 -57t178 -159t63 -236q0 -146 -53.5 -266t-148 -207t-220 -134.5t-269.5 -47.5zM602 250q87 0 152.5 48t101.5 128.5t36 178.5q0 64 -19.5 109t-60.5 69.5
t-105 24.5q-66 0 -119.5 -27.5t-91.5 -76t-58.5 -112t-20.5 -136.5q0 -97 45 -151.5t140 -54.5zM437 1194l279 281h224l219 -281h-217l-165 217h93l-209 -217h-224z" />
    <glyph glyph-name="otilde" unicode="&#xf5;" horiz-adv-x="1309" 
d="M565 -24q-157 0 -272 57t-177.5 159t-62.5 238q0 144 53 263.5t147.5 207t220 135t269.5 47.5q157 0 272 -57t178 -159t63 -236q0 -146 -53.5 -266t-148 -207t-220 -134.5t-269.5 -47.5zM602 250q87 0 152.5 48t101.5 128.5t36 178.5q0 64 -19.5 109t-60.5 69.5
t-105 24.5q-66 0 -119.5 -27.5t-91.5 -76t-58.5 -112t-20.5 -136.5q0 -97 45 -151.5t140 -54.5zM1169 1457q-6 -58 -37 -115t-83.5 -95t-125.5 -38q-56 0 -86.5 22t-49.5 41q-20 22 -38.5 36.5t-45.5 14.5q-32 0 -51 -25.5t-24 -69.5h-176q6 59 37.5 116.5t86 96t129.5 38.5
q51 0 82 -22t50 -43q20 -20 41.5 -34.5t45.5 -14.5q28 0 45.5 24t22.5 68h177z" />
    <glyph glyph-name="odieresis" unicode="&#xf6;" horiz-adv-x="1309" 
d="M565 -24q-157 0 -272 57t-177.5 159t-62.5 238q0 144 53 263.5t147.5 207t220 135t269.5 47.5q157 0 272 -57t178 -159t63 -236q0 -146 -53.5 -266t-148 -207t-220 -134.5t-269.5 -47.5zM602 250q87 0 152.5 48t101.5 128.5t36 178.5q0 64 -19.5 109t-60.5 69.5
t-105 24.5q-66 0 -119.5 -27.5t-91.5 -76t-58.5 -112t-20.5 -136.5q0 -97 45 -151.5t140 -54.5zM541 1203q-69 0 -119 34.5t-50 98.5q0 78 61 120t138 42q69 0 119 -34t50 -99q0 -78 -61 -120t-138 -42zM1055 1203q-69 0 -119 34.5t-50 98.5q0 78 61 120t138 42
q69 0 119 -34t50 -99q0 -78 -61 -120t-138 -42z" />
    <glyph glyph-name="divide" unicode="&#xf7;" horiz-adv-x="1319" 
d="M265 412l46 219h740l-46 -219h-740zM735 736q-59 0 -97.5 37.5t-38.5 93.5q0 57 38.5 94.5t97.5 37.5q57 0 95.5 -37.5t38.5 -94.5q0 -56 -39 -93.5t-95 -37.5zM585 46q-58 0 -97 37.5t-39 94.5t39 94.5t97 37.5t96.5 -37.5t38.5 -94.5t-38.5 -94.5t-96.5 -37.5z" />
    <glyph glyph-name="oslash" unicode="&#xf8;" horiz-adv-x="1309" 
d="M1217 1032l-1058 -1098l-103 96l1058 1097zM565 -24q-157 0 -272 57t-177.5 159t-62.5 238q0 144 53 263.5t147.5 207t220 135t269.5 47.5q157 0 272 -57t178 -159t63 -236q0 -146 -53.5 -266t-148 -207t-220 -134.5t-269.5 -47.5zM602 250q87 0 152.5 48t101.5 128.5
t36 178.5q0 64 -19.5 109t-60.5 69.5t-105 24.5q-66 0 -119.5 -27.5t-91.5 -76t-58.5 -112t-20.5 -136.5q0 -97 45 -151.5t140 -54.5z" />
    <glyph glyph-name="ugrave" unicode="&#xf9;" horiz-adv-x="1280" 
d="M366 -21q-108 0 -174 37t-95 100.5t-29 143.5q0 39 6 83t18 98l132 621h356l-114 -529q-10 -46 -15.5 -81.5t-5.5 -64.5q0 -50 28.5 -80.5t93.5 -30.5q66 0 119 35.5t89 94t51 126.5l69 -80q-22 -105 -70 -191.5t-117 -149.5t-155.5 -97.5t-186.5 -34.5zM712 0l226 1062
h356l-226 -1062h-356zM953 1194h-226l-276 281h264z" />
    <glyph glyph-name="uacute" unicode="&#xfa;" horiz-adv-x="1280" 
d="M366 -21q-108 0 -174 37t-95 100.5t-29 143.5q0 39 6 83t18 98l132 621h356l-114 -529q-10 -46 -15.5 -81.5t-5.5 -64.5q0 -50 28.5 -80.5t93.5 -30.5q66 0 119 35.5t89 94t51 126.5l69 -80q-22 -105 -70 -191.5t-117 -149.5t-155.5 -97.5t-186.5 -34.5zM712 0l226 1062
h356l-226 -1062h-356zM600 1194l238 281h264l-277 -281h-225z" />
    <glyph glyph-name="ucircumflex" unicode="&#xfb;" horiz-adv-x="1280" 
d="M366 -21q-108 0 -174 37t-95 100.5t-29 143.5q0 39 6 83t18 98l132 621h356l-114 -529q-10 -46 -15.5 -81.5t-5.5 -64.5q0 -50 28.5 -80.5t93.5 -30.5q66 0 119 35.5t89 94t51 126.5l69 -80q-22 -105 -70 -191.5t-117 -149.5t-155.5 -97.5t-186.5 -34.5zM712 0l226 1062
h356l-226 -1062h-356zM431 1194l279 281h224l219 -281h-217l-165 217h93l-209 -217h-224z" />
    <glyph glyph-name="udieresis" unicode="&#xfc;" horiz-adv-x="1280" 
d="M366 -21q-108 0 -174 37t-95 100.5t-29 143.5q0 39 6 83t18 98l132 621h356l-114 -529q-10 -46 -15.5 -81.5t-5.5 -64.5q0 -50 28.5 -80.5t93.5 -30.5q66 0 119 35.5t89 94t51 126.5l69 -80q-22 -105 -70 -191.5t-117 -149.5t-155.5 -97.5t-186.5 -34.5zM712 0l226 1062
h356l-226 -1062h-356zM536 1203q-69 0 -119 34.5t-50 98.5q0 78 61 120t138 42q69 0 119 -34t50 -99q0 -78 -61 -120t-138 -42zM1050 1203q-69 0 -119 34.5t-50 98.5q0 78 61 120t138 42q69 0 119 -34t50 -99q0 -78 -61 -120t-138 -42z" />
    <glyph glyph-name="yacute" unicode="&#xfd;" horiz-adv-x="1132" 
d="M16 -463q-54 0 -100 3t-54 7l58 265q13 -7 44 -10t69 -3q45 0 84.5 17.5t72.5 49.5t57 76l22 41l-137 1079h362l30 -856h-41l381 856h376l-590 -1102q-73 -136 -153 -230.5t-193.5 -143.5t-287.5 -49zM550 1194l238 281h264l-277 -281h-225z" />
    <glyph glyph-name="thorn" unicode="&#xfe;" horiz-adv-x="1349" 
d="M693 -24q-109 0 -194.5 52.5t-135 143.5t-49.5 207q0 47 5 80.5t11 52.5l136 3q-3 -12 -5 -32t-2 -31q0 -54 25 -93t66 -59.5t90 -20.5q71 0 124 25t89 70t54 103.5t18 126.5q0 96 -48 141t-129 45q-54 0 -111 -25.5t-100.5 -74t-58.5 -119.5l-137 9q31 146 112.5 259
t194.5 178t239 65q120 0 211 -52.5t143.5 -153t52.5 -243.5q0 -140 -43 -259.5t-122 -209t-189.5 -139t-246.5 -49.5zM-95 -437l428 2000h357l-427 -2000h-358z" />
    <glyph glyph-name="ydieresis" unicode="&#xff;" horiz-adv-x="1132" 
d="M16 -463q-54 0 -100 3t-54 7l58 265q13 -7 44 -10t69 -3q45 0 84.5 17.5t72.5 49.5t57 76l22 41l-137 1079h362l30 -856h-41l381 856h376l-590 -1102q-73 -136 -153 -230.5t-193.5 -143.5t-287.5 -49zM485 1203q-69 0 -119 34.5t-50 98.5q0 78 61 120t138 42
q69 0 119 -34t50 -99q0 -78 -61 -120t-138 -42zM999 1203q-69 0 -119 34.5t-50 98.5q0 78 61 120t138 42q69 0 119 -34t50 -99q0 -78 -61 -120t-138 -42z" />
    <glyph glyph-name="Amacron" unicode="&#x100;" horiz-adv-x="1370" 
d="M-65 0l670 1476h566l40 -1476h-350l-3 1261h2l-543 -1261h-382zM287 326l58 273h714l-57 -273h-715zM589 1609l31 146h658l-31 -146h-658z" />
    <glyph glyph-name="amacron" unicode="&#x101;" horiz-adv-x="1348" 
d="M472 -25q-121 0 -216 51.5t-148.5 153t-53.5 250.5q0 136 44.5 254.5t126 208.5t193 140t243.5 50q107 0 195 -48t140 -135.5t52 -206.5q0 -28 -4.5 -66.5t-12.5 -67.5l-134 -7q3 15 5.5 32.5t2.5 31.5q0 56 -27 94t-70 57t-91 19q-62 0 -114 -22.5t-90.5 -63t-59.5 -97
t-21 -123.5q0 -69 23.5 -114.5t65 -69t94.5 -23.5q60 0 116 26t98 76.5t57 124.5l133 -17q-33 -158 -116 -272t-195.5 -175t-235.5 -61zM1136 0h-357l225 1062h357zM468 1276l31 146h658l-31 -146h-658z" />
    <glyph glyph-name="Abreve" unicode="&#x102;" horiz-adv-x="1370" 
d="M-65 0l670 1476h566l40 -1476h-350l-3 1261h2l-543 -1261h-382zM287 326l58 273h714l-57 -273h-715zM629 1759h206q0 -36 21.5 -62.5t69.5 -26.5q49 0 77.5 26t32.5 63h206q-10 -101 -103.5 -162t-225.5 -61q-133 0 -208.5 61t-75.5 162z" />
    <glyph glyph-name="abreve" unicode="&#x103;" horiz-adv-x="1348" 
d="M472 -25q-121 0 -216 51.5t-148.5 153t-53.5 250.5q0 136 44.5 254.5t126 208.5t193 140t243.5 50q107 0 195 -48t140 -135.5t52 -206.5q0 -28 -4.5 -66.5t-12.5 -67.5l-134 -7q3 15 5.5 32.5t2.5 31.5q0 56 -27 94t-70 57t-91 19q-62 0 -114 -22.5t-90.5 -63t-59.5 -97
t-21 -123.5q0 -69 23.5 -114.5t65 -69t94.5 -23.5q60 0 116 26t98 76.5t57 124.5l133 -17q-33 -158 -116 -272t-195.5 -175t-235.5 -61zM1136 0h-357l225 1062h357zM522 1475h206q0 -60 19.5 -99.5t67.5 -39.5q49 0 78 39.5t36 99.5h206q-14 -131 -107.5 -201.5
t-226.5 -70.5q-132 0 -205.5 70.5t-73.5 201.5z" />
    <glyph glyph-name="Aogonek" unicode="&#x104;" horiz-adv-x="1370" 
d="M-65 0l670 1476h566l40 -1476h-350l-3 1261h2l-543 -1261h-382zM287 326l58 273h714l-57 -273h-715zM1181 -283l-17 -168q-21 -2 -45 -3.5t-49 -1.5q-69 0 -129 15t-97 48.5t-37 89.5q0 65 41 124t95.5 105.5t97.5 73.5h170q-22 -17 -54.5 -45.5t-64.5 -62.5t-53 -66.5
t-21 -56.5q0 -36 25.5 -47t63.5 -11q18 0 38 2t36 4z" />
    <glyph glyph-name="aogonek" unicode="&#x105;" horiz-adv-x="1348" 
d="M472 -25q-121 0 -216 51.5t-148.5 153t-53.5 250.5q0 136 44.5 254.5t126 208.5t193 140t243.5 50q107 0 195 -48t140 -135.5t52 -206.5q0 -28 -4.5 -66.5t-12.5 -67.5l-134 -7q3 15 5.5 32.5t2.5 31.5q0 56 -27 94t-70 57t-91 19q-62 0 -114 -22.5t-90.5 -63t-59.5 -97
t-21 -123.5q0 -69 23.5 -114.5t65 -69t94.5 -23.5q60 0 116 26t98 76.5t57 124.5l133 -17q-33 -158 -116 -272t-195.5 -175t-235.5 -61zM1136 0h-357l225 1062h357zM1106 -283l-18 -168q-20 -2 -44 -3.5t-50 -1.5q-102 0 -174 38.5t-72 122.5q0 57 36.5 114.5t87.5 105.5
t94 75h170q-22 -17 -54.5 -45.5t-64.5 -62.5t-53 -66.5t-21 -56.5q0 -36 25 -47t63 -11q19 0 39 2t36 4z" />
    <glyph glyph-name="Cacute" unicode="&#x106;" horiz-adv-x="1439" 
d="M1370 548q-21 -98 -77 -199t-147 -185.5t-216 -136.5t-284 -52q-186 0 -305.5 77.5t-177 212t-57.5 305.5q0 199 60 368.5t169.5 295t260.5 195.5t333 70q183 0 297.5 -66.5t168 -170.5t53.5 -220q0 -30 -3 -59t-10 -56h-358q4 16 6.5 41t2.5 43q0 63 -20.5 109t-63.5 72
t-112 26q-105 0 -184 -60t-132.5 -158t-80 -215.5t-26.5 -230.5q0 -143 56.5 -221t160.5 -78q63 0 117 23t96.5 63.5t72 93.5t42.5 113h358zM758 1561l270 215h274l-308 -215h-236z" />
    <glyph glyph-name="cacute" unicode="&#x107;" horiz-adv-x="1274" 
d="M560 -25q-247 0 -376 127t-129 332q0 151 52 271t146 204.5t222.5 129t283.5 44.5q162 0 269.5 -57.5t161.5 -145.5t54 -181q0 -19 -2 -35t-4 -25h-353q1 6 1 11v12q0 34 -15 66t-52 53.5t-105 21.5t-123.5 -28t-94.5 -77.5t-60 -112t-21 -131.5q0 -93 48 -146t135 -53
q70 0 117.5 21.5t77 58t44.5 81.5h354q-13 -80 -61.5 -158t-129.5 -142t-192 -102.5t-248 -38.5zM618 1194l238 281h264l-277 -281h-225z" />
    <glyph glyph-name="Ccircumflex" unicode="&#x108;" horiz-adv-x="1439" 
d="M1370 548q-21 -98 -77 -199t-147 -185.5t-216 -136.5t-284 -52q-186 0 -305.5 77.5t-177 212t-57.5 305.5q0 199 60 368.5t169.5 295t260.5 195.5t333 70q183 0 297.5 -66.5t168 -170.5t53.5 -220q0 -30 -3 -59t-10 -56h-358q4 16 6.5 41t2.5 43q0 63 -20.5 109t-63.5 72
t-112 26q-105 0 -184 -60t-132.5 -158t-80 -215.5t-26.5 -230.5q0 -143 56.5 -221t160.5 -78q63 0 117 23t96.5 63.5t72 93.5t42.5 113h358zM602 1559l273 216h226l226 -216h-219l-169 166h92l-203 -166h-226z" />
    <glyph glyph-name="ccircumflex" unicode="&#x109;" horiz-adv-x="1274" 
d="M560 -25q-247 0 -376 127t-129 332q0 151 52 271t146 204.5t222.5 129t283.5 44.5q162 0 269.5 -57.5t161.5 -145.5t54 -181q0 -19 -2 -35t-4 -25h-353q1 6 1 11v12q0 34 -15 66t-52 53.5t-105 21.5t-123.5 -28t-94.5 -77.5t-60 -112t-21 -131.5q0 -93 48 -146t135 -53
q70 0 117.5 21.5t77 58t44.5 81.5h354q-13 -80 -61.5 -158t-129.5 -142t-192 -102.5t-248 -38.5zM449 1194l279 281h224l219 -281h-217l-165 217h93l-209 -217h-224z" />
    <glyph glyph-name="Cdotaccent" unicode="&#x10a;" horiz-adv-x="1439" 
d="M1370 548q-21 -98 -77 -199t-147 -185.5t-216 -136.5t-284 -52q-186 0 -305.5 77.5t-177 212t-57.5 305.5q0 199 60 368.5t169.5 295t260.5 195.5t333 70q183 0 297.5 -66.5t168 -170.5t53.5 -220q0 -30 -3 -59t-10 -56h-358q4 16 6.5 41t2.5 43q0 63 -20.5 109t-63.5 72
t-112 26q-105 0 -184 -60t-132.5 -158t-80 -215.5t-26.5 -230.5q0 -143 56.5 -221t160.5 -78q63 0 117 23t96.5 63.5t72 93.5t42.5 113h358zM971 1560q-80 0 -140.5 42t-60.5 119q0 78 60.5 119.5t140.5 41.5t140 -41.5t60 -119.5t-60 -119.5t-140 -41.5z" />
    <glyph glyph-name="cdotaccent" unicode="&#x10b;" horiz-adv-x="1274" 
d="M560 -25q-247 0 -376 127t-129 332q0 151 52 271t146 204.5t222.5 129t283.5 44.5q162 0 269.5 -57.5t161.5 -145.5t54 -181q0 -19 -2 -35t-4 -25h-353q1 6 1 11v12q0 34 -15 66t-52 53.5t-105 21.5t-123.5 -28t-94.5 -77.5t-60 -112t-21 -131.5q0 -93 48 -146t135 -53
q70 0 117.5 21.5t77 58t44.5 81.5h354q-13 -80 -61.5 -158t-129.5 -142t-192 -102.5t-248 -38.5zM815 1204q-76 0 -130.5 38t-54.5 107q0 58 31 97.5t81.5 60t106.5 20.5q75 0 129.5 -37.5t54.5 -107.5q0 -57 -31 -97t-80.5 -60.5t-106.5 -20.5z" />
    <glyph glyph-name="Ccaron" unicode="&#x10c;" horiz-adv-x="1439" 
d="M1370 548q-21 -98 -77 -199t-147 -185.5t-216 -136.5t-284 -52q-186 0 -305.5 77.5t-177 212t-57.5 305.5q0 199 60 368.5t169.5 295t260.5 195.5t333 70q183 0 297.5 -66.5t168 -170.5t53.5 -220q0 -30 -3 -59t-10 -56h-358q4 16 6.5 41t2.5 43q0 63 -20.5 109t-63.5 72
t-112 26q-105 0 -184 -60t-132.5 -158t-80 -215.5t-26.5 -230.5q0 -143 56.5 -221t160.5 -78q63 0 117 23t96.5 63.5t72 93.5t42.5 113h358zM613 1775h218l169 -165h-93l205 165h226l-272 -216h-226z" />
    <glyph glyph-name="ccaron" unicode="&#x10d;" horiz-adv-x="1274" 
d="M560 -25q-247 0 -376 127t-129 332q0 151 52 271t146 204.5t222.5 129t283.5 44.5q162 0 269.5 -57.5t161.5 -145.5t54 -181q0 -19 -2 -35t-4 -25h-353q1 6 1 11v12q0 34 -15 66t-52 53.5t-105 21.5t-123.5 -28t-94.5 -77.5t-60 -112t-21 -131.5q0 -93 48 -146t135 -53
q70 0 117.5 21.5t77 58t44.5 81.5h354q-13 -80 -61.5 -158t-129.5 -142t-192 -102.5t-248 -38.5zM487 1475h217l163 -217h-93l210 217h225l-278 -281h-224z" />
    <glyph glyph-name="Dcaron" unicode="&#x10e;" horiz-adv-x="1368" 
d="M3 0l314 1475h504q175 0 293.5 -74t179 -201t60.5 -286q0 -192 -65.5 -358.5t-180.5 -291t-266.5 -194.5t-324.5 -70h-514zM384 109l-127 173h268q100 0 184.5 51.5t147.5 137.5t98.5 194t35.5 221q0 94 -30.5 163t-89.5 106.5t-145 37.5h-269l195 174zM527 1775h218
l169 -165h-93l205 165h226l-272 -216h-226z" />
    <glyph glyph-name="dcaron" unicode="&#x10f;" horiz-adv-x="1547" 
d="M439 -25q-178 0 -283.5 112.5t-105.5 323.5q0 137 46.5 258.5t130 214.5t195.5 146t245 53q109 0 191.5 -49t129 -135t46.5 -199q0 -30 -5 -70t-13 -71l-136 -1q3 13 5.5 32t2.5 31q0 55 -26 92.5t-67.5 57t-89.5 19.5q-65 0 -117.5 -24t-90 -67.5t-57.5 -101.5t-20 -124
q0 -95 49.5 -144.5t127.5 -49.5q56 0 113 27t100 77.5t58 120.5l139 -8q-31 -145 -117 -263t-204.5 -188t-246.5 -70zM761 0l332 1563h358l-333 -1563h-357zM1735 1563q-10 -92 -31 -180.5t-42 -155t-32 -95.5h-162q11 30 26.5 96.5t31 154t24.5 180.5h185z" />
    <glyph glyph-name="Dcroat" unicode="&#x110;" horiz-adv-x="1368" 
d="M3 0l314 1475h504q175 0 293.5 -74t179 -201t60.5 -286q0 -192 -65.5 -358.5t-180.5 -291t-266.5 -194.5t-324.5 -70h-514zM384 109l-127 173h268q100 0 184.5 51.5t147.5 137.5t98.5 194t35.5 221q0 94 -30.5 163t-89.5 106.5t-145 37.5h-269l195 174zM35 656l34 159
h739l-34 -159h-739z" />
    <glyph glyph-name="dcroat" unicode="&#x111;" horiz-adv-x="1333" 
d="M639 1231l36 169h849l-36 -169h-849zM439 -25q-178 0 -283.5 112.5t-105.5 323.5q0 137 46.5 258.5t130 214.5t195.5 146t245 53q109 0 191.5 -49t129 -135t46.5 -199q0 -30 -5 -70t-13 -71l-136 -1q3 13 5.5 32t2.5 31q0 55 -26 92.5t-67.5 57t-89.5 19.5
q-65 0 -117.5 -24t-90 -67.5t-57.5 -101.5t-20 -124q0 -95 49.5 -144.5t127.5 -49.5q56 0 113 27t100 77.5t58 120.5l139 -8q-31 -145 -117 -263t-204.5 -188t-246.5 -70zM761 0l332 1563h358l-333 -1563h-357z" />
    <glyph glyph-name="Emacron" unicode="&#x112;" horiz-adv-x="1159" 
d="M458 1205l196 165l-127 -593l-59 98h537l-57 -270h-537l100 97l-126 -597l-126 165h729l-58 -270h-927l314 1475h927l-58 -270h-728zM486 1609l31 146h658l-31 -146h-658z" />
    <glyph glyph-name="emacron" unicode="&#x113;" horiz-adv-x="1305" 
d="M230 429l46 223h665l-38 -52q6 20 8.5 37.5t2.5 34.5q0 39 -19 74t-61 57t-112 22q-80 0 -141.5 -30t-102.5 -84t-62.5 -125.5t-21.5 -155.5q0 -60 20 -103.5t65.5 -66.5t122.5 -23q56 0 97.5 9t70.5 23.5t46 32t22 34.5h353q-20 -69 -70 -133.5t-129 -116t-186.5 -81.5
t-242.5 -30q-162 0 -276 58.5t-174 162t-60 238.5q0 142 53 261t148 206t221 134.5t270 47.5q160 0 274 -55t175 -155t61 -237q0 -47 -9 -106t-24 -101h-992zM475 1276l31 146h658l-31 -146h-658z" />
    <glyph glyph-name="Ebreve" unicode="&#x114;" horiz-adv-x="1159" 
d="M458 1205l196 165l-127 -593l-59 98h537l-57 -270h-537l100 97l-126 -597l-126 165h729l-58 -270h-927l314 1475h927l-58 -270h-728zM526 1759h206q0 -36 21.5 -62.5t69.5 -26.5q49 0 77.5 26t32.5 63h206q-10 -101 -103.5 -162t-225.5 -61q-133 0 -208.5 61t-75.5 162z
" />
    <glyph glyph-name="ebreve" unicode="&#x115;" horiz-adv-x="1305" 
d="M230 429l46 223h665l-38 -52q6 20 8.5 37.5t2.5 34.5q0 39 -19 74t-61 57t-112 22q-80 0 -141.5 -30t-102.5 -84t-62.5 -125.5t-21.5 -155.5q0 -60 20 -103.5t65.5 -66.5t122.5 -23q56 0 97.5 9t70.5 23.5t46 32t22 34.5h353q-20 -69 -70 -133.5t-129 -116t-186.5 -81.5
t-242.5 -30q-162 0 -276 58.5t-174 162t-60 238.5q0 142 53 261t148 206t221 134.5t270 47.5q160 0 274 -55t175 -155t61 -237q0 -47 -9 -106t-24 -101h-992zM528 1475h206q0 -60 19.5 -99.5t67.5 -39.5q49 0 78 39.5t36 99.5h206q-14 -131 -107.5 -201.5t-226.5 -70.5
q-132 0 -205.5 70.5t-73.5 201.5z" />
    <glyph glyph-name="Edotaccent" unicode="&#x116;" horiz-adv-x="1159" 
d="M458 1205l196 165l-127 -593l-59 98h537l-57 -270h-537l100 97l-126 -597l-126 165h729l-58 -270h-927l314 1475h927l-58 -270h-728zM829 1560q-80 0 -140.5 42t-60.5 119q0 78 60.5 119.5t140.5 41.5t140 -41.5t60 -119.5t-60 -119.5t-140 -41.5z" />
    <glyph glyph-name="edotaccent" unicode="&#x117;" horiz-adv-x="1305" 
d="M230 429l46 223h665l-38 -52q6 20 8.5 37.5t2.5 34.5q0 39 -19 74t-61 57t-112 22q-80 0 -141.5 -30t-102.5 -84t-62.5 -125.5t-21.5 -155.5q0 -60 20 -103.5t65.5 -66.5t122.5 -23q56 0 97.5 9t70.5 23.5t46 32t22 34.5h353q-20 -69 -70 -133.5t-129 -116t-186.5 -81.5
t-242.5 -30q-162 0 -276 58.5t-174 162t-60 238.5q0 142 53 261t148 206t221 134.5t270 47.5q160 0 274 -55t175 -155t61 -237q0 -47 -9 -106t-24 -101h-992zM807 1204q-76 0 -130.5 38t-54.5 107q0 58 31 97.5t81.5 60t106.5 20.5q75 0 129.5 -37.5t54.5 -107.5
q0 -57 -31 -97t-80.5 -60.5t-106.5 -20.5z" />
    <glyph glyph-name="Eogonek" unicode="&#x118;" horiz-adv-x="1159" 
d="M458 1205l196 165l-127 -593l-59 98h537l-57 -270h-537l100 97l-126 -597l-126 165h729l-58 -270h-927l314 1475h927l-58 -270h-728zM900 -283l-17 -168q-21 -2 -45 -3.5t-49 -1.5q-69 0 -129 15t-97 48.5t-37 89.5q0 65 41 124t95.5 105.5t97.5 73.5h170
q-22 -17 -54.5 -45.5t-64.5 -62.5t-53 -66.5t-21 -56.5q0 -36 25.5 -47t63.5 -11q18 0 38 2t36 4z" />
    <glyph glyph-name="eogonek" unicode="&#x119;" horiz-adv-x="1305" 
d="M821 -259l-18 -168q-21 -2 -44.5 -3.5t-49.5 -1.5q-102 0 -174.5 38.5t-72.5 122.5q0 57 37 114.5t88 105.5t93 75h170q-22 -17 -54 -45.5t-64 -62.5t-53 -66.5t-21 -57.5q0 -35 25 -46.5t63 -11.5q18 0 38.5 2.5t36.5 4.5zM230 429l46 223h665l-38 -52q6 20 8.5 37.5
t2.5 34.5q0 39 -19 74t-61 57t-112 22q-80 0 -141.5 -30t-102.5 -84t-62.5 -125.5t-21.5 -155.5q0 -60 20 -103.5t65.5 -66.5t122.5 -23q56 0 97.5 9t70.5 23.5t46 32t22 34.5h353q-20 -69 -70 -133.5t-129 -116t-186.5 -81.5t-242.5 -30q-162 0 -276 58.5t-174 162
t-60 238.5q0 142 53 261t148 206t221 134.5t270 47.5q160 0 274 -55t175 -155t61 -237q0 -47 -9 -106t-24 -101h-992z" />
    <glyph glyph-name="Ecaron" unicode="&#x11a;" horiz-adv-x="1159" 
d="M458 1205l196 165l-127 -593l-59 98h537l-57 -270h-537l100 97l-126 -597l-126 165h729l-58 -270h-927l314 1475h927l-58 -270h-728zM471 1775h218l169 -165h-93l205 165h226l-272 -216h-226z" />
    <glyph glyph-name="ecaron" unicode="&#x11b;" horiz-adv-x="1305" 
d="M230 429l46 223h665l-38 -52q6 20 8.5 37.5t2.5 34.5q0 39 -19 74t-61 57t-112 22q-80 0 -141.5 -30t-102.5 -84t-62.5 -125.5t-21.5 -155.5q0 -60 20 -103.5t65.5 -66.5t122.5 -23q56 0 97.5 9t70.5 23.5t46 32t22 34.5h353q-20 -69 -70 -133.5t-129 -116t-186.5 -81.5
t-242.5 -30q-162 0 -276 58.5t-174 162t-60 238.5q0 142 53 261t148 206t221 134.5t270 47.5q160 0 274 -55t175 -155t61 -237q0 -47 -9 -106t-24 -101h-992zM479 1475h217l163 -217h-93l210 217h225l-278 -281h-224z" />
    <glyph glyph-name="Gcircumflex" unicode="&#x11c;" horiz-adv-x="1459" 
d="M611 -25q-153 0 -267.5 65.5t-178.5 191t-64 305.5q0 198 58.5 372t168.5 306.5t264.5 208t345.5 75.5q140 0 237 -40t157.5 -104.5t88 -140t27.5 -145.5q0 -20 -3 -47t-6 -40h-347q2 9 4.5 26.5t2.5 32.5q0 48 -21.5 88t-65 64.5t-108.5 24.5q-111 0 -194.5 -61.5
t-138.5 -162t-82.5 -218.5t-27.5 -230q0 -109 32.5 -173t85.5 -91t114 -27q82 0 145 32.5t105.5 78t60.5 83.5l10 54h-269l54 252h586l-161 -755h-176v163q-15 -28 -66 -72.5t-142 -80t-229 -35.5zM605 1559l273 216h226l226 -216h-219l-169 166h92l-203 -166h-226z" />
    <glyph glyph-name="gcircumflex" unicode="&#x11d;" horiz-adv-x="1348" 
d="M485 -456q-88 0 -179 17t-167.5 52.5t-123 92t-46.5 136.5q0 25 2.5 45.5t6.5 38.5h357q-2 -7 -3 -14t-1 -16q0 -29 21 -52t61 -36.5t97 -13.5q72 0 127 23t91.5 70t51.5 119l224 1056h357l-224 -1056q-28 -135 -92 -224t-152.5 -141t-193 -74.5t-214.5 -22.5zM474 -25
q-121 0 -216.5 51.5t-149.5 153t-54 250.5q0 136 44.5 254.5t126 208.5t193 140t243.5 50q107 0 195.5 -47t141.5 -133.5t53 -205.5q0 -28 -4.5 -67t-12.5 -67l-136 -7q3 15 5 32t2 31q0 57 -26.5 95t-69.5 57t-91 19q-62 0 -114 -22.5t-90.5 -63.5t-59.5 -97t-21 -124
t23.5 -113.5t65 -69t94.5 -23.5q60 0 116 26t97.5 76.5t57.5 124.5l133 -17q-33 -158 -116 -273t-195 -177t-235 -62zM431 1194l279 281h224l219 -281h-217l-165 217h93l-209 -217h-224z" />
    <glyph glyph-name="Gbreve" unicode="&#x11e;" horiz-adv-x="1459" 
d="M611 -25q-153 0 -267.5 65.5t-178.5 191t-64 305.5q0 198 58.5 372t168.5 306.5t264.5 208t345.5 75.5q140 0 237 -40t157.5 -104.5t88 -140t27.5 -145.5q0 -20 -3 -47t-6 -40h-347q2 9 4.5 26.5t2.5 32.5q0 48 -21.5 88t-65 64.5t-108.5 24.5q-111 0 -194.5 -61.5
t-138.5 -162t-82.5 -218.5t-27.5 -230q0 -109 32.5 -173t85.5 -91t114 -27q82 0 145 32.5t105.5 78t60.5 83.5l10 54h-269l54 252h586l-161 -755h-176v163q-15 -28 -66 -72.5t-142 -80t-229 -35.5zM671 1759h206q0 -36 21.5 -62.5t69.5 -26.5q49 0 77.5 26t32.5 63h206
q-10 -101 -103.5 -162t-225.5 -61q-133 0 -208.5 61t-75.5 162z" />
    <glyph glyph-name="gbreve" unicode="&#x11f;" horiz-adv-x="1348" 
d="M485 -456q-88 0 -179 17t-167.5 52.5t-123 92t-46.5 136.5q0 25 2.5 45.5t6.5 38.5h357q-2 -7 -3 -14t-1 -16q0 -29 21 -52t61 -36.5t97 -13.5q72 0 127 23t91.5 70t51.5 119l224 1056h357l-224 -1056q-28 -135 -92 -224t-152.5 -141t-193 -74.5t-214.5 -22.5zM474 -25
q-121 0 -216.5 51.5t-149.5 153t-54 250.5q0 136 44.5 254.5t126 208.5t193 140t243.5 50q107 0 195.5 -47t141.5 -133.5t53 -205.5q0 -28 -4.5 -67t-12.5 -67l-136 -7q3 15 5 32t2 31q0 57 -26.5 95t-69.5 57t-91 19q-62 0 -114 -22.5t-90.5 -63.5t-59.5 -97t-21 -124
t23.5 -113.5t65 -69t94.5 -23.5q60 0 116 26t97.5 76.5t57.5 124.5l133 -17q-33 -158 -116 -273t-195 -177t-235 -62zM520 1475h206q0 -60 19.5 -99.5t67.5 -39.5q49 0 78 39.5t36 99.5h206q-14 -131 -107.5 -201.5t-226.5 -70.5q-132 0 -205.5 70.5t-73.5 201.5z" />
    <glyph glyph-name="Gdotaccent" unicode="&#x120;" horiz-adv-x="1459" 
d="M611 -25q-153 0 -267.5 65.5t-178.5 191t-64 305.5q0 198 58.5 372t168.5 306.5t264.5 208t345.5 75.5q140 0 237 -40t157.5 -104.5t88 -140t27.5 -145.5q0 -20 -3 -47t-6 -40h-347q2 9 4.5 26.5t2.5 32.5q0 48 -21.5 88t-65 64.5t-108.5 24.5q-111 0 -194.5 -61.5
t-138.5 -162t-82.5 -218.5t-27.5 -230q0 -109 32.5 -173t85.5 -91t114 -27q82 0 145 32.5t105.5 78t60.5 83.5l10 54h-269l54 252h586l-161 -755h-176v163q-15 -28 -66 -72.5t-142 -80t-229 -35.5zM974 1560q-80 0 -140.5 42t-60.5 119q0 78 60.5 119.5t140.5 41.5
t140 -41.5t60 -119.5t-60 -119.5t-140 -41.5z" />
    <glyph glyph-name="gdotaccent" unicode="&#x121;" horiz-adv-x="1348" 
d="M485 -456q-88 0 -179 17t-167.5 52.5t-123 92t-46.5 136.5q0 25 2.5 45.5t6.5 38.5h357q-2 -7 -3 -14t-1 -16q0 -29 21 -52t61 -36.5t97 -13.5q72 0 127 23t91.5 70t51.5 119l224 1056h357l-224 -1056q-28 -135 -92 -224t-152.5 -141t-193 -74.5t-214.5 -22.5zM474 -25
q-121 0 -216.5 51.5t-149.5 153t-54 250.5q0 136 44.5 254.5t126 208.5t193 140t243.5 50q107 0 195.5 -47t141.5 -133.5t53 -205.5q0 -28 -4.5 -67t-12.5 -67l-136 -7q3 15 5 32t2 31q0 57 -26.5 95t-69.5 57t-91 19q-62 0 -114 -22.5t-90.5 -63.5t-59.5 -97t-21 -124
t23.5 -113.5t65 -69t94.5 -23.5q60 0 116 26t97.5 76.5t57.5 124.5l133 -17q-33 -158 -116 -273t-195 -177t-235 -62zM798 1204q-76 0 -130.5 38t-54.5 107q0 58 31 97.5t81.5 60t106.5 20.5q75 0 129.5 -37.5t54.5 -107.5q0 -57 -31 -97t-80.5 -60.5t-106.5 -20.5z" />
    <glyph glyph-name="uni0122" unicode="&#x122;" horiz-adv-x="1459" 
d="M611 -25q-153 0 -267.5 65.5t-178.5 191t-64 305.5q0 198 58.5 372t168.5 306.5t264.5 208t345.5 75.5q140 0 237 -40t157.5 -104.5t88 -140t27.5 -145.5q0 -20 -3 -47t-6 -40h-347q2 9 4.5 26.5t2.5 32.5q0 48 -21.5 88t-65 64.5t-108.5 24.5q-111 0 -194.5 -61.5
t-138.5 -162t-82.5 -218.5t-27.5 -230q0 -109 32.5 -173t85.5 -91t114 -27q82 0 145 32.5t105.5 78t60.5 83.5l10 54h-269l54 252h586l-161 -755h-176v163q-15 -28 -66 -72.5t-142 -80t-229 -35.5zM574 -276q-46 0 -73 22.5t-27 63.5q0 62 46 88.5t95 26.5q41 0 83 -25.5
t42 -88.5q0 -66 -35.5 -121t-90 -93t-113.5 -58l-22 53q31 11 70 31t69.5 52.5t34.5 77.5q-10 -14 -32 -21.5t-47 -7.5z" />
    <glyph glyph-name="uni0123" unicode="&#x123;" horiz-adv-x="1348" 
d="M485 -456q-88 0 -179 17t-167.5 52.5t-123 92t-46.5 136.5q0 25 2.5 45.5t6.5 38.5h357q-2 -7 -3 -14t-1 -16q0 -29 21 -52t61 -36.5t97 -13.5q72 0 127 23t91.5 70t51.5 119l224 1056h357l-224 -1056q-28 -135 -92 -224t-152.5 -141t-193 -74.5t-214.5 -22.5zM474 -25
q-121 0 -216.5 51.5t-149.5 153t-54 250.5q0 136 44.5 254.5t126 208.5t193 140t243.5 50q107 0 195.5 -47t141.5 -133.5t53 -205.5q0 -28 -4.5 -67t-12.5 -67l-136 -7q3 15 5 32t2 31q0 57 -26.5 95t-69.5 57t-91 19q-62 0 -114 -22.5t-90.5 -63.5t-59.5 -97t-21 -124
t23.5 -113.5t65 -69t94.5 -23.5q60 0 116 26t97.5 76.5t57.5 124.5l133 -17q-33 -158 -116 -273t-195 -177t-235 -62zM854 1425q48 0 75.5 -24t27.5 -67q0 -72 -49.5 -118.5t-125.5 -46.5q-60 0 -91.5 33.5t-31.5 89.5q0 76 42.5 138.5t109.5 108.5t141 74l16 -60
q-36 -13 -75.5 -37.5t-70 -53t-37.5 -57.5q3 5 22 12.5t47 7.5z" />
    <glyph glyph-name="Hcircumflex" unicode="&#x124;" horiz-adv-x="1440" 
d="M1525 1475l-314 -1475h-358l162 758l127 -159h-815l195 159l-161 -758h-358l314 1475h358l-164 -766l-127 160h815l-195 -160l163 766h358zM600 1559l273 216h226l226 -216h-219l-169 166h92l-203 -166h-226z" />
    <glyph glyph-name="hcircumflex" unicode="&#x125;" horiz-adv-x="1311" 
d="M741 0l98 459q7 29 14 67.5t12.5 75t5.5 58.5q0 27 -7.5 50t-24 39.5t-44.5 25.5t-70 9q-70 0 -122 -28t-84.5 -80t-48.5 -124l-70 71q30 139 108 242.5t190 160.5t244 57q95 0 156 -25.5t95 -67t47.5 -91t13.5 -96.5q0 -55 -14.5 -133t-40.5 -197l-102 -473h-356zM-2 0
l332 1563h356l-332 -1563h-356zM196 1693l279 281h224l219 -281h-217l-165 217h93l-209 -217h-224z" />
    <glyph glyph-name="Hbar" unicode="&#x126;" horiz-adv-x="1440" 
d="M152 1083l36 169h1369l-36 -169h-1369zM1525 1475l-314 -1475h-358l162 758l127 -159h-815l195 159l-161 -758h-358l314 1475h358l-164 -766l-127 160h815l-195 -160l163 766h358z" />
    <glyph glyph-name="hbar" unicode="&#x127;" horiz-adv-x="1238" 
d="M129 1231l36 169h819l-36 -169h-819zM741 0l98 459q7 29 14 67.5t12.5 75t5.5 58.5q0 27 -7.5 50t-24 39.5t-44.5 25.5t-70 9q-70 0 -122 -28t-84.5 -80t-48.5 -124l-70 71q30 139 108 242.5t190 160.5t244 57q95 0 156 -25.5t95 -67t47.5 -91t13.5 -96.5
q0 -55 -14.5 -133t-40.5 -197l-102 -473h-356zM-2 0l332 1563h356l-332 -1563h-356z" />
    <glyph glyph-name="Itilde" unicode="&#x128;" horiz-adv-x="584" 
d="M-2 0l314 1475h357l-313 -1475h-358zM890 1794q-5 -58 -36 -115.5t-84 -95.5t-125 -38q-56 0 -87 22t-50 42q-19 21 -37.5 35.5t-46.5 14.5q-32 0 -50.5 -25t-23.5 -70h-177q7 59 38.5 116.5t86 96t128.5 38.5q51 0 82 -22t51 -42q20 -21 41 -35.5t45 -14.5q29 0 46.5 24
t22.5 69h176z" />
    <glyph glyph-name="itilde" unicode="&#x129;" horiz-adv-x="551" 
d="M-16 0l225 1062h355l-225 -1062h-355zM799 1457q-6 -58 -37 -115t-83.5 -95t-125.5 -38q-56 0 -86.5 22t-49.5 41q-20 22 -38.5 36.5t-45.5 14.5q-32 0 -51 -25.5t-24 -69.5h-176q6 59 37.5 116.5t86 96t129.5 38.5q51 0 82 -22t50 -43q20 -20 41.5 -34.5t45.5 -14.5
q28 0 45.5 24t22.5 68h177z" />
    <glyph glyph-name="Imacron" unicode="&#x12a;" horiz-adv-x="584" 
d="M-2 0l314 1475h357l-313 -1475h-358zM193 1609l31 146h658l-31 -146h-658z" />
    <glyph glyph-name="imacron" unicode="&#x12b;" horiz-adv-x="551" 
d="M-16 0l225 1062h355l-225 -1062h-355zM195 1276l30 146h471l-31 -146h-470z" />
    <glyph glyph-name="Ibreve" unicode="&#x12c;" horiz-adv-x="584" 
d="M-2 0l314 1475h357l-313 -1475h-358zM233 1759h206q0 -36 21.5 -62.5t69.5 -26.5q49 0 77.5 26t32.5 63h206q-10 -101 -103.5 -162t-225.5 -61q-133 0 -208.5 61t-75.5 162z" />
    <glyph glyph-name="ibreve" unicode="&#x12d;" horiz-adv-x="551" 
d="M-16 0l225 1062h355l-225 -1062h-355zM155 1475h206q0 -60 19.5 -99.5t67.5 -39.5q49 0 78 39.5t36 99.5h206q-14 -131 -107.5 -201.5t-226.5 -70.5q-132 0 -205.5 70.5t-73.5 201.5z" />
    <glyph glyph-name="Iogonek" unicode="&#x12e;" horiz-adv-x="584" 
d="M-2 0l314 1475h357l-313 -1475h-358zM326 -283l-17 -168q-21 -2 -45 -3.5t-49 -1.5q-69 0 -129 15t-97 48.5t-37 89.5q0 65 41 124t95.5 105.5t97.5 73.5h170q-22 -17 -54.5 -45.5t-64.5 -62.5t-53 -66.5t-21 -56.5q0 -36 25.5 -47t63.5 -11q18 0 38 2t36 4z" />
    <glyph glyph-name="iogonek" unicode="&#x12f;" horiz-adv-x="551" 
d="M-16 0l225 1062h355l-225 -1062h-355zM309 -283l-18 -168q-20 -2 -44 -3.5t-50 -1.5q-102 0 -174 38.5t-72 122.5q0 57 36.5 114.5t87.5 105.5t94 75h170q-22 -17 -54.5 -45.5t-64.5 -62.5t-53 -66.5t-21 -56.5q0 -36 25 -47t63 -11q19 0 39 2t36 4zM433 1204
q-76 0 -130.5 38t-54.5 107q0 58 31 97.5t81.5 60t106.5 20.5q75 0 129.5 -37.5t54.5 -107.5q0 -57 -31 -97t-80.5 -60.5t-106.5 -20.5z" />
    <glyph glyph-name="Idotaccent" unicode="&#x130;" horiz-adv-x="584" 
d="M-2 0l314 1475h357l-313 -1475h-358zM536 1560q-80 0 -140.5 42t-60.5 119q0 78 60.5 119.5t140.5 41.5t140 -41.5t60 -119.5t-60 -119.5t-140 -41.5z" />
    <glyph glyph-name="dotlessi" unicode="&#x131;" horiz-adv-x="551" 
d="M-16 0l225 1062h355l-225 -1062h-355z" />
    <glyph glyph-name="Jcircumflex" unicode="&#x134;" horiz-adv-x="1195" 
d="M478 -25q-232 0 -345.5 97.5t-113.5 256.5q0 60 11.5 118t24.5 111h354q-8 -32 -16.5 -77t-8.5 -92q0 -62 29.5 -98t103.5 -36q96 0 138 76.5t69 208.5l199 935h356l-209 -986q-22 -104 -60.5 -196t-105.5 -164t-171 -113t-255 -41zM787 1559l273 216h226l226 -216h-219
l-169 166h92l-203 -166h-226z" />
    <glyph glyph-name="jcircumflex" unicode="&#x135;" horiz-adv-x="550" 
d="M-249 -460q-30 0 -58.5 2t-46.5 3l56 261q18 -3 45.5 -5.5t58.5 -2.5q55 0 88.5 18.5t51 46.5t22.5 54l244 1145h355l-243 -1153q-14 -66 -46 -131t-95 -119t-167.5 -86.5t-264.5 -32.5zM78 1194l279 281h224l219 -281h-217l-165 217h93l-209 -217h-224z" />
    <glyph glyph-name="uni0136" unicode="&#x136;" horiz-adv-x="1368" 
d="M768 705l58 273l374 -978h-373l-225 705l133 -21l-324 -346l69 223l-119 -561h-356l312 1475h358l-161 -751l-83 31l676 720h386zM518 -276q-46 0 -73 22.5t-27 63.5q0 62 46 88.5t95 26.5q41 0 83 -25.5t42 -88.5q0 -66 -35.5 -121t-90 -93t-113.5 -58l-22 53
q31 11 70 31t69.5 52.5t34.5 77.5q-10 -14 -32 -21.5t-47 -7.5z" />
    <glyph glyph-name="uni0137" unicode="&#x137;" horiz-adv-x="1186" 
d="M-2 0l332 1563h338l-186 -874l-84 36l449 337h454l-634 -478l99 128l292 -712h-356l-199 525h83l-207 -160l66 151l-109 -516h-338zM444 -276q-46 0 -73 22.5t-27 63.5q0 62 46 88.5t95 26.5q41 0 83 -25.5t42 -88.5q0 -66 -35.5 -121t-90 -93t-113.5 -58l-22 53
q31 11 70 31t69.5 52.5t34.5 77.5q-10 -14 -32 -21.5t-47 -7.5z" />
    <glyph glyph-name="kgreenlandic" unicode="&#x138;" horiz-adv-x="1097" 
d="M691 508l6 196l282 -704h-351l-188 507l177 -50l-256 -263l60 210l-86 -404h-337l226 1062h337l-115 -541l-60 23l438 518h386z" />
    <glyph glyph-name="Lacute" unicode="&#x139;" horiz-adv-x="1080" 
d="M3 0l314 1475h358l-291 -1369l-124 181h699l-61 -287h-895zM323 1561l270 215h274l-308 -215h-236z" />
    <glyph glyph-name="lacute" unicode="&#x13a;" horiz-adv-x="595" 
d="M699 1563l-332 -1563h-354l332 1563h354zM349 1649l270 215h274l-308 -215h-236z" />
    <glyph glyph-name="uni013B" unicode="&#x13b;" horiz-adv-x="1080" 
d="M3 0l314 1475h358l-291 -1369l-124 181h699l-61 -287h-895zM395 -276q-46 0 -73 22.5t-27 63.5q0 62 46 88.5t95 26.5q41 0 83 -25.5t42 -88.5q0 -66 -35.5 -121t-90 -93t-113.5 -58l-22 53q31 11 70 31t69.5 52.5t34.5 77.5q-10 -14 -32 -21.5t-47 -7.5z" />
    <glyph glyph-name="uni013C" unicode="&#x13c;" horiz-adv-x="595" 
d="M699 1563l-332 -1563h-354l332 1563h354zM112 -276q-46 0 -73 22.5t-27 63.5q0 62 46 88.5t95 26.5q41 0 83 -25.5t42 -88.5q0 -66 -35.5 -121t-90 -93t-113.5 -58l-22 53q31 11 70 31t69.5 52.5t34.5 77.5q-10 -14 -32 -21.5t-47 -7.5z" />
    <glyph glyph-name="Lcaron" unicode="&#x13d;" horiz-adv-x="1080" 
d="M3 0l314 1475h358l-291 -1369l-124 181h699l-61 -287h-895zM1076 1475q-10 -92 -31 -180.5t-42 -155t-32 -95.5h-162q11 30 26.5 96.5t31 154t24.5 180.5h185z" />
    <glyph glyph-name="lcaron" unicode="&#x13e;" horiz-adv-x="736" 
d="M684 1563l-332 -1563h-354l332 1563h354zM924 1563q-10 -92 -31 -180.5t-42 -155t-32 -95.5h-162q11 30 26.5 96.5t31 154t24.5 180.5h185z" />
    <glyph glyph-name="Ldot" unicode="&#x13f;" horiz-adv-x="1090" 
d="M3 0l314 1475h358l-291 -1369l-124 181h699l-61 -287h-895zM886 560q-75 0 -128 52.5t-53 128.5q0 74 53 127t128 53q74 0 127 -53t53 -127q0 -76 -53 -128.5t-127 -52.5z" />
    <glyph glyph-name="ldot" unicode="&#x140;" horiz-adv-x="849" 
d="M684 1563l-332 -1563h-354l332 1563h354zM739 560q-75 0 -128 52.5t-53 128.5q0 74 53 127t128 53q74 0 127 -53t53 -127q0 -76 -53 -128.5t-127 -52.5z" />
    <glyph glyph-name="Lslash" unicode="&#x141;" horiz-adv-x="1228" 
d="M983 783l-911 -411l-75 245l914 411zM151 0l314 1475h357l-290 -1369l-124 181h698l-60 -287h-895z" />
    <glyph glyph-name="lslash" unicode="&#x142;" horiz-adv-x="559" 
d="M-19 784l684 299l50 -185l-685 -298zM699 1563l-332 -1563h-354l332 1563h354z" />
    <glyph glyph-name="Nacute" unicode="&#x143;" horiz-adv-x="1514" 
d="M351 0h-348l314 1475h581l87 -1359l-25 -14l292 1373h347l-314 -1475h-585l-88 1354l30 14zM818 1561l270 215h274l-308 -215h-236z" />
    <glyph glyph-name="nacute" unicode="&#x144;" horiz-adv-x="1313" 
d="M741 0l94 432q18 84 27 136t9 87q0 57 -31.5 93t-113.5 36q-67 0 -119.5 -29.5t-87 -83.5t-50.5 -127l-68 71q22 106 72.5 192.5t122.5 148t159 94.5t182 33q162 0 238 -78.5t76 -210.5q0 -65 -17.5 -158.5t-48.5 -236.5l-88 -399h-356zM-2 0l226 1062h356l-226 -1062
h-356zM646 1194l238 281h264l-277 -281h-225z" />
    <glyph glyph-name="uni0145" unicode="&#x145;" horiz-adv-x="1514" 
d="M351 0h-348l314 1475h581l87 -1359l-25 -14l292 1373h347l-314 -1475h-585l-88 1354l30 14zM598 -276q-46 0 -73 22.5t-27 63.5q0 62 46 88.5t95 26.5q41 0 83 -25.5t42 -88.5q0 -66 -35.5 -121t-90 -93t-113.5 -58l-22 53q31 11 70 31t69.5 52.5t34.5 77.5
q-10 -14 -32 -21.5t-47 -7.5z" />
    <glyph glyph-name="uni0146" unicode="&#x146;" horiz-adv-x="1313" 
d="M741 0l94 432q18 84 27 136t9 87q0 57 -31.5 93t-113.5 36q-67 0 -119.5 -29.5t-87 -83.5t-50.5 -127l-68 71q22 106 72.5 192.5t122.5 148t159 94.5t182 33q162 0 238 -78.5t76 -210.5q0 -65 -17.5 -158.5t-48.5 -236.5l-88 -399h-356zM-2 0l226 1062h356l-226 -1062
h-356zM473 -276q-46 0 -73 22.5t-27 63.5q0 62 46 88.5t95 26.5q41 0 83 -25.5t42 -88.5q0 -66 -35.5 -121t-90 -93t-113.5 -58l-22 53q31 11 70 31t69.5 52.5t34.5 77.5q-10 -14 -32 -21.5t-47 -7.5z" />
    <glyph glyph-name="Ncaron" unicode="&#x147;" horiz-adv-x="1514" 
d="M351 0h-348l314 1475h581l87 -1359l-25 -14l292 1373h347l-314 -1475h-585l-88 1354l30 14zM673 1775h218l169 -165h-93l205 165h226l-272 -216h-226z" />
    <glyph glyph-name="ncaron" unicode="&#x148;" horiz-adv-x="1313" 
d="M741 0l94 432q18 84 27 136t9 87q0 57 -31.5 93t-113.5 36q-67 0 -119.5 -29.5t-87 -83.5t-50.5 -127l-68 71q22 106 72.5 192.5t122.5 148t159 94.5t182 33q162 0 238 -78.5t76 -210.5q0 -65 -17.5 -158.5t-48.5 -236.5l-88 -399h-356zM-2 0l226 1062h356l-226 -1062
h-356zM515 1475h217l163 -217h-93l210 217h225l-278 -281h-224z" />
    <glyph glyph-name="Eng" unicode="&#x14a;" horiz-adv-x="1515" 
d="M603 -456q-33 0 -70.5 4t-48.5 6l55 257q13 -4 48.5 -8.5t64.5 -4.5q49 0 94 9t82.5 29t62.5 51.5t34 75.5l8 37h-244l-76 1387l32 -3l-294 -1384h-348l314 1475h595l76 -1411l-36 3l300 1408h347l-319 -1504q-25 -120 -76.5 -202.5t-133.5 -131.5t-197.5 -71t-269.5 -22
z" />
    <glyph glyph-name="eng" unicode="&#x14b;" horiz-adv-x="1309" 
d="M411 -456l49 254q49 0 93.5 9t80.5 28.5t60.5 51t34.5 76.5l102 469q18 84 27 136t9 88q0 56 -29.5 92t-111.5 36q-67 0 -119.5 -29.5t-87.5 -83.5t-50 -127l-68 71q22 106 72.5 192.5t122.5 148t159 94.5t182 33q162 0 236 -78.5t74 -210.5q0 -65 -17.5 -158.5
t-48.5 -236.5l-93 -428q-26 -120 -77.5 -202.5t-133 -131.5t-197 -71t-269.5 -22zM-2 0l226 1062h356l-226 -1062h-356z" />
    <glyph glyph-name="Omacron" unicode="&#x14c;" horiz-adv-x="1535" 
d="M676 -25q-161 0 -290.5 68.5t-204.5 202t-75 328.5q0 194 60 361.5t171 294t265.5 198t343.5 71.5q164 0 292.5 -67.5t203.5 -199t75 -326.5q0 -192 -60.5 -360.5t-172.5 -297t-266 -201t-342 -72.5zM708 256q115 0 199 58t139 153.5t82 211t27 230.5t-32 182.5t-86.5 97
t-123.5 29.5q-115 0 -199 -55.5t-139 -148.5t-81 -207t-26 -232q0 -176 68.5 -247.5t171.5 -71.5zM651 1609l31 146h658l-31 -146h-658z" />
    <glyph glyph-name="omacron" unicode="&#x14d;" horiz-adv-x="1309" 
d="M565 -24q-157 0 -272 57t-177.5 159t-62.5 238q0 144 53 263.5t147.5 207t220 135t269.5 47.5q157 0 272 -57t178 -159t63 -236q0 -146 -53.5 -266t-148 -207t-220 -134.5t-269.5 -47.5zM602 250q87 0 152.5 48t101.5 128.5t36 178.5q0 64 -19.5 109t-60.5 69.5
t-105 24.5q-66 0 -119.5 -27.5t-91.5 -76t-58.5 -112t-20.5 -136.5q0 -97 45 -151.5t140 -54.5zM471 1276l31 146h658l-31 -146h-658z" />
    <glyph glyph-name="Obreve" unicode="&#x14e;" horiz-adv-x="1535" 
d="M676 -25q-161 0 -290.5 68.5t-204.5 202t-75 328.5q0 194 60 361.5t171 294t265.5 198t343.5 71.5q164 0 292.5 -67.5t203.5 -199t75 -326.5q0 -192 -60.5 -360.5t-172.5 -297t-266 -201t-342 -72.5zM708 256q115 0 199 58t139 153.5t82 211t27 230.5t-32 182.5t-86.5 97
t-123.5 29.5q-115 0 -199 -55.5t-139 -148.5t-81 -207t-26 -232q0 -176 68.5 -247.5t171.5 -71.5zM691 1759h206q0 -36 21.5 -62.5t69.5 -26.5q49 0 77.5 26t32.5 63h206q-10 -101 -103.5 -162t-225.5 -61q-133 0 -208.5 61t-75.5 162z" />
    <glyph glyph-name="obreve" unicode="&#x14f;" horiz-adv-x="1309" 
d="M565 -24q-157 0 -272 57t-177.5 159t-62.5 238q0 144 53 263.5t147.5 207t220 135t269.5 47.5q157 0 272 -57t178 -159t63 -236q0 -146 -53.5 -266t-148 -207t-220 -134.5t-269.5 -47.5zM602 250q87 0 152.5 48t101.5 128.5t36 178.5q0 64 -19.5 109t-60.5 69.5
t-105 24.5q-66 0 -119.5 -27.5t-91.5 -76t-58.5 -112t-20.5 -136.5q0 -97 45 -151.5t140 -54.5zM525 1475h206q0 -60 19.5 -99.5t67.5 -39.5q49 0 78 39.5t36 99.5h206q-14 -131 -107.5 -201.5t-226.5 -70.5q-132 0 -205.5 70.5t-73.5 201.5z" />
    <glyph glyph-name="Ohungarumlaut" unicode="&#x150;" horiz-adv-x="1535" 
d="M676 -25q-161 0 -290.5 68.5t-204.5 202t-75 328.5q0 194 60 361.5t171 294t265.5 198t343.5 71.5q164 0 292.5 -67.5t203.5 -199t75 -326.5q0 -192 -60.5 -360.5t-172.5 -297t-266 -201t-342 -72.5zM708 256q115 0 199 58t139 153.5t82 211t27 230.5t-32 182.5t-86.5 97
t-123.5 29.5q-115 0 -199 -55.5t-139 -148.5t-81 -207t-26 -232q0 -176 68.5 -247.5t171.5 -71.5zM664 1561l251 215h217l-271 -215h-197zM1030 1561l251 215h217l-271 -215h-197z" />
    <glyph glyph-name="ohungarumlaut" unicode="&#x151;" horiz-adv-x="1309" 
d="M565 -24q-157 0 -272 57t-177.5 159t-62.5 238q0 144 53 263.5t147.5 207t220 135t269.5 47.5q157 0 272 -57t178 -159t63 -236q0 -146 -53.5 -266t-148 -207t-220 -134.5t-269.5 -47.5zM602 250q87 0 152.5 48t101.5 128.5t36 178.5q0 64 -19.5 109t-60.5 69.5
t-105 24.5q-66 0 -119.5 -27.5t-91.5 -76t-58.5 -112t-20.5 -136.5q0 -97 45 -151.5t140 -54.5zM483 1194l148 281h211l-183 -281h-176zM832 1194l166 281h211l-200 -281h-177z" />
    <glyph glyph-name="OE" unicode="&#x152;" horiz-adv-x="2105" 
d="M655 -25q-162 0 -286.5 69t-194 200.5t-69.5 319.5q0 193 57.5 362t164.5 298t258 202t339 73q68 0 130.5 -15.5t112 -41.5t78.5 -58l18 91h927l-58 -270h-746l195 162l-124 -581l-73 89h575l-57 -270h-574l110 93l-124 -590l-127 162h746l-57 -270h-927l15 65
q-32 -26 -82 -46.5t-108.5 -32t-118.5 -11.5zM687 256q91 0 161 39t121 106.5t83.5 152.5t48 180t15.5 187q0 165 -61.5 231t-162.5 66q-114 0 -195 -59t-132 -156.5t-75 -215t-24 -233.5q0 -164 60.5 -231t160.5 -67z" />
    <glyph glyph-name="oe" unicode="&#x153;" horiz-adv-x="2136" 
d="M565 -24q-157 0 -272 57t-177.5 159t-62.5 238q0 144 53 263.5t147.5 207t220 135t269.5 47.5q158 0 272 -59.5t174 -163.5l-135 7q63 68 144.5 116.5t177 74t200.5 25.5q160 0 273.5 -55t174.5 -155t61 -237q0 -47 -9 -106t-24 -101h-988l175 131q-7 -34 -10.5 -66.5
t-3.5 -62.5q0 -60 20 -104t65 -67t122 -23q56 0 98 9t70.5 23.5t45.5 32t23 34.5h353q-21 -69 -71 -133.5t-128.5 -116t-186 -81.5t-243.5 -30q-107 0 -193.5 27t-150.5 76.5t-103 117.5l135 -5q-62 -67 -143 -115.5t-175 -74t-198 -25.5zM602 250q87 0 152.5 48
t101.5 128.5t36 178.5q0 64 -19.5 109t-60.5 69.5t-105 24.5q-66 0 -119.5 -27.5t-91.5 -76t-58.5 -112t-20.5 -136.5q0 -97 45 -151.5t140 -54.5zM1272 652h471q1 4 1 9.5v10.5q0 39 -19 74t-60.5 57t-112.5 22q-66 0 -120 -21.5t-94.5 -60t-65.5 -91.5z" />
    <glyph glyph-name="Racute" unicode="&#x154;" horiz-adv-x="1303" 
d="M3 0l314 1475h623q213 0 306 -86.5t93 -226.5q0 -82 -27 -162t-75 -146.5t-113.5 -109.5t-142.5 -49q52 -3 96 -22.5t70 -60t26 -107.5q0 -32 -7.5 -76t-19 -95t-23.5 -102t-19.5 -96t-7.5 -77q0 -19 2.5 -34.5t7.5 -24.5h-357q-9 19 -9 58q0 30 7 69.5t16.5 83
t19.5 86.5t17 80.5t7 65.5q0 57 -38.5 86.5t-112.5 29.5h-346l182 96l-140 -655h-349zM508 734l-141 95h358q62 0 115.5 28.5t86 79t32.5 117.5q0 65 -37 108.5t-120 43.5h-354l195 161zM624 1561l270 215h274l-308 -215h-236z" />
    <glyph glyph-name="racute" unicode="&#x155;" horiz-adv-x="958" 
d="M-2 0l226 1062h357l-80 -380l-59 48q30 79 75 144.5t103 112t127.5 71.5t148.5 25q65 0 97 -9t39 -14l-120 -315q-8 5 -36.5 15.5t-75.5 10.5q-79 0 -138.5 -25.5t-101 -68t-67 -95t-37.5 -106.5l-100 -476h-358zM516 1194l238 281h264l-277 -281h-225z" />
    <glyph glyph-name="uni0156" unicode="&#x156;" horiz-adv-x="1303" 
d="M3 0l314 1475h623q213 0 306 -86.5t93 -226.5q0 -82 -27 -162t-75 -146.5t-113.5 -109.5t-142.5 -49q52 -3 96 -22.5t70 -60t26 -107.5q0 -32 -7.5 -76t-19 -95t-23.5 -102t-19.5 -96t-7.5 -77q0 -19 2.5 -34.5t7.5 -24.5h-357q-9 19 -9 58q0 30 7 69.5t16.5 83
t19.5 86.5t17 80.5t7 65.5q0 57 -38.5 86.5t-112.5 29.5h-346l182 96l-140 -655h-349zM508 734l-141 95h358q62 0 115.5 28.5t86 79t32.5 117.5q0 65 -37 108.5t-120 43.5h-354l195 161zM479 -276q-46 0 -73 22.5t-27 63.5q0 62 46 88.5t95 26.5q41 0 83 -25.5t42 -88.5
q0 -66 -35.5 -121t-90 -93t-113.5 -58l-22 53q31 11 70 31t69.5 52.5t34.5 77.5q-10 -14 -32 -21.5t-47 -7.5z" />
    <glyph glyph-name="uni0157" unicode="&#x157;" horiz-adv-x="958" 
d="M-2 0l226 1062h357l-80 -380l-59 48q30 79 75 144.5t103 112t127.5 71.5t148.5 25q65 0 97 -9t39 -14l-120 -315q-8 5 -36.5 15.5t-75.5 10.5q-79 0 -138.5 -25.5t-101 -68t-67 -95t-37.5 -106.5l-100 -476h-358zM109 -276q-46 0 -73 22.5t-27 63.5q0 62 46 88.5t95 26.5
q41 0 83 -25.5t42 -88.5q0 -66 -35.5 -121t-90 -93t-113.5 -58l-22 53q31 11 70 31t69.5 52.5t34.5 77.5q-10 -14 -32 -21.5t-47 -7.5z" />
    <glyph glyph-name="Rcaron" unicode="&#x158;" horiz-adv-x="1303" 
d="M3 0l314 1475h623q213 0 306 -86.5t93 -226.5q0 -82 -27 -162t-75 -146.5t-113.5 -109.5t-142.5 -49q52 -3 96 -22.5t70 -60t26 -107.5q0 -32 -7.5 -76t-19 -95t-23.5 -102t-19.5 -96t-7.5 -77q0 -19 2.5 -34.5t7.5 -24.5h-357q-9 19 -9 58q0 30 7 69.5t16.5 83
t19.5 86.5t17 80.5t7 65.5q0 57 -38.5 86.5t-112.5 29.5h-346l182 96l-140 -655h-349zM508 734l-141 95h358q62 0 115.5 28.5t86 79t32.5 117.5q0 65 -37 108.5t-120 43.5h-354l195 161zM479 1775h218l169 -165h-93l205 165h226l-272 -216h-226z" />
    <glyph glyph-name="rcaron" unicode="&#x159;" horiz-adv-x="958" 
d="M-2 0l226 1062h357l-80 -380l-59 48q30 79 75 144.5t103 112t127.5 71.5t148.5 25q65 0 97 -9t39 -14l-120 -315q-8 5 -36.5 15.5t-75.5 10.5q-79 0 -138.5 -25.5t-101 -68t-67 -95t-37.5 -106.5l-100 -476h-358zM385 1475h217l163 -217h-93l210 217h225l-278 -281h-224z
" />
    <glyph glyph-name="Sacute" unicode="&#x15a;" horiz-adv-x="1271" 
d="M530 -25q-137 0 -248 42t-175.5 122.5t-64.5 197.5q0 48 6.5 83t15.5 72h357q-8 -31 -12 -56t-4 -46q0 -63 42.5 -99t127.5 -36q66 0 121 16t88 50t33 89q0 66 -78 115.5t-200 94.5q-86 33 -166.5 79.5t-132.5 115.5t-52 170q0 119 50 214t137 162t200.5 102.5
t240.5 35.5q141 0 251 -42.5t172.5 -121t62.5 -187.5q0 -41 -6.5 -80.5t-13.5 -63.5h-357q4 16 8.5 41.5t4.5 49.5q0 59 -41 92t-124 33q-68 0 -120.5 -18.5t-83 -55t-30.5 -94.5q0 -64 74 -108t192 -91q106 -42 189.5 -91.5t131.5 -118t48 -170.5q0 -160 -87 -271.5
t-233 -169t-324 -57.5zM657 1561l270 215h274l-308 -215h-236z" />
    <glyph glyph-name="sacute" unicode="&#x15b;" horiz-adv-x="1134" 
d="M465 -25q-83 0 -164 19t-147 56t-105.5 92.5t-39.5 129.5q0 21 3.5 41.5t6.5 31.5h354q-2 -6 -3.5 -15t-1.5 -16q0 -40 38.5 -57.5t106.5 -17.5q37 0 77 8.5t67.5 29t27.5 56.5q0 33 -50 50t-154 34q-87 15 -171.5 44.5t-139.5 88t-55 156.5q0 97 46 168t124.5 117.5
t177.5 69t204 22.5q113 0 213 -36.5t163 -103.5t63 -159q0 -20 -3 -39t-6 -30h-350q3 6 4 13t1 16q0 28 -18.5 44.5t-46.5 25t-59 8.5t-69 -7.5t-65 -25.5t-27 -50q0 -35 47 -53.5t132 -32.5q55 -9 122 -25t127.5 -47t99.5 -80.5t39 -126.5q0 -103 -48.5 -178t-129.5 -124
t-182.5 -73t-208.5 -24zM526 1194l238 281h264l-277 -281h-225z" />
    <glyph glyph-name="Scircumflex" unicode="&#x15c;" horiz-adv-x="1271" 
d="M530 -25q-137 0 -248 42t-175.5 122.5t-64.5 197.5q0 48 6.5 83t15.5 72h357q-8 -31 -12 -56t-4 -46q0 -63 42.5 -99t127.5 -36q66 0 121 16t88 50t33 89q0 66 -78 115.5t-200 94.5q-86 33 -166.5 79.5t-132.5 115.5t-52 170q0 119 50 214t137 162t200.5 102.5
t240.5 35.5q141 0 251 -42.5t172.5 -121t62.5 -187.5q0 -41 -6.5 -80.5t-13.5 -63.5h-357q4 16 8.5 41.5t4.5 49.5q0 59 -41 92t-124 33q-68 0 -120.5 -18.5t-83 -55t-30.5 -94.5q0 -64 74 -108t192 -91q106 -42 189.5 -91.5t131.5 -118t48 -170.5q0 -160 -87 -271.5
t-233 -169t-324 -57.5zM501 1559l273 216h226l226 -216h-219l-169 166h92l-203 -166h-226z" />
    <glyph glyph-name="scircumflex" unicode="&#x15d;" horiz-adv-x="1134" 
d="M465 -25q-83 0 -164 19t-147 56t-105.5 92.5t-39.5 129.5q0 21 3.5 41.5t6.5 31.5h354q-2 -6 -3.5 -15t-1.5 -16q0 -40 38.5 -57.5t106.5 -17.5q37 0 77 8.5t67.5 29t27.5 56.5q0 33 -50 50t-154 34q-87 15 -171.5 44.5t-139.5 88t-55 156.5q0 97 46 168t124.5 117.5
t177.5 69t204 22.5q113 0 213 -36.5t163 -103.5t63 -159q0 -20 -3 -39t-6 -30h-350q3 6 4 13t1 16q0 28 -18.5 44.5t-46.5 25t-59 8.5t-69 -7.5t-65 -25.5t-27 -50q0 -35 47 -53.5t132 -32.5q55 -9 122 -25t127.5 -47t99.5 -80.5t39 -126.5q0 -103 -48.5 -178t-129.5 -124
t-182.5 -73t-208.5 -24zM357 1194l279 281h224l219 -281h-217l-165 217h93l-209 -217h-224z" />
    <glyph glyph-name="Scedilla" unicode="&#x15e;" horiz-adv-x="1271" 
d="M643 -82q49 0 95 -28.5t46 -96.5q0 -75 -45 -124.5t-117 -74t-151 -24.5q-43 0 -90.5 7.5t-86 20t-56.5 25.5l86 127q18 -12 67 -31t101 -19q58 0 98.5 21.5t40.5 63.5q0 24 -16 34.5t-39 10.5q-24 0 -48.5 -8t-38.5 -25l-126 36l94 150h149l-75 -118l-11 1
q13 23 44.5 37.5t78.5 14.5zM530 -25q-137 0 -248 42t-175.5 122.5t-64.5 197.5q0 48 6.5 83t15.5 72h357q-8 -31 -12 -56t-4 -46q0 -63 42.5 -99t127.5 -36q66 0 121 16t88 50t33 89q0 66 -78 115.5t-200 94.5q-86 33 -166.5 79.5t-132.5 115.5t-52 170q0 119 50 214
t137 162t200.5 102.5t240.5 35.5q141 0 251 -42.5t172.5 -121t62.5 -187.5q0 -41 -6.5 -80.5t-13.5 -63.5h-357q4 16 8.5 41.5t4.5 49.5q0 59 -41 92t-124 33q-68 0 -120.5 -18.5t-83 -55t-30.5 -94.5q0 -64 74 -108t192 -91q106 -42 189.5 -91.5t131.5 -118t48 -170.5
q0 -160 -87 -271.5t-233 -169t-324 -57.5z" />
    <glyph glyph-name="scedilla" unicode="&#x15f;" horiz-adv-x="1118" 
d="M560 -81q49 0 95 -28.5t46 -96.5q0 -75 -45 -124.5t-117 -74t-151 -24.5q-43 0 -90.5 7.5t-86 20t-56.5 25.5l86 127q18 -12 67 -31t101 -19q58 0 98.5 21.5t40.5 63.5q0 24 -16 34.5t-39 10.5q-24 0 -48.5 -8t-38.5 -25l-127 36l94 150h151l-75 -118l-14 1
q13 23 45.5 37.5t79.5 14.5zM465 -25q-83 0 -164 19t-147 56t-105.5 92.5t-39.5 129.5q0 21 3.5 41.5t6.5 31.5h354q-2 -6 -3.5 -15t-1.5 -16q0 -40 38.5 -57.5t106.5 -17.5q37 0 77 8.5t67.5 29t27.5 56.5q0 33 -50 50t-154 34q-87 15 -171.5 44.5t-139.5 88t-55 156.5
q0 97 46 168t124.5 117.5t177.5 69t204 22.5q113 0 213 -36.5t163 -103.5t63 -159q0 -20 -3 -39t-6 -30h-350q3 6 4 13t1 16q0 28 -18.5 44.5t-46.5 25t-59 8.5t-69 -7.5t-65 -25.5t-27 -50q0 -35 47 -53.5t132 -32.5q55 -9 122 -25t127.5 -47t99.5 -80.5t39 -126.5
q0 -103 -48.5 -178t-129.5 -124t-182.5 -73t-208.5 -24z" />
    <glyph glyph-name="Scaron" unicode="&#x160;" horiz-adv-x="1271" 
d="M530 -25q-137 0 -248 42t-175.5 122.5t-64.5 197.5q0 48 6.5 83t15.5 72h357q-8 -31 -12 -56t-4 -46q0 -63 42.5 -99t127.5 -36q66 0 121 16t88 50t33 89q0 66 -78 115.5t-200 94.5q-86 33 -166.5 79.5t-132.5 115.5t-52 170q0 119 50 214t137 162t200.5 102.5
t240.5 35.5q141 0 251 -42.5t172.5 -121t62.5 -187.5q0 -41 -6.5 -80.5t-13.5 -63.5h-357q4 16 8.5 41.5t4.5 49.5q0 59 -41 92t-124 33q-68 0 -120.5 -18.5t-83 -55t-30.5 -94.5q0 -64 74 -108t192 -91q106 -42 189.5 -91.5t131.5 -118t48 -170.5q0 -160 -87 -271.5
t-233 -169t-324 -57.5zM512 1775h218l169 -165h-93l205 165h226l-272 -216h-226z" />
    <glyph glyph-name="scaron" unicode="&#x161;" horiz-adv-x="1134" 
d="M465 -25q-83 0 -164 19t-147 56t-105.5 92.5t-39.5 129.5q0 21 3.5 41.5t6.5 31.5h354q-2 -6 -3.5 -15t-1.5 -16q0 -40 38.5 -57.5t106.5 -17.5q37 0 77 8.5t67.5 29t27.5 56.5q0 33 -50 50t-154 34q-87 15 -171.5 44.5t-139.5 88t-55 156.5q0 97 46 168t124.5 117.5
t177.5 69t204 22.5q113 0 213 -36.5t163 -103.5t63 -159q0 -20 -3 -39t-6 -30h-350q3 6 4 13t1 16q0 28 -18.5 44.5t-46.5 25t-59 8.5t-69 -7.5t-65 -25.5t-27 -50q0 -35 47 -53.5t132 -32.5q55 -9 122 -25t127.5 -47t99.5 -80.5t39 -126.5q0 -103 -48.5 -178t-129.5 -124
t-182.5 -73t-208.5 -24zM395 1475h217l163 -217h-93l210 217h225l-278 -281h-224z" />
    <glyph glyph-name="uni0162" unicode="&#x162;" horiz-adv-x="1191" 
d="M1272 1205h-515l195 162l-291 -1367h-356l291 1367l126 -162h-514l58 270h1063zM597 -65q49 0 95 -28.5t46 -96.5q0 -75 -45 -124.5t-117 -74t-151 -24.5q-43 0 -90.5 7.5t-86 20t-56.5 25.5l86 127q18 -12 67 -31t101 -19q58 0 98.5 22t40.5 64q0 23 -16 33.5t-39 10.5
q-24 0 -48.5 -8t-38.5 -25l-126 36l94 150h149l-75 -118l-11 1q13 24 44.5 38t78.5 14z" />
    <glyph glyph-name="uni0163" unicode="&#x163;" horiz-adv-x="985" 
d="M545 -24q-57 0 -117 8t-110.5 31.5t-81.5 69t-31 121.5q0 37 8 81t20 99l86 406h-241l58 270h38q69 0 112 7t68.5 32.5t42.5 77.5t35 141l18 91h358l-74 -349h301l-57 -270h-301l-72 -337q-11 -55 -17 -85.5t-6 -55.5q0 -32 15 -51t55 -19q35 0 68 7t50 13l-56 -262
q-24 -9 -69 -17.5t-100 -8.5zM560 -65q49 0 95 -28.5t46 -96.5q0 -75 -45 -124.5t-117 -74t-151 -24.5q-43 0 -90.5 7.5t-86 20t-56.5 25.5l86 127q18 -12 67 -31t101 -19q58 0 98.5 22t40.5 64q0 23 -16 33.5t-39 10.5q-24 0 -48.5 -8t-38.5 -25l-127 36l94 150h151
l-75 -118l-14 1q13 24 45.5 38t79.5 14z" />
    <glyph glyph-name="Tcaron" unicode="&#x164;" horiz-adv-x="1191" 
d="M1272 1205h-515l195 162l-291 -1367h-356l291 1367l126 -162h-514l58 270h1063zM481 1775h218l169 -165h-93l205 165h226l-272 -216h-226z" />
    <glyph glyph-name="tcaron" unicode="&#x165;" horiz-adv-x="985" 
d="M545 -24q-57 0 -117 8t-110.5 31.5t-81.5 69t-31 121.5q0 37 8 81t20 99l86 406h-241l58 270h38q69 0 112 7t68.5 32.5t42.5 77.5t35 141l18 91h358l-74 -349h301l-57 -270h-301l-72 -337q-11 -55 -17 -85.5t-6 -55.5q0 -32 15 -51t55 -19q35 0 68 7t50 13l-56 -262
q-24 -9 -69 -17.5t-100 -8.5zM1133 1563q-10 -92 -31 -180.5t-42 -155t-32 -95.5h-162q11 30 26.5 96.5t31 154t24.5 180.5h185z" />
    <glyph glyph-name="Tbar" unicode="&#x166;" horiz-adv-x="1191" 
d="M250 658l34 160h739l-34 -160h-739zM1272 1205h-515l195 162l-291 -1367h-356l291 1367l126 -162h-514l58 270h1063z" />
    <glyph glyph-name="tbar" unicode="&#x167;" horiz-adv-x="985" 
d="M79 488l37 176h711l-38 -176h-710zM545 -24q-57 0 -117 8t-110.5 31.5t-81.5 69t-31 121.5q0 37 8 81t20 99l86 406h-241l58 270h38q69 0 112 7t68.5 32.5t42.5 77.5t35 141l18 91h358l-74 -349h301l-57 -270h-301l-72 -337q-11 -55 -17 -85.5t-6 -55.5q0 -32 15 -51
t55 -19q35 0 68 7t50 13l-56 -262q-24 -9 -69 -17.5t-100 -8.5z" />
    <glyph glyph-name="Utilde" unicode="&#x168;" horiz-adv-x="1373" 
d="M1257 529q-59 -278 -233 -416t-424 -138q-239 0 -368 101.5t-129 300.5q0 68 12 136.5t36 179.5l170 782h357l-181 -836q-12 -57 -19.5 -97t-11 -70.5t-3.5 -62.5q0 -78 39.5 -116t126.5 -38q114 0 177.5 66t91.5 200l203 954h357zM1299 1794q-5 -58 -36 -115.5
t-84 -95.5t-125 -38q-56 0 -87 22t-50 42q-19 21 -37.5 35.5t-46.5 14.5q-32 0 -50.5 -25t-23.5 -70h-177q7 59 38.5 116.5t86 96t128.5 38.5q51 0 82 -22t51 -42q20 -21 41 -35.5t45 -14.5q29 0 46.5 24t22.5 69h176z" />
    <glyph glyph-name="utilde" unicode="&#x169;" horiz-adv-x="1280" 
d="M366 -21q-108 0 -174 37t-95 100.5t-29 143.5q0 39 6 83t18 98l132 621h356l-114 -529q-10 -46 -15.5 -81.5t-5.5 -64.5q0 -50 28.5 -80.5t93.5 -30.5q66 0 119 35.5t89 94t51 126.5l69 -80q-22 -105 -70 -191.5t-117 -149.5t-155.5 -97.5t-186.5 -34.5zM712 0l226 1062
h356l-226 -1062h-356zM1163 1457q-6 -58 -37 -115t-83.5 -95t-125.5 -38q-56 0 -86.5 22t-49.5 41q-20 22 -38.5 36.5t-45.5 14.5q-32 0 -51 -25.5t-24 -69.5h-176q6 59 37.5 116.5t86 96t129.5 38.5q51 0 82 -22t50 -43q20 -20 41.5 -34.5t45.5 -14.5q28 0 45.5 24t22.5 68
h177z" />
    <glyph glyph-name="Umacron" unicode="&#x16a;" horiz-adv-x="1373" 
d="M1257 529q-59 -278 -233 -416t-424 -138q-239 0 -368 101.5t-129 300.5q0 68 12 136.5t36 179.5l170 782h357l-181 -836q-12 -57 -19.5 -97t-11 -70.5t-3.5 -62.5q0 -78 39.5 -116t126.5 -38q114 0 177.5 66t91.5 200l203 954h357zM602 1609l31 146h658l-31 -146h-658z
" />
    <glyph glyph-name="umacron" unicode="&#x16b;" horiz-adv-x="1280" 
d="M366 -21q-108 0 -174 37t-95 100.5t-29 143.5q0 39 6 83t18 98l132 621h356l-114 -529q-10 -46 -15.5 -81.5t-5.5 -64.5q0 -50 28.5 -80.5t93.5 -30.5q66 0 119 35.5t89 94t51 126.5l69 -80q-22 -105 -70 -191.5t-117 -149.5t-155.5 -97.5t-186.5 -34.5zM712 0l226 1062
h356l-226 -1062h-356zM466 1276l31 146h658l-31 -146h-658z" />
    <glyph glyph-name="Ubreve" unicode="&#x16c;" horiz-adv-x="1373" 
d="M1257 529q-59 -278 -233 -416t-424 -138q-239 0 -368 101.5t-129 300.5q0 68 12 136.5t36 179.5l170 782h357l-181 -836q-12 -57 -19.5 -97t-11 -70.5t-3.5 -62.5q0 -78 39.5 -116t126.5 -38q114 0 177.5 66t91.5 200l203 954h357zM642 1759h206q0 -36 21.5 -62.5
t69.5 -26.5q49 0 77.5 26t32.5 63h206q-10 -101 -103.5 -162t-225.5 -61q-133 0 -208.5 61t-75.5 162z" />
    <glyph glyph-name="ubreve" unicode="&#x16d;" horiz-adv-x="1280" 
d="M366 -21q-108 0 -174 37t-95 100.5t-29 143.5q0 39 6 83t18 98l132 621h356l-114 -529q-10 -46 -15.5 -81.5t-5.5 -64.5q0 -50 28.5 -80.5t93.5 -30.5q66 0 119 35.5t89 94t51 126.5l69 -80q-22 -105 -70 -191.5t-117 -149.5t-155.5 -97.5t-186.5 -34.5zM712 0l226 1062
h356l-226 -1062h-356zM520 1475h206q0 -60 19.5 -99.5t67.5 -39.5q49 0 78 39.5t36 99.5h206q-14 -131 -107.5 -201.5t-226.5 -70.5q-132 0 -205.5 70.5t-73.5 201.5z" />
    <glyph glyph-name="Uring" unicode="&#x16e;" horiz-adv-x="1373" 
d="M1257 529q-59 -278 -233 -416t-424 -138q-239 0 -368 101.5t-129 300.5q0 68 12 136.5t36 179.5l170 782h357l-181 -836q-12 -57 -19.5 -97t-11 -70.5t-3.5 -62.5q0 -78 39.5 -116t126.5 -38q114 0 177.5 66t91.5 200l203 954h357zM954 1668q37 0 63.5 26t26.5 63
q0 38 -26.5 64t-63.5 26t-63.5 -26t-26.5 -64q0 -37 26.5 -63t63.5 -26zM954 1516q-66 0 -121 33t-87.5 87.5t-32.5 120.5q0 67 32.5 121.5t87.5 87t121 32.5q67 0 121 -32.5t87 -87t33 -120.5q0 -67 -33 -121.5t-87 -87.5t-121 -33z" />
    <glyph glyph-name="uring" unicode="&#x16f;" horiz-adv-x="1280" 
d="M366 -21q-108 0 -174 37t-95 100.5t-29 143.5q0 39 6 83t18 98l132 621h356l-114 -529q-10 -46 -15.5 -81.5t-5.5 -64.5q0 -50 28.5 -80.5t93.5 -30.5q66 0 119 35.5t89 94t51 126.5l69 -80q-22 -105 -70 -191.5t-117 -149.5t-155.5 -97.5t-186.5 -34.5zM712 0l226 1062
h356l-226 -1062h-356zM811 1290q38 0 64 26t26 63q0 38 -26 64t-63 26q-38 0 -64 -26t-26 -63q0 -38 26 -64t63 -26zM812 1138q-66 0 -121 33t-88 87.5t-33 120.5q0 67 33 121.5t87.5 87t120.5 32.5q67 0 121.5 -32.5t87 -87t32.5 -120.5t-32.5 -121t-87 -88t-120.5 -33z
" />
    <glyph glyph-name="Uhungarumlaut" unicode="&#x170;" horiz-adv-x="1373" 
d="M1257 529q-59 -278 -233 -416t-424 -138q-239 0 -368 101.5t-129 300.5q0 68 12 136.5t36 179.5l170 782h357l-181 -836q-12 -57 -19.5 -97t-11 -70.5t-3.5 -62.5q0 -78 39.5 -116t126.5 -38q114 0 177.5 66t91.5 200l203 954h357zM614 1561l251 215h217l-271 -215h-197z
M980 1561l251 215h217l-271 -215h-197z" />
    <glyph glyph-name="uhungarumlaut" unicode="&#x171;" horiz-adv-x="1280" 
d="M366 -21q-108 0 -174 37t-95 100.5t-29 143.5q0 39 6 83t18 98l132 621h356l-114 -529q-10 -46 -15.5 -81.5t-5.5 -64.5q0 -50 28.5 -80.5t93.5 -30.5q66 0 119 35.5t89 94t51 126.5l69 -80q-22 -105 -70 -191.5t-117 -149.5t-155.5 -97.5t-186.5 -34.5zM712 0l226 1062
h356l-226 -1062h-356zM477 1194l148 281h211l-183 -281h-176zM826 1194l166 281h211l-200 -281h-177z" />
    <glyph glyph-name="Uogonek" unicode="&#x172;" horiz-adv-x="1373" 
d="M850 -255l-17 -168q-21 -2 -45 -3.5t-49 -1.5q-69 0 -129 15t-97 48.5t-37 89.5q0 65 41 124t95.5 105.5t97.5 73.5h170q-22 -17 -54.5 -45.5t-64.5 -62.5t-53 -66.5t-21 -56.5q0 -36 25.5 -47t63.5 -11q18 0 38 2t36 4zM1257 529q-59 -278 -233 -416t-424 -138
q-239 0 -368 101.5t-129 300.5q0 68 12 136.5t36 179.5l170 782h357l-181 -836q-12 -57 -19.5 -97t-11 -70.5t-3.5 -62.5q0 -78 39.5 -116t126.5 -38q114 0 177.5 66t91.5 200l203 954h357z" />
    <glyph glyph-name="uogonek" unicode="&#x173;" horiz-adv-x="1280" 
d="M366 -21q-108 0 -174 37t-95 100.5t-29 143.5q0 39 6 83t18 98l132 621h356l-114 -529q-10 -46 -15.5 -81.5t-5.5 -64.5q0 -50 28.5 -80.5t93.5 -30.5q66 0 119 35.5t89 94t51 126.5l69 -80q-22 -105 -70 -191.5t-117 -149.5t-155.5 -97.5t-186.5 -34.5zM712 0l226 1062
h356l-226 -1062h-356zM1038 -283l-18 -168q-20 -2 -44 -3.5t-50 -1.5q-102 0 -174 38.5t-72 122.5q0 57 36.5 114.5t87.5 105.5t94 75h170q-22 -17 -54.5 -45.5t-64.5 -62.5t-53 -66.5t-21 -56.5q0 -36 25 -47t63 -11q19 0 39 2t36 4z" />
    <glyph glyph-name="Wcircumflex" unicode="&#x174;" horiz-adv-x="1943" 
d="M161 0l104 1475h366l-157 -1410l-58 3l528 1407h440l-72 -1407l-44 -3l442 1410h368l-524 -1475h-546l96 1237h36l-432 -1237h-547zM852 1559l273 216h226l226 -216h-219l-169 166h92l-203 -166h-226z" />
    <glyph glyph-name="wcircumflex" unicode="&#x175;" horiz-adv-x="1655" 
d="M845 0l29 1062h242l-3 -970l-50 -2l330 972h369l-432 -1062h-485zM100 0l20 1062h359l-84 -972l-55 2l407 970h260l-421 -1062h-486zM635 1194l279 281h224l219 -281h-217l-165 217h93l-209 -217h-224z" />
    <glyph glyph-name="Ycircumflex" unicode="&#x176;" horiz-adv-x="1314" 
d="M1468 1475l-637 -968l-110 -507h-355l108 507l-225 968h369l130 -797h-142l475 797h387zM547 1559l273 216h226l226 -216h-219l-169 166h92l-203 -166h-226z" />
    <glyph glyph-name="ycircumflex" unicode="&#x177;" horiz-adv-x="1132" 
d="M16 -463q-54 0 -100 3t-54 7l58 265q13 -7 44 -10t69 -3q45 0 84.5 17.5t72.5 49.5t57 76l22 41l-137 1079h362l30 -856h-41l381 856h376l-590 -1102q-73 -136 -153 -230.5t-193.5 -143.5t-287.5 -49zM381 1194l279 281h224l219 -281h-217l-165 217h93l-209 -217h-224z
" />
    <glyph glyph-name="Ydieresis" unicode="&#x178;" horiz-adv-x="1314" 
d="M1468 1475l-637 -968l-110 -507h-355l108 507l-225 968h369l130 -797h-142l475 797h387zM647 1536q-69 0 -119 34.5t-50 98.5q0 78 61 120t138 42q69 0 119 -34t50 -99q0 -78 -61 -120t-138 -42zM1161 1536q-69 0 -119 34.5t-50 98.5q0 78 61 120t138 42q69 0 119 -34
t50 -99q0 -78 -61 -120t-138 -42z" />
    <glyph glyph-name="Zacute" unicode="&#x179;" horiz-adv-x="1190" 
d="M436 271h607l-58 -271h-1016l50 232l825 975l2 -2h-575l57 270h980l-48 -229l-823 -973zM640 1561l270 215h274l-308 -215h-236z" />
    <glyph glyph-name="zacute" unicode="&#x17a;" horiz-adv-x="1047" 
d="M389 272h549l-58 -272h-937l54 256l647 556l8 -21h-523l58 271h906l-54 -256l-642 -554zM488 1194l238 281h264l-277 -281h-225z" />
    <glyph glyph-name="Zdotaccent" unicode="&#x17b;" horiz-adv-x="1190" 
d="M436 271h607l-58 -271h-1016l50 232l825 975l2 -2h-575l57 270h980l-48 -229l-823 -973zM853 1560q-80 0 -140.5 42t-60.5 119q0 78 60.5 119.5t140.5 41.5t140 -41.5t60 -119.5t-60 -119.5t-140 -41.5z" />
    <glyph glyph-name="zdotaccent" unicode="&#x17c;" horiz-adv-x="1047" 
d="M389 272h549l-58 -272h-937l54 256l647 556l8 -21h-523l58 271h906l-54 -256l-642 -554zM686 1204q-76 0 -130.5 38t-54.5 107q0 58 31 97.5t81.5 60t106.5 20.5q75 0 129.5 -37.5t54.5 -107.5q0 -57 -31 -97t-80.5 -60.5t-106.5 -20.5z" />
    <glyph glyph-name="Zcaron" unicode="&#x17d;" horiz-adv-x="1190" 
d="M436 271h607l-58 -271h-1016l50 232l825 975l2 -2h-575l57 270h980l-48 -229l-823 -973zM495 1775h218l169 -165h-93l205 165h226l-272 -216h-226z" />
    <glyph glyph-name="zcaron" unicode="&#x17e;" horiz-adv-x="1047" 
d="M389 272h549l-58 -272h-937l54 256l647 556l8 -21h-523l58 271h906l-54 -256l-642 -554zM358 1475h217l163 -217h-93l210 217h225l-278 -281h-224z" />
    <glyph glyph-name="uni018F" unicode="&#x18f;" horiz-adv-x="1350" 
d="M563 -11q-142 0 -247.5 52.5t-164 164t-58.5 287.5q0 34 4 83.5t11 102.5t16.5 99t19.5 73h848l-53 -253h-511l29 82q-10 -45 -16.5 -79t-9.5 -65t-3 -70q0 -76 21 -123t60 -68.5t92 -21.5q78 0 140 47.5t109 126.5t77.5 176.5t46 198t15.5 189.5t-22 138.5t-60.5 69.5
t-89.5 20q-54 0 -101 -17t-84 -47t-63 -69t-39 -82h-342q26 105 87 192.5t150 152t199 100t233 35.5q134 0 244 -48.5t175.5 -159t65.5 -296.5q0 -155 -34 -301t-99.5 -271t-160 -219t-216.5 -147t-269 -53z" />
    <glyph glyph-name="florin" unicode="&#x192;" horiz-adv-x="1083" 
d="M-191 -444q-63 0 -104.5 10t-52.5 14l125 250q9 -4 34.5 -10.5t54.5 -6.5q66 0 103.5 24.5t62 70.5t49.5 110q32 82 65.5 171.5t68 184t69 190t69 189.5t68.5 184t66 173q53 132 127.5 220.5t161.5 140.5t179 74.5t178 22.5q63 0 104.5 -9.5t52.5 -14.5l-125 -249
q-9 5 -34.5 10.5t-54.5 5.5q-65 0 -105.5 -24.5t-66.5 -70t-52 -109.5q-33 -83 -67 -173t-69 -184t-70 -190t-69 -190t-67 -184t-64 -172q-50 -132 -123 -221t-159 -140.5t-177.5 -74t-177.5 -22.5zM120 805l102 257h846l-102 -257h-846z" />
    <glyph glyph-name="uni019D" unicode="&#x19d;" horiz-adv-x="1515" 
d="M-279 -467l50 249q53 1 92 15.5t66 41t44.5 63.5t26.5 81l317 1492h597l71 -1413l-33 3l300 1410h347l-314 -1475h-601l-72 1389l34 -3l-303 -1426q-20 -93 -56.5 -171.5t-103.5 -135.5t-179 -88t-283 -32z" />
    <glyph glyph-name="Ohorn" unicode="&#x1a0;" horiz-adv-x="1531" 
d="M1288 1385q79 0 119.5 66t53.5 194h218q-24 -223 -130.5 -326.5t-295.5 -103.5zM676 -25q-161 0 -290.5 68.5t-204.5 202t-75 328.5q0 194 60 361.5t171 294t265.5 198t343.5 71.5q164 0 292.5 -67.5t203.5 -199t75 -326.5q0 -192 -60.5 -360.5t-172.5 -297t-266 -201
t-342 -72.5zM708 256q115 0 199 58t139 153.5t82 211t27 230.5t-32 182.5t-86.5 97t-123.5 29.5q-115 0 -199 -55.5t-139 -148.5t-81 -207t-26 -232q0 -176 68.5 -247.5t171.5 -71.5z" />
    <glyph glyph-name="ohorn" unicode="&#x1a1;" horiz-adv-x="1291" 
d="M1017 1011q61 0 93.5 27t48.5 87t27 157h192q-18 -171 -68.5 -264.5t-132.5 -130.5t-196 -37zM563 -24q-157 0 -272 57t-177.5 159t-62.5 238q0 144 53 263.5t147.5 207t220 135t269.5 47.5q157 0 272 -57t178 -159t63 -236q0 -146 -53.5 -266t-148 -207t-220 -134.5
t-269.5 -47.5zM600 250q87 0 152.5 48t101.5 128.5t36 178.5q0 64 -19.5 109t-60.5 69.5t-105 24.5q-66 0 -119.5 -27.5t-91.5 -76t-58.5 -112t-20.5 -136.5q0 -97 45 -151.5t140 -54.5z" />
    <glyph glyph-name="Uhorn" unicode="&#x1af;" horiz-adv-x="1439" 
d="M1330 1475q79 0 119.5 66t53.5 194h217q-23 -223 -129.5 -326.5t-296.5 -103.5zM1257 529q-59 -278 -233 -416t-424 -138q-239 0 -368 101.5t-129 300.5q0 68 12 136.5t36 179.5l170 782h357l-181 -836q-12 -57 -19.5 -97t-11 -70.5t-3.5 -62.5q0 -78 39.5 -116
t126.5 -38q114 0 177.5 66t91.5 200l203 954h357z" />
    <glyph glyph-name="uhorn" unicode="&#x1b0;" horiz-adv-x="1326" 
d="M1114 1062q61 0 93.5 27t48.5 87t28 157h191q-18 -171 -68.5 -264.5t-132.5 -130.5t-195 -37zM362 -21q-108 0 -173 37t-93 100.5t-28 143.5q0 39 6 83t18 98l132 621h356l-114 -529q-10 -46 -15.5 -81.5t-5.5 -64.5q0 -50 26.5 -80.5t91.5 -30.5q66 0 119 35.5t89 94
t51 126.5l69 -80q-22 -105 -70 -191.5t-117 -149.5t-155.5 -97.5t-186.5 -34.5zM708 0l226 1062h356l-226 -1062h-356z" />
    <glyph glyph-name="uni01B7" unicode="&#x1b7;" horiz-adv-x="1284" 
d="M528 -25q-175 0 -277.5 50t-146.5 134t-44 185q0 57 7 94t10 48h357q-3 -11 -8 -38.5t-5 -61.5q0 -79 41 -109.5t111 -30.5q56 0 97 19t68 53.5t40.5 80t13.5 99.5q0 75 -55 107.5t-195 32.5h-120l474 567h-606l58 270h963l-54 -249l-338 -394q101 0 167.5 -76.5
t66.5 -223.5q0 -130 -44 -233.5t-126 -175.5t-197 -110t-258 -38z" />
    <glyph glyph-name="uni01C4" unicode="&#x1c4;" horiz-adv-x="2472" 
d="M3 0l314 1475h504q175 0 293.5 -74t179 -201t60.5 -286q0 -192 -65.5 -358.5t-180.5 -291t-266.5 -194.5t-324.5 -70h-514zM384 109l-127 173h268q100 0 184.5 51.5t147.5 137.5t98.5 194t35.5 221q0 94 -30.5 163t-89.5 106.5t-145 37.5h-269l195 174zM1718 271h607
l-58 -271h-1016l50 232l825 975l2 -2h-575l57 270h980l-48 -229l-823 -973zM1777 1775h218l169 -165h-93l205 165h226l-272 -216h-226z" />
    <glyph glyph-name="uni01C5" unicode="&#x1c5;" horiz-adv-x="2415" 
d="M3 0l314 1475h504q175 0 293.5 -74t179 -201t60.5 -286q0 -192 -65.5 -358.5t-180.5 -291t-266.5 -194.5t-324.5 -70h-514zM384 109l-127 173h268q100 0 184.5 51.5t147.5 137.5t98.5 194t35.5 221q0 94 -30.5 163t-89.5 106.5t-145 37.5h-269l195 174zM1757 272h549
l-58 -272h-937l54 256l647 556l8 -21h-523l58 271h906l-54 -256l-642 -554zM1726 1475h217l163 -217h-93l210 217h225l-278 -281h-224z" />
    <glyph glyph-name="uni01C6" unicode="&#x1c6;" horiz-adv-x="2389" 
d="M439 -25q-178 0 -283.5 112.5t-105.5 323.5q0 137 46.5 258.5t130 214.5t195.5 146t245 53q109 0 191.5 -49t129 -135t46.5 -199q0 -30 -5 -70t-13 -71l-136 -1q3 13 5.5 32t2.5 31q0 55 -26 92.5t-67.5 57t-89.5 19.5q-65 0 -117.5 -24t-90 -67.5t-57.5 -101.5t-20 -124
q0 -95 49.5 -144.5t127.5 -49.5q56 0 113 27t100 77.5t58 120.5l139 -8q-31 -145 -117 -263t-204.5 -188t-246.5 -70zM761 0l332 1563h358l-333 -1563h-357zM1731 272h549l-58 -272h-937l54 256l647 556l8 -21h-523l58 271h906l-54 -256l-642 -554zM1700 1475h217l163 -217
h-93l210 217h225l-278 -281h-224z" />
    <glyph glyph-name="uni01C7" unicode="&#x1c7;" horiz-adv-x="2265" 
d="M3 0l314 1475h358l-291 -1369l-124 181h699l-61 -287h-895zM1548 -25q-232 0 -345.5 97.5t-113.5 256.5q0 60 11.5 118t24.5 111h354q-8 -32 -16.5 -77t-8.5 -92q0 -62 29.5 -98t103.5 -36q96 0 138 76.5t69 208.5l199 935h356l-209 -986q-22 -104 -60.5 -196
t-105.5 -164t-171 -113t-255 -41z" />
    <glyph glyph-name="uni01C8" unicode="&#x1c8;" horiz-adv-x="1630" 
d="M3 0l314 1475h358l-291 -1369l-124 181h699l-61 -287h-895zM831 -460q-30 0 -58.5 2t-46.5 3l56 261q18 -3 45.5 -5.5t58.5 -2.5q55 0 88.5 18.5t51 46.5t22.5 54l244 1145h355l-243 -1153q-14 -66 -46 -131t-95 -119t-167.5 -86.5t-264.5 -32.5zM1508 1211
q-76 0 -130.5 37.5t-54.5 107.5q0 57 31 96.5t81 60t106 20.5q75 0 130 -37t55 -107q0 -57 -31 -97t-80.5 -60.5t-106.5 -20.5z" />
    <glyph glyph-name="uni01C9" unicode="&#x1c9;" horiz-adv-x="1221" 
d="M381 -24q-52 0 -109 8t-106 32t-79.5 71.5t-30.5 128.5q0 41 6.5 81t18.5 98l251 1168h357l-247 -1152q-11 -51 -15 -73.5t-4 -43.5q0 -29 19.5 -39.5t46.5 -10.5q26 0 54 6t49 14l-56 -263q-28 -10 -64 -17.5t-91 -7.5zM422 -460q-30 0 -58.5 2t-46.5 3l56 261
q18 -3 45.5 -5.5t58.5 -2.5q55 0 88.5 18.5t51 46.5t22.5 54l244 1145h355l-243 -1153q-14 -66 -46 -131t-95 -119t-167.5 -86.5t-264.5 -32.5zM1099 1211q-76 0 -130.5 37.5t-54.5 107.5q0 57 31 96.5t81 60t106 20.5q75 0 130 -37t55 -107q0 -57 -31 -97t-80.5 -60.5
t-106.5 -20.5z" />
    <glyph glyph-name="uni01CA" unicode="&#x1ca;" horiz-adv-x="2710" 
d="M351 0h-348l314 1475h581l87 -1359l-25 -14l292 1373h347l-314 -1475h-585l-88 1354l30 14zM1992 -25q-232 0 -345.5 97.5t-113.5 256.5q0 60 11.5 118t24.5 111h354q-8 -32 -16.5 -77t-8.5 -92q0 -62 29.5 -98t103.5 -36q96 0 138 76.5t69 208.5l199 935h356l-209 -986
q-22 -104 -60.5 -196t-105.5 -164t-171 -113t-255 -41z" />
    <glyph glyph-name="uni01CB" unicode="&#x1cb;" horiz-adv-x="2030" 
d="M351 0h-348l314 1475h581l87 -1359l-25 -14l292 1373h347l-314 -1475h-585l-88 1354l30 14zM1232 -460q-30 0 -58.5 2t-46.5 3l56 261q18 -3 45.5 -5.5t58.5 -2.5q55 0 88.5 18.5t51 46.5t22.5 54l244 1145h355l-243 -1153q-14 -66 -46 -131t-95 -119t-167.5 -86.5
t-264.5 -32.5zM1909 1211q-76 0 -130.5 37.5t-54.5 107.5q0 57 31 96.5t81 60t106 20.5q75 0 130 -37t55 -107q0 -57 -31 -97t-80.5 -60.5t-106.5 -20.5z" />
    <glyph glyph-name="uni01CC" unicode="&#x1cc;" horiz-adv-x="1863" 
d="M741 0l94 432q18 84 27 136t9 87q0 57 -31.5 93t-113.5 36q-67 0 -119.5 -29.5t-87 -83.5t-50.5 -127l-68 71q22 106 72.5 192.5t122.5 148t159 94.5t182 33q162 0 238 -78.5t76 -210.5q0 -65 -17.5 -158.5t-48.5 -236.5l-88 -399h-356zM-2 0l226 1062h356l-226 -1062
h-356zM1064 -460q-30 0 -58.5 2t-46.5 3l56 261q18 -3 45.5 -5.5t58.5 -2.5q55 0 88.5 18.5t51 46.5t22.5 54l244 1145h355l-243 -1153q-14 -66 -46 -131t-95 -119t-167.5 -86.5t-264.5 -32.5zM1741 1211q-76 0 -130.5 37.5t-54.5 107.5q0 57 31 96.5t81 60t106 20.5
q75 0 130 -37t55 -107q0 -57 -31 -97t-80.5 -60.5t-106.5 -20.5z" />
    <glyph glyph-name="uni01CD" unicode="&#x1cd;" horiz-adv-x="1370" 
d="M-65 0l670 1476h566l40 -1476h-350l-3 1261h2l-543 -1261h-382zM287 326l58 273h714l-57 -273h-715zM574 1775h218l169 -165h-93l205 165h226l-272 -216h-226z" />
    <glyph glyph-name="uni01CE" unicode="&#x1ce;" horiz-adv-x="1348" 
d="M472 -25q-121 0 -216 51.5t-148.5 153t-53.5 250.5q0 136 44.5 254.5t126 208.5t193 140t243.5 50q107 0 195 -48t140 -135.5t52 -206.5q0 -28 -4.5 -66.5t-12.5 -67.5l-134 -7q3 15 5.5 32.5t2.5 31.5q0 56 -27 94t-70 57t-91 19q-62 0 -114 -22.5t-90.5 -63t-59.5 -97
t-21 -123.5q0 -69 23.5 -114.5t65 -69t94.5 -23.5q60 0 116 26t98 76.5t57 124.5l133 -17q-33 -158 -116 -272t-195.5 -175t-235.5 -61zM1136 0h-357l225 1062h357zM472 1475h217l163 -217h-93l210 217h225l-278 -281h-224z" />
    <glyph glyph-name="uni01CF" unicode="&#x1cf;" horiz-adv-x="584" 
d="M-2 0l314 1475h357l-313 -1475h-358zM178 1775h218l169 -165h-93l205 165h226l-272 -216h-226z" />
    <glyph glyph-name="uni01D0" unicode="&#x1d0;" horiz-adv-x="551" 
d="M-16 0l225 1062h355l-225 -1062h-355zM105 1475h217l163 -217h-93l210 217h225l-278 -281h-224z" />
    <glyph glyph-name="uni01D1" unicode="&#x1d1;" horiz-adv-x="1535" 
d="M676 -25q-161 0 -290.5 68.5t-204.5 202t-75 328.5q0 194 60 361.5t171 294t265.5 198t343.5 71.5q164 0 292.5 -67.5t203.5 -199t75 -326.5q0 -192 -60.5 -360.5t-172.5 -297t-266 -201t-342 -72.5zM708 256q115 0 199 58t139 153.5t82 211t27 230.5t-32 182.5t-86.5 97
t-123.5 29.5q-115 0 -199 -55.5t-139 -148.5t-81 -207t-26 -232q0 -176 68.5 -247.5t171.5 -71.5zM636 1775h218l169 -165h-93l205 165h226l-272 -216h-226z" />
    <glyph glyph-name="uni01D2" unicode="&#x1d2;" horiz-adv-x="1309" 
d="M565 -24q-157 0 -272 57t-177.5 159t-62.5 238q0 144 53 263.5t147.5 207t220 135t269.5 47.5q157 0 272 -57t178 -159t63 -236q0 -146 -53.5 -266t-148 -207t-220 -134.5t-269.5 -47.5zM602 250q87 0 152.5 48t101.5 128.5t36 178.5q0 64 -19.5 109t-60.5 69.5
t-105 24.5q-66 0 -119.5 -27.5t-91.5 -76t-58.5 -112t-20.5 -136.5q0 -97 45 -151.5t140 -54.5zM475 1475h217l163 -217h-93l210 217h225l-278 -281h-224z" />
    <glyph glyph-name="uni01D3" unicode="&#x1d3;" horiz-adv-x="1373" 
d="M1257 529q-59 -278 -233 -416t-424 -138q-239 0 -368 101.5t-129 300.5q0 68 12 136.5t36 179.5l170 782h357l-181 -836q-12 -57 -19.5 -97t-11 -70.5t-3.5 -62.5q0 -78 39.5 -116t126.5 -38q114 0 177.5 66t91.5 200l203 954h357zM624 1888h217l163 -217h-93l210 217
h225l-278 -281h-224z" />
    <glyph glyph-name="uni01D4" unicode="&#x1d4;" horiz-adv-x="1280" 
d="M366 -21q-108 0 -174 37t-95 100.5t-29 143.5q0 39 6 83t18 98l132 621h356l-114 -529q-10 -46 -15.5 -81.5t-5.5 -64.5q0 -50 28.5 -80.5t93.5 -30.5q66 0 119 35.5t89 94t51 126.5l69 -80q-22 -105 -70 -191.5t-117 -149.5t-155.5 -97.5t-186.5 -34.5zM712 0l226 1062
h356l-226 -1062h-356zM470 1475h217l163 -217h-93l210 217h225l-278 -281h-224z" />
    <glyph glyph-name="uni01D5" unicode="&#x1d5;" horiz-adv-x="1373" 
d="M1257 529q-59 -278 -233 -416t-424 -138q-239 0 -368 101.5t-129 300.5q0 68 12 136.5t36 179.5l170 782h357l-181 -836q-12 -57 -19.5 -97t-11 -70.5t-3.5 -62.5q0 -78 39.5 -116t126.5 -38q114 0 177.5 66t91.5 200l203 954h357zM675 1536q-69 0 -119 34.5t-50 98.5
q0 78 61 120t138 42q69 0 119 -34t50 -99q0 -78 -61 -120t-138 -42zM1189 1536q-69 0 -119 34.5t-50 98.5q0 78 61 120t138 42q69 0 119 -34t50 -99q0 -78 -61 -120t-138 -42zM669 1919l31 146h658l-31 -146h-658z" />
    <glyph glyph-name="uni01D6" unicode="&#x1d6;" horiz-adv-x="1280" 
d="M366 -21q-108 0 -174 37t-95 100.5t-29 143.5q0 39 6 83t18 98l132 621h356l-114 -529q-10 -46 -15.5 -81.5t-5.5 -64.5q0 -50 28.5 -80.5t93.5 -30.5q66 0 119 35.5t89 94t51 126.5l69 -80q-22 -105 -70 -191.5t-117 -149.5t-155.5 -97.5t-186.5 -34.5zM712 0l226 1062
h356l-226 -1062h-356zM536 1203q-69 0 -119 34.5t-50 98.5q0 78 61 120t138 42q69 0 119 -34t50 -99q0 -78 -61 -120t-138 -42zM1050 1203q-69 0 -119 34.5t-50 98.5q0 78 61 120t138 42q69 0 119 -34t50 -99q0 -78 -61 -120t-138 -42zM540 1633l31 146h658l-31 -146h-658z
" />
    <glyph glyph-name="uni01D7" unicode="&#x1d7;" horiz-adv-x="1373" 
d="M1257 529q-59 -278 -233 -416t-424 -138q-239 0 -368 101.5t-129 300.5q0 68 12 136.5t36 179.5l170 782h357l-181 -836q-12 -57 -19.5 -97t-11 -70.5t-3.5 -62.5q0 -78 39.5 -116t126.5 -38q114 0 177.5 66t91.5 200l203 954h357zM675 1536q-69 0 -119 34.5t-50 98.5
q0 78 61 120t138 42q69 0 119 -34t50 -99q0 -78 -61 -120t-138 -42zM1189 1536q-69 0 -119 34.5t-50 98.5q0 78 61 120t138 42q69 0 119 -34t50 -99q0 -78 -61 -120t-138 -42zM799 1871l270 215h274l-308 -215h-236z" />
    <glyph glyph-name="uni01D8" unicode="&#x1d8;" horiz-adv-x="1280" 
d="M366 -21q-108 0 -174 37t-95 100.5t-29 143.5q0 39 6 83t18 98l132 621h356l-114 -529q-10 -46 -15.5 -81.5t-5.5 -64.5q0 -50 28.5 -80.5t93.5 -30.5q66 0 119 35.5t89 94t51 126.5l69 -80q-22 -105 -70 -191.5t-117 -149.5t-155.5 -97.5t-186.5 -34.5zM712 0l226 1062
h356l-226 -1062h-356zM536 1203q-69 0 -119 34.5t-50 98.5q0 78 61 120t138 42q69 0 119 -34t50 -99q0 -78 -61 -120t-138 -42zM1050 1203q-69 0 -119 34.5t-50 98.5q0 78 61 120t138 42q69 0 119 -34t50 -99q0 -78 -61 -120t-138 -42zM670 1585l270 215h274l-308 -215h-236
z" />
    <glyph glyph-name="uni01D9" unicode="&#x1d9;" horiz-adv-x="1373" 
d="M1257 529q-59 -278 -233 -416t-424 -138q-239 0 -368 101.5t-129 300.5q0 68 12 136.5t36 179.5l170 782h357l-181 -836q-12 -57 -19.5 -97t-11 -70.5t-3.5 -62.5q0 -78 39.5 -116t126.5 -38q114 0 177.5 66t91.5 200l203 954h357zM675 1536q-69 0 -119 34.5t-50 98.5
q0 78 61 120t138 42q69 0 119 -34t50 -99q0 -78 -61 -120t-138 -42zM1189 1536q-69 0 -119 34.5t-50 98.5q0 78 61 120t138 42q69 0 119 -34t50 -99q0 -78 -61 -120t-138 -42zM654 2085h218l169 -165h-93l205 165h226l-272 -216h-226z" />
    <glyph glyph-name="uni01DA" unicode="&#x1da;" horiz-adv-x="1280" 
d="M366 -21q-108 0 -174 37t-95 100.5t-29 143.5q0 39 6 83t18 98l132 621h356l-114 -529q-10 -46 -15.5 -81.5t-5.5 -64.5q0 -50 28.5 -80.5t93.5 -30.5q66 0 119 35.5t89 94t51 126.5l69 -80q-22 -105 -70 -191.5t-117 -149.5t-155.5 -97.5t-186.5 -34.5zM712 0l226 1062
h356l-226 -1062h-356zM536 1203q-69 0 -119 34.5t-50 98.5q0 78 61 120t138 42q69 0 119 -34t50 -99q0 -78 -61 -120t-138 -42zM1050 1203q-69 0 -119 34.5t-50 98.5q0 78 61 120t138 42q69 0 119 -34t50 -99q0 -78 -61 -120t-138 -42zM525 1799h218l169 -165h-93l205 165
h226l-272 -216h-226z" />
    <glyph glyph-name="uni01DB" unicode="&#x1db;" horiz-adv-x="1373" 
d="M1257 529q-59 -278 -233 -416t-424 -138q-239 0 -368 101.5t-129 300.5q0 68 12 136.5t36 179.5l170 782h357l-181 -836q-12 -57 -19.5 -97t-11 -70.5t-3.5 -62.5q0 -78 39.5 -116t126.5 -38q114 0 177.5 66t91.5 200l203 954h357zM675 1536q-69 0 -119 34.5t-50 98.5
q0 78 61 120t138 42q69 0 119 -34t50 -99q0 -78 -61 -120t-138 -42zM1189 1536q-69 0 -119 34.5t-50 98.5q0 78 61 120t138 42q69 0 119 -34t50 -99q0 -78 -61 -120t-138 -42zM1164 1872h-237l-307 215h274z" />
    <glyph glyph-name="uni01DC" unicode="&#x1dc;" horiz-adv-x="1280" 
d="M366 -21q-108 0 -174 37t-95 100.5t-29 143.5q0 39 6 83t18 98l132 621h356l-114 -529q-10 -46 -15.5 -81.5t-5.5 -64.5q0 -50 28.5 -80.5t93.5 -30.5q66 0 119 35.5t89 94t51 126.5l69 -80q-22 -105 -70 -191.5t-117 -149.5t-155.5 -97.5t-186.5 -34.5zM712 0l226 1062
h356l-226 -1062h-356zM536 1203q-69 0 -119 34.5t-50 98.5q0 78 61 120t138 42q69 0 119 -34t50 -99q0 -78 -61 -120t-138 -42zM1050 1203q-69 0 -119 34.5t-50 98.5q0 78 61 120t138 42q69 0 119 -34t50 -99q0 -78 -61 -120t-138 -42zM1035 1585h-237l-307 215h274z" />
    <glyph glyph-name="uni01DE" unicode="&#x1de;" horiz-adv-x="1370" 
d="M-65 0l670 1476h566l40 -1476h-350l-3 1261h2l-543 -1261h-382zM287 326l58 273h714l-57 -273h-715zM663 1536q-69 0 -119 34.5t-50 98.5q0 78 61 120t138 42q69 0 119 -34t50 -99q0 -78 -61 -120t-138 -42zM1177 1536q-69 0 -119 34.5t-50 98.5q0 78 61 120t138 42
q69 0 119 -34t50 -99q0 -78 -61 -120t-138 -42zM656 1919l31 146h658l-31 -146h-658z" />
    <glyph glyph-name="uni01DF" unicode="&#x1df;" horiz-adv-x="1348" 
d="M472 -25q-121 0 -216 51.5t-148.5 153t-53.5 250.5q0 136 44.5 254.5t126 208.5t193 140t243.5 50q107 0 195 -48t140 -135.5t52 -206.5q0 -28 -4.5 -66.5t-12.5 -67.5l-134 -7q3 15 5.5 32.5t2.5 31.5q0 56 -27 94t-70 57t-91 19q-62 0 -114 -22.5t-90.5 -63t-59.5 -97
t-21 -123.5q0 -69 23.5 -114.5t65 -69t94.5 -23.5q60 0 116 26t98 76.5t57 124.5l133 -17q-33 -158 -116 -272t-195.5 -175t-235.5 -61zM1136 0h-357l225 1062h357zM538 1203q-69 0 -119 34.5t-50 98.5q0 78 61 120t138 42q69 0 119 -34t50 -99q0 -78 -61 -120t-138 -42z
M1052 1203q-69 0 -119 34.5t-50 98.5q0 78 61 120t138 42q69 0 119 -34t50 -99q0 -78 -61 -120t-138 -42zM542 1633l31 146h658l-31 -146h-658z" />
    <glyph glyph-name="uni01E4" unicode="&#x1e4;" horiz-adv-x="1430" 
d="M691 336l41 189h695l-41 -189h-695zM593 -25q-232 0 -364 138t-132 404q0 200 60 377.5t170.5 313t264.5 213.5t344 78q138 0 232.5 -40t152 -104.5t83 -139.5t25.5 -146q0 -23 -3 -51.5t-7 -43.5h-347q2 9 5 27t3 34q0 48 -21.5 89.5t-64.5 67.5t-108 26
q-112 0 -193 -63.5t-134 -167t-79 -224t-26 -234.5q0 -108 30 -168t80 -83t111 -23q81 0 143.5 27t103.5 66t57 73l35 162h-269l47 220h585l-171 -803h-176v163q-15 -28 -66 -72.5t-142 -80t-229 -35.5z" />
    <glyph glyph-name="uni01E5" unicode="&#x1e5;" horiz-adv-x="1348" 
d="M485 -456q-88 0 -179 17t-167.5 52.5t-123 92t-46.5 136.5q0 25 2.5 45.5t6.5 38.5h357q-2 -7 -3 -14t-1 -16q0 -29 21 -52t61 -36.5t97 -13.5q72 0 127 23t91.5 70t51.5 119l224 1056h357l-224 -1056q-28 -135 -92 -224t-152.5 -141t-193 -74.5t-214.5 -22.5zM474 -25
q-121 0 -216.5 51.5t-149.5 153t-54 250.5q0 136 44.5 254.5t126 208.5t193 140t243.5 50q107 0 195.5 -47t141.5 -133.5t53 -205.5q0 -28 -4.5 -67t-12.5 -67l-136 -7q3 15 5 32t2 31q0 57 -26.5 95t-69.5 57t-91 19q-62 0 -114 -22.5t-90.5 -63.5t-59.5 -97t-21 -124
t23.5 -113.5t65 -69t94.5 -23.5q60 0 116 26t97.5 76.5t57.5 124.5l133 -17q-33 -158 -116 -273t-195 -177t-235 -62zM623 448l34 159h739l-34 -159h-739z" />
    <glyph glyph-name="Gcaron" unicode="&#x1e6;" horiz-adv-x="1459" 
d="M611 -25q-153 0 -267.5 65.5t-178.5 191t-64 305.5q0 198 58.5 372t168.5 306.5t264.5 208t345.5 75.5q140 0 237 -40t157.5 -104.5t88 -140t27.5 -145.5q0 -20 -3 -47t-6 -40h-347q2 9 4.5 26.5t2.5 32.5q0 48 -21.5 88t-65 64.5t-108.5 24.5q-111 0 -194.5 -61.5
t-138.5 -162t-82.5 -218.5t-27.5 -230q0 -109 32.5 -173t85.5 -91t114 -27q82 0 145 32.5t105.5 78t60.5 83.5l10 54h-269l54 252h586l-161 -755h-176v163q-15 -28 -66 -72.5t-142 -80t-229 -35.5zM616 1775h218l169 -165h-93l205 165h226l-272 -216h-226z" />
    <glyph glyph-name="gcaron" unicode="&#x1e7;" horiz-adv-x="1348" 
d="M485 -456q-88 0 -179 17t-167.5 52.5t-123 92t-46.5 136.5q0 25 2.5 45.5t6.5 38.5h357q-2 -7 -3 -14t-1 -16q0 -29 21 -52t61 -36.5t97 -13.5q72 0 127 23t91.5 70t51.5 119l224 1056h357l-224 -1056q-28 -135 -92 -224t-152.5 -141t-193 -74.5t-214.5 -22.5zM474 -25
q-121 0 -216.5 51.5t-149.5 153t-54 250.5q0 136 44.5 254.5t126 208.5t193 140t243.5 50q107 0 195.5 -47t141.5 -133.5t53 -205.5q0 -28 -4.5 -67t-12.5 -67l-136 -7q3 15 5 32t2 31q0 57 -26.5 95t-69.5 57t-91 19q-62 0 -114 -22.5t-90.5 -63.5t-59.5 -97t-21 -124
t23.5 -113.5t65 -69t94.5 -23.5q60 0 116 26t97.5 76.5t57.5 124.5l133 -17q-33 -158 -116 -273t-195 -177t-235 -62zM470 1475h217l163 -217h-93l210 217h225l-278 -281h-224z" />
    <glyph glyph-name="uni01E8" unicode="&#x1e8;" horiz-adv-x="1368" 
d="M768 705l58 273l374 -978h-373l-225 705l133 -21l-324 -346l69 223l-119 -561h-356l312 1475h358l-161 -751l-83 31l676 720h386zM616 1775h218l169 -165h-93l205 165h226l-272 -216h-226z" />
    <glyph glyph-name="uni01E9" unicode="&#x1e9;" horiz-adv-x="1186" 
d="M-2 0l332 1563h338l-186 -874l-84 36l449 337h454l-634 -478l99 128l292 -712h-356l-199 525h83l-207 -160l66 151l-109 -516h-338zM174 1863h218l169 -165h-93l205 165h226l-272 -216h-226z" />
    <glyph glyph-name="uni01EA" unicode="&#x1ea;" horiz-adv-x="1535" 
d="M947 -237l-18 -168q-21 -2 -44.5 -3.5t-49.5 -1.5q-68 0 -128 15t-97.5 48.5t-37.5 89.5q0 65 41 123.5t96 105.5t97 74h172q-22 -17 -54.5 -45.5t-65 -62.5t-53.5 -66.5t-21 -57.5q0 -35 25 -46.5t63 -11.5q18 0 38.5 2.5t36.5 4.5zM676 -25q-161 0 -290.5 68.5
t-204.5 202t-75 328.5q0 194 60 361.5t171 294t265.5 198t343.5 71.5q164 0 292.5 -67.5t203.5 -199t75 -326.5q0 -192 -60.5 -360.5t-172.5 -297t-266 -201t-342 -72.5zM708 256q115 0 199 58t139 153.5t82 211t27 230.5t-32 182.5t-86.5 97t-123.5 29.5q-115 0 -199 -55.5
t-139 -148.5t-81 -207t-26 -232q0 -176 68.5 -247.5t171.5 -71.5z" />
    <glyph glyph-name="uni01EB" unicode="&#x1eb;" horiz-adv-x="1293" 
d="M793 -259l-18 -168q-20 -2 -44 -3.5t-50 -1.5q-102 0 -174 38.5t-72 122.5q0 57 36.5 114.5t87.5 105.5t94 75h170q-22 -17 -54.5 -45.5t-64.5 -62.5t-53 -66.5t-21 -57.5q0 -35 25 -46.5t63 -11.5q19 0 39 2.5zM565 -24q-157 0 -272 57t-177.5 159t-62.5 238
q0 144 53 263.5t147.5 207t220 135t269.5 47.5q157 0 272 -57t178 -159t63 -236q0 -146 -53.5 -266t-148 -207t-220 -134.5t-269.5 -47.5zM602 250q87 0 152.5 48t101.5 128.5t36 178.5q0 64 -19.5 109t-60.5 69.5t-105 24.5q-66 0 -119.5 -27.5t-91.5 -76t-58.5 -112
t-20.5 -136.5q0 -97 45 -151.5t140 -54.5z" />
    <glyph glyph-name="uni01EE" unicode="&#x1ee;" horiz-adv-x="1284" 
d="M528 -25q-175 0 -277.5 50t-146.5 134t-44 185q0 57 7 94t10 48h357q-3 -11 -8 -38.5t-5 -61.5q0 -79 41 -109.5t111 -30.5q56 0 97 19t68 53.5t40.5 80t13.5 99.5q0 75 -55 107.5t-195 32.5h-120l474 567h-606l58 270h963l-54 -249l-338 -394q101 0 167.5 -76.5
t66.5 -223.5q0 -130 -44 -233.5t-126 -175.5t-197 -110t-258 -38zM531 1775h218l169 -165h-93l205 165h226l-272 -216h-226z" />
    <glyph glyph-name="uni01EF" unicode="&#x1ef;" horiz-adv-x="1284" 
d="M457 -438q-175 0 -277.5 50t-146.5 134t-44 185q0 57 7 94t10 48h357q-3 -11 -8 -38.5t-5 -61.5q0 -79 41 -109.5t111 -30.5q56 0 97 19t68 53.5t40.5 80t13.5 99.5q0 75 -55 107.5t-195 32.5h-120l474 567h-606l58 270h963l-54 -249l-338 -394q101 0 167.5 -76.5
t66.5 -223.5q0 -130 -44 -233.5t-126 -175.5t-197 -110t-258 -38zM480 1475h217l163 -217h-93l210 217h225l-278 -281h-224z" />
    <glyph glyph-name="Aringacute" unicode="&#x1fa;" horiz-adv-x="1370" 
d="M-65 0l670 1476h566l40 -1476h-350l-3 1261h2l-543 -1261h-382zM287 326l58 273h714l-57 -273h-715zM941 1668q37 0 63.5 26t26.5 63q0 38 -26.5 64t-63.5 26t-63.5 -26t-26.5 -64q0 -37 26.5 -63t63.5 -26zM941 1516q-66 0 -121 33t-87.5 87.5t-32.5 120.5
q0 67 32.5 121.5t87.5 87t121 32.5q67 0 121 -32.5t87 -87t33 -120.5q0 -67 -33 -121.5t-87 -87.5t-121 -33zM810 2051l270 215h274l-308 -215h-236z" />
    <glyph glyph-name="aringacute" unicode="&#x1fb;" horiz-adv-x="1348" 
d="M472 -25q-121 0 -216 51.5t-148.5 153t-53.5 250.5q0 136 44.5 254.5t126 208.5t193 140t243.5 50q107 0 195 -48t140 -135.5t52 -206.5q0 -28 -4.5 -66.5t-12.5 -67.5l-134 -7q3 15 5.5 32.5t2.5 31.5q0 56 -27 94t-70 57t-91 19q-62 0 -114 -22.5t-90.5 -63t-59.5 -97
t-21 -123.5q0 -69 23.5 -114.5t65 -69t94.5 -23.5q60 0 116 26t98 76.5t57 124.5l133 -17q-33 -158 -116 -272t-195.5 -175t-235.5 -61zM1136 0h-357l225 1062h357zM813 1290q38 0 64 26t26 63q0 38 -26 64t-63 26q-38 0 -64 -26t-26 -63q0 -38 26 -64t63 -26zM814 1138
q-66 0 -121 33t-88 87.5t-33 120.5q0 67 33 121.5t87.5 87t120.5 32.5q67 0 121.5 -32.5t87 -87t32.5 -120.5t-32.5 -121t-87 -88t-120.5 -33zM742 1723l238 281h264l-277 -281h-225z" />
    <glyph glyph-name="AEacute" unicode="&#x1fc;" horiz-adv-x="1998" 
d="M-109 0l1094 1475h1098l-58 -270h-702l142 116l-117 -549l-80 103h575l-56 -270h-567l112 94l-112 -530l-80 101h686l-57 -270h-928l252 1186l23 -21l-836 -1165h-389zM349 273l124 257h643l-54 -257h-713zM1286 1561l270 215h274l-308 -215h-236z" />
    <glyph glyph-name="aeacute" unicode="&#x1fd;" horiz-adv-x="2121" 
d="M467 -26q-222 0 -338 84.5t-116 221.5q0 101 47.5 168.5t129 108t182.5 57.5t208 17q122 0 188 3t93.5 14t32.5 35q3 12 4 21.5t1 14.5q0 44 -49 71t-130 27q-62 0 -116 -13.5t-90.5 -42t-45.5 -73.5h-352q29 131 126 218.5t236 131.5t292 44q133 0 241.5 -41.5
t166.5 -125.5q7 -9 13.5 -18.5t11.5 -20.5l-137 11q96 92 225 143.5t278 51.5q157 0 270 -52.5t173.5 -150t60.5 -231.5q0 -49 -11 -113.5t-26 -105.5h-991l178 129q-8 -37 -12.5 -70t-4.5 -64q0 -58 21 -101t67.5 -66t121.5 -23q55 0 97 9.5t71.5 25t47 33t22.5 33.5h352
q-21 -68 -73.5 -132t-134 -116t-189.5 -82.5t-240 -30.5q-119 0 -213 31.5t-159.5 89.5t-98.5 138l111 8q-52 -99 -141 -157.5t-194 -84t-207 -25.5zM520 243q44 0 96.5 13t103 44.5t89 85.5t55.5 134q4 14 5.5 29.5t2.5 31.5l76 -127q-87 -15 -186 -20.5t-180 -5.5
q-66 0 -112.5 -10.5t-70.5 -33.5t-24 -60q0 -39 35.5 -60t109.5 -21zM1255 643h472q1 7 1.5 14t0.5 13q0 40 -19.5 75.5t-61 58t-111.5 22.5q-66 0 -120 -23t-95 -64.5t-67 -95.5zM1031 1194l238 281h264l-277 -281h-225z" />
    <glyph glyph-name="Oslashacute" unicode="&#x1fe;" horiz-adv-x="1535" 
d="M1501 1487l-1316 -1603l-160 105l1314 1603zM676 -25q-161 0 -290.5 68.5t-204.5 202t-75 328.5q0 194 60 361.5t171 294t265.5 198t343.5 71.5q164 0 292.5 -67.5t203.5 -199t75 -326.5q0 -192 -60.5 -360.5t-172.5 -297t-266 -201t-342 -72.5zM708 256q115 0 199 58
t139 153.5t82 211t27 230.5t-32 182.5t-86.5 97t-123.5 29.5q-115 0 -199 -55.5t-139 -148.5t-81 -207t-26 -232q0 -176 68.5 -247.5t171.5 -71.5zM801 1561l270 215h274l-308 -215h-236z" />
    <glyph glyph-name="oslashacute" unicode="&#x1ff;" horiz-adv-x="1309" 
d="M1217 1032l-1058 -1098l-103 96l1058 1097zM565 -24q-157 0 -272 57t-177.5 159t-62.5 238q0 144 53 263.5t147.5 207t220 135t269.5 47.5q157 0 272 -57t178 -159t63 -236q0 -146 -53.5 -266t-148 -207t-220 -134.5t-269.5 -47.5zM602 250q87 0 152.5 48t101.5 128.5
t36 178.5q0 64 -19.5 109t-60.5 69.5t-105 24.5q-66 0 -119.5 -27.5t-91.5 -76t-58.5 -112t-20.5 -136.5q0 -97 45 -151.5t140 -54.5zM610 1194l238 281h264l-277 -281h-225z" />
    <glyph glyph-name="uni0200" unicode="&#x200;" horiz-adv-x="1370" 
d="M-65 0l670 1476h566l40 -1476h-350l-3 1261h2l-543 -1261h-382zM287 326l58 273h714l-57 -273h-715zM1152 1560h-187l-209 217h211zM812 1560h-187l-235 217h211z" />
    <glyph glyph-name="uni0201" unicode="&#x201;" horiz-adv-x="1348" 
d="M472 -25q-121 0 -216 51.5t-148.5 153t-53.5 250.5q0 136 44.5 254.5t126 208.5t193 140t243.5 50q107 0 195 -48t140 -135.5t52 -206.5q0 -28 -4.5 -66.5t-12.5 -67.5l-134 -7q3 15 5.5 32.5t2.5 31.5q0 56 -27 94t-70 57t-91 19q-62 0 -114 -22.5t-90.5 -63t-59.5 -97
t-21 -123.5q0 -69 23.5 -114.5t65 -69t94.5 -23.5q60 0 116 26t98 76.5t57 124.5l133 -17q-33 -158 -116 -272t-195.5 -175t-235.5 -61zM1136 0h-357l225 1062h357zM1042 1194h-186l-174 281h211zM701 1194h-186l-200 281h211z" />
    <glyph glyph-name="uni0202" unicode="&#x202;" horiz-adv-x="1370" 
d="M-65 0l670 1476h566l40 -1476h-350l-3 1261h2l-543 -1261h-382zM287 326l58 273h714l-57 -273h-715zM599 1559q11 102 104 162.5t225 60.5q133 0 208.5 -60.5t75.5 -162.5h-206q0 37 -21 63t-70 26q-48 0 -77 -25.5t-33 -63.5h-206z" />
    <glyph glyph-name="uni0203" unicode="&#x203;" horiz-adv-x="1348" 
d="M472 -25q-121 0 -216 51.5t-148.5 153t-53.5 250.5q0 136 44.5 254.5t126 208.5t193 140t243.5 50q107 0 195 -48t140 -135.5t52 -206.5q0 -28 -4.5 -66.5t-12.5 -67.5l-134 -7q3 15 5.5 32.5t2.5 31.5q0 56 -27 94t-70 57t-91 19q-62 0 -114 -22.5t-90.5 -63t-59.5 -97
t-21 -123.5q0 -69 23.5 -114.5t65 -69t94.5 -23.5q60 0 116 26t98 76.5t57 124.5l133 -17q-33 -158 -116 -272t-195.5 -175t-235.5 -61zM1136 0h-357l225 1062h357zM477 1227q15 131 109 196.5t226 65.5q133 0 205.5 -65.5t72.5 -196.5h-206q0 60 -18.5 94t-67.5 34
q-48 0 -77.5 -34t-36.5 -94h-207z" />
    <glyph glyph-name="uni0204" unicode="&#x204;" horiz-adv-x="1159" 
d="M458 1205l196 165l-127 -593l-59 98h537l-57 -270h-537l100 97l-126 -597l-126 165h729l-58 -270h-927l314 1475h927l-58 -270h-728zM1049 1560h-187l-209 217h211zM709 1560h-187l-235 217h211z" />
    <glyph glyph-name="uni0205" unicode="&#x205;" horiz-adv-x="1305" 
d="M230 429l46 223h665l-38 -52q6 20 8.5 37.5t2.5 34.5q0 39 -19 74t-61 57t-112 22q-80 0 -141.5 -30t-102.5 -84t-62.5 -125.5t-21.5 -155.5q0 -60 20 -103.5t65.5 -66.5t122.5 -23q56 0 97.5 9t70.5 23.5t46 32t22 34.5h353q-20 -69 -70 -133.5t-129 -116t-186.5 -81.5
t-242.5 -30q-162 0 -276 58.5t-174 162t-60 238.5q0 142 53 261t148 206t221 134.5t270 47.5q160 0 274 -55t175 -155t61 -237q0 -47 -9 -106t-24 -101h-992zM1048 1194h-186l-174 281h211zM707 1194h-186l-200 281h211z" />
    <glyph glyph-name="uni0206" unicode="&#x206;" horiz-adv-x="1159" 
d="M458 1205l196 165l-127 -593l-59 98h537l-57 -270h-537l100 97l-126 -597l-126 165h729l-58 -270h-927l314 1475h927l-58 -270h-728zM495 1559q11 102 104 162.5t225 60.5q133 0 208.5 -60.5t75.5 -162.5h-206q0 37 -21 63t-70 26q-48 0 -77 -25.5t-33 -63.5h-206z" />
    <glyph glyph-name="uni0207" unicode="&#x207;" horiz-adv-x="1305" 
d="M230 429l46 223h665l-38 -52q6 20 8.5 37.5t2.5 34.5q0 39 -19 74t-61 57t-112 22q-80 0 -141.5 -30t-102.5 -84t-62.5 -125.5t-21.5 -155.5q0 -60 20 -103.5t65.5 -66.5t122.5 -23q56 0 97.5 9t70.5 23.5t46 32t22 34.5h353q-20 -69 -70 -133.5t-129 -116t-186.5 -81.5
t-242.5 -30q-162 0 -276 58.5t-174 162t-60 238.5q0 142 53 261t148 206t221 134.5t270 47.5q160 0 274 -55t175 -155t61 -237q0 -47 -9 -106t-24 -101h-992zM484 1227q15 131 109 196.5t226 65.5q133 0 205.5 -65.5t72.5 -196.5h-206q0 60 -18.5 94t-67.5 34
q-48 0 -77.5 -34t-36.5 -94h-207z" />
    <glyph glyph-name="uni0208" unicode="&#x208;" horiz-adv-x="584" 
d="M-2 0l314 1475h357l-313 -1475h-358zM756 1560h-187l-209 217h211zM416 1560h-187l-235 217h211z" />
    <glyph glyph-name="uni0209" unicode="&#x209;" horiz-adv-x="551" 
d="M-16 0l225 1062h355l-225 -1062h-355zM675 1194h-186l-174 281h211zM334 1194h-186l-200 281h211z" />
    <glyph glyph-name="uni020A" unicode="&#x20a;" horiz-adv-x="584" 
d="M-2 0l314 1475h357l-313 -1475h-358zM203 1559q11 102 104 162.5t225 60.5q133 0 208.5 -60.5t75.5 -162.5h-206q0 37 -21 63t-70 26q-48 0 -77 -25.5t-33 -63.5h-206z" />
    <glyph glyph-name="uni020B" unicode="&#x20b;" horiz-adv-x="551" 
d="M-16 0l225 1062h355l-225 -1062h-355zM110 1227q15 131 109 196.5t226 65.5q133 0 205.5 -65.5t72.5 -196.5h-206q0 60 -18.5 94t-67.5 34q-48 0 -77.5 -34t-36.5 -94h-207z" />
    <glyph glyph-name="uni020C" unicode="&#x20c;" horiz-adv-x="1535" 
d="M676 -25q-161 0 -290.5 68.5t-204.5 202t-75 328.5q0 194 60 361.5t171 294t265.5 198t343.5 71.5q164 0 292.5 -67.5t203.5 -199t75 -326.5q0 -192 -60.5 -360.5t-172.5 -297t-266 -201t-342 -72.5zM708 256q115 0 199 58t139 153.5t82 211t27 230.5t-32 182.5t-86.5 97
t-123.5 29.5q-115 0 -199 -55.5t-139 -148.5t-81 -207t-26 -232q0 -176 68.5 -247.5t171.5 -71.5zM1214 1560h-187l-209 217h211zM874 1560h-187l-235 217h211z" />
    <glyph glyph-name="uni020D" unicode="&#x20d;" horiz-adv-x="1309" 
d="M565 -24q-157 0 -272 57t-177.5 159t-62.5 238q0 144 53 263.5t147.5 207t220 135t269.5 47.5q157 0 272 -57t178 -159t63 -236q0 -146 -53.5 -266t-148 -207t-220 -134.5t-269.5 -47.5zM602 250q87 0 152.5 48t101.5 128.5t36 178.5q0 64 -19.5 109t-60.5 69.5
t-105 24.5q-66 0 -119.5 -27.5t-91.5 -76t-58.5 -112t-20.5 -136.5q0 -97 45 -151.5t140 -54.5zM1045 1194h-186l-174 281h211zM704 1194h-186l-200 281h211z" />
    <glyph glyph-name="uni020E" unicode="&#x20e;" horiz-adv-x="1535" 
d="M676 -25q-161 0 -290.5 68.5t-204.5 202t-75 328.5q0 194 60 361.5t171 294t265.5 198t343.5 71.5q164 0 292.5 -67.5t203.5 -199t75 -326.5q0 -192 -60.5 -360.5t-172.5 -297t-266 -201t-342 -72.5zM708 256q115 0 199 58t139 153.5t82 211t27 230.5t-32 182.5t-86.5 97
t-123.5 29.5q-115 0 -199 -55.5t-139 -148.5t-81 -207t-26 -232q0 -176 68.5 -247.5t171.5 -71.5zM661 1559q11 102 104 162.5t225 60.5q133 0 208.5 -60.5t75.5 -162.5h-206q0 37 -21 63t-70 26q-48 0 -77 -25.5t-33 -63.5h-206z" />
    <glyph glyph-name="uni020F" unicode="&#x20f;" horiz-adv-x="1309" 
d="M565 -24q-157 0 -272 57t-177.5 159t-62.5 238q0 144 53 263.5t147.5 207t220 135t269.5 47.5q157 0 272 -57t178 -159t63 -236q0 -146 -53.5 -266t-148 -207t-220 -134.5t-269.5 -47.5zM602 250q87 0 152.5 48t101.5 128.5t36 178.5q0 64 -19.5 109t-60.5 69.5
t-105 24.5q-66 0 -119.5 -27.5t-91.5 -76t-58.5 -112t-20.5 -136.5q0 -97 45 -151.5t140 -54.5zM480 1227q15 131 109 196.5t226 65.5q133 0 205.5 -65.5t72.5 -196.5h-206q0 60 -18.5 94t-67.5 34q-48 0 -77.5 -34t-36.5 -94h-207z" />
    <glyph glyph-name="uni0210" unicode="&#x210;" horiz-adv-x="1303" 
d="M3 0l314 1475h623q213 0 306 -86.5t93 -226.5q0 -82 -27 -162t-75 -146.5t-113.5 -109.5t-142.5 -49q52 -3 96 -22.5t70 -60t26 -107.5q0 -32 -7.5 -76t-19 -95t-23.5 -102t-19.5 -96t-7.5 -77q0 -19 2.5 -34.5t7.5 -24.5h-357q-9 19 -9 58q0 30 7 69.5t16.5 83
t19.5 86.5t17 80.5t7 65.5q0 57 -38.5 86.5t-112.5 29.5h-346l182 96l-140 -655h-349zM508 734l-141 95h358q62 0 115.5 28.5t86 79t32.5 117.5q0 65 -37 108.5t-120 43.5h-354l195 161zM1057 1560h-187l-209 217h211zM717 1560h-187l-235 217h211z" />
    <glyph glyph-name="uni0211" unicode="&#x211;" horiz-adv-x="958" 
d="M-2 0l226 1062h357l-80 -380l-59 48q30 79 75 144.5t103 112t127.5 71.5t148.5 25q65 0 97 -9t39 -14l-120 -315q-8 5 -36.5 15.5t-75.5 10.5q-79 0 -138.5 -25.5t-101 -68t-67 -95t-37.5 -106.5l-100 -476h-358zM955 1194h-186l-174 281h211zM614 1194h-186l-200 281
h211z" />
    <glyph glyph-name="uni0212" unicode="&#x212;" horiz-adv-x="1303" 
d="M3 0l314 1475h623q213 0 306 -86.5t93 -226.5q0 -82 -27 -162t-75 -146.5t-113.5 -109.5t-142.5 -49q52 -3 96 -22.5t70 -60t26 -107.5q0 -32 -7.5 -76t-19 -95t-23.5 -102t-19.5 -96t-7.5 -77q0 -19 2.5 -34.5t7.5 -24.5h-357q-9 19 -9 58q0 30 7 69.5t16.5 83
t19.5 86.5t17 80.5t7 65.5q0 57 -38.5 86.5t-112.5 29.5h-346l182 96l-140 -655h-349zM508 734l-141 95h358q62 0 115.5 28.5t86 79t32.5 117.5q0 65 -37 108.5t-120 43.5h-354l195 161zM504 1559q11 102 104 162.5t225 60.5q133 0 208.5 -60.5t75.5 -162.5h-206
q0 37 -21 63t-70 26q-48 0 -77 -25.5t-33 -63.5h-206z" />
    <glyph glyph-name="uni0213" unicode="&#x213;" horiz-adv-x="958" 
d="M-2 0l226 1062h357l-80 -380l-59 48q30 79 75 144.5t103 112t127.5 71.5t148.5 25q65 0 97 -9t39 -14l-120 -315q-8 5 -36.5 15.5t-75.5 10.5q-79 0 -138.5 -25.5t-101 -68t-67 -95t-37.5 -106.5l-100 -476h-358zM390 1227q15 131 109 196.5t226 65.5q133 0 205.5 -65.5
t72.5 -196.5h-206q0 60 -18.5 94t-67.5 34q-48 0 -77.5 -34t-36.5 -94h-207z" />
    <glyph glyph-name="uni0214" unicode="&#x214;" horiz-adv-x="1373" 
d="M1257 529q-59 -278 -233 -416t-424 -138q-239 0 -368 101.5t-129 300.5q0 68 12 136.5t36 179.5l170 782h357l-181 -836q-12 -57 -19.5 -97t-11 -70.5t-3.5 -62.5q0 -78 39.5 -116t126.5 -38q114 0 177.5 66t91.5 200l203 954h357zM1164 1560h-187l-209 217h211z
M824 1560h-187l-235 217h211z" />
    <glyph glyph-name="uni0215" unicode="&#x215;" horiz-adv-x="1280" 
d="M366 -21q-108 0 -174 37t-95 100.5t-29 143.5q0 39 6 83t18 98l132 621h356l-114 -529q-10 -46 -15.5 -81.5t-5.5 -64.5q0 -50 28.5 -80.5t93.5 -30.5q66 0 119 35.5t89 94t51 126.5l69 -80q-22 -105 -70 -191.5t-117 -149.5t-155.5 -97.5t-186.5 -34.5zM712 0l226 1062
h356l-226 -1062h-356zM1040 1194h-186l-174 281h211zM699 1194h-186l-200 281h211z" />
    <glyph glyph-name="uni0216" unicode="&#x216;" horiz-adv-x="1373" 
d="M1257 529q-59 -278 -233 -416t-424 -138q-239 0 -368 101.5t-129 300.5q0 68 12 136.5t36 179.5l170 782h357l-181 -836q-12 -57 -19.5 -97t-11 -70.5t-3.5 -62.5q0 -78 39.5 -116t126.5 -38q114 0 177.5 66t91.5 200l203 954h357zM611 1559q11 102 104 162.5t225 60.5
q133 0 208.5 -60.5t75.5 -162.5h-206q0 37 -21 63t-70 26q-48 0 -77 -25.5t-33 -63.5h-206z" />
    <glyph glyph-name="uni0217" unicode="&#x217;" horiz-adv-x="1280" 
d="M366 -21q-108 0 -174 37t-95 100.5t-29 143.5q0 39 6 83t18 98l132 621h356l-114 -529q-10 -46 -15.5 -81.5t-5.5 -64.5q0 -50 28.5 -80.5t93.5 -30.5q66 0 119 35.5t89 94t51 126.5l69 -80q-22 -105 -70 -191.5t-117 -149.5t-155.5 -97.5t-186.5 -34.5zM712 0l226 1062
h356l-226 -1062h-356zM475 1227q15 131 109 196.5t226 65.5q133 0 205.5 -65.5t72.5 -196.5h-206q0 60 -18.5 94t-67.5 34q-48 0 -77.5 -34t-36.5 -94h-207z" />
    <glyph glyph-name="uni0218" unicode="&#x218;" horiz-adv-x="1271" 
d="M530 -25q-137 0 -248 42t-175.5 122.5t-64.5 197.5q0 48 6.5 83t15.5 72h357q-8 -31 -12 -56t-4 -46q0 -63 42.5 -99t127.5 -36q66 0 121 16t88 50t33 89q0 66 -78 115.5t-200 94.5q-86 33 -166.5 79.5t-132.5 115.5t-52 170q0 119 50 214t137 162t200.5 102.5
t240.5 35.5q141 0 251 -42.5t172.5 -121t62.5 -187.5q0 -41 -6.5 -80.5t-13.5 -63.5h-357q4 16 8.5 41.5t4.5 49.5q0 59 -41 92t-124 33q-68 0 -120.5 -18.5t-83 -55t-30.5 -94.5q0 -64 74 -108t192 -91q106 -42 189.5 -91.5t131.5 -118t48 -170.5q0 -160 -87 -271.5
t-233 -169t-324 -57.5zM460 -276q-46 0 -73 22.5t-27 63.5q0 62 46 88.5t95 26.5q41 0 83 -25.5t42 -88.5q0 -66 -35.5 -121t-90 -93t-113.5 -58l-22 53q31 11 70 31t69.5 52.5t34.5 77.5q-10 -14 -32 -21.5t-47 -7.5z" />
    <glyph glyph-name="uni0219" unicode="&#x219;" horiz-adv-x="1134" 
d="M465 -25q-83 0 -164 19t-147 56t-105.5 92.5t-39.5 129.5q0 21 3.5 41.5t6.5 31.5h354q-2 -6 -3.5 -15t-1.5 -16q0 -40 38.5 -57.5t106.5 -17.5q37 0 77 8.5t67.5 29t27.5 56.5q0 33 -50 50t-154 34q-87 15 -171.5 44.5t-139.5 88t-55 156.5q0 97 46 168t124.5 117.5
t177.5 69t204 22.5q113 0 213 -36.5t163 -103.5t63 -159q0 -20 -3 -39t-6 -30h-350q3 6 4 13t1 16q0 28 -18.5 44.5t-46.5 25t-59 8.5t-69 -7.5t-65 -25.5t-27 -50q0 -35 47 -53.5t132 -32.5q55 -9 122 -25t127.5 -47t99.5 -80.5t39 -126.5q0 -103 -48.5 -178t-129.5 -124
t-182.5 -73t-208.5 -24zM379 -276q-46 0 -73 22.5t-27 63.5q0 62 46 88.5t95 26.5q41 0 83 -25.5t42 -88.5q0 -66 -35.5 -121t-90 -93t-113.5 -58l-22 53q31 11 70 31t69.5 52.5t34.5 77.5q-10 -14 -32 -21.5t-47 -7.5z" />
    <glyph glyph-name="uni021A" unicode="&#x21a;" horiz-adv-x="1191" 
d="M1272 1205h-515l195 162l-291 -1367h-356l291 1367l126 -162h-514l58 270h1063zM414 -276q-46 0 -73 22.5t-27 63.5q0 62 46 88.5t95 26.5q41 0 83 -25.5t42 -88.5q0 -66 -35.5 -121t-90 -93t-113.5 -58l-22 53q31 11 70 31t69.5 52.5t34.5 77.5q-10 -14 -32 -21.5
t-47 -7.5z" />
    <glyph glyph-name="uni021B" unicode="&#x21b;" horiz-adv-x="985" 
d="M545 -24q-57 0 -117 8t-110.5 31.5t-81.5 69t-31 121.5q0 37 8 81t20 99l86 406h-241l58 270h38q69 0 112 7t68.5 32.5t42.5 77.5t35 141l18 91h358l-74 -349h301l-57 -270h-301l-72 -337q-11 -55 -17 -85.5t-6 -55.5q0 -32 15 -51t55 -19q35 0 68 7t50 13l-56 -262
q-24 -9 -69 -17.5t-100 -8.5zM372 -276q-46 0 -73 22.5t-27 63.5q0 62 46 88.5t95 26.5q41 0 83 -25.5t42 -88.5q0 -66 -35.5 -121t-90 -93t-113.5 -58l-22 53q31 11 70 31t69.5 52.5t34.5 77.5q-10 -14 -32 -21.5t-47 -7.5z" />
    <glyph glyph-name="uni0228" unicode="&#x228;" horiz-adv-x="1159" 
d="M458 1205l196 165l-127 -593l-59 98h537l-57 -270h-537l100 97l-126 -597l-126 165h729l-58 -270h-927l314 1475h927l-58 -270h-728zM595 -65q49 0 95 -28.5t46 -96.5q0 -75 -45 -124.5t-117 -74t-151 -24.5q-43 0 -90.5 7.5t-86 20t-56.5 25.5l86 127q18 -12 67 -31
t101 -19q58 0 98.5 22t40.5 64q0 23 -16 33.5t-39 10.5q-24 0 -48.5 -8t-38.5 -25l-126 36l94 150h149l-75 -118l-11 1q13 24 44.5 38t78.5 14z" />
    <glyph glyph-name="uni0229" unicode="&#x229;" horiz-adv-x="1289" 
d="M661 -65q49 0 95 -28.5t46 -96.5q0 -75 -45 -124.5t-117 -74t-151 -24.5q-43 0 -90.5 7.5t-86 20t-56.5 25.5l86 127q18 -12 67 -31t101 -19q58 0 98.5 22t40.5 64q0 23 -16 33.5t-39 10.5q-24 0 -48.5 -8t-38.5 -25l-127 36l94 150h151l-75 -118l-14 1q13 24 45.5 38
t79.5 14zM230 429l46 223h665l-38 -52q6 20 8.5 37.5t2.5 34.5q0 39 -19 74t-61 57t-112 22q-80 0 -141.5 -30t-102.5 -84t-62.5 -125.5t-21.5 -155.5q0 -60 20 -103.5t65.5 -66.5t122.5 -23q56 0 97.5 9t70.5 23.5t46 32t22 34.5h353q-20 -69 -70 -133.5t-129 -116
t-186.5 -81.5t-242.5 -30q-162 0 -276 58.5t-174 162t-60 238.5q0 142 53 261t148 206t221 134.5t270 47.5q160 0 274 -55t175 -155t61 -237q0 -47 -9 -106t-24 -101h-992z" />
    <glyph glyph-name="uni022A" unicode="&#x22a;" horiz-adv-x="1535" 
d="M676 -25q-161 0 -290.5 68.5t-204.5 202t-75 328.5q0 194 60 361.5t171 294t265.5 198t343.5 71.5q164 0 292.5 -67.5t203.5 -199t75 -326.5q0 -192 -60.5 -360.5t-172.5 -297t-266 -201t-342 -72.5zM708 256q115 0 199 58t139 153.5t82 211t27 230.5t-32 182.5t-86.5 97
t-123.5 29.5q-115 0 -199 -55.5t-139 -148.5t-81 -207t-26 -232q0 -176 68.5 -247.5t171.5 -71.5zM725 1536q-69 0 -119 34.5t-50 98.5q0 78 61 120t138 42q69 0 119 -34t50 -99q0 -78 -61 -120t-138 -42zM1239 1536q-69 0 -119 34.5t-50 98.5q0 78 61 120t138 42
q69 0 119 -34t50 -99q0 -78 -61 -120t-138 -42zM719 1919l31 146h658l-31 -146h-658z" />
    <glyph glyph-name="uni022B" unicode="&#x22b;" horiz-adv-x="1309" 
d="M565 -24q-157 0 -272 57t-177.5 159t-62.5 238q0 144 53 263.5t147.5 207t220 135t269.5 47.5q157 0 272 -57t178 -159t63 -236q0 -146 -53.5 -266t-148 -207t-220 -134.5t-269.5 -47.5zM602 250q87 0 152.5 48t101.5 128.5t36 178.5q0 64 -19.5 109t-60.5 69.5
t-105 24.5q-66 0 -119.5 -27.5t-91.5 -76t-58.5 -112t-20.5 -136.5q0 -97 45 -151.5t140 -54.5zM541 1203q-69 0 -119 34.5t-50 98.5q0 78 61 120t138 42q69 0 119 -34t50 -99q0 -78 -61 -120t-138 -42zM1055 1203q-69 0 -119 34.5t-50 98.5q0 78 61 120t138 42
q69 0 119 -34t50 -99q0 -78 -61 -120t-138 -42zM546 1633l31 146h658l-31 -146h-658z" />
    <glyph glyph-name="uni022C" unicode="&#x22c;" horiz-adv-x="1535" 
d="M676 -25q-161 0 -290.5 68.5t-204.5 202t-75 328.5q0 194 60 361.5t171 294t265.5 198t343.5 71.5q164 0 292.5 -67.5t203.5 -199t75 -326.5q0 -192 -60.5 -360.5t-172.5 -297t-266 -201t-342 -72.5zM708 256q115 0 199 58t139 153.5t82 211t27 230.5t-32 182.5t-86.5 97
t-123.5 29.5q-115 0 -199 -55.5t-139 -148.5t-81 -207t-26 -232q0 -176 68.5 -247.5t171.5 -71.5zM1348 1794q-5 -58 -36 -115.5t-84 -95.5t-125 -38q-56 0 -87 22t-50 42q-19 21 -37.5 35.5t-46.5 14.5q-32 0 -50.5 -25t-23.5 -70h-177q7 59 38.5 116.5t86 96t128.5 38.5
q51 0 82 -22t51 -42q20 -21 41 -35.5t45 -14.5q29 0 46.5 24t22.5 69h176zM724 1952l31 146h658l-31 -146h-658z" />
    <glyph glyph-name="uni022D" unicode="&#x22d;" horiz-adv-x="1309" 
d="M565 -24q-157 0 -272 57t-177.5 159t-62.5 238q0 144 53 263.5t147.5 207t220 135t269.5 47.5q157 0 272 -57t178 -159t63 -236q0 -146 -53.5 -266t-148 -207t-220 -134.5t-269.5 -47.5zM602 250q87 0 152.5 48t101.5 128.5t36 178.5q0 64 -19.5 109t-60.5 69.5
t-105 24.5q-66 0 -119.5 -27.5t-91.5 -76t-58.5 -112t-20.5 -136.5q0 -97 45 -151.5t140 -54.5zM1169 1457q-6 -58 -37 -115t-83.5 -95t-125.5 -38q-56 0 -86.5 22t-49.5 41q-20 22 -38.5 36.5t-45.5 14.5q-32 0 -51 -25.5t-24 -69.5h-176q6 59 37.5 116.5t86 96t129.5 38.5
q51 0 82 -22t50 -43q20 -20 41.5 -34.5t45.5 -14.5q28 0 45.5 24t22.5 68h177zM543 1620l31 146h658l-31 -146h-658z" />
    <glyph glyph-name="uni0230" unicode="&#x230;" horiz-adv-x="1535" 
d="M676 -25q-161 0 -290.5 68.5t-204.5 202t-75 328.5q0 194 60 361.5t171 294t265.5 198t343.5 71.5q164 0 292.5 -67.5t203.5 -199t75 -326.5q0 -192 -60.5 -360.5t-172.5 -297t-266 -201t-342 -72.5zM708 256q115 0 199 58t139 153.5t82 211t27 230.5t-32 182.5t-86.5 97
t-123.5 29.5q-115 0 -199 -55.5t-139 -148.5t-81 -207t-26 -232q0 -176 68.5 -247.5t171.5 -71.5zM994 1560q-80 0 -140.5 42t-60.5 119q0 78 60.5 119.5t140.5 41.5t140 -41.5t60 -119.5t-60 -119.5t-140 -41.5zM730 2018l31 146h658l-31 -146h-658z" />
    <glyph glyph-name="uni0231" unicode="&#x231;" horiz-adv-x="1309" 
d="M565 -24q-157 0 -272 57t-177.5 159t-62.5 238q0 144 53 263.5t147.5 207t220 135t269.5 47.5q157 0 272 -57t178 -159t63 -236q0 -146 -53.5 -266t-148 -207t-220 -134.5t-269.5 -47.5zM602 250q87 0 152.5 48t101.5 128.5t36 178.5q0 64 -19.5 109t-60.5 69.5
t-105 24.5q-66 0 -119.5 -27.5t-91.5 -76t-58.5 -112t-20.5 -136.5q0 -97 45 -151.5t140 -54.5zM803 1204q-76 0 -130.5 38t-54.5 107q0 58 31 97.5t81.5 60t106.5 20.5q75 0 129.5 -37.5t54.5 -107.5q0 -57 -31 -97t-80.5 -60.5t-106.5 -20.5zM559 1661l31 146h658
l-31 -146h-658z" />
    <glyph glyph-name="uni0232" unicode="&#x232;" horiz-adv-x="1314" 
d="M1468 1475l-637 -968l-110 -507h-355l108 507l-225 968h369l130 -797h-142l475 797h387zM573 1609l31 146h658l-31 -146h-658z" />
    <glyph glyph-name="uni0233" unicode="&#x233;" horiz-adv-x="1132" 
d="M16 -463q-54 0 -100 3t-54 7l58 265q13 -7 44 -10t69 -3q45 0 84.5 17.5t72.5 49.5t57 76l22 41l-137 1079h362l30 -856h-41l381 856h376l-590 -1102q-73 -136 -153 -230.5t-193.5 -143.5t-287.5 -49zM415 1276l31 146h658l-31 -146h-658z" />
    <glyph glyph-name="uni0237" unicode="&#x237;" horiz-adv-x="550" 
d="M-249 -460q-30 0 -58.5 2t-46.5 3l56 261q18 -3 45.5 -5.5t58.5 -2.5q55 0 88.5 18.5t51 46.5t22.5 54l244 1145h355l-243 -1153q-14 -66 -46 -131t-95 -119t-167.5 -86.5t-264.5 -32.5z" />
    <glyph glyph-name="uni0259" unicode="&#x259;" horiz-adv-x="1303" 
d="M554 -21q-155 0 -268.5 53.5t-175 152t-61.5 231.5q0 49 10.5 112t24.5 104h928l-47 -223h-601l40 52q-4 -18 -7 -37t-3 -33q0 -39 19 -75t61 -58t110 -22q80 0 141 32t102 88t62 130t21 159q0 58 -20 98t-66.5 60.5t-127.5 20.5q-47 0 -85.5 -7.5t-67.5 -22t-48 -32.5
t-28 -37h-352q22 70 72.5 134t130.5 115.5t187.5 81t243.5 29.5q166 0 277 -56.5t168 -158t57 -235.5q0 -146 -53 -266.5t-148 -207.5t-222 -134.5t-274 -47.5z" />
    <glyph glyph-name="uni0272" unicode="&#x272;" horiz-adv-x="1231" 
d="M659 0l94 432q18 84 27 136t9 87q0 57 -29.5 93t-111.5 36q-67 0 -119.5 -29.5t-87.5 -83.5t-50 -127l-68 71q22 106 72.5 192.5t122.5 148t159 94.5t182 33q162 0 236 -78.5t74 -210.5q0 -65 -17.5 -158.5t-48.5 -236.5l-88 -399h-356zM-357 -464l53 247q30 0 64 12
t65.5 36.5t56 62t34.5 89.5l230 1079h356l-234 -1102q-20 -94 -58.5 -172t-108 -134.5t-181 -87t-277.5 -30.5z" />
    <glyph glyph-name="uni0292" unicode="&#x292;" horiz-adv-x="1284" 
d="M457 -438q-175 0 -277.5 50t-146.5 134t-44 185q0 57 7 94t10 48h357q-3 -11 -8 -38.5t-5 -61.5q0 -79 41 -109.5t111 -30.5q56 0 97 19t68 53.5t40.5 80t13.5 99.5q0 75 -55 107.5t-195 32.5h-120l474 567h-606l58 270h963l-54 -249l-338 -394q101 0 167.5 -76.5
t66.5 -223.5q0 -130 -44 -233.5t-126 -175.5t-197 -110t-258 -38z" />
    <glyph glyph-name="uni02BC" unicode="&#x2bc;" horiz-adv-x="370" 
d="M514 1475l-141 -527h-196l84 527h253z" />
    <glyph glyph-name="circumflex" unicode="&#x2c6;" horiz-adv-x="977" 
d="M255 1194l279 281h224l219 -281h-217l-165 217h93l-209 -217h-224z" />
    <glyph glyph-name="caron" unicode="&#x2c7;" horiz-adv-x="992" 
d="M322 1475h217l163 -217h-93l210 217h225l-278 -281h-224z" />
    <glyph glyph-name="uni02C9" unicode="&#x2c9;" horiz-adv-x="875" 
d="M264 1276l31 146h658l-31 -146h-658z" />
    <glyph glyph-name="breve" unicode="&#x2d8;" horiz-adv-x="724" 
d="M248 1475h206q0 -60 19.5 -99.5t67.5 -39.5q49 0 78 39.5t36 99.5h206q-14 -131 -107.5 -201.5t-226.5 -70.5q-132 0 -205.5 70.5t-73.5 201.5z" />
    <glyph glyph-name="dotaccent" unicode="&#x2d9;" horiz-adv-x="501" 
d="M410 1204q-76 0 -130.5 38t-54.5 107q0 58 31 97.5t81.5 60t106.5 20.5q75 0 129.5 -37.5t54.5 -107.5q0 -57 -31 -97t-80.5 -60.5t-106.5 -20.5z" />
    <glyph glyph-name="ring" unicode="&#x2da;" horiz-adv-x="811" 
d="M578 1290q38 0 64 26t26 63q0 38 -26 64t-63 26q-38 0 -64 -26t-26 -63q0 -38 26 -64t63 -26zM579 1138q-66 0 -121 33t-88 87.5t-33 120.5q0 67 33 121.5t87.5 87t120.5 32.5q67 0 121.5 -32.5t87 -87t32.5 -120.5t-32.5 -121t-87 -88t-120.5 -33z" />
    <glyph glyph-name="ogonek" unicode="&#x2db;" horiz-adv-x="891" 
d="M340 -283l-18 -168q-20 -2 -44 -3.5t-50 -1.5q-102 0 -174 38.5t-72 122.5q0 57 36.5 114.5t87.5 105.5t94 75h170q-22 -17 -54.5 -45.5t-64.5 -62.5t-53 -66.5t-21 -56.5q0 -36 25 -47t63 -11q19 0 39 2t36 4z" />
    <glyph glyph-name="tilde" unicode="&#x2dc;" horiz-adv-x="952" 
d="M1004 1457q-6 -58 -37 -115t-83.5 -95t-125.5 -38q-56 0 -86.5 22t-49.5 41q-20 22 -38.5 36.5t-45.5 14.5q-32 0 -51 -25.5t-24 -69.5h-176q6 59 37.5 116.5t86 96t129.5 38.5q51 0 82 -22t50 -43q20 -20 41.5 -34.5t45.5 -14.5q28 0 45.5 24t22.5 68h177z" />
    <glyph glyph-name="hungarumlaut" unicode="&#x2dd;" horiz-adv-x="912" 
d="M264 1194l148 281h211l-183 -281h-176zM613 1194l166 281h211l-200 -281h-177z" />
    <glyph glyph-name="gravecomb" unicode="&#x300;" 
d="M787 1194h-226l-276 281h264z" />
    <glyph glyph-name="acutecomb" unicode="&#x301;" 
d="M213 1194l238 281h264l-277 -281h-225z" />
    <glyph glyph-name="uni0302" unicode="&#x302;" 
d="M255 1194l279 281h224l219 -281h-217l-165 217h93l-209 -217h-224z" />
    <glyph glyph-name="tildecomb" unicode="&#x303;" 
d="M1004 1457q-6 -58 -37 -115t-83.5 -95t-125.5 -38q-56 0 -86.5 22t-49.5 41q-20 22 -38.5 36.5t-45.5 14.5q-32 0 -51 -25.5t-24 -69.5h-176q6 59 37.5 116.5t86 96t129.5 38.5q51 0 82 -22t50 -43q20 -20 41.5 -34.5t45.5 -14.5q28 0 45.5 24t22.5 68h177z" />
    <glyph glyph-name="uni0304" unicode="&#x304;" 
d="M264 1276l31 146h658l-31 -146h-658z" />
    <glyph glyph-name="uni0306" unicode="&#x306;" 
d="M248 1475h206q0 -60 19.5 -99.5t67.5 -39.5q49 0 78 39.5t36 99.5h206q-14 -131 -107.5 -201.5t-226.5 -70.5q-132 0 -205.5 70.5t-73.5 201.5z" />
    <glyph glyph-name="uni0307" unicode="&#x307;" 
d="M410 1204q-76 0 -130.5 38t-54.5 107q0 58 31 97.5t81.5 60t106.5 20.5q75 0 129.5 -37.5t54.5 -107.5q0 -57 -31 -97t-80.5 -60.5t-106.5 -20.5z" />
    <glyph glyph-name="uni0308" unicode="&#x308;" 
d="M358 1203q-69 0 -119 34.5t-50 98.5q0 78 61 120t138 42q69 0 119 -34t50 -99q0 -78 -61 -120t-138 -42zM872 1203q-69 0 -119 34.5t-50 98.5q0 78 61 120t138 42q69 0 119 -34t50 -99q0 -78 -61 -120t-138 -42z" />
    <glyph glyph-name="hookabovecomb" unicode="&#x309;" 
d="M355 1513q113 0 207.5 -8.5t152.5 -38.5t58 -93q0 -56 -43 -92t-115.5 -53.5t-160.5 -17.5l-25 91q32 2 72.5 7.5t70.5 17.5t30 33q0 28 -67 37t-191 9z" />
    <glyph glyph-name="uni030A" unicode="&#x30a;" 
d="M578 1290q38 0 64 26t26 63q0 38 -26 64t-63 26q-38 0 -64 -26t-26 -63q0 -38 26 -64t63 -26zM579 1138q-66 0 -121 33t-88 87.5t-33 120.5q0 67 33 121.5t87.5 87t120.5 32.5q67 0 121.5 -32.5t87 -87t32.5 -120.5t-32.5 -121t-87 -88t-120.5 -33z" />
    <glyph glyph-name="uni030B" unicode="&#x30b;" 
d="M264 1194l148 281h211l-183 -281h-176zM613 1194l166 281h211l-200 -281h-177z" />
    <glyph glyph-name="uni030C" unicode="&#x30c;" 
d="M322 1475h217l163 -217h-93l210 217h225l-278 -281h-224z" />
    <glyph glyph-name="uni030F" unicode="&#x30f;" 
d="M924 1194h-186l-174 281h211zM583 1194h-186l-200 281h211z" />
    <glyph glyph-name="uni0311" unicode="&#x311;" 
d="M193 1227q15 131 109 196.5t226 65.5q133 0 205.5 -65.5t72.5 -196.5h-206q0 60 -18.5 94t-67.5 34q-48 0 -77.5 -34t-36.5 -94h-207z" />
    <glyph glyph-name="uni0312" unicode="&#x312;" 
d="M440 1425q48 0 75.5 -24t27.5 -67q0 -72 -49.5 -118.5t-125.5 -46.5q-60 0 -91.5 33.5t-31.5 89.5q0 76 42.5 138.5t109.5 108.5t141 74l16 -60q-36 -13 -75.5 -37.5t-70 -53t-37.5 -57.5q3 5 22 12.5t47 7.5z" />
    <glyph glyph-name="uni031B" unicode="&#x31b;" 
d="M269 1065q61 0 93.5 27t48.5 86.5t28 157.5h191q-18 -171 -68.5 -265t-132.5 -130.5t-196 -36.5z" />
    <glyph glyph-name="dotbelowcomb" unicode="&#x323;" 
d="M63 -434q-77 0 -131 38t-54 107q0 57 31 97t81 60.5t106 20.5q75 0 130 -37.5t55 -107.5q0 -57 -31 -97t-81 -60.5t-106 -20.5z" />
    <glyph glyph-name="uni0324" unicode="&#x324;" 
d="M13 -426q-70 0 -120 34t-50 98q0 79 61 120.5t138 41.5q69 0 119.5 -33.5t50.5 -98.5q0 -79 -61 -120.5t-138 -41.5zM527 -426q-70 0 -120 34t-50 98q0 79 61 120.5t138 41.5q69 0 119 -33.5t50 -98.5q0 -79 -61 -120.5t-137 -41.5z" />
    <glyph glyph-name="uni0326" unicode="&#x326;" 
d="M11 -276q-46 0 -73 22.5t-27 63.5q0 62 46 88.5t95 26.5q41 0 83 -25.5t42 -88.5q0 -66 -35.5 -121t-90 -93t-113.5 -58l-22 53q31 11 70 31t69.5 52.5t34.5 77.5q-10 -14 -32 -21.5t-47 -7.5z" />
    <glyph glyph-name="uni0327" unicode="&#x327;" 
d="M419 -65q49 0 95 -28.5t46 -96.5q0 -75 -45 -124.5t-117 -74t-151 -24.5q-43 0 -90.5 7.5t-86 20t-56.5 25.5l86 127q18 -12 67 -31t101 -19q58 0 98.5 22t40.5 64q0 23 -16 33.5t-39 10.5q-24 0 -48.5 -8t-38.5 -25l-127 36l94 150h151l-75 -118l-14 1q13 24 45.5 38
t79.5 14z" />
    <glyph glyph-name="uni0328" unicode="&#x328;" 
d="M340 -283l-18 -168q-20 -2 -44 -3.5t-50 -1.5q-102 0 -174 38.5t-72 122.5q0 57 36.5 114.5t87.5 105.5t94 75h170q-22 -17 -54.5 -45.5t-64.5 -62.5t-53 -66.5t-21 -56.5q0 -36 25 -47t63 -11q19 0 39 2t36 4z" />
    <glyph glyph-name="uni032E" unicode="&#x32e;" 
d="M-89 -118h206q0 -52 19.5 -89.5t67.5 -37.5q49 0 78 34t36 93h206q-14 -130 -108 -195.5t-226 -65.5q-133 0 -206 68.5t-73 192.5z" />
    <glyph glyph-name="uni0331" unicode="&#x331;" 
d="M-44 -317l31 145h597l-30 -145h-598z" />
    <glyph glyph-name="uni0335" unicode="&#x335;" 
d="M54 487l34 159h739l-34 -159h-739z" />
    <glyph glyph-name="uni0336" unicode="&#x336;" 
d="M54 487l34 159h1050l-34 -159h-1050z" />
    <glyph glyph-name="uni0337" unicode="&#x337;" 
d="M1157 1040l-1059 -1097l-102 96l1058 1097z" />
    <glyph glyph-name="uni0338" unicode="&#x338;" 
d="M1465 1483l-1315 -1604l-160 105l1314 1603z" />
    <glyph glyph-name="uni1E08" unicode="&#x1e08;" horiz-adv-x="1439" 
d="M1370 548q-21 -98 -77 -199t-147 -185.5t-216 -136.5t-284 -52q-186 0 -305.5 77.5t-177 212t-57.5 305.5q0 199 60 368.5t169.5 295t260.5 195.5t333 70q183 0 297.5 -66.5t168 -170.5t53.5 -220q0 -30 -3 -59t-10 -56h-358q4 16 6.5 41t2.5 43q0 63 -20.5 109t-63.5 72
t-112 26q-105 0 -184 -60t-132.5 -158t-80 -215.5t-26.5 -230.5q0 -143 56.5 -221t160.5 -78q63 0 117 23t96.5 63.5t72 93.5t42.5 113h358zM747 -68q49 0 95 -28t46 -97q0 -75 -45.5 -124.5t-117 -74t-151.5 -24.5q-42 0 -89.5 7.5t-86.5 20.5t-57 25l87 127
q18 -12 67 -30.5t101 -18.5q58 0 98 21.5t40 63.5q0 23 -15.5 34t-39.5 11q-23 0 -48 -8.5t-38 -25.5l-126 36l94 150h149l-76 -118l-10 1q12 24 43.5 38t79.5 14zM759 1561l270 215h274l-308 -215h-236z" />
    <glyph glyph-name="uni1E09" unicode="&#x1e09;" horiz-adv-x="1274" 
d="M658 -81q49 0 95 -28t46 -97q0 -75 -45 -124.5t-117 -74t-151 -24.5q-43 0 -90.5 7.5t-86 20.5t-56.5 25l86 127q18 -12 67 -30.5t101 -18.5q58 0 98.5 21.5t40.5 63.5q0 23 -16 34t-39 11q-24 0 -48.5 -8.5t-38.5 -25.5l-127 36l94 150h151l-75 -118l-14 1
q13 24 45.5 38t79.5 14zM560 -25q-247 0 -376 127t-129 332q0 151 52 271t146 204.5t222.5 129t283.5 44.5q162 0 269.5 -57.5t161.5 -145.5t54 -181q0 -19 -2 -35t-4 -25h-353q1 6 1 11v12q0 34 -15 66t-52 53.5t-105 21.5t-123.5 -28t-94.5 -77.5t-60 -112t-21 -131.5
q0 -93 48 -146t135 -53q70 0 117.5 21.5t77 58t44.5 81.5h354q-13 -80 -61.5 -158t-129.5 -142t-192 -102.5t-248 -38.5zM618 1194l238 281h264l-277 -281h-225z" />
    <glyph glyph-name="uni1E0C" unicode="&#x1e0c;" horiz-adv-x="1368" 
d="M3 0l314 1475h504q175 0 293.5 -74t179 -201t60.5 -286q0 -192 -65.5 -358.5t-180.5 -291t-266.5 -194.5t-324.5 -70h-514zM384 109l-127 173h268q100 0 184.5 51.5t147.5 137.5t98.5 194t35.5 221q0 94 -30.5 163t-89.5 106.5t-145 37.5h-269l195 174zM453 -436
q-77 0 -131 38t-54 107q0 57 31 97t81 60.5t106 20.5q75 0 130 -37.5t55 -107.5q0 -57 -31 -97t-81 -60.5t-106 -20.5z" />
    <glyph glyph-name="uni1E0D" unicode="&#x1e0d;" horiz-adv-x="1342" 
d="M439 -25q-178 0 -283.5 112.5t-105.5 323.5q0 137 46.5 258.5t130 214.5t195.5 146t245 53q109 0 191.5 -49t129 -135t46.5 -199q0 -30 -5 -70t-13 -71l-136 -1q3 13 5.5 32t2.5 31q0 55 -26 92.5t-67.5 57t-89.5 19.5q-65 0 -117.5 -24t-90 -67.5t-57.5 -101.5t-20 -124
q0 -95 49.5 -144.5t127.5 -49.5q56 0 113 27t100 77.5t58 120.5l139 -8q-31 -145 -117 -263t-204.5 -188t-246.5 -70zM761 0l332 1563h358l-333 -1563h-357zM543 -434q-77 0 -131 38t-54 107q0 57 31 97t81 60.5t106 20.5q75 0 130 -37.5t55 -107.5q0 -57 -31 -97t-81 -60.5
t-106 -20.5z" />
    <glyph glyph-name="uni1E0E" unicode="&#x1e0e;" horiz-adv-x="1368" 
d="M3 0l314 1475h504q175 0 293.5 -74t179 -201t60.5 -286q0 -192 -65.5 -358.5t-180.5 -291t-266.5 -194.5t-324.5 -70h-514zM384 109l-127 173h268q100 0 184.5 51.5t147.5 137.5t98.5 194t35.5 221q0 94 -30.5 163t-89.5 106.5t-145 37.5h-269l195 174zM120 -317l31 145
h677l-30 -145h-678z" />
    <glyph glyph-name="uni1E0F" unicode="&#x1e0f;" horiz-adv-x="1342" 
d="M439 -25q-178 0 -283.5 112.5t-105.5 323.5q0 137 46.5 258.5t130 214.5t195.5 146t245 53q109 0 191.5 -49t129 -135t46.5 -199q0 -30 -5 -70t-13 -71l-136 -1q3 13 5.5 32t2.5 31q0 55 -26 92.5t-67.5 57t-89.5 19.5q-65 0 -117.5 -24t-90 -67.5t-57.5 -101.5t-20 -124
q0 -95 49.5 -144.5t127.5 -49.5q56 0 113 27t100 77.5t58 120.5l139 -8q-31 -145 -117 -263t-204.5 -188t-246.5 -70zM761 0l332 1563h358l-333 -1563h-357zM254 -317l31 145h597l-30 -145h-598z" />
    <glyph glyph-name="uni1E14" unicode="&#x1e14;" horiz-adv-x="1159" 
d="M458 1205l196 165l-127 -593l-59 98h537l-57 -270h-537l100 97l-126 -597l-126 165h729l-58 -270h-927l314 1475h927l-58 -270h-728zM486 1609l31 146h658l-31 -146h-658zM1045 1842h-237l-307 215h274z" />
    <glyph glyph-name="uni1E15" unicode="&#x1e15;" horiz-adv-x="1305" 
d="M230 429l46 223h665l-38 -52q6 20 8.5 37.5t2.5 34.5q0 39 -19 74t-61 57t-112 22q-80 0 -141.5 -30t-102.5 -84t-62.5 -125.5t-21.5 -155.5q0 -60 20 -103.5t65.5 -66.5t122.5 -23q56 0 97.5 9t70.5 23.5t46 32t22 34.5h353q-20 -69 -70 -133.5t-129 -116t-186.5 -81.5
t-242.5 -30q-162 0 -276 58.5t-174 162t-60 238.5q0 142 53 261t148 206t221 134.5t270 47.5q160 0 274 -55t175 -155t61 -237q0 -47 -9 -106t-24 -101h-992zM475 1276l31 146h658l-31 -146h-658zM1042 1554h-226l-276 281h264z" />
    <glyph glyph-name="uni1E16" unicode="&#x1e16;" horiz-adv-x="1159" 
d="M458 1205l196 165l-127 -593l-59 98h537l-57 -270h-537l100 97l-126 -597l-126 165h729l-58 -270h-927l314 1475h927l-58 -270h-728zM486 1609l31 146h658l-31 -146h-658zM681 1841l270 215h274l-308 -215h-236z" />
    <glyph glyph-name="uni1E17" unicode="&#x1e17;" horiz-adv-x="1305" 
d="M230 429l46 223h665l-38 -52q6 20 8.5 37.5t2.5 34.5q0 39 -19 74t-61 57t-112 22q-80 0 -141.5 -30t-102.5 -84t-62.5 -125.5t-21.5 -155.5q0 -60 20 -103.5t65.5 -66.5t122.5 -23q56 0 97.5 9t70.5 23.5t46 32t22 34.5h353q-20 -69 -70 -133.5t-129 -116t-186.5 -81.5
t-242.5 -30q-162 0 -276 58.5t-174 162t-60 238.5q0 142 53 261t148 206t221 134.5t270 47.5q160 0 274 -55t175 -155t61 -237q0 -47 -9 -106t-24 -101h-992zM475 1276l31 146h658l-31 -146h-658zM690 1554l238 281h264l-277 -281h-225z" />
    <glyph glyph-name="uni1E1C" unicode="&#x1e1c;" horiz-adv-x="1159" 
d="M458 1205l196 165l-127 -593l-59 98h537l-57 -270h-537l100 97l-126 -597l-126 165h729l-58 -270h-927l314 1475h927l-58 -270h-728zM595 -65q49 0 95 -28.5t46 -96.5q0 -75 -45 -124.5t-117 -74t-151 -24.5q-43 0 -90.5 7.5t-86 20t-56.5 25.5l86 127q18 -12 67 -31
t101 -19q58 0 98.5 22t40.5 64q0 23 -16 33.5t-39 10.5q-24 0 -48.5 -8t-38.5 -25l-126 36l94 150h149l-75 -118l-11 1q13 24 44.5 38t78.5 14zM526 1759h206q0 -36 21.5 -62.5t69.5 -26.5q49 0 77.5 26t32.5 63h206q-10 -101 -103.5 -162t-225.5 -61q-133 0 -208.5 61
t-75.5 162z" />
    <glyph glyph-name="uni1E1D" unicode="&#x1e1d;" horiz-adv-x="1289" 
d="M661 -65q49 0 95 -28.5t46 -96.5q0 -75 -45 -124.5t-117 -74t-151 -24.5q-43 0 -90.5 7.5t-86 20t-56.5 25.5l86 127q18 -12 67 -31t101 -19q58 0 98.5 22t40.5 64q0 23 -16 33.5t-39 10.5q-24 0 -48.5 -8t-38.5 -25l-127 36l94 150h151l-75 -118l-14 1q13 24 45.5 38
t79.5 14zM230 429l46 223h665l-38 -52q6 20 8.5 37.5t2.5 34.5q0 39 -19 74t-61 57t-112 22q-80 0 -141.5 -30t-102.5 -84t-62.5 -125.5t-21.5 -155.5q0 -60 20 -103.5t65.5 -66.5t122.5 -23q56 0 97.5 9t70.5 23.5t46 32t22 34.5h353q-20 -69 -70 -133.5t-129 -116
t-186.5 -81.5t-242.5 -30q-162 0 -276 58.5t-174 162t-60 238.5q0 142 53 261t148 206t221 134.5t270 47.5q160 0 274 -55t175 -155t61 -237q0 -47 -9 -106t-24 -101h-992zM528 1475h206q0 -60 19.5 -99.5t67.5 -39.5q49 0 78 39.5t36 99.5h206q-14 -131 -107.5 -201.5
t-226.5 -70.5q-132 0 -205.5 70.5t-73.5 201.5z" />
    <glyph glyph-name="uni1E20" unicode="&#x1e20;" horiz-adv-x="1459" 
d="M611 -25q-153 0 -267.5 65.5t-178.5 191t-64 305.5q0 198 58.5 372t168.5 306.5t264.5 208t345.5 75.5q140 0 237 -40t157.5 -104.5t88 -140t27.5 -145.5q0 -20 -3 -47t-6 -40h-347q2 9 4.5 26.5t2.5 32.5q0 48 -21.5 88t-65 64.5t-108.5 24.5q-111 0 -194.5 -61.5
t-138.5 -162t-82.5 -218.5t-27.5 -230q0 -109 32.5 -173t85.5 -91t114 -27q82 0 145 32.5t105.5 78t60.5 83.5l10 54h-269l54 252h586l-161 -755h-176v163q-15 -28 -66 -72.5t-142 -80t-229 -35.5zM631 1609l31 146h658l-31 -146h-658z" />
    <glyph glyph-name="uni1E21" unicode="&#x1e21;" horiz-adv-x="1348" 
d="M485 -456q-88 0 -179 17t-167.5 52.5t-123 92t-46.5 136.5q0 25 2.5 45.5t6.5 38.5h357q-2 -7 -3 -14t-1 -16q0 -29 21 -52t61 -36.5t97 -13.5q72 0 127 23t91.5 70t51.5 119l224 1056h357l-224 -1056q-28 -135 -92 -224t-152.5 -141t-193 -74.5t-214.5 -22.5zM474 -25
q-121 0 -216.5 51.5t-149.5 153t-54 250.5q0 136 44.5 254.5t126 208.5t193 140t243.5 50q107 0 195.5 -47t141.5 -133.5t53 -205.5q0 -28 -4.5 -67t-12.5 -67l-136 -7q3 15 5 32t2 31q0 57 -26.5 95t-69.5 57t-91 19q-62 0 -114 -22.5t-90.5 -63.5t-59.5 -97t-21 -124
t23.5 -113.5t65 -69t94.5 -23.5q60 0 116 26t97.5 76.5t57.5 124.5l133 -17q-33 -158 -116 -273t-195 -177t-235 -62zM466 1276l31 146h658l-31 -146h-658z" />
    <glyph glyph-name="uni1E24" unicode="&#x1e24;" horiz-adv-x="1440" 
d="M1525 1475l-314 -1475h-358l162 758l127 -159h-815l195 159l-161 -758h-358l314 1475h358l-164 -766l-127 160h815l-195 -160l163 766h358zM537 -436q-77 0 -131 38t-54 107q0 57 31 97t81 60.5t106 20.5q75 0 130 -37.5t55 -107.5q0 -57 -31 -97t-81 -60.5t-106 -20.5z
" />
    <glyph glyph-name="uni1E25" unicode="&#x1e25;" horiz-adv-x="1311" 
d="M741 0l98 459q7 29 14 67.5t12.5 75t5.5 58.5q0 27 -7.5 50t-24 39.5t-44.5 25.5t-70 9q-70 0 -122 -28t-84.5 -80t-48.5 -124l-70 71q30 139 108 242.5t190 160.5t244 57q95 0 156 -25.5t95 -67t47.5 -91t13.5 -96.5q0 -55 -14.5 -133t-40.5 -197l-102 -473h-356zM-2 0
l332 1563h356l-332 -1563h-356zM477 -434q-77 0 -131 38t-54 107q0 57 31 97t81 60.5t106 20.5q75 0 130 -37.5t55 -107.5q0 -57 -31 -97t-81 -60.5t-106 -20.5z" />
    <glyph glyph-name="uni1E2A" unicode="&#x1e2a;" horiz-adv-x="1440" 
d="M1525 1475l-314 -1475h-358l162 758l127 -159h-815l195 159l-161 -758h-358l314 1475h358l-164 -766l-127 160h815l-195 -160l163 766h358zM277 -118h206q0 -52 19.5 -89.5t67.5 -37.5q49 0 78 34t36 93h206q-14 -130 -108 -195.5t-226 -65.5q-133 0 -206 68.5t-73 192.5
z" />
    <glyph glyph-name="uni1E2B" unicode="&#x1e2b;" horiz-adv-x="1311" 
d="M741 0l98 459q7 29 14 67.5t12.5 75t5.5 58.5q0 27 -7.5 50t-24 39.5t-44.5 25.5t-70 9q-70 0 -122 -28t-84.5 -80t-48.5 -124l-70 71q30 139 108 242.5t190 160.5t244 57q95 0 156 -25.5t95 -67t47.5 -91t13.5 -96.5q0 -55 -14.5 -133t-40.5 -197l-102 -473h-356zM-2 0
l332 1563h356l-332 -1563h-356zM201 -118h206q0 -52 19.5 -89.5t67.5 -37.5q49 0 78 34t36 93h206q-14 -130 -108 -195.5t-226 -65.5q-133 0 -206 68.5t-73 192.5z" />
    <glyph glyph-name="uni1E2E" unicode="&#x1e2e;" horiz-adv-x="584" 
d="M-2 0l314 1475h357l-313 -1475h-358zM319 1546q-70 0 -120 34.5t-50 98.5q0 78 61 120t138 42q69 0 119 -34t50 -99q0 -78 -61 -120t-137 -42zM725 1546q-70 0 -119.5 34.5t-49.5 98.5q0 78 60.5 120t137.5 42q69 0 119.5 -34t50.5 -99q0 -78 -61 -120t-138 -42z
M392 1892l270 215h274l-308 -215h-236z" />
    <glyph glyph-name="uni1E2F" unicode="&#x1e2f;" horiz-adv-x="551" 
d="M-16 0l225 1062h355l-225 -1062h-355zM229 1213q-70 0 -120 34t-50 98q0 79 61 120.5t138 41.5q69 0 119 -33.5t50 -98.5q0 -79 -61 -120.5t-137 -41.5zM635 1213q-70 0 -119.5 34t-49.5 98q0 79 60.5 120.5t137.5 41.5q69 0 119.5 -33.5t50.5 -98.5q0 -79 -61 -120.5
t-138 -41.5zM329 1639l238 281h264l-277 -281h-225z" />
    <glyph glyph-name="uni1E36" unicode="&#x1e36;" horiz-adv-x="1080" 
d="M3 0l314 1475h358l-291 -1369l-124 181h699l-61 -287h-895zM396 -436q-77 0 -131 38t-54 107q0 57 31 97t81 60.5t106 20.5q75 0 130 -37.5t55 -107.5q0 -57 -31 -97t-81 -60.5t-106 -20.5z" />
    <glyph glyph-name="uni1E37" unicode="&#x1e37;" horiz-adv-x="595" 
d="M699 1563l-332 -1563h-354l332 1563h354zM109 -434q-77 0 -131 38t-54 107q0 57 31 97t81 60.5t106 20.5q75 0 130 -37.5t55 -107.5q0 -57 -31 -97t-81 -60.5t-106 -20.5z" />
    <glyph glyph-name="uni1E3A" unicode="&#x1e3a;" horiz-adv-x="1080" 
d="M3 0l314 1475h358l-291 -1369l-124 181h699l-61 -287h-895zM63 -317l31 145h677l-30 -145h-678z" />
    <glyph glyph-name="uni1E3B" unicode="&#x1e3b;" horiz-adv-x="595" 
d="M699 1563l-332 -1563h-354l332 1563h354zM-181 -317l31 145h597l-30 -145h-598z" />
    <glyph glyph-name="uni1E42" unicode="&#x1e42;" horiz-adv-x="1903" 
d="M1367 1475h609l-314 -1475h-338l271 1276l6 -4l-529 -1272h-460l7 1275l7 3l-272 -1278h-340l314 1475h595l-40 -1324h-33zM797 -436q-77 0 -131 38t-54 107q0 57 31 97t81 60.5t106 20.5q75 0 130 -37.5t55 -107.5q0 -57 -31 -97t-81 -60.5t-106 -20.5z" />
    <glyph glyph-name="uni1E43" unicode="&#x1e43;" horiz-adv-x="1900" 
d="M664 0l84 390q23 108 35 175t12 106q0 32 -9 57.5t-32 40.5t-65 15q-43 0 -79 -19t-64 -52.5t-48 -79t-31 -97.5l-63 79q30 141 96 246t163.5 163.5t223.5 58.5q106 0 168 -37t88.5 -100.5t26.5 -142.5q0 -44 -8 -102.5t-25 -141.5t-43 -205l-76 -354h-354zM-2 0
l226 1062h356l-226 -1062h-356zM1326 0l85 390q17 80 27.5 134t15.5 89.5t5 60.5q0 33 -9.5 57.5t-33 38.5t-65.5 14q-43 0 -79 -19t-63.5 -52.5t-46.5 -78.5t-30 -95l-64 79q30 140 95 244t163 162.5t223 58.5q106 0 168.5 -37.5t90 -101t27.5 -143.5q0 -47 -7 -103.5
t-22.5 -136.5t-41.5 -202l-81 -359h-357zM780 -434q-77 0 -131 38t-54 107q0 57 31 97t81 60.5t106 20.5q75 0 130 -37.5t55 -107.5q0 -57 -31 -97t-81 -60.5t-106 -20.5z" />
    <glyph glyph-name="uni1E44" unicode="&#x1e44;" horiz-adv-x="1514" 
d="M351 0h-348l314 1475h581l87 -1359l-25 -14l292 1373h347l-314 -1475h-585l-88 1354l30 14zM1031 1560q-80 0 -140.5 42t-60.5 119q0 78 60.5 119.5t140.5 41.5t140 -41.5t60 -119.5t-60 -119.5t-140 -41.5z" />
    <glyph glyph-name="uni1E45" unicode="&#x1e45;" horiz-adv-x="1313" 
d="M741 0l94 432q18 84 27 136t9 87q0 57 -31.5 93t-113.5 36q-67 0 -119.5 -29.5t-87 -83.5t-50.5 -127l-68 71q22 106 72.5 192.5t122.5 148t159 94.5t182 33q162 0 238 -78.5t76 -210.5q0 -65 -17.5 -158.5t-48.5 -236.5l-88 -399h-356zM-2 0l226 1062h356l-226 -1062
h-356zM843 1204q-76 0 -130.5 38t-54.5 107q0 58 31 97.5t81.5 60t106.5 20.5q75 0 129.5 -37.5t54.5 -107.5q0 -57 -31 -97t-80.5 -60.5t-106.5 -20.5z" />
    <glyph glyph-name="uni1E46" unicode="&#x1e46;" horiz-adv-x="1514" 
d="M351 0h-348l314 1475h581l87 -1359l-25 -14l292 1373h347l-314 -1475h-585l-88 1354l30 14zM599 -436q-77 0 -131 38t-54 107q0 57 31 97t81 60.5t106 20.5q75 0 130 -37.5t55 -107.5q0 -57 -31 -97t-81 -60.5t-106 -20.5z" />
    <glyph glyph-name="uni1E47" unicode="&#x1e47;" horiz-adv-x="1313" 
d="M741 0l94 432q18 84 27 136t9 87q0 57 -31.5 93t-113.5 36q-67 0 -119.5 -29.5t-87 -83.5t-50.5 -127l-68 71q22 106 72.5 192.5t122.5 148t159 94.5t182 33q162 0 238 -78.5t76 -210.5q0 -65 -17.5 -158.5t-48.5 -236.5l-88 -399h-356zM-2 0l226 1062h356l-226 -1062
h-356zM470 -434q-77 0 -131 38t-54 107q0 57 31 97t81 60.5t106 20.5q75 0 130 -37.5t55 -107.5q0 -57 -31 -97t-81 -60.5t-106 -20.5z" />
    <glyph glyph-name="uni1E48" unicode="&#x1e48;" horiz-adv-x="1514" 
d="M351 0h-348l314 1475h581l87 -1359l-25 -14l292 1373h347l-314 -1475h-585l-88 1354l30 14zM266 -317l31 145h677l-30 -145h-678z" />
    <glyph glyph-name="uni1E49" unicode="&#x1e49;" horiz-adv-x="1313" 
d="M741 0l94 432q18 84 27 136t9 87q0 57 -31.5 93t-113.5 36q-67 0 -119.5 -29.5t-87 -83.5t-50.5 -127l-68 71q22 106 72.5 192.5t122.5 148t159 94.5t182 33q162 0 238 -78.5t76 -210.5q0 -65 -17.5 -158.5t-48.5 -236.5l-88 -399h-356zM-2 0l226 1062h356l-226 -1062
h-356zM180 -317l31 145h597l-30 -145h-598z" />
    <glyph glyph-name="uni1E4C" unicode="&#x1e4c;" horiz-adv-x="1386" 
d="M1197 1689q-5 -28 -24 -63t-54.5 -61t-89.5 -26q-42 0 -71.5 17t-51.5 35q-19 15 -41 28t-51 13q-39 0 -55 -22.5t-20 -45.5h-94q5 31 27 66.5t60 61t91 25.5q43 0 70 -16t47 -33t43 -31t49 -14q38 0 52.5 21t19.5 45h93zM849 1781l249 160h147l-259 -160h-137zM586 -20
q-145 0 -253 65t-167.5 189.5t-59.5 301.5q0 186 55.5 358t158 307t245.5 213.5t318 78.5q146 0 254 -64t167 -187t59 -300q0 -186 -55.5 -358.5t-158.5 -308.5t-245.5 -215.5t-317.5 -79.5zM605 134q140 0 249 70.5t184 187.5t114.5 260.5t39.5 288.5q0 134 -41.5 222
t-115.5 131.5t-174 43.5q-139 0 -248 -70t-184 -186t-114 -258.5t-39 -288.5q0 -202 90.5 -301.5t238.5 -99.5z" />
    <glyph glyph-name="uni1E4D" unicode="&#x1e4d;" horiz-adv-x="1309" 
d="M565 -24q-157 0 -272 57t-177.5 159t-62.5 238q0 144 53 263.5t147.5 207t220 135t269.5 47.5q157 0 272 -57t178 -159t63 -236q0 -146 -53.5 -266t-148 -207t-220 -134.5t-269.5 -47.5zM602 250q87 0 152.5 48t101.5 128.5t36 178.5q0 64 -19.5 109t-60.5 69.5
t-105 24.5q-66 0 -119.5 -27.5t-91.5 -76t-58.5 -112t-20.5 -136.5q0 -97 45 -151.5t140 -54.5zM1169 1457q-6 -58 -37 -115t-83.5 -95t-125.5 -38q-56 0 -86.5 22t-49.5 41q-20 22 -38.5 36.5t-45.5 14.5q-32 0 -51 -25.5t-24 -69.5h-176q6 59 37.5 116.5t86 96t129.5 38.5
q51 0 82 -22t50 -43q20 -20 41.5 -34.5t45.5 -14.5q28 0 45.5 24t22.5 68h177zM673 1572l270 215h274l-308 -215h-236z" />
    <glyph glyph-name="uni1E4E" unicode="&#x1e4e;" horiz-adv-x="1535" 
d="M676 -25q-161 0 -290.5 68.5t-204.5 202t-75 328.5q0 194 60 361.5t171 294t265.5 198t343.5 71.5q164 0 292.5 -67.5t203.5 -199t75 -326.5q0 -192 -60.5 -360.5t-172.5 -297t-266 -201t-342 -72.5zM708 256q115 0 199 58t139 153.5t82 211t27 230.5t-32 182.5t-86.5 97
t-123.5 29.5q-115 0 -199 -55.5t-139 -148.5t-81 -207t-26 -232q0 -176 68.5 -247.5t171.5 -71.5zM1348 1794q-5 -58 -36 -115.5t-84 -95.5t-125 -38q-56 0 -87 22t-50 42q-19 21 -37.5 35.5t-46.5 14.5q-32 0 -50.5 -25t-23.5 -70h-177q7 59 38.5 116.5t86 96t128.5 38.5
q51 0 82 -22t51 -42q20 -21 41 -35.5t45 -14.5q29 0 46.5 24t22.5 69h176zM797 1879q-69 0 -119 34.5t-50 98.5q0 78 61 120t138 42q69 0 119 -34t50 -99q0 -78 -61 -120t-138 -42zM1311 1879q-69 0 -119 34.5t-50 98.5q0 78 61 120t138 42q69 0 119 -34t50 -99
q0 -78 -61 -120t-138 -42z" />
    <glyph glyph-name="uni1E4F" unicode="&#x1e4f;" horiz-adv-x="1309" 
d="M565 -24q-157 0 -272 57t-177.5 159t-62.5 238q0 144 53 263.5t147.5 207t220 135t269.5 47.5q157 0 272 -57t178 -159t63 -236q0 -146 -53.5 -266t-148 -207t-220 -134.5t-269.5 -47.5zM602 250q87 0 152.5 48t101.5 128.5t36 178.5q0 64 -19.5 109t-60.5 69.5
t-105 24.5q-66 0 -119.5 -27.5t-91.5 -76t-58.5 -112t-20.5 -136.5q0 -97 45 -151.5t140 -54.5zM1169 1457q-6 -58 -37 -115t-83.5 -95t-125.5 -38q-56 0 -86.5 22t-49.5 41q-20 22 -38.5 36.5t-45.5 14.5q-32 0 -51 -25.5t-24 -69.5h-176q6 59 37.5 116.5t86 96t129.5 38.5
q51 0 82 -22t50 -43q20 -20 41.5 -34.5t45.5 -14.5q28 0 45.5 24t22.5 68h177zM617 1547q-69 0 -119 34.5t-50 98.5q0 78 61 120t138 42q69 0 119 -34t50 -99q0 -78 -61 -120t-138 -42zM1131 1547q-69 0 -119 34.5t-50 98.5q0 78 61 120t138 42q69 0 119 -34t50 -99
q0 -78 -61 -120t-138 -42z" />
    <glyph glyph-name="uni1E50" unicode="&#x1e50;" horiz-adv-x="1535" 
d="M676 -25q-161 0 -290.5 68.5t-204.5 202t-75 328.5q0 194 60 361.5t171 294t265.5 198t343.5 71.5q164 0 292.5 -67.5t203.5 -199t75 -326.5q0 -192 -60.5 -360.5t-172.5 -297t-266 -201t-342 -72.5zM708 256q115 0 199 58t139 153.5t82 211t27 230.5t-32 182.5t-86.5 97
t-123.5 29.5q-115 0 -199 -55.5t-139 -148.5t-81 -207t-26 -232q0 -176 68.5 -247.5t171.5 -71.5zM651 1609l31 146h658l-31 -146h-658zM1211 1842h-237l-307 215h274z" />
    <glyph glyph-name="uni1E51" unicode="&#x1e51;" horiz-adv-x="1309" 
d="M565 -24q-157 0 -272 57t-177.5 159t-62.5 238q0 144 53 263.5t147.5 207t220 135t269.5 47.5q157 0 272 -57t178 -159t63 -236q0 -146 -53.5 -266t-148 -207t-220 -134.5t-269.5 -47.5zM602 250q87 0 152.5 48t101.5 128.5t36 178.5q0 64 -19.5 109t-60.5 69.5
t-105 24.5q-66 0 -119.5 -27.5t-91.5 -76t-58.5 -112t-20.5 -136.5q0 -97 45 -151.5t140 -54.5zM471 1276l31 146h658l-31 -146h-658zM1039 1554h-226l-276 281h264z" />
    <glyph glyph-name="uni1E52" unicode="&#x1e52;" horiz-adv-x="1535" 
d="M676 -25q-161 0 -290.5 68.5t-204.5 202t-75 328.5q0 194 60 361.5t171 294t265.5 198t343.5 71.5q164 0 292.5 -67.5t203.5 -199t75 -326.5q0 -192 -60.5 -360.5t-172.5 -297t-266 -201t-342 -72.5zM708 256q115 0 199 58t139 153.5t82 211t27 230.5t-32 182.5t-86.5 97
t-123.5 29.5q-115 0 -199 -55.5t-139 -148.5t-81 -207t-26 -232q0 -176 68.5 -247.5t171.5 -71.5zM651 1609l31 146h658l-31 -146h-658zM846 1841l270 215h274l-308 -215h-236z" />
    <glyph glyph-name="uni1E53" unicode="&#x1e53;" horiz-adv-x="1309" 
d="M565 -24q-157 0 -272 57t-177.5 159t-62.5 238q0 144 53 263.5t147.5 207t220 135t269.5 47.5q157 0 272 -57t178 -159t63 -236q0 -146 -53.5 -266t-148 -207t-220 -134.5t-269.5 -47.5zM602 250q87 0 152.5 48t101.5 128.5t36 178.5q0 64 -19.5 109t-60.5 69.5
t-105 24.5q-66 0 -119.5 -27.5t-91.5 -76t-58.5 -112t-20.5 -136.5q0 -97 45 -151.5t140 -54.5zM471 1276l31 146h658l-31 -146h-658zM686 1554l238 281h264l-277 -281h-225z" />
    <glyph glyph-name="uni1E5A" unicode="&#x1e5a;" horiz-adv-x="1303" 
d="M3 0l314 1475h623q213 0 306 -86.5t93 -226.5q0 -82 -27 -162t-75 -146.5t-113.5 -109.5t-142.5 -49q52 -3 96 -22.5t70 -60t26 -107.5q0 -32 -7.5 -76t-19 -95t-23.5 -102t-19.5 -96t-7.5 -77q0 -19 2.5 -34.5t7.5 -24.5h-357q-9 19 -9 58q0 30 7 69.5t16.5 83
t19.5 86.5t17 80.5t7 65.5q0 57 -38.5 86.5t-112.5 29.5h-346l182 96l-140 -655h-349zM508 734l-141 95h358q62 0 115.5 28.5t86 79t32.5 117.5q0 65 -37 108.5t-120 43.5h-354l195 161zM481 -436q-77 0 -131 38t-54 107q0 57 31 97t81 60.5t106 20.5q75 0 130 -37.5
t55 -107.5q0 -57 -31 -97t-81 -60.5t-106 -20.5z" />
    <glyph glyph-name="uni1E5B" unicode="&#x1e5b;" horiz-adv-x="958" 
d="M-2 0l226 1062h357l-80 -380l-59 48q30 79 75 144.5t103 112t127.5 71.5t148.5 25q65 0 97 -9t39 -14l-120 -315q-8 5 -36.5 15.5t-75.5 10.5q-79 0 -138.5 -25.5t-101 -68t-67 -95t-37.5 -106.5l-100 -476h-358zM106 -434q-77 0 -131 38t-54 107q0 57 31 97t81 60.5
t106 20.5q75 0 130 -37.5t55 -107.5q0 -57 -31 -97t-81 -60.5t-106 -20.5z" />
    <glyph glyph-name="uni1E5E" unicode="&#x1e5e;" horiz-adv-x="1303" 
d="M3 0l314 1475h623q213 0 306 -86.5t93 -226.5q0 -82 -27 -162t-75 -146.5t-113.5 -109.5t-142.5 -49q52 -3 96 -22.5t70 -60t26 -107.5q0 -32 -7.5 -76t-19 -95t-23.5 -102t-19.5 -96t-7.5 -77q0 -19 2.5 -34.5t7.5 -24.5h-357q-9 19 -9 58q0 30 7 69.5t16.5 83
t19.5 86.5t17 80.5t7 65.5q0 57 -38.5 86.5t-112.5 29.5h-346l182 96l-140 -655h-349zM508 734l-141 95h358q62 0 115.5 28.5t86 79t32.5 117.5q0 65 -37 108.5t-120 43.5h-354l195 161zM148 -317l31 145h677l-30 -145h-678z" />
    <glyph glyph-name="uni1E5F" unicode="&#x1e5f;" horiz-adv-x="958" 
d="M-2 0l226 1062h357l-80 -380l-59 48q30 79 75 144.5t103 112t127.5 71.5t148.5 25q65 0 97 -9t39 -14l-120 -315q-8 5 -36.5 15.5t-75.5 10.5q-79 0 -138.5 -25.5t-101 -68t-67 -95t-37.5 -106.5l-100 -476h-358zM-184 -317l31 145h597l-30 -145h-598z" />
    <glyph glyph-name="uni1E60" unicode="&#x1e60;" horiz-adv-x="1271" 
d="M530 -25q-137 0 -248 42t-175.5 122.5t-64.5 197.5q0 48 6.5 83t15.5 72h357q-8 -31 -12 -56t-4 -46q0 -63 42.5 -99t127.5 -36q66 0 121 16t88 50t33 89q0 66 -78 115.5t-200 94.5q-86 33 -166.5 79.5t-132.5 115.5t-52 170q0 119 50 214t137 162t200.5 102.5
t240.5 35.5q141 0 251 -42.5t172.5 -121t62.5 -187.5q0 -41 -6.5 -80.5t-13.5 -63.5h-357q4 16 8.5 41.5t4.5 49.5q0 59 -41 92t-124 33q-68 0 -120.5 -18.5t-83 -55t-30.5 -94.5q0 -64 74 -108t192 -91q106 -42 189.5 -91.5t131.5 -118t48 -170.5q0 -160 -87 -271.5
t-233 -169t-324 -57.5zM870 1560q-80 0 -140.5 42t-60.5 119q0 78 60.5 119.5t140.5 41.5t140 -41.5t60 -119.5t-60 -119.5t-140 -41.5z" />
    <glyph glyph-name="uni1E61" unicode="&#x1e61;" horiz-adv-x="1134" 
d="M465 -25q-83 0 -164 19t-147 56t-105.5 92.5t-39.5 129.5q0 21 3.5 41.5t6.5 31.5h354q-2 -6 -3.5 -15t-1.5 -16q0 -40 38.5 -57.5t106.5 -17.5q37 0 77 8.5t67.5 29t27.5 56.5q0 33 -50 50t-154 34q-87 15 -171.5 44.5t-139.5 88t-55 156.5q0 97 46 168t124.5 117.5
t177.5 69t204 22.5q113 0 213 -36.5t163 -103.5t63 -159q0 -20 -3 -39t-6 -30h-350q3 6 4 13t1 16q0 28 -18.5 44.5t-46.5 25t-59 8.5t-69 -7.5t-65 -25.5t-27 -50q0 -35 47 -53.5t132 -32.5q55 -9 122 -25t127.5 -47t99.5 -80.5t39 -126.5q0 -103 -48.5 -178t-129.5 -124
t-182.5 -73t-208.5 -24zM723 1204q-76 0 -130.5 38t-54.5 107q0 58 31 97.5t81.5 60t106.5 20.5q75 0 129.5 -37.5t54.5 -107.5q0 -57 -31 -97t-80.5 -60.5t-106.5 -20.5z" />
    <glyph glyph-name="uni1E62" unicode="&#x1e62;" horiz-adv-x="1271" 
d="M530 -25q-137 0 -248 42t-175.5 122.5t-64.5 197.5q0 48 6.5 83t15.5 72h357q-8 -31 -12 -56t-4 -46q0 -63 42.5 -99t127.5 -36q66 0 121 16t88 50t33 89q0 66 -78 115.5t-200 94.5q-86 33 -166.5 79.5t-132.5 115.5t-52 170q0 119 50 214t137 162t200.5 102.5
t240.5 35.5q141 0 251 -42.5t172.5 -121t62.5 -187.5q0 -41 -6.5 -80.5t-13.5 -63.5h-357q4 16 8.5 41.5t4.5 49.5q0 59 -41 92t-124 33q-68 0 -120.5 -18.5t-83 -55t-30.5 -94.5q0 -64 74 -108t192 -91q106 -42 189.5 -91.5t131.5 -118t48 -170.5q0 -160 -87 -271.5
t-233 -169t-324 -57.5zM462 -436q-77 0 -131 38t-54 107q0 57 31 97t81 60.5t106 20.5q75 0 130 -37.5t55 -107.5q0 -57 -31 -97t-81 -60.5t-106 -20.5z" />
    <glyph glyph-name="uni1E63" unicode="&#x1e63;" horiz-adv-x="1134" 
d="M465 -25q-83 0 -164 19t-147 56t-105.5 92.5t-39.5 129.5q0 21 3.5 41.5t6.5 31.5h354q-2 -6 -3.5 -15t-1.5 -16q0 -40 38.5 -57.5t106.5 -17.5q37 0 77 8.5t67.5 29t27.5 56.5q0 33 -50 50t-154 34q-87 15 -171.5 44.5t-139.5 88t-55 156.5q0 97 46 168t124.5 117.5
t177.5 69t204 22.5q113 0 213 -36.5t163 -103.5t63 -159q0 -20 -3 -39t-6 -30h-350q3 6 4 13t1 16q0 28 -18.5 44.5t-46.5 25t-59 8.5t-69 -7.5t-65 -25.5t-27 -50q0 -35 47 -53.5t132 -32.5q55 -9 122 -25t127.5 -47t99.5 -80.5t39 -126.5q0 -103 -48.5 -178t-129.5 -124
t-182.5 -73t-208.5 -24zM376 -434q-77 0 -131 38t-54 107q0 57 31 97t81 60.5t106 20.5q75 0 130 -37.5t55 -107.5q0 -57 -31 -97t-81 -60.5t-106 -20.5z" />
    </font>
</defs>
</svg>
