<?xml version="1.0" standalone="no"?>
<!DOCTYPE svg PUBLIC "-//W3C//DTD SVG 1.1//EN" "http://www.w3.org/Graphics/SVG/1.1/DTD/svg11.dtd" >
<svg xmlns="http://www.w3.org/2000/svg" xmlns:xlink="http://www.w3.org/1999/xlink" version="1.1">
<metadata>
Created by FontForge 20170731 at Thu Jul 22 19:25:11 2021
 By Aleksey,,,
Copyright 2020 The Epilogue Project Authors (https://github.com/Etcetera-Type-Co/Epilogue)
</metadata>
<defs>
<font id="Epilogue-Medium" horiz-adv-x="0" >
  <font-face 
    font-family="Epilogue Medium"
    font-weight="500"
    font-stretch="normal"
    units-per-em="2000"
    panose-1="0 0 0 0 0 0 0 0 0 0"
    ascent="1600"
    descent="-400"
    x-height="1062"
    cap-height="1475"
    bbox="-470 -467 2360 2166"
    underline-thickness="50"
    underline-position="-175"
    unicode-range="U+000D-FB02"
  />
<missing-glyph horiz-adv-x="669" 
d="M80 73v1344h509v-1344h-509zM230 176l-30 26l109 98l-109 98l30 26l109 -98l109 98l30 -26l-109 -98l109 -98l-30 -26l-109 98zM230 612l-30 26l109 98l-109 98l30 26l109 -98l109 98l30 -26l-109 -98l109 -98l-30 -26l-109 98zM119 107h431v1276h-431v-1276zM230 1048
l-30 26l110 98l-110 98l30 25l109 -97l109 97l30 -25l-110 -98l110 -98l-30 -26l-109 98z" />
    <glyph glyph-name="fi" unicode="fi" horiz-adv-x="1337" 
d="M273 0v882h-229v180h229v116q0 82 20.5 147t57.5 112.5t87.5 78.5t111 46.5t126.5 15.5q54 0 84.5 -6.5t40.5 -11.5v-181q-12 4 -41 9t-62 5q-64 0 -105 -19t-64 -52.5t-31.5 -77t-8.5 -92.5v-90h302v-180h-302v-882h-216zM977 0v1062h214v-1062h-214zM1085 1282
q-56 0 -96.5 30.5t-40.5 84.5q0 53 40.5 83.5t96.5 30.5q55 0 95.5 -30.5t40.5 -83.5q0 -54 -40.5 -84.5t-95.5 -30.5z" />
    <glyph glyph-name="fl" unicode="fl" horiz-adv-x="1351" 
d="M273 0v882h-229v180h229v116q0 82 20.5 147t57.5 112.5t87.5 78.5t111 46.5t126.5 15.5q54 0 84.5 -6.5t40.5 -11.5v-181q-12 4 -41 9t-62 5q-64 0 -105 -19t-64 -52.5t-31.5 -77t-8.5 -92.5v-90h302v-180h-302v-882h-216zM1203 1563v-1563h-214v1563h214z" />
    <glyph glyph-name="f_f" unicode="ff" horiz-adv-x="1665" 
d="M273 0v882h-229v180h229v116q0 82 20.5 147t57.5 112.5t87.5 78.5t111 46.5t126.5 15.5q54 0 84.5 -6.5t40.5 -11.5v-181q-12 4 -41 9t-62 5q-64 0 -105 -19t-64 -52.5t-31.5 -77t-8.5 -92.5v-90h302v-180h-302v-882h-216zM1105 0v882h-229v180h229v116q0 82 20.5 147
t57.5 112.5t87.5 78.5t111 46.5t126.5 15.5q54 0 84.5 -6.5t40.5 -11.5v-181q-12 4 -41 9t-62 5q-64 0 -105 -19t-64 -52.5t-31.5 -77t-8.5 -92.5v-90h302v-180h-302v-882h-216z" />
    <glyph glyph-name="f_f_i" unicode="ffi" horiz-adv-x="2170" 
d="M273 0v882h-229v180h229v116q0 82 20.5 147t57.5 112.5t87.5 78.5t111 46.5t126.5 15.5q54 0 84.5 -6.5t40.5 -11.5v-181q-12 4 -41 9t-62 5q-64 0 -105 -19t-64 -52.5t-31.5 -77t-8.5 -92.5v-90h302v-180h-302v-882h-216zM1105 0v882h-229v180h229v116q0 82 20.5 147
t57.5 112.5t87.5 78.5t111 46.5t126.5 15.5q54 0 84.5 -6.5t40.5 -11.5v-181q-12 4 -41 9t-62 5q-64 0 -105 -19t-64 -52.5t-31.5 -77t-8.5 -92.5v-90h302v-180h-302v-882h-216zM1810 0v1062h214v-1062h-214zM1918 1282q-56 0 -96.5 30.5t-40.5 84.5q0 53 40.5 83.5
t96.5 30.5q55 0 95.5 -30.5t40.5 -83.5q0 -54 -40.5 -84.5t-95.5 -30.5z" />
    <glyph glyph-name="f_f_l" unicode="ffl" horiz-adv-x="2183" 
d="M273 0v882h-229v180h229v116q0 82 20.5 147t57.5 112.5t87.5 78.5t111 46.5t126.5 15.5q54 0 84.5 -6.5t40.5 -11.5v-181q-12 4 -41 9t-62 5q-64 0 -105 -19t-64 -52.5t-31.5 -77t-8.5 -92.5v-90h302v-180h-302v-882h-216zM1105 0v882h-229v180h229v116q0 82 20.5 147
t57.5 112.5t87.5 78.5t111 46.5t126.5 15.5q54 0 84.5 -6.5t40.5 -11.5v-181q-12 4 -41 9t-62 5q-64 0 -105 -19t-64 -52.5t-31.5 -77t-8.5 -92.5v-90h302v-180h-302v-882h-216zM2036 1563v-1563h-214v1563h214z" />
    <glyph glyph-name=".notdef" horiz-adv-x="669" 
d="M80 73v1344h509v-1344h-509zM230 176l-30 26l109 98l-109 98l30 26l109 -98l109 98l30 -26l-109 -98l109 -98l-30 -26l-109 98zM230 612l-30 26l109 98l-109 98l30 26l109 -98l109 98l30 -26l-109 -98l109 -98l-30 -26l-109 98zM119 107h431v1276h-431v-1276zM230 1048
l-30 26l110 98l-110 98l30 25l109 -97l109 97l30 -25l-110 -98l110 -98l-30 -26l-109 98z" />
    <glyph glyph-name=".null" 
 />
    <glyph glyph-name="nonmarkingreturn" horiz-adv-x="666" 
 />
    <glyph glyph-name="CR" unicode="&#xd;" horiz-adv-x="904" 
 />
    <glyph glyph-name="space" unicode=" " horiz-adv-x="500" 
 />
    <glyph glyph-name="exclam" unicode="!" horiz-adv-x="587" 
d="M360 1473l-40 -1104h-136l-41 1104h217zM253 -27q-56 0 -94.5 38t-38.5 94q0 55 38.5 93.5t94.5 38.5q54 0 93 -38.5t39 -93.5q0 -56 -39 -94t-93 -38z" />
    <glyph glyph-name="quotedbl" unicode="&#x22;" horiz-adv-x="792" 
d="M290 1475l-23 -441h-123l-22 441h168zM613 1475l-23 -441h-123l-22 441h168z" />
    <glyph glyph-name="numbersign" unicode="#" horiz-adv-x="1687" 
d="M629 1475h190l-366 -1475h-190zM1171 1475h191l-366 -1475h-190zM180 1029h1391l-32 -137h-1392zM93 582h1391l-32 -138h-1392z" />
    <glyph glyph-name="dollar" unicode="$" horiz-adv-x="1117" 
d="M492 1475h124v-1475h-124v1475zM556 198q-95 0 -178.5 21t-147 61.5t-99.5 100.5t-36 139v14.5v12.5h216v-9v-11q0 -73 67.5 -110.5t183.5 -37.5q68 0 124.5 14t90 43t33.5 74q0 73 -71 104t-217 55q-79 14 -152.5 36t-132 58.5t-93 91t-34.5 131.5q0 100 60 170t162 106
t225 36q119 0 220.5 -38.5t163.5 -111t62 -177.5v-9v-9h-215v7v7q0 52 -33 85t-85.5 49.5t-111.5 16.5q-54 0 -108.5 -11.5t-90.5 -39t-36 -74.5q0 -48 35.5 -76.5t99 -47t148.5 -33.5q78 -14 152.5 -35.5t133.5 -56.5t94.5 -90t35.5 -135q0 -83 -37.5 -143t-103 -99.5
t-149.5 -59t-176 -19.5z" />
    <glyph glyph-name="percent" unicode="%" horiz-adv-x="1225" 
d="M1197 1383l-1088 -1335l-81 68l1089 1336zM325 966q-70 0 -131.5 29.5t-100 85t-38.5 133.5q0 79 38.5 134.5t100 85t131.5 29.5q71 0 133.5 -29.5t102 -85t39.5 -134.5q0 -78 -39.5 -133.5t-102 -85t-133.5 -29.5zM325 1057q41 0 80.5 17t65 52t25.5 88t-25.5 88
t-65 52.5t-80.5 17.5t-79.5 -17.5t-63 -52.5t-24.5 -88t24.5 -88t63 -52t79.5 -17zM886 18q-71 0 -132.5 29.5t-99.5 85.5t-38 133q0 79 38 134.5t99.5 85.5t132.5 30q70 0 133 -30t102.5 -85.5t39.5 -134.5q0 -77 -39.5 -133t-102.5 -85.5t-133 -29.5zM886 110
q41 0 80.5 17t65 52t25.5 87q0 54 -25.5 89t-65 52t-80.5 17q-42 0 -80 -17t-62.5 -52t-24.5 -89q0 -52 24.5 -87t62.5 -52t80 -17z" />
    <glyph glyph-name="ampersand" unicode="&#x26;" horiz-adv-x="1436" 
d="M587 -20q-145 0 -259.5 45t-181 131.5t-66.5 208.5q0 106 55 188.5t157.5 157t244.5 153.5q134 75 198 152t64 164q0 56 -24.5 92.5t-64 54.5t-85.5 18q-44 0 -86.5 -17.5t-69 -54t-26.5 -92.5q0 -73 44.5 -149t120.5 -173l518 -645q37 -46 66 -59t49 -13q19 0 37.5 4
t25.5 8v-153q-4 -2 -29 -8.5t-64 -6.5q-45 0 -95.5 22.5t-94.5 75.5l-550 679q-50 63 -98.5 131t-80 142t-31.5 155q0 87 48.5 154.5t130.5 105.5t183 38q103 0 181.5 -37.5t123.5 -104.5t45 -156q0 -96 -42 -174.5t-119.5 -146t-186.5 -129.5q-165 -95 -255 -176t-90 -190
q0 -70 41.5 -124t111.5 -84.5t155 -30.5q140 0 232.5 40t155.5 106q70 75 105 173.5t35 221.5h179q0 -115 -26 -209t-70 -169.5t-102 -133.5q-80 -81 -206.5 -133t-303.5 -52z" />
    <glyph glyph-name="quotesingle" unicode="'" horiz-adv-x="324" 
d="M250 1475l-26 -441h-126l-24 441h176z" />
    <glyph glyph-name="parenleft" unicode="(" horiz-adv-x="802" 
d="M618 -467q-26 20 -77 69.5t-111 133t-115 204t-90.5 281.5t-35.5 365q0 206 35.5 367.5t90.5 282.5t115 204.5t111 132.5t77 67l115 -121q-32 -25 -90.5 -91t-119 -178.5t-102.5 -277t-42 -386.5q0 -221 42 -384.5t102.5 -276t119 -178.5t90.5 -93z" />
    <glyph glyph-name="parenright" unicode=")" horiz-adv-x="812" 
d="M199 -467l-115 121q33 27 91 93t118.5 178.5t102.5 276t42 384.5q0 222 -42 386.5t-102.5 277t-118.5 178.5t-91 91l115 121q26 -18 77 -67t111 -132.5t115 -204.5t90.5 -282.5t35.5 -367.5q0 -204 -35.5 -365t-90.5 -281.5t-115 -204t-111 -133t-77 -69.5z" />
    <glyph glyph-name="asterisk" unicode="*" horiz-adv-x="922" 
d="M530 1197l152 -175l-93 -62l-149 198l-150 -198l-93 62l152 175l-222 75l50 92l210 -81l-6 203h117l-6 -203l210 81l50 -92z" />
    <glyph glyph-name="plus" unicode="+" horiz-adv-x="1225" 
d="M992 456h-312v-250h-140v250h-312v139h312v251h140v-251h312v-139z" />
    <glyph glyph-name="comma" unicode="," horiz-adv-x="565" 
d="M176 -288l-32 57q40 18 81 57t69.5 84.5t28.5 84.5q0 12 -3 23.5t-9 20.5h55q-13 -32 -44.5 -49t-68.5 -17q-53 0 -92.5 33t-39.5 95q0 60 42 97t109 37q72 0 114 -45.5t42 -123.5q0 -77 -38.5 -149t-96.5 -125.5t-117 -79.5z" />
    <glyph glyph-name="hyphen" unicode="-" horiz-adv-x="940" 
d="M84 498v136h707v-136h-707z" />
    <glyph glyph-name="period" unicode="." horiz-adv-x="537" 
d="M269 -27q-56 0 -94.5 38t-38.5 94q0 55 38.5 93.5t94.5 38.5q54 0 93 -38.5t39 -93.5q0 -56 -39 -94t-93 -38z" />
    <glyph glyph-name="slash" unicode="/" horiz-adv-x="885" 
d="M823 1563l-605 -1718h-180l607 1718h178z" />
    <glyph glyph-name="zero" unicode="0" horiz-adv-x="1156" 
d="M570 -21q-127 0 -217 59t-146 163.5t-82 241.5t-26 291t26 291.5t82 243t146 165.5t217 60q128 0 218 -60t145.5 -165.5t81.5 -243t26 -291.5t-26 -291t-81.5 -241.5t-145.5 -163.5t-218 -59zM570 159q85 0 140.5 63t83.5 191t28 321q0 194 -28 321.5t-83.5 191.5
t-140.5 64q-84 0 -140 -64t-84 -191.5t-28 -321.5t28 -321.5t84 -190.5t140 -63z" />
    <glyph glyph-name="one" unicode="1" horiz-adv-x="852" 
d="M618 1479v-1479h-216v1259q-9 -11 -51 -28t-102 -32.5t-126 -22.5v184q65 10 125 30t102.5 44t56.5 45h211z" />
    <glyph glyph-name="two" unicode="2" horiz-adv-x="1169" 
d="M114 0v183q8 37 49 90.5t100 114.5t124.5 122t122.5 112q70 64 137 132.5t111.5 145t44.5 161.5q0 120 -56.5 185.5t-171.5 65.5q-92 0 -147 -39t-79 -109.5t-24 -164.5h-218q0 149 52.5 260.5t157.5 173t261 61.5q147 0 245.5 -56t148 -154t49.5 -225
q0 -84 -31.5 -160.5t-82 -143.5t-108.5 -124t-110 -103q-85 -74 -155.5 -139.5t-116 -118t-55.5 -88.5h663v-182h-911z" />
    <glyph glyph-name="three" unicode="3" horiz-adv-x="1178" 
d="M777 777q88 -3 144.5 -49.5t84 -123t27.5 -169.5q0 -127 -48 -230.5t-147.5 -164.5t-254.5 -61q-129 0 -218 34.5t-142.5 98t-78 151.5t-24.5 194v2v2h218v-2v-2q0 -117 29.5 -182t85 -90.5t133.5 -25.5q105 0 166.5 68.5t61.5 212.5q0 52 -10.5 97t-37.5 78.5t-74.5 53
t-121.5 19.5h-54v165h54q72 0 119.5 19.5t74.5 53t38.5 75t11.5 85.5q0 120 -61 173t-164 53q-113 0 -182 -60t-69 -218h-218q0 99 27.5 183t84 146.5t144.5 96.5t209 34q154 0 253 -54t147 -144t48 -199q0 -83 -27.5 -154.5t-84 -116.5t-144.5 -49z" />
    <glyph glyph-name="four" unicode="4" horiz-adv-x="1144" 
d="M657 0v316h-603v163l526 1000h289v-985h192v-178h-192v-316h-212zM231 388l-65 106h491v840l50 -12z" />
    <glyph glyph-name="five" unicode="5" horiz-adv-x="1165" 
d="M990 1298h-579l-52 -453q3 12 20.5 31t51.5 38.5t85 33t119 13.5q188 0 285.5 -130t97.5 -342q0 -165 -52.5 -279t-153.5 -172.5t-246 -58.5q-118 0 -203.5 35t-139 97t-79.5 142t-26 171v1.5v1.5h215v-1.5v-1.5q2 -136 62 -200.5t174 -64.5q73 0 124.5 35.5t79 108
t27.5 182.5q0 147 -53 224.5t-159 77.5q-67 0 -117.5 -26t-83 -64t-46.5 -72l-208 53l99 797h758v-177z" />
    <glyph glyph-name="six" unicode="6" horiz-adv-x="1184" 
d="M585 -21q-155 0 -256 83.5t-149.5 234.5t-48.5 353q0 224 34 384t96.5 262t148.5 150t190 48q119 0 194.5 -40.5t118 -103t59 -128t16.5 -114.5v-2v-3h-203v3v2q0 33 -7.5 68.5t-28 67t-56.5 51t-94 19.5q-77 0 -135 -65.5t-90.5 -215t-32.5 -405.5l-74 -1q1 92 50 164
t132.5 113.5t188.5 41.5q129 0 219.5 -61.5t136.5 -167t46 -239.5q0 -145 -51.5 -258t-152.5 -177t-251 -64zM587 159q78 0 130 36t78.5 104.5t26.5 164.5q0 91 -25.5 160.5t-74.5 108.5t-120 39q-73 0 -129.5 -34.5t-88.5 -98t-32 -151.5q0 -92 28.5 -167t82 -118.5
t124.5 -43.5z" />
    <glyph glyph-name="seven" unicode="7" horiz-adv-x="1037" 
d="M741 1296v-2h-655v181h895v-170q-111 -81 -187 -194.5t-124.5 -248.5t-74.5 -281.5t-36 -294.5t-10 -286h-217q0 148 10.5 299t37 296t73 275.5t117.5 239.5t171 186z" />
    <glyph glyph-name="eight" unicode="8" horiz-adv-x="1246" 
d="M620 -21q-154 0 -262.5 56t-166 154.5t-57.5 225.5q0 114 40.5 190t101 118.5t121.5 56.5q-52 12 -104.5 51t-87.5 109.5t-35 175.5q0 115 59.5 200t161 131.5t229.5 46.5t230 -46.5t161 -131.5t59 -200q0 -104 -35 -175t-87.5 -110t-104.5 -51q61 -14 121.5 -56.5
t101 -118.5t40.5 -190q0 -127 -57.5 -225.5t-166 -154.5t-262.5 -56zM620 159q73 0 132.5 28.5t95 86.5t35.5 145q0 81 -33 142t-92 95t-138 34t-138.5 -34t-92 -95t-32.5 -142q0 -87 35 -145t95 -86.5t133 -28.5zM620 865q107 0 173.5 63t66.5 167q0 78 -33.5 125.5
t-88 69.5t-118.5 22t-118.5 -22t-88 -69.5t-33.5 -125.5q0 -104 66 -167t174 -63z" />
    <glyph glyph-name="nine" unicode="9" horiz-adv-x="1163" 
d="M564 -21q-118 0 -194 40.5t-118 103t-58.5 128t-16.5 114.5v2.5v2.5h202v-2.5v-2.5q0 -33 8 -68.5t28.5 -67t57 -51t92.5 -19.5q78 0 136 65.5t90.5 215.5t32.5 405l74 1q-2 -91 -50.5 -163.5t-131.5 -114t-189 -41.5q-130 0 -219.5 61.5t-136.5 167t-47 239.5
q0 146 52 258.5t153.5 176.5t249.5 64q156 0 256.5 -83.5t149.5 -234t49 -353.5q0 -224 -34 -384t-96.5 -262t-149 -150t-190.5 -48zM563 701q73 0 129.5 34.5t88.5 98t32 151.5q0 93 -28.5 167.5t-81.5 118t-125 43.5q-78 0 -130 -36t-78.5 -104t-26.5 -165
q0 -91 25.5 -160.5t75 -108.5t119.5 -39z" />
    <glyph glyph-name="colon" unicode=":" horiz-adv-x="538" 
d="M269 -27q-56 0 -94.5 38t-38.5 94q0 55 38.5 93.5t94.5 38.5q54 0 93 -38.5t39 -93.5q0 -56 -39 -94t-93 -38zM270 763q-56 0 -94.5 38t-38.5 94q0 55 38.5 93.5t94.5 38.5q54 0 93 -38.5t39 -93.5q0 -56 -39 -94t-93 -38z" />
    <glyph glyph-name="semicolon" unicode=";" horiz-adv-x="580" 
d="M192 -292l-32 57q40 18 81 57t69.5 84.5t28.5 84.5q0 12 -3 23.5t-9 20.5h55q-13 -32 -44.5 -49t-68.5 -17q-53 0 -92.5 33t-39.5 95q0 60 42 97t109 37q72 0 114 -45.5t42 -123.5q0 -77 -38.5 -149t-96.5 -125.5t-117 -79.5zM272 763q-56 0 -94.5 38t-38.5 94
q0 55 38.5 93.5t94.5 38.5q54 0 93 -38.5t39 -93.5q0 -56 -39 -94t-93 -38z" />
    <glyph glyph-name="less" unicode="&#x3c;" horiz-adv-x="1225" 
d="M932 44l-642 410v154l642 411v-186l-551 -324v44l551 -323v-186z" />
    <glyph glyph-name="equal" unicode="=" horiz-adv-x="1225" 
d="M975 633h-729v137h729v-137zM975 288h-729v138h729v-138z" />
    <glyph glyph-name="greater" unicode="&#x3e;" horiz-adv-x="1225" 
d="M291 1019l642 -411v-154l-642 -410v186l551 323v-44l-551 324v186z" />
    <glyph glyph-name="question" unicode="?" horiz-adv-x="1116" 
d="M438 364q0 91 28.5 162.5t71.5 130t89 111.5q40 46 75 92.5t56.5 99.5t21.5 118q0 121 -60 182t-178 61q-122 0 -187 -71.5t-65 -215.5h-193q0 154 58 254t158 149t227 49q126 0 223.5 -47.5t153 -141t55.5 -231.5q0 -91 -29 -160t-74.5 -124t-93.5 -105
q-65 -69 -116.5 -140.5t-51.5 -172.5h-169zM534 -27q-55 0 -94 38t-39 94q0 55 39 93.5t94 38.5t93.5 -38.5t38.5 -93.5q0 -56 -38.5 -94t-93.5 -38z" />
    <glyph glyph-name="at" unicode="@" horiz-adv-x="1951" 
d="M1552 117q-73 -40 -182 -70t-238 -45.5t-263 -15.5q-241 0 -417.5 79.5t-272 229.5t-95.5 363q0 179 70.5 330.5t199 264t303 175t382.5 62.5q181 0 321.5 -48.5t236 -133.5t145 -196t49.5 -236q0 -119 -38.5 -223.5t-111.5 -182.5t-177.5 -122.5t-238.5 -44.5
q-39 0 -80 8.5t-68.5 32t-28.5 68.5v3v3q-24 -49 -84 -78.5t-144 -29.5q-105 0 -173.5 43t-102 120.5t-33.5 179.5q0 145 58.5 256.5t160 176t231.5 64.5q86 0 140.5 -33.5t54.5 -75.5l23 87h149l-148 -605q-1 -7 -2.5 -15.5t-1.5 -11.5q0 -44 28 -61t68 -17
q103 0 172.5 40.5t110.5 107.5t59 148.5t18 163.5q0 150 -72.5 262t-208.5 174t-324 62q-177 0 -321 -53.5t-247.5 -151t-159 -229t-55.5 -286.5q0 -183 79.5 -307t221.5 -187t331 -63q111 0 219.5 14t204.5 40t167 62zM845 423q79 0 123.5 32t59.5 92q1 3 9 36t20 80.5
t24 96.5t21 86.5t11 48.5q5 21 5 37q0 44 -30.5 76.5t-107.5 32.5q-90 0 -160.5 -54t-110 -144t-39.5 -196q0 -107 45.5 -165.5t129.5 -58.5z" />
    <glyph glyph-name="A" unicode="A" horiz-adv-x="1266" 
d="M70 0l394 1478h341l390 -1478h-223l-339 1341h2l-341 -1341h-224zM298 375v180h672v-180h-672z" />
    <glyph glyph-name="B" unicode="B" horiz-adv-x="1237" 
d="M656 1475q143 0 239.5 -39.5t146.5 -118t50 -195.5q0 -112 -45.5 -188.5t-116 -116.5t-144.5 -45q80 -2 158.5 -37.5t129.5 -114t51 -209.5q0 -126 -50.5 -218.5t-155.5 -142.5t-270 -50h-514v1475h521zM344 787l-73 68h300q146 0 225 60t79 172q0 76 -33 121.5t-94.5 66
t-145.5 20.5h-356l98 114v-622zM607 180q140 0 218.5 62.5t78.5 180.5q0 71 -25.5 119.5t-69.5 77.5t-102 42.5t-124 13.5h-312l73 68v-678l-98 114h361z" />
    <glyph glyph-name="C" unicode="C" horiz-adv-x="1354" 
d="M1259 522q0 -92 -34 -187t-103 -176t-174 -130.5t-247 -49.5q-193 0 -328.5 97.5t-206.5 268.5t-71 392q0 222 71 392.5t206.5 267.5t328.5 97q161 0 274.5 -63t181 -162t89.5 -206q13 -58 13 -110h-218q0 28 -5 61q-11 80 -53.5 147t-113 107t-168.5 40
q-114 0 -201 -63.5t-135.5 -190.5t-48.5 -317q0 -189 48.5 -316.5t135.5 -192t201 -64.5q83 0 146 30t106 81t65.5 115t22.5 132h218z" />
    <glyph glyph-name="D" unicode="D" horiz-adv-x="1281" 
d="M135 0v1475h405q147 0 266 -52t203.5 -148t130.5 -232t46 -304q0 -169 -46 -305t-130.5 -233t-203.5 -149t-266 -52h-405zM353 66l-98 114h259q130 0 232.5 68t160.5 193.5t58 297.5q0 173 -58 297.5t-160.5 191.5t-232.5 67h-259l98 114v-1343z" />
    <glyph glyph-name="E" unicode="E" horiz-adv-x="1106" 
d="M255 1295l98 114v-648l-52 69h559v-180h-559l52 69v-653l-98 114h716v-180h-836v1475h836v-180h-716z" />
    <glyph glyph-name="F" unicode="F" horiz-adv-x="1066" 
d="M253 1295l98 114v-656l-68 62h599v-180h-599l68 66v-701h-216v1475h836v-180h-718z" />
    <glyph glyph-name="G" unicode="G" horiz-adv-x="1390" 
d="M702 -21q-169 0 -306.5 89t-219 258t-81.5 409q0 241 83.5 410t226 259t319.5 90q145 0 245.5 -49t164 -126t92.5 -162.5t29 -160.5v-6v-6h-211v6v6q0 56 -19.5 111.5t-59 100.5t-100 72t-141.5 27q-110 0 -203 -60.5t-150 -187t-57 -324.5q0 -151 31.5 -259.5t86.5 -177
t127 -101.5t154 -33q110 0 181.5 37.5t111 93.5t50.5 111v135h-338v170h533v-711h-139l-16 164q-8 -17 -33 -47t-71.5 -62t-118 -54t-171.5 -22z" />
    <glyph glyph-name="H" unicode="H" horiz-adv-x="1322" 
d="M1187 1475v-1475h-217v733l98 -88h-814l98 87v-732h-217v1475h217v-740l-98 91h814l-98 -91v740h217z" />
    <glyph glyph-name="I" unicode="I" horiz-adv-x="493" 
d="M139 0v1475h214v-1475h-214z" />
    <glyph glyph-name="J" unicode="J" horiz-adv-x="1111" 
d="M525 -21q-161 0 -260.5 61.5t-145 171.5t-45.5 257v31v30h214v-19v-22q0 -92 22.5 -165.5t74.5 -116.5t140 -43t139 43t73 120.5t22 179.5v968h217v-997q0 -106 -23 -197t-75.5 -158.5t-138.5 -105.5t-214 -38z" />
    <glyph glyph-name="K" unicode="K" horiz-adv-x="1222" 
d="M564 737l5 167l590 -904h-242l-477 736l105 -14l-214 -283l21 139v-578h-217v1475h217v-796l-42 35l581 761h234z" />
    <glyph glyph-name="L" unicode="L" horiz-adv-x="1006" 
d="M135 0v1475h217v-1409l-98 118h669v-184h-788z" />
    <glyph glyph-name="M" unicode="M" horiz-adv-x="1697" 
d="M1175 1475h371v-1475h-206v1323l6 -2l-347 -1321h-298l-350 1322l6 3v-1325h-207v1475h371l331 -1335h-10z" />
    <glyph glyph-name="N" unicode="N" horiz-adv-x="1384" 
d="M346 0h-211v1475h346l582 -1372l-26 -10v1382h212v-1475h-351l-580 1370l28 9v-1379z" />
    <glyph glyph-name="O" unicode="O" horiz-adv-x="1419" 
d="M709 -21q-132 0 -243.5 50.5t-195 148t-129.5 239t-46 322.5q0 182 46 322.5t129.5 237t195.5 146t243 49.5q132 0 244.5 -49.5t195.5 -146t129 -237t46 -322.5q0 -181 -46 -322.5t-129.5 -239t-195.5 -148t-244 -50.5zM709 164q113 0 202.5 62t140.5 189.5t51 323.5
q0 197 -51.5 323t-140.5 186t-202 60q-111 0 -200.5 -60t-141.5 -186t-52 -323t52 -324.5t141.5 -189t200.5 -61.5z" />
    <glyph glyph-name="P" unicode="P" horiz-adv-x="1179" 
d="M352 0h-217v1475h444q170 0 285.5 -64t174 -172.5t58.5 -242.5t-59.5 -246.5t-175.5 -180.5t-283 -68h-227v-501zM352 575l-98 106h300q106 0 178.5 38.5t109.5 109.5t37 167t-36 163t-108 101.5t-181 34.5h-300l98 114v-834z" />
    <glyph glyph-name="Q" unicode="Q" horiz-adv-x="1419" 
d="M614 6h187q0 -57 35 -95.5t84.5 -62.5t94 -36t62.5 -16l-64 -147q-17 3 -62.5 12.5t-102.5 32t-110.5 62t-88.5 101t-35 149.5zM709 -21q-132 0 -243.5 50.5t-195 148t-129.5 239t-46 322.5q0 182 46 322.5t129.5 237t195.5 146t243 49.5q132 0 244.5 -49.5t195.5 -146
t129 -237t46 -322.5q0 -181 -46 -322.5t-129.5 -239t-195.5 -148t-244 -50.5zM709 164q113 0 202.5 62t140.5 189.5t51 323.5q0 197 -51.5 323t-140.5 186t-202 60q-111 0 -200.5 -60t-141.5 -186t-52 -323t52 -324.5t141.5 -189t200.5 -61.5z" />
    <glyph glyph-name="R" unicode="R" horiz-adv-x="1218" 
d="M135 0v1475h540q213 0 322 -99t109 -297q0 -116 -44.5 -198t-107 -126.5t-117.5 -50.5q56 -4 109 -30t88 -80t35 -146v-158v-159q0 -45 7.5 -81.5t18.5 -49.5h-219q-9 15 -16 50t-7 81v145v146q0 95 -56.5 142.5t-164.5 47.5h-344l59 77v-689h-212zM347 707l-59 85h346
q70 0 126 33.5t89.5 94t33.5 141.5q0 122 -67 178t-192 56h-341l64 83v-671z" />
    <glyph glyph-name="S" unicode="S" horiz-adv-x="1198" 
d="M599 -21q-156 0 -268.5 49t-174 148.5t-61.5 246.5v33v32h217v-29.5v-31.5q0 -136 73 -199.5t213 -63.5q143 0 218 48.5t75 156.5q0 77 -46.5 129.5t-128 90.5t-187.5 71q-119 37 -215 94.5t-152.5 144t-56.5 211.5q0 123 62 209t172 130.5t252 44.5q151 0 263.5 -46.5
t175 -140t62.5 -235.5v-34.5v-35.5h-218v31v30q0 130 -70.5 188t-208.5 58q-134 0 -206.5 -47t-72.5 -152q0 -78 46.5 -130t128 -89t185.5 -72q132 -44 227.5 -99t147.5 -137t52 -207q0 -126 -62 -215t-175 -135.5t-267 -46.5z" />
    <glyph glyph-name="T" unicode="T" horiz-adv-x="1122" 
d="M1048 1295h-447l68 114v-1409h-217v1409l75 -114h-453v180h974v-180z" />
    <glyph glyph-name="U" unicode="U" horiz-adv-x="1314" 
d="M1179 540q0 -284 -139 -422.5t-384 -138.5q-244 0 -382.5 138.5t-138.5 422.5v89.5v99.5v746h217v-770v-89v-75q0 -200 76 -288.5t228 -88.5q153 0 229.5 88.5t76.5 288.5v934h217v-935z" />
    <glyph glyph-name="V" unicode="V" horiz-adv-x="1236" 
d="M459 -6l-389 1481h239l316 -1328h-12l312 1328h240l-385 -1481h-321z" />
    <glyph glyph-name="W" unicode="W" horiz-adv-x="1779" 
d="M308 0l-228 1475h224l185 -1404l-33 1l294 1403h279l293 -1403l-33 -1l185 1404h225l-230 -1475h-334l-257 1307h24l-259 -1307h-335z" />
    <glyph glyph-name="X" unicode="X" horiz-adv-x="1233" 
d="M539 818l-2 -177l-472 834h243l367 -687h-117l364 687h243l-468 -834l-1 177l484 -818h-244l-382 671h125l-383 -671h-243z" />
    <glyph glyph-name="Y" unicode="Y" horiz-adv-x="1192" 
d="M1121 1475l-418 -964v-511h-217v511l-416 964h230l340 -841h-89l339 841h231z" />
    <glyph glyph-name="Z" unicode="Z" horiz-adv-x="1125" 
d="M342 180h674v-180h-917v159l685 1137l2 -1h-642v180h882v-156l-684 -1136v-3z" />
    <glyph glyph-name="bracketleft" unicode="[" horiz-adv-x="832" 
d="M670 1638v-158h-301v-1759h301v-158h-496v2075h496z" />
    <glyph glyph-name="backslash" unicode="\" horiz-adv-x="909" 
d="M38 1563h180l605 -1718h-178z" />
    <glyph glyph-name="bracketright" unicode="]" horiz-adv-x="832" 
d="M149 1638h494v-2074h-494v158h299v1758h-299v158z" />
    <glyph glyph-name="asciicircum" unicode="^" horiz-adv-x="1225" 
d="M121 891l410 642h154l411 -642h-185l-325 551h44l-322 -551h-187z" />
    <glyph glyph-name="underscore" unicode="_" horiz-adv-x="1357" 
d="M40 -256v145h1256v-145h-1256z" />
    <glyph glyph-name="grave" unicode="`" horiz-adv-x="684" 
d="M556 1222h-161l-263 253h184z" />
    <glyph glyph-name="a" unicode="a" horiz-adv-x="1231" 
d="M510 -21q-120 0 -210.5 38t-140.5 109t-50 171q0 107 56.5 177t156 108.5t226.5 50.5q189 19 266.5 37t77.5 59v0.5v1.5q0 81 -69 123t-197 42q-135 0 -208.5 -47.5t-73.5 -150.5h-213q0 122 63.5 207t175.5 129.5t257 44.5q133 0 242.5 -40.5t174.5 -120.5t65 -199
v-41.5v-41.5v-424q0 -37 3 -71.5t11 -61.5q9 -31 21.5 -51t20.5 -28h-216q-6 6 -17.5 25.5t-20.5 45.5q-9 25 -13.5 57.5t-4.5 70.5l40 -28q-30 -58 -90.5 -101t-145 -67t-187.5 -24zM555 159q93 0 169.5 29.5t122.5 90t46 152.5v176l51 -67q-64 -25 -156.5 -40.5
t-190.5 -25.5q-135 -12 -203 -46.5t-68 -114.5q0 -77 56.5 -115.5t172.5 -38.5z" />
    <glyph glyph-name="b" unicode="b" horiz-adv-x="1283" 
d="M701 -21q-124 0 -230 62.5t-171.5 171.5t-65.5 247v6.5v5.5l126 3v-4.5v-5.5q0 -82 42.5 -147.5t110.5 -103.5t146 -38q128 0 215.5 87.5t87.5 269.5q0 183 -87 269.5t-216 86.5q-78 0 -146 -37.5t-110.5 -102t-42.5 -147.5l-126 5q0 139 65.5 245.5t171.5 166.5t230 60
q129 0 239 -63.5t177.5 -185.5t67.5 -297q0 -179 -66 -303t-176 -187.5t-242 -63.5zM142 0v1563h218v-1563h-218z" />
    <glyph glyph-name="c" unicode="c" horiz-adv-x="1262" 
d="M657 -21q-160 0 -286.5 67.5t-199 192.5t-72.5 294t72.5 291.5t199 188.5t286.5 66q121 0 215 -36.5t159 -96.5t99 -132t34 -144v-3v-4h-215q0 5 -1 11.5t-2 12.5q-8 59 -46 105t-100 73t-145 27q-91 0 -167.5 -39.5t-122.5 -119.5t-46 -200t45.5 -201.5t122 -123.5
t168.5 -42q99 0 162 30.5t95 82t37 111.5h215q0 -72 -33 -145.5t-97 -133.5t-158.5 -96t-218.5 -36z" />
    <glyph glyph-name="d" unicode="d" horiz-adv-x="1277" 
d="M582 -21q-131 0 -241 63.5t-176 187.5t-66 303q0 175 67 297t177 185.5t239 63.5q124 0 230.5 -60t171.5 -166.5t65 -245.5v-7.5v-6.5l-126 -4v6.5v6.5q0 83 -42 147.5t-110.5 102t-145.5 37.5q-129 0 -216 -86.5t-87 -269.5q0 -182 87.5 -269.5t215.5 -87.5
q80 0 148 38.5t109 105.5t41 153l126 -5q0 -138 -62.5 -249t-168 -175.5t-236.5 -64.5zM923 0v1563h218v-1563h-218z" />
    <glyph glyph-name="e" unicode="e" horiz-adv-x="1296" 
d="M219 455v169h782l-30 -50v12.5v11.5q0 81 -35 149.5t-104.5 110t-173.5 41.5t-182.5 -44.5t-122 -126t-43.5 -195.5q0 -116 42 -199.5t121 -128.5t189 -45q77 0 133.5 15.5t93 41.5t55.5 56.5t22 60.5h216q-6 -65 -42.5 -128.5t-103 -115t-162 -82t-219.5 -30.5
q-166 0 -291 70t-195 194.5t-70 285.5q0 164 71 288t197 193.5t289 69.5q166 0 287.5 -70t187.5 -193t66 -283q0 -19 -1 -44t-3 -34h-974z" />
    <glyph glyph-name="f" unicode="f" horiz-adv-x="832" 
d="M273 0v882h-229v180h229v116q0 82 20.5 147t57.5 112.5t87.5 78.5t111 46.5t126.5 15.5q54 0 84.5 -6.5t40.5 -11.5v-181q-12 4 -41 9t-62 5q-64 0 -105 -19t-64 -52.5t-31.5 -77t-8.5 -92.5v-90h302v-180h-302v-882h-216z" />
    <glyph glyph-name="g" unicode="g" horiz-adv-x="1232" 
d="M839 85q90 -8 158 -33.5t106.5 -75t38.5 -130.5q0 -91 -61.5 -158.5t-183.5 -105t-303 -37.5q-259 0 -395 75t-136 204q0 39 9 69t22 50l202 -30q-7 -10 -14 -29.5t-7 -47.5q0 -71 87 -101t241 -30q113 0 187.5 15.5t111.5 44.5t37 68q0 59 -51 74t-123 21l-403 33
q-105 9 -171.5 63t-66.5 136q0 51 26 95t60.5 74t59.5 37l142 -68q-23 -3 -55.5 -30.5t-32.5 -64.5q0 -34 28.5 -56t111.5 -29zM972 1062h197l-81 -415q-22 -116 -80.5 -209.5t-158 -147.5t-247.5 -54q-154 0 -265 53t-170.5 147.5t-59.5 215.5q0 123 61.5 220t170 152
t248.5 55q118 0 209.5 -40t145.5 -102t59 -129l-62 -7zM601 413q87 0 150 28.5t97 83t34 131.5q0 76 -34 130.5t-97 84t-149 29.5q-83 0 -146.5 -30.5t-99.5 -85.5t-36 -131t34 -129.5t97 -82t150 -28.5z" />
    <glyph glyph-name="h" unicode="h" horiz-adv-x="1248" 
d="M899 0v389v63v75.5v64.5q0 143 -58.5 217t-191.5 74q-89 0 -154 -35t-100.5 -96t-35.5 -139l-102 42q0 121 58.5 216.5t161 151.5t234.5 56q192 0 298.5 -114.5t106.5 -318.5v-122.5v-153.5v-370h-217zM142 0v1563h217v-1563h-217z" />
    <glyph glyph-name="i" unicode="i" horiz-adv-x="505" 
d="M145 0v1062h214v-1062h-214zM253 1282q-56 0 -96.5 30.5t-40.5 84.5q0 53 40.5 83.5t96.5 30.5q55 0 95.5 -30.5t40.5 -83.5q0 -54 -40.5 -84.5t-95.5 -30.5z" />
    <glyph glyph-name="j" unicode="j" horiz-adv-x="521" 
d="M-26 -450q-28 0 -53 2t-41 5v163q16 -4 41.5 -7t52.5 -3q63 0 99.5 18.5t54 48t23 65.5t5.5 70v1150h217v-1157q0 -66 -14 -129t-54.5 -114t-119.5 -81.5t-211 -30.5zM268 1282q-55 0 -96 30.5t-41 84.5q0 53 41 83.5t96 30.5q56 0 96.5 -30.5t40.5 -83.5
q0 -54 -40.5 -84.5t-96.5 -30.5z" />
    <glyph glyph-name="k" unicode="k" horiz-adv-x="1067" 
d="M142 0v1563h206v-937l-53 25l474 411h273l-514 -455l52 97l462 -704h-231l-372 587l49 -15l-167 -148l27 99v-523h-206z" />
    <glyph glyph-name="l" unicode="l" horiz-adv-x="519" 
d="M371 1563v-1563h-214v1563h214z" />
    <glyph glyph-name="m" unicode="m" horiz-adv-x="1802" 
d="M799 0v450v105.5v75.5q0 39 -5.5 83t-24 82.5t-57.5 62.5t-107 24t-115 -27t-76 -71.5t-42 -99t-13 -109.5l-92 50q0 125 49.5 227.5t140 164t213.5 61.5q125 0 200.5 -51.5t109.5 -140t34 -200.5v-107v-153v-427h-215zM142 0v1062h217v-1062h-217zM1453 0v449v110.5
v74.5q0 41 -5 84.5t-24 80.5t-58.5 60.5t-109.5 23.5q-69 0 -115.5 -26.5t-74.5 -70t-40 -95.5t-12 -103l-92 48q0 120 48.5 221t138 161.5t212.5 60.5q120 0 197 -48t114 -133t37 -197v-108v-151v-442h-216z" />
    <glyph glyph-name="n" unicode="n" horiz-adv-x="1247" 
d="M898 0v490v73v56q0 78 -24 137.5t-79 93t-147 33.5q-81 0 -146.5 -40t-104 -108.5t-38.5 -155.5l-93 46q0 129 61 231.5t163.5 162.5t224.5 60q126 0 215.5 -48.5t137 -138t47.5 -213.5v-102v-108v-469h-217zM142 0v1062h217v-1062h-217z" />
    <glyph glyph-name="o" unicode="o" horiz-adv-x="1310" 
d="M655 -20q-164 0 -289.5 71t-196 195.5t-70.5 285.5q0 160 70.5 283.5t196 193t289.5 69.5t289.5 -69.5t196 -193t70.5 -283.5q0 -161 -70.5 -285.5t-196 -195.5t-289.5 -71zM655 166q100 0 176 45t119 127.5t43 193.5q0 110 -43 191t-119 125t-176 44q-99 0 -175.5 -44
t-119.5 -125t-43 -191q0 -111 43 -193.5t119.5 -127.5t175.5 -45z" />
    <glyph glyph-name="p" unicode="p" horiz-adv-x="1283" 
d="M142 -437v1499h217v-1499h-217zM701 -21q-124 0 -230 62.5t-171.5 171.5t-65.5 247v6.5v5.5l126 3v-4.5v-5.5q0 -82 42.5 -147.5t110.5 -103.5t146 -38q128 0 215.5 87.5t87.5 269.5q0 183 -87 269.5t-216 86.5q-78 0 -146 -37.5t-110.5 -102t-42.5 -147.5l-126 5
q0 139 65.5 245.5t171.5 166.5t230 60q129 0 239 -63.5t177.5 -185.5t67.5 -297q0 -179 -66 -303t-176 -187.5t-242 -63.5z" />
    <glyph glyph-name="q" unicode="q" horiz-adv-x="1276" 
d="M582 -21q-131 0 -241 63.5t-176 187.5t-66 303q0 175 67 297t177 185.5t239 63.5q124 0 230.5 -60t171.5 -166.5t65 -245.5v-7.5v-6.5l-126 -4v6.5v6.5q0 83 -42 147.5t-110.5 102t-145.5 37.5q-129 0 -216 -86.5t-87 -269.5q0 -182 87.5 -269.5t215.5 -87.5
q80 0 148 38.5t109 105.5t41 153l126 -5q0 -138 -62.5 -249t-168 -175.5t-236.5 -64.5zM923 -437v1499h217v-1499h-217z" />
    <glyph glyph-name="r" unicode="r" horiz-adv-x="843" 
d="M142 0v1062h217v-339l-58 26q7 65 33 124t69.5 105.5t107.5 73.5t148 27q64 0 103.5 -10t48.5 -16l-46 -204q-10 7 -40.5 18t-84.5 11q-82 0 -136 -29t-86 -77t-45.5 -104.5t-13.5 -113.5v-554h-217z" />
    <glyph glyph-name="s" unicode="s" horiz-adv-x="1124" 
d="M560 -21q-95 0 -179 21t-147.5 61.5t-99 100.5t-35.5 139v14.5v12.5h216v-9v-11q0 -73 67.5 -110.5t183.5 -37.5q68 0 124.5 14t90 43t33.5 74q0 73 -71.5 104t-216.5 55q-79 14 -152.5 36t-132 58.5t-93 91t-34.5 131.5q0 100 60 170t162 106t225 36q119 0 220.5 -38.5
t163.5 -111t62 -177.5v-9v-9h-215v7v7q0 52 -33 85t-85.5 49.5t-111.5 16.5q-54 0 -108.5 -11.5t-90.5 -39t-36 -74.5q0 -48 35 -76.5t99 -47t149 -33.5q78 -14 152 -35.5t133.5 -56.5t95 -90t35.5 -135q0 -83 -38 -143t-103.5 -99.5t-149 -59t-175.5 -19.5z" />
    <glyph glyph-name="t" unicode="t" horiz-adv-x="906" 
d="M596 -18q-53 0 -105.5 11t-96 40.5t-69.5 84.5t-26 144v44v47v529h-255v180h134q43 0 67.5 3.5t36 17t14.5 43.5t3 82v205h217v-351h325v-180h-325v-471v-40v-37q0 -80 19.5 -126t89.5 -46q30 0 57 5t41 11v-177q-18 -7 -51 -13t-76 -6z" />
    <glyph glyph-name="u" unicode="u" horiz-adv-x="1222" 
d="M529 -19q-113 0 -188 38.5t-119 101t-62 137t-18 145.5v77.5v81.5v500h218v-469v-70.5v-64.5q0 -77 20 -141.5t70.5 -104t141.5 -39.5q85 0 148 50.5t98 128t35 155.5l95 -51q0 -92 -30.5 -177t-87.5 -152.5t-138.5 -106.5t-182.5 -39zM873 0v1062h217v-1062h-217z" />
    <glyph glyph-name="v" unicode="v" horiz-adv-x="1082" 
d="M1033 1062l-344 -1062h-288l-353 1062h224l290 -971h-34l281 971h224z" />
    <glyph glyph-name="w" unicode="w" horiz-adv-x="1570" 
d="M998 0l-272 1062h176l261 -983h-37l170 983h225l-224 -1062h-299zM273 0l-225 1062h225l172 -983h-38l259 983h176l-268 -1062h-301z" />
    <glyph glyph-name="x" unicode="x" horiz-adv-x="1118" 
d="M484 572l-2 -101l-423 591h237l335 -475l-130 2l327 473h233l-408 -560l2 79l412 -581h-237l-337 471l145 21l-362 -492h-232z" />
    <glyph glyph-name="y" unicode="y" horiz-adv-x="1069" 
d="M193 -452q-43 0 -78.5 4.5t-43.5 8.5v177q13 -6 43.5 -10t63.5 -4q59 0 101.5 24t72 66.5t47.5 96.5l27 80l-366 1071h226l273 -900h-28l266 900h223l-381 -1140q-35 -107 -86 -191.5t-136 -133.5t-224 -49z" />
    <glyph glyph-name="z" unicode="z" horiz-adv-x="989" 
d="M307 185h612v-185h-849v177l603 707l3 -7h-583v185h816v-177l-599 -705z" />
    <glyph glyph-name="braceleft" unicode="{" horiz-adv-x="828" 
d="M719 1481q-94 0 -147.5 -55t-53.5 -164v-424q0 -84 -28.5 -136t-77.5 -78.5t-109 -35.5v10q60 -9 109 -36t77.5 -79t28.5 -136v-119.5v-136.5v-105.5v-92.5q0 -109 53.5 -154.5t147.5 -45.5v-160q-114 0 -206 27.5t-145 92.5t-53 178v101v115v133.5v115.5q0 72 -14.5 116
t-49.5 70t-99 41v138q64 16 99 42t49.5 70.5t14.5 115.5v436q0 113 53 182.5t145 101.5t206 32v-160z" />
    <glyph glyph-name="bar" unicode="|" horiz-adv-x="599" 
d="M182 -280v1834h171v-1834h-171z" />
    <glyph glyph-name="braceright" unicode="}" horiz-adv-x="828" 
d="M112 1481v160q115 0 206.5 -32t145.5 -101.5t54 -182.5v-106.5v-107.5v-111v-111q0 -71 14 -115.5t49.5 -70.5t97.5 -42v-138q-62 -15 -97.5 -41t-49.5 -70t-14 -116v-465q0 -113 -54 -178t-145.5 -92.5t-206.5 -27.5v160q95 0 148.5 45.5t53.5 154.5v454q0 84 28.5 136
t77.5 79t109 36v-10q-60 9 -109 35.5t-77.5 78.5t-28.5 136v114.5v112.5v99v98q0 109 -53.5 164t-148.5 55z" />
    <glyph glyph-name="asciitilde" unicode="~" horiz-adv-x="1225" 
d="M910 724q-1 -37 -19 -79.5t-56 -73t-100 -30.5q-47 0 -81 19t-59 39q-22 17 -45.5 31t-54.5 14q-38 0 -53.5 -24t-17.5 -54h-119q2 39 22.5 82t61 73t101.5 30q47 0 80 -18.5t56 -36.5q23 -19 47.5 -34t51.5 -15q38 0 51.5 23.5t14.5 53.5h119z" />
    <glyph glyph-name="uni00A0" unicode="&#xa0;" horiz-adv-x="500" 
 />
    <glyph glyph-name="exclamdown" unicode="&#xa1;" horiz-adv-x="587" 
d="M197 -419l40 1104h136l41 -1104h-217zM304 1081q56 0 94.5 -38t38.5 -94q0 -55 -38.5 -93.5t-94.5 -38.5q-54 0 -93 38.5t-39 93.5q0 56 39 94t93 38z" />
    <glyph glyph-name="cent" unicode="&#xa2;" horiz-adv-x="1262" 
d="M594 1475h104v-1475h-104v1475zM657 191q-160 0 -286.5 67.5t-199 192.5t-72.5 294t72.5 291.5t199 188.5t286.5 66q121 0 215 -36.5t159 -96.5t99 -132t34 -144v-3v-4h-215q0 5 -1 11.5t-2 12.5q-8 59 -46 105t-100 73t-145 27q-91 0 -167.5 -39.5t-122.5 -119.5
t-46 -200t45.5 -201.5t122 -123.5t168.5 -42q99 0 162 30.5t95 82t37 111.5h215q0 -72 -33 -145.5t-97 -133.5t-158.5 -96t-218.5 -36z" />
    <glyph glyph-name="sterling" unicode="&#xa3;" horiz-adv-x="1155" 
d="M59 583v136h707v-136h-707zM888 1158q-18 42 -52.5 82t-89 66.5t-134.5 26.5q-88 0 -148.5 -34t-91 -89.5t-30.5 -122.5q0 -79 22 -141t51 -127.5t51 -151.5t22 -212q0 -85 -26 -156t-65.5 -126.5t-82.5 -95.5t-79 -63.5t-54 -30.5l-86 127q18 8 52 35t71 70.5
t62.5 103.5t25.5 134q0 95 -24 172.5t-55.5 149.5t-55.5 149t-24 172q0 111 56 200.5t156.5 142t234.5 52.5q100 0 172.5 -23t122.5 -60t82.5 -79t50.5 -81zM1054 22q-19 -10 -80.5 -29t-144.5 -19q-75 0 -135.5 19t-118.5 37.5t-128 18.5q-61 0 -117 -13.5t-95.5 -29.5
t-53.5 -23l10 34q12 5 32.5 26t49 49.5t65 55.5t79.5 45t92 18q73 0 119.5 -17.5t90.5 -35t106 -17.5q56 0 98.5 15t55.5 23z" />
    <glyph glyph-name="currency" unicode="&#xa4;" horiz-adv-x="1331" 
d="M1224 1299l99 -100l-232 -232l-99 99zM1224 97l-232 231l99 100l232 -231zM163 1299l232 -233l-100 -99l-232 232zM163 97l-100 100l232 231l100 -100zM696 151q-164 0 -289.5 71t-196.5 195.5t-71 285.5q0 160 71 283.5t196.5 193t289.5 69.5t289 -69.5t196 -193
t71 -283.5q0 -161 -71 -285.5t-196 -195.5t-289 -71zM696 337q100 0 176 45t119 127.5t43 193.5q0 110 -43 191t-119 125t-176 44t-176.5 -44t-119 -125t-42.5 -191q0 -111 42.5 -193.5t119 -127.5t176.5 -45z" />
    <glyph glyph-name="yen" unicode="&#xa5;" horiz-adv-x="1192" 
d="M180 505v135h837v-135h-837zM181 239v135h837v-135h-837zM1121 1475l-418 -964v-511h-217v511l-416 964h230l340 -841h-89l339 841h231z" />
    <glyph glyph-name="brokenbar" unicode="&#xa6;" horiz-adv-x="599" 
d="M182 -258v765h171v-765h-171zM182 791v763h171v-763h-171z" />
    <glyph glyph-name="section" unicode="&#xa7;" horiz-adv-x="1296" 
d="M852 201l-136 51q49 18 103 51.5t91.5 85.5t37.5 125q0 68 -45.5 119t-122 94t-167.5 83q-104 47 -200.5 99.5t-158 119t-61.5 155.5q0 95 51.5 162.5t144 103.5t215.5 36t214.5 -35t142.5 -104.5t51 -174.5v-13v-13h-185v13v13q0 63 -21.5 102.5t-56 60.5t-74.5 29
t-75 8q-98 0 -160.5 -44t-62.5 -133q0 -60 47.5 -107t121.5 -84.5t154 -71.5q78 -33 150.5 -69t130 -81.5t91 -106.5t33.5 -144q0 -63 -23.5 -117t-62 -96t-83 -71.5t-84.5 -45.5zM623 -304q-123 0 -214.5 35t-142.5 105t-51 175v13v13h185v-13v-13q0 -63 22 -103t56.5 -61
t74 -29t74.5 -8q98 0 160.5 44.5t62.5 132.5q0 61 -47 107.5t-121 84t-155 72.5q-78 34 -150.5 69.5t-130 81t-91 106t-33.5 143.5q0 64 23.5 117.5t62.5 96t83 72t84 44.5l136 -51q-49 -17 -103 -51t-91.5 -85.5t-37.5 -125.5q0 -67 45.5 -119t122 -94.5t167.5 -82.5
q105 -45 201 -98t157.5 -119.5t61.5 -156.5q0 -95 -51.5 -162.5t-143.5 -103.5t-216 -36z" />
    <glyph glyph-name="dieresis" unicode="&#xa8;" horiz-adv-x="787" 
d="M184 1279q-51 0 -89 28t-38 78t38 78t89 28t88.5 -28t37.5 -78t-37.5 -78t-88.5 -28zM604 1279q-51 0 -88.5 28t-37.5 78t37.5 78t88.5 28t89 -28t38 -78t-38 -78t-89 -28z" />
    <glyph glyph-name="copyright" unicode="&#xa9;" horiz-adv-x="1733" 
d="M822 28q-205 0 -368.5 87t-258 247.5t-94.5 378.5t94.5 377t258 246t368.5 87q204 0 366.5 -87t257 -246t94.5 -377t-94.5 -378.5t-257 -247.5t-366.5 -87zM822 109q179 0 322.5 77.5t228 219.5t84.5 335q0 192 -84.5 333.5t-228 219t-322.5 77.5t-323.5 -77.5t-229 -219
t-84.5 -333.5q0 -193 84.5 -335t229 -219.5t323.5 -77.5zM824 262q-120 0 -220 53.5t-160 161t-60 266.5q0 150 54 256.5t152.5 163.5t233.5 57q109 0 186.5 -36t126 -91t71 -114t22.5 -106v-7.5v-8.5h-160v5v5q0 27 -12 65t-39.5 75t-75 61.5t-119.5 24.5
q-135 0 -206.5 -89.5t-71.5 -258.5q0 -116 35 -195.5t97.5 -120t145.5 -40.5q75 0 130 32.5t85.5 86.5t30.5 117h160q0 -109 -53.5 -191t-145.5 -127t-207 -45z" />
    <glyph glyph-name="ordfeminine" unicode="&#xaa;" horiz-adv-x="670" 
d="M570 1018h-95q-6 15 -11 40.5t-5 53.5v201v11.5v12.5q0 35 -27.5 53.5t-89.5 18.5q-65 0 -101 -21t-36 -66h-92q0 79 64 121.5t165 42.5q93 0 152.5 -37t59.5 -118v-8v-9v-186q0 -39 5 -67.5t11 -42.5zM287 1011q-84 0 -135.5 35.5t-51.5 96.5q0 46 26.5 73.5t73 42
t105.5 22.5q93 12 123.5 23.5t30.5 30.5l54 -46q-4 -18 -57.5 -40t-134.5 -34q-64 -9 -94 -22t-30 -46q0 -32 32 -45t82 -13q53 0 101.5 30t48.5 86l54 -33q0 -48 -32.5 -84.5t-85 -56.5t-110.5 -20z" />
    <glyph glyph-name="guillemotleft" unicode="&#xab;" horiz-adv-x="820" 
d="M484 885l-327 -320l327 -314h-131l-323 314l323 320h131zM791 885l-326 -320l324 -314h-130l-323 314l324 320h131z" />
    <glyph glyph-name="logicalnot" unicode="&#xac;" horiz-adv-x="1225" 
d="M831 325v359l98 -99h-689v135h727v-395h-136z" />
    <glyph glyph-name="uni00AD" unicode="&#xad;" horiz-adv-x="733" 
d="M84 498v136h501v-136h-501z" />
    <glyph glyph-name="registered" unicode="&#xae;" horiz-adv-x="1218" 
d="M598 496q-145 0 -262 63t-186 174.5t-69 255.5t69 255t186 174.5t262 63.5q144 0 260.5 -63.5t185.5 -174.5t69 -255t-69 -255.5t-185.5 -174.5t-260.5 -63zM598 565q130 0 228.5 53t153.5 148t55 223q0 127 -55 222.5t-153.5 148t-228.5 52.5t-229 -52.5t-155 -148
t-56 -222.5q0 -128 56 -223t155 -148t229 -53zM405 698v593h206q97 0 147 -38t50 -121q0 -65 -33.5 -98.5t-86.5 -38.5q51 -4 75 -31t24 -73v-61.5v-62.5q0 -33 4 -49t8 -20h-87q-1 3 -5 20t-4 49v49.5v48.5q0 45 -19.5 63.5t-49 23t-61.5 4.5h-82v-258h-86zM491 1027h94
q73 0 107 29t34 74q0 51 -30 72t-86 21h-119v-196z" />
    <glyph glyph-name="macron" unicode="&#xaf;" horiz-adv-x="800" 
d="M122 1308v94h553v-94h-553z" />
    <glyph glyph-name="degree" unicode="&#xb0;" horiz-adv-x="662" 
d="M313 1218q45 0 76 31t31 76q0 44 -31 75t-76 31q-43 0 -74.5 -31t-31.5 -75q0 -45 31 -76t75 -31zM313 1120q-56 0 -102.5 27.5t-74.5 74.5t-28 103t28 102.5t74.5 74.5t102.5 28q57 0 103.5 -28t74 -74.5t27.5 -102.5t-27.5 -103t-74 -74.5t-103.5 -27.5z" />
    <glyph glyph-name="plusminus" unicode="&#xb1;" horiz-adv-x="1225" 
d="M235 173v137h747v-137h-747zM992 646h-312v-251h-140v251h-312v138h312v252h140v-252h312v-138z" />
    <glyph glyph-name="uni00B2" unicode="&#xb2;" horiz-adv-x="934" 
d="M96 590v148q7 30 53.5 70t113 83t131.5 80q58 34 112.5 72.5t90 81.5t35.5 90q0 63 -43 99.5t-130 36.5q-106 0 -148 -50t-42 -126h-179q0 144 93.5 228.5t278.5 84.5q116 0 193.5 -35t116.5 -96t39 -139q0 -73 -43 -129t-105.5 -98.5t-122.5 -77.5q-50 -31 -98.5 -65
t-80.5 -66.5t-36 -59.5h488v-132h-717z" />
    <glyph glyph-name="uni00B3" unicode="&#xb3;" horiz-adv-x="942" 
d="M632 1056q106 -3 147 -62t41 -143q0 -74 -37.5 -137t-116 -101t-200.5 -38q-102 0 -172.5 23.5t-112.5 64.5t-61 95.5t-19 114.5v1.5v1.5h179v-1.5v-1.5q0 -91 50 -126t138 -35q79 0 126 40.5t47 114.5q0 34 -17.5 62.5t-55 45.5t-97.5 17h-37v117h37q59 0 96.5 16.5
t55.5 44t18 58.5q0 62 -46.5 93t-123.5 31q-85 0 -138 -34.5t-53 -115.5h-179q0 78 38.5 142.5t119.5 104t209 39.5q122 0 199.5 -32.5t115 -87t37.5 -121.5q0 -73 -42 -130.5t-146 -60.5z" />
    <glyph glyph-name="acute" unicode="&#xb4;" horiz-adv-x="608" 
d="M70 1222l239 253h184l-263 -253h-160z" />
    <glyph glyph-name="uni00B5" unicode="&#xb5;" horiz-adv-x="1196" 
d="M847 0v1062h217v-1062h-217zM847 459l71 -51q0 -79 -23.5 -155t-69 -137.5t-113 -97.5t-155.5 -36q-96 0 -143 36.5t-64 81.5v-537h-218v1499h218v-548v-28.5v-27.5q0 -77 16 -144.5t62.5 -110t137.5 -42.5q85 0 148 42t98 110t35 146z" />
    <glyph glyph-name="paragraph" unicode="&#xb6;" horiz-adv-x="1233" 
d="M653 -170v766h-23q-135 0 -230 37.5t-154 101t-86.5 142.5t-27.5 162q0 78 25 155t82 140t153 101t238 38h457v-1643h-153v1508h-130v-1508h-151z" />
    <glyph glyph-name="periodcentered" unicode="&#xb7;" horiz-adv-x="537" 
d="M269 607q-56 0 -94.5 38.5t-38.5 93.5t38.5 93.5t94.5 38.5q54 0 93 -38.5t39 -93.5t-39 -93.5t-93 -38.5z" />
    <glyph glyph-name="cedilla" unicode="&#xb8;" horiz-adv-x="862" 
d="M508 -91q34 0 66.5 -16t53.5 -48.5t21 -84.5q0 -62 -35 -102t-91.5 -60t-120.5 -20q-59 0 -112 14t-73 28l45 85q16 -10 56.5 -25t91.5 -15q58 0 98.5 25.5t40.5 73.5q0 40 -21.5 58t-54.5 18q-24 0 -50 -10t-40 -27l-91 26l70 171h105l-61 -151l-25 5q9 21 47 38t80 17z
" />
    <glyph glyph-name="uni00B9" unicode="&#xb9;" horiz-adv-x="687" 
d="M449 1476v-886h-179v721q-6 -7 -38.5 -23t-79 -30t-98.5 -17v129q51 5 97 23t79 41t44 42h175z" />
    <glyph glyph-name="ordmasculine" unicode="&#xba;" horiz-adv-x="790" 
d="M385 1017q-65 0 -122.5 27.5t-93 79.5t-35.5 124q0 74 35.5 125.5t93 79t122.5 27.5q66 0 124 -27.5t94.5 -79t36.5 -125.5q0 -72 -36.5 -124t-94.5 -79.5t-124 -27.5zM385 1101q40 0 76.5 16.5t60.5 49t24 81.5q0 50 -24 83t-60.5 49t-76.5 16q-38 0 -74.5 -16
t-59.5 -49t-23 -83q0 -49 23 -81.5t59.5 -49t74.5 -16.5z" />
    <glyph glyph-name="guillemotright" unicode="&#xbb;" horiz-adv-x="794" 
d="M308 885h130l326 -320l-326 -314h-130l329 314zM30 885h131l326 -320l-325 -314h-131l326 314z" />
    <glyph glyph-name="onequarter" unicode="&#xbc;" horiz-adv-x="1844" 
d="M449 1476v-886h-179v721q-6 -7 -38.5 -23t-79 -30t-98.5 -17v129q51 5 97 23t79 41t44 42h175zM217 0l1022 1475h160l-1022 -1475h-160zM1438 0v180h-425v113l376 593h227v-583h147v-123h-147v-180h-178zM1145 230l-48 73h341v467l33 -10z" />
    <glyph glyph-name="onehalf" unicode="&#xbd;" horiz-adv-x="1864" 
d="M449 1476v-886h-179v721q-6 -7 -38.5 -23t-79 -30t-98.5 -17v129q51 5 97 23t79 41t44 42h175zM217 0l1022 1475h160l-1022 -1475h-160zM1026 0v148q7 30 53.5 70t113 83t131.5 80q58 34 112.5 72t90 81.5t35.5 90.5q0 63 -43 99.5t-130 36.5q-106 0 -148 -50t-42 -126
h-179q0 144 93.5 228.5t278.5 84.5q116 0 193.5 -35t116.5 -96t39 -139q0 -73 -43 -129t-105.5 -98.5t-122.5 -77.5q-50 -31 -98.5 -65t-80.5 -66.5t-36 -59.5h488v-132h-717z" />
    <glyph glyph-name="threequarters" unicode="&#xbe;" horiz-adv-x="2098" 
d="M632 1056q106 -3 147 -62t41 -143q0 -74 -37.5 -137t-116 -101t-200.5 -38q-102 0 -172.5 23.5t-112.5 64.5t-61 95.5t-19 114.5v1.5v1.5h179v-1.5v-1.5q0 -91 50 -126t138 -35q79 0 126 40.5t47 114.5q0 34 -17.5 62.5t-55 45.5t-97.5 17h-37v117h37q59 0 96.5 16.5
t55.5 44t18 58.5q0 62 -46.5 93t-123.5 31q-85 0 -138 -34.5t-53 -115.5h-179q0 78 38.5 142.5t119.5 104t209 39.5q122 0 199.5 -32.5t115 -87t37.5 -121.5q0 -73 -42 -130.5t-146 -60.5zM472 0l1022 1475h160l-1022 -1475h-160zM1692 0v180h-425v113l376 593h227v-583h147
v-123h-147v-180h-178zM1399 230l-48 73h341v467l33 -10z" />
    <glyph glyph-name="questiondown" unicode="&#xbf;" horiz-adv-x="1116" 
d="M647 690q0 -90 -28 -162t-71 -130.5t-90 -111.5q-40 -45 -75 -91.5t-57 -100t-22 -118.5q0 -121 60.5 -182t178.5 -61q122 0 187 72t65 215h192q0 -154 -57.5 -254t-157.5 -149t-227 -49q-126 0 -223.5 47.5t-153 141t-55.5 231.5q0 91 29.5 160t74.5 124.5t93 104.5
q66 69 117 140.5t51 172.5h169zM551 1081q56 0 94 -38t38 -94q0 -55 -38 -93.5t-94 -38.5q-55 0 -93.5 38.5t-38.5 93.5q0 56 38.5 94t93.5 38z" />
    <glyph glyph-name="Agrave" unicode="&#xc0;" horiz-adv-x="1266" 
d="M70 0l394 1478h341l390 -1478h-223l-339 1341h2l-341 -1341h-224zM298 375v180h672v-180h-672zM777 1553h-175l-298 190h194z" />
    <glyph glyph-name="Aacute" unicode="&#xc1;" horiz-adv-x="1266" 
d="M70 0l394 1478h341l390 -1478h-223l-339 1341h2l-341 -1341h-224zM298 375v180h672v-180h-672zM496 1553l279 190h194l-297 -190h-176z" />
    <glyph glyph-name="Acircumflex" unicode="&#xc2;" horiz-adv-x="1266" 
d="M70 0l394 1478h341l390 -1478h-223l-339 1341h2l-341 -1341h-224zM298 375v180h672v-180h-672zM334 1552l222 188h156l223 -188h-153l-178 154h60l-179 -154h-151z" />
    <glyph glyph-name="Atilde" unicode="&#xc3;" horiz-adv-x="1266" 
d="M70 0l394 1478h341l390 -1478h-223l-339 1341h2l-341 -1341h-224zM298 375v180h672v-180h-672zM942 1726q-1 -37 -19 -79t-56 -72.5t-100 -30.5q-47 0 -81 19t-59 38q-22 18 -45.5 32t-54.5 14q-38 0 -53.5 -24.5t-17.5 -53.5h-119q2 39 22.5 82t61 73t101.5 30
q47 0 80 -18.5t56 -37.5q23 -18 47.5 -33t51.5 -15q38 0 51.5 23.5t14.5 52.5h119z" />
    <glyph glyph-name="Adieresis" unicode="&#xc4;" horiz-adv-x="1266" 
d="M70 0l394 1478h341l390 -1478h-223l-339 1341h2l-341 -1341h-224zM298 375v180h672v-180h-672zM425 1555q-51 0 -89 28t-38 78t38 78t89 28t88.5 -28t37.5 -78t-37.5 -78t-88.5 -28zM845 1555q-51 0 -88.5 28t-37.5 78t37.5 78t88.5 28t89 -28t38 -78t-38 -78t-89 -28z
" />
    <glyph glyph-name="Aring" unicode="&#xc5;" horiz-adv-x="1266" 
d="M70 0l394 1478h341l390 -1478h-223l-339 1341h2l-341 -1341h-224zM298 375v180h672v-180h-672zM634 1618q45 0 76 31t31 76q0 44 -31 75t-76 31q-43 0 -74.5 -31t-31.5 -75q0 -45 31.5 -76t74.5 -31zM634 1520q-56 0 -102.5 27.5t-74.5 74.5t-28 103t28 102.5t74.5 74.5
t102.5 28q58 0 104 -28t73.5 -74.5t27.5 -102.5t-27.5 -103t-73.5 -74.5t-104 -27.5z" />
    <glyph glyph-name="AE" unicode="&#xc6;" horiz-adv-x="1909" 
d="M0 0l855 1475h919v-180h-701l73 73v-608l-64 70h581v-180h-576l59 65v-599l-64 64h692v-180h-837v1290l18 -13l-719 -1277h-236zM356 313l44 177h637v-177h-681z" />
    <glyph glyph-name="Ccedilla" unicode="&#xc7;" horiz-adv-x="1354" 
d="M1259 522q0 -92 -34 -187t-103 -176t-174 -130.5t-247 -49.5q-145 0 -258 56.5t-190.5 159t-117.5 241t-40 301.5q0 165 40 303t117.5 240t190.5 158t258 56q161 0 274.5 -63t181 -162t89.5 -206q13 -58 13 -110h-218q0 28 -5 61q-11 80 -53.5 147t-113 107t-168.5 40
q-114 0 -201 -63.5t-135.5 -190.5t-48.5 -317q0 -189 48.5 -316.5t135.5 -192t201 -64.5q83 0 146 30t106 81t65.5 115t22.5 132h218zM789 -91q34 0 66.5 -16t54 -48.5t21.5 -84.5q0 -62 -35.5 -102t-92 -60t-120.5 -20q-58 0 -111.5 14t-73.5 28l45 85q16 -10 57 -25
t91 -15q59 0 99 25.5t40 73.5q0 40 -21.5 58t-53.5 18q-25 0 -51 -10t-39 -27l-88 26l70 171h98l-61 -151l-13 5q9 21 42.5 38t75.5 17z" />
    <glyph glyph-name="Egrave" unicode="&#xc8;" horiz-adv-x="1106" 
d="M255 1295l98 114v-648l-52 69h559v-180h-559l52 69v-653l-98 114h716v-180h-836v1475h836v-180h-716zM708 1553h-175l-298 190h194z" />
    <glyph glyph-name="Eacute" unicode="&#xc9;" horiz-adv-x="1106" 
d="M255 1295l98 114v-648l-52 69h559v-180h-559l52 69v-653l-98 114h716v-180h-836v1475h836v-180h-716zM427 1553l279 190h194l-297 -190h-176z" />
    <glyph glyph-name="Ecircumflex" unicode="&#xca;" horiz-adv-x="1106" 
d="M255 1295l98 114v-648l-52 69h559v-180h-559l52 69v-653l-98 114h716v-180h-836v1475h836v-180h-716zM265 1552l222 188h156l223 -188h-153l-178 154h60l-179 -154h-151z" />
    <glyph glyph-name="Edieresis" unicode="&#xcb;" horiz-adv-x="1106" 
d="M255 1295l98 114v-648l-52 69h559v-180h-559l52 69v-653l-98 114h716v-180h-836v1475h836v-180h-716zM356 1555q-51 0 -89 28t-38 78t38 78t89 28t88.5 -28t37.5 -78t-37.5 -78t-88.5 -28zM776 1555q-51 0 -88.5 28t-37.5 78t37.5 78t88.5 28t89 -28t38 -78t-38 -78
t-89 -28z" />
    <glyph glyph-name="Igrave" unicode="&#xcc;" horiz-adv-x="493" 
d="M139 0v1475h214v-1475h-214zM390 1553h-175l-298 190h194z" />
    <glyph glyph-name="Iacute" unicode="&#xcd;" horiz-adv-x="493" 
d="M139 0v1475h214v-1475h-214zM109 1553l279 190h194l-297 -190h-176z" />
    <glyph glyph-name="Icircumflex" unicode="&#xce;" horiz-adv-x="493" 
d="M139 0v1475h214v-1475h-214zM-53 1552l222 188h156l223 -188h-153l-178 154h60l-179 -154h-151z" />
    <glyph glyph-name="Idieresis" unicode="&#xcf;" horiz-adv-x="493" 
d="M139 0v1475h214v-1475h-214zM95 1559q-51 0 -89 28.5t-38 78.5q0 49 38 77.5t89 28.5q50 0 88 -28.5t38 -77.5q0 -50 -38 -78.5t-88 -28.5zM402 1559q-51 0 -88.5 28.5t-37.5 78.5q0 49 37.5 77.5t88.5 28.5t89 -28.5t38 -77.5q0 -50 -38 -78.5t-89 -28.5z" />
    <glyph glyph-name="Eth" unicode="&#xd0;" horiz-adv-x="1281" 
d="M5 686v102h707v-102h-707zM135 0v1475h405q147 0 266 -52t203.5 -148t130.5 -232t46 -304q0 -169 -46 -305t-130.5 -233t-203.5 -149t-266 -52h-405zM353 66l-98 114h259q130 0 232.5 68t160.5 193.5t58 297.5q0 173 -58 297.5t-160.5 191.5t-232.5 67h-259l98 114v-1343
z" />
    <glyph glyph-name="Ntilde" unicode="&#xd1;" horiz-adv-x="1384" 
d="M346 0h-211v1475h346l582 -1372l-26 -10v1382h212v-1475h-351l-580 1370l28 9v-1379zM1012 1726q-1 -37 -19 -79t-56 -72.5t-100 -30.5q-47 0 -81 19t-59 38q-22 18 -45.5 32t-54.5 14q-38 0 -53.5 -24.5t-17.5 -53.5h-119q2 39 22.5 82t61 73t101.5 30q47 0 80 -18.5
t56 -37.5q23 -18 47.5 -33t51.5 -15q38 0 51.5 23.5t14.5 52.5h119z" />
    <glyph glyph-name="Ograve" unicode="&#xd2;" horiz-adv-x="1419" 
d="M709 -21q-132 0 -243.5 50.5t-195 148t-129.5 239t-46 322.5q0 182 46 322.5t129.5 237t195.5 146t243 49.5q132 0 244.5 -49.5t195.5 -146t129 -237t46 -322.5q0 -181 -46 -322.5t-129.5 -239t-195.5 -148t-244 -50.5zM709 164q113 0 202.5 62t140.5 189.5t51 323.5
q0 197 -51.5 323t-140.5 186t-202 60q-111 0 -200.5 -60t-141.5 -186t-52 -323t52 -324.5t141.5 -189t200.5 -61.5zM852 1553h-175l-298 190h194z" />
    <glyph glyph-name="Oacute" unicode="&#xd3;" horiz-adv-x="1419" 
d="M709 -21q-132 0 -243.5 50.5t-195 148t-129.5 239t-46 322.5q0 182 46 322.5t129.5 237t195.5 146t243 49.5q132 0 244.5 -49.5t195.5 -146t129 -237t46 -322.5q0 -181 -46 -322.5t-129.5 -239t-195.5 -148t-244 -50.5zM709 164q113 0 202.5 62t140.5 189.5t51 323.5
q0 197 -51.5 323t-140.5 186t-202 60q-111 0 -200.5 -60t-141.5 -186t-52 -323t52 -324.5t141.5 -189t200.5 -61.5zM571 1553l279 190h194l-297 -190h-176z" />
    <glyph glyph-name="Ocircumflex" unicode="&#xd4;" horiz-adv-x="1419" 
d="M709 -21q-132 0 -243.5 50.5t-195 148t-129.5 239t-46 322.5q0 182 46 322.5t129.5 237t195.5 146t243 49.5q132 0 244.5 -49.5t195.5 -146t129 -237t46 -322.5q0 -181 -46 -322.5t-129.5 -239t-195.5 -148t-244 -50.5zM709 164q113 0 202.5 62t140.5 189.5t51 323.5
q0 197 -51.5 323t-140.5 186t-202 60q-111 0 -200.5 -60t-141.5 -186t-52 -323t52 -324.5t141.5 -189t200.5 -61.5zM409 1552l222 188h156l223 -188h-153l-178 154h60l-179 -154h-151z" />
    <glyph glyph-name="Otilde" unicode="&#xd5;" horiz-adv-x="1419" 
d="M709 -21q-132 0 -243.5 50.5t-195 148t-129.5 239t-46 322.5q0 182 46 322.5t129.5 237t195.5 146t243 49.5q132 0 244.5 -49.5t195.5 -146t129 -237t46 -322.5q0 -181 -46 -322.5t-129.5 -239t-195.5 -148t-244 -50.5zM709 164q113 0 202.5 62t140.5 189.5t51 323.5
q0 197 -51.5 323t-140.5 186t-202 60q-111 0 -200.5 -60t-141.5 -186t-52 -323t52 -324.5t141.5 -189t200.5 -61.5zM1017 1726q-1 -37 -19 -79t-56 -72.5t-100 -30.5q-47 0 -81 19t-59 38q-22 18 -45.5 32t-54.5 14q-38 0 -53.5 -24.5t-17.5 -53.5h-119q2 39 22.5 82t61 73
t101.5 30q47 0 80 -18.5t56 -37.5q23 -18 47.5 -33t51.5 -15q38 0 51.5 23.5t14.5 52.5h119z" />
    <glyph glyph-name="Odieresis" unicode="&#xd6;" horiz-adv-x="1419" 
d="M709 -21q-132 0 -243.5 50.5t-195 148t-129.5 239t-46 322.5q0 182 46 322.5t129.5 237t195.5 146t243 49.5q132 0 244.5 -49.5t195.5 -146t129 -237t46 -322.5q0 -181 -46 -322.5t-129.5 -239t-195.5 -148t-244 -50.5zM709 164q113 0 202.5 62t140.5 189.5t51 323.5
q0 197 -51.5 323t-140.5 186t-202 60q-111 0 -200.5 -60t-141.5 -186t-52 -323t52 -324.5t141.5 -189t200.5 -61.5zM500 1555q-51 0 -89 28t-38 78t38 78t89 28t88.5 -28t37.5 -78t-37.5 -78t-88.5 -28zM920 1555q-51 0 -88.5 28t-37.5 78t37.5 78t88.5 28t89 -28t38 -78
t-38 -78t-89 -28z" />
    <glyph glyph-name="multiply" unicode="&#xd7;" horiz-adv-x="1225" 
d="M370 214l-97 96l580 519l99 -96zM952 310l-99 -98l-581 520l98 97z" />
    <glyph glyph-name="Oslash" unicode="&#xd8;" horiz-adv-x="1419" 
d="M1242 1499l-951 -1587l-115 65l949 1587zM709 -21q-132 0 -243.5 50.5t-195 148t-129.5 239t-46 322.5q0 182 46 322.5t129.5 237t195.5 146t243 49.5q132 0 244.5 -49.5t195.5 -146t129 -237t46 -322.5q0 -181 -46 -322.5t-129.5 -239t-195.5 -148t-244 -50.5zM709 164
q113 0 202.5 62t140.5 189.5t51 323.5q0 197 -51.5 323t-140.5 186t-202 60q-111 0 -200.5 -60t-141.5 -186t-52 -323t52 -324.5t141.5 -189t200.5 -61.5z" />
    <glyph glyph-name="Ugrave" unicode="&#xd9;" horiz-adv-x="1314" 
d="M1179 540q0 -284 -139 -422.5t-384 -138.5q-244 0 -382.5 138.5t-138.5 422.5v89.5v99.5v746h217v-770v-89v-75q0 -200 76 -288.5t228 -88.5q153 0 229.5 88.5t76.5 288.5v934h217v-935zM799 1553h-175l-298 190h194z" />
    <glyph glyph-name="Uacute" unicode="&#xda;" horiz-adv-x="1314" 
d="M1179 540q0 -284 -139 -422.5t-384 -138.5q-244 0 -382.5 138.5t-138.5 422.5v89.5v99.5v746h217v-770v-89v-75q0 -200 76 -288.5t228 -88.5q153 0 229.5 88.5t76.5 288.5v934h217v-935zM518 1553l279 190h194l-297 -190h-176z" />
    <glyph glyph-name="Ucircumflex" unicode="&#xdb;" horiz-adv-x="1314" 
d="M1179 540q0 -284 -139 -422.5t-384 -138.5q-244 0 -382.5 138.5t-138.5 422.5v89.5v99.5v746h217v-770v-89v-75q0 -200 76 -288.5t228 -88.5q153 0 229.5 88.5t76.5 288.5v934h217v-935zM356 1552l222 188h156l223 -188h-153l-178 154h60l-179 -154h-151z" />
    <glyph glyph-name="Udieresis" unicode="&#xdc;" horiz-adv-x="1314" 
d="M1179 540q0 -284 -139 -422.5t-384 -138.5q-244 0 -382.5 138.5t-138.5 422.5v89.5v99.5v746h217v-770v-89v-75q0 -200 76 -288.5t228 -88.5q153 0 229.5 88.5t76.5 288.5v934h217v-935zM447 1555q-51 0 -89 28t-38 78t38 78t89 28t88.5 -28t37.5 -78t-37.5 -78
t-88.5 -28zM867 1555q-51 0 -88.5 28t-37.5 78t37.5 78t88.5 28t89 -28t38 -78t-38 -78t-89 -28z" />
    <glyph glyph-name="Yacute" unicode="&#xdd;" horiz-adv-x="1192" 
d="M1121 1475l-418 -964v-511h-217v511l-416 964h230l340 -841h-89l339 841h231zM458 1553l279 190h194l-297 -190h-176z" />
    <glyph glyph-name="Thorn" unicode="&#xde;" horiz-adv-x="1135" 
d="M135 0v1473h216v-392l-67 67h286q139 0 245 -47.5t165.5 -141t59.5 -230.5q0 -138 -60.5 -231.5t-166.5 -140.5t-243 -47h-286l67 67v-377h-216zM351 420l-54 70h252q80 0 142 26t98 79t36 134q0 82 -36 134.5t-98.5 78t-141.5 25.5h-256l58 74v-621z" />
    <glyph glyph-name="germandbls" unicode="&#xdf;" horiz-adv-x="1224" 
d="M119 0v983q0 121 27.5 209.5t75 148.5t110 96t133.5 52t144 16q113 0 203.5 -42.5t144 -118.5t53.5 -178q0 -88 -41 -149.5t-76 -95.5q-27 -28 -43 -52.5t-16 -52.5q0 -23 32 -54t82 -72q39 -32 80 -75.5t69 -100t28 -133.5q0 -122 -51.5 -210t-156 -136t-264.5 -48
q-65 0 -116.5 8.5t-75.5 16.5l32 184q17 -6 60 -17t100 -11q119 0 188.5 44.5t69.5 149.5q0 48 -22.5 89t-56 76t-67.5 62q-54 46 -99.5 103.5t-45.5 118.5q0 56 25.5 97.5t55.5 70.5q40 38 72.5 85t32.5 96q0 45 -20 82t-64.5 59.5t-120.5 22.5q-133 0 -200 -84t-67 -281
v-959h-215z" />
    <glyph glyph-name="agrave" unicode="&#xe0;" horiz-adv-x="1231" 
d="M510 -21q-120 0 -210.5 38t-140.5 109t-50 171q0 107 56.5 177t156 108.5t226.5 50.5q189 19 266.5 37t77.5 59v0.5v1.5q0 81 -69 123t-197 42q-135 0 -208.5 -47.5t-73.5 -150.5h-213q0 122 63.5 207t175.5 129.5t257 44.5q133 0 242.5 -40.5t174.5 -120.5t65 -199
v-41.5v-41.5v-424q0 -37 3 -71.5t11 -61.5q9 -31 21.5 -51t20.5 -28h-216q-6 6 -17.5 25.5t-20.5 45.5q-9 25 -13.5 57.5t-4.5 70.5l40 -28q-30 -58 -90.5 -101t-145 -67t-187.5 -24zM555 159q93 0 169.5 29.5t122.5 90t46 152.5v176l51 -67q-64 -25 -156.5 -40.5
t-190.5 -25.5q-135 -12 -203 -46.5t-68 -114.5q0 -77 56.5 -115.5t172.5 -38.5zM767 1220h-161l-263 253h184z" />
    <glyph glyph-name="aacute" unicode="&#xe1;" horiz-adv-x="1231" 
d="M510 -21q-120 0 -210.5 38t-140.5 109t-50 171q0 107 56.5 177t156 108.5t226.5 50.5q189 19 266.5 37t77.5 59v0.5v1.5q0 81 -69 123t-197 42q-135 0 -208.5 -47.5t-73.5 -150.5h-213q0 122 63.5 207t175.5 129.5t257 44.5q133 0 242.5 -40.5t174.5 -120.5t65 -199
v-41.5v-41.5v-424q0 -37 3 -71.5t11 -61.5q9 -31 21.5 -51t20.5 -28h-216q-6 6 -17.5 25.5t-20.5 45.5q-9 25 -13.5 57.5t-4.5 70.5l40 -28q-30 -58 -90.5 -101t-145 -67t-187.5 -24zM555 159q93 0 169.5 29.5t122.5 90t46 152.5v176l51 -67q-64 -25 -156.5 -40.5
t-190.5 -25.5q-135 -12 -203 -46.5t-68 -114.5q0 -77 56.5 -115.5t172.5 -38.5zM505 1222l239 253h184l-263 -253h-160z" />
    <glyph glyph-name="acircumflex" unicode="&#xe2;" horiz-adv-x="1231" 
d="M510 -21q-120 0 -210.5 38t-140.5 109t-50 171q0 107 56.5 177t156 108.5t226.5 50.5q189 19 266.5 37t77.5 59v0.5v1.5q0 81 -69 123t-197 42q-135 0 -208.5 -47.5t-73.5 -150.5h-213q0 122 63.5 207t175.5 129.5t257 44.5q133 0 242.5 -40.5t174.5 -120.5t65 -199
v-41.5v-41.5v-424q0 -37 3 -71.5t11 -61.5q9 -31 21.5 -51t20.5 -28h-216q-6 6 -17.5 25.5t-20.5 45.5q-9 25 -13.5 57.5t-4.5 70.5l40 -28q-30 -58 -90.5 -101t-145 -67t-187.5 -24zM555 159q93 0 169.5 29.5t122.5 90t46 152.5v176l51 -67q-64 -25 -156.5 -40.5
t-190.5 -25.5q-135 -12 -203 -46.5t-68 -114.5q0 -77 56.5 -115.5t172.5 -38.5zM343 1222l220 253h150l221 -253h-148l-179 211h62l-180 -211h-146z" />
    <glyph glyph-name="atilde" unicode="&#xe3;" horiz-adv-x="1231" 
d="M510 -21q-120 0 -210.5 38t-140.5 109t-50 171q0 107 56.5 177t156 108.5t226.5 50.5q189 19 266.5 37t77.5 59v0.5v1.5q0 81 -69 123t-197 42q-135 0 -208.5 -47.5t-73.5 -150.5h-213q0 122 63.5 207t175.5 129.5t257 44.5q133 0 242.5 -40.5t174.5 -120.5t65 -199
v-41.5v-41.5v-424q0 -37 3 -71.5t11 -61.5q9 -31 21.5 -51t20.5 -28h-216q-6 6 -17.5 25.5t-20.5 45.5q-9 25 -13.5 57.5t-4.5 70.5l40 -28q-30 -58 -90.5 -101t-145 -67t-187.5 -24zM555 159q93 0 169.5 29.5t122.5 90t46 152.5v176l51 -67q-64 -25 -156.5 -40.5
t-190.5 -25.5q-135 -12 -203 -46.5t-68 -114.5q0 -77 56.5 -115.5t172.5 -38.5zM941 1453q-1 -37 -19 -79.5t-56 -73t-100 -30.5q-47 0 -81 19t-59 39q-22 17 -45.5 31t-54.5 14q-38 0 -53.5 -24t-17.5 -54h-119q2 39 22.5 82t61 73t101.5 30q47 0 80 -18.5t56 -36.5
q23 -19 47.5 -34t51.5 -15q38 0 51.5 23.5t14.5 53.5h119z" />
    <glyph glyph-name="adieresis" unicode="&#xe4;" horiz-adv-x="1231" 
d="M510 -21q-120 0 -210.5 38t-140.5 109t-50 171q0 107 56.5 177t156 108.5t226.5 50.5q189 19 266.5 37t77.5 59v0.5v1.5q0 81 -69 123t-197 42q-135 0 -208.5 -47.5t-73.5 -150.5h-213q0 122 63.5 207t175.5 129.5t257 44.5q133 0 242.5 -40.5t174.5 -120.5t65 -199
v-41.5v-41.5v-424q0 -37 3 -71.5t11 -61.5q9 -31 21.5 -51t20.5 -28h-216q-6 6 -17.5 25.5t-20.5 45.5q-9 25 -13.5 57.5t-4.5 70.5l40 -28q-30 -58 -90.5 -101t-145 -67t-187.5 -24zM555 159q93 0 169.5 29.5t122.5 90t46 152.5v176l51 -67q-64 -25 -156.5 -40.5
t-190.5 -25.5q-135 -12 -203 -46.5t-68 -114.5q0 -77 56.5 -115.5t172.5 -38.5zM429 1279q-51 0 -89 28t-38 78t38 78t89 28t88.5 -28t37.5 -78t-37.5 -78t-88.5 -28zM849 1279q-51 0 -88.5 28t-37.5 78t37.5 78t88.5 28t89 -28t38 -78t-38 -78t-89 -28z" />
    <glyph glyph-name="aring" unicode="&#xe5;" horiz-adv-x="1231" 
d="M510 -21q-120 0 -210.5 38t-140.5 109t-50 171q0 107 56.5 177t156 108.5t226.5 50.5q189 19 266.5 37t77.5 59v0.5v1.5q0 81 -69 123t-197 42q-135 0 -208.5 -47.5t-73.5 -150.5h-213q0 122 63.5 207t175.5 129.5t257 44.5q133 0 242.5 -40.5t174.5 -120.5t65 -199
v-41.5v-41.5v-424q0 -37 3 -71.5t11 -61.5q9 -31 21.5 -51t20.5 -28h-216q-6 6 -17.5 25.5t-20.5 45.5q-9 25 -13.5 57.5t-4.5 70.5l40 -28q-30 -58 -90.5 -101t-145 -67t-187.5 -24zM555 159q93 0 169.5 29.5t122.5 90t46 152.5v176l51 -67q-64 -25 -156.5 -40.5
t-190.5 -25.5q-135 -12 -203 -46.5t-68 -114.5q0 -77 56.5 -115.5t172.5 -38.5zM639 1247q45 0 76 31t31 76q0 44 -31 75t-76 31q-43 0 -74.5 -31t-31.5 -75q0 -45 31.5 -76t74.5 -31zM639 1149q-56 0 -102.5 27.5t-74.5 74t-28 103.5q0 56 28 102.5t74.5 74.5t102.5 28
q58 0 104 -28t73.5 -74.5t27.5 -102.5q0 -57 -27.5 -103.5t-73.5 -74t-104 -27.5z" />
    <glyph glyph-name="ae" unicode="&#xe6;" horiz-adv-x="2143" 
d="M571 -21q-212 0 -337 89.5t-125 244.5q0 81 35.5 138t99.5 92.5t151 52t187 16.5q141 0 219 3t109.5 16t31.5 42v14.5v14.5q0 101 -79.5 151t-207.5 50q-89 0 -159 -22.5t-109.5 -67t-39.5 -113.5h-214q0 92 40.5 162.5t112 118.5t166.5 73t204 25q138 0 252 -48.5
t173 -148.5q7 -10 13 -20.5t12 -21.5l-70 4q73 110 193.5 172.5t273.5 62.5q166 0 288 -72t188 -197t66 -285q0 -19 -0.5 -40t-2.5 -30h-979l92 75q0 -13 1 -25t2 -23q8 -101 51.5 -175t119.5 -114.5t179 -40.5q77 0 133.5 18t94 46t57 59.5t22.5 58.5h214
q-5 -59 -42 -121.5t-103 -116t-162 -86t-220 -32.5q-111 0 -205.5 33t-166.5 94t-117 144l64 9q-39 -104 -120 -165.5t-182.5 -87.5t-203.5 -26zM584 158q62 0 125.5 16t117.5 56t86.5 113t32.5 189v17v17l50 -81q-69 -17 -168.5 -22.5t-208.5 -5.5q-142 0 -217 -25.5
t-75 -110.5q0 -83 73.5 -123t183.5 -40zM1164 622h661q0 5 -0.5 13t-2.5 17q-10 68 -50 126t-107 93.5t-159 35.5q-90 0 -161.5 -35t-118.5 -98.5t-62 -151.5z" />
    <glyph glyph-name="ccedilla" unicode="&#xe7;" horiz-adv-x="1262" 
d="M742 -91q35 0 67 -16t53.5 -48.5t21.5 -84.5q0 -62 -35.5 -102t-92 -60t-120.5 -20q-58 0 -111 14t-73 28l44 85q16 -10 57 -25t91 -15q59 0 99 25.5t40 73.5q0 40 -21 58t-54 18q-25 0 -51 -10t-39 -27l-91 26l70 171h104l-61 -151l-24 5q9 21 46.5 38t79.5 17zM657 -21
q-160 0 -286.5 67.5t-199 192.5t-72.5 294t72.5 291.5t199 188.5t286.5 66q121 0 215 -36.5t159 -96.5t99 -132t34 -144v-3v-4h-215q0 5 -1 11.5t-2 12.5q-8 59 -46 105t-100 73t-145 27q-91 0 -167.5 -39.5t-122.5 -119.5t-46 -200t45.5 -201.5t122 -123.5t168.5 -42
q99 0 162 30.5t95 82t37 111.5h215q0 -72 -33 -145.5t-97 -133.5t-158.5 -96t-218.5 -36z" />
    <glyph glyph-name="egrave" unicode="&#xe8;" horiz-adv-x="1296" 
d="M219 455v169h782l-30 -50v12.5v11.5q0 81 -35 149.5t-104.5 110t-173.5 41.5t-182.5 -44.5t-122 -126t-43.5 -195.5q0 -116 42 -199.5t121 -128.5t189 -45q77 0 133.5 15.5t93 41.5t55.5 56.5t22 60.5h216q-6 -65 -42.5 -128.5t-103 -115t-162 -82t-219.5 -30.5
q-166 0 -291 70t-195 194.5t-70 285.5q0 164 71 288t197 193.5t289 69.5q166 0 287.5 -70t187.5 -193t66 -283q0 -19 -1 -44t-3 -34h-974zM783 1220h-161l-263 253h184z" />
    <glyph glyph-name="eacute" unicode="&#xe9;" horiz-adv-x="1296" 
d="M219 455v169h782l-30 -50v12.5v11.5q0 81 -35 149.5t-104.5 110t-173.5 41.5t-182.5 -44.5t-122 -126t-43.5 -195.5q0 -116 42 -199.5t121 -128.5t189 -45q77 0 133.5 15.5t93 41.5t55.5 56.5t22 60.5h216q-6 -65 -42.5 -128.5t-103 -115t-162 -82t-219.5 -30.5
q-166 0 -291 70t-195 194.5t-70 285.5q0 164 71 288t197 193.5t289 69.5q166 0 287.5 -70t187.5 -193t66 -283q0 -19 -1 -44t-3 -34h-974zM520 1222l239 253h184l-263 -253h-160z" />
    <glyph glyph-name="ecircumflex" unicode="&#xea;" horiz-adv-x="1296" 
d="M219 455v169h782l-30 -50v12.5v11.5q0 81 -35 149.5t-104.5 110t-173.5 41.5t-182.5 -44.5t-122 -126t-43.5 -195.5q0 -116 42 -199.5t121 -128.5t189 -45q77 0 133.5 15.5t93 41.5t55.5 56.5t22 60.5h216q-6 -65 -42.5 -128.5t-103 -115t-162 -82t-219.5 -30.5
q-166 0 -291 70t-195 194.5t-70 285.5q0 164 71 288t197 193.5t289 69.5q166 0 287.5 -70t187.5 -193t66 -283q0 -19 -1 -44t-3 -34h-974zM359 1222l220 253h150l221 -253h-148l-179 211h62l-180 -211h-146z" />
    <glyph glyph-name="edieresis" unicode="&#xeb;" horiz-adv-x="1296" 
d="M219 455v169h782l-30 -50v12.5v11.5q0 81 -35 149.5t-104.5 110t-173.5 41.5t-182.5 -44.5t-122 -126t-43.5 -195.5q0 -116 42 -199.5t121 -128.5t189 -45q77 0 133.5 15.5t93 41.5t55.5 56.5t22 60.5h216q-6 -65 -42.5 -128.5t-103 -115t-162 -82t-219.5 -30.5
q-166 0 -291 70t-195 194.5t-70 285.5q0 164 71 288t197 193.5t289 69.5q166 0 287.5 -70t187.5 -193t66 -283q0 -19 -1 -44t-3 -34h-974zM444 1279q-51 0 -89 28t-38 78t38 78t89 28t88.5 -28t37.5 -78t-37.5 -78t-88.5 -28zM864 1279q-51 0 -88.5 28t-37.5 78t37.5 78
t88.5 28t89 -28t38 -78t-38 -78t-89 -28z" />
    <glyph glyph-name="igrave" unicode="&#xec;" horiz-adv-x="504" 
d="M145 0v1062h214v-1062h-214zM381 1220h-161l-263 253h184z" />
    <glyph glyph-name="iacute" unicode="&#xed;" horiz-adv-x="504" 
d="M145 0v1062h214v-1062h-214zM118 1222l239 253h184l-263 -253h-160z" />
    <glyph glyph-name="icircumflex" unicode="&#xee;" horiz-adv-x="504" 
d="M145 0v1062h214v-1062h-214zM-43 1222l220 253h150l221 -253h-148l-179 211h62l-180 -211h-146z" />
    <glyph glyph-name="idieresis" unicode="&#xef;" horiz-adv-x="504" 
d="M145 0v1062h214v-1062h-214zM98 1279q-51 0 -89 28t-38 78t38 78t89 28q50 0 88 -28t38 -78t-38 -78t-88 -28zM405 1279q-51 0 -88.5 28t-37.5 78t37.5 78t88.5 28t89 -28t38 -78t-38 -78t-89 -28z" />
    <glyph glyph-name="eth" unicode="&#xf0;" horiz-adv-x="1347" 
d="M524 1275l322 286l144 -80l-320 -284zM1007 532q0 240 -45.5 401t-127 262t-188.5 159t-230 92l114 119q144 -39 267.5 -115t216.5 -197.5t145 -299.5t52 -421h-204zM655 -20q-164 0 -289.5 71t-196 195.5t-70.5 285.5q0 160 70.5 283.5t196 193t289.5 69.5t289.5 -69.5
t196 -193t70.5 -283.5q0 -161 -70.5 -285.5t-196 -195.5t-289.5 -71zM655 162q100 0 176.5 46.5t119.5 129.5t43 194q0 110 -43 192t-119.5 127t-176.5 45q-99 0 -176 -45t-120 -127t-43 -192q0 -111 43 -194t120 -129.5t176 -46.5z" />
    <glyph glyph-name="ntilde" unicode="&#xf1;" horiz-adv-x="1247" 
d="M898 0v490v73v56q0 78 -24 137.5t-79 93t-147 33.5q-81 0 -146.5 -40t-104 -108.5t-38.5 -155.5l-93 46q0 129 61 231.5t163.5 162.5t224.5 60q126 0 215.5 -48.5t137 -138t47.5 -213.5v-102v-108v-469h-217zM142 0v1062h217v-1062h-217zM947 1453q-1 -37 -19 -79.5
t-56 -73t-100 -30.5q-47 0 -81 19t-59 39q-22 17 -45.5 31t-54.5 14q-38 0 -53.5 -24t-17.5 -54h-119q2 39 22.5 82t61 73t101.5 30q47 0 80 -18.5t56 -36.5q23 -19 47.5 -34t51.5 -15q38 0 51.5 23.5t14.5 53.5h119z" />
    <glyph glyph-name="ograve" unicode="&#xf2;" horiz-adv-x="1310" 
d="M655 -20q-164 0 -289.5 71t-196 195.5t-70.5 285.5q0 160 70.5 283.5t196 193t289.5 69.5t289.5 -69.5t196 -193t70.5 -283.5q0 -161 -70.5 -285.5t-196 -195.5t-289.5 -71zM655 166q100 0 176 45t119 127.5t43 193.5q0 110 -43 191t-119 125t-176 44q-99 0 -175.5 -44
t-119.5 -125t-43 -191q0 -111 43 -193.5t119.5 -127.5t175.5 -45zM784 1220h-161l-263 253h184z" />
    <glyph glyph-name="oacute" unicode="&#xf3;" horiz-adv-x="1310" 
d="M655 -20q-164 0 -289.5 71t-196 195.5t-70.5 285.5q0 160 70.5 283.5t196 193t289.5 69.5t289.5 -69.5t196 -193t70.5 -283.5q0 -161 -70.5 -285.5t-196 -195.5t-289.5 -71zM655 166q100 0 176 45t119 127.5t43 193.5q0 110 -43 191t-119 125t-176 44q-99 0 -175.5 -44
t-119.5 -125t-43 -191q0 -111 43 -193.5t119.5 -127.5t175.5 -45zM522 1222l239 253h184l-263 -253h-160z" />
    <glyph glyph-name="ocircumflex" unicode="&#xf4;" horiz-adv-x="1310" 
d="M655 -20q-164 0 -289.5 71t-196 195.5t-70.5 285.5q0 160 70.5 283.5t196 193t289.5 69.5t289.5 -69.5t196 -193t70.5 -283.5q0 -161 -70.5 -285.5t-196 -195.5t-289.5 -71zM655 166q100 0 176 45t119 127.5t43 193.5q0 110 -43 191t-119 125t-176 44q-99 0 -175.5 -44
t-119.5 -125t-43 -191q0 -111 43 -193.5t119.5 -127.5t175.5 -45zM360 1222l220 253h150l221 -253h-148l-179 211h62l-180 -211h-146z" />
    <glyph glyph-name="otilde" unicode="&#xf5;" horiz-adv-x="1310" 
d="M655 -20q-164 0 -289.5 71t-196 195.5t-70.5 285.5q0 160 70.5 283.5t196 193t289.5 69.5t289.5 -69.5t196 -193t70.5 -283.5q0 -161 -70.5 -285.5t-196 -195.5t-289.5 -71zM655 166q100 0 176 45t119 127.5t43 193.5q0 110 -43 191t-119 125t-176 44q-99 0 -175.5 -44
t-119.5 -125t-43 -191q0 -111 43 -193.5t119.5 -127.5t175.5 -45zM958 1453q-1 -37 -19 -79.5t-56 -73t-100 -30.5q-47 0 -81 19t-59 39q-22 17 -45.5 31t-54.5 14q-38 0 -53.5 -24t-17.5 -54h-119q2 39 22.5 82t61 73t101.5 30q47 0 80 -18.5t56 -36.5q23 -19 47.5 -34
t51.5 -15q38 0 51.5 23.5t14.5 53.5h119z" />
    <glyph glyph-name="odieresis" unicode="&#xf6;" horiz-adv-x="1310" 
d="M655 -20q-164 0 -289.5 71t-196 195.5t-70.5 285.5q0 160 70.5 283.5t196 193t289.5 69.5t289.5 -69.5t196 -193t70.5 -283.5q0 -161 -70.5 -285.5t-196 -195.5t-289.5 -71zM655 166q100 0 176 45t119 127.5t43 193.5q0 110 -43 191t-119 125t-176 44q-99 0 -175.5 -44
t-119.5 -125t-43 -191q0 -111 43 -193.5t119.5 -127.5t175.5 -45zM445 1279q-51 0 -89 28t-38 78t38 78t89 28t88.5 -28t37.5 -78t-37.5 -78t-88.5 -28zM865 1279q-51 0 -88.5 28t-37.5 78t37.5 78t88.5 28t89 -28t38 -78t-38 -78t-89 -28z" />
    <glyph glyph-name="divide" unicode="&#xf7;" horiz-adv-x="1225" 
d="M259 452v139h707v-139h-707zM608 764q-42 0 -70.5 27t-28.5 68t28.5 68t70.5 27t70 -27t28 -68t-28 -68t-70 -27zM608 95q-42 0 -70.5 27t-28.5 67q0 41 28.5 68t70.5 27t70 -27t28 -68q0 -40 -28 -67t-70 -27z" />
    <glyph glyph-name="oslash" unicode="&#xf8;" horiz-adv-x="1310" 
d="M1060 1043l-728 -1095l-100 69l728 1095zM655 -20q-164 0 -289.5 71t-196 195.5t-70.5 285.5q0 160 70.5 283.5t196 193t289.5 69.5t289.5 -69.5t196 -193t70.5 -283.5q0 -161 -70.5 -285.5t-196 -195.5t-289.5 -71zM655 166q100 0 176 45t119 127.5t43 193.5
q0 110 -43 191t-119 125t-176 44q-99 0 -175.5 -44t-119.5 -125t-43 -191q0 -111 43 -193.5t119.5 -127.5t175.5 -45z" />
    <glyph glyph-name="ugrave" unicode="&#xf9;" horiz-adv-x="1222" 
d="M529 -19q-113 0 -188 38.5t-119 101t-62 137t-18 145.5v77.5v81.5v500h218v-469v-70.5v-64.5q0 -77 20 -141.5t70.5 -104t141.5 -39.5q85 0 148 50.5t98 128t35 155.5l95 -51q0 -92 -30.5 -177t-87.5 -152.5t-138.5 -106.5t-182.5 -39zM873 0v1062h217v-1062h-217z
M727 1220h-161l-263 253h184z" />
    <glyph glyph-name="uacute" unicode="&#xfa;" horiz-adv-x="1222" 
d="M529 -19q-113 0 -188 38.5t-119 101t-62 137t-18 145.5v77.5v81.5v500h218v-469v-70.5v-64.5q0 -77 20 -141.5t70.5 -104t141.5 -39.5q85 0 148 50.5t98 128t35 155.5l95 -51q0 -92 -30.5 -177t-87.5 -152.5t-138.5 -106.5t-182.5 -39zM873 0v1062h217v-1062h-217z
M465 1222l239 253h184l-263 -253h-160z" />
    <glyph glyph-name="ucircumflex" unicode="&#xfb;" horiz-adv-x="1222" 
d="M529 -19q-113 0 -188 38.5t-119 101t-62 137t-18 145.5v77.5v81.5v500h218v-469v-70.5v-64.5q0 -77 20 -141.5t70.5 -104t141.5 -39.5q85 0 148 50.5t98 128t35 155.5l95 -51q0 -92 -30.5 -177t-87.5 -152.5t-138.5 -106.5t-182.5 -39zM873 0v1062h217v-1062h-217z
M304 1222l220 253h150l221 -253h-148l-179 211h62l-180 -211h-146z" />
    <glyph glyph-name="udieresis" unicode="&#xfc;" horiz-adv-x="1222" 
d="M529 -19q-113 0 -188 38.5t-119 101t-62 137t-18 145.5v77.5v81.5v500h218v-469v-70.5v-64.5q0 -77 20 -141.5t70.5 -104t141.5 -39.5q85 0 148 50.5t98 128t35 155.5l95 -51q0 -92 -30.5 -177t-87.5 -152.5t-138.5 -106.5t-182.5 -39zM873 0v1062h217v-1062h-217z
M389 1279q-51 0 -89 28t-38 78t38 78t89 28t88.5 -28t37.5 -78t-37.5 -78t-88.5 -28zM809 1279q-51 0 -88.5 28t-37.5 78t37.5 78t88.5 28t89 -28t38 -78t-38 -78t-89 -28z" />
    <glyph glyph-name="yacute" unicode="&#xfd;" horiz-adv-x="1069" 
d="M193 -452q-43 0 -78.5 4.5t-43.5 8.5v177q13 -6 43.5 -10t63.5 -4q59 0 101.5 24t72 66.5t47.5 96.5l27 80l-366 1071h226l273 -900h-28l266 900h223l-381 -1140q-35 -107 -86 -191.5t-136 -133.5t-224 -49zM401 1222l239 253h184l-263 -253h-160z" />
    <glyph glyph-name="thorn" unicode="&#xfe;" horiz-adv-x="1283" 
d="M700 -21q-123 0 -229.5 62.5t-172 171.5t-65.5 247v6.5v5.5l126 3v-4.5v-5.5q0 -82 42.5 -147.5t110.5 -103.5t146 -38q128 0 215.5 87.5t87.5 269.5q0 183 -87 269.5t-216 86.5q-77 0 -145.5 -37.5t-111 -102t-42.5 -147.5l-126 5q0 139 65.5 245.5t172 166.5t229.5 60
q129 0 239.5 -63.5t177.5 -185.5t67 -297q0 -179 -66 -303t-176 -187.5t-242 -63.5zM142 -437v2000h217v-2000h-217z" />
    <glyph glyph-name="ydieresis" unicode="&#xff;" horiz-adv-x="1069" 
d="M193 -452q-43 0 -78.5 4.5t-43.5 8.5v177q13 -6 43.5 -10t63.5 -4q59 0 101.5 24t72 66.5t47.5 96.5l27 80l-366 1071h226l273 -900h-28l266 900h223l-381 -1140q-35 -107 -86 -191.5t-136 -133.5t-224 -49zM325 1279q-51 0 -89 28t-38 78t38 78t89 28t88.5 -28t37.5 -78
t-37.5 -78t-88.5 -28zM745 1279q-51 0 -88.5 28t-37.5 78t37.5 78t88.5 28t89 -28t38 -78t-38 -78t-89 -28z" />
    <glyph glyph-name="Amacron" unicode="&#x100;" horiz-adv-x="1266" 
d="M70 0l394 1478h341l390 -1478h-223l-339 1341h2l-341 -1341h-224zM298 375v180h672v-180h-672zM357 1610v94h553v-94h-553z" />
    <glyph glyph-name="amacron" unicode="&#x101;" horiz-adv-x="1231" 
d="M510 -21q-120 0 -210.5 38t-140.5 109t-50 171q0 107 56.5 177t156 108.5t226.5 50.5q189 19 266.5 37t77.5 59v0.5v1.5q0 81 -69 123t-197 42q-135 0 -208.5 -47.5t-73.5 -150.5h-213q0 122 63.5 207t175.5 129.5t257 44.5q133 0 242.5 -40.5t174.5 -120.5t65 -199
v-41.5v-41.5v-424q0 -37 3 -71.5t11 -61.5q9 -31 21.5 -51t20.5 -28h-216q-6 6 -17.5 25.5t-20.5 45.5q-9 25 -13.5 57.5t-4.5 70.5l40 -28q-30 -58 -90.5 -101t-145 -67t-187.5 -24zM555 159q93 0 169.5 29.5t122.5 90t46 152.5v176l51 -67q-64 -25 -156.5 -40.5
t-190.5 -25.5q-135 -12 -203 -46.5t-68 -114.5q0 -77 56.5 -115.5t172.5 -38.5zM363 1308v94h553v-94h-553z" />
    <glyph glyph-name="Abreve" unicode="&#x102;" horiz-adv-x="1266" 
d="M70 0l394 1478h341l390 -1478h-223l-339 1341h2l-341 -1341h-224zM298 375v180h672v-180h-672zM377 1722h132q0 -40 33.5 -69.5t91.5 -29.5q59 0 92 29.5t33 69.5h132q0 -83 -73.5 -135.5t-183.5 -52.5t-183.5 52.5t-73.5 135.5z" />
    <glyph glyph-name="abreve" unicode="&#x103;" horiz-adv-x="1231" 
d="M510 -21q-120 0 -210.5 38t-140.5 109t-50 171q0 107 56.5 177t156 108.5t226.5 50.5q189 19 266.5 37t77.5 59v0.5v1.5q0 81 -69 123t-197 42q-135 0 -208.5 -47.5t-73.5 -150.5h-213q0 122 63.5 207t175.5 129.5t257 44.5q133 0 242.5 -40.5t174.5 -120.5t65 -199
v-41.5v-41.5v-424q0 -37 3 -71.5t11 -61.5q9 -31 21.5 -51t20.5 -28h-216q-6 6 -17.5 25.5t-20.5 45.5q-9 25 -13.5 57.5t-4.5 70.5l40 -28q-30 -58 -90.5 -101t-145 -67t-187.5 -24zM555 159q93 0 169.5 29.5t122.5 90t46 152.5v176l51 -67q-64 -25 -156.5 -40.5
t-190.5 -25.5q-135 -12 -203 -46.5t-68 -114.5q0 -77 56.5 -115.5t172.5 -38.5zM382 1495h131q0 -61 34 -102t92 -41q59 0 92.5 41t33.5 102h131q0 -108 -73.5 -170t-183.5 -62t-183.5 62t-73.5 170z" />
    <glyph glyph-name="Aogonek" unicode="&#x104;" horiz-adv-x="1266" 
d="M70 0l394 1478h341l390 -1478h-223l-339 1341h2l-341 -1341h-224zM298 375v180h672v-180h-672zM1196 -322v-109q-20 -3 -44.5 -5t-48.5 -2q-58 0 -107 15.5t-78.5 50t-29.5 90.5q0 54 31.5 107.5t76.5 99.5t84 75h116q-34 -30 -76 -75t-73 -92.5t-31 -84.5q0 -42 28 -60
t72 -18q19 0 41 2.5t39 5.5z" />
    <glyph glyph-name="aogonek" unicode="&#x105;" horiz-adv-x="1231" 
d="M510 -21q-120 0 -210.5 38t-140.5 109t-50 171q0 107 56.5 177t156 108.5t226.5 50.5q189 19 266.5 37t77.5 59v0.5v1.5q0 81 -69 123t-197 42q-135 0 -208.5 -47.5t-73.5 -150.5h-213q0 122 63.5 207t175.5 129.5t257 44.5q133 0 242.5 -40.5t174.5 -120.5t65 -199
v-41.5v-41.5v-424q0 -37 3 -71.5t11 -61.5q9 -31 21.5 -51t20.5 -28h-216q-6 6 -17.5 25.5t-20.5 45.5q-9 25 -13.5 57.5t-4.5 70.5l40 -28q-30 -58 -90.5 -101t-145 -67t-187.5 -24zM555 159q93 0 169.5 29.5t122.5 90t46 152.5v176l51 -67q-64 -25 -156.5 -40.5
t-190.5 -25.5q-135 -12 -203 -46.5t-68 -114.5q0 -77 56.5 -115.5t172.5 -38.5zM1165 -322v-109q-20 -3 -44.5 -5t-48.5 -2q-58 0 -106 16t-76.5 51t-28.5 91q0 52 30.5 105t74.5 99.5t83 75.5h116q-34 -30 -76 -75t-73 -92.5t-31 -84.5q0 -42 28 -60t72 -18q19 0 41 2.5
t39 5.5z" />
    <glyph glyph-name="Cacute" unicode="&#x106;" horiz-adv-x="1354" 
d="M1259 522q0 -92 -34 -187t-103 -176t-174 -130.5t-247 -49.5q-193 0 -328.5 97.5t-206.5 268.5t-71 392q0 222 71 392.5t206.5 267.5t328.5 97q161 0 274.5 -63t181 -162t89.5 -206q13 -58 13 -110h-218q0 28 -5 61q-11 80 -53.5 147t-113 107t-168.5 40
q-114 0 -201 -63.5t-135.5 -190.5t-48.5 -317q0 -189 48.5 -316.5t135.5 -192t201 -64.5q83 0 146 30t106 81t65.5 115t22.5 132h218zM558 1553l279 190h194l-297 -190h-176z" />
    <glyph glyph-name="cacute" unicode="&#x107;" horiz-adv-x="1262" 
d="M657 -21q-160 0 -286.5 67.5t-199 192.5t-72.5 294t72.5 291.5t199 188.5t286.5 66q121 0 215 -36.5t159 -96.5t99 -132t34 -144v-3v-4h-215q0 5 -1 11.5t-2 12.5q-8 59 -46 105t-100 73t-145 27q-91 0 -167.5 -39.5t-122.5 -119.5t-46 -200t45.5 -201.5t122 -123.5
t168.5 -42q99 0 162 30.5t95 82t37 111.5h215q0 -72 -33 -145.5t-97 -133.5t-158.5 -96t-218.5 -36zM505 1222l239 253h184l-263 -253h-160z" />
    <glyph glyph-name="Ccircumflex" unicode="&#x108;" horiz-adv-x="1354" 
d="M1259 522q0 -92 -34 -187t-103 -176t-174 -130.5t-247 -49.5q-193 0 -328.5 97.5t-206.5 268.5t-71 392q0 222 71 392.5t206.5 267.5t328.5 97q161 0 274.5 -63t181 -162t89.5 -206q13 -58 13 -110h-218q0 28 -5 61q-11 80 -53.5 147t-113 107t-168.5 40
q-114 0 -201 -63.5t-135.5 -190.5t-48.5 -317q0 -189 48.5 -316.5t135.5 -192t201 -64.5q83 0 146 30t106 81t65.5 115t22.5 132h218zM396 1552l222 188h156l223 -188h-153l-178 154h60l-179 -154h-151z" />
    <glyph glyph-name="ccircumflex" unicode="&#x109;" horiz-adv-x="1262" 
d="M657 -21q-160 0 -286.5 67.5t-199 192.5t-72.5 294t72.5 291.5t199 188.5t286.5 66q121 0 215 -36.5t159 -96.5t99 -132t34 -144v-3v-4h-215q0 5 -1 11.5t-2 12.5q-8 59 -46 105t-100 73t-145 27q-91 0 -167.5 -39.5t-122.5 -119.5t-46 -200t45.5 -201.5t122 -123.5
t168.5 -42q99 0 162 30.5t95 82t37 111.5h215q0 -72 -33 -145.5t-97 -133.5t-158.5 -96t-218.5 -36zM344 1222l220 253h150l221 -253h-148l-179 211h62l-180 -211h-146z" />
    <glyph glyph-name="Cdotaccent" unicode="&#x10a;" horiz-adv-x="1354" 
d="M1259 522q0 -92 -34 -187t-103 -176t-174 -130.5t-247 -49.5q-193 0 -328.5 97.5t-206.5 268.5t-71 392q0 222 71 392.5t206.5 267.5t328.5 97q161 0 274.5 -63t181 -162t89.5 -206q13 -58 13 -110h-218q0 28 -5 61q-11 80 -53.5 147t-113 107t-168.5 40
q-114 0 -201 -63.5t-135.5 -190.5t-48.5 -317q0 -189 48.5 -316.5t135.5 -192t201 -64.5q83 0 146 30t106 81t65.5 115t22.5 132h218zM699 1568q-55 0 -96 30.5t-41 83.5q0 54 41 84t96 30t95.5 -30t40.5 -84t-40.5 -84t-95.5 -30z" />
    <glyph glyph-name="cdotaccent" unicode="&#x10b;" horiz-adv-x="1262" 
d="M657 -21q-160 0 -286.5 67.5t-199 192.5t-72.5 294t72.5 291.5t199 188.5t286.5 66q121 0 215 -36.5t159 -96.5t99 -132t34 -144v-3v-4h-215q0 5 -1 11.5t-2 12.5q-8 59 -46 105t-100 73t-145 27q-91 0 -167.5 -39.5t-122.5 -119.5t-46 -200t45.5 -201.5t122 -123.5
t168.5 -42q99 0 162 30.5t95 82t37 111.5h215q0 -72 -33 -145.5t-97 -133.5t-158.5 -96t-218.5 -36zM640 1281q-55 0 -96 30.5t-41 83.5q0 54 41 84t96 30t95.5 -30t40.5 -84t-40.5 -84t-95.5 -30z" />
    <glyph glyph-name="Ccaron" unicode="&#x10c;" horiz-adv-x="1354" 
d="M1259 522q0 -92 -34 -187t-103 -176t-174 -130.5t-247 -49.5q-193 0 -328.5 97.5t-206.5 268.5t-71 392q0 222 71 392.5t206.5 267.5t328.5 97q161 0 274.5 -63t181 -162t89.5 -206q13 -58 13 -110h-218q0 28 -5 61q-11 80 -53.5 147t-113 107t-168.5 40
q-114 0 -201 -63.5t-135.5 -190.5t-48.5 -317q0 -189 48.5 -316.5t135.5 -192t201 -64.5q83 0 146 30t106 81t65.5 115t22.5 132h218zM396 1740h151l179 -155h-60l178 155h153l-223 -188h-156z" />
    <glyph glyph-name="ccaron" unicode="&#x10d;" horiz-adv-x="1262" 
d="M657 -21q-160 0 -286.5 67.5t-199 192.5t-72.5 294t72.5 291.5t199 188.5t286.5 66q121 0 215 -36.5t159 -96.5t99 -132t34 -144v-3v-4h-215q0 5 -1 11.5t-2 12.5q-8 59 -46 105t-100 73t-145 27q-91 0 -167.5 -39.5t-122.5 -119.5t-46 -200t45.5 -201.5t122 -123.5
t168.5 -42q99 0 162 30.5t95 82t37 111.5h215q0 -72 -33 -145.5t-97 -133.5t-158.5 -96t-218.5 -36zM344 1475h146l180 -211h-62l179 211h148l-221 -253h-150z" />
    <glyph glyph-name="Dcaron" unicode="&#x10e;" horiz-adv-x="1281" 
d="M135 0v1475h405q147 0 266 -52t203.5 -148t130.5 -232t46 -304q0 -169 -46 -305t-130.5 -233t-203.5 -149t-266 -52h-405zM353 66l-98 114h259q130 0 232.5 68t160.5 193.5t58 297.5q0 173 -58 297.5t-160.5 191.5t-232.5 67h-259l98 114v-1343zM313 1740h151l179 -155
h-60l178 155h153l-223 -188h-156z" />
    <glyph glyph-name="dcaron" unicode="&#x10f;" horiz-adv-x="1407" 
d="M582 -21q-131 0 -241 63.5t-176 187.5t-66 303q0 175 67 297t177 185.5t239 63.5q124 0 230.5 -60t171.5 -166.5t65 -245.5v-7.5v-6.5l-126 -4v6.5v6.5q0 83 -42 147.5t-110.5 102t-145.5 37.5q-129 0 -216 -86.5t-87 -269.5q0 -182 87.5 -269.5t215.5 -87.5
q80 0 148 38.5t109 105.5t41 153l126 -5q0 -138 -62.5 -249t-168 -175.5t-236.5 -64.5zM923 0v1563h218v-1563h-218zM1405 1563q0 -79 -9 -161t-19.5 -145.5t-16.5 -89.5h-106q6 27 13 89t11.5 143t4.5 164h122z" />
    <glyph glyph-name="Dcroat" unicode="&#x110;" horiz-adv-x="1281" 
d="M135 0v1475h405q147 0 266 -52t203.5 -148t130.5 -232t46 -304q0 -169 -46 -305t-130.5 -233t-203.5 -149t-266 -52h-405zM353 66l-98 114h259q130 0 232.5 68t160.5 193.5t58 297.5q0 173 -58 297.5t-160.5 191.5t-232.5 67h-259l98 114v-1343zM4 685v103h707v-103h-707
z" />
    <glyph glyph-name="dcroat" unicode="&#x111;" horiz-adv-x="1280" 
d="M556 1264v140h694v-140h-694zM582 -21q-131 0 -241 63.5t-176 187.5t-66 303q0 175 67 297t177 185.5t239 63.5q124 0 230.5 -60t171.5 -166.5t65 -245.5v-7.5v-6.5l-126 -4v6.5v6.5q0 83 -42 147.5t-110.5 102t-145.5 37.5q-129 0 -216 -86.5t-87 -269.5
q0 -182 87.5 -269.5t215.5 -87.5q80 0 148 38.5t109 105.5t41 153l126 -5q0 -138 -62.5 -249t-168 -175.5t-236.5 -64.5zM923 0v1563h218v-1563h-218z" />
    <glyph glyph-name="Emacron" unicode="&#x112;" horiz-adv-x="1106" 
d="M255 1295l98 114v-648l-52 69h559v-180h-559l52 69v-653l-98 114h716v-180h-836v1475h836v-180h-716zM288 1610v94h553v-94h-553z" />
    <glyph glyph-name="emacron" unicode="&#x113;" horiz-adv-x="1296" 
d="M219 455v169h782l-30 -50v12.5v11.5q0 81 -35 149.5t-104.5 110t-173.5 41.5t-182.5 -44.5t-122 -126t-43.5 -195.5q0 -116 42 -199.5t121 -128.5t189 -45q77 0 133.5 15.5t93 41.5t55.5 56.5t22 60.5h216q-6 -65 -42.5 -128.5t-103 -115t-162 -82t-219.5 -30.5
q-166 0 -291 70t-195 194.5t-70 285.5q0 164 71 288t197 193.5t289 69.5q166 0 287.5 -70t187.5 -193t66 -283q0 -19 -1 -44t-3 -34h-974zM378 1308v94h553v-94h-553z" />
    <glyph glyph-name="Ebreve" unicode="&#x114;" horiz-adv-x="1106" 
d="M255 1295l98 114v-648l-52 69h559v-180h-559l52 69v-653l-98 114h716v-180h-836v1475h836v-180h-716zM308 1722h132q0 -40 33.5 -69.5t91.5 -29.5q59 0 92 29.5t33 69.5h132q0 -83 -73.5 -135.5t-183.5 -52.5t-183.5 52.5t-73.5 135.5z" />
    <glyph glyph-name="ebreve" unicode="&#x115;" horiz-adv-x="1296" 
d="M219 455v169h782l-30 -50v12.5v11.5q0 81 -35 149.5t-104.5 110t-173.5 41.5t-182.5 -44.5t-122 -126t-43.5 -195.5q0 -116 42 -199.5t121 -128.5t189 -45q77 0 133.5 15.5t93 41.5t55.5 56.5t22 60.5h216q-6 -65 -42.5 -128.5t-103 -115t-162 -82t-219.5 -30.5
q-166 0 -291 70t-195 194.5t-70 285.5q0 164 71 288t197 193.5t289 69.5q166 0 287.5 -70t187.5 -193t66 -283q0 -19 -1 -44t-3 -34h-974zM397 1495h131q0 -61 34 -102t92 -41q59 0 92.5 41t33.5 102h131q0 -108 -73.5 -170t-183.5 -62t-183.5 62t-73.5 170z" />
    <glyph glyph-name="Edotaccent" unicode="&#x116;" horiz-adv-x="1106" 
d="M255 1295l98 114v-648l-52 69h559v-180h-559l52 69v-653l-98 114h716v-180h-836v1475h836v-180h-716zM568 1568q-55 0 -96 30.5t-41 83.5q0 54 41 84t96 30t95.5 -30t40.5 -84t-40.5 -84t-95.5 -30z" />
    <glyph glyph-name="edotaccent" unicode="&#x117;" horiz-adv-x="1296" 
d="M219 455v169h782l-30 -50v12.5v11.5q0 81 -35 149.5t-104.5 110t-173.5 41.5t-182.5 -44.5t-122 -126t-43.5 -195.5q0 -116 42 -199.5t121 -128.5t189 -45q77 0 133.5 15.5t93 41.5t55.5 56.5t22 60.5h216q-6 -65 -42.5 -128.5t-103 -115t-162 -82t-219.5 -30.5
q-166 0 -291 70t-195 194.5t-70 285.5q0 164 71 288t197 193.5t289 69.5q166 0 287.5 -70t187.5 -193t66 -283q0 -19 -1 -44t-3 -34h-974zM655 1281q-55 0 -96 30.5t-41 83.5q0 54 41 84t96 30t95.5 -30t40.5 -84t-40.5 -84t-95.5 -30z" />
    <glyph glyph-name="Eogonek" unicode="&#x118;" horiz-adv-x="1106" 
d="M255 1295l98 114v-648l-52 69h559v-180h-559l52 69v-653l-98 114h716v-180h-836v1475h836v-180h-716zM971 -322v-109q-20 -3 -44.5 -5t-48.5 -2q-58 0 -107 15.5t-78.5 50t-29.5 90.5q0 54 31.5 107.5t76.5 99.5t84 75h116q-34 -30 -76 -75t-73 -92.5t-31 -84.5
q0 -42 28 -60t72 -18q19 0 41 2.5t39 5.5z" />
    <glyph glyph-name="eogonek" unicode="&#x119;" horiz-adv-x="1296" 
d="M892 -302v-109q-19 -3 -44 -5t-49 -2q-58 0 -106 16t-76.5 51t-28.5 91q0 52 30.5 105.5t75 100t82.5 74.5h116q-34 -29 -76 -74.5t-73 -93t-31 -83.5q0 -42 28 -60t72 -18q20 0 41.5 2t38.5 5zM219 455v169h782l-30 -50v12.5v11.5q0 81 -35 149.5t-104.5 110
t-173.5 41.5t-182.5 -44.5t-122 -126t-43.5 -195.5q0 -116 42 -199.5t121 -128.5t189 -45q77 0 133.5 15.5t93 41.5t55.5 56.5t22 60.5h216q-6 -65 -42.5 -128.5t-103 -115t-162 -82t-219.5 -30.5q-166 0 -291 70t-195 194.5t-70 285.5q0 164 71 288t197 193.5t289 69.5
q166 0 287.5 -70t187.5 -193t66 -283q0 -19 -1 -44t-3 -34h-974z" />
    <glyph glyph-name="Ecaron" unicode="&#x11a;" horiz-adv-x="1106" 
d="M255 1295l98 114v-648l-52 69h559v-180h-559l52 69v-653l-98 114h716v-180h-836v1475h836v-180h-716zM265 1740h151l179 -155h-60l178 155h153l-223 -188h-156z" />
    <glyph glyph-name="ecaron" unicode="&#x11b;" horiz-adv-x="1296" 
d="M219 455v169h782l-30 -50v12.5v11.5q0 81 -35 149.5t-104.5 110t-173.5 41.5t-182.5 -44.5t-122 -126t-43.5 -195.5q0 -116 42 -199.5t121 -128.5t189 -45q77 0 133.5 15.5t93 41.5t55.5 56.5t22 60.5h216q-6 -65 -42.5 -128.5t-103 -115t-162 -82t-219.5 -30.5
q-166 0 -291 70t-195 194.5t-70 285.5q0 164 71 288t197 193.5t289 69.5q166 0 287.5 -70t187.5 -193t66 -283q0 -19 -1 -44t-3 -34h-974zM359 1475h146l180 -211h-62l179 211h148l-221 -253h-150z" />
    <glyph glyph-name="Gcircumflex" unicode="&#x11c;" horiz-adv-x="1390" 
d="M702 -21q-169 0 -306.5 89t-219 258t-81.5 409q0 241 83.5 410t226 259t319.5 90q145 0 245.5 -49t164 -126t92.5 -162.5t29 -160.5v-6v-6h-211v6v6q0 56 -19.5 111.5t-59 100.5t-100 72t-141.5 27q-110 0 -203 -60.5t-150 -187t-57 -324.5q0 -151 31.5 -259.5t86.5 -177
t127 -101.5t154 -33q110 0 181.5 37.5t111 93.5t50.5 111v135h-338v170h533v-711h-139l-16 164q-8 -17 -33 -47t-71.5 -62t-118 -54t-171.5 -22zM420 1552l222 188h156l223 -188h-153l-178 154h60l-179 -154h-151z" />
    <glyph glyph-name="gcircumflex" unicode="&#x11d;" horiz-adv-x="1232" 
d="M839 85q90 -8 158 -33.5t106.5 -75t38.5 -130.5q0 -91 -61.5 -158.5t-183.5 -105t-303 -37.5q-259 0 -395 75t-136 204q0 39 9 69t22 50l202 -30q-7 -10 -14 -29.5t-7 -47.5q0 -71 87 -101t241 -30q113 0 187.5 15.5t111.5 44.5t37 68q0 59 -51 74t-123 21l-403 33
q-105 9 -171.5 63t-66.5 136q0 51 26 95t60.5 74t59.5 37l142 -68q-23 -3 -55.5 -30.5t-32.5 -64.5q0 -34 28.5 -56t111.5 -29zM972 1062h197l-81 -415q-22 -116 -80.5 -209.5t-158 -147.5t-247.5 -54q-154 0 -265 53t-170.5 147.5t-59.5 215.5q0 123 61.5 220t170 152
t248.5 55q118 0 209.5 -40t145.5 -102t59 -129l-62 -7zM601 413q87 0 150 28.5t97 83t34 131.5q0 76 -34 130.5t-97 84t-149 29.5q-83 0 -146.5 -30.5t-99.5 -85.5t-36 -131t34 -129.5t97 -82t150 -28.5zM295 1222l220 253h150l221 -253h-148l-179 211h62l-180 -211h-146z
" />
    <glyph glyph-name="Gbreve" unicode="&#x11e;" horiz-adv-x="1390" 
d="M702 -21q-169 0 -306.5 89t-219 258t-81.5 409q0 241 83.5 410t226 259t319.5 90q145 0 245.5 -49t164 -126t92.5 -162.5t29 -160.5v-6v-6h-211v6v6q0 56 -19.5 111.5t-59 100.5t-100 72t-141.5 27q-110 0 -203 -60.5t-150 -187t-57 -324.5q0 -151 31.5 -259.5t86.5 -177
t127 -101.5t154 -33q110 0 181.5 37.5t111 93.5t50.5 111v135h-338v170h533v-711h-139l-16 164q-8 -17 -33 -47t-71.5 -62t-118 -54t-171.5 -22zM463 1722h132q0 -40 33.5 -69.5t91.5 -29.5q59 0 92 29.5t33 69.5h132q0 -83 -73.5 -135.5t-183.5 -52.5t-183.5 52.5
t-73.5 135.5z" />
    <glyph glyph-name="gbreve" unicode="&#x11f;" horiz-adv-x="1232" 
d="M839 85q90 -8 158 -33.5t106.5 -75t38.5 -130.5q0 -91 -61.5 -158.5t-183.5 -105t-303 -37.5q-259 0 -395 75t-136 204q0 39 9 69t22 50l202 -30q-7 -10 -14 -29.5t-7 -47.5q0 -71 87 -101t241 -30q113 0 187.5 15.5t111.5 44.5t37 68q0 59 -51 74t-123 21l-403 33
q-105 9 -171.5 63t-66.5 136q0 51 26 95t60.5 74t59.5 37l142 -68q-23 -3 -55.5 -30.5t-32.5 -64.5q0 -34 28.5 -56t111.5 -29zM972 1062h197l-81 -415q-22 -116 -80.5 -209.5t-158 -147.5t-247.5 -54q-154 0 -265 53t-170.5 147.5t-59.5 215.5q0 123 61.5 220t170 152
t248.5 55q118 0 209.5 -40t145.5 -102t59 -129l-62 -7zM601 413q87 0 150 28.5t97 83t34 131.5q0 76 -34 130.5t-97 84t-149 29.5q-83 0 -146.5 -30.5t-99.5 -85.5t-36 -131t34 -129.5t97 -82t150 -28.5zM334 1495h131q0 -61 34 -102t92 -41q59 0 92.5 41t33.5 102h131
q0 -108 -73.5 -170t-183.5 -62t-183.5 62t-73.5 170z" />
    <glyph glyph-name="Gdotaccent" unicode="&#x120;" horiz-adv-x="1390" 
d="M702 -21q-169 0 -306.5 89t-219 258t-81.5 409q0 241 83.5 410t226 259t319.5 90q145 0 245.5 -49t164 -126t92.5 -162.5t29 -160.5v-6v-6h-211v6v6q0 56 -19.5 111.5t-59 100.5t-100 72t-141.5 27q-110 0 -203 -60.5t-150 -187t-57 -324.5q0 -151 31.5 -259.5t86.5 -177
t127 -101.5t154 -33q110 0 181.5 37.5t111 93.5t50.5 111v135h-338v170h533v-711h-139l-16 164q-8 -17 -33 -47t-71.5 -62t-118 -54t-171.5 -22zM723 1568q-55 0 -96 30.5t-41 83.5q0 54 41 84t96 30t95.5 -30t40.5 -84t-40.5 -84t-95.5 -30z" />
    <glyph glyph-name="gdotaccent" unicode="&#x121;" horiz-adv-x="1232" 
d="M839 85q90 -8 158 -33.5t106.5 -75t38.5 -130.5q0 -91 -61.5 -158.5t-183.5 -105t-303 -37.5q-259 0 -395 75t-136 204q0 39 9 69t22 50l202 -30q-7 -10 -14 -29.5t-7 -47.5q0 -71 87 -101t241 -30q113 0 187.5 15.5t111.5 44.5t37 68q0 59 -51 74t-123 21l-403 33
q-105 9 -171.5 63t-66.5 136q0 51 26 95t60.5 74t59.5 37l142 -68q-23 -3 -55.5 -30.5t-32.5 -64.5q0 -34 28.5 -56t111.5 -29zM972 1062h197l-81 -415q-22 -116 -80.5 -209.5t-158 -147.5t-247.5 -54q-154 0 -265 53t-170.5 147.5t-59.5 215.5q0 123 61.5 220t170 152
t248.5 55q118 0 209.5 -40t145.5 -102t59 -129l-62 -7zM601 413q87 0 150 28.5t97 83t34 131.5q0 76 -34 130.5t-97 84t-149 29.5q-83 0 -146.5 -30.5t-99.5 -85.5t-36 -131t34 -129.5t97 -82t150 -28.5zM592 1281q-55 0 -96 30.5t-41 83.5q0 54 41 84t96 30t95.5 -30
t40.5 -84t-40.5 -84t-95.5 -30z" />
    <glyph glyph-name="uni0122" unicode="&#x122;" horiz-adv-x="1390" 
d="M702 -21q-169 0 -306.5 89t-219 258t-81.5 409q0 241 83.5 410t226 259t319.5 90q145 0 245.5 -49t164 -126t92.5 -162.5t29 -160.5v-6v-6h-211v6v6q0 56 -19.5 111.5t-59 100.5t-100 72t-141.5 27q-110 0 -203 -60.5t-150 -187t-57 -324.5q0 -151 31.5 -259.5t86.5 -177
t127 -101.5t154 -33q110 0 181.5 37.5t111 93.5t50.5 111v135h-338v170h533v-711h-139l-16 164q-8 -17 -33 -47t-71.5 -62t-118 -54t-171.5 -22zM696 -251q-38 0 -62.5 22t-24.5 58q0 43 32.5 64t71.5 21q25 0 50 -10.5t41.5 -33t16.5 -62.5q0 -69 -27.5 -119.5t-66.5 -82.5
t-77 -50l-16 40q28 12 58 36.5t50 61t20 82.5q-5 -12 -24.5 -19.5t-41.5 -7.5z" />
    <glyph glyph-name="uni0123" unicode="&#x123;" horiz-adv-x="1218" 
d="M602 1364q38 0 61 -22t23 -59t-24.5 -61.5t-71.5 -24.5q-49 0 -74 33.5t-25 83.5q0 49 22.5 87.5t57.5 65.5t74 42l16 -36q-28 -10 -53 -30t-40.5 -45.5t-15.5 -52.5q3 7 16.5 13t33.5 6zM831 65q86 -7 151.5 -31.5t102.5 -72t37 -124.5q0 -85 -58 -150.5t-176 -102.5
t-297 -37q-253 0 -382 73.5t-129 200.5q0 40 9.5 70.5t21.5 49.5l162 -24q-8 -11 -15.5 -33.5t-7.5 -52.5q0 -80 91 -112.5t258 -32.5q125 0 205 17t119 49t39 75q0 65 -54.5 80.5t-134.5 21.5l-404 30q-101 8 -164.5 62.5t-63.5 132.5q0 48 23.5 91t55 72.5t56.5 35.5
l134 -61q-25 -4 -61.5 -34.5t-36.5 -71.5q0 -37 29 -60.5t115 -30.5zM978 1062h160l-66 -418q-18 -117 -75 -211.5t-155.5 -150t-243.5 -55.5q-151 0 -258 55t-164 150.5t-57 215.5q0 122 59.5 219.5t165.5 154t243 56.5q123 0 215 -42.5t145.5 -106.5t59.5 -129l-64 -4z
M597 379q97 0 166.5 32t107 93t37.5 148q0 84 -37.5 145.5t-107 95t-165.5 33.5q-92 0 -162.5 -34.5t-110 -96.5t-39.5 -146q0 -85 37.5 -145.5t107 -92.5t166.5 -32z" />
    <glyph glyph-name="Hcircumflex" unicode="&#x124;" horiz-adv-x="1322" 
d="M1187 1475v-1475h-217v733l98 -88h-814l98 87v-732h-217v1475h217v-740l-98 91h814l-98 -91v740h217zM361 1552l222 188h156l223 -188h-153l-178 154h60l-179 -154h-151z" />
    <glyph glyph-name="hcircumflex" unicode="&#x125;" horiz-adv-x="1248" 
d="M899 0v389v63v75.5v64.5q0 143 -58.5 217t-191.5 74q-89 0 -154 -35t-100.5 -96t-35.5 -139l-102 42q0 121 58.5 216.5t161 151.5t234.5 56q192 0 298.5 -114.5t106.5 -318.5v-122.5v-153.5v-370h-217zM142 0v1563h217v-1563h-217zM-42 1713l220 253h150l221 -253h-148
l-179 211h62l-180 -211h-146z" />
    <glyph glyph-name="Hbar" unicode="&#x126;" horiz-adv-x="1322" 
d="M43 1083v140h1235v-140h-1235zM1187 1475v-1475h-217v733l98 -88h-814l98 87v-732h-217v1475h217v-740l-98 91h814l-98 -91v740h217z" />
    <glyph glyph-name="hbar" unicode="&#x127;" horiz-adv-x="1254" 
d="M19 1264v140h679v-140h-679zM905 0v389v63v75.5v64.5q0 143 -58.5 217t-191.5 74q-89 0 -154 -35t-100.5 -96t-35.5 -139l-102 42q0 121 58.5 216.5t161 151.5t234.5 56q192 0 298.5 -114.5t106.5 -318.5v-122.5v-153.5v-370h-217zM148 0v1563h217v-1563h-217z" />
    <glyph glyph-name="Itilde" unicode="&#x128;" horiz-adv-x="493" 
d="M139 0v1475h214v-1475h-214zM555 1726q-1 -37 -19 -79t-56 -72.5t-100 -30.5q-47 0 -81 19t-59 38q-22 18 -45.5 32t-54.5 14q-38 0 -53.5 -24.5t-17.5 -53.5h-119q2 39 22.5 82t61 73t101.5 30q47 0 80 -18.5t56 -37.5q23 -18 47.5 -33t51.5 -15q38 0 51.5 23.5
t14.5 52.5h119z" />
    <glyph glyph-name="itilde" unicode="&#x129;" horiz-adv-x="504" 
d="M145 0v1062h214v-1062h-214zM554 1453q-1 -37 -19 -79.5t-56 -73t-100 -30.5q-47 0 -81 19t-59 39q-22 17 -45.5 31t-54.5 14q-38 0 -53.5 -24t-17.5 -54h-119q2 39 22.5 82t61 73t101.5 30q47 0 80 -18.5t56 -36.5q23 -19 47.5 -34t51.5 -15q38 0 51.5 23.5t14.5 53.5
h119z" />
    <glyph glyph-name="Imacron" unicode="&#x12a;" horiz-adv-x="493" 
d="M139 0v1475h214v-1475h-214zM-30 1610v94h553v-94h-553z" />
    <glyph glyph-name="imacron" unicode="&#x12b;" horiz-adv-x="504" 
d="M145 0v1062h214v-1062h-214zM54 1308v94h397v-94h-397z" />
    <glyph glyph-name="Ibreve" unicode="&#x12c;" horiz-adv-x="493" 
d="M139 0v1475h214v-1475h-214zM-10 1722h132q0 -40 33.5 -69.5t91.5 -29.5q59 0 92 29.5t33 69.5h132q0 -83 -73.5 -135.5t-183.5 -52.5t-183.5 52.5t-73.5 135.5z" />
    <glyph glyph-name="ibreve" unicode="&#x12d;" horiz-adv-x="504" 
d="M145 0v1062h214v-1062h-214zM-5 1495h131q0 -61 34 -102t92 -41q59 0 92.5 41t33.5 102h131q0 -108 -73.5 -170t-183.5 -62t-183.5 62t-73.5 170z" />
    <glyph glyph-name="Iogonek" unicode="&#x12e;" horiz-adv-x="493" 
d="M139 0v1475h214v-1475h-214zM354 -322v-109q-20 -3 -44.5 -5t-48.5 -2q-58 0 -107 15.5t-78.5 50t-29.5 90.5q0 54 31.5 107.5t76.5 99.5t84 75h116q-34 -30 -76 -75t-73 -92.5t-31 -84.5q0 -42 28 -60t72 -18q19 0 41 2.5t39 5.5z" />
    <glyph glyph-name="iogonek" unicode="&#x12f;" horiz-adv-x="504" 
d="M145 0v1062h214v-1062h-214zM360 -322v-109q-20 -3 -44.5 -5t-48.5 -2q-58 0 -106 16t-76.5 51t-28.5 91q0 52 30.5 105t74.5 99.5t83 75.5h116q-34 -30 -76 -75t-73 -92.5t-31 -84.5q0 -42 28 -60t72 -18q19 0 41 2.5t39 5.5zM253 1281q-55 0 -96 30.5t-41 83.5
q0 54 41 84t96 30t95.5 -30t40.5 -84t-40.5 -84t-95.5 -30z" />
    <glyph glyph-name="Idotaccent" unicode="&#x130;" horiz-adv-x="493" 
d="M139 0v1475h214v-1475h-214zM250 1568q-55 0 -96 30.5t-41 83.5q0 54 41 84t96 30t95.5 -30t40.5 -84t-40.5 -84t-95.5 -30z" />
    <glyph glyph-name="dotlessi" unicode="&#x131;" horiz-adv-x="504" 
d="M145 0v1062h214v-1062h-214z" />
    <glyph glyph-name="Jcircumflex" unicode="&#x134;" horiz-adv-x="1111" 
d="M525 -21q-161 0 -260.5 61.5t-145 171.5t-45.5 257v31v30h214v-19v-22q0 -92 22.5 -165.5t74.5 -116.5t140 -43t139 43t73 120.5t22 179.5v968h217v-997q0 -106 -23 -197t-75.5 -158.5t-138.5 -105.5t-214 -38zM566 1552l222 188h156l223 -188h-153l-178 154h60
l-179 -154h-151z" />
    <glyph glyph-name="jcircumflex" unicode="&#x135;" horiz-adv-x="521" 
d="M-26 -450q-28 0 -53 2t-41 5v163q16 -4 41.5 -7t52.5 -3q63 0 99.5 18.5t54 48t23 65.5t5.5 70v1150h217v-1157q0 -66 -14 -129t-54.5 -114t-119.5 -81.5t-211 -30.5zM-29 1222l220 253h150l221 -253h-148l-179 211h62l-180 -211h-146z" />
    <glyph glyph-name="uni0136" unicode="&#x136;" horiz-adv-x="1222" 
d="M564 737l5 167l590 -904h-242l-477 736l105 -14l-214 -283l21 139v-578h-217v1475h217v-796l-42 35l581 761h234zM604 -251q-38 0 -62.5 22t-24.5 58q0 43 32.5 64t71.5 21q25 0 50 -10.5t41.5 -33t16.5 -62.5q0 -69 -27.5 -119.5t-66.5 -82.5t-77 -50l-16 40
q28 12 58 36.5t50 61t20 82.5q-5 -12 -24.5 -19.5t-41.5 -7.5z" />
    <glyph glyph-name="uni0137" unicode="&#x137;" horiz-adv-x="1067" 
d="M142 0v1563h206v-937l-53 25l474 411h273l-514 -455l52 97l462 -704h-231l-372 587l49 -15l-167 -148l27 99v-523h-206zM560 -251q-38 0 -62.5 22t-24.5 58q0 43 32.5 64t71.5 21q25 0 50 -10.5t41.5 -33t16.5 -62.5q0 -69 -27.5 -119.5t-66.5 -82.5t-77 -50l-16 40
q28 12 58 36.5t50 61t20 82.5q-5 -12 -24.5 -19.5t-41.5 -7.5z" />
    <glyph glyph-name="kgreenlandic" unicode="&#x138;" horiz-adv-x="963" 
d="M533 530l-19 121l428 -651h-232l-345 522l129 -23l-163 -211l17 129v-417h-206v1062h206v-573l-57 11l408 562h226z" />
    <glyph glyph-name="Lacute" unicode="&#x139;" horiz-adv-x="1006" 
d="M135 0v1475h217v-1409l-98 118h669v-184h-788zM104 1553l279 190h194l-297 -190h-176z" />
    <glyph glyph-name="lacute" unicode="&#x13a;" horiz-adv-x="519" 
d="M371 1563v-1563h-214v1563h214zM123 1641l279 190h194l-297 -190h-176z" />
    <glyph glyph-name="uni013B" unicode="&#x13b;" horiz-adv-x="1006" 
d="M135 0v1475h217v-1409l-98 118h669v-184h-788zM530 -251q-38 0 -62.5 22t-24.5 58q0 43 32.5 64t71.5 21q25 0 50 -10.5t41.5 -33t16.5 -62.5q0 -69 -27.5 -119.5t-66.5 -82.5t-77 -50l-16 40q28 12 58 36.5t50 61t20 82.5q-5 -12 -24.5 -19.5t-41.5 -7.5z" />
    <glyph glyph-name="uni013C" unicode="&#x13c;" horiz-adv-x="519" 
d="M371 1563v-1563h-214v1563h214zM242 -251q-38 0 -62.5 22t-24.5 58q0 43 32.5 64t71.5 21q25 0 50 -10.5t41.5 -33t16.5 -62.5q0 -69 -27.5 -119.5t-66.5 -82.5t-77 -50l-16 40q28 12 58 36.5t50 61t20 82.5q-5 -12 -24.5 -19.5t-41.5 -7.5z" />
    <glyph glyph-name="Lcaron" unicode="&#x13d;" horiz-adv-x="1006" 
d="M135 0v1475h217v-1409l-98 118h669v-184h-788zM852 1475q0 -79 -9 -161t-19.5 -145.5t-16.5 -89.5h-106q6 27 13 89t11.5 143t4.5 164h122z" />
    <glyph glyph-name="lcaron" unicode="&#x13e;" horiz-adv-x="626" 
d="M371 1563v-1563h-214v1563h214zM626 1563q0 -79 -9 -161t-19.5 -145.5t-16.5 -89.5h-106q6 27 13 89t11.5 143t4.5 164h122z" />
    <glyph glyph-name="Ldot" unicode="&#x13f;" horiz-adv-x="1006" 
d="M135 0v1475h217v-1409l-98 118h669v-184h-788zM747 677q-56 0 -94.5 38.5t-38.5 93.5t38.5 93.5t94.5 38.5q54 0 93 -38.5t39 -93.5t-39 -93.5t-93 -38.5z" />
    <glyph glyph-name="ldot" unicode="&#x140;" horiz-adv-x="726" 
d="M356 1563v-1563h-214v1563h214zM593 677q-56 0 -94.5 38.5t-38.5 93.5t38.5 93.5t94.5 38.5q54 0 93 -38.5t39 -93.5t-39 -93.5t-93 -38.5z" />
    <glyph glyph-name="Lslash" unicode="&#x141;" horiz-adv-x="1079" 
d="M726 829l-660 -438l-77 149l661 438zM208 0v1475h218v-1409l-98 118h669v-184h-789z" />
    <glyph glyph-name="lslash" unicode="&#x142;" horiz-adv-x="506" 
d="M-49 790l509 284l60 -116l-508 -284zM371 1563v-1563h-214v1563h214z" />
    <glyph glyph-name="Nacute" unicode="&#x143;" horiz-adv-x="1384" 
d="M346 0h-211v1475h346l582 -1372l-26 -10v1382h212v-1475h-351l-580 1370l28 9v-1379zM565 1553l279 190h194l-297 -190h-176z" />
    <glyph glyph-name="nacute" unicode="&#x144;" horiz-adv-x="1247" 
d="M898 0v490v73v56q0 78 -24 137.5t-79 93t-147 33.5q-81 0 -146.5 -40t-104 -108.5t-38.5 -155.5l-93 46q0 129 61 231.5t163.5 162.5t224.5 60q126 0 215.5 -48.5t137 -138t47.5 -213.5v-102v-108v-469h-217zM142 0v1062h217v-1062h-217zM511 1222l239 253h184l-263 -253
h-160z" />
    <glyph glyph-name="uni0145" unicode="&#x145;" horiz-adv-x="1384" 
d="M346 0h-211v1475h346l582 -1372l-26 -10v1382h212v-1475h-351l-580 1370l28 9v-1379zM684 -251q-38 0 -62.5 22t-24.5 58q0 43 32.5 64t71.5 21q25 0 50 -10.5t41.5 -33t16.5 -62.5q0 -69 -27.5 -119.5t-66.5 -82.5t-77 -50l-16 40q28 12 58 36.5t50 61t20 82.5
q-5 -12 -24.5 -19.5t-41.5 -7.5z" />
    <glyph glyph-name="uni0146" unicode="&#x146;" horiz-adv-x="1247" 
d="M898 0v490v73v56q0 78 -24 137.5t-79 93t-147 33.5q-81 0 -146.5 -40t-104 -108.5t-38.5 -155.5l-93 46q0 129 61 231.5t163.5 162.5t224.5 60q126 0 215.5 -48.5t137 -138t47.5 -213.5v-102v-108v-469h-217zM142 0v1062h217v-1062h-217zM602 -251q-38 0 -62.5 22
t-24.5 58q0 43 32.5 64t71.5 21q25 0 50 -10.5t41.5 -33t16.5 -62.5q0 -69 -27.5 -119.5t-66.5 -82.5t-77 -50l-16 40q28 12 58 36.5t50 61t20 82.5q-5 -12 -24.5 -19.5t-41.5 -7.5z" />
    <glyph glyph-name="Ncaron" unicode="&#x147;" horiz-adv-x="1384" 
d="M346 0h-211v1475h346l582 -1372l-26 -10v1382h212v-1475h-351l-580 1370l28 9v-1379zM403 1740h151l179 -155h-60l178 155h153l-223 -188h-156z" />
    <glyph glyph-name="ncaron" unicode="&#x148;" horiz-adv-x="1247" 
d="M898 0v490v73v56q0 78 -24 137.5t-79 93t-147 33.5q-81 0 -146.5 -40t-104 -108.5t-38.5 -155.5l-93 46q0 129 61 231.5t163.5 162.5t224.5 60q126 0 215.5 -48.5t137 -138t47.5 -213.5v-102v-108v-469h-217zM142 0v1062h217v-1062h-217zM349 1475h146l180 -211h-62
l179 211h148l-221 -253h-150z" />
    <glyph glyph-name="Eng" unicode="&#x14a;" horiz-adv-x="1384" 
d="M787 -457q-34 0 -64.5 4t-41.5 8v159q14 -4 46 -8.5t61 -4.5q66 0 112.5 19.5t76 52.5t43.5 76t14 89v62h-123l-584 1336l19 4v-1340h-211v1475h342l588 -1347l-28 -4v1351h212v-1532q0 -95 -24.5 -169t-78.5 -125.5t-142.5 -78.5t-216.5 -27z" />
    <glyph glyph-name="eng" unicode="&#x14b;" horiz-adv-x="1231" 
d="M638 -457v158q65 0 111 19.5t75.5 52.5t43.5 76t14 89v552v64.5v64.5q0 78 -20 137.5t-71 93t-143 33.5q-81 0 -146.5 -40t-104 -108.5t-38.5 -155.5l-93 46q0 129 61 231.5t163.5 162.5t224.5 60q126 0 211.5 -48.5t129 -138t43.5 -213.5v-104.5v-105.5v-526
q0 -95 -24 -169t-78 -125.5t-142 -78.5t-217 -27zM142 0v1062h217v-1062h-217z" />
    <glyph glyph-name="Omacron" unicode="&#x14c;" horiz-adv-x="1419" 
d="M709 -21q-132 0 -243.5 50.5t-195 148t-129.5 239t-46 322.5q0 182 46 322.5t129.5 237t195.5 146t243 49.5q132 0 244.5 -49.5t195.5 -146t129 -237t46 -322.5q0 -181 -46 -322.5t-129.5 -239t-195.5 -148t-244 -50.5zM709 164q113 0 202.5 62t140.5 189.5t51 323.5
q0 197 -51.5 323t-140.5 186t-202 60q-111 0 -200.5 -60t-141.5 -186t-52 -323t52 -324.5t141.5 -189t200.5 -61.5zM432 1610v94h553v-94h-553z" />
    <glyph glyph-name="omacron" unicode="&#x14d;" horiz-adv-x="1310" 
d="M655 -20q-164 0 -289.5 71t-196 195.5t-70.5 285.5q0 160 70.5 283.5t196 193t289.5 69.5t289.5 -69.5t196 -193t70.5 -283.5q0 -161 -70.5 -285.5t-196 -195.5t-289.5 -71zM655 166q100 0 176 45t119 127.5t43 193.5q0 110 -43 191t-119 125t-176 44q-99 0 -175.5 -44
t-119.5 -125t-43 -191q0 -111 43 -193.5t119.5 -127.5t175.5 -45zM379 1308v94h553v-94h-553z" />
    <glyph glyph-name="Obreve" unicode="&#x14e;" horiz-adv-x="1419" 
d="M709 -21q-132 0 -243.5 50.5t-195 148t-129.5 239t-46 322.5q0 182 46 322.5t129.5 237t195.5 146t243 49.5q132 0 244.5 -49.5t195.5 -146t129 -237t46 -322.5q0 -181 -46 -322.5t-129.5 -239t-195.5 -148t-244 -50.5zM709 164q113 0 202.5 62t140.5 189.5t51 323.5
q0 197 -51.5 323t-140.5 186t-202 60q-111 0 -200.5 -60t-141.5 -186t-52 -323t52 -324.5t141.5 -189t200.5 -61.5zM452 1722h132q0 -40 33.5 -69.5t91.5 -29.5q59 0 92 29.5t33 69.5h132q0 -83 -73.5 -135.5t-183.5 -52.5t-183.5 52.5t-73.5 135.5z" />
    <glyph glyph-name="obreve" unicode="&#x14f;" horiz-adv-x="1310" 
d="M655 -20q-164 0 -289.5 71t-196 195.5t-70.5 285.5q0 160 70.5 283.5t196 193t289.5 69.5t289.5 -69.5t196 -193t70.5 -283.5q0 -161 -70.5 -285.5t-196 -195.5t-289.5 -71zM655 166q100 0 176 45t119 127.5t43 193.5q0 110 -43 191t-119 125t-176 44q-99 0 -175.5 -44
t-119.5 -125t-43 -191q0 -111 43 -193.5t119.5 -127.5t175.5 -45zM399 1495h131q0 -61 34 -102t92 -41q59 0 92.5 41t33.5 102h131q0 -108 -73.5 -170t-183.5 -62t-183.5 62t-73.5 170z" />
    <glyph glyph-name="Ohungarumlaut" unicode="&#x150;" horiz-adv-x="1419" 
d="M709 -21q-132 0 -243.5 50.5t-195 148t-129.5 239t-46 322.5q0 182 46 322.5t129.5 237t195.5 146t243 49.5q132 0 244.5 -49.5t195.5 -146t129 -237t46 -322.5q0 -181 -46 -322.5t-129.5 -239t-195.5 -148t-244 -50.5zM709 164q113 0 202.5 62t140.5 189.5t51 323.5
q0 197 -51.5 323t-140.5 186t-202 60q-111 0 -200.5 -60t-141.5 -186t-52 -323t52 -324.5t141.5 -189t200.5 -61.5zM484 1553l234 190h159l-256 -190h-137zM786 1553l234 190h158l-256 -190h-136z" />
    <glyph glyph-name="ohungarumlaut" unicode="&#x151;" horiz-adv-x="1310" 
d="M655 -20q-164 0 -289.5 71t-196 195.5t-70.5 285.5q0 160 70.5 283.5t196 193t289.5 69.5t289.5 -69.5t196 -193t70.5 -283.5q0 -161 -70.5 -285.5t-196 -195.5t-289.5 -71zM655 166q100 0 176 45t119 127.5t43 193.5q0 110 -43 191t-119 125t-176 44q-99 0 -175.5 -44
t-119.5 -125t-43 -191q0 -111 43 -193.5t119.5 -127.5t175.5 -45zM424 1222l157 253h151l-188 -253h-120zM744 1222l166 253h152l-198 -253h-120z" />
    <glyph glyph-name="OE" unicode="&#x152;" horiz-adv-x="2068" 
d="M697 -21q-175 0 -311 89t-213.5 259t-77.5 412q0 243 77.5 411t213.5 256t311 88q144 0 247 -52.5t153 -131.5v165h836v-180h-725l98 114v-641l-54 62h602v-180h-604l56 63v-647l-98 114h725v-180h-836v178q-50 -83 -153 -141t-247 -58zM697 164q113 0 203.5 62
t142.5 189.5t52 323.5q0 197 -52.5 323t-142.5 186t-203 60q-111 0 -197.5 -60t-135.5 -186t-49 -323t49 -324.5t135.5 -189t197.5 -61.5z" />
    <glyph glyph-name="oe" unicode="&#x153;" horiz-adv-x="2192" 
d="M655 -20q-164 0 -289.5 71t-196 195.5t-70.5 285.5q0 160 70.5 283.5t196 193t289.5 69.5q109 0 202 -32t165 -91t116 -140l-71 -1q46 82 118 141.5t165 91.5t202 32q166 0 287.5 -70t187.5 -193t66 -283q0 -19 -1 -44t-3 -34h-976l93 77q-1 -12 -0.5 -24.5t1.5 -25.5
q9 -104 51.5 -176t117 -109t181.5 -37q80 0 136.5 15.5t92.5 41.5t54.5 56.5t21.5 60.5h216q-6 -65 -42.5 -128.5t-103 -115t-162 -82t-219.5 -30.5q-110 0 -203.5 32.5t-165 92.5t-116.5 142l71 -1q-45 -80 -117 -140t-164 -92t-201 -32zM655 166q100 0 176.5 45
t119.5 127.5t43 193.5q0 110 -43 191t-119.5 125t-176.5 44q-99 0 -176 -44t-120 -125t-43 -191q0 -111 43 -193.5t120 -127.5t176 -45zM1214 624h651v6v5q-2 72 -38.5 132t-105.5 96t-167 36q-95 0 -166.5 -33.5t-115.5 -95t-58 -146.5z" />
    <glyph glyph-name="Racute" unicode="&#x154;" horiz-adv-x="1218" 
d="M135 0v1475h540q213 0 322 -99t109 -297q0 -116 -44.5 -198t-107 -126.5t-117.5 -50.5q56 -4 109 -30t88 -80t35 -146v-158v-159q0 -45 7.5 -81.5t18.5 -49.5h-219q-9 15 -16 50t-7 81v145v146q0 95 -56.5 142.5t-164.5 47.5h-344l59 77v-689h-212zM347 707l-59 85h346
q70 0 126 33.5t89.5 94t33.5 141.5q0 122 -67 178t-192 56h-341l64 83v-671zM422 1553l279 190h194l-297 -190h-176z" />
    <glyph glyph-name="racute" unicode="&#x155;" horiz-adv-x="843" 
d="M142 0v1062h217v-339l-58 26q7 65 33 124t69.5 105.5t107.5 73.5t148 27q64 0 103.5 -10t48.5 -16l-46 -204q-10 7 -40.5 18t-84.5 11q-82 0 -136 -29t-86 -77t-45.5 -104.5t-13.5 -113.5v-554h-217zM382 1222l239 253h184l-263 -253h-160z" />
    <glyph glyph-name="uni0156" unicode="&#x156;" horiz-adv-x="1218" 
d="M135 0v1475h540q213 0 322 -99t109 -297q0 -116 -44.5 -198t-107 -126.5t-117.5 -50.5q56 -4 109 -30t88 -80t35 -146v-158v-159q0 -45 7.5 -81.5t18.5 -49.5h-219q-9 15 -16 50t-7 81v145v146q0 95 -56.5 142.5t-164.5 47.5h-344l59 77v-689h-212zM347 707l-59 85h346
q70 0 126 33.5t89.5 94t33.5 141.5q0 122 -67 178t-192 56h-341l64 83v-671zM600 -251q-38 0 -62.5 22t-24.5 58q0 43 32.5 64t71.5 21q25 0 50 -10.5t41.5 -33t16.5 -62.5q0 -69 -27.5 -119.5t-66.5 -82.5t-77 -50l-16 40q28 12 58 36.5t50 61t20 82.5q-5 -12 -24.5 -19.5
t-41.5 -7.5z" />
    <glyph glyph-name="uni0157" unicode="&#x157;" horiz-adv-x="843" 
d="M142 0v1062h217v-339l-58 26q7 65 33 124t69.5 105.5t107.5 73.5t148 27q64 0 103.5 -10t48.5 -16l-46 -204q-10 7 -40.5 18t-84.5 11q-82 0 -136 -29t-86 -77t-45.5 -104.5t-13.5 -113.5v-554h-217zM232 -251q-38 0 -62.5 22t-24.5 58q0 43 32.5 64t71.5 21
q25 0 50 -10.5t41.5 -33t16.5 -62.5q0 -69 -27.5 -119.5t-66.5 -82.5t-77 -50l-16 40q28 12 58 36.5t50 61t20 82.5q-5 -12 -24.5 -19.5t-41.5 -7.5z" />
    <glyph glyph-name="Rcaron" unicode="&#x158;" horiz-adv-x="1218" 
d="M135 0v1475h540q213 0 322 -99t109 -297q0 -116 -44.5 -198t-107 -126.5t-117.5 -50.5q56 -4 109 -30t88 -80t35 -146v-158v-159q0 -45 7.5 -81.5t18.5 -49.5h-219q-9 15 -16 50t-7 81v145v146q0 95 -56.5 142.5t-164.5 47.5h-344l59 77v-689h-212zM347 707l-59 85h346
q70 0 126 33.5t89.5 94t33.5 141.5q0 122 -67 178t-192 56h-341l64 83v-671zM260 1740h151l179 -155h-60l178 155h153l-223 -188h-156z" />
    <glyph glyph-name="rcaron" unicode="&#x159;" horiz-adv-x="843" 
d="M142 0v1062h217v-339l-58 26q7 65 33 124t69.5 105.5t107.5 73.5t148 27q64 0 103.5 -10t48.5 -16l-46 -204q-10 7 -40.5 18t-84.5 11q-82 0 -136 -29t-86 -77t-45.5 -104.5t-13.5 -113.5v-554h-217zM220 1475h146l180 -211h-62l179 211h148l-221 -253h-150z" />
    <glyph glyph-name="Sacute" unicode="&#x15a;" horiz-adv-x="1198" 
d="M599 -21q-156 0 -268.5 49t-174 148.5t-61.5 246.5v33v32h217v-29.5v-31.5q0 -136 73 -199.5t213 -63.5q143 0 218 48.5t75 156.5q0 77 -46.5 129.5t-128 90.5t-187.5 71q-119 37 -215 94.5t-152.5 144t-56.5 211.5q0 123 62 209t172 130.5t252 44.5q151 0 263.5 -46.5
t175 -140t62.5 -235.5v-34.5v-35.5h-218v31v30q0 130 -70.5 188t-208.5 58q-134 0 -206.5 -47t-72.5 -152q0 -78 46.5 -130t128 -89t185.5 -72q132 -44 227.5 -99t147.5 -137t52 -207q0 -126 -62 -215t-175 -135.5t-267 -46.5zM460 1553l279 190h194l-297 -190h-176z" />
    <glyph glyph-name="sacute" unicode="&#x15b;" horiz-adv-x="1124" 
d="M560 -21q-95 0 -179 21t-147.5 61.5t-99 100.5t-35.5 139v14.5v12.5h216v-9v-11q0 -73 67.5 -110.5t183.5 -37.5q68 0 124.5 14t90 43t33.5 74q0 73 -71.5 104t-216.5 55q-79 14 -152.5 36t-132 58.5t-93 91t-34.5 131.5q0 100 60 170t162 106t225 36q119 0 220.5 -38.5
t163.5 -111t62 -177.5v-9v-9h-215v7v7q0 52 -33 85t-85.5 49.5t-111.5 16.5q-54 0 -108.5 -11.5t-90.5 -39t-36 -74.5q0 -48 35 -76.5t99 -47t149 -33.5q78 -14 152 -35.5t133.5 -56.5t95 -90t35.5 -135q0 -83 -38 -143t-103.5 -99.5t-149 -59t-175.5 -19.5zM428 1222
l239 253h184l-263 -253h-160z" />
    <glyph glyph-name="Scircumflex" unicode="&#x15c;" horiz-adv-x="1198" 
d="M599 -21q-156 0 -268.5 49t-174 148.5t-61.5 246.5v33v32h217v-29.5v-31.5q0 -136 73 -199.5t213 -63.5q143 0 218 48.5t75 156.5q0 77 -46.5 129.5t-128 90.5t-187.5 71q-119 37 -215 94.5t-152.5 144t-56.5 211.5q0 123 62 209t172 130.5t252 44.5q151 0 263.5 -46.5
t175 -140t62.5 -235.5v-34.5v-35.5h-218v31v30q0 130 -70.5 188t-208.5 58q-134 0 -206.5 -47t-72.5 -152q0 -78 46.5 -130t128 -89t185.5 -72q132 -44 227.5 -99t147.5 -137t52 -207q0 -126 -62 -215t-175 -135.5t-267 -46.5zM297 1552l222 188h156l223 -188h-153l-178 154
h60l-179 -154h-151z" />
    <glyph glyph-name="scircumflex" unicode="&#x15d;" horiz-adv-x="1124" 
d="M560 -21q-95 0 -179 21t-147.5 61.5t-99 100.5t-35.5 139v14.5v12.5h216v-9v-11q0 -73 67.5 -110.5t183.5 -37.5q68 0 124.5 14t90 43t33.5 74q0 73 -71.5 104t-216.5 55q-79 14 -152.5 36t-132 58.5t-93 91t-34.5 131.5q0 100 60 170t162 106t225 36q119 0 220.5 -38.5
t163.5 -111t62 -177.5v-9v-9h-215v7v7q0 52 -33 85t-85.5 49.5t-111.5 16.5q-54 0 -108.5 -11.5t-90.5 -39t-36 -74.5q0 -48 35 -76.5t99 -47t149 -33.5q78 -14 152 -35.5t133.5 -56.5t95 -90t35.5 -135q0 -83 -38 -143t-103.5 -99.5t-149 -59t-175.5 -19.5zM267 1222
l220 253h150l221 -253h-148l-179 211h62l-180 -211h-146z" />
    <glyph glyph-name="Scedilla" unicode="&#x15e;" horiz-adv-x="1198" 
d="M690 -91q34 0 66.5 -16t53.5 -48.5t21 -84.5q0 -62 -35 -102t-91.5 -60t-120.5 -20q-59 0 -112 14t-73 28l45 85q16 -10 56.5 -25t91.5 -15q58 0 98.5 25.5t40.5 73.5q0 40 -21.5 58t-54.5 18q-24 0 -50 -10t-40 -27l-87 26l70 171h98l-62 -151l-13 5q9 21 43 38t76 17z
M599 -21q-156 0 -268.5 49t-174 148.5t-61.5 246.5v33v32h217v-29.5v-31.5q0 -136 73 -199.5t213 -63.5q143 0 218 48.5t75 156.5q0 77 -46.5 129.5t-128 90.5t-187.5 71q-119 37 -215 94.5t-152.5 144t-56.5 211.5q0 123 62 209t172 130.5t252 44.5q151 0 263.5 -46.5
t175 -140t62.5 -235.5v-34.5v-35.5h-218v31v30q0 130 -70.5 188t-208.5 58q-134 0 -206.5 -47t-72.5 -152q0 -78 46.5 -130t128 -89t185.5 -72q132 -44 227.5 -99t147.5 -137t52 -207q0 -126 -62 -215t-175 -135.5t-267 -46.5z" />
    <glyph glyph-name="scedilla" unicode="&#x15f;" horiz-adv-x="1122" 
d="M657 -106q34 0 66.5 -15.5t54 -48t21.5 -84.5q0 -63 -35.5 -103t-92 -60t-120.5 -20q-58 0 -111.5 14t-73.5 28l45 85q16 -10 56.5 -25t91.5 -15q59 0 99 25.5t40 74.5q0 39 -21.5 57t-53.5 18q-25 0 -51 -10t-40 -27l-90 26l70 171h104l-61 -151l-25 5q10 22 47.5 38.5
t79.5 16.5zM560 -21q-95 0 -179 21t-147.5 61.5t-99 100.5t-35.5 139v14.5v12.5h216v-9v-11q0 -73 67.5 -110.5t183.5 -37.5q68 0 124.5 14t90 43t33.5 74q0 73 -71.5 104t-216.5 55q-79 14 -152.5 36t-132 58.5t-93 91t-34.5 131.5q0 100 60 170t162 106t225 36
q119 0 220.5 -38.5t163.5 -111t62 -177.5v-9v-9h-215v7v7q0 52 -33 85t-85.5 49.5t-111.5 16.5q-54 0 -108.5 -11.5t-90.5 -39t-36 -74.5q0 -48 35 -76.5t99 -47t149 -33.5q78 -14 152 -35.5t133.5 -56.5t95 -90t35.5 -135q0 -83 -38 -143t-103.5 -99.5t-149 -59
t-175.5 -19.5z" />
    <glyph glyph-name="Scaron" unicode="&#x160;" horiz-adv-x="1198" 
d="M599 -21q-156 0 -268.5 49t-174 148.5t-61.5 246.5v33v32h217v-29.5v-31.5q0 -136 73 -199.5t213 -63.5q143 0 218 48.5t75 156.5q0 77 -46.5 129.5t-128 90.5t-187.5 71q-119 37 -215 94.5t-152.5 144t-56.5 211.5q0 123 62 209t172 130.5t252 44.5q151 0 263.5 -46.5
t175 -140t62.5 -235.5v-34.5v-35.5h-218v31v30q0 130 -70.5 188t-208.5 58q-134 0 -206.5 -47t-72.5 -152q0 -78 46.5 -130t128 -89t185.5 -72q132 -44 227.5 -99t147.5 -137t52 -207q0 -126 -62 -215t-175 -135.5t-267 -46.5zM297 1740h151l179 -155h-60l178 155h153
l-223 -188h-156z" />
    <glyph glyph-name="scaron" unicode="&#x161;" horiz-adv-x="1124" 
d="M560 -21q-95 0 -179 21t-147.5 61.5t-99 100.5t-35.5 139v14.5v12.5h216v-9v-11q0 -73 67.5 -110.5t183.5 -37.5q68 0 124.5 14t90 43t33.5 74q0 73 -71.5 104t-216.5 55q-79 14 -152.5 36t-132 58.5t-93 91t-34.5 131.5q0 100 60 170t162 106t225 36q119 0 220.5 -38.5
t163.5 -111t62 -177.5v-9v-9h-215v7v7q0 52 -33 85t-85.5 49.5t-111.5 16.5q-54 0 -108.5 -11.5t-90.5 -39t-36 -74.5q0 -48 35 -76.5t99 -47t149 -33.5q78 -14 152 -35.5t133.5 -56.5t95 -90t35.5 -135q0 -83 -38 -143t-103.5 -99.5t-149 -59t-175.5 -19.5zM267 1475h146
l180 -211h-62l179 211h148l-221 -253h-150z" />
    <glyph glyph-name="uni0162" unicode="&#x162;" horiz-adv-x="1122" 
d="M1048 1295h-447l68 114v-1409h-217v1409l75 -114h-453v180h974v-180zM653 -91q34 0 66.5 -16t53.5 -48.5t21 -84.5q0 -62 -35 -102t-91.5 -60t-120.5 -20q-59 0 -112 14t-73 28l45 85q16 -10 56.5 -25t91.5 -15q58 0 98.5 25.5t40.5 73.5q0 40 -21.5 58t-54.5 18
q-24 0 -50 -10t-40 -27l-87 26l70 171h98l-62 -151l-13 5q9 21 43 38t76 17z" />
    <glyph glyph-name="uni0163" unicode="&#x163;" horiz-adv-x="906" 
d="M596 -18q-53 0 -105.5 11t-96 40.5t-69.5 84.5t-26 144v44v47v529h-255v180h134q43 0 67.5 3.5t36 17t14.5 43.5t3 82v205h217v-351h325v-180h-325v-471v-40v-37q0 -80 19.5 -126t89.5 -46q30 0 57 5t41 11v-177q-18 -7 -51 -13t-76 -6zM614 -91q34 0 66.5 -16
t53.5 -48.5t21 -84.5q0 -62 -35 -102t-91.5 -60t-120.5 -20q-59 0 -112 14t-73 28l45 85q16 -10 56.5 -25t91.5 -15q58 0 98.5 25.5t40.5 73.5q0 40 -21.5 58t-54.5 18q-24 0 -50 -10t-40 -27l-91 26l70 171h105l-61 -151l-25 5q9 21 47 38t80 17z" />
    <glyph glyph-name="Tcaron" unicode="&#x164;" horiz-adv-x="1122" 
d="M1048 1295h-447l68 114v-1409h-217v1409l75 -114h-453v180h974v-180zM260 1740h151l179 -155h-60l178 155h153l-223 -188h-156z" />
    <glyph glyph-name="tcaron" unicode="&#x165;" horiz-adv-x="886" 
d="M596 -18q-53 0 -105.5 11t-96 40.5t-69.5 84.5t-26 144v44v47v529h-255v180h134q43 0 67.5 3.5t36 17t14.5 43.5t3 82v205h217v-351h325v-180h-325v-471v-40v-37q0 -80 19.5 -126t89.5 -46q30 0 57 5t41 11v-177q-18 -7 -51 -13t-76 -6zM831 1563q0 -79 -9 -161
t-19.5 -145.5t-16.5 -89.5h-106q6 27 13 89t11.5 143t4.5 164h122z" />
    <glyph glyph-name="Tbar" unicode="&#x166;" horiz-adv-x="1122" 
d="M207 687v102h707v-102h-707zM1048 1295h-447l68 114v-1409h-217v1409l75 -114h-453v180h974v-180z" />
    <glyph glyph-name="tbar" unicode="&#x167;" horiz-adv-x="906" 
d="M90 545v141h617v-141h-617zM596 -18q-53 0 -105.5 11t-96 40.5t-69.5 84.5t-26 144v44v47v529h-255v180h134q43 0 67.5 3.5t36 17t14.5 43.5t3 82v205h217v-351h325v-180h-325v-471v-40v-37q0 -80 19.5 -126t89.5 -46q30 0 57 5t41 11v-177q-18 -7 -51 -13t-76 -6z" />
    <glyph glyph-name="Utilde" unicode="&#x168;" horiz-adv-x="1314" 
d="M1179 540q0 -284 -139 -422.5t-384 -138.5q-244 0 -382.5 138.5t-138.5 422.5v89.5v99.5v746h217v-770v-89v-75q0 -200 76 -288.5t228 -88.5q153 0 229.5 88.5t76.5 288.5v934h217v-935zM964 1726q-1 -37 -19 -79t-56 -72.5t-100 -30.5q-47 0 -81 19t-59 38
q-22 18 -45.5 32t-54.5 14q-38 0 -53.5 -24.5t-17.5 -53.5h-119q2 39 22.5 82t61 73t101.5 30q47 0 80 -18.5t56 -37.5q23 -18 47.5 -33t51.5 -15q38 0 51.5 23.5t14.5 52.5h119z" />
    <glyph glyph-name="utilde" unicode="&#x169;" horiz-adv-x="1222" 
d="M529 -19q-113 0 -188 38.5t-119 101t-62 137t-18 145.5v77.5v81.5v500h218v-469v-70.5v-64.5q0 -77 20 -141.5t70.5 -104t141.5 -39.5q85 0 148 50.5t98 128t35 155.5l95 -51q0 -92 -30.5 -177t-87.5 -152.5t-138.5 -106.5t-182.5 -39zM873 0v1062h217v-1062h-217z
M901 1453q-1 -37 -19 -79.5t-56 -73t-100 -30.5q-47 0 -81 19t-59 39q-22 17 -45.5 31t-54.5 14q-38 0 -53.5 -24t-17.5 -54h-119q2 39 22.5 82t61 73t101.5 30q47 0 80 -18.5t56 -36.5q23 -19 47.5 -34t51.5 -15q38 0 51.5 23.5t14.5 53.5h119z" />
    <glyph glyph-name="Umacron" unicode="&#x16a;" horiz-adv-x="1314" 
d="M1179 540q0 -284 -139 -422.5t-384 -138.5q-244 0 -382.5 138.5t-138.5 422.5v89.5v99.5v746h217v-770v-89v-75q0 -200 76 -288.5t228 -88.5q153 0 229.5 88.5t76.5 288.5v934h217v-935zM379 1610v94h553v-94h-553z" />
    <glyph glyph-name="umacron" unicode="&#x16b;" horiz-adv-x="1222" 
d="M529 -19q-113 0 -188 38.5t-119 101t-62 137t-18 145.5v77.5v81.5v500h218v-469v-70.5v-64.5q0 -77 20 -141.5t70.5 -104t141.5 -39.5q85 0 148 50.5t98 128t35 155.5l95 -51q0 -92 -30.5 -177t-87.5 -152.5t-138.5 -106.5t-182.5 -39zM873 0v1062h217v-1062h-217z
M323 1308v94h553v-94h-553z" />
    <glyph glyph-name="Ubreve" unicode="&#x16c;" horiz-adv-x="1314" 
d="M1179 540q0 -284 -139 -422.5t-384 -138.5q-244 0 -382.5 138.5t-138.5 422.5v89.5v99.5v746h217v-770v-89v-75q0 -200 76 -288.5t228 -88.5q153 0 229.5 88.5t76.5 288.5v934h217v-935zM399 1722h132q0 -40 33.5 -69.5t91.5 -29.5q59 0 92 29.5t33 69.5h132
q0 -83 -73.5 -135.5t-183.5 -52.5t-183.5 52.5t-73.5 135.5z" />
    <glyph glyph-name="ubreve" unicode="&#x16d;" horiz-adv-x="1222" 
d="M529 -19q-113 0 -188 38.5t-119 101t-62 137t-18 145.5v77.5v81.5v500h218v-469v-70.5v-64.5q0 -77 20 -141.5t70.5 -104t141.5 -39.5q85 0 148 50.5t98 128t35 155.5l95 -51q0 -92 -30.5 -177t-87.5 -152.5t-138.5 -106.5t-182.5 -39zM873 0v1062h217v-1062h-217z
M342 1495h131q0 -61 34 -102t92 -41q59 0 92.5 41t33.5 102h131q0 -108 -73.5 -170t-183.5 -62t-183.5 62t-73.5 170z" />
    <glyph glyph-name="Uring" unicode="&#x16e;" horiz-adv-x="1314" 
d="M1179 540q0 -284 -139 -422.5t-384 -138.5q-244 0 -382.5 138.5t-138.5 422.5v89.5v99.5v746h217v-770v-89v-75q0 -200 76 -288.5t228 -88.5q153 0 229.5 88.5t76.5 288.5v934h217v-935zM656 1618q45 0 76 31t31 76q0 44 -31 75t-76 31q-43 0 -74.5 -31t-31.5 -75
q0 -45 31.5 -76t74.5 -31zM656 1520q-56 0 -102.5 27.5t-74.5 74.5t-28 103t28 102.5t74.5 74.5t102.5 28q58 0 104 -28t73.5 -74.5t27.5 -102.5t-27.5 -103t-73.5 -74.5t-104 -27.5z" />
    <glyph glyph-name="uring" unicode="&#x16f;" horiz-adv-x="1222" 
d="M529 -19q-113 0 -188 38.5t-119 101t-62 137t-18 145.5v77.5v81.5v500h218v-469v-70.5v-64.5q0 -77 20 -141.5t70.5 -104t141.5 -39.5q85 0 148 50.5t98 128t35 155.5l95 -51q0 -92 -30.5 -177t-87.5 -152.5t-138.5 -106.5t-182.5 -39zM873 0v1062h217v-1062h-217z
M599 1247q45 0 76 31t31 76q0 44 -31 75t-76 31q-43 0 -74.5 -31t-31.5 -75q0 -45 31.5 -76t74.5 -31zM599 1149q-56 0 -102.5 27.5t-74.5 74t-28 103.5q0 56 28 102.5t74.5 74.5t102.5 28q58 0 104 -28t73.5 -74.5t27.5 -102.5q0 -57 -27.5 -103.5t-73.5 -74t-104 -27.5z
" />
    <glyph glyph-name="Uhungarumlaut" unicode="&#x170;" horiz-adv-x="1314" 
d="M1179 540q0 -284 -139 -422.5t-384 -138.5q-244 0 -382.5 138.5t-138.5 422.5v89.5v99.5v746h217v-770v-89v-75q0 -200 76 -288.5t228 -88.5q153 0 229.5 88.5t76.5 288.5v934h217v-935zM431 1553l234 190h159l-256 -190h-137zM733 1553l234 190h158l-256 -190h-136z" />
    <glyph glyph-name="uhungarumlaut" unicode="&#x171;" horiz-adv-x="1222" 
d="M529 -19q-113 0 -188 38.5t-119 101t-62 137t-18 145.5v77.5v81.5v500h218v-469v-70.5v-64.5q0 -77 20 -141.5t70.5 -104t141.5 -39.5q85 0 148 50.5t98 128t35 155.5l95 -51q0 -92 -30.5 -177t-87.5 -152.5t-138.5 -106.5t-182.5 -39zM873 0v1062h217v-1062h-217z
M367 1222l157 253h151l-188 -253h-120zM687 1222l166 253h152l-198 -253h-120z" />
    <glyph glyph-name="Uogonek" unicode="&#x172;" horiz-adv-x="1314" 
d="M893 -300v-109q-19 -3 -44 -5t-49 -2q-58 0 -107 15.5t-78.5 50t-29.5 90.5q0 54 31.5 107.5t76.5 99.5t84 75h116q-34 -30 -76 -75t-73 -92.5t-31 -84.5q0 -42 28 -60t72 -18q20 0 41.5 2.5t38.5 5.5zM1179 540q0 -284 -139 -422.5t-384 -138.5q-244 0 -382.5 138.5
t-138.5 422.5v89.5v99.5v746h217v-770v-89v-75q0 -200 76 -288.5t228 -88.5q153 0 229.5 88.5t76.5 288.5v934h217v-935z" />
    <glyph glyph-name="uogonek" unicode="&#x173;" horiz-adv-x="1222" 
d="M529 -19q-113 0 -188 38.5t-119 101t-62 137t-18 145.5v77.5v81.5v500h218v-469v-70.5v-64.5q0 -77 20 -141.5t70.5 -104t141.5 -39.5q85 0 148 50.5t98 128t35 155.5l95 -51q0 -92 -30.5 -177t-87.5 -152.5t-138.5 -106.5t-182.5 -39zM873 0v1062h217v-1062h-217z
M1090 -322v-109q-20 -3 -44.5 -5t-48.5 -2q-58 0 -106 16t-76.5 51t-28.5 91q0 52 30.5 105t74.5 99.5t83 75.5h116q-34 -30 -76 -75t-73 -92.5t-31 -84.5q0 -42 28 -60t72 -18q19 0 41 2.5t39 5.5z" />
    <glyph glyph-name="Wcircumflex" unicode="&#x174;" horiz-adv-x="1779" 
d="M308 0l-228 1475h224l185 -1404l-33 1l294 1403h279l293 -1403l-33 -1l185 1404h225l-230 -1475h-334l-257 1307h24l-259 -1307h-335zM593 1552l222 188h156l223 -188h-153l-178 154h60l-179 -154h-151z" />
    <glyph glyph-name="wcircumflex" unicode="&#x175;" horiz-adv-x="1570" 
d="M998 0l-272 1062h176l261 -983h-37l170 983h225l-224 -1062h-299zM273 0l-225 1062h225l172 -983h-38l259 983h176l-268 -1062h-301zM491 1222l220 253h150l221 -253h-148l-179 211h62l-180 -211h-146z" />
    <glyph glyph-name="Ycircumflex" unicode="&#x176;" horiz-adv-x="1192" 
d="M1121 1475l-418 -964v-511h-217v511l-416 964h230l340 -841h-89l339 841h231zM295 1552l222 188h156l223 -188h-153l-178 154h60l-179 -154h-151z" />
    <glyph glyph-name="ycircumflex" unicode="&#x177;" horiz-adv-x="1069" 
d="M193 -452q-43 0 -78.5 4.5t-43.5 8.5v177q13 -6 43.5 -10t63.5 -4q59 0 101.5 24t72 66.5t47.5 96.5l27 80l-366 1071h226l273 -900h-28l266 900h223l-381 -1140q-35 -107 -86 -191.5t-136 -133.5t-224 -49zM240 1222l220 253h150l221 -253h-148l-179 211h62l-180 -211
h-146z" />
    <glyph glyph-name="Ydieresis" unicode="&#x178;" horiz-adv-x="1192" 
d="M1121 1475l-418 -964v-511h-217v511l-416 964h230l340 -841h-89l339 841h231zM387 1555q-51 0 -89 28t-38 78t38 78t89 28t88.5 -28t37.5 -78t-37.5 -78t-88.5 -28zM807 1555q-51 0 -88.5 28t-37.5 78t37.5 78t88.5 28t89 -28t38 -78t-38 -78t-89 -28z" />
    <glyph glyph-name="Zacute" unicode="&#x179;" horiz-adv-x="1125" 
d="M342 180h674v-180h-917v159l685 1137l2 -1h-642v180h882v-156l-684 -1136v-3zM426 1553l279 190h194l-297 -190h-176z" />
    <glyph glyph-name="zacute" unicode="&#x17a;" horiz-adv-x="989" 
d="M307 185h612v-185h-849v177l603 707l3 -7h-583v185h816v-177l-599 -705zM366 1222l239 253h184l-263 -253h-160z" />
    <glyph glyph-name="Zdotaccent" unicode="&#x17b;" horiz-adv-x="1125" 
d="M342 180h674v-180h-917v159l685 1137l2 -1h-642v180h882v-156l-684 -1136v-3zM567 1568q-55 0 -96 30.5t-41 83.5q0 54 41 84t96 30t95.5 -30t40.5 -84t-40.5 -84t-95.5 -30z" />
    <glyph glyph-name="zdotaccent" unicode="&#x17c;" horiz-adv-x="989" 
d="M307 185h612v-185h-849v177l603 707l3 -7h-583v185h816v-177l-599 -705zM501 1281q-55 0 -96 30.5t-41 83.5q0 54 41 84t96 30t95.5 -30t40.5 -84t-40.5 -84t-95.5 -30z" />
    <glyph glyph-name="Zcaron" unicode="&#x17d;" horiz-adv-x="1125" 
d="M342 180h674v-180h-917v159l685 1137l2 -1h-642v180h882v-156l-684 -1136v-3zM264 1740h151l179 -155h-60l178 155h153l-223 -188h-156z" />
    <glyph glyph-name="zcaron" unicode="&#x17e;" horiz-adv-x="989" 
d="M307 185h612v-185h-849v177l603 707l3 -7h-583v185h816v-177l-599 -705zM205 1475h146l180 -211h-62l179 211h148l-221 -253h-150z" />
    <glyph glyph-name="uni018F" unicode="&#x18f;" horiz-adv-x="1275" 
d="M625 -11q-125 0 -223 49.5t-167 143t-104.5 226t-35.5 297.5v60.5t1 35.5h895v-178h-693l12 64v-19v-17q0 -107 19.5 -195.5t59 -152t98.5 -98t138 -34.5q86 0 149 39.5t104.5 113t61.5 178.5t20 237q0 146 -21.5 252.5t-63 175t-103 102t-140.5 33.5q-80 0 -139.5 -28
t-98 -73t-58.5 -95t-22 -95h-209q2 84 39 167.5t105.5 152.5t164.5 111t218 42t222.5 -46.5t173.5 -139.5t112.5 -233t39.5 -326q0 -169 -38.5 -307t-110.5 -237t-174.5 -152.5t-231.5 -53.5z" />
    <glyph glyph-name="florin" unicode="&#x192;" horiz-adv-x="1003" 
d="M17 -403q-50 0 -87.5 8.5t-49.5 12.5l45 153q11 -4 37.5 -9t55.5 -5q76 0 115.5 35.5t58 93t30.5 124.5q12 68 27 159.5t32.5 197t35.5 216t35 216.5t32.5 199.5t27.5 163.5q17 96 53.5 171.5t91 129t124.5 81.5t154 28q51 0 88 -8t49 -13l-45 -153q-12 5 -38 10t-55 5
q-76 0 -116 -35t-58 -93t-29 -126q-12 -70 -27.5 -163t-33 -199.5t-36 -217t-36 -216t-33 -196.5t-26.5 -159q-17 -96 -53.5 -172t-90.5 -129.5t-124 -81.5t-154 -28zM116 903l29 159h721l-29 -159h-721z" />
    <glyph glyph-name="uni019D" unicode="&#x19d;" horiz-adv-x="1384" 
d="M-78 -465v157q62 1 103 22.5t65 57t34.5 80t10.5 92.5v1531h350l572 -1355l-20 -4v1359h212v-1475h-354l-568 1344l19 4v-1404q0 -71 -12.5 -142t-54.5 -131t-127 -96.5t-230 -39.5z" />
    <glyph glyph-name="Ohorn" unicode="&#x1a0;" horiz-adv-x="1423" 
d="M1067 1365q85 0 128.5 64.5t43.5 192.5h138q0 -187 -83.5 -276.5t-226.5 -89.5v109zM709 -21q-132 0 -243.5 50.5t-195 148t-129.5 239t-46 322.5q0 182 46 322.5t129.5 237t195.5 146t243 49.5q132 0 244.5 -49.5t195.5 -146t129 -237t46 -322.5q0 -181 -46 -322.5
t-129.5 -239t-195.5 -148t-244 -50.5zM709 164q113 0 202.5 62t140.5 189.5t51 323.5q0 197 -51.5 323t-140.5 186t-202 60q-111 0 -200.5 -60t-141.5 -186t-52 -323t52 -324.5t141.5 -189t200.5 -61.5z" />
    <glyph glyph-name="ohorn" unicode="&#x1a1;" horiz-adv-x="1304" 
d="M952 976q68 0 104 25.5t50 85t14 161.5h123q0 -139 -32 -221.5t-96.5 -118.5t-162.5 -36v104zM654 -20q-164 0 -289.5 71t-196.5 195.5t-71 285.5q0 160 71 283.5t196.5 193t289.5 69.5t289 -69.5t196 -193t71 -283.5q0 -161 -71 -285.5t-196 -195.5t-289 -71zM654 166
q100 0 176 45t119 127.5t43 193.5q0 110 -43 191t-119 125t-176 44t-176.5 -44t-119.5 -125t-43 -191q0 -111 43 -193.5t119.5 -127.5t176.5 -45z" />
    <glyph glyph-name="Uhorn" unicode="&#x1af;" horiz-adv-x="1396" 
d="M1090 1475q85 0 128.5 64.5t43.5 192.5h138q0 -187 -83.5 -276.5t-226.5 -89.5v109zM1179 540q0 -284 -139 -422.5t-384 -138.5q-244 0 -382.5 138.5t-138.5 422.5v89.5v99.5v746h217v-770v-89v-75q0 -200 76 -288.5t228 -88.5q153 0 229.5 88.5t76.5 288.5v934h217v-935
z" />
    <glyph glyph-name="uhorn" unicode="&#x1b0;" horiz-adv-x="1254" 
d="M951 1062q68 0 104.5 25.5t50 85.5t13.5 161h124q0 -139 -32.5 -221.5t-97 -118.5t-162.5 -36v104zM509 -19q-113 0 -186 38.5t-113 101t-56 137t-16 145.5v77.5v81.5v500h218v-469v-70.5v-64.5q0 -77 16 -141.5t62.5 -104t137.5 -39.5q85 0 148 50.5t98 128t35 155.5
l95 -51q0 -92 -30.5 -177t-87.5 -152.5t-138.5 -106.5t-182.5 -39zM853 0v1062h217v-1062h-217z" />
    <glyph glyph-name="uni01B7" unicode="&#x1b7;" horiz-adv-x="1178" 
d="M583 -21q-129 0 -218 35.5t-142.5 100t-78 151.5t-24.5 191v2v2h218v-2v-2q0 -169 65.5 -233.5t182.5 -64.5q105 0 166.5 63.5t61.5 207.5q0 93 -31.5 143.5t-101 70.5t-182.5 20h-91l368 631h-621v180h859v-167l-299 -486q112 0 181.5 -49t103 -135t33.5 -196
q0 -137 -48 -241.5t-147.5 -163t-254.5 -58.5z" />
    <glyph glyph-name="uni01C4" unicode="&#x1c4;" horiz-adv-x="2301" 
d="M135 0v1475h405q147 0 266 -52t203.5 -148t130.5 -232t46 -304q0 -169 -46 -305t-130.5 -233t-203.5 -149t-266 -52h-405zM353 66l-98 114h259q130 0 232.5 68t160.5 193.5t58 297.5q0 173 -58 297.5t-160.5 191.5t-232.5 67h-259l98 114v-1343zM1518 180h674v-180h-917
v159l685 1137l2 -1h-642v180h882v-156l-684 -1136v-3zM1440 1740h151l179 -155h-60l178 155h153l-223 -188h-156z" />
    <glyph glyph-name="uni01C5" unicode="&#x1c5;" horiz-adv-x="2270" 
d="M135 0v1475h405q147 0 266 -52t203.5 -148t130.5 -232t46 -304q0 -169 -46 -305t-130.5 -233t-203.5 -149t-266 -52h-405zM353 66l-98 114h259q130 0 232.5 68t160.5 193.5t58 297.5q0 173 -58 297.5t-160.5 191.5t-232.5 67h-259l98 114v-1343zM1588 185h612v-185h-849
v177l603 707l3 -7h-583v185h816v-177l-599 -705zM1485 1475h146l180 -211h-62l179 211h148l-221 -253h-150z" />
    <glyph glyph-name="uni01C6" unicode="&#x1c6;" horiz-adv-x="2266" 
d="M582 -21q-131 0 -241 63.5t-176 187.5t-66 303q0 175 67 297t177 185.5t239 63.5q124 0 230.5 -60t171.5 -166.5t65 -245.5v-7.5v-6.5l-126 -4v6.5v6.5q0 83 -42 147.5t-110.5 102t-145.5 37.5q-129 0 -216 -86.5t-87 -269.5q0 -182 87.5 -269.5t215.5 -87.5
q80 0 148 38.5t109 105.5t41 153l126 -5q0 -138 -62.5 -249t-168 -175.5t-236.5 -64.5zM923 0v1563h218v-1563h-218zM1584 185h612v-185h-849v177l603 707l3 -7h-583v185h816v-177l-599 -705zM1482 1475h146l180 -211h-62l179 211h148l-221 -253h-150z" />
    <glyph glyph-name="uni01C7" unicode="&#x1c7;" horiz-adv-x="2077" 
d="M135 0v1475h217v-1409l-98 118h669v-184h-788zM1491 -21q-161 0 -260.5 61.5t-145 171.5t-45.5 257v31v30h214v-19v-22q0 -92 22.5 -165.5t74.5 -116.5t140 -43t139 43t73 120.5t22 179.5v968h217v-997q0 -106 -23 -197t-75.5 -158.5t-138.5 -105.5t-214 -38z" />
    <glyph glyph-name="uni01C8" unicode="&#x1c8;" horiz-adv-x="1527" 
d="M135 0v1475h217v-1409l-98 118h669v-184h-788zM980 -450q-28 0 -53 2t-41 5v163q16 -4 41.5 -7t52.5 -3q63 0 99.5 18.5t54 48t23 65.5t5.5 70v1150h217v-1157q0 -66 -14 -129t-54.5 -114t-119.5 -81.5t-211 -30.5zM1274 1282q-55 0 -96 30.5t-41 84.5q0 53 41 83.5
t96 30.5q56 0 96.5 -30.5t40.5 -83.5q0 -54 -40.5 -84.5t-96.5 -30.5z" />
    <glyph glyph-name="uni01C9" unicode="&#x1c9;" horiz-adv-x="1088" 
d="M427 -16q-47 0 -97 8t-92.5 35t-69 82t-26.5 148v36.5v39.5v1230h217v-1210v-26.5v-23.5q0 -58 11.5 -88.5t32.5 -41.5t51 -11q28 0 52.5 4.5t39.5 9.5v-176q-20 -7 -48.5 -11.5t-70.5 -4.5zM540 -450q-28 0 -53 2t-41 5v163q16 -4 41.5 -7t52.5 -3q63 0 99.5 18.5t54 48
t23 65.5t5.5 70v1150h217v-1157q0 -66 -14 -129t-54.5 -114t-119.5 -81.5t-211 -30.5zM834 1282q-55 0 -96 30.5t-41 84.5q0 53 41 83.5t96 30.5q56 0 96.5 -30.5t40.5 -83.5q0 -54 -40.5 -84.5t-96.5 -30.5z" />
    <glyph glyph-name="uni01CA" unicode="&#x1ca;" horiz-adv-x="2494" 
d="M346 0h-211v1475h346l582 -1372l-26 -10v1382h212v-1475h-351l-580 1370l28 9v-1379zM1909 -21q-161 0 -260.5 61.5t-145 171.5t-45.5 257v31v30h214v-19v-22q0 -92 22.5 -165.5t74.5 -116.5t140 -43t139 43t73 120.5t22 179.5v968h217v-997q0 -106 -23 -197
t-75.5 -158.5t-138.5 -105.5t-214 -38z" />
    <glyph glyph-name="uni01CB" unicode="&#x1cb;" horiz-adv-x="1860" 
d="M346 0h-211v1475h346l582 -1372l-26 -10v1382h212v-1475h-351l-580 1370l28 9v-1379zM1312 -450q-28 0 -53 2t-41 5v163q16 -4 41.5 -7t52.5 -3q63 0 99.5 18.5t54 48t23 65.5t5.5 70v1150h217v-1157q0 -66 -14 -129t-54.5 -114t-119.5 -81.5t-211 -30.5zM1606 1282
q-55 0 -96 30.5t-41 84.5q0 53 41 83.5t96 30.5q56 0 96.5 -30.5t40.5 -83.5q0 -54 -40.5 -84.5t-96.5 -30.5z" />
    <glyph glyph-name="uni01CC" unicode="&#x1cc;" horiz-adv-x="1769" 
d="M898 0v490v73v56q0 78 -24 137.5t-79 93t-147 33.5q-81 0 -146.5 -40t-104 -108.5t-38.5 -155.5l-93 46q0 129 61 231.5t163.5 162.5t224.5 60q126 0 215.5 -48.5t137 -138t47.5 -213.5v-102v-108v-469h-217zM142 0v1062h217v-1062h-217zM1221 -450q-28 0 -53 2t-41 5
v163q16 -4 41.5 -7t52.5 -3q63 0 99.5 18.5t54 48t23 65.5t5.5 70v1150h217v-1157q0 -66 -14 -129t-54.5 -114t-119.5 -81.5t-211 -30.5zM1515 1282q-55 0 -96 30.5t-41 84.5q0 53 41 83.5t96 30.5q56 0 96.5 -30.5t40.5 -83.5q0 -54 -40.5 -84.5t-96.5 -30.5z" />
    <glyph glyph-name="uni01CD" unicode="&#x1cd;" horiz-adv-x="1266" 
d="M70 0l394 1478h341l390 -1478h-223l-339 1341h2l-341 -1341h-224zM298 375v180h672v-180h-672zM334 1740h151l179 -155h-60l178 155h153l-223 -188h-156z" />
    <glyph glyph-name="uni01CE" unicode="&#x1ce;" horiz-adv-x="1231" 
d="M510 -21q-120 0 -210.5 38t-140.5 109t-50 171q0 107 56.5 177t156 108.5t226.5 50.5q189 19 266.5 37t77.5 59v0.5v1.5q0 81 -69 123t-197 42q-135 0 -208.5 -47.5t-73.5 -150.5h-213q0 122 63.5 207t175.5 129.5t257 44.5q133 0 242.5 -40.5t174.5 -120.5t65 -199
v-41.5v-41.5v-424q0 -37 3 -71.5t11 -61.5q9 -31 21.5 -51t20.5 -28h-216q-6 6 -17.5 25.5t-20.5 45.5q-9 25 -13.5 57.5t-4.5 70.5l40 -28q-30 -58 -90.5 -101t-145 -67t-187.5 -24zM555 159q93 0 169.5 29.5t122.5 90t46 152.5v176l51 -67q-64 -25 -156.5 -40.5
t-190.5 -25.5q-135 -12 -203 -46.5t-68 -114.5q0 -77 56.5 -115.5t172.5 -38.5zM343 1475h146l180 -211h-62l179 211h148l-221 -253h-150z" />
    <glyph glyph-name="uni01CF" unicode="&#x1cf;" horiz-adv-x="493" 
d="M139 0v1475h214v-1475h-214zM-53 1740h151l179 -155h-60l178 155h153l-223 -188h-156z" />
    <glyph glyph-name="uni01D0" unicode="&#x1d0;" horiz-adv-x="504" 
d="M145 0v1062h214v-1062h-214zM-43 1475h146l180 -211h-62l179 211h148l-221 -253h-150z" />
    <glyph glyph-name="uni01D1" unicode="&#x1d1;" horiz-adv-x="1419" 
d="M709 -21q-132 0 -243.5 50.5t-195 148t-129.5 239t-46 322.5q0 182 46 322.5t129.5 237t195.5 146t243 49.5q132 0 244.5 -49.5t195.5 -146t129 -237t46 -322.5q0 -181 -46 -322.5t-129.5 -239t-195.5 -148t-244 -50.5zM709 164q113 0 202.5 62t140.5 189.5t51 323.5
q0 197 -51.5 323t-140.5 186t-202 60q-111 0 -200.5 -60t-141.5 -186t-52 -323t52 -324.5t141.5 -189t200.5 -61.5zM409 1740h151l179 -155h-60l178 155h153l-223 -188h-156z" />
    <glyph glyph-name="uni01D2" unicode="&#x1d2;" horiz-adv-x="1310" 
d="M655 -20q-164 0 -289.5 71t-196 195.5t-70.5 285.5q0 160 70.5 283.5t196 193t289.5 69.5t289.5 -69.5t196 -193t70.5 -283.5q0 -161 -70.5 -285.5t-196 -195.5t-289.5 -71zM655 166q100 0 176 45t119 127.5t43 193.5q0 110 -43 191t-119 125t-176 44q-99 0 -175.5 -44
t-119.5 -125t-43 -191q0 -111 43 -193.5t119.5 -127.5t175.5 -45zM360 1475h146l180 -211h-62l179 211h148l-221 -253h-150z" />
    <glyph glyph-name="uni01D3" unicode="&#x1d3;" horiz-adv-x="1314" 
d="M1179 540q0 -284 -139 -422.5t-384 -138.5q-244 0 -382.5 138.5t-138.5 422.5v89.5v99.5v746h217v-770v-89v-75q0 -200 76 -288.5t228 -88.5q153 0 229.5 88.5t76.5 288.5v934h217v-935zM361 1888h146l180 -211h-62l179 211h148l-221 -253h-150z" />
    <glyph glyph-name="uni01D4" unicode="&#x1d4;" horiz-adv-x="1222" 
d="M529 -19q-113 0 -188 38.5t-119 101t-62 137t-18 145.5v77.5v81.5v500h218v-469v-70.5v-64.5q0 -77 20 -141.5t70.5 -104t141.5 -39.5q85 0 148 50.5t98 128t35 155.5l95 -51q0 -92 -30.5 -177t-87.5 -152.5t-138.5 -106.5t-182.5 -39zM873 0v1062h217v-1062h-217z
M304 1475h146l180 -211h-62l179 211h148l-221 -253h-150z" />
    <glyph glyph-name="uni01D5" unicode="&#x1d5;" horiz-adv-x="1314" 
d="M1179 540q0 -284 -139 -422.5t-384 -138.5q-244 0 -382.5 138.5t-138.5 422.5v89.5v99.5v746h217v-770v-89v-75q0 -200 76 -288.5t228 -88.5q153 0 229.5 88.5t76.5 288.5v934h217v-935zM447 1555q-51 0 -89 28t-38 78t38 78t89 28t88.5 -28t37.5 -78t-37.5 -78
t-88.5 -28zM867 1555q-51 0 -88.5 28t-37.5 78t37.5 78t88.5 28t89 -28t38 -78t-38 -78t-89 -28zM379 1876v94h553v-94h-553z" />
    <glyph glyph-name="uni01D6" unicode="&#x1d6;" horiz-adv-x="1222" 
d="M529 -19q-113 0 -188 38.5t-119 101t-62 137t-18 145.5v77.5v81.5v500h218v-469v-70.5v-64.5q0 -77 20 -141.5t70.5 -104t141.5 -39.5q85 0 148 50.5t98 128t35 155.5l95 -51q0 -92 -30.5 -177t-87.5 -152.5t-138.5 -106.5t-182.5 -39zM873 0v1062h217v-1062h-217z
M389 1279q-51 0 -89 28t-38 78t38 78t89 28t88.5 -28t37.5 -78t-37.5 -78t-88.5 -28zM809 1279q-51 0 -88.5 28t-37.5 78t37.5 78t88.5 28t89 -28t38 -78t-38 -78t-89 -28zM322 1626v94h553v-94h-553z" />
    <glyph glyph-name="uni01D7" unicode="&#x1d7;" horiz-adv-x="1314" 
d="M1179 540q0 -284 -139 -422.5t-384 -138.5q-244 0 -382.5 138.5t-138.5 422.5v89.5v99.5v746h217v-770v-89v-75q0 -200 76 -288.5t228 -88.5q153 0 229.5 88.5t76.5 288.5v934h217v-935zM447 1555q-51 0 -89 28t-38 78t38 78t89 28t88.5 -28t37.5 -78t-37.5 -78
t-88.5 -28zM867 1555q-51 0 -88.5 28t-37.5 78t37.5 78t88.5 28t89 -28t38 -78t-38 -78t-89 -28zM518 1819l279 190h194l-297 -190h-176z" />
    <glyph glyph-name="uni01D8" unicode="&#x1d8;" horiz-adv-x="1222" 
d="M529 -19q-113 0 -188 38.5t-119 101t-62 137t-18 145.5v77.5v81.5v500h218v-469v-70.5v-64.5q0 -77 20 -141.5t70.5 -104t141.5 -39.5q85 0 148 50.5t98 128t35 155.5l95 -51q0 -92 -30.5 -177t-87.5 -152.5t-138.5 -106.5t-182.5 -39zM873 0v1062h217v-1062h-217z
M389 1279q-51 0 -89 28t-38 78t38 78t89 28t88.5 -28t37.5 -78t-37.5 -78t-88.5 -28zM809 1279q-51 0 -88.5 28t-37.5 78t37.5 78t88.5 28t89 -28t38 -78t-38 -78t-89 -28zM461 1569l279 190h194l-297 -190h-176z" />
    <glyph glyph-name="uni01D9" unicode="&#x1d9;" horiz-adv-x="1314" 
d="M1179 540q0 -284 -139 -422.5t-384 -138.5q-244 0 -382.5 138.5t-138.5 422.5v89.5v99.5v746h217v-770v-89v-75q0 -200 76 -288.5t228 -88.5q153 0 229.5 88.5t76.5 288.5v934h217v-935zM447 1555q-51 0 -89 28t-38 78t38 78t89 28t88.5 -28t37.5 -78t-37.5 -78
t-88.5 -28zM867 1555q-51 0 -88.5 28t-37.5 78t37.5 78t88.5 28t89 -28t38 -78t-38 -78t-89 -28zM356 2006h151l179 -155h-60l178 155h153l-223 -188h-156z" />
    <glyph glyph-name="uni01DA" unicode="&#x1da;" horiz-adv-x="1222" 
d="M529 -19q-113 0 -188 38.5t-119 101t-62 137t-18 145.5v77.5v81.5v500h218v-469v-70.5v-64.5q0 -77 20 -141.5t70.5 -104t141.5 -39.5q85 0 148 50.5t98 128t35 155.5l95 -51q0 -92 -30.5 -177t-87.5 -152.5t-138.5 -106.5t-182.5 -39zM873 0v1062h217v-1062h-217z
M389 1279q-51 0 -89 28t-38 78t38 78t89 28t88.5 -28t37.5 -78t-37.5 -78t-88.5 -28zM809 1279q-51 0 -88.5 28t-37.5 78t37.5 78t88.5 28t89 -28t38 -78t-38 -78t-89 -28zM299 1756h151l179 -155h-60l178 155h153l-223 -188h-156z" />
    <glyph glyph-name="uni01DB" unicode="&#x1db;" horiz-adv-x="1314" 
d="M1179 540q0 -284 -139 -422.5t-384 -138.5q-244 0 -382.5 138.5t-138.5 422.5v89.5v99.5v746h217v-770v-89v-75q0 -200 76 -288.5t228 -88.5q153 0 229.5 88.5t76.5 288.5v934h217v-935zM447 1555q-51 0 -89 28t-38 78t38 78t89 28t88.5 -28t37.5 -78t-37.5 -78
t-88.5 -28zM867 1555q-51 0 -88.5 28t-37.5 78t37.5 78t88.5 28t89 -28t38 -78t-38 -78t-89 -28zM799 1819h-175l-298 190h194z" />
    <glyph glyph-name="uni01DC" unicode="&#x1dc;" horiz-adv-x="1222" 
d="M529 -19q-113 0 -188 38.5t-119 101t-62 137t-18 145.5v77.5v81.5v500h218v-469v-70.5v-64.5q0 -77 20 -141.5t70.5 -104t141.5 -39.5q85 0 148 50.5t98 128t35 155.5l95 -51q0 -92 -30.5 -177t-87.5 -152.5t-138.5 -106.5t-182.5 -39zM873 0v1062h217v-1062h-217z
M389 1279q-51 0 -89 28t-38 78t38 78t89 28t88.5 -28t37.5 -78t-37.5 -78t-88.5 -28zM809 1279q-51 0 -88.5 28t-37.5 78t37.5 78t88.5 28t89 -28t38 -78t-38 -78t-89 -28zM742 1569h-175l-298 190h194z" />
    <glyph glyph-name="uni01DE" unicode="&#x1de;" horiz-adv-x="1266" 
d="M70 0l394 1478h341l390 -1478h-223l-339 1341h2l-341 -1341h-224zM298 375v180h672v-180h-672zM425 1555q-51 0 -89 28t-38 78t38 78t89 28t88.5 -28t37.5 -78t-37.5 -78t-88.5 -28zM845 1555q-51 0 -88.5 28t-37.5 78t37.5 78t88.5 28t89 -28t38 -78t-38 -78t-89 -28z
M357 1876v94h553v-94h-553z" />
    <glyph glyph-name="uni01DF" unicode="&#x1df;" horiz-adv-x="1231" 
d="M510 -21q-120 0 -210.5 38t-140.5 109t-50 171q0 107 56.5 177t156 108.5t226.5 50.5q189 19 266.5 37t77.5 59v0.5v1.5q0 81 -69 123t-197 42q-135 0 -208.5 -47.5t-73.5 -150.5h-213q0 122 63.5 207t175.5 129.5t257 44.5q133 0 242.5 -40.5t174.5 -120.5t65 -199
v-41.5v-41.5v-424q0 -37 3 -71.5t11 -61.5q9 -31 21.5 -51t20.5 -28h-216q-6 6 -17.5 25.5t-20.5 45.5q-9 25 -13.5 57.5t-4.5 70.5l40 -28q-30 -58 -90.5 -101t-145 -67t-187.5 -24zM555 159q93 0 169.5 29.5t122.5 90t46 152.5v176l51 -67q-64 -25 -156.5 -40.5
t-190.5 -25.5q-135 -12 -203 -46.5t-68 -114.5q0 -77 56.5 -115.5t172.5 -38.5zM429 1279q-51 0 -89 28t-38 78t38 78t89 28t88.5 -28t37.5 -78t-37.5 -78t-88.5 -28zM849 1279q-51 0 -88.5 28t-37.5 78t37.5 78t88.5 28t89 -28t38 -78t-38 -78t-89 -28zM362 1626v94h553
v-94h-553z" />
    <glyph glyph-name="uni01E4" unicode="&#x1e4;" horiz-adv-x="1361" 
d="M698 328v130h653v-130h-653zM683 -21q-170 0 -302.5 89t-209 258t-76.5 409q0 241 79 410t217 259t314 90q145 0 245.5 -49t164 -126.5t92.5 -163.5t29 -161v-6v-6h-211v6v6q0 56 -19.5 111.5t-59 101t-100 73t-141.5 27.5q-110 0 -198.5 -60.5t-141 -187t-52.5 -324.5
q0 -153 28.5 -261.5t80 -177t121 -100.5t151.5 -32q110 0 181.5 37.5t111 93t50.5 109.5v157h-338v162h533v-723h-139l-16 164q-8 -17 -33 -47t-71.5 -62t-118 -54t-171.5 -22z" />
    <glyph glyph-name="uni01E5" unicode="&#x1e5;" horiz-adv-x="1316" 
d="M652 -452q-94 0 -186 19.5t-166.5 62t-118.5 110.5t-44 165v6v5h217v-5v-6q0 -63 42 -105t111 -62.5t149 -20.5q86 0 156.5 28t112.5 95.5t42 183.5v1038h217v-1038q0 -132 -45.5 -223t-122.5 -146.5t-171.5 -81t-192.5 -25.5zM626 -21q-99 0 -191.5 33.5t-166 102.5
t-116.5 174t-43 248q0 136 43.5 238t117.5 169.5t166.5 101t189.5 33.5q124 0 228 -55.5t166.5 -163t62.5 -265.5v-7.5v-8.5l-116 1v5.5v5.5q0 99 -42.5 165.5t-111 100t-146.5 33.5q-85 0 -160.5 -34.5t-122.5 -112t-47 -206.5q0 -130 47 -211t122.5 -118.5t160.5 -37.5
q79 0 147 35t110.5 103.5t42.5 166.5l116 -9q0 -161 -62.5 -269.5t-166.5 -163t-228 -54.5zM592 480v103h707v-103h-707z" />
    <glyph glyph-name="Gcaron" unicode="&#x1e6;" horiz-adv-x="1390" 
d="M702 -21q-169 0 -306.5 89t-219 258t-81.5 409q0 241 83.5 410t226 259t319.5 90q145 0 245.5 -49t164 -126t92.5 -162.5t29 -160.5v-6v-6h-211v6v6q0 56 -19.5 111.5t-59 100.5t-100 72t-141.5 27q-110 0 -203 -60.5t-150 -187t-57 -324.5q0 -151 31.5 -259.5t86.5 -177
t127 -101.5t154 -33q110 0 181.5 37.5t111 93.5t50.5 111v135h-338v170h533v-711h-139l-16 164q-8 -17 -33 -47t-71.5 -62t-118 -54t-171.5 -22zM420 1740h151l179 -155h-60l178 155h153l-223 -188h-156z" />
    <glyph glyph-name="gcaron" unicode="&#x1e7;" horiz-adv-x="1232" 
d="M839 85q90 -8 158 -33.5t106.5 -75t38.5 -130.5q0 -91 -61.5 -158.5t-183.5 -105t-303 -37.5q-259 0 -395 75t-136 204q0 39 9 69t22 50l202 -30q-7 -10 -14 -29.5t-7 -47.5q0 -71 87 -101t241 -30q113 0 187.5 15.5t111.5 44.5t37 68q0 59 -51 74t-123 21l-403 33
q-105 9 -171.5 63t-66.5 136q0 51 26 95t60.5 74t59.5 37l142 -68q-23 -3 -55.5 -30.5t-32.5 -64.5q0 -34 28.5 -56t111.5 -29zM972 1062h197l-81 -415q-22 -116 -80.5 -209.5t-158 -147.5t-247.5 -54q-154 0 -265 53t-170.5 147.5t-59.5 215.5q0 123 61.5 220t170 152
t248.5 55q118 0 209.5 -40t145.5 -102t59 -129l-62 -7zM601 413q87 0 150 28.5t97 83t34 131.5q0 76 -34 130.5t-97 84t-149 29.5q-83 0 -146.5 -30.5t-99.5 -85.5t-36 -131t34 -129.5t97 -82t150 -28.5zM295 1475h146l180 -211h-62l179 211h148l-221 -253h-150z" />
    <glyph glyph-name="uni01E8" unicode="&#x1e8;" horiz-adv-x="1222" 
d="M564 737l5 167l590 -904h-242l-477 736l105 -14l-214 -283l21 139v-578h-217v1475h217v-796l-42 35l581 761h234zM334 1740h151l179 -155h-60l178 155h153l-223 -188h-156z" />
    <glyph glyph-name="uni01E9" unicode="&#x1e9;" horiz-adv-x="1067" 
d="M142 0v1563h206v-937l-53 25l474 411h273l-514 -455l52 97l462 -704h-231l-372 587l49 -15l-167 -148l27 99v-523h-206zM-52 1828h151l179 -155h-60l178 155h153l-223 -188h-156z" />
    <glyph glyph-name="uni01EA" unicode="&#x1ea;" horiz-adv-x="1419" 
d="M954 -280v-109q-19 -3 -44 -5t-49 -2q-58 0 -107 15.5t-78.5 50t-29.5 90.5q0 54 31.5 107.5t76.5 100t84 74.5h116q-34 -29 -76 -74.5t-73 -93t-31 -83.5q0 -42 28 -60t72 -18q20 0 41.5 2t38.5 5zM709 -21q-132 0 -243.5 50.5t-195 148t-129.5 239t-46 322.5
q0 182 46 322.5t129.5 237t195.5 146t243 49.5q132 0 244.5 -49.5t195.5 -146t129 -237t46 -322.5q0 -181 -46 -322.5t-129.5 -239t-195.5 -148t-244 -50.5zM709 164q113 0 202.5 62t140.5 189.5t51 323.5q0 197 -51.5 323t-140.5 186t-202 60q-111 0 -200.5 -60
t-141.5 -186t-52 -323t52 -324.5t141.5 -189t200.5 -61.5z" />
    <glyph glyph-name="uni01EB" unicode="&#x1eb;" horiz-adv-x="1307" 
d="M873 -302v-109q-19 -3 -44 -5t-49 -2q-58 0 -106 16t-76.5 51t-28.5 91q0 52 30.5 105.5t74.5 100t83 74.5h116q-34 -29 -76 -74.5t-73 -93t-31 -83.5q0 -42 28 -60t72 -18q20 0 41.5 2t38.5 5zM655 -20q-164 0 -289.5 71t-196 195.5t-70.5 285.5q0 160 70.5 283.5
t196 193t289.5 69.5t289.5 -69.5t196 -193t70.5 -283.5q0 -161 -70.5 -285.5t-196 -195.5t-289.5 -71zM655 166q100 0 176 45t119 127.5t43 193.5q0 110 -43 191t-119 125t-176 44q-99 0 -175.5 -44t-119.5 -125t-43 -191q0 -111 43 -193.5t119.5 -127.5t175.5 -45z" />
    <glyph glyph-name="uni01EE" unicode="&#x1ee;" horiz-adv-x="1178" 
d="M583 -21q-129 0 -218 35.5t-142.5 100t-78 151.5t-24.5 191v2v2h218v-2v-2q0 -169 65.5 -233.5t182.5 -64.5q105 0 166.5 63.5t61.5 207.5q0 93 -31.5 143.5t-101 70.5t-182.5 20h-91l368 631h-621v180h859v-167l-299 -486q112 0 181.5 -49t103 -135t33.5 -196
q0 -137 -48 -241.5t-147.5 -163t-254.5 -58.5zM289 1740h151l179 -155h-60l178 155h153l-223 -188h-156z" />
    <glyph glyph-name="uni01EF" unicode="&#x1ef;" horiz-adv-x="1178" 
d="M588 -434q-129 0 -218 35.5t-142.5 100t-78 151.5t-24.5 191v2v2h218v-2v-2q0 -169 65.5 -233.5t182.5 -64.5q105 0 166.5 63.5t61.5 207.5q0 93 -31.5 143.5t-101 70.5t-182.5 20h-91l368 631h-621v180h859v-167l-299 -486q112 0 181.5 -49t103 -135t33.5 -196
q0 -137 -48 -241.5t-147.5 -163t-254.5 -58.5zM294 1475h146l180 -211h-62l179 211h148l-221 -253h-150z" />
    <glyph glyph-name="Aringacute" unicode="&#x1fa;" horiz-adv-x="1266" 
d="M70 0l394 1478h341l390 -1478h-223l-339 1341h2l-341 -1341h-224zM298 375v180h672v-180h-672zM634 1618q45 0 76 31t31 76q0 44 -31 75t-76 31q-43 0 -74.5 -31t-31.5 -75q0 -45 31.5 -76t74.5 -31zM634 1520q-56 0 -102.5 27.5t-74.5 74.5t-28 103t28 102.5t74.5 74.5
t102.5 28q58 0 104 -28t73.5 -74.5t27.5 -102.5t-27.5 -103t-73.5 -74.5t-104 -27.5zM496 1976l279 190h194l-297 -190h-176z" />
    <glyph glyph-name="aringacute" unicode="&#x1fb;" horiz-adv-x="1231" 
d="M510 -21q-120 0 -210.5 38t-140.5 109t-50 171q0 107 56.5 177t156 108.5t226.5 50.5q189 19 266.5 37t77.5 59v0.5v1.5q0 81 -69 123t-197 42q-135 0 -208.5 -47.5t-73.5 -150.5h-213q0 122 63.5 207t175.5 129.5t257 44.5q133 0 242.5 -40.5t174.5 -120.5t65 -199
v-41.5v-41.5v-424q0 -37 3 -71.5t11 -61.5q9 -31 21.5 -51t20.5 -28h-216q-6 6 -17.5 25.5t-20.5 45.5q-9 25 -13.5 57.5t-4.5 70.5l40 -28q-30 -58 -90.5 -101t-145 -67t-187.5 -24zM555 159q93 0 169.5 29.5t122.5 90t46 152.5v176l51 -67q-64 -25 -156.5 -40.5
t-190.5 -25.5q-135 -12 -203 -46.5t-68 -114.5q0 -77 56.5 -115.5t172.5 -38.5zM639 1247q45 0 76 31t31 76q0 44 -31 75t-76 31q-43 0 -74.5 -31t-31.5 -75q0 -45 31.5 -76t74.5 -31zM639 1149q-56 0 -102.5 27.5t-74.5 74t-28 103.5q0 56 28 102.5t74.5 74.5t102.5 28
q58 0 104 -28t73.5 -74.5t27.5 -102.5q0 -57 -27.5 -103.5t-73.5 -74t-104 -27.5zM489 1654l239 253h184l-263 -253h-160z" />
    <glyph glyph-name="AEacute" unicode="&#x1fc;" horiz-adv-x="1909" 
d="M0 0l855 1475h919v-180h-701l73 73v-608l-64 70h581v-180h-576l59 65v-599l-64 64h692v-180h-837v1290l18 -13l-719 -1277h-236zM356 313l44 177h637v-177h-681zM965 1553l279 190h194l-297 -190h-176z" />
    <glyph glyph-name="aeacute" unicode="&#x1fd;" horiz-adv-x="2143" 
d="M571 -21q-212 0 -337 89.5t-125 244.5q0 81 35.5 138t99.5 92.5t151 52t187 16.5q141 0 219 3t109.5 16t31.5 42v14.5v14.5q0 101 -79.5 151t-207.5 50q-89 0 -159 -22.5t-109.5 -67t-39.5 -113.5h-214q0 92 40.5 162.5t112 118.5t166.5 73t204 25q138 0 252 -48.5
t173 -148.5q7 -10 13 -20.5t12 -21.5l-70 4q73 110 193.5 172.5t273.5 62.5q166 0 288 -72t188 -197t66 -285q0 -19 -0.5 -40t-2.5 -30h-979l92 75q0 -13 1 -25t2 -23q8 -101 51.5 -175t119.5 -114.5t179 -40.5q77 0 133.5 18t94 46t57 59.5t22.5 58.5h214
q-5 -59 -42 -121.5t-103 -116t-162 -86t-220 -32.5q-111 0 -205.5 33t-166.5 94t-117 144l64 9q-39 -104 -120 -165.5t-182.5 -87.5t-203.5 -26zM584 158q62 0 125.5 16t117.5 56t86.5 113t32.5 189v17v17l50 -81q-69 -17 -168.5 -22.5t-208.5 -5.5q-142 0 -217 -25.5
t-75 -110.5q0 -83 73.5 -123t183.5 -40zM1164 622h661q0 5 -0.5 13t-2.5 17q-10 68 -50 126t-107 93.5t-159 35.5q-90 0 -161.5 -35t-118.5 -98.5t-62 -151.5zM950 1222l239 253h184l-263 -253h-160z" />
    <glyph glyph-name="Oslashacute" unicode="&#x1fe;" horiz-adv-x="1419" 
d="M1242 1499l-951 -1587l-115 65l949 1587zM709 -21q-132 0 -243.5 50.5t-195 148t-129.5 239t-46 322.5q0 182 46 322.5t129.5 237t195.5 146t243 49.5q132 0 244.5 -49.5t195.5 -146t129 -237t46 -322.5q0 -181 -46 -322.5t-129.5 -239t-195.5 -148t-244 -50.5zM709 164
q113 0 202.5 62t140.5 189.5t51 323.5q0 197 -51.5 323t-140.5 186t-202 60q-111 0 -200.5 -60t-141.5 -186t-52 -323t52 -324.5t141.5 -189t200.5 -61.5zM567 1553l279 190h194l-297 -190h-176z" />
    <glyph glyph-name="oslashacute" unicode="&#x1ff;" horiz-adv-x="1310" 
d="M1060 1043l-728 -1095l-100 69l728 1095zM655 -20q-164 0 -289.5 71t-196 195.5t-70.5 285.5q0 160 70.5 283.5t196 193t289.5 69.5t289.5 -69.5t196 -193t70.5 -283.5q0 -161 -70.5 -285.5t-196 -195.5t-289.5 -71zM655 166q100 0 176 45t119 127.5t43 193.5
q0 110 -43 191t-119 125t-176 44q-99 0 -175.5 -44t-119.5 -125t-43 -191q0 -111 43 -193.5t119.5 -127.5t175.5 -45zM513 1222l239 253h184l-263 -253h-160z" />
    <glyph glyph-name="uni0200" unicode="&#x200;" horiz-adv-x="1266" 
d="M70 0l394 1478h341l390 -1478h-223l-339 1341h2l-341 -1341h-224zM298 375v180h672v-180h-672zM864 1552h-129l-203 192h151zM549 1552h-130l-217 192h151z" />
    <glyph glyph-name="uni0201" unicode="&#x201;" horiz-adv-x="1231" 
d="M510 -21q-120 0 -210.5 38t-140.5 109t-50 171q0 107 56.5 177t156 108.5t226.5 50.5q189 19 266.5 37t77.5 59v0.5v1.5q0 81 -69 123t-197 42q-135 0 -208.5 -47.5t-73.5 -150.5h-213q0 122 63.5 207t175.5 129.5t257 44.5q133 0 242.5 -40.5t174.5 -120.5t65 -199
v-41.5v-41.5v-424q0 -37 3 -71.5t11 -61.5q9 -31 21.5 -51t20.5 -28h-216q-6 6 -17.5 25.5t-20.5 45.5q-9 25 -13.5 57.5t-4.5 70.5l40 -28q-30 -58 -90.5 -101t-145 -67t-187.5 -24zM555 159q93 0 169.5 29.5t122.5 90t46 152.5v176l51 -67q-64 -25 -156.5 -40.5
t-190.5 -25.5q-135 -12 -203 -46.5t-68 -114.5q0 -77 56.5 -115.5t172.5 -38.5zM875 1222h-124l-183 253h151zM560 1222h-125l-198 253h152z" />
    <glyph glyph-name="uni0202" unicode="&#x202;" horiz-adv-x="1266" 
d="M70 0l394 1478h341l390 -1478h-223l-339 1341h2l-341 -1341h-224zM298 375v180h672v-180h-672zM377 1543q0 82 73.5 131.5t183.5 49.5t183.5 -49.5t73.5 -131.5h-131q0 38 -33.5 65.5t-92.5 27.5q-58 0 -92 -27.5t-34 -65.5h-131z" />
    <glyph glyph-name="uni0203" unicode="&#x203;" horiz-adv-x="1231" 
d="M510 -21q-120 0 -210.5 38t-140.5 109t-50 171q0 107 56.5 177t156 108.5t226.5 50.5q189 19 266.5 37t77.5 59v0.5v1.5q0 81 -69 123t-197 42q-135 0 -208.5 -47.5t-73.5 -150.5h-213q0 122 63.5 207t175.5 129.5t257 44.5q133 0 242.5 -40.5t174.5 -120.5t65 -199
v-41.5v-41.5v-424q0 -37 3 -71.5t11 -61.5q9 -31 21.5 -51t20.5 -28h-216q-6 6 -17.5 25.5t-20.5 45.5q-9 25 -13.5 57.5t-4.5 70.5l40 -28q-30 -58 -90.5 -101t-145 -67t-187.5 -24zM555 159q93 0 169.5 29.5t122.5 90t46 152.5v176l51 -67q-64 -25 -156.5 -40.5
t-190.5 -25.5q-135 -12 -203 -46.5t-68 -114.5q0 -77 56.5 -115.5t172.5 -38.5zM382 1270q0 108 73.5 162.5t183.5 54.5t183.5 -54.5t73.5 -162.5h-131q0 61 -34 94.5t-92 33.5t-91.5 -33.5t-33.5 -94.5h-132z" />
    <glyph glyph-name="uni0204" unicode="&#x204;" horiz-adv-x="1106" 
d="M255 1295l98 114v-648l-52 69h559v-180h-559l52 69v-653l-98 114h716v-180h-836v1475h836v-180h-716zM795 1552h-129l-203 192h151zM480 1552h-130l-217 192h151z" />
    <glyph glyph-name="uni0205" unicode="&#x205;" horiz-adv-x="1296" 
d="M219 455v169h782l-30 -50v12.5v11.5q0 81 -35 149.5t-104.5 110t-173.5 41.5t-182.5 -44.5t-122 -126t-43.5 -195.5q0 -116 42 -199.5t121 -128.5t189 -45q77 0 133.5 15.5t93 41.5t55.5 56.5t22 60.5h216q-6 -65 -42.5 -128.5t-103 -115t-162 -82t-219.5 -30.5
q-166 0 -291 70t-195 194.5t-70 285.5q0 164 71 288t197 193.5t289 69.5q166 0 287.5 -70t187.5 -193t66 -283q0 -19 -1 -44t-3 -34h-974zM891 1222h-124l-183 253h151zM576 1222h-125l-198 253h152z" />
    <glyph glyph-name="uni0206" unicode="&#x206;" horiz-adv-x="1106" 
d="M255 1295l98 114v-648l-52 69h559v-180h-559l52 69v-653l-98 114h716v-180h-836v1475h836v-180h-716zM308 1543q0 82 73.5 131.5t183.5 49.5t183.5 -49.5t73.5 -131.5h-131q0 38 -33.5 65.5t-92.5 27.5q-58 0 -92 -27.5t-34 -65.5h-131z" />
    <glyph glyph-name="uni0207" unicode="&#x207;" horiz-adv-x="1296" 
d="M219 455v169h782l-30 -50v12.5v11.5q0 81 -35 149.5t-104.5 110t-173.5 41.5t-182.5 -44.5t-122 -126t-43.5 -195.5q0 -116 42 -199.5t121 -128.5t189 -45q77 0 133.5 15.5t93 41.5t55.5 56.5t22 60.5h216q-6 -65 -42.5 -128.5t-103 -115t-162 -82t-219.5 -30.5
q-166 0 -291 70t-195 194.5t-70 285.5q0 164 71 288t197 193.5t289 69.5q166 0 287.5 -70t187.5 -193t66 -283q0 -19 -1 -44t-3 -34h-974zM397 1270q0 108 73.5 162.5t183.5 54.5t183.5 -54.5t73.5 -162.5h-131q0 61 -34 94.5t-92 33.5t-91.5 -33.5t-33.5 -94.5h-132z" />
    <glyph glyph-name="uni0208" unicode="&#x208;" horiz-adv-x="493" 
d="M139 0v1475h214v-1475h-214zM477 1552h-129l-203 192h151zM162 1552h-130l-217 192h151z" />
    <glyph glyph-name="uni0209" unicode="&#x209;" horiz-adv-x="504" 
d="M145 0v1062h214v-1062h-214zM489 1222h-124l-183 253h151zM174 1222h-125l-198 253h152z" />
    <glyph glyph-name="uni020A" unicode="&#x20a;" horiz-adv-x="493" 
d="M139 0v1475h214v-1475h-214zM-10 1543q0 82 73.5 131.5t183.5 49.5t183.5 -49.5t73.5 -131.5h-131q0 38 -33.5 65.5t-92.5 27.5q-58 0 -92 -27.5t-34 -65.5h-131z" />
    <glyph glyph-name="uni020B" unicode="&#x20b;" horiz-adv-x="504" 
d="M145 0v1062h214v-1062h-214zM-5 1270q0 108 73.5 162.5t183.5 54.5t183.5 -54.5t73.5 -162.5h-131q0 61 -34 94.5t-92 33.5t-91.5 -33.5t-33.5 -94.5h-132z" />
    <glyph glyph-name="uni020C" unicode="&#x20c;" horiz-adv-x="1419" 
d="M709 -21q-132 0 -243.5 50.5t-195 148t-129.5 239t-46 322.5q0 182 46 322.5t129.5 237t195.5 146t243 49.5q132 0 244.5 -49.5t195.5 -146t129 -237t46 -322.5q0 -181 -46 -322.5t-129.5 -239t-195.5 -148t-244 -50.5zM709 164q113 0 202.5 62t140.5 189.5t51 323.5
q0 197 -51.5 323t-140.5 186t-202 60q-111 0 -200.5 -60t-141.5 -186t-52 -323t52 -324.5t141.5 -189t200.5 -61.5zM939 1552h-129l-203 192h151zM624 1552h-130l-217 192h151z" />
    <glyph glyph-name="uni020D" unicode="&#x20d;" horiz-adv-x="1310" 
d="M655 -20q-164 0 -289.5 71t-196 195.5t-70.5 285.5q0 160 70.5 283.5t196 193t289.5 69.5t289.5 -69.5t196 -193t70.5 -283.5q0 -161 -70.5 -285.5t-196 -195.5t-289.5 -71zM655 166q100 0 176 45t119 127.5t43 193.5q0 110 -43 191t-119 125t-176 44q-99 0 -175.5 -44
t-119.5 -125t-43 -191q0 -111 43 -193.5t119.5 -127.5t175.5 -45zM892 1222h-124l-183 253h151zM577 1222h-125l-198 253h152z" />
    <glyph glyph-name="uni020E" unicode="&#x20e;" horiz-adv-x="1419" 
d="M709 -21q-132 0 -243.5 50.5t-195 148t-129.5 239t-46 322.5q0 182 46 322.5t129.5 237t195.5 146t243 49.5q132 0 244.5 -49.5t195.5 -146t129 -237t46 -322.5q0 -181 -46 -322.5t-129.5 -239t-195.5 -148t-244 -50.5zM709 164q113 0 202.5 62t140.5 189.5t51 323.5
q0 197 -51.5 323t-140.5 186t-202 60q-111 0 -200.5 -60t-141.5 -186t-52 -323t52 -324.5t141.5 -189t200.5 -61.5zM452 1543q0 82 73.5 131.5t183.5 49.5t183.5 -49.5t73.5 -131.5h-131q0 38 -33.5 65.5t-92.5 27.5q-58 0 -92 -27.5t-34 -65.5h-131z" />
    <glyph glyph-name="uni020F" unicode="&#x20f;" horiz-adv-x="1310" 
d="M655 -20q-164 0 -289.5 71t-196 195.5t-70.5 285.5q0 160 70.5 283.5t196 193t289.5 69.5t289.5 -69.5t196 -193t70.5 -283.5q0 -161 -70.5 -285.5t-196 -195.5t-289.5 -71zM655 166q100 0 176 45t119 127.5t43 193.5q0 110 -43 191t-119 125t-176 44q-99 0 -175.5 -44
t-119.5 -125t-43 -191q0 -111 43 -193.5t119.5 -127.5t175.5 -45zM399 1270q0 108 73.5 162.5t183.5 54.5t183.5 -54.5t73.5 -162.5h-131q0 61 -34 94.5t-92 33.5t-91.5 -33.5t-33.5 -94.5h-132z" />
    <glyph glyph-name="uni0210" unicode="&#x210;" horiz-adv-x="1218" 
d="M135 0v1475h540q213 0 322 -99t109 -297q0 -116 -44.5 -198t-107 -126.5t-117.5 -50.5q56 -4 109 -30t88 -80t35 -146v-158v-159q0 -45 7.5 -81.5t18.5 -49.5h-219q-9 15 -16 50t-7 81v145v146q0 95 -56.5 142.5t-164.5 47.5h-344l59 77v-689h-212zM347 707l-59 85h346
q70 0 126 33.5t89.5 94t33.5 141.5q0 122 -67 178t-192 56h-341l64 83v-671zM790 1552h-129l-203 192h151zM475 1552h-130l-217 192h151z" />
    <glyph glyph-name="uni0211" unicode="&#x211;" horiz-adv-x="843" 
d="M142 0v1062h217v-339l-58 26q7 65 33 124t69.5 105.5t107.5 73.5t148 27q64 0 103.5 -10t48.5 -16l-46 -204q-10 7 -40.5 18t-84.5 11q-82 0 -136 -29t-86 -77t-45.5 -104.5t-13.5 -113.5v-554h-217zM752 1222h-124l-183 253h151zM437 1222h-125l-198 253h152z" />
    <glyph glyph-name="uni0212" unicode="&#x212;" horiz-adv-x="1218" 
d="M135 0v1475h540q213 0 322 -99t109 -297q0 -116 -44.5 -198t-107 -126.5t-117.5 -50.5q56 -4 109 -30t88 -80t35 -146v-158v-159q0 -45 7.5 -81.5t18.5 -49.5h-219q-9 15 -16 50t-7 81v145v146q0 95 -56.5 142.5t-164.5 47.5h-344l59 77v-689h-212zM347 707l-59 85h346
q70 0 126 33.5t89.5 94t33.5 141.5q0 122 -67 178t-192 56h-341l64 83v-671zM303 1543q0 82 73.5 131.5t183.5 49.5t183.5 -49.5t73.5 -131.5h-131q0 38 -33.5 65.5t-92.5 27.5q-58 0 -92 -27.5t-34 -65.5h-131z" />
    <glyph glyph-name="uni0213" unicode="&#x213;" horiz-adv-x="843" 
d="M142 0v1062h217v-339l-58 26q7 65 33 124t69.5 105.5t107.5 73.5t148 27q64 0 103.5 -10t48.5 -16l-46 -204q-10 7 -40.5 18t-84.5 11q-82 0 -136 -29t-86 -77t-45.5 -104.5t-13.5 -113.5v-554h-217zM259 1270q0 108 73.5 162.5t183.5 54.5t183.5 -54.5t73.5 -162.5h-131
q0 61 -34 94.5t-92 33.5t-91.5 -33.5t-33.5 -94.5h-132z" />
    <glyph glyph-name="uni0214" unicode="&#x214;" horiz-adv-x="1314" 
d="M1179 540q0 -284 -139 -422.5t-384 -138.5q-244 0 -382.5 138.5t-138.5 422.5v89.5v99.5v746h217v-770v-89v-75q0 -200 76 -288.5t228 -88.5q153 0 229.5 88.5t76.5 288.5v934h217v-935zM886 1552h-129l-203 192h151zM571 1552h-130l-217 192h151z" />
    <glyph glyph-name="uni0215" unicode="&#x215;" horiz-adv-x="1222" 
d="M529 -19q-113 0 -188 38.5t-119 101t-62 137t-18 145.5v77.5v81.5v500h218v-469v-70.5v-64.5q0 -77 20 -141.5t70.5 -104t141.5 -39.5q85 0 148 50.5t98 128t35 155.5l95 -51q0 -92 -30.5 -177t-87.5 -152.5t-138.5 -106.5t-182.5 -39zM873 0v1062h217v-1062h-217z
M835 1222h-124l-183 253h151zM520 1222h-125l-198 253h152z" />
    <glyph glyph-name="uni0216" unicode="&#x216;" horiz-adv-x="1314" 
d="M1179 540q0 -284 -139 -422.5t-384 -138.5q-244 0 -382.5 138.5t-138.5 422.5v89.5v99.5v746h217v-770v-89v-75q0 -200 76 -288.5t228 -88.5q153 0 229.5 88.5t76.5 288.5v934h217v-935zM399 1543q0 82 73.5 131.5t183.5 49.5t183.5 -49.5t73.5 -131.5h-131
q0 38 -33.5 65.5t-92.5 27.5q-58 0 -92 -27.5t-34 -65.5h-131z" />
    <glyph glyph-name="uni0217" unicode="&#x217;" horiz-adv-x="1222" 
d="M529 -19q-113 0 -188 38.5t-119 101t-62 137t-18 145.5v77.5v81.5v500h218v-469v-70.5v-64.5q0 -77 20 -141.5t70.5 -104t141.5 -39.5q85 0 148 50.5t98 128t35 155.5l95 -51q0 -92 -30.5 -177t-87.5 -152.5t-138.5 -106.5t-182.5 -39zM873 0v1062h217v-1062h-217z
M342 1270q0 108 73.5 162.5t183.5 54.5t183.5 -54.5t73.5 -162.5h-131q0 61 -34 94.5t-92 33.5t-91.5 -33.5t-33.5 -94.5h-132z" />
    <glyph glyph-name="uni0218" unicode="&#x218;" horiz-adv-x="1198" 
d="M599 -21q-156 0 -268.5 49t-174 148.5t-61.5 246.5v33v32h217v-29.5v-31.5q0 -136 73 -199.5t213 -63.5q143 0 218 48.5t75 156.5q0 77 -46.5 129.5t-128 90.5t-187.5 71q-119 37 -215 94.5t-152.5 144t-56.5 211.5q0 123 62 209t172 130.5t252 44.5q151 0 263.5 -46.5
t175 -140t62.5 -235.5v-34.5v-35.5h-218v31v30q0 130 -70.5 188t-208.5 58q-134 0 -206.5 -47t-72.5 -152q0 -78 46.5 -130t128 -89t185.5 -72q132 -44 227.5 -99t147.5 -137t52 -207q0 -126 -62 -215t-175 -135.5t-267 -46.5zM580 -251q-38 0 -62.5 22t-24.5 58
q0 43 32.5 64t71.5 21q25 0 50 -10.5t41.5 -33t16.5 -62.5q0 -69 -27.5 -119.5t-66.5 -82.5t-77 -50l-16 40q28 12 58 36.5t50 61t20 82.5q-5 -12 -24.5 -19.5t-41.5 -7.5z" />
    <glyph glyph-name="uni0219" unicode="&#x219;" horiz-adv-x="1124" 
d="M560 -21q-95 0 -179 21t-147.5 61.5t-99 100.5t-35.5 139v14.5v12.5h216v-9v-11q0 -73 67.5 -110.5t183.5 -37.5q68 0 124.5 14t90 43t33.5 74q0 73 -71.5 104t-216.5 55q-79 14 -152.5 36t-132 58.5t-93 91t-34.5 131.5q0 100 60 170t162 106t225 36q119 0 220.5 -38.5
t163.5 -111t62 -177.5v-9v-9h-215v7v7q0 52 -33 85t-85.5 49.5t-111.5 16.5q-54 0 -108.5 -11.5t-90.5 -39t-36 -74.5q0 -48 35 -76.5t99 -47t149 -33.5q78 -14 152 -35.5t133.5 -56.5t95 -90t35.5 -135q0 -83 -38 -143t-103.5 -99.5t-149 -59t-175.5 -19.5zM544 -251
q-38 0 -62.5 22t-24.5 58q0 43 32.5 64t71.5 21q25 0 50 -10.5t41.5 -33t16.5 -62.5q0 -69 -27.5 -119.5t-66.5 -82.5t-77 -50l-16 40q28 12 58 36.5t50 61t20 82.5q-5 -12 -24.5 -19.5t-41.5 -7.5z" />
    <glyph glyph-name="uni021A" unicode="&#x21a;" horiz-adv-x="1122" 
d="M1048 1295h-447l68 114v-1409h-217v1409l75 -114h-453v180h974v-180zM543 -251q-38 0 -62.5 22t-24.5 58q0 43 32.5 64t71.5 21q25 0 50 -10.5t41.5 -33t16.5 -62.5q0 -69 -27.5 -119.5t-66.5 -82.5t-77 -50l-16 40q28 12 58 36.5t50 61t20 82.5q-5 -12 -24.5 -19.5
t-41.5 -7.5z" />
    <glyph glyph-name="uni021B" unicode="&#x21b;" horiz-adv-x="906" 
d="M596 -18q-53 0 -105.5 11t-96 40.5t-69.5 84.5t-26 144v44v47v529h-255v180h134q43 0 67.5 3.5t36 17t14.5 43.5t3 82v205h217v-351h325v-180h-325v-471v-40v-37q0 -80 19.5 -126t89.5 -46q30 0 57 5t41 11v-177q-18 -7 -51 -13t-76 -6zM499 -251q-38 0 -62.5 22
t-24.5 58q0 43 32.5 64t71.5 21q25 0 50 -10.5t41.5 -33t16.5 -62.5q0 -69 -27.5 -119.5t-66.5 -82.5t-77 -50l-16 40q28 12 58 36.5t50 61t20 82.5q-5 -12 -24.5 -19.5t-41.5 -7.5z" />
    <glyph glyph-name="uni0228" unicode="&#x228;" horiz-adv-x="1106" 
d="M255 1295l98 114v-648l-52 69h559v-180h-559l52 69v-653l-98 114h716v-180h-836v1475h836v-180h-716zM670 -91q34 0 66.5 -16t53.5 -48.5t21 -84.5q0 -62 -35 -102t-91.5 -60t-120.5 -20q-59 0 -112 14t-73 28l45 85q16 -10 56.5 -25t91.5 -15q58 0 98.5 25.5t40.5 73.5
q0 40 -21.5 58t-54.5 18q-24 0 -50 -10t-40 -27l-87 26l70 171h98l-62 -151l-13 5q9 21 43 38t76 17z" />
    <glyph glyph-name="uni0229" unicode="&#x229;" horiz-adv-x="1293" 
d="M753 -91q35 0 67 -16t53.5 -48.5t21.5 -84.5q0 -62 -35.5 -102t-92 -60t-120.5 -20q-58 0 -111 14t-73 28l44 85q16 -10 57 -25t91 -15q59 0 99 25.5t40 73.5q0 40 -21 58t-54 18q-25 0 -51 -10t-39 -27l-91 26l70 171h104l-61 -151l-24 5q9 21 46.5 38t79.5 17zM219 455
v169h782l-30 -50v12.5v11.5q0 81 -35 149.5t-104.5 110t-173.5 41.5t-182.5 -44.5t-122 -126t-43.5 -195.5q0 -116 42 -199.5t121 -128.5t189 -45q77 0 133.5 15.5t93 41.5t55.5 56.5t22 60.5h216q-6 -65 -42.5 -128.5t-103 -115t-162 -82t-219.5 -30.5q-166 0 -291 70
t-195 194.5t-70 285.5q0 164 71 288t197 193.5t289 69.5q166 0 287.5 -70t187.5 -193t66 -283q0 -19 -1 -44t-3 -34h-974z" />
    <glyph glyph-name="uni022A" unicode="&#x22a;" horiz-adv-x="1419" 
d="M709 -21q-132 0 -243.5 50.5t-195 148t-129.5 239t-46 322.5q0 182 46 322.5t129.5 237t195.5 146t243 49.5q132 0 244.5 -49.5t195.5 -146t129 -237t46 -322.5q0 -181 -46 -322.5t-129.5 -239t-195.5 -148t-244 -50.5zM709 164q113 0 202.5 62t140.5 189.5t51 323.5
q0 197 -51.5 323t-140.5 186t-202 60q-111 0 -200.5 -60t-141.5 -186t-52 -323t52 -324.5t141.5 -189t200.5 -61.5zM500 1555q-51 0 -89 28t-38 78t38 78t89 28t88.5 -28t37.5 -78t-37.5 -78t-88.5 -28zM920 1555q-51 0 -88.5 28t-37.5 78t37.5 78t88.5 28t89 -28t38 -78
t-38 -78t-89 -28zM432 1876v94h553v-94h-553z" />
    <glyph glyph-name="uni022B" unicode="&#x22b;" horiz-adv-x="1310" 
d="M655 -20q-164 0 -289.5 71t-196 195.5t-70.5 285.5q0 160 70.5 283.5t196 193t289.5 69.5t289.5 -69.5t196 -193t70.5 -283.5q0 -161 -70.5 -285.5t-196 -195.5t-289.5 -71zM655 166q100 0 176 45t119 127.5t43 193.5q0 110 -43 191t-119 125t-176 44q-99 0 -175.5 -44
t-119.5 -125t-43 -191q0 -111 43 -193.5t119.5 -127.5t175.5 -45zM445 1279q-51 0 -89 28t-38 78t38 78t89 28t88.5 -28t37.5 -78t-37.5 -78t-88.5 -28zM865 1279q-51 0 -88.5 28t-37.5 78t37.5 78t88.5 28t89 -28t38 -78t-38 -78t-89 -28zM379 1626v94h553v-94h-553z" />
    <glyph glyph-name="uni022C" unicode="&#x22c;" horiz-adv-x="1419" 
d="M709 -21q-132 0 -243.5 50.5t-195 148t-129.5 239t-46 322.5q0 182 46 322.5t129.5 237t195.5 146t243 49.5q132 0 244.5 -49.5t195.5 -146t129 -237t46 -322.5q0 -181 -46 -322.5t-129.5 -239t-195.5 -148t-244 -50.5zM709 164q113 0 202.5 62t140.5 189.5t51 323.5
q0 197 -51.5 323t-140.5 186t-202 60q-111 0 -200.5 -60t-141.5 -186t-52 -323t52 -324.5t141.5 -189t200.5 -61.5zM1017 1726q-1 -37 -19 -79t-56 -72.5t-100 -30.5q-47 0 -81 19t-59 38q-22 18 -45.5 32t-54.5 14q-38 0 -53.5 -24.5t-17.5 -53.5h-119q2 39 22.5 82t61 73
t101.5 30q47 0 80 -18.5t56 -37.5q23 -18 47.5 -33t51.5 -15q38 0 51.5 23.5t14.5 52.5h119zM432 1888v94h553v-94h-553z" />
    <glyph glyph-name="uni022D" unicode="&#x22d;" horiz-adv-x="1310" 
d="M655 -20q-164 0 -289.5 71t-196 195.5t-70.5 285.5q0 160 70.5 283.5t196 193t289.5 69.5t289.5 -69.5t196 -193t70.5 -283.5q0 -161 -70.5 -285.5t-196 -195.5t-289.5 -71zM655 166q100 0 176 45t119 127.5t43 193.5q0 110 -43 191t-119 125t-176 44q-99 0 -175.5 -44
t-119.5 -125t-43 -191q0 -111 43 -193.5t119.5 -127.5t175.5 -45zM958 1453q-1 -37 -19 -79.5t-56 -73t-100 -30.5q-47 0 -81 19t-59 39q-22 17 -45.5 31t-54.5 14q-38 0 -53.5 -24t-17.5 -54h-119q2 39 22.5 82t61 73t101.5 30q47 0 80 -18.5t56 -36.5q23 -19 47.5 -34
t51.5 -15q38 0 51.5 23.5t14.5 53.5h119zM379 1616v94h553v-94h-553z" />
    <glyph glyph-name="uni0230" unicode="&#x230;" horiz-adv-x="1419" 
d="M709 -21q-132 0 -243.5 50.5t-195 148t-129.5 239t-46 322.5q0 182 46 322.5t129.5 237t195.5 146t243 49.5q132 0 244.5 -49.5t195.5 -146t129 -237t46 -322.5q0 -181 -46 -322.5t-129.5 -239t-195.5 -148t-244 -50.5zM709 164q113 0 202.5 62t140.5 189.5t51 323.5
q0 197 -51.5 323t-140.5 186t-202 60q-111 0 -200.5 -60t-141.5 -186t-52 -323t52 -324.5t141.5 -189t200.5 -61.5zM712 1568q-55 0 -96 30.5t-41 83.5q0 54 41 84t96 30t95.5 -30t40.5 -84t-40.5 -84t-95.5 -30zM434 1931v94h553v-94h-553z" />
    <glyph glyph-name="uni0231" unicode="&#x231;" horiz-adv-x="1310" 
d="M655 -20q-164 0 -289.5 71t-196 195.5t-70.5 285.5q0 160 70.5 283.5t196 193t289.5 69.5t289.5 -69.5t196 -193t70.5 -283.5q0 -161 -70.5 -285.5t-196 -195.5t-289.5 -71zM655 166q100 0 176 45t119 127.5t43 193.5q0 110 -43 191t-119 125t-176 44q-99 0 -175.5 -44
t-119.5 -125t-43 -191q0 -111 43 -193.5t119.5 -127.5t175.5 -45zM657 1281q-55 0 -96 30.5t-41 83.5q0 54 41 84t96 30t95.5 -30t40.5 -84t-40.5 -84t-95.5 -30zM379 1642v94h553v-94h-553z" />
    <glyph glyph-name="uni0232" unicode="&#x232;" horiz-adv-x="1192" 
d="M1121 1475l-418 -964v-511h-217v511l-416 964h230l340 -841h-89l339 841h231zM319 1610v94h553v-94h-553z" />
    <glyph glyph-name="uni0233" unicode="&#x233;" horiz-adv-x="1069" 
d="M193 -452q-43 0 -78.5 4.5t-43.5 8.5v177q13 -6 43.5 -10t63.5 -4q59 0 101.5 24t72 66.5t47.5 96.5l27 80l-366 1071h226l273 -900h-28l266 900h223l-381 -1140q-35 -107 -86 -191.5t-136 -133.5t-224 -49zM259 1308v94h553v-94h-553z" />
    <glyph glyph-name="uni0237" unicode="&#x237;" horiz-adv-x="521" 
d="M-26 -450q-28 0 -53 2t-41 5v163q16 -4 41.5 -7t52.5 -3q63 0 99.5 18.5t54 48t23 65.5t5.5 70v1150h217v-1157q0 -66 -14 -129t-54.5 -114t-119.5 -81.5t-211 -30.5z" />
    <glyph glyph-name="uni0259" unicode="&#x259;" horiz-adv-x="1296" 
d="M640 -22q-166 0 -287.5 70t-187.5 193t-66 283q0 19 0.5 44t1.5 34h960v-169h-766l30 50v-12.5v-11.5q0 -80 33.5 -149t103 -110.5t176.5 -41.5q109 0 187 42.5t120.5 124.5t42.5 199q0 120 -40 203t-118.5 126.5t-196.5 43.5q-78 0 -133.5 -15.5t-91.5 -41t-55 -56
t-23 -61.5h-216q6 65 42.5 128.5t103 115t162 82t219.5 30.5q166 0 291 -70t195 -194t70 -286q0 -163 -71 -287.5t-196.5 -194t-289.5 -69.5z" />
    <glyph glyph-name="uni0272" unicode="&#x272;" horiz-adv-x="1185" 
d="M836 0v490v73v56q0 78 -20.5 137.5t-71 93t-142.5 33.5q-81 0 -147 -40t-104 -108.5t-38 -155.5l-94 46q0 129 61 231.5t163.5 162.5t225.5 60q125 0 210.5 -48.5t129 -138t43.5 -213.5v-102v-108v-469h-216zM-120 -461v157q60 0 101.5 21t67 57t37 80.5t11.5 89.5v1118
h216v-1118q0 -72 -13 -143.5t-56 -131t-129.5 -95t-234.5 -35.5z" />
    <glyph glyph-name="uni0292" unicode="&#x292;" horiz-adv-x="1178" 
d="M588 -434q-129 0 -218 35.5t-142.5 100t-78 151.5t-24.5 191v2v2h218v-2v-2q0 -169 65.5 -233.5t182.5 -64.5q105 0 166.5 63.5t61.5 207.5q0 93 -31.5 143.5t-101 70.5t-182.5 20h-91l368 631h-621v180h859v-167l-299 -486q112 0 181.5 -49t103 -135t33.5 -196
q0 -137 -48 -241.5t-147.5 -163t-254.5 -58.5z" />
    <glyph glyph-name="uni02BC" unicode="&#x2bc;" horiz-adv-x="324" 
d="M250 1475l-26 -441h-126l-24 441h176z" />
    <glyph glyph-name="circumflex" unicode="&#x2c6;" horiz-adv-x="891" 
d="M151 1222l220 253h150l221 -253h-148l-179 211h62l-180 -211h-146z" />
    <glyph glyph-name="caron" unicode="&#x2c7;" horiz-adv-x="891" 
d="M151 1475h146l180 -211h-62l179 211h148l-221 -253h-150z" />
    <glyph glyph-name="uni02C9" unicode="&#x2c9;" horiz-adv-x="800" 
d="M122 1308v94h553v-94h-553z" />
    <glyph glyph-name="breve" unicode="&#x2d8;" horiz-adv-x="671" 
d="M74 1495h131q0 -61 34 -102t92 -41q59 0 92.5 41t33.5 102h131q0 -108 -73.5 -170t-183.5 -62t-183.5 62t-73.5 170z" />
    <glyph glyph-name="dotaccent" unicode="&#x2d9;" horiz-adv-x="473" 
d="M236 1281q-55 0 -96 30.5t-41 83.5q0 54 41 84t96 30t95.5 -30t40.5 -84t-40.5 -84t-95.5 -30z" />
    <glyph glyph-name="ring" unicode="&#x2da;" horiz-adv-x="750" 
d="M371 1247q45 0 76 31t31 76q0 44 -31 75t-76 31q-43 0 -74.5 -31t-31.5 -75q0 -45 31.5 -76t74.5 -31zM371 1149q-56 0 -102.5 27.5t-74.5 74t-28 103.5q0 56 28 102.5t74.5 74.5t102.5 28q58 0 104 -28t73.5 -74.5t27.5 -102.5q0 -57 -27.5 -103.5t-73.5 -74t-104 -27.5
z" />
    <glyph glyph-name="ogonek" unicode="&#x2db;" horiz-adv-x="826" 
d="M484 -322v-109q-20 -3 -44.5 -5t-48.5 -2q-58 0 -106 16t-76.5 51t-28.5 91q0 52 30.5 105t74.5 99.5t83 75.5h116q-34 -30 -76 -75t-73 -92.5t-31 -84.5q0 -42 28 -60t72 -18q19 0 41 2.5t39 5.5z" />
    <glyph glyph-name="tilde" unicode="&#x2dc;" horiz-adv-x="909" 
d="M768 1453q-1 -37 -19 -79.5t-56 -73t-100 -30.5q-47 0 -81 19t-59 39q-22 17 -45.5 31t-54.5 14q-38 0 -53.5 -24t-17.5 -54h-119q2 39 22.5 82t61 73t101.5 30q47 0 80 -18.5t56 -36.5q23 -19 47.5 -34t51.5 -15q38 0 51.5 23.5t14.5 53.5h119z" />
    <glyph glyph-name="hungarumlaut" unicode="&#x2dd;" horiz-adv-x="912" 
d="M122 1222l157 253h151l-188 -253h-120zM442 1222l166 253h152l-198 -253h-120z" />
    <glyph glyph-name="gravecomb" unicode="&#x300;" 
d="M556 1222h-161l-263 253h184z" />
    <glyph glyph-name="acutecomb" unicode="&#x301;" 
d="M70 1222l239 253h184l-263 -253h-160z" />
    <glyph glyph-name="uni0302" unicode="&#x302;" 
d="M151 1222l220 253h150l221 -253h-148l-179 211h62l-180 -211h-146z" />
    <glyph glyph-name="tildecomb" unicode="&#x303;" 
d="M768 1453q-1 -37 -19 -79.5t-56 -73t-100 -30.5q-47 0 -81 19t-59 39q-22 17 -45.5 31t-54.5 14q-38 0 -53.5 -24t-17.5 -54h-119q2 39 22.5 82t61 73t101.5 30q47 0 80 -18.5t56 -36.5q23 -19 47.5 -34t51.5 -15q38 0 51.5 23.5t14.5 53.5h119z" />
    <glyph glyph-name="uni0304" unicode="&#x304;" 
d="M122 1308v94h553v-94h-553z" />
    <glyph glyph-name="uni0306" unicode="&#x306;" 
d="M74 1495h131q0 -61 34 -102t92 -41q59 0 92.5 41t33.5 102h131q0 -108 -73.5 -170t-183.5 -62t-183.5 62t-73.5 170z" />
    <glyph glyph-name="uni0307" unicode="&#x307;" 
d="M236 1281q-55 0 -96 30.5t-41 83.5q0 54 41 84t96 30t95.5 -30t40.5 -84t-40.5 -84t-95.5 -30z" />
    <glyph glyph-name="uni0308" unicode="&#x308;" 
d="M184 1279q-51 0 -89 28t-38 78t38 78t89 28t88.5 -28t37.5 -78t-37.5 -78t-88.5 -28zM604 1279q-51 0 -88.5 28t-37.5 78t37.5 78t88.5 28t89 -28t38 -78t-38 -78t-89 -28z" />
    <glyph glyph-name="hookabovecomb" unicode="&#x309;" 
d="M183 1502q110 0 196 -8.5t136 -34.5t50 -81q0 -47 -35 -76.5t-92.5 -43t-125.5 -13.5l-25 63q35 2 73.5 7.5t65.5 18.5t27 36q0 38 -72.5 47.5t-197.5 9.5v75z" />
    <glyph glyph-name="uni030A" unicode="&#x30a;" 
d="M371 1247q45 0 76 31t31 76q0 44 -31 75t-76 31q-43 0 -74.5 -31t-31.5 -75q0 -45 31.5 -76t74.5 -31zM371 1149q-56 0 -102.5 27.5t-74.5 74t-28 103.5q0 56 28 102.5t74.5 74.5t102.5 28q58 0 104 -28t73.5 -74.5t27.5 -102.5q0 -57 -27.5 -103.5t-73.5 -74t-104 -27.5
z" />
    <glyph glyph-name="uni030B" unicode="&#x30b;" 
d="M122 1222l157 253h151l-188 -253h-120zM442 1222l166 253h152l-198 -253h-120z" />
    <glyph glyph-name="uni030C" unicode="&#x30c;" 
d="M151 1475h146l180 -211h-62l179 211h148l-221 -253h-150z" />
    <glyph glyph-name="uni030F" unicode="&#x30f;" 
d="M685 1222h-124l-183 253h151zM370 1222h-125l-198 253h152z" />
    <glyph glyph-name="uni0311" unicode="&#x311;" 
d="M59 1270q0 108 73.5 162.5t183.5 54.5t183.5 -54.5t73.5 -162.5h-131q0 61 -34 94.5t-92 33.5t-91.5 -33.5t-33.5 -94.5h-132z" />
    <glyph glyph-name="uni0312" unicode="&#x312;" 
d="M226 1393q45 0 72 -26t27 -69q0 -44 -29 -73t-84 -29q-57 0 -86.5 38.5t-29.5 96.5q0 57 26.5 101t68 75t84.5 48l21 -44q-31 -11 -59.5 -33t-47 -49t-18.5 -56q3 6 18.5 13t36.5 7z" />
    <glyph glyph-name="uni031B" unicode="&#x31b;" 
d="M212 1063q68 0 104 26t50 85.5t14 160.5h123q0 -139 -32 -221t-96.5 -118.5t-162.5 -36.5v104z" />
    <glyph glyph-name="dotbelowcomb" unicode="&#x323;" 
d="M236 -364q-55 0 -96 30.5t-41 83.5t41 83t96 30q54 0 95 -30t41 -83q0 -54 -41 -84t-95 -30z" />
    <glyph glyph-name="uni0324" unicode="&#x324;" 
d="M184 -361q-51 0 -89 28.5t-38 78.5q0 49 38 77.5t89 28.5t88.5 -28.5t37.5 -77.5q0 -50 -37.5 -78.5t-88.5 -28.5zM604 -361q-51 0 -88.5 28.5t-37.5 78.5q0 49 37.5 77.5t88.5 28.5t89 -28.5t38 -77.5q0 -50 -38 -78.5t-89 -28.5z" />
    <glyph glyph-name="uni0326" unicode="&#x326;" 
d="M200 -251q-38 0 -62.5 22t-24.5 58q0 43 32.5 64t71.5 21q25 0 50 -10.5t41.5 -33t16.5 -62.5q0 -69 -27.5 -119.5t-66.5 -82.5t-77 -50l-16 40q28 12 58 36.5t50 61t20 82.5q-5 -12 -24.5 -19.5t-41.5 -7.5z" />
    <glyph glyph-name="uni0327" unicode="&#x327;" 
d="M508 -91q34 0 66.5 -16t53.5 -48.5t21 -84.5q0 -62 -35 -102t-91.5 -60t-120.5 -20q-59 0 -112 14t-73 28l45 85q16 -10 56.5 -25t91.5 -15q58 0 98.5 25.5t40.5 73.5q0 40 -21.5 58t-54.5 18q-24 0 -50 -10t-40 -27l-91 26l70 171h105l-61 -151l-25 5q9 21 47 38t80 17z
" />
    <glyph glyph-name="uni0328" unicode="&#x328;" 
d="M484 -322v-109q-20 -3 -44.5 -5t-48.5 -2q-58 0 -106 16t-76.5 51t-28.5 91q0 52 30.5 105t74.5 99.5t83 75.5h116q-34 -30 -76 -75t-73 -92.5t-31 -84.5q0 -42 28 -60t72 -18q19 0 41 2.5t39 5.5z" />
    <glyph glyph-name="uni032E" unicode="&#x32e;" 
d="M106 -123h132q0 -62 34 -95.5t92 -33.5t91.5 33.5t33.5 95.5h131q0 -108 -73.5 -162.5t-182.5 -54.5q-111 0 -184.5 54.5t-73.5 162.5z" />
    <glyph glyph-name="uni0331" unicode="&#x331;" 
d="M121 -274v95h519v-95h-519z" />
    <glyph glyph-name="uni0335" unicode="&#x335;" 
d="M84 515v103h707v-103h-707z" />
    <glyph glyph-name="uni0336" unicode="&#x336;" 
d="M84 515v103h1005v-103h-1005z" />
    <glyph glyph-name="uni0337" unicode="&#x337;" 
d="M953 1047l-728 -1094l-100 69l729 1095z" />
    <glyph glyph-name="uni0338" unicode="&#x338;" 
d="M1238 1491l-951 -1587l-115 65l949 1587z" />
    <glyph glyph-name="uni1E08" unicode="&#x1e08;" horiz-adv-x="1354" 
d="M1259 522q0 -92 -34 -187t-103 -176t-174 -130.5t-247 -49.5q-145 0 -258 56.5t-190.5 159t-117.5 241t-40 301.5q0 165 40 303t117.5 240t190.5 158t258 56q161 0 274.5 -63t181 -162t89.5 -206q13 -58 13 -110h-218q0 28 -5 61q-11 80 -53.5 147t-113 107t-168.5 40
q-114 0 -201 -63.5t-135.5 -190.5t-48.5 -317q0 -189 48.5 -316.5t135.5 -192t201 -64.5q83 0 146 30t106 81t65.5 115t22.5 132h218zM789 -91q34 0 66.5 -16t54 -48.5t21.5 -84.5q0 -62 -35.5 -102t-92 -60t-120.5 -20q-58 0 -111.5 14t-73.5 28l45 85q16 -10 57 -25
t91 -15q59 0 99 25.5t40 73.5q0 40 -21.5 58t-53.5 18q-25 0 -51 -10t-39 -27l-88 26l70 171h98l-61 -151l-13 5q9 21 42.5 38t75.5 17zM558 1553l279 190h194l-297 -190h-176z" />
    <glyph glyph-name="uni1E09" unicode="&#x1e09;" horiz-adv-x="1262" 
d="M742 -91q35 0 67 -16t53.5 -48.5t21.5 -84.5q0 -62 -35.5 -102t-92 -60t-120.5 -20q-58 0 -111 14t-73 28l44 85q16 -10 57 -25t91 -15q59 0 99 25.5t40 73.5q0 40 -21 58t-54 18q-25 0 -51 -10t-39 -27l-91 26l70 171h104l-61 -151l-24 5q9 21 46.5 38t79.5 17zM657 -21
q-160 0 -286.5 67.5t-199 192.5t-72.5 294t72.5 291.5t199 188.5t286.5 66q121 0 215 -36.5t159 -96.5t99 -132t34 -144v-3v-4h-215q0 5 -1 11.5t-2 12.5q-8 59 -46 105t-100 73t-145 27q-91 0 -167.5 -39.5t-122.5 -119.5t-46 -200t45.5 -201.5t122 -123.5t168.5 -42
q99 0 162 30.5t95 82t37 111.5h215q0 -72 -33 -145.5t-97 -133.5t-158.5 -96t-218.5 -36zM505 1222l239 253h184l-263 -253h-160z" />
    <glyph glyph-name="uni1E0C" unicode="&#x1e0c;" horiz-adv-x="1281" 
d="M135 0v1475h405q147 0 266 -52t203.5 -148t130.5 -232t46 -304q0 -169 -46 -305t-130.5 -233t-203.5 -149t-266 -52h-405zM353 66l-98 114h259q130 0 232.5 68t160.5 193.5t58 297.5q0 173 -58 297.5t-160.5 191.5t-232.5 67h-259l98 114v-1343zM614 -365q-55 0 -96 30
t-41 83q0 54 41 84t96 30q54 0 95 -30t41 -84t-41 -83.5t-95 -29.5z" />
    <glyph glyph-name="uni1E0D" unicode="&#x1e0d;" horiz-adv-x="1277" 
d="M582 -21q-131 0 -241 63.5t-176 187.5t-66 303q0 175 67 297t177 185.5t239 63.5q124 0 230.5 -60t171.5 -166.5t65 -245.5v-7.5v-6.5l-126 -4v6.5v6.5q0 83 -42 147.5t-110.5 102t-145.5 37.5q-129 0 -216 -86.5t-87 -269.5q0 -182 87.5 -269.5t215.5 -87.5
q80 0 148 38.5t109 105.5t41 153l126 -5q0 -138 -62.5 -249t-168 -175.5t-236.5 -64.5zM923 0v1563h218v-1563h-218zM725 -373q-55 0 -96 30.5t-41 83.5t41 83t96 30q54 0 95 -30t41 -83q0 -54 -41 -84t-95 -30z" />
    <glyph glyph-name="uni1E0E" unicode="&#x1e0e;" horiz-adv-x="1281" 
d="M135 0v1475h405q147 0 266 -52t203.5 -148t130.5 -232t46 -304q0 -169 -46 -305t-130.5 -233t-203.5 -149t-266 -52h-405zM353 66l-98 114h259q130 0 232.5 68t160.5 193.5t58 297.5q0 173 -58 297.5t-160.5 191.5t-232.5 67h-259l98 114v-1343zM314 -274v95h599v-95
h-599z" />
    <glyph glyph-name="uni1E0F" unicode="&#x1e0f;" horiz-adv-x="1277" 
d="M582 -21q-131 0 -241 63.5t-176 187.5t-66 303q0 175 67 297t177 185.5t239 63.5q124 0 230.5 -60t171.5 -166.5t65 -245.5v-7.5v-6.5l-126 -4v6.5v6.5q0 83 -42 147.5t-110.5 102t-145.5 37.5q-129 0 -216 -86.5t-87 -269.5q0 -182 87.5 -269.5t215.5 -87.5
q80 0 148 38.5t109 105.5t41 153l126 -5q0 -138 -62.5 -249t-168 -175.5t-236.5 -64.5zM923 0v1563h218v-1563h-218zM463 -283v95h519v-95h-519z" />
    <glyph glyph-name="uni1E14" unicode="&#x1e14;" horiz-adv-x="1106" 
d="M255 1295l98 114v-648l-52 69h559v-180h-559l52 69v-653l-98 114h716v-180h-836v1475h836v-180h-716zM288 1610v94h553v-94h-553zM708 1782h-175l-298 190h194z" />
    <glyph glyph-name="uni1E15" unicode="&#x1e15;" horiz-adv-x="1296" 
d="M219 455v169h782l-30 -50v12.5v11.5q0 81 -35 149.5t-104.5 110t-173.5 41.5t-182.5 -44.5t-122 -126t-43.5 -195.5q0 -116 42 -199.5t121 -128.5t189 -45q77 0 133.5 15.5t93 41.5t55.5 56.5t22 60.5h216q-6 -65 -42.5 -128.5t-103 -115t-162 -82t-219.5 -30.5
q-166 0 -291 70t-195 194.5t-70 285.5q0 164 71 288t197 193.5t289 69.5q166 0 287.5 -70t187.5 -193t66 -283q0 -19 -1 -44t-3 -34h-974zM378 1308v94h553v-94h-553zM783 1560h-161l-263 253h184z" />
    <glyph glyph-name="uni1E16" unicode="&#x1e16;" horiz-adv-x="1106" 
d="M255 1295l98 114v-648l-52 69h559v-180h-559l52 69v-653l-98 114h716v-180h-836v1475h836v-180h-716zM288 1610v94h553v-94h-553zM427 1782l279 190h194l-297 -190h-176z" />
    <glyph glyph-name="uni1E17" unicode="&#x1e17;" horiz-adv-x="1296" 
d="M219 455v169h782l-30 -50v12.5v11.5q0 81 -35 149.5t-104.5 110t-173.5 41.5t-182.5 -44.5t-122 -126t-43.5 -195.5q0 -116 42 -199.5t121 -128.5t189 -45q77 0 133.5 15.5t93 41.5t55.5 56.5t22 60.5h216q-6 -65 -42.5 -128.5t-103 -115t-162 -82t-219.5 -30.5
q-166 0 -291 70t-195 194.5t-70 285.5q0 164 71 288t197 193.5t289 69.5q166 0 287.5 -70t187.5 -193t66 -283q0 -19 -1 -44t-3 -34h-974zM378 1308v94h553v-94h-553zM520 1562l239 253h184l-263 -253h-160z" />
    <glyph glyph-name="uni1E1C" unicode="&#x1e1c;" horiz-adv-x="1106" 
d="M255 1295l98 114v-648l-52 69h559v-180h-559l52 69v-653l-98 114h716v-180h-836v1475h836v-180h-716zM670 -91q34 0 66.5 -16t53.5 -48.5t21 -84.5q0 -62 -35 -102t-91.5 -60t-120.5 -20q-59 0 -112 14t-73 28l45 85q16 -10 56.5 -25t91.5 -15q58 0 98.5 25.5t40.5 73.5
q0 40 -21.5 58t-54.5 18q-24 0 -50 -10t-40 -27l-87 26l70 171h98l-62 -151l-13 5q9 21 43 38t76 17zM308 1722h132q0 -40 33.5 -69.5t91.5 -29.5q59 0 92 29.5t33 69.5h132q0 -83 -73.5 -135.5t-183.5 -52.5t-183.5 52.5t-73.5 135.5z" />
    <glyph glyph-name="uni1E1D" unicode="&#x1e1d;" horiz-adv-x="1293" 
d="M753 -91q35 0 67 -16t53.5 -48.5t21.5 -84.5q0 -62 -35.5 -102t-92 -60t-120.5 -20q-58 0 -111 14t-73 28l44 85q16 -10 57 -25t91 -15q59 0 99 25.5t40 73.5q0 40 -21 58t-54 18q-25 0 -51 -10t-39 -27l-91 26l70 171h104l-61 -151l-24 5q9 21 46.5 38t79.5 17zM219 455
v169h782l-30 -50v12.5v11.5q0 81 -35 149.5t-104.5 110t-173.5 41.5t-182.5 -44.5t-122 -126t-43.5 -195.5q0 -116 42 -199.5t121 -128.5t189 -45q77 0 133.5 15.5t93 41.5t55.5 56.5t22 60.5h216q-6 -65 -42.5 -128.5t-103 -115t-162 -82t-219.5 -30.5q-166 0 -291 70
t-195 194.5t-70 285.5q0 164 71 288t197 193.5t289 69.5q166 0 287.5 -70t187.5 -193t66 -283q0 -19 -1 -44t-3 -34h-974zM397 1495h131q0 -61 34 -102t92 -41q59 0 92.5 41t33.5 102h131q0 -108 -73.5 -170t-183.5 -62t-183.5 62t-73.5 170z" />
    <glyph glyph-name="uni1E20" unicode="&#x1e20;" horiz-adv-x="1390" 
d="M702 -21q-169 0 -306.5 89t-219 258t-81.5 409q0 241 83.5 410t226 259t319.5 90q145 0 245.5 -49t164 -126t92.5 -162.5t29 -160.5v-6v-6h-211v6v6q0 56 -19.5 111.5t-59 100.5t-100 72t-141.5 27q-110 0 -203 -60.5t-150 -187t-57 -324.5q0 -151 31.5 -259.5t86.5 -177
t127 -101.5t154 -33q110 0 181.5 37.5t111 93.5t50.5 111v135h-338v170h533v-711h-139l-16 164q-8 -17 -33 -47t-71.5 -62t-118 -54t-171.5 -22zM443 1610v94h553v-94h-553z" />
    <glyph glyph-name="uni1E21" unicode="&#x1e21;" horiz-adv-x="1232" 
d="M839 85q90 -8 158 -33.5t106.5 -75t38.5 -130.5q0 -91 -61.5 -158.5t-183.5 -105t-303 -37.5q-259 0 -395 75t-136 204q0 39 9 69t22 50l202 -30q-7 -10 -14 -29.5t-7 -47.5q0 -71 87 -101t241 -30q113 0 187.5 15.5t111.5 44.5t37 68q0 59 -51 74t-123 21l-403 33
q-105 9 -171.5 63t-66.5 136q0 51 26 95t60.5 74t59.5 37l142 -68q-23 -3 -55.5 -30.5t-32.5 -64.5q0 -34 28.5 -56t111.5 -29zM972 1062h197l-81 -415q-22 -116 -80.5 -209.5t-158 -147.5t-247.5 -54q-154 0 -265 53t-170.5 147.5t-59.5 215.5q0 123 61.5 220t170 152
t248.5 55q118 0 209.5 -40t145.5 -102t59 -129l-62 -7zM601 413q87 0 150 28.5t97 83t34 131.5q0 76 -34 130.5t-97 84t-149 29.5q-83 0 -146.5 -30.5t-99.5 -85.5t-36 -131t34 -129.5t97 -82t150 -28.5zM314 1308v94h553v-94h-553z" />
    <glyph glyph-name="uni1E24" unicode="&#x1e24;" horiz-adv-x="1322" 
d="M1187 1475v-1475h-217v733l98 -88h-814l98 87v-732h-217v1475h217v-740l-98 91h814l-98 -91v740h217zM661 -365q-55 0 -96 30t-41 83q0 54 41 84t96 30q54 0 95 -30t41 -84t-41 -83.5t-95 -29.5z" />
    <glyph glyph-name="uni1E25" unicode="&#x1e25;" horiz-adv-x="1248" 
d="M899 0v389v63v75.5v64.5q0 143 -58.5 217t-191.5 74q-89 0 -154 -35t-100.5 -96t-35.5 -139l-102 42q0 121 58.5 216.5t161 151.5t234.5 56q192 0 298.5 -114.5t106.5 -318.5v-122.5v-153.5v-370h-217zM142 0v1563h217v-1563h-217zM617 -364q-55 0 -96 30.5t-41 83.5
t41 83t96 30q54 0 95 -30t41 -83q0 -54 -41 -84t-95 -30z" />
    <glyph glyph-name="uni1E2A" unicode="&#x1e2a;" horiz-adv-x="1322" 
d="M1187 1475v-1475h-217v733l98 -88h-814l98 87v-732h-217v1475h217v-740l-98 91h814l-98 -91v740h217zM403 -123h132q0 -62 34 -95.5t92 -33.5t91.5 33.5t33.5 95.5h131q0 -108 -73.5 -162.5t-182.5 -54.5q-111 0 -184.5 54.5t-73.5 162.5z" />
    <glyph glyph-name="uni1E2B" unicode="&#x1e2b;" horiz-adv-x="1248" 
d="M899 0v389v63v75.5v64.5q0 143 -58.5 217t-191.5 74q-89 0 -154 -35t-100.5 -96t-35.5 -139l-102 42q0 121 58.5 216.5t161 151.5t234.5 56q192 0 298.5 -114.5t106.5 -318.5v-122.5v-153.5v-370h-217zM142 0v1563h217v-1563h-217zM356 -123h132q0 -62 34 -95.5t92 -33.5
t91.5 33.5t33.5 95.5h131q0 -108 -73.5 -162.5t-182.5 -54.5q-111 0 -184.5 54.5t-73.5 162.5z" />
    <glyph glyph-name="uni1E2E" unicode="&#x1e2e;" horiz-adv-x="493" 
d="M139 0v1475h214v-1475h-214zM95 1559q-51 0 -89 28.5t-38 78.5q0 49 38 77.5t89 28.5q50 0 88 -28.5t38 -77.5q0 -50 -38 -78.5t-88 -28.5zM402 1559q-51 0 -88.5 28.5t-37.5 78.5q0 49 37.5 77.5t88.5 28.5t89 -28.5t38 -77.5q0 -50 -38 -78.5t-89 -28.5zM113 1835
l279 190h194l-297 -190h-176z" />
    <glyph glyph-name="uni1E2F" unicode="&#x1e2f;" horiz-adv-x="504" 
d="M145 0v1062h214v-1062h-214zM98 1279q-51 0 -89 28t-38 78t38 78t89 28q50 0 88 -28t38 -78t-38 -78t-88 -28zM405 1279q-51 0 -88.5 28t-37.5 78t37.5 78t88.5 28t89 -28t38 -78t-38 -78t-89 -28zM118 1657l239 253h184l-263 -253h-160z" />
    <glyph glyph-name="uni1E36" unicode="&#x1e36;" horiz-adv-x="1006" 
d="M135 0v1475h217v-1409l-98 118h669v-184h-788zM550 -365q-55 0 -96 30t-41 83q0 54 41 84t96 30q54 0 95 -30t41 -84t-41 -83.5t-95 -29.5z" />
    <glyph glyph-name="uni1E37" unicode="&#x1e37;" horiz-adv-x="519" 
d="M371 1563v-1563h-214v1563h214zM263 -364q-55 0 -96 30.5t-41 83.5t41 83t96 30q54 0 95 -30t41 -83q0 -54 -41 -84t-95 -30z" />
    <glyph glyph-name="uni1E3A" unicode="&#x1e3a;" horiz-adv-x="1006" 
d="M135 0v1475h217v-1409l-98 118h669v-184h-788zM250 -274v95h599v-95h-599z" />
    <glyph glyph-name="uni1E3B" unicode="&#x1e3b;" horiz-adv-x="519" 
d="M371 1563v-1563h-214v1563h214zM1 -274v95h519v-95h-519z" />
    <glyph glyph-name="uni1E42" unicode="&#x1e42;" horiz-adv-x="1697" 
d="M1175 1475h371v-1475h-206v1323l6 -2l-347 -1321h-298l-350 1322l6 3v-1325h-207v1475h371l331 -1335h-10zM846 -365q-55 0 -96 30t-41 83q0 54 41 84t96 30q54 0 95 -30t41 -84t-41 -83.5t-95 -29.5z" />
    <glyph glyph-name="uni1E43" unicode="&#x1e43;" horiz-adv-x="1802" 
d="M799 0v450v105.5v75.5q0 39 -5.5 83t-24 82.5t-57.5 62.5t-107 24t-115 -27t-76 -71.5t-42 -99t-13 -109.5l-92 50q0 125 49.5 227.5t140 164t213.5 61.5q125 0 200.5 -51.5t109.5 -140t34 -200.5v-107v-153v-427h-215zM142 0v1062h217v-1062h-217zM1453 0v449v110.5
v74.5q0 41 -5 84.5t-24 80.5t-58.5 60.5t-109.5 23.5q-69 0 -115.5 -26.5t-74.5 -70t-40 -95.5t-12 -103l-92 48q0 120 48.5 221t138 161.5t212.5 60.5q120 0 197 -48t114 -133t37 -197v-108v-151v-442h-216zM917 -364q-55 0 -96 30.5t-41 83.5t41 83t96 30q54 0 95 -30
t41 -83q0 -54 -41 -84t-95 -30z" />
    <glyph glyph-name="uni1E44" unicode="&#x1e44;" horiz-adv-x="1384" 
d="M346 0h-211v1475h346l582 -1372l-26 -10v1382h212v-1475h-351l-580 1370l28 9v-1379zM706 1568q-55 0 -96 30.5t-41 83.5q0 54 41 84t96 30t95.5 -30t40.5 -84t-40.5 -84t-95.5 -30z" />
    <glyph glyph-name="uni1E45" unicode="&#x1e45;" horiz-adv-x="1247" 
d="M898 0v490v73v56q0 78 -24 137.5t-79 93t-147 33.5q-81 0 -146.5 -40t-104 -108.5t-38.5 -155.5l-93 46q0 129 61 231.5t163.5 162.5t224.5 60q126 0 215.5 -48.5t137 -138t47.5 -213.5v-102v-108v-469h-217zM142 0v1062h217v-1062h-217zM646 1281q-55 0 -96 30.5
t-41 83.5q0 54 41 84t96 30t95.5 -30t40.5 -84t-40.5 -84t-95.5 -30z" />
    <glyph glyph-name="uni1E46" unicode="&#x1e46;" horiz-adv-x="1384" 
d="M346 0h-211v1475h346l582 -1372l-26 -10v1382h212v-1475h-351l-580 1370l28 9v-1379zM704 -365q-55 0 -96 30t-41 83q0 54 41 84t96 30q54 0 95 -30t41 -84t-41 -83.5t-95 -29.5z" />
    <glyph glyph-name="uni1E47" unicode="&#x1e47;" horiz-adv-x="1247" 
d="M898 0v490v73v56q0 78 -24 137.5t-79 93t-147 33.5q-81 0 -146.5 -40t-104 -108.5t-38.5 -155.5l-93 46q0 129 61 231.5t163.5 162.5t224.5 60q126 0 215.5 -48.5t137 -138t47.5 -213.5v-102v-108v-469h-217zM142 0v1062h217v-1062h-217zM623 -364q-55 0 -96 30.5
t-41 83.5t41 83t96 30q54 0 95 -30t41 -83q0 -54 -41 -84t-95 -30z" />
    <glyph glyph-name="uni1E48" unicode="&#x1e48;" horiz-adv-x="1384" 
d="M346 0h-211v1475h346l582 -1372l-26 -10v1382h212v-1475h-351l-580 1370l28 9v-1379zM404 -274v95h599v-95h-599z" />
    <glyph glyph-name="uni1E49" unicode="&#x1e49;" horiz-adv-x="1247" 
d="M898 0v490v73v56q0 78 -24 137.5t-79 93t-147 33.5q-81 0 -146.5 -40t-104 -108.5t-38.5 -155.5l-93 46q0 129 61 231.5t163.5 162.5t224.5 60q126 0 215.5 -48.5t137 -138t47.5 -213.5v-102v-108v-469h-217zM142 0v1062h217v-1062h-217zM361 -274v95h519v-95h-519z" />
    <glyph glyph-name="uni1E4C" unicode="&#x1e4c;" horiz-adv-x="1383" 
d="M965 1689q-2 -28 -17 -63t-48 -61t-87 -26q-42 0 -73 17t-55 35q-21 15 -44 28t-53 13q-38 0 -52 -22.5t-16 -45.5h-94q2 31 20.5 66.5t53.5 61t88 25.5q43 0 72.5 -16t51.5 -33t45.5 -31t49.5 -14q39 0 51 21t14 45h93zM583 1781l248 160h148l-260 -160h-136zM691 -20
q-129 0 -236.5 51t-187 148.5t-123 238.5t-43.5 321t43.5 320.5t123 237t187.5 146.5t236 50q129 0 237 -50t187.5 -146.5t123 -237t43.5 -320.5t-43.5 -321t-123 -238.5t-187.5 -148.5t-237 -51zM691 134q123 0 217 67t147 201.5t53 336.5q0 203 -53.5 336t-147.5 198
t-216 65q-121 0 -215.5 -65t-148 -198t-53.5 -336t53.5 -337.5t148 -201t215.5 -66.5z" />
    <glyph glyph-name="uni1E4D" unicode="&#x1e4d;" horiz-adv-x="1310" 
d="M655 -20q-164 0 -289.5 71t-196 195.5t-70.5 285.5q0 160 70.5 283.5t196 193t289.5 69.5t289.5 -69.5t196 -193t70.5 -283.5q0 -161 -70.5 -285.5t-196 -195.5t-289.5 -71zM655 166q100 0 176 45t119 127.5t43 193.5q0 110 -43 191t-119 125t-176 44q-99 0 -175.5 -44
t-119.5 -125t-43 -191q0 -111 43 -193.5t119.5 -127.5t175.5 -45zM958 1453q-1 -37 -19 -79.5t-56 -73t-100 -30.5q-47 0 -81 19t-59 39q-22 17 -45.5 31t-54.5 14q-38 0 -53.5 -24t-17.5 -54h-119q2 39 22.5 82t61 73t101.5 30q47 0 80 -18.5t56 -36.5q23 -19 47.5 -34
t51.5 -15q38 0 51.5 23.5t14.5 53.5h119zM518 1559l279 190h194l-297 -190h-176z" />
    <glyph glyph-name="uni1E4E" unicode="&#x1e4e;" horiz-adv-x="1419" 
d="M709 -21q-132 0 -243.5 50.5t-195 148t-129.5 239t-46 322.5q0 182 46 322.5t129.5 237t195.5 146t243 49.5q132 0 244.5 -49.5t195.5 -146t129 -237t46 -322.5q0 -181 -46 -322.5t-129.5 -239t-195.5 -148t-244 -50.5zM709 164q113 0 202.5 62t140.5 189.5t51 323.5
q0 197 -51.5 323t-140.5 186t-202 60q-111 0 -200.5 -60t-141.5 -186t-52 -323t52 -324.5t141.5 -189t200.5 -61.5zM1017 1726q-1 -37 -19 -79t-56 -72.5t-100 -30.5q-47 0 -81 19t-59 38q-22 18 -45.5 32t-54.5 14q-38 0 -53.5 -24.5t-17.5 -53.5h-119q2 39 22.5 82t61 73
t101.5 30q47 0 80 -18.5t56 -37.5q23 -18 47.5 -33t51.5 -15q38 0 51.5 23.5t14.5 52.5h119zM500 1833q-51 0 -89 28t-38 78t38 78t89 28t88.5 -28t37.5 -78t-37.5 -78t-88.5 -28zM920 1833q-51 0 -88.5 28t-37.5 78t37.5 78t88.5 28t89 -28t38 -78t-38 -78t-89 -28z" />
    <glyph glyph-name="uni1E4F" unicode="&#x1e4f;" horiz-adv-x="1310" 
d="M655 -20q-164 0 -289.5 71t-196 195.5t-70.5 285.5q0 160 70.5 283.5t196 193t289.5 69.5t289.5 -69.5t196 -193t70.5 -283.5q0 -161 -70.5 -285.5t-196 -195.5t-289.5 -71zM655 166q100 0 176 45t119 127.5t43 193.5q0 110 -43 191t-119 125t-176 44q-99 0 -175.5 -44
t-119.5 -125t-43 -191q0 -111 43 -193.5t119.5 -127.5t175.5 -45zM958 1453q-1 -37 -19 -79.5t-56 -73t-100 -30.5q-47 0 -81 19t-59 39q-22 17 -45.5 31t-54.5 14q-38 0 -53.5 -24t-17.5 -54h-119q2 39 22.5 82t61 73t101.5 30q47 0 80 -18.5t56 -36.5q23 -19 47.5 -34
t51.5 -15q38 0 51.5 23.5t14.5 53.5h119zM447 1561q-51 0 -89 28t-38 78t38 78t89 28t88.5 -28t37.5 -78t-37.5 -78t-88.5 -28zM867 1561q-51 0 -88.5 28t-37.5 78t37.5 78t88.5 28t89 -28t38 -78t-38 -78t-89 -28z" />
    <glyph glyph-name="uni1E50" unicode="&#x1e50;" horiz-adv-x="1419" 
d="M709 -21q-132 0 -243.5 50.5t-195 148t-129.5 239t-46 322.5q0 182 46 322.5t129.5 237t195.5 146t243 49.5q132 0 244.5 -49.5t195.5 -146t129 -237t46 -322.5q0 -181 -46 -322.5t-129.5 -239t-195.5 -148t-244 -50.5zM709 164q113 0 202.5 62t140.5 189.5t51 323.5
q0 197 -51.5 323t-140.5 186t-202 60q-111 0 -200.5 -60t-141.5 -186t-52 -323t52 -324.5t141.5 -189t200.5 -61.5zM432 1610v94h553v-94h-553zM852 1782h-175l-298 190h194z" />
    <glyph glyph-name="uni1E51" unicode="&#x1e51;" horiz-adv-x="1310" 
d="M655 -20q-164 0 -289.5 71t-196 195.5t-70.5 285.5q0 160 70.5 283.5t196 193t289.5 69.5t289.5 -69.5t196 -193t70.5 -283.5q0 -161 -70.5 -285.5t-196 -195.5t-289.5 -71zM655 166q100 0 176 45t119 127.5t43 193.5q0 110 -43 191t-119 125t-176 44q-99 0 -175.5 -44
t-119.5 -125t-43 -191q0 -111 43 -193.5t119.5 -127.5t175.5 -45zM379 1308v94h553v-94h-553zM784 1560h-161l-263 253h184z" />
    <glyph glyph-name="uni1E52" unicode="&#x1e52;" horiz-adv-x="1419" 
d="M709 -21q-132 0 -243.5 50.5t-195 148t-129.5 239t-46 322.5q0 182 46 322.5t129.5 237t195.5 146t243 49.5q132 0 244.5 -49.5t195.5 -146t129 -237t46 -322.5q0 -181 -46 -322.5t-129.5 -239t-195.5 -148t-244 -50.5zM709 164q113 0 202.5 62t140.5 189.5t51 323.5
q0 197 -51.5 323t-140.5 186t-202 60q-111 0 -200.5 -60t-141.5 -186t-52 -323t52 -324.5t141.5 -189t200.5 -61.5zM432 1610v94h553v-94h-553zM571 1782l279 190h194l-297 -190h-176z" />
    <glyph glyph-name="uni1E53" unicode="&#x1e53;" horiz-adv-x="1310" 
d="M655 -20q-164 0 -289.5 71t-196 195.5t-70.5 285.5q0 160 70.5 283.5t196 193t289.5 69.5t289.5 -69.5t196 -193t70.5 -283.5q0 -161 -70.5 -285.5t-196 -195.5t-289.5 -71zM655 166q100 0 176 45t119 127.5t43 193.5q0 110 -43 191t-119 125t-176 44q-99 0 -175.5 -44
t-119.5 -125t-43 -191q0 -111 43 -193.5t119.5 -127.5t175.5 -45zM379 1308v94h553v-94h-553zM522 1562l239 253h184l-263 -253h-160z" />
    <glyph glyph-name="uni1E5A" unicode="&#x1e5a;" horiz-adv-x="1218" 
d="M135 0v1475h540q213 0 322 -99t109 -297q0 -116 -44.5 -198t-107 -126.5t-117.5 -50.5q56 -4 109 -30t88 -80t35 -146v-158v-159q0 -45 7.5 -81.5t18.5 -49.5h-219q-9 15 -16 50t-7 81v145v146q0 95 -56.5 142.5t-164.5 47.5h-344l59 77v-689h-212zM347 707l-59 85h346
q70 0 126 33.5t89.5 94t33.5 141.5q0 122 -67 178t-192 56h-341l64 83v-671zM620 -365q-55 0 -96 30t-41 83q0 54 41 84t96 30q54 0 95 -30t41 -84t-41 -83.5t-95 -29.5z" />
    <glyph glyph-name="uni1E5B" unicode="&#x1e5b;" horiz-adv-x="843" 
d="M142 0v1062h217v-339l-58 26q7 65 33 124t69.5 105.5t107.5 73.5t148 27q64 0 103.5 -10t48.5 -16l-46 -204q-10 7 -40.5 18t-84.5 11q-82 0 -136 -29t-86 -77t-45.5 -104.5t-13.5 -113.5v-554h-217zM253 -364q-55 0 -96 30.5t-41 83.5t41 83t96 30q54 0 95 -30t41 -83
q0 -54 -41 -84t-95 -30z" />
    <glyph glyph-name="uni1E5E" unicode="&#x1e5e;" horiz-adv-x="1218" 
d="M135 0v1475h540q213 0 322 -99t109 -297q0 -116 -44.5 -198t-107 -126.5t-117.5 -50.5q56 -4 109 -30t88 -80t35 -146v-158v-159q0 -45 7.5 -81.5t18.5 -49.5h-219q-9 15 -16 50t-7 81v145v146q0 95 -56.5 142.5t-164.5 47.5h-344l59 77v-689h-212zM347 707l-59 85h346
q70 0 126 33.5t89.5 94t33.5 141.5q0 122 -67 178t-192 56h-341l64 83v-671zM321 -274v95h599v-95h-599z" />
    <glyph glyph-name="uni1E5F" unicode="&#x1e5f;" horiz-adv-x="843" 
d="M142 0v1062h217v-339l-58 26q7 65 33 124t69.5 105.5t107.5 73.5t148 27q64 0 103.5 -10t48.5 -16l-46 -204q-10 7 -40.5 18t-84.5 11q-82 0 -136 -29t-86 -77t-45.5 -104.5t-13.5 -113.5v-554h-217zM-9 -274v95h519v-95h-519z" />
    <glyph glyph-name="uni1E60" unicode="&#x1e60;" horiz-adv-x="1198" 
d="M599 -21q-156 0 -268.5 49t-174 148.5t-61.5 246.5v33v32h217v-29.5v-31.5q0 -136 73 -199.5t213 -63.5q143 0 218 48.5t75 156.5q0 77 -46.5 129.5t-128 90.5t-187.5 71q-119 37 -215 94.5t-152.5 144t-56.5 211.5q0 123 62 209t172 130.5t252 44.5q151 0 263.5 -46.5
t175 -140t62.5 -235.5v-34.5v-35.5h-218v31v30q0 130 -70.5 188t-208.5 58q-134 0 -206.5 -47t-72.5 -152q0 -78 46.5 -130t128 -89t185.5 -72q132 -44 227.5 -99t147.5 -137t52 -207q0 -126 -62 -215t-175 -135.5t-267 -46.5zM600 1568q-55 0 -96 30.5t-41 83.5q0 54 41 84
t96 30t95.5 -30t40.5 -84t-40.5 -84t-95.5 -30z" />
    <glyph glyph-name="uni1E61" unicode="&#x1e61;" horiz-adv-x="1124" 
d="M560 -21q-95 0 -179 21t-147.5 61.5t-99 100.5t-35.5 139v14.5v12.5h216v-9v-11q0 -73 67.5 -110.5t183.5 -37.5q68 0 124.5 14t90 43t33.5 74q0 73 -71.5 104t-216.5 55q-79 14 -152.5 36t-132 58.5t-93 91t-34.5 131.5q0 100 60 170t162 106t225 36q119 0 220.5 -38.5
t163.5 -111t62 -177.5v-9v-9h-215v7v7q0 52 -33 85t-85.5 49.5t-111.5 16.5q-54 0 -108.5 -11.5t-90.5 -39t-36 -74.5q0 -48 35 -76.5t99 -47t149 -33.5q78 -14 152 -35.5t133.5 -56.5t95 -90t35.5 -135q0 -83 -38 -143t-103.5 -99.5t-149 -59t-175.5 -19.5zM563 1281
q-55 0 -96 30.5t-41 83.5q0 54 41 84t96 30t95.5 -30t40.5 -84t-40.5 -84t-95.5 -30z" />
    <glyph glyph-name="uni1E62" unicode="&#x1e62;" horiz-adv-x="1198" 
d="M599 -21q-156 0 -268.5 49t-174 148.5t-61.5 246.5v33v32h217v-29.5v-31.5q0 -136 73 -199.5t213 -63.5q143 0 218 48.5t75 156.5q0 77 -46.5 129.5t-128 90.5t-187.5 71q-119 37 -215 94.5t-152.5 144t-56.5 211.5q0 123 62 209t172 130.5t252 44.5q151 0 263.5 -46.5
t175 -140t62.5 -235.5v-34.5v-35.5h-218v31v30q0 130 -70.5 188t-208.5 58q-134 0 -206.5 -47t-72.5 -152q0 -78 46.5 -130t128 -89t185.5 -72q132 -44 227.5 -99t147.5 -137t52 -207q0 -126 -62 -215t-175 -135.5t-267 -46.5zM600 -365q-55 0 -96 30t-41 83q0 54 41 84
t96 30q54 0 95 -30t41 -84t-41 -83.5t-95 -29.5z" />
    <glyph glyph-name="uni1E63" unicode="&#x1e63;" horiz-adv-x="1124" 
d="M560 -21q-95 0 -179 21t-147.5 61.5t-99 100.5t-35.5 139v14.5v12.5h216v-9v-11q0 -73 67.5 -110.5t183.5 -37.5q68 0 124.5 14t90 43t33.5 74q0 73 -71.5 104t-216.5 55q-79 14 -152.5 36t-132 58.5t-93 91t-34.5 131.5q0 100 60 170t162 106t225 36q119 0 220.5 -38.5
t163.5 -111t62 -177.5v-9v-9h-215v7v7q0 52 -33 85t-85.5 49.5t-111.5 16.5q-54 0 -108.5 -11.5t-90.5 -39t-36 -74.5q0 -48 35 -76.5t99 -47t149 -33.5q78 -14 152 -35.5t133.5 -56.5t95 -90t35.5 -135q0 -83 -38 -143t-103.5 -99.5t-149 -59t-175.5 -19.5zM565 -364
q-55 0 -96 30.5t-41 83.5t41 83t96 30q54 0 95 -30t41 -83q0 -54 -41 -84t-95 -30z" />
    <glyph glyph-name="uni1E64" unicode="&#x1e64;" horiz-adv-x="1173" 
d="M472 1545l260 167h154l-271 -167h-143zM587 1805q-45 0 -78 25.5t-33 68.5q0 44 33 69.5t78 25.5q44 0 77 -25.5t33 -69.5t-33 -69t-77 -25zM587 -20q-153 0 -261.5 48.5t-166.5 146.5t-58 244v34v34h171v-32v-33q0 -153 80 -220.5t233 -67.5q158 0 239 54t81 175
q0 85 -46.5 141.5t-128.5 96t-191 72.5q-123 38 -219.5 96t-152 143.5t-55.5 208.5q0 120 58.5 203t163.5 126t244 43q147 0 255.5 -45.5t168 -138t59.5 -232.5v-37.5v-37.5h-171v34v34q0 146 -79 207.5t-230 61.5q-145 0 -224 -51t-79 -167q0 -87 48.5 -143.5t132.5 -96
t192 -75.5q131 -43 225.5 -97.5t145 -135.5t50.5 -204t-58.5 -210t-167 -133t-259.5 -46z" />
    <glyph glyph-name="uni1E65" unicode="&#x1e65;" horiz-adv-x="1124" 
d="M560 -21q-95 0 -179 21t-147.5 61.5t-99 100.5t-35.5 139v14.5v12.5h216v-9v-11q0 -73 67.5 -110.5t183.5 -37.5q68 0 124.5 14t90 43t33.5 74q0 73 -71.5 104t-216.5 55q-79 14 -152.5 36t-132 58.5t-93 91t-34.5 131.5q0 100 60 170t162 106t225 36q119 0 220.5 -38.5
t163.5 -111t62 -177.5v-9v-9h-215v7v7q0 52 -33 85t-85.5 49.5t-111.5 16.5q-54 0 -108.5 -11.5t-90.5 -39t-36 -74.5q0 -48 35 -76.5t99 -47t149 -33.5q78 -14 152 -35.5t133.5 -56.5t95 -90t35.5 -135q0 -83 -38 -143t-103.5 -99.5t-149 -59t-175.5 -19.5zM428 1222
l239 253h184l-263 -253h-160zM596 1604q-55 0 -96 30.5t-41 83.5q0 54 41 84t96 30t95.5 -30t40.5 -84t-40.5 -84t-95.5 -30z" />
    <glyph glyph-name="uni1E66" unicode="&#x1e66;" horiz-adv-x="1198" 
d="M599 -21q-156 0 -268.5 49t-174 148.5t-61.5 246.5v33v32h217v-29.5v-31.5q0 -136 73 -199.5t213 -63.5q143 0 218 48.5t75 156.5q0 77 -46.5 129.5t-128 90.5t-187.5 71q-119 37 -215 94.5t-152.5 144t-56.5 211.5q0 123 62 209t172 130.5t252 44.5q151 0 263.5 -46.5
t175 -140t62.5 -235.5v-34.5v-35.5h-218v31v30q0 130 -70.5 188t-208.5 58q-134 0 -206.5 -47t-72.5 -152q0 -78 46.5 -130t128 -89t185.5 -72q132 -44 227.5 -99t147.5 -137t52 -207q0 -126 -62 -215t-175 -135.5t-267 -46.5zM297 1740h151l179 -155h-60l178 155h153
l-223 -188h-156zM600 1833q-55 0 -96 30.5t-41 83.5q0 54 41 84t96 30t95.5 -30t40.5 -84t-40.5 -84t-95.5 -30z" />
    <glyph glyph-name="uni1E67" unicode="&#x1e67;" horiz-adv-x="1124" 
d="M560 -21q-95 0 -179 21t-147.5 61.5t-99 100.5t-35.5 139v14.5v12.5h216v-9v-11q0 -73 67.5 -110.5t183.5 -37.5q68 0 124.5 14t90 43t33.5 74q0 73 -71.5 104t-216.5 55q-79 14 -152.5 36t-132 58.5t-93 91t-34.5 131.5q0 100 60 170t162 106t225 36q119 0 220.5 -38.5
t163.5 -111t62 -177.5v-9v-9h-215v7v7q0 52 -33 85t-85.5 49.5t-111.5 16.5q-54 0 -108.5 -11.5t-90.5 -39t-36 -74.5q0 -48 35 -76.5t99 -47t149 -33.5q78 -14 152 -35.5t133.5 -56.5t95 -90t35.5 -135q0 -83 -38 -143t-103.5 -99.5t-149 -59t-175.5 -19.5zM267 1475h146
l180 -211h-62l179 211h148l-221 -253h-150zM565 1568q-55 0 -96 30.5t-41 83.5q0 54 41 84t96 30t95.5 -30t40.5 -84t-40.5 -84t-95.5 -30z" />
    <glyph glyph-name="uni1E68" unicode="&#x1e68;" horiz-adv-x="1198" 
d="M599 -21q-156 0 -268.5 49t-174 148.5t-61.5 246.5v33v32h217v-29.5v-31.5q0 -136 73 -199.5t213 -63.5q143 0 218 48.5t75 156.5q0 77 -46.5 129.5t-128 90.5t-187.5 71q-119 37 -215 94.5t-152.5 144t-56.5 211.5q0 123 62 209t172 130.5t252 44.5q151 0 263.5 -46.5
t175 -140t62.5 -235.5v-34.5v-35.5h-218v31v30q0 130 -70.5 188t-208.5 58q-134 0 -206.5 -47t-72.5 -152q0 -78 46.5 -130t128 -89t185.5 -72q132 -44 227.5 -99t147.5 -137t52 -207q0 -126 -62 -215t-175 -135.5t-267 -46.5zM600 -365q-55 0 -96 30t-41 83q0 54 41 84
t96 30q54 0 95 -30t41 -84t-41 -83.5t-95 -29.5zM600 1568q-55 0 -96 30.5t-41 83.5q0 54 41 84t96 30t95.5 -30t40.5 -84t-40.5 -84t-95.5 -30z" />
    <glyph glyph-name="uni1E69" unicode="&#x1e69;" horiz-adv-x="1124" 
d="M560 -21q-95 0 -179 21t-147.5 61.5t-99 100.5t-35.5 139v14.5v12.5h216v-9v-11q0 -73 67.5 -110.5t183.5 -37.5q68 0 124.5 14t90 43t33.5 74q0 73 -71.5 104t-216.5 55q-79 14 -152.5 36t-132 58.5t-93 91t-34.5 131.5q0 100 60 170t162 106t225 36q119 0 220.5 -38.5
t163.5 -111t62 -177.5v-9v-9h-215v7v7q0 52 -33 85t-85.5 49.5t-111.5 16.5q-54 0 -108.5 -11.5t-90.5 -39t-36 -74.5q0 -48 35 -76.5t99 -47t149 -33.5q78 -14 152 -35.5t133.5 -56.5t95 -90t35.5 -135q0 -83 -38 -143t-103.5 -99.5t-149 -59t-175.5 -19.5zM565 -364
q-55 0 -96 30.5t-41 83.5t41 83t96 30q54 0 95 -30t41 -83q0 -54 -41 -84t-95 -30zM563 1281q-55 0 -96 30.5t-41 83.5q0 54 41 84t96 30t95.5 -30t40.5 -84t-40.5 -84t-95.5 -30z" />
    <glyph glyph-name="uni1E6C" unicode="&#x1e6c;" horiz-adv-x="1122" 
d="M1048 1295h-447l68 114v-1409h-217v1409l75 -114h-453v180h974v-180zM563 -365q-55 0 -96 30t-41 83q0 54 41 84t96 30q54 0 95 -30t41 -84t-41 -83.5t-95 -29.5z" />
    <glyph glyph-name="uni1E6D" unicode="&#x1e6d;" horiz-adv-x="906" 
d="M596 -18q-53 0 -105.5 11t-96 40.5t-69.5 84.5t-26 144v44v47v529h-255v180h134q43 0 67.5 3.5t36 17t14.5 43.5t3 82v205h217v-351h325v-180h-325v-471v-40v-37q0 -80 19.5 -126t89.5 -46q30 0 57 5t41 11v-177q-18 -7 -51 -13t-76 -6zM520 -364q-55 0 -96 30.5
t-41 83.5t41 83t96 30q54 0 95 -30t41 -83q0 -54 -41 -84t-95 -30z" />
    <glyph glyph-name="uni1E6E" unicode="&#x1e6e;" horiz-adv-x="1122" 
d="M1048 1295h-447l68 114v-1409h-217v1409l75 -114h-453v180h974v-180zM263 -274v95h599v-95h-599z" />
    <glyph glyph-name="uni1E6F" unicode="&#x1e6f;" horiz-adv-x="906" 
d="M596 -18q-53 0 -105.5 11t-96 40.5t-69.5 84.5t-26 144v44v47v529h-255v180h134q43 0 67.5 3.5t36 17t14.5 43.5t3 82v205h217v-351h325v-180h-325v-471v-40v-37q0 -80 19.5 -126t89.5 -46q30 0 57 5t41 11v-177q-18 -7 -51 -13t-76 -6zM258 -274v95h519v-95h-519z" />
    <glyph glyph-name="uni1E78" unicode="&#x1e78;" horiz-adv-x="1314" 
d="M1179 540q0 -284 -139 -422.5t-384 -138.5q-244 0 -382.5 138.5t-138.5 422.5v89.5v99.5v746h217v-770v-89v-75q0 -200 76 -288.5t228 -88.5q153 0 229.5 88.5t76.5 288.5v934h217v-935zM964 1726q-1 -37 -19 -79t-56 -72.5t-100 -30.5q-47 0 -81 19t-59 38
q-22 18 -45.5 32t-54.5 14q-38 0 -53.5 -24.5t-17.5 -53.5h-119q2 39 22.5 82t61 73t101.5 30q47 0 80 -18.5t56 -37.5q23 -18 47.5 -33t51.5 -15q38 0 51.5 23.5t14.5 52.5h119zM518 1831l279 190h194l-297 -190h-176z" />
    <glyph glyph-name="uni1E79" unicode="&#x1e79;" horiz-adv-x="1222" 
d="M529 -19q-113 0 -188 38.5t-119 101t-62 137t-18 145.5v77.5v81.5v500h218v-469v-70.5v-64.5q0 -77 20 -141.5t70.5 -104t141.5 -39.5q85 0 148 50.5t98 128t35 155.5l95 -51q0 -92 -30.5 -177t-87.5 -152.5t-138.5 -106.5t-182.5 -39zM873 0v1062h217v-1062h-217z
M901 1453q-1 -37 -19 -79.5t-56 -73t-100 -30.5q-47 0 -81 19t-59 39q-22 17 -45.5 31t-54.5 14q-38 0 -53.5 -24t-17.5 -54h-119q2 39 22.5 82t61 73t101.5 30q47 0 80 -18.5t56 -36.5q23 -19 47.5 -34t51.5 -15q38 0 51.5 23.5t14.5 53.5h119zM471 1580l239 253h184
l-263 -253h-160z" />
    <glyph glyph-name="uni1E7A" unicode="&#x1e7a;" horiz-adv-x="1314" 
d="M1179 540q0 -284 -139 -422.5t-384 -138.5q-244 0 -382.5 138.5t-138.5 422.5v89.5v99.5v746h217v-770v-89v-75q0 -200 76 -288.5t228 -88.5q153 0 229.5 88.5t76.5 288.5v934h217v-935zM379 1610v94h553v-94h-553zM447 1784q-51 0 -89 28t-38 78t38 78t89 28t88.5 -28
t37.5 -78t-37.5 -78t-88.5 -28zM867 1784q-51 0 -88.5 28t-37.5 78t37.5 78t88.5 28t89 -28t38 -78t-38 -78t-89 -28z" />
    <glyph glyph-name="uni1E7B" unicode="&#x1e7b;" horiz-adv-x="1222" 
d="M529 -19q-113 0 -188 38.5t-119 101t-62 137t-18 145.5v77.5v81.5v500h218v-469v-70.5v-64.5q0 -77 20 -141.5t70.5 -104t141.5 -39.5q85 0 148 50.5t98 128t35 155.5l95 -51q0 -92 -30.5 -177t-87.5 -152.5t-138.5 -106.5t-182.5 -39zM873 0v1062h217v-1062h-217z
M323 1308v94h553v-94h-553zM389 1619q-51 0 -89 28t-38 78t38 78t89 28t88.5 -28t37.5 -78t-37.5 -78t-88.5 -28zM809 1619q-51 0 -88.5 28t-37.5 78t37.5 78t88.5 28t89 -28t38 -78t-38 -78t-89 -28z" />
    <glyph glyph-name="Wgrave" unicode="&#x1e80;" horiz-adv-x="1779" 
d="M308 0l-228 1475h224l185 -1404l-33 1l294 1403h279l293 -1403l-33 -1l185 1404h225l-230 -1475h-334l-257 1307h24l-259 -1307h-335zM1036 1553h-175l-298 190h194z" />
    <glyph glyph-name="wgrave" unicode="&#x1e81;" horiz-adv-x="1570" 
d="M998 0l-272 1062h176l261 -983h-37l170 983h225l-224 -1062h-299zM273 0l-225 1062h225l172 -983h-38l259 983h176l-268 -1062h-301zM915 1220h-161l-263 253h184z" />
    <glyph glyph-name="Wacute" unicode="&#x1e82;" horiz-adv-x="1779" 
d="M308 0l-228 1475h224l185 -1404l-33 1l294 1403h279l293 -1403l-33 -1l185 1404h225l-230 -1475h-334l-257 1307h24l-259 -1307h-335zM755 1553l279 190h194l-297 -190h-176z" />
    <glyph glyph-name="wacute" unicode="&#x1e83;" horiz-adv-x="1570" 
d="M998 0l-272 1062h176l261 -983h-37l170 983h225l-224 -1062h-299zM273 0l-225 1062h225l172 -983h-38l259 983h176l-268 -1062h-301zM652 1222l239 253h184l-263 -253h-160z" />
    <glyph glyph-name="Wdieresis" unicode="&#x1e84;" horiz-adv-x="1779" 
d="M308 0l-228 1475h224l185 -1404l-33 1l294 1403h279l293 -1403l-33 -1l185 1404h225l-230 -1475h-334l-257 1307h24l-259 -1307h-335zM684 1555q-51 0 -89 28t-38 78t38 78t89 28t88.5 -28t37.5 -78t-37.5 -78t-88.5 -28zM1104 1555q-51 0 -88.5 28t-37.5 78t37.5 78
t88.5 28t89 -28t38 -78t-38 -78t-89 -28z" />
    <glyph glyph-name="wdieresis" unicode="&#x1e85;" horiz-adv-x="1570" 
d="M998 0l-272 1062h176l261 -983h-37l170 983h225l-224 -1062h-299zM273 0l-225 1062h225l172 -983h-38l259 983h176l-268 -1062h-301zM576 1279q-51 0 -89 28t-38 78t38 78t89 28t88.5 -28t37.5 -78t-37.5 -78t-88.5 -28zM996 1279q-51 0 -88.5 28t-37.5 78t37.5 78
t88.5 28t89 -28t38 -78t-38 -78t-89 -28z" />
    <glyph glyph-name="uni1E8F" unicode="&#x1e8f;" horiz-adv-x="1069" 
d="M193 -452q-43 0 -78.5 4.5t-43.5 8.5v177q13 -6 43.5 -10t63.5 -4q59 0 101.5 24t72 66.5t47.5 96.5l27 80l-366 1071h226l273 -900h-28l266 900h223l-381 -1140q-35 -107 -86 -191.5t-136 -133.5t-224 -49zM536 1281q-55 0 -96 30.5t-41 83.5q0 54 41 84t96 30t95.5 -30
t40.5 -84t-40.5 -84t-95.5 -30z" />
    </font>
</defs>
</svg>
