<?xml version="1.0" standalone="no"?>
<!DOCTYPE svg PUBLIC "-//W3C//DTD SVG 1.1//EN" "http://www.w3.org/Graphics/SVG/1.1/DTD/svg11.dtd" >
<svg xmlns="http://www.w3.org/2000/svg" xmlns:xlink="http://www.w3.org/1999/xlink" version="1.1">
<metadata>
Created by FontForge 20170731 at Thu Jun  9 11:34:56 2022
 By Aleksey,,,
Copyright 2022 The Gelasio Project Authors (https://github.com/SorkinType/Gelasio)
</metadata>
<defs>
<font id="Gelasio-SemiBold" horiz-adv-x="0" >
  <font-face 
    font-family="Gelasio SemiBold"
    font-weight="600"
    font-stretch="normal"
    units-per-em="2048"
    panose-1="0 0 0 0 0 0 0 0 0 0"
    ascent="1638"
    descent="-410"
    x-height="994"
    cap-height="1419"
    bbox="-546 -652 2937.04 2533"
    underline-thickness="106"
    underline-position="-349"
    unicode-range="U+000D-FB02"
  />
<missing-glyph horiz-adv-x="2048" 
d="M256 0v1547h1556v-1547h-1556zM362 90h1344v1367h-1344v-1367zM581 397l365 370l-365 371l92 86l361 -367l361 367l92 -86l-365 -371l365 -370l-92 -85l-361 366l-361 -366z" />
    <glyph glyph-name="fi" unicode="fi" horiz-adv-x="1353" 
d="M66 0q-18 0 -26 15t-8 26q0 33 33 37q36 4 76 17.5t40 46.5v750h-145q-12 0 -18 14.5t-6 26.5q0 34 25 45l143 15l1 61q0 143 67 261t202.5 188t342.5 70q126 0 201 -27.5t108 -70.5t33 -90q0 -90 -45 -119.5t-115 -28.5l-149 226q-14 6 -27 10t-38 4q-66 0 -136.5 -34
t-119 -119t-48.5 -238v-93h384q113 0 176.5 2t103.5 2q8 0 18.5 -8t11.5 -32v-782q0 -43 20.5 -62.5t48.5 -25.5t53 -9q21 -2 28.5 -8t7.5 -29q0 -11 -9 -26t-25 -15h-502q-17 0 -25.5 15t-8.5 26q0 33 33 37q37 4 69.5 17.5t32.5 46.5l1 636q0 73 -39.5 93.5t-121.5 20.5
h-257v-717q0 -64 36 -78.5t84 -18.5q21 -2 28.5 -8t7.5 -29q0 -11 -8 -26t-26 -15h-513z" />
    <glyph glyph-name="fl" unicode="fl" horiz-adv-x="1372" 
d="M66 0q-18 0 -26 15t-8 26q0 33 33 37q36 4 76 17.5t40 46.5v750h-145q-12 0 -18 14.5t-6 26.5q0 37 31 45l138 14v83q0 147 63.5 259.5t187 175.5t304.5 63q108 0 178.5 -24.5t114.5 -62.5q12 5 18.5 7.5t45.5 20.5q10 5 19.5 9.5t17.5 4.5q12 0 20.5 -8t8.5 -32v-1313
q0 -43 20.5 -62.5t49 -25.5t52.5 -9q21 -2 28.5 -8t7.5 -29q0 -11 -8 -26t-26 -15h-482q-18 0 -26 15t-8 26q0 33 33 37q36 4 62.5 17.5t26.5 46.5v1233q0 34 -45 69.5t-108 35.5q-49 0 -98.5 -12t-90.5 -49t-65.5 -111.5t-24.5 -200.5v-115h226q12 -1 18 -11.5t6 -22.5
q0 -19 -7 -40.5t-17 -25.5h-226v-717q0 -64 42 -78.5t90 -18.5q21 -2 28.5 -8t7.5 -29q0 -11 -8 -26t-26 -15h-525z" />
    <glyph glyph-name="f_f" unicode="ff" horiz-adv-x="1520" 
d="M111 0q-17 0 -25.5 15t-8.5 26q0 33 33 37q37 3 76.5 15.5t39.5 41.5v758h-145q-12 1 -18 15t-6 26q0 35 25 45l144 15v66q1 127 54 239t152 181.5t238 69.5q125 0 184 -46t61 -102q2 -61 -37.5 -100t-80.5 -38l-157 177q-30 -2 -62 -27.5t-54 -100t-22 -222.5v-97h226
v-1l255 1v82q0 127 46 239t138 181.5t231 69.5q124 0 178.5 -43t55.5 -99q2 -61 -37 -100t-81 -39l-147 172q-29 -2 -53.5 -27.5t-39.5 -100t-15 -222.5v-113h226q12 -1 18 -11.5t6 -22.5q0 -19 -7 -40.5t-17 -26.5h-226v-725q0 -40 27 -58t65 -24t70 -8q21 -2 28.5 -8
t7.5 -29q0 -11 -8 -26t-26 -15h-555q-17 0 -25.5 15t-8.5 26q0 33 33 37q37 3 76.5 15.5t39.5 41.5v758h-481v-725q0 -40 27 -58t65 -24t70 -8q21 -2 28.5 -8t7.5 -29q0 -11 -8 -26t-26 -15h-555z" />
    <glyph glyph-name="f_f_i" unicode="ffi" horiz-adv-x="2028" 
d="M1433 0q-17 0 -25.5 15t-8.5 26q0 34 33 37q37 3 76 15.5t39 41.5l1 643q0 71 -34 90.5t-72 24.5h-243v-725q0 -40 27 -58t65 -24t70 -8q21 -2 28.5 -8t7.5 -29q0 -11 -8 -26t-26 -15h-555q-17 0 -25.5 15t-8.5 26q0 33 33 37q37 3 76.5 15.5t39.5 41.5v758h-421v-725
q0 -40 27 -58t65 -24t70 -8q21 -2 28.5 -8t7.5 -29q0 -11 -8 -26t-26 -15h-555q-17 0 -25.5 15t-8.5 26q0 33 33 37q37 3 76.5 15.5t39.5 41.5v758h-145q-12 1 -18 15t-6 26q0 35 25 45l144 15v66q1 127 54 239t152 181.5t238 69.5q125 0 184 -46t61 -102q2 -61 -37.5 -100
t-80.5 -38l-157 177q-30 -2 -62 -27.5t-54 -100t-22 -222.5v-97h421v82q0 127 46.5 239t140 181.5t233.5 69.5q90 0 150.5 -23.5t67.5 -63.5q48 48 119 48t119.5 -48t48.5 -122t-48.5 -122t-119.5 -48t-119 48t-48 122v7q-27 -18 -60 -18l-130 113q-38 -2 -66 -28t-43 -101
t-15 -223v-113h412q59 2 106 2.5t77 0.5q9 0 19.5 -8t10.5 -32v-789q0 -40 20.5 -58t49 -23.5t52.5 -8.5q21 -2 28.5 -8t7.5 -29q0 -11 -8.5 -26t-25.5 -15h-515z" />
    <glyph glyph-name="f_f_l" unicode="ffl" horiz-adv-x="2028" 
d="M69 0q-17 0 -25.5 15t-8.5 26q0 33 33 37q37 3 76.5 15.5t39.5 41.5v758h-145q-12 1 -18 15t-6 26q0 35 25 45l144 15v66q1 127 54 239t152 181.5t238 69.5q125 0 184 -46t61 -102q2 -61 -37 -100t-81 -38l-157 177q-30 -2 -62 -27.5t-54 -100t-22 -222.5v-97h226v0h176
v82q1 127 46.5 239t137.5 181.5t231 69.5q48 0 85 -7t65 -20q123 8 229.5 10.5t161.5 2.5q8 0 18.5 -8.5t11.5 -32.5v-1343q0 -40 20.5 -58t49 -23.5t52.5 -8.5q21 -2 28.5 -8.5t7.5 -27.5q0 -13 -9 -27.5t-26 -14.5h-506q-17 0 -26 14t-9 27q0 34 33 37q36 3 75.5 15.5
t39.5 41.5l1 1196q0 50 -20 73t-48 33q1 -7 1 -13q2 -61 -37 -100t-81 -39l-147 172q-30 -2 -54.5 -27.5t-39 -100t-14.5 -222.5v-113h225q12 -1 18 -11.5t6 -22.5q0 -19 -6.5 -40.5t-17.5 -26.5h-225v-725q0 -40 27 -58t64.5 -24t70.5 -8q21 -2 28.5 -8t7.5 -29
q0 -11 -8.5 -26t-25.5 -15h-556q-17 0 -25.5 15t-8.5 26q0 33 33 37q37 3 76.5 15.5t39.5 41.5v758h-402v-725q0 -40 27 -58t65 -24t70 -8q21 -2 28.5 -8t7.5 -29q0 -11 -8 -26t-26 -15h-555z" />
    <glyph glyph-name=".notdef" horiz-adv-x="2048" 
d="M256 0v1547h1556v-1547h-1556zM362 90h1344v1367h-1344v-1367zM581 397l365 370l-365 371l92 86l361 -367l361 367l92 -86l-365 -371l365 -370l-92 -85l-361 366l-361 -366z" />
    <glyph glyph-name=".null" 
 />
    <glyph glyph-name="nonmarkingreturn" horiz-adv-x="682" 
 />
    <glyph glyph-name="CR" unicode="&#xd;" horiz-adv-x="712" 
 />
    <glyph glyph-name="space" unicode=" " horiz-adv-x="512" 
 />
    <glyph glyph-name="exclam" unicode="!" horiz-adv-x="743" 
d="M320 508q-17 211 -41.5 346.5t-47.5 220.5t-38.5 141t-15.5 106q0 87 56 147t139 60q81 0 138 -60t57 -147q0 -50 -18 -106t-43.5 -141t-49 -220.5t-34.5 -346.5h-102zM371 -20q-75 0 -126 54t-51 126q0 70 51 120t126 50t127 -50t52 -120q0 -72 -52 -126t-127 -54z" />
    <glyph glyph-name="quotedbl" unicode="&#x22;" horiz-adv-x="983" 
d="M174 940q12 159 10 273t-5.5 189t3.5 119q9 59 43.5 106t107.5 47q72 0 91.5 -47t10.5 -106q-11 -66 -65 -204t-112 -377h-84zM634 940q12 159 10 273t-5.5 189t3.5 119q9 59 43.5 106t107.5 47q72 0 91.5 -47t10.5 -106q-11 -66 -65 -204t-112 -377h-84z" />
    <glyph glyph-name="numbersign" unicode="#" horiz-adv-x="1403" 
d="M269 0l75 400h-209v126h233l70 374h-254v126h278l74 393h147l-74 -393h304l74 393h147l-74 -393h208v-126h-232l-71 -374h233v-126h-257l-76 -400h-145l75 400h-305l-76 -400h-145zM514 526h305l70 374h-304z" />
    <glyph glyph-name="dollar" unicode="$" horiz-adv-x="1293" 
d="M596 -240v215q-77 11 -131.5 30.5t-81.5 32.5q-26 12 -41.5 21t-28.5 9q-8 0 -18.5 -4.5t-19.5 -15.5q-17 -21 -37 -30t-36 -9q-48 0 -47 46q0 27 1 50.5t1 43.5q0 90 -8.5 172t-11.5 115q-3 28 14.5 42t38.5 14q19 0 35.5 -10t20.5 -30q5 -24 18.5 -60.5t53.5 -118.5
q37 -73 97.5 -121t126.5 -72t119 -24q66 0 122.5 18.5t91.5 64t35 127.5q0 66 -52.5 118.5t-134.5 96.5t-173 84q-90 40 -175 99t-140 141.5t-55 193.5q0 109 62.5 186.5t162 119t209.5 42.5v201h112v-200q78 -4 128 -22.5t73 -21.5q10 -3 24 -3q23 0 30.5 9.5t21.5 18.5
q12 6 27 6q22 0 42 -10.5t20 -25.5q0 -12 3.5 -58t9 -106t12.5 -113q1 -5 1 -15q0 -30 -17.5 -42t-37.5 -12q-18 0 -32.5 6.5t-16.5 15.5q-23 113 -80 178.5t-127.5 92.5t-133.5 27q-100 0 -162 -42t-62 -144q0 -66 50.5 -120.5t129 -99.5t163.5 -85q102 -47 192.5 -103.5
t147 -131t56.5 -176.5q0 -118 -62.5 -207.5t-171 -140t-246.5 -52.5v-211h-112z" />
    <glyph glyph-name="percent" unicode="%" horiz-adv-x="1762" 
d="M460 711q-166 0 -265 98.5t-99 266.5q0 172 101 272.5t267 100.5q171 0 271.5 -100.5t100.5 -272.5q0 -168 -102.5 -266.5t-273.5 -98.5zM378 0l851 1419h147l-853 -1419h-145zM464 788q82 0 112.5 71.5t30.5 216.5q0 164 -30.5 230t-113.5 66q-79 0 -110 -73.5
t-31 -222.5q0 -145 31 -216.5t111 -71.5zM1290 -33q-166 0 -265 98.5t-99 266.5q0 172 101 272.5t267 100.5q171 0 271.5 -100.5t100.5 -272.5q0 -168 -102.5 -266.5t-273.5 -98.5zM1293 44q83 0 113.5 71t30.5 217q0 164 -31 230t-113 66q-80 0 -111 -74t-31 -222
q0 -146 31.5 -217t110.5 -71z" />
    <glyph glyph-name="ampersand" unicode="&#x26;" horiz-adv-x="1582" 
d="M556 -30q-149 0 -263.5 47.5t-179 135t-64.5 209.5q0 144 99 245t251 151q-70 81 -120 170.5t-50 190.5q0 106 56.5 181t152.5 115t214 40q190 0 284 -72t94 -199q0 -86 -42 -152t-114 -120t-161 -106l374 -403q40 71 62.5 143t32.5 123.5t11 61.5q1 33 -24.5 51
t-59.5 25.5t-59 10.5q-19 2 -24.5 11.5t-5.5 25.5q-1 15 7.5 28t25.5 13h435q17 0 25.5 -13t8.5 -28q-1 -37 -33 -37q-46 0 -84.5 -25.5t-58.5 -72.5q-28 -74 -72.5 -182t-124.5 -201l133 -140q36 -35 96.5 -74.5t122.5 -44.5q21 -2 28.5 -8t7.5 -29q0 -15 -8.5 -28
t-25.5 -13h-414l-126 135q-75 -70 -181 -117.5t-226 -47.5zM646 879q113 64 147 138.5t34 157.5q1 33 -15.5 79.5t-53 82t-92.5 35.5q-79 0 -123.5 -45t-44.5 -125q0 -106 39 -174.5t109 -148.5zM630 118q70 0 142 20.5t129 67.5l-426 470q-63 -46 -92 -114t-29 -155
q0 -128 73 -208.5t203 -80.5z" />
    <glyph glyph-name="quotesingle" unicode="'" horiz-adv-x="517" 
d="M159 940q12 159 10 273t-5.5 189t3.5 119q9 59 43.5 106t107.5 47q72 0 91.5 -47t10.5 -106q-11 -66 -65 -204t-112 -377h-84z" />
    <glyph glyph-name="parenleft" unicode="(" horiz-adv-x="870" 
d="M768 -340q-75 0 -165.5 29.5t-180 95.5t-163.5 174.5t-119 266t-45 370.5t45 370.5t119 266t163.5 174.5t180 95.5t165.5 29.5v-97q-31 0 -78.5 -15t-99.5 -61.5t-97 -138.5t-74 -244t-29 -380t29 -380t74 -244t97 -138.5t99.5 -61.5t78.5 -15v-97z" />
    <glyph glyph-name="parenright" unicode=")" horiz-adv-x="870" 
d="M93 -340v97q32 0 79.5 15t99 61.5t97 138.5t74 244t28.5 380t-28.5 380t-74 244t-97 138.5t-99 61.5t-79.5 15v97q76 0 166.5 -29.5t179.5 -95.5t163.5 -174.5t119.5 -266t45 -370.5t-45 -370.5t-119.5 -266t-163.5 -174.5t-179.5 -95.5t-166.5 -29.5z" />
    <glyph glyph-name="asterisk" unicode="*" horiz-adv-x="981" 
d="M277 648q-42 0 -73.5 30t-31.5 75q0 42 28 80q8 11 43 42.5t74 66.5q32 28 68.5 58t52.5 47q-22 3 -65.5 3.5t-92.5 0.5t-89.5 2t-55.5 7q-39 12 -65 39.5t-26 66.5q0 53 34.5 81t74.5 28q27 0 48 -9q15 -5 48.5 -26t74 -47.5t77 -50t56.5 -34.5q-16 105 -47 187t-31 128
q0 53 29.5 89.5t83.5 36.5q53 0 83 -36.5t30 -89.5q0 -55 -30 -132.5t-50 -182.5q20 11 55.5 35t76.5 50q61 39 90.5 56t45.5 21.5t36 4.5q40 0 74 -28.5t34 -83.5q0 -37 -25.5 -64.5t-66.5 -38.5q-18 -5 -58 -7t-88 -2t-90 -0.5t-64 -3.5q28 -29 72 -63.5t88.5 -72.5
t74.5 -78t30 -80q0 -41 -30 -73t-74 -32q-29 0 -56 16t-46 42q-8 11 -22.5 50.5t-32 90t-33 95.5t-25.5 66q-10 -22 -25.5 -67t-33 -94.5t-32 -89t-22.5 -51.5q-42 -58 -101 -58z" />
    <glyph glyph-name="plus" unicode="+" horiz-adv-x="1403" 
d="M618 75v426h-402v146h402v415h166v-415h402v-146h-402v-426h-166z" />
    <glyph glyph-name="comma" unicode="," horiz-adv-x="635" 
d="M253 -373q-19 0 -35 9.5t-16 26.5t17 36q34 38 62 102t28 129q0 18 -2 31t-6 26q-57 2 -106 45t-49 115q0 79 46 123.5t117 44.5q85 0 137.5 -60t52.5 -184q0 -97 -36.5 -184.5t-87.5 -154t-95 -98.5q-11 -7 -27 -7z" />
    <glyph glyph-name="hyphen" unicode="-" horiz-adv-x="773" 
d="M99 482v140h575v-140h-575z" />
    <glyph glyph-name="period" unicode="." horiz-adv-x="635" 
d="M140 160q0 70 51 120t126 50t127 -50t52 -120q0 -72 -52 -126t-127 -54t-126 54t-51 126z" />
    <glyph glyph-name="slash" unicode="/" horiz-adv-x="964" 
d="M134 -440l546 2040h151l-548 -2040h-149z" />
    <glyph glyph-name="zero" unicode="0" horiz-adv-x="1381" 
d="M689 -29q-180 0 -308.5 74.5t-197 211.5t-68.5 325q0 192 70.5 331.5t200.5 215.5t310 76q273 0 421.5 -168t148.5 -455q0 -188 -68.5 -325t-198 -211.5t-310.5 -74.5zM692 66q157 0 208.5 127.5t51.5 388.5q0 266 -53.5 397t-210.5 131q-158 0 -209 -131t-51 -397
q0 -261 53 -388.5t211 -127.5z" />
    <glyph glyph-name="one" unicode="1" horiz-adv-x="966" 
d="M173 0q-17 0 -25.5 15t-8.5 26q0 16 7 28t26 14q32 2 76.5 9t78.5 20t34 35l1 837q-43 -31 -91 -51t-85 -20q-32 0 -42 26.5t-10 38.5q0 22 7.5 43.5t28.5 23.5q23 1 65 14.5t90 34.5t90.5 45.5t66.5 49.5h167l-1 -1017q0 -49 55.5 -67.5t126.5 -21.5q36 -2 36 -42
q0 -11 -8 -26t-26 -15h-659z" />
    <glyph glyph-name="two" unicode="2" horiz-adv-x="1241" 
d="M117 0v33q1 34 23 54q110 84 222.5 170t207.5 178t152.5 195t57.5 220q0 51 -18 111.5t-63.5 104t-127.5 43.5q-61 0 -94.5 -17.5t-49.5 -42.5t-25 -47q-14 -43 -28 -87t-27 -85q-9 -32 -26 -59.5t-63 -27.5q-47 0 -97.5 29.5t-50.5 101.5q0 41 24 94q27 60 93.5 114.5
t162.5 88.5t212 34q242 0 363 -91.5t121 -262.5q0 -101 -56.5 -190.5t-148.5 -168t-199.5 -146t-208.5 -123.5h659l-10 -223h-1005z" />
    <glyph glyph-name="three" unicode="3" horiz-adv-x="1234" 
d="M543 -393q-114 0 -222 36t-178 106.5t-70 175.5q0 58 25.5 99t60.5 63t65 22q54 0 84.5 -21.5t36.5 -53.5l-59 -222q4 -9 29.5 -35.5t78 -50.5t138.5 -24q145 0 224 94t79 250q0 135 -48 210.5t-123.5 105.5t-157.5 30h-84q-19 0 -19 57q0 56 19 56h70q65 0 131.5 34
t111.5 104.5t45 177.5q0 38 -9 87t-33 94.5t-67.5 75.5t-112.5 30q-73 0 -110.5 -26.5t-64.5 -79.5q-13 -44 -23.5 -89t-19.5 -74q-24 -78 -94 -78q-45 0 -92 34.5t-47 99.5q0 90 70 160t181.5 110t235.5 40q225 0 353 -99.5t128 -265.5q0 -103 -49 -184t-128.5 -133
t-169.5 -67q118 -1 213.5 -45t152 -130t56.5 -211q0 -130 -70.5 -235t-206.5 -166.5t-330 -61.5z" />
    <glyph glyph-name="four" unicode="4" horiz-adv-x="1277" 
d="M735 -328v328h-639q-9 0 -17.5 20.5t-8.5 44.5q0 17 2 32.5t11 30.5l526 1034q29 42 77 42q49 0 100 -27t86 -63.5t35 -65.5l-630 -884h458l14 335l228 25v-360h245l-12 -164h-233v-328h-242z" />
    <glyph glyph-name="five" unicode="5" horiz-adv-x="1183" 
d="M516 -392q-73 0 -151.5 20.5t-146.5 60t-110.5 96t-42.5 127.5q0 60 25 102t59 63.5t61 21.5q57 0 89 -19.5t39 -47.5l-56 -239q26 -31 83.5 -60.5t167.5 -29.5q95 0 153.5 58t85.5 158.5t27 226.5q0 97 -29 176t-87.5 126t-146.5 47q-87 0 -168 -37.5t-136 -105.5
l-68 33l58 805h832l-14 -246h-697l-43 -432q61 42 152 71.5t183 29.5q232 0 352 -124.5t120 -320.5q0 -161 -72.5 -287.5t-205.5 -199.5t-313 -73z" />
    <glyph glyph-name="six" unicode="6" horiz-adv-x="1276" 
d="M631 -29q-185 0 -303.5 82t-175.5 216.5t-57 294.5q0 114 31 241.5t96 251t168 227t247 173t332 86.5l1 -92q-141 -29 -238 -91.5t-159 -147t-96.5 -179t-50.5 -187.5q51 42 125 75t182 33q154 0 253 -61t147 -165.5t48 -234.5q0 -144 -66 -262.5t-189.5 -189
t-294.5 -70.5zM627 66q93 0 145 51t73 142.5t21 212.5q0 169 -55 266.5t-174 97.5q-71 0 -128 -29t-97 -70q-5 -50 -6 -94t-1 -81q0 -143 19.5 -255.5t67.5 -176.5t135 -64z" />
    <glyph glyph-name="seven" unicode="7" horiz-adv-x="1103" 
d="M285 -349l576 1296h-510q-61 0 -92.5 -35.5t-46.5 -84.5t-26 -91q-4 -19 -20.5 -26t-32.5 -7q-11 0 -29.5 8.5t-18.5 25.5l35 453h907l46 -47l-552 -1493z" />
    <glyph glyph-name="eight" unicode="8" horiz-adv-x="1335" 
d="M668 -30q-270 0 -411 111.5t-141 291.5q0 102 50.5 174.5t122.5 117.5t137 64q-99 69 -169.5 151.5t-70.5 207.5q0 91 57 173.5t165.5 135t264.5 52.5q164 0 268.5 -45.5t154.5 -123.5t50 -175q0 -79 -40.5 -141t-103 -106.5t-128.5 -70.5q93 -48 170 -105t123 -134.5
t46 -189.5q0 -108 -66.5 -196t-188.5 -140t-290 -52zM780 833q47 30 80 94t33 189q0 62 -22 116.5t-71 88t-130 33.5q-108 0 -166 -55t-58 -164q0 -59 32.5 -105t105.5 -92.5t196 -104.5zM678 65q126 0 197 62.5t71 178.5q0 77 -42.5 131.5t-106.5 93t-127 67.5
q-42 19 -84 39.5t-83 43.5q-48 -36 -81 -110t-38 -192q0 -77 31 -149t96 -118.5t167 -46.5z" />
    <glyph glyph-name="nine" unicode="9" horiz-adv-x="1276" 
d="M307 -368l-1 92q141 29 238 92t159 147t96.5 179t50.5 187q-51 -41 -125 -74.5t-182 -33.5q-154 0 -253 61t-147 165.5t-48 234.5q0 144 66 262.5t189 189t295 70.5q185 0 303.5 -81.5t175.5 -216.5t57 -294q0 -115 -31 -242.5t-96.5 -250.5t-168 -227t-246.5 -173
t-332 -87zM639 339q71 0 128 29.5t97 70.5q5 49 6 93t1 81q0 144 -19.5 256t-68 176t-134.5 64q-94 0 -146 -51t-72.5 -142.5t-20.5 -212.5q0 -168 54.5 -266t174.5 -98z" />
    <glyph glyph-name="colon" unicode=":" horiz-adv-x="718" 
d="M192 160q0 70 51 120t126 50t127 -50t52 -120q0 -72 -52 -126t-127 -54t-126 54t-51 126zM192 824q0 70 51 120t126 50t127 -50t52 -120q0 -72 -52 -126t-127 -54t-126 54t-51 126z" />
    <glyph glyph-name="semicolon" unicode=";" horiz-adv-x="718" 
d="M182 824q0 70 51 120t126 50t127 -50t52 -120q0 -72 -52 -126t-127 -54t-126 54t-51 126zM285 -373q-19 0 -35 9.5t-16 26.5t17 36q34 38 62 102t28 129q0 18 -2 31t-6 26q-57 2 -106 45t-49 115q0 79 46 123.5t117 44.5q85 0 137.5 -60t52.5 -184q0 -97 -36.5 -184.5
t-87.5 -154t-95 -98.5q-11 -7 -27 -7z" />
    <glyph glyph-name="less" unicode="&#x3c;" horiz-adv-x="1403" 
d="M1171 -2l-974 510v119l974 512v-167l-791 -407l791 -402v-165z" />
    <glyph glyph-name="equal" unicode="=" horiz-adv-x="1403" 
d="M226 712v146h951v-146h-951zM226 257v146h951v-146h-951z" />
    <glyph glyph-name="greater" unicode="&#x3e;" horiz-adv-x="1403" 
d="M226 -2v165l791 402l-791 407v167l974 -512v-119z" />
    <glyph glyph-name="question" unicode="?" horiz-adv-x="1079" 
d="M435 447v79q0 95 29 157t72 108t86 91t72.5 104t29.5 149q0 47 -8 100t-30 100.5t-64.5 77.5t-112.5 30q-63 0 -104.5 -20.5t-62 -41l-20.5 -20.5l-26 -265q-8 -22 -32.5 -30t-70.5 -8q-31 0 -70.5 35.5t-39.5 106.5q0 40 17 84q22 59 82.5 115t150 92.5t199.5 36.5
q158 0 261 -51t153 -136t50 -187q0 -94 -42 -162.5t-103.5 -123t-123 -106.5t-103.5 -112t-43 -140v-63h-146zM506 -20q-75 0 -126 54t-51 126q0 70 51 120t126 50t127 -50t52 -120q0 -72 -52 -126t-127 -54z" />
    <glyph glyph-name="at" unicode="@" horiz-adv-x="1956" 
d="M962 -338q-125 0 -260 36t-253.5 116t-196 212.5t-88.5 324.5q0 17 -1 33t-1 32q0 238 83.5 421t222 308t307 189t339.5 64q117 0 234 -31.5t214.5 -99.5t160 -178t70.5 -267q1 -11 1 -22v-22q0 -168 -59.5 -298t-149.5 -219.5t-185 -136t-166 -46.5q-91 0 -133.5 54
t-47.5 113q-17 -41 -56 -77.5t-85 -59t-86 -22.5q-59 0 -116.5 32.5t-97 99.5t-45.5 171q0 8 -0.5 16t-0.5 17q0 102 31 202.5t89.5 183t142 132t189.5 49.5q58 0 98 -27t61 -65t21 -73l39 139h199l-215 -608q-4 -12 -9.5 -35t-5.5 -47q0 -26 16 -46t63 -20q46 0 111 39.5
t128 113.5t105 178t42 233v17.5t-1 18.5q-6 122 -56.5 211.5t-131.5 148.5t-180 87.5t-202 28.5q-177 0 -323.5 -68t-252.5 -188t-163.5 -278.5t-57.5 -339.5q-1 -29 1 -56q8 -150 59 -252.5t128 -168t165 -100.5t171.5 -48.5t144.5 -13.5q129 0 225.5 28t161 65t96.5 65
l32 28l65 -48q-46 -53 -122.5 -110t-191.5 -96.5t-276 -39.5zM855 217q40 0 79 35t68 79t38 71l103 310q1 12 1 25q0 40 -19.5 81.5t-88.5 41.5q-56 0 -100.5 -37t-77.5 -95.5t-54.5 -124t-32 -123t-8.5 -91.5q3 -67 19 -119.5t73 -52.5z" />
    <glyph glyph-name="A" unicode="A" horiz-adv-x="1498" 
d="M18 0q-16 0 -25 15.5t-9 35.5q0 23 7.5 29t28.5 8q25 3 54.5 3.5t56 15.5t42.5 58l473 1276h212l466 -1276q16 -45 44 -59.5t58.5 -14.5t55.5 -3q21 -2 28.5 -8t7.5 -29q0 -11 -9 -31t-25 -20h-585q-18 0 -26 20t-8 31q0 33 33 37q59 3 94.5 4.5t35.5 24.5q0 6 -3 15
l-124 350l-479 1l-124 -351q-3 -7 -3 -13q0 -24 43 -26t104 -5q33 -4 33 -37q0 -11 -8.5 -31t-25.5 -20h-423zM679 1189l-229 -621h422z" />
    <glyph glyph-name="B" unicode="B" horiz-adv-x="1486" 
d="M131 0q-18 0 -26 20t-8 31q0 33 33 37q39 3 79.5 9.5t68 19.5t27.5 35l1 1082q0 43 -30.5 62.5t-73 26t-78.5 8.5q-21 2 -28.5 8.5t-7.5 28.5q0 11 8 31t26 20h667q159 0 277.5 -30.5t184 -99t65.5 -182.5q0 -101 -43 -172.5t-114.5 -113t-158.5 -53.5q115 -7 207.5 -48
t147 -115.5t54.5 -185.5q0 -213 -152 -316t-412 -103h-714zM601 806h111q78 0 149 25t116 84.5t45 161.5q0 137 -80 193t-207 56h-134v-520zM767 101q52 0 108 11t104.5 43.5t79 96t30.5 167.5q0 112 -39 172t-99 85t-125.5 29.5t-119.5 4.5h-105v-572l6.5 -9t41 -18.5
t118.5 -9.5z" />
    <glyph glyph-name="C" unicode="C" horiz-adv-x="1419" 
d="M847 -30q-141 0 -278.5 36.5t-249 120.5t-178.5 226t-67 353q0 198 69.5 339.5t182 230.5t244.5 131t256 42q154 0 246 -20t142.5 -42t80.5 -26l18 -318q2 -17 -22.5 -28.5t-37.5 -11.5q-3 0 -6 -0.5t-7 -0.5q-18 0 -39.5 6.5t-24.5 22.5q-18 85 -56.5 158.5
t-109.5 118.5t-186 45q-62 0 -131.5 -20.5t-131 -84.5t-100 -193.5t-38.5 -348.5q0 -208 42.5 -335t109 -193.5t139 -89.5t132.5 -23q105 0 178 47.5t116.5 124.5t60.5 167q4 19 16 26t29 7q12 0 40 -8.5t28 -25.5l-30 -295q-1 -14 -60 -47.5t-157.5 -62t-219.5 -28.5z" />
    <glyph glyph-name="D" unicode="D" horiz-adv-x="1655" 
d="M143 0q-17 0 -25.5 20t-8.5 31q0 33 33 37q48 4 96.5 17.5t48.5 46.5v1082q0 43 -25 62t-60.5 25.5t-66.5 9.5q-21 2 -28.5 8.5t-7.5 28.5q0 11 8.5 31t25.5 20h666q204 -1 352.5 -58t244.5 -154t142.5 -218.5t46.5 -250.5q0 -195 -69 -335t-178.5 -229t-235 -131.5
t-237.5 -42.5h-722zM586 168q0 -14 16 -29.5t60.5 -26.5t131.5 -11q92 0 172 19.5t141.5 82t96.5 189.5t35 342q0 186 -38 301.5t-102.5 178t-145.5 85.5t-169 23h-197z" />
    <glyph glyph-name="E" unicode="E" horiz-adv-x="1435" 
d="M108 51q0 33 33 37q48 4 97 17.5t49 46.5v1082q0 43 -25 62t-60.5 25.5t-66.5 9.5q-21 2 -28.5 8.5t-7.5 28.5q0 11 8.5 31t25.5 20h1105l35 -325q1 -17 -15.5 -25.5t-27.5 -8.5q-16 0 -37 5.5t-33 27.5q-40 75 -64 125.5t-53 76t-83 25.5h-375v-542h257q26 4 48 38
t36 73.5t17 59.5q2 20 16 26t30 6q11 0 31 -8t20 -26v-443q0 -17 -20 -25.5t-31 -8.5q-16 0 -31.5 7t-17.5 26q-2 22 -16 65t-37 78.5t-51 35.5h-251v-485q0 -55 28.5 -74t61.5 -22h288q90 0 151 61t120 211q7 19 29.5 26t38.5 7q19 0 37.5 -8t20.5 -26l-43 -372h-1175
q-17 0 -25.5 20t-8.5 31z" />
    <glyph glyph-name="F" unicode="F" horiz-adv-x="1330" 
d="M142 0q-17 0 -25.5 20t-8.5 31q0 33 33 37q60 4 104 17.5t44 46.5l1 1082q0 43 -23.5 62.5t-59 26t-72.5 8.5q-21 2 -28.5 8.5t-7.5 28.5q0 11 8.5 31t25.5 20l1100 -1l38 -348q0 -17 -13.5 -25.5t-24.5 -8.5q-16 0 -37 5.5t-30 27.5q-28 58 -55.5 116t-63.5 96.5
t-90 38.5h-371v-576h268q26 4 47.5 38.5t35 74.5t16.5 60q2 19 17 25.5t31 6.5q11 0 26 -8.5t15 -25.5v-443q0 -17 -15 -25.5t-26 -8.5q-16 0 -32 7t-18 26q-2 22 -16 65t-36.5 79.5t-50.5 36.5h-262v-455q0 -43 45 -66.5t103.5 -33t101.5 -9.5q16 0 26 -7t10 -30
q0 -11 -8.5 -31t-25.5 -20h-696z" />
    <glyph glyph-name="G" unicode="G" horiz-adv-x="1602" 
d="M846 -30q-91 0 -195 23.5t-205.5 76t-184 138.5t-132.5 209t-50 289q0 165 49 288.5t131.5 210.5t184.5 141t210.5 78.5t207.5 24.5q194 0 317 -32.5t175 -55.5l22 -310q2 -17 -17.5 -28.5t-32.5 -11.5q-3 0 -6 -0.5t-7 -0.5q-17 0 -37.5 6.5t-23.5 22.5
q-23 84 -69.5 155.5t-125 115t-197.5 43.5q-44 0 -101.5 -14.5t-117 -53.5t-110 -111.5t-81.5 -187t-31 -280.5q0 -183 46 -306.5t117 -197t149 -105.5t141 -32q96 0 146.5 19.5t69.5 49.5t19 62v260q0 43 -30 62.5t-73 25.5t-81 9q-21 2 -28.5 8.5t-7.5 28.5q0 11 8.5 31
t25.5 20h591q18 0 26 -20t8 -31q0 -34 -33 -37q-44 -5 -80 -18t-36 -46l3 -366q-15 -22 -86.5 -58.5t-190.5 -65.5t-277 -29z" />
    <glyph glyph-name="H" unicode="H" horiz-adv-x="1809" 
d="M142 0q-17 0 -25.5 20t-8.5 31q0 34 33 37q48 4 92 17.5t44 46.5v1082q0 43 -22.5 62.5t-55.5 25.5t-64 9q-21 2 -28.5 8.5t-7.5 28.5q0 11 8.5 31t25.5 20h585q17 0 25.5 -20t8.5 -31q0 -34 -33 -37q-50 -4 -97.5 -17.5t-47.5 -46.5v-458h661v425q0 43 -25 62
t-60.5 25.5t-66.5 9.5q-21 2 -28.5 8.5t-7.5 28.5q0 11 8.5 31t25.5 20h595q17 0 25.5 -20t8.5 -31q0 -34 -33 -37q-50 -4 -97.5 -17.5t-47.5 -46.5v-1082q0 -43 25 -62t60 -25t66 -10q21 -2 28.5 -8t7.5 -29q0 -11 -8.5 -31t-25.5 -20h-595q-17 0 -25.5 20t-8.5 31
q0 34 33 37q48 4 97 17.5t49 46.5v539h-661v-506q0 -43 25 -62.5t60 -25.5t66 -9q21 -2 28.5 -8t7.5 -29q0 -11 -8.5 -31t-25.5 -20h-585z" />
    <glyph glyph-name="I" unicode="I" horiz-adv-x="878" 
d="M146 0q-17 0 -25.5 20t-8.5 31q0 34 33 37q48 4 96.5 17.5t48.5 46.5l1 1082q0 43 -25 62.5t-60.5 25.5t-66.5 9q-21 2 -28.5 8.5t-7.5 28.5q0 11 8.5 31t25.5 20h596q17 0 25.5 -20t8.5 -31q0 -34 -33 -37q-51 -4 -98 -17.5t-47 -46.5l-1 -1082q0 -43 25 -62.5
t60.5 -25.5t66.5 -9q21 -2 28.5 -8t7.5 -29q0 -11 -8.5 -31t-25.5 -20h-596z" />
    <glyph glyph-name="J" unicode="J" horiz-adv-x="1171" 
d="M435 -30q-70 0 -151 29.5t-150 89.5q-50 44 -71.5 102t-21.5 115q0 98 49.5 156t141.5 58q49 0 79 -22t30 -43l-54 -362q28 -15 63 -24.5t76 -9.5q106 0 160.5 81.5t54.5 265.5l1 828q0 43 -29.5 62.5t-72 26t-82.5 8.5q-21 2 -28.5 8.5t-7.5 28.5q0 11 8.5 31t25.5 20
h632q17 0 25.5 -20t8.5 -31q0 -35 -33 -37q-66 -3 -110 -17t-44 -47v-828q0 -147 -48.5 -239t-125 -142t-163 -69t-163.5 -19z" />
    <glyph glyph-name="K" unicode="K" horiz-adv-x="1597" 
d="M142 0q-17 0 -25.5 20t-8.5 31q0 33 33 37q48 4 96.5 21t48.5 50l1 1075q0 43 -25 62t-60.5 25.5t-66.5 9.5q-21 2 -28.5 8.5t-7.5 28.5q0 11 8.5 31t25.5 20h586q17 0 25.5 -20t8.5 -31q0 -34 -33 -37q-43 -3 -89 -17t-46 -47l-1 -1082q0 -43 22.5 -62t55.5 -25t64 -10
q21 -2 28.5 -8t7.5 -29q0 -11 -8.5 -31t-25.5 -20h-586zM1191 0q-35 0 -65.5 28.5t-65.5 81.5q-40 61 -83 139t-88.5 157t-92.5 145.5t-94.5 107t-94.5 39.5l515 578q9 10 9 18q0 13 -21 20.5t-48 10.5t-46 5t-25 11.5t-6 25.5q0 11 8 31.5t26 20.5h480q17 0 25.5 -20.5
t8.5 -31.5q0 -37 -33 -37q-51 0 -107.5 -18t-92.5 -51l-396 -419q42 -22 96 -88t112.5 -154t115 -176t102.5 -153q62 -86 117.5 -132t91.5 -50t36 -47q0 -12 -8.5 -27t-25.5 -15h-350z" />
    <glyph glyph-name="L" unicode="L" horiz-adv-x="1353" 
d="M143 0q-17 0 -25.5 20t-8.5 31q0 34 33 37q48 4 95 21t47 50v1075q0 43 -23 62.5t-57.5 25.5t-68.5 9q-21 2 -28.5 8.5t-7.5 28.5q0 11 8.5 31t25.5 20h633q17 0 25.5 -20t8.5 -31q0 -37 -33 -37q-74 0 -129 -19t-55 -75v-1060q0 -49 28.5 -62.5t65.5 -13.5h277
q46 0 92 54.5t84.5 133.5t62.5 151q6 18 30 25.5t40 7.5q18 0 36 -8.5t15 -25.5l-56 -439h-1115z" />
    <glyph glyph-name="M" unicode="M" horiz-adv-x="2036" 
d="M113 0q-17 0 -25.5 20t-8.5 31q0 33 33 37q39 3 79.5 9t68 25.5t27.5 61.5v1050q0 43 -30 62.5t-72.5 26t-78.5 8.5q-21 2 -28.5 8.5t-7.5 28.5q0 11 8.5 30.5t25.5 20.5h596l109 -324l237 -648l312 858q10 28 18 60.5t10 53.5h536q18 0 26 -20t8 -31q0 -33 -33 -37
q-50 -4 -97.5 -17.5t-47.5 -46.5v-1082q0 -43 25.5 -62t61 -25t65.5 -10q21 -2 28.5 -8t7.5 -29q0 -11 -8 -31t-26 -20h-604q-18 0 -26 20t-8 31q0 33 33 37q32 3 67.5 9.5t61 19.5t25.5 35v1129h-30l-465 -1281h-55l-509 1281h-38v-1096q0 -43 32.5 -62.5t77.5 -25.5t82 -9
q21 -2 28.5 -8t7.5 -29q0 -11 -8.5 -31t-25.5 -20h-465z" />
    <glyph glyph-name="N" unicode="N" horiz-adv-x="1674" 
d="M87 0q-17 0 -25.5 20t-8.5 31q0 33 33 37q32 3 73.5 10t72 24.5t30.5 49.5v1024q0 43 -33 72t-76 44.5t-73 18.5q-21 2 -28.5 8.5t-7.5 28.5q0 11 8.5 31t25.5 20h442l800 -999h12v814q0 43 -32.5 62t-75.5 25.5t-73 9.5q-21 2 -28.5 8.5t-7.5 28.5q0 11 8.5 31t25.5 20
h469q17 0 25.5 -20t8.5 -31q0 -33 -33 -37q-31 -3 -72 -11t-72 -27t-31 -56v-1124q0 -19 1.5 -31.5t4.5 -41.5q3 -40 -32 -55t-63 -15q-36 0 -54 22l-904 1118h-17v-925q0 -43 35.5 -62t81 -25t76.5 -10q21 -2 28.5 -8t7.5 -29q0 -11 -8.5 -31t-25.5 -20h-488z" />
    <glyph glyph-name="O" unicode="O" horiz-adv-x="1632" 
d="M815 -29q-169 0 -302.5 58t-226.5 160.5t-142 237.5t-49 289q0 205 86.5 371t248.5 264t388 98q225 0 386 -98t247 -264t86 -371q0 -154 -49 -289t-143 -237.5t-227.5 -160.5t-302.5 -58zM819 65q138 0 220.5 78.5t119 224t36.5 346.5q0 302 -87.5 472t-294.5 170
q-208 0 -292.5 -170t-84.5 -472q0 -201 38 -346.5t122 -224t223 -78.5z" />
    <glyph glyph-name="P" unicode="P" horiz-adv-x="1379" 
d="M149 0q-17 0 -25.5 20t-8.5 31q0 33 33 37q48 4 90.5 17.5t42.5 46.5v1082q0 43 -23.5 62t-57.5 25.5t-65 9.5q-21 2 -28.5 8.5t-7.5 28.5q0 11 8.5 31t25.5 20h274q106 0 200.5 5.5t183.5 5.5q148 0 268 -40.5t190.5 -132t70.5 -247.5q0 -201 -141 -328t-422 -127h-180
v-370q0 -43 39.5 -62.5t92 -25.5t91.5 -9q21 -2 28.5 -8t7.5 -29q0 -11 -8.5 -31t-25.5 -20h-653zM577 648h129q61 0 128 29.5t113.5 103.5t46.5 208q0 138 -37 213t-104 104t-158 29h-118v-687z" />
    <glyph glyph-name="Q" unicode="Q" horiz-adv-x="1632" 
d="M1006 -7q7 -47 26.5 -100t63.5 -100t121.5 -75.5t198.5 -26.5v-84q-20 -9 -73 -18.5t-130 -9.5q-79 0 -165 14.5t-164 56t-136.5 122t-82.5 213.5q-180 32 -307.5 136.5t-195 259t-67.5 335.5q0 205 86.5 371t248.5 264t388 98q225 0 386 -98t247 -264t86 -371
q0 -174 -63 -323.5t-181.5 -254.5t-286.5 -145zM436 714q0 -201 38 -346.5t122 -224t223 -78.5q138 0 220.5 78.5t119 224t36.5 346.5q0 302 -87.5 472t-294.5 170q-208 0 -292.5 -170t-84.5 -472z" />
    <glyph glyph-name="R" unicode="R" horiz-adv-x="1573" 
d="M140 0q-18 0 -26 20t-8 31q0 33 33 37q48 4 93 17.5t45 46.5l1 1082q0 43 -22.5 62t-56 25.5t-63.5 9.5q-21 2 -28.5 8.5t-7.5 28.5q0 11 8.5 31t25.5 20q61 0 102.5 1t86.5 1q106 0 207.5 4t229.5 4q252 -1 401 -89.5t149 -289.5q0 -124 -47.5 -202t-127.5 -122.5
t-177 -70.5q99 -10 156 -54.5t91 -111t62.5 -140.5t71.5 -143q34 -65 70.5 -89t73.5 -28q36 -4 36 -43q0 -11 -9 -28.5t-25 -17.5h-319q-55 0 -91 45t-62 116.5t-51 151t-57 151t-79.5 116.5t-119.5 45h-137v-440q0 -43 27.5 -62.5t67 -25.5t75.5 -9q21 -2 28.5 -8t7.5 -29
q0 -11 -8 -31t-26 -20h-601zM569 711h151q83 0 148 27.5t102.5 94.5t37.5 186q0 162 -76.5 237.5t-220.5 75.5h-142v-621z" />
    <glyph glyph-name="S" unicode="S" horiz-adv-x="1274" 
d="M684 -30q-121 0 -200 29t-113 43q-28 12 -43.5 21.5t-29.5 9.5q-11 0 -19.5 -7t-14.5 -14q-21 -24 -38.5 -32.5t-35.5 -8.5q-23 0 -37.5 13.5t-12.5 34.5q2 25 2 39v45q0 95 -8.5 179.5t-8.5 124.5q0 37 16.5 50.5t38.5 13.5q46 0 58 -42q6 -26 21 -71.5t49 -109.5
q58 -106 160.5 -167t215.5 -61q57 0 110 20t86.5 64t32.5 117q-2 89 -57 151.5t-138 110t-167 92.5q-67 35 -135.5 75t-126 91.5t-93 119t-35.5 157.5q-1 125 63.5 212t174 132.5t241.5 45.5q88 0 143 -13t89.5 -25.5t58.5 -12.5t32 9.5t22 18.5q11 7 28 7q23 0 44.5 -11
t21.5 -27q1 -55 7 -118t12 -115.5t6 -75.5q0 -32 -18 -44.5t-41 -12.5q-37 0 -49 23q-4 25 -22 76t-55.5 105.5t-101.5 92.5t-161 38q-63 0 -118.5 -18.5t-89.5 -61t-34 -114.5q0 -76 52.5 -135.5t132.5 -108.5t163 -92q74 -38 148.5 -81.5t136.5 -97t99.5 -121t37.5 -154.5
q0 -129 -68.5 -220.5t-182.5 -140t-249 -48.5z" />
    <glyph glyph-name="T" unicode="T" horiz-adv-x="1360" 
d="M332 0q-18 0 -26 20t-8 31q0 33 33 37q47 3 94.5 10.5t79 27t31.5 56.5l1 1138h-252q-42 0 -71 -40t-46 -96.5t-25 -108.5t-10 -76q-2 -19 -18.5 -26t-32.5 -7q-11 0 -31 8.5t-20 25.5q2 49 5 119.5t7 139t9 114.5t10 46h1236q6 0 11 -46t9 -114.5t7 -139t4 -119.5
q0 -17 -20 -25.5t-31 -8.5q-16 0 -32 7t-19 26q-2 24 -10 76t-25 108.5t-45.5 96.5t-71.5 40h-242v-1135q0 -43 33.5 -62.5t80.5 -25.5t88 -9q21 -2 28.5 -8t7.5 -29q0 -11 -8.5 -31t-25.5 -20h-705z" />
    <glyph glyph-name="U" unicode="U" horiz-adv-x="1659" 
d="M1400 1230l-2 -714q-1 -255 -142 -400t-392 -145q-186 0 -325.5 57.5t-217 182.5t-77.5 327l1 696q0 43 -23 62.5t-55.5 26t-63.5 8.5q-21 2 -28.5 8.5t-7.5 28.5q0 11 8.5 31t25.5 20h596q17 0 25.5 -20t8.5 -31q0 -34 -33 -37q-52 -4 -103.5 -17.5t-51.5 -46.5l-1 -743
q0 -248 80.5 -353.5t245.5 -105.5q151 0 241.5 62.5t130.5 165t40 221.5v730q0 34 -33 51.5t-75 25t-69 10.5q-21 2 -28.5 8.5t-7.5 28.5q0 11 8.5 31t25.5 20h466q18 0 26 -20t8 -31q0 -36 -33 -37q-77 -3 -122.5 -28t-45.5 -73z" />
    <glyph glyph-name="V" unicode="V" horiz-adv-x="1501" 
d="M720 -18l-564 1272q-17 44 -45.5 58.5t-60 15.5t-55.5 3q-21 2 -28.5 8.5t-7.5 28.5q0 11 8.5 31t25.5 20h615q17 0 25.5 -20t8.5 -31q0 -33 -33 -37q-61 -3 -101 -5t-40 -26q0 -5 3 -13l392 -975l354 945q2 8 2 11q0 30 -49 44.5t-111 18.5q-33 4 -33 37q0 11 8 31
t26 20h457q16 0 25 -20t9 -31q0 -22 -7.5 -29t-28.5 -8q-70 -4 -107 -17t-56 -60l-509 -1272h-123z" />
    <glyph glyph-name="W" unicode="W" horiz-adv-x="2213" 
d="M628 -18l-462 1238q-25 66 -60.5 84.5t-94.5 26.5q-21 3 -29 9t-8 28q0 11 9 31t25 20h610q17 0 25.5 -20t8.5 -31q0 -33 -33 -37q-150 -2 -150 -60q0 -11 4 -24l303 -869l329 1014h153l376 -995l285 852q4 12 4 22q0 29 -42.5 44t-138.5 16q-33 4 -33 37q0 11 8 31
t26 20h472q17 0 25.5 -20t8.5 -31q0 -22 -7.5 -29t-28.5 -8q-84 -1 -122 -31t-61 -97l-427 -1221h-123l-394 1023l-335 -1023h-123z" />
    <glyph glyph-name="X" unicode="X" horiz-adv-x="1595" 
d="M62 0q-16 0 -25 20t-9 31q0 23 7.5 29t28.5 8q37 4 91.5 14.5t95.5 62.5l399 501l-412 588q-26 40 -59 54.5t-65.5 17.5t-57.5 5q-21 2 -28.5 8.5t-7.5 28.5q0 11 9 31t25 20h644q17 0 25.5 -20t8.5 -31q0 -33 -33 -37q-78 -4 -112 -10.5t-34 -27.5q0 -5 5 -13l286 -413
l281 390q7 10 7 20q0 23 -35 37t-90 17q-33 4 -33 37q0 11 8.5 31t25.5 20h455q17 0 25.5 -20t8.5 -31q0 -22 -7.5 -28.5t-28.5 -8.5q-36 -4 -90 -12t-97 -65l-374 -474l443 -615q26 -40 58.5 -54.5t65 -17t56.5 -5.5q21 -2 28.5 -8t7.5 -29q0 -11 -8.5 -31t-25.5 -20h-660
q-17 0 -25.5 20t-8.5 31q0 33 33 37q66 -1 112 6t46 25q0 12 -18 39l-298 430l-304 -426q-7 -10 -7 -19q0 -23 38 -37.5t95 -17.5q33 -4 33 -37q0 -11 -8.5 -31t-25.5 -20h-465z" />
    <glyph glyph-name="Y" unicode="Y" horiz-adv-x="1426" 
d="M409 0q-18 0 -26 20t-8 31q0 32 43 37q33 3 71.5 4t66 13t27.5 47v376l-427 726q-36 61 -78 72t-79 15q-21 2 -28.5 8.5t-7.5 28.5q0 11 8.5 26t25.5 15h649q17 0 25.5 -15t8.5 -26q0 -33 -33 -37q-86 -5 -128.5 -10t-42.5 -30q0 -5 6.5 -16.5t8.5 -14.5l326 -620
l340 630q7 13 7 20q-1 20 -42.5 28t-108.5 13q-33 3 -33 37q0 11 8.5 26t25.5 15h415q16 0 25 -15t9 -26q0 -22 -7.5 -28.5t-28.5 -8.5q-37 -4 -77 -15t-74 -72l-396 -709v-380q0 -43 29 -57.5t69.5 -15.5t73.5 -4q21 -2 33.5 -8t12.5 -29q0 -11 -8.5 -31t-25.5 -20h-655z
" />
    <glyph glyph-name="Z" unicode="Z" horiz-adv-x="1357" 
d="M96 0q-19 0 -25 9.5t-6 18.5v9q0 10 7.5 27.5t34.5 58.5l715 1081l97 132h-475q-33 0 -65.5 -32.5t-61 -82.5t-49.5 -104t-31 -98q-6 -33 -37 -33q-11 0 -31.5 8.5t-20.5 25.5l29 358q18 40 47 41h1026q11 0 21 -5.5t10 -19.5v-20q0 -17 -10 -34l-741 -1116l-101 -141
h496q34 0 73 34t76.5 88t66.5 114t42 111q4 33 37 33q12 0 37.5 -8.5t24.5 -25.5l-50 -388q-17 -40 -47 -41h-1089z" />
    <glyph glyph-name="bracketleft" unicode="[" horiz-adv-x="870" 
d="M184 -327v1862l525 1v-111h-250v-1642h250v-111z" />
    <glyph glyph-name="backslash" unicode="\" horiz-adv-x="964" 
d="M731 -540h-149l-548 2040h151z" />
    <glyph glyph-name="bracketright" unicode="]" horiz-adv-x="870" 
d="M161 -328v111h250v1642h-250v111l524 -1v-1862z" />
    <glyph glyph-name="asciicircum" unicode="^" horiz-adv-x="1403" 
d="M166 299l475 1129h119l477 -1129h-188l-349 874l-345 -874h-189z" />
    <glyph glyph-name="underscore" unicode="_" horiz-adv-x="1403" 
d="M-25 -222l1036 32l417 -74l-1036 -32z" />
    <glyph glyph-name="grave" unicode="`" horiz-adv-x="1024" 
d="M677 1115q-153 122 -260 184t-131 85q-34 31 -34 85q0 20 7 40.5t24 38.5q31 33 78 33q27 0 52 -10.5t41 -25.5q23 -23 92 -126.5t187 -245.5z" />
    <glyph glyph-name="a" unicode="a" horiz-adv-x="1163" 
d="M97 242q0 100 57.5 164.5t150.5 103t201 58.5t209 30v162q0 161 -168 161q-48 0 -70.5 -5.5t-33.5 -11.5l-147 -260q-71 0 -117 35t-46 99q0 58 42 102t110 74t148 45t157 15q152 0 241.5 -40t128.5 -106.5t39 -145.5v-523q0 -39 11 -68t27 -29q14 0 38.5 5t33.5 7
q18 1 26 -17.5t8 -35.5q0 -13 -6 -17q-20 -14 -92 -40.5t-176 -26.5q-80 0 -108.5 24.5t-28.5 104.5v16q-65 -74 -151 -109.5t-191 -35.5q-61 0 -129 26t-116 84.5t-48 154.5zM396 251q0 -54 34.5 -97t100.5 -43q70 0 115.5 26.5t67.5 52.5v331q-79 -12 -152 -35t-119.5 -77
t-46.5 -158z" />
    <glyph glyph-name="b" unicode="b" horiz-adv-x="1269" 
d="M185 -32q-21 0 -28 15.5t-7 37.5v1312q0 62 -27 84.5t-63 26t-62 10.5q-10 5 -17 13.5t-7 26.5q0 12 6 28t18 17q36 2 91 4.5t114.5 4.5t111 3t81.5 1q13 0 21 -16.5t5 -28.5v-465l-6 -166q48 68 141.5 103t176.5 35q161 0 258.5 -74t141 -193t43.5 -254t-54 -254
t-163 -193.5t-276 -74.5q-87 0 -190.5 14.5t-179.5 64.5q-40 -30 -59 -48t-32.5 -26t-37.5 -8zM606 73q104 0 163 52t83.5 146.5t24.5 221.5q0 174 -56.5 282.5t-204.5 108.5q-50 0 -108 -26t-86 -72v-620q18 -32 71.5 -62.5t112.5 -30.5z" />
    <glyph glyph-name="c" unicode="c" horiz-adv-x="1040" 
d="M603 -29q-275 0 -404 142t-129 380q0 163 69.5 279.5t191.5 179t281 62.5q133 0 223.5 -41t134.5 -133q13 -26 17.5 -45.5t4.5 -38.5q0 -70 -43.5 -101t-77.5 -31t-60 16.5t-36 39.5l-97 227q-6 5 -22 12t-43 7q-101 0 -169.5 -99.5t-68.5 -336.5q0 -140 39.5 -227
t99 -127t119.5 -40q78 0 146 28.5t109 83.5q4 5 9 11.5t14 3.5l46 -21q11 -5 11 -13q0 -5 -6 -16q-49 -88 -145 -145t-214 -57z" />
    <glyph glyph-name="d" unicode="d" horiz-adv-x="1303" 
d="M538 -29q-162 0 -259.5 74t-140.5 193t-43 254t53.5 254t162.5 193.5t277 74.5q81 0 144.5 -14t124.5 -56l-10 161v227q0 52 -29.5 77t-75 34t-92.5 14q-11 5 -17.5 13t-6.5 27q0 12 6 28t18 16q85 6 173.5 8t160.5 2.5t108 0.5q8 0 19 -8.5t11 -32.5v-1336
q0 -64 37.5 -78.5t74.5 -18.5q21 -2 28.5 -8t7.5 -29q0 -11 -8.5 -26t-25.5 -15h-307q-59 0 -68 26.5t-8 78.5q-52 -66 -142.5 -100t-172.5 -34zM657 101q49 0 105.5 26t84.5 72v606q-17 42 -69.5 74.5t-110.5 32.5q-106 0 -165 -53.5t-83.5 -148.5t-24.5 -218
q0 -113 24 -201t81.5 -139t157.5 -51z" />
    <glyph glyph-name="e" unicode="e" horiz-adv-x="1116" 
d="M608 -29q-276 0 -407.5 140t-131.5 390q0 167 73 281.5t192.5 173t259.5 58.5q218 0 317.5 -92t126.5 -250q6 -36 8 -79.5t2 -85.5l-677 -1q0 -155 46 -244.5t114.5 -127.5t137.5 -38q86 0 149 26.5t106 85.5q4 5 9 11.5t15 3.5l46 -21q10 -5 10 -12q0 -6 -6 -17
q-49 -89 -145 -145.5t-245 -56.5zM374 597l375 2q0 174 -40.5 250.5t-117.5 76.5q-84 0 -144.5 -70t-72.5 -259z" />
    <glyph glyph-name="f" unicode="f" horiz-adv-x="763" 
d="M111 0q-17 0 -25.5 15t-8.5 26q0 33 33 37q37 3 72 15.5t35 41.5v758h-138q-12 1 -18 15t-6 26q0 35 24 45l138 15v102q0 128 47.5 234.5t139 171t223.5 64.5q109 0 163.5 -42.5t54.5 -99.5q0 -61 -36.5 -100t-78.5 -39q-2 0 -6.5 1t-4.5 2l-123 169q-22 0 -46 -20.5
t-40.5 -90.5t-16.5 -219v-133h218q12 -1 18 -11.5t6 -22.5q0 -19 -7 -40.5t-17 -26.5h-218v-725q0 -40 29.5 -58t69.5 -24t72 -8q21 -2 28.5 -8t7.5 -29q0 -11 -8 -26t-26 -15h-555z" />
    <glyph glyph-name="g" unicode="g" horiz-adv-x="1139" 
d="M538 -478q-126 0 -238 29.5t-182.5 91t-70.5 156.5q0 86 52 137t135 77q-82 35 -106.5 81.5t-24.5 100.5q0 72 56.5 126t127.5 75q-99 45 -141 125t-42 165q0 142 108.5 235t322.5 93q104 0 171 -23t117 -63q31 35 76 61.5t96 26.5q62 0 110 -38t48 -120q0 -125 -88 -125
l-118 172q-43 -3 -75 -29q59 -80 59 -188q0 -94 -43.5 -170t-135 -121t-236.5 -45q-102 0 -167 19q-57 -35 -57 -99q0 -45 44.5 -59.5t114.5 -14.5h262q158 0 255.5 -77t97.5 -236q0 -85 -58 -168.5t-175 -139t-295 -55.5zM520 442q59 0 92.5 35t47 91t13.5 121
q0 98 -32.5 166.5t-121.5 68.5q-59 0 -90.5 -33t-43.5 -88t-12 -120q0 -64 12 -119t44 -88.5t91 -33.5zM565 -380q72 0 136 22t103.5 65.5t39.5 107.5q0 62 -41.5 105.5t-138.5 43.5h-188q-35 0 -87.5 5.5t-75.5 15.5q-12 -24 -21.5 -55t-9.5 -87q0 -82 45.5 -131t111 -70.5
t126.5 -21.5z" />
    <glyph glyph-name="h" unicode="h" horiz-adv-x="1331" 
d="M75 0q-18 0 -26 15t-8 26q0 33 33 37q36 3 76 15.5t40 41.5v1197q0 62 -26 84.5t-61 26.5t-62 11q-11 5 -17.5 13.5t-6.5 26.5q0 12 6 28t18 17q129 8 232.5 10.5t159.5 2.5q8 0 17.5 -8.5t12.5 -32.5v-485l-7 -181q20 21 81.5 61.5t149 74t182.5 33.5q72 0 135 -20.5
t102 -78.5t39 -170v-577q0 -44 24 -61.5t56 -21t57 -7.5q17 -2 25 -8.5t8 -28.5q0 -11 -8.5 -26t-25.5 -15h-510q-18 0 -26 15t-8 26q0 16 5.5 25.5t25.5 11.5q31 2 68.5 17t37.5 40v609q0 20 -6 48.5t-31.5 50.5t-84.5 22q-57 0 -114 -20.5t-104 -49.5t-71 -55v-572
q0 -40 18.5 -58t45.5 -23.5t51 -8.5q21 -2 28.5 -8t7.5 -29q0 -11 -8.5 -26t-25.5 -15h-505z" />
    <glyph glyph-name="i" unicode="i" horiz-adv-x="686" 
d="M105 0q-17 0 -25.5 15t-8.5 26q0 34 33 37q37 3 76 15.5t39 41.5l1 643q0 62 -26 84.5t-61 26.5t-62 11q-10 5 -17 13t-7 27q0 12 6 27.5t18 16.5q130 8 235.5 10.5t160.5 2.5q8 0 18.5 -8t11.5 -32v-789q0 -40 20 -58t48.5 -23.5t53.5 -8.5q21 -2 28.5 -8t7.5 -29
q0 -11 -9 -26t-25 -15h-516zM353 1171q-71 0 -119.5 47.5t-48.5 122.5q0 74 48.5 122t119.5 48q70 0 119 -48t49 -122q0 -75 -49 -122.5t-119 -47.5z" />
    <glyph glyph-name="j" unicode="j" horiz-adv-x="675" 
d="M107 -449q-79 0 -133 28t-81.5 69.5t-27.5 80.5q0 56 38.5 93t82.5 37q27 0 43.5 -15t40.5 -59.5t74 -131.5q42 1 64.5 72t22.5 230l1 823q0 62 -28.5 84.5t-66 26.5t-64.5 11q-10 5 -17 13t-7 27q0 12 6 27.5t18 16.5q129 8 239.5 10.5t166.5 2.5q8 0 18.5 -8t11.5 -32
l-1 -891q0 -100 -16 -192.5t-58 -165t-121 -115t-206 -42.5zM341 1171q-71 0 -119.5 47.5t-48.5 122.5q0 74 48.5 122t119.5 48q70 0 119 -48t49 -122q0 -75 -49 -122.5t-119 -47.5z" />
    <glyph glyph-name="k" unicode="k" horiz-adv-x="1234" 
d="M77 0q-17 0 -25.5 15t-8.5 26q0 33 33 37q37 3 69.5 15.5t32.5 41.5v1197q0 62 -26 84.5t-61 26.5t-62 11q-10 5 -17 13.5t-7 26.5q0 12 6 28t18 17q129 8 232.5 10.5t159.5 2.5q8 0 19 -8.5t11 -32.5v-1031l370 362q11 9 11 17q0 20 -43.5 32.5t-82.5 14.5
q-20 2 -25.5 14.5t-5.5 28.5q0 11 8 28t26 17h441q18 0 26 -17t8 -28q0 -18 -8 -30.5t-25 -12.5q-48 0 -99 -22.5t-88 -51.5l-185 -178q57 -111 134.5 -241t146.5 -234q28 -42 63 -69.5t69 -31.5q16 -2 24.5 -8.5t8.5 -28.5q0 -11 -8.5 -26t-25.5 -15h-358q-20 16 -51.5 72
t-68 130.5t-71 147t-59.5 120.5l-132 -129v-173q0 -60 32.5 -73t69.5 -17q21 -2 28.5 -8t7.5 -29q0 -11 -8.5 -26t-25.5 -15h-478z" />
    <glyph glyph-name="l" unicode="l" horiz-adv-x="669" 
d="M79 0q-17 0 -26 14t-9 27q0 34 33 37q36 3 75.5 15.5t39.5 41.5l1 1196q0 63 -30 85.5t-69 26.5t-67 11q-11 5 -17.5 13.5t-6.5 26.5q0 12 6 28t18 17q127 8 238 10.5t167 2.5q8 0 18.5 -8.5t11.5 -32.5v-1343q0 -40 20.5 -58t49 -23.5t52.5 -8.5q21 -2 28.5 -8.5
t7.5 -27.5q0 -13 -9 -27.5t-26 -14.5h-506z" />
    <glyph glyph-name="m" unicode="m" horiz-adv-x="1996" 
d="M110 0q-17 0 -25.5 15t-8.5 26q0 33 33 37q37 3 73 15.5t36 41.5v643q0 62 -27 84.5t-62 26.5t-60 11q-11 5 -17.5 13t-6.5 27q0 12 6 28t18 17q125 6 228.5 8.5t156.5 3.5q9 0 18.5 -8t11.5 -32v-112q20 21 78 61.5t142 74t182 33.5q80 0 151.5 -31t101.5 -126
q29 24 88.5 61t142.5 66.5t184 29.5q72 0 131.5 -21.5t95.5 -82.5t36 -179v-563q0 -44 22 -61.5t52.5 -21.5t55.5 -7q17 -2 25 -8.5t8 -28.5q0 -11 -8.5 -26t-25.5 -15h-503q-18 0 -26 15t-8 26q0 16 5.5 25.5t25.5 11.5q31 2 65 17t34 40v602q0 22 -6 54t-31.5 56.5
t-84.5 24.5q-83 0 -150 -36t-112 -73q1 -10 1.5 -20t0.5 -19v-556q0 -44 18 -61.5t44.5 -21.5t51.5 -7q17 -2 25 -8.5t8 -28.5q0 -11 -8.5 -26t-25.5 -15h-486q-18 0 -26 15t-8 26q0 16 5.5 25.5t25.5 11.5q31 2 67.5 17t36.5 40v602q0 22 -7 54t-34.5 56.5t-86.5 24.5
q-96 0 -158 -43t-105 -82v-579q0 -60 34.5 -73.5t70.5 -16.5q21 -2 28.5 -8t7.5 -29q0 -11 -8.5 -26t-25.5 -15h-491z" />
    <glyph glyph-name="n" unicode="n" horiz-adv-x="1351" 
d="M104 0q-17 0 -25.5 15t-8.5 26q0 33 33 37q37 5 73 18t36 46v636q0 62 -26.5 84.5t-62 26.5t-60.5 11q-10 5 -17 13t-7 27q0 12 6 28t18 17q126 7 228.5 9.5t155.5 2.5q9 0 18.5 -8t11.5 -32v-112q19 21 78 61.5t142 74t174 33.5q79 0 146.5 -21.5t109 -82.5t41.5 -179
v-556q0 -48 22 -67t52.5 -22.5t55.5 -7.5q16 -2 24.5 -8.5t8.5 -28.5q0 -11 -8.5 -26t-25.5 -15h-504q-17 0 -25.5 15t-8.5 26q0 16 5.5 25.5t25.5 11.5q32 3 65.5 19.5t33.5 44.5v595q0 22 -5.5 54t-31 56.5t-85.5 24.5q-56 0 -111 -20.5t-99.5 -49.5t-69.5 -55v-572
q0 -64 35 -78.5t72 -18.5q21 -2 28.5 -8t7.5 -29q0 -11 -9 -26t-25 -15h-492z" />
    <glyph glyph-name="o" unicode="o" horiz-adv-x="1242" 
d="M76 492q0 164 68.5 281t192 179t290.5 62q251 0 394.5 -138t143.5 -384t-147 -383.5t-398 -137.5t-397.5 137.5t-146.5 383.5zM386 492q0 -201 49 -313.5t188 -112.5q138 0 185 112.5t47 313.5t-49 313.5t-187 112.5q-139 0 -186 -113t-47 -313z" />
    <glyph glyph-name="p" unicode="p" horiz-adv-x="1293" 
d="M60 -426q-16 0 -25 15t-9 26q0 23 7.5 29t28.5 8q25 3 53 9t48.5 25.5t20.5 62.5v1029q0 62 -27 84.5t-62 26.5t-60 11q-10 5 -17 13t-7 27q0 12 6 28t18 17q125 6 230 8.5t158 3.5q9 0 18.5 -8t11.5 -32v-76q52 66 141.5 99.5t171.5 33.5q162 0 259.5 -74t140.5 -193
t43 -254t-53.5 -254t-162.5 -193.5t-277 -74.5q-69 0 -137.5 10t-128.5 38l8 -88v-215q0 -22 28 -35t69.5 -19.5t80.5 -9.5q33 -4 33 -37q0 -11 -8 -26t-26 -15h-575zM637 73q106 0 165 53.5t83 148.5t24 218q0 112 -23.5 200.5t-81 139.5t-157.5 51q-48 0 -104.5 -25.5
t-84.5 -70.5v-626q18 -35 70.5 -62t108.5 -27z" />
    <glyph glyph-name="q" unicode="q" horiz-adv-x="1273" 
d="M673 -444q-17 0 -25.5 15t-8.5 26q0 33 33 37q37 3 79 9.5t71.5 19.5t29.5 35v293l6 116q-51 -67 -139 -101.5t-170 -34.5q-163 0 -262 74t-144 193t-45 254q0 134 53.5 253.5t163 194t277.5 74.5q123 0 199 -28.5t120 -70.5q39 13 73 41t54 43q11 8 22.5 13.5t27.5 5.5
q37 0 37 -31v-1256q0 -43 19.5 -62.5t48 -25.5t54.5 -9q21 -2 28.5 -8t7.5 -29q0 -11 -8.5 -26t-25.5 -15h-576zM660 100q49 0 106 26t86 72v608q-18 41 -71 73.5t-111 32.5q-105 0 -164.5 -54t-83.5 -149t-24 -217q0 -113 24 -201.5t81 -139.5t157 -51z" />
    <glyph glyph-name="r" unicode="r" horiz-adv-x="996" 
d="M107 0q-17 0 -25.5 15t-8.5 26q0 33 33 37q41 3 78.5 15.5t37.5 41.5v643q0 62 -26 85t-61 28t-62 12q-10 5 -17 13t-7 27q0 12 6.5 27.5t17.5 16.5q130 6 229.5 8.5t154.5 3.5q8 0 18 -8t12 -32v-185q29 57 77 112.5t112 91.5t139 36q93 0 127.5 -53t34.5 -117
q0 -47 -23.5 -84.5t-56.5 -59t-61 -21.5l-130 169q-43 0 -82.5 -30t-72 -77t-52.5 -97v-476q0 -40 28.5 -57.5t70 -23t79.5 -9.5q21 -2 28.5 -8t7.5 -29q0 -11 -8.5 -26t-25.5 -15h-572z" />
    <glyph glyph-name="s" unicode="s" horiz-adv-x="1000" 
d="M494 -29q-83 0 -142.5 20.5t-86.5 32.5q-24 9 -40 9q-23 0 -32 -8.5t-18.5 -17t-33.5 -8.5q-19 0 -33.5 8.5t-14.5 22.5q0 18 -1.5 57.5t-3.5 86t-3.5 87.5t-1.5 62q0 23 14.5 33t31.5 10q36 0 42 -22t16.5 -52.5t38.5 -87.5q26 -50 91.5 -99t164.5 -49q83 0 135 31
t52 92q0 74 -69.5 120t-216.5 102q-65 26 -127.5 66t-104 101t-41.5 149t55 155t145 104.5t196 37.5q95 0 151 -24.5t79 -24.5q22 0 25.5 11t9.5 22q12 21 44 21q19 0 34 -9.5t15 -25.5q0 -9 -1.5 -48.5t-1.5 -85.5q0 -35 3 -64t3 -50q0 -27 -14 -38t-32 -11q-33 0 -39 18
q-15 42 -42.5 94t-80 90.5t-143.5 38.5q-59 0 -106.5 -27t-47.5 -90q0 -69 59.5 -111.5t169.5 -83.5q89 -33 168.5 -76t129 -105.5t49.5 -154.5q0 -147 -115 -228t-329 -81z" />
    <glyph glyph-name="t" unicode="t" horiz-adv-x="781" 
d="M471 -30q-129 0 -212.5 53.5t-83.5 199.5v669h-110q-11 0 -17.5 14.5t-6.5 26.5q0 39 26 45q78 13 127 42t79 88t53 160q4 16 19 25t48 9q35 0 48 -8t13 -23v-277h244q12 -1 18 -11.5t6 -22.5q0 -29 -9.5 -48t-19.5 -19h-239v-586q0 -127 25.5 -167t73.5 -40
q45 0 88.5 13t80.5 34q13 8 23.5 -7t14 -34t-3.5 -24q-24 -25 -73 -51t-106.5 -43.5t-105.5 -17.5z" />
    <glyph glyph-name="u" unicode="u" horiz-adv-x="1323" 
d="M516 -27q-88 0 -161 22.5t-116.5 86.5t-43.5 188v549q0 43 -17.5 62.5t-44 26t-50.5 8.5q-21 2 -28.5 8.5t-7.5 28.5q0 11 8.5 26t25.5 15h354q37 0 37 -36v-627q0 -84 23.5 -146t93.5 -62q91 0 151.5 28.5t109.5 81.5v586q0 43 -23 62.5t-56.5 25.5t-65.5 9
q-21 2 -28.5 8.5t-7.5 28.5q0 11 8.5 26t25.5 15h386q37 0 37 -36v-740q0 -71 13.5 -90t29.5 -19q33 0 51 8q17 7 28 -18t11 -45q0 -13 -5 -17q-19 -14 -82.5 -38t-175.5 -24q-56 0 -84.5 27t-38.5 65.5t-11 74.5q-28 -41 -82.5 -80t-123.5 -64t-140 -25z" />
    <glyph glyph-name="v" unicode="v" horiz-adv-x="1117" 
d="M497 -9l-390 838q-27 51 -53 67t-62 20q-21 2 -28.5 8.5t-7.5 28.5q0 11 8.5 26t25.5 15h519q17 0 25.5 -15t8.5 -26q0 -33 -33 -37q-47 -6 -81 -13t-34 -32l267 -617l250 615q0 18 -21.5 27t-51 13t-52.5 7q-33 4 -33 37q0 11 8.5 26t25.5 15h356q16 0 25 -15t9 -26
q0 -22 -7.5 -28.5t-28.5 -8.5q-37 -4 -66.5 -19.5t-55.5 -67.5l-369 -838h-154z" />
    <glyph glyph-name="w" unicode="w" horiz-adv-x="1689" 
d="M436 -9l-321 838q-24 53 -54.5 68t-67.5 19q-21 2 -28.5 8.5t-7.5 28.5q0 11 8.5 26t25.5 15h516q17 0 25.5 -15t8.5 -26q0 -35 -33 -37q-45 -3 -76.5 -11t-31.5 -33l205 -575l209 686h186l256 -674l197 561q0 26 -41 34.5t-93 11.5q-33 2 -33 37q0 11 8.5 26t25.5 15
h359q17 0 25.5 -15t8.5 -26q0 -22 -7.5 -28.5t-28.5 -8.5q-37 -4 -66 -19t-52 -68l-309 -838h-157l-262 685l-223 -685h-172z" />
    <glyph glyph-name="x" unicode="x" horiz-adv-x="1152" 
d="M55 0q-17 0 -25.5 15t-8.5 26q0 37 33 37q51 0 87.5 30.5t62.5 58.5l233 310l-266 351q-37 45 -61 63t-62 24q-16 2 -24.5 8.5t-8.5 28.5q0 11 8.5 26.5t25.5 15.5h494q18 0 26 -15.5t8 -26.5q0 -16 -5 -25.5t-26 -11.5q-24 -3 -45 -5.5t-21 -18.5q0 -5 2.5 -13.5
t9.5 -18.5l163 -259l173 247q13 16 13 27q0 19 -27.5 28.5t-61.5 12.5q-20 1 -25.5 11t-5.5 26q0 11 8.5 26.5t25.5 15.5h337q17 0 25.5 -15.5t8.5 -26.5q0 -37 -33 -37q-51 0 -86 -27t-61 -60l-217 -309l272 -354q31 -39 48.5 -60.5t55.5 -26.5q16 -2 26 -8.5t10 -28.5
q0 -11 -8.5 -26t-25.5 -15h-476q-17 0 -25.5 15t-8.5 26q0 16 5.5 25.5t25.5 11.5q24 2 45.5 7t21.5 21q0 11 -12 26l-184 261l-177 -247q-10 -12 -10 -22q0 -23 37 -33.5t63 -12.5q19 -2 25 -11.5t6 -25.5q0 -11 -8.5 -26t-25.5 -15h-354z" />
    <glyph glyph-name="y" unicode="y" horiz-adv-x="1107" 
d="M265 -449q-47 0 -93 20.5t-76.5 55.5t-30.5 80q0 59 31 90.5t73 31.5l116 -125q70 2 120.5 63.5t116.5 196.5l-389 865q-27 52 -56.5 67.5t-65.5 19.5q-21 2 -28.5 8.5t-7.5 28.5q0 11 8 26t25 15h520q17 0 25.5 -15t8.5 -26q0 -33 -33 -37q-34 -4 -71 -12t-37 -34
l235 -613l211 612q0 27 -39.5 35t-74.5 12q-33 4 -33 37q0 11 8.5 26t25.5 15h349q17 0 25.5 -15t8.5 -26q0 -22 -7.5 -28.5t-28.5 -8.5q-36 -4 -61.5 -19.5t-50.5 -67.5l-286 -723q-42 -104 -84.5 -202.5t-92.5 -178.5t-113.5 -127t-147.5 -47z" />
    <glyph glyph-name="z" unicode="z" horiz-adv-x="1025" 
d="M81 0q-18 0 -31.5 16.5t-13.5 37.5q0 22 14 46.5t39 60.5l489 672l68 77h-285q-41 0 -73.5 -32t-56.5 -77t-38 -86t-16 -59q-2 -20 -25.5 -26.5t-39.5 -6.5q-11 0 -21.5 8t-9.5 26l20 295q1 18 16.5 29.5t30.5 12.5h771q25 0 35.5 -15t10.5 -34q0 -18 -12 -42.5
t-28 -47.5l-478 -665l-89 -106l318 6q38 1 71 32t57.5 75t39.5 84.5t17 58.5q2 20 20 26.5t45 6.5q12 0 24 -8.5t11 -25.5l-20 -298q-1 -19 -16.5 -29.5t-30.5 -11.5h-813z" />
    <glyph glyph-name="braceleft" unicode="{" horiz-adv-x="980" 
d="M716 -328q-63 0 -131 15.5t-127 50.5t-95.5 92.5t-36.5 140.5v387q0 55 -33 99t-83 69.5t-103 25.5h-35v104h35q53 0 103 25.5t83 70t33 98.5v387q0 83 36.5 140.5t95.5 92.5t127 50.5t131 15.5h161v-101h-113q-55 0 -87 -26.5t-45.5 -65.5t-13.5 -77v-383
q0 -80 -49.5 -138.5t-128.5 -91.5t-168 -38v-23q88 -5 167.5 -38t129 -91t49.5 -138v-383q0 -38 14 -77t46 -65.5t86 -26.5h113v-101h-161z" />
    <glyph glyph-name="bar" unicode="|" horiz-adv-x="786" 
d="M318 -367v1902h152v-1902h-152z" />
    <glyph glyph-name="braceright" unicode="}" horiz-adv-x="980" 
d="M265 -328h-161v101h113q54 0 86 26.5t46 65.5t14 77v383q0 80 49.5 138t128.5 91t168 38v23q-89 5 -168 38t-128.5 91.5t-49.5 138.5v383q0 38 -14 77t-45.5 65.5t-86.5 26.5h-113v101h161q63 0 131 -15.5t126.5 -50.5t95 -92.5t36.5 -140.5v-387q0 -54 33 -98.5
t83.5 -70t102.5 -25.5h35v-104h-35q-52 0 -102.5 -25.5t-83.5 -69.5t-33 -99v-387q0 -83 -36.5 -140.5t-95 -92.5t-126.5 -50.5t-131 -15.5z" />
    <glyph glyph-name="asciitilde" unicode="~" horiz-adv-x="1403" 
d="M898 425q-85 0 -147 35t-131 71q-38 21 -70.5 29.5t-59.5 8.5q-60 0 -97 -28t-61 -59t-44 -40q-4 -1 -11 -1q-15 0 -27 14t-12 31q0 12 6 22q24 40 46.5 75t52.5 68q76 83 171 83q82 0 141.5 -35.5t126.5 -70.5q39 -21 71 -30t59 -9q60 0 97.5 28.5t61 59.5t43.5 40
q4 1 11 1q16 0 27.5 -14t11.5 -32q0 -8 -6 -22q-16 -37 -37.5 -65t-51.5 -66q-30 -39 -77 -66.5t-94 -27.5z" />
    <glyph glyph-name="DEL" horiz-adv-x="712" 
 />
    <glyph glyph-name="uni00A0" unicode="&#xa0;" horiz-adv-x="512" 
 />
    <glyph glyph-name="exclamdown" unicode="&#xa1;" horiz-adv-x="743" 
d="M348 1448q75 0 127 -54.5t52 -125.5t-52 -120.5t-127 -49.5t-126 49.5t-51 120.5t51 125.5t126 54.5zM297 919h102q11 -210 34.5 -345.5t49 -220.5t43.5 -141t18 -107q0 -87 -57 -147t-138 -60q-83 0 -139 60t-56 147q0 51 15.5 107t38.5 141t47.5 220.5t41.5 345.5z" />
    <glyph glyph-name="cent" unicode="&#xa2;" horiz-adv-x="1209" 
d="M600 -228v203q-243 20 -355 160t-112 365q0 150 62.5 258t168.5 171t237 79v217h113v-212q122 -3 202.5 -41t117.5 -129q22 -48 22 -89q0 -66 -41.5 -96t-73.5 -30q-33 0 -58 16t-35 38l-107 225l-10 9.5t-64 9.5q-63 0 -115 -40t-82.5 -135t-30.5 -261q0 -140 42 -227
t104 -127t122 -40q168 0 255 112q4 5 9 11.5t14 3.5l46 -21q11 -5 11 -12q0 -6 -6 -17q-43 -83 -134.5 -137.5t-188.5 -62.5v-201h-113z" />
    <glyph glyph-name="sterling" unicode="&#xa3;" horiz-adv-x="1371" 
d="M815 -16q-126 0 -212 30t-144.5 62t-102.5 38h-12q-18 -15 -39 -42.5t-55 -49.5t-91 -22q-37 0 -71 21t-34 70q0 43 34 75t84 52t99 25q15 19 22 89.5t7 154.5v200h-157q-12 0 -18 18t-6 30q0 42 24 53h157v83q0 169 47.5 299t162 204t315.5 74q103 0 174.5 -28.5
t116 -70.5t65 -83.5t20.5 -66.5q0 -68 -44.5 -110t-92.5 -42q-59 0 -92 55l-151 255h-30q-98 0 -152.5 -100t-54.5 -351v-118h307q12 -1 18 -11.5t6 -22.5q0 -19 -7 -41t-17 -26h-306v-84q0 -148 -31.5 -249.5t-85.5 -157.5q62 -24 106 -45.5t90.5 -35t116.5 -14.5
q119 -2 186 35.5t87 95.5l-72 186q1 15 38.5 49t97.5 34q72 0 120.5 -52t48.5 -129q0 -106 -61.5 -181.5t-168.5 -115t-242 -39.5z" />
    <glyph glyph-name="currency" unicode="&#xa4;" horiz-adv-x="1358" 
d="M290 97l-125 116l161 164q-61 89 -61 198q0 108 61 197l-161 164l125 117l163 -166q91 52 200 52q54 0 103.5 -13.5t91.5 -36.5l162 164l125 -117l-160 -163q60 -90 60 -198q0 -55 -16.5 -105t-44.5 -93l161 -164l-125 -116l-162 165q-44 -24 -94.5 -37.5t-104.5 -13.5
q-108 0 -197 50zM651 364q76 0 133.5 52.5t57.5 158.5q0 107 -59 159t-135 52q-78 0 -134.5 -52t-56.5 -159q0 -106 58 -158.5t136 -52.5z" />
    <glyph glyph-name="yen" unicode="&#xa5;" horiz-adv-x="1427" 
d="M417 0q-17 0 -25.5 17t-8.5 28q0 32 40 37q34 2 75.5 4.5t71.5 16.5t30 49v155h-392q-12 1 -18 21.5t-6 32.5q0 43 24 53h392v214h-391q-12 1 -18 21.5t-6 32.5q0 43 24 53h344l-398 519q-34 62 -76.5 74t-78.5 16q-22 2 -29.5 8.5t-7.5 28.5q0 11 9 24.5t26 13.5h627
q17 0 25.5 -13.5t8.5 -24.5q0 -33 -33 -37q-69 -3 -111.5 -10.5t-42.5 -30.5q0 -6 5 -16l321 -498l364 498q5 9 5 16q0 22 -44 30t-103 11q-33 4 -33 37q0 11 8 24.5t26 13.5h409q16 0 25 -13.5t9 -24.5q0 -22 -7.5 -28.5t-28.5 -8.5q-38 -4 -78.5 -16t-72.5 -74l-395 -519
h381q12 0 18 -11t6 -23q0 -18 -7 -43t-17 -30h-398v-214h397q12 -1 18 -11.5t6 -22.5q0 -19 -6.5 -44t-17.5 -29h-397v-142q0 -43 33 -59t77 -19t77 -5q21 -2 32 -8.5t11 -28.5q0 -11 -8.5 -28t-25.5 -17h-644z" />
    <glyph glyph-name="brokenbar" unicode="&#xa6;" horiz-adv-x="786" 
d="M318 765v770h152v-770h-152zM318 -369v770h152v-770h-152z" />
    <glyph glyph-name="section" unicode="&#xa7;" horiz-adv-x="1114" 
d="M533 -442q-150 0 -235 68.5t-85 155.5q0 55 38.5 88t100.5 33l181 -257q73 2 112.5 51t39.5 117q0 64 -31 110.5t-86 90.5t-128 98.5t-157 134.5q-80 74 -117 152t-37 165q0 96 55 178t135 129q-54 59 -84.5 120.5t-30.5 137.5q0 91 48 162.5t134 112.5t201 41
q99 0 172 -32t112.5 -83t39.5 -109q0 -37 -25 -62.5t-58.5 -39t-59.5 -13.5l-177 251q-74 -2 -118 -51t-44 -118q0 -63 31 -109t86.5 -89.5t128.5 -98.5t157 -136q154 -148 154 -318q0 -96 -55.5 -178t-136.5 -129q55 -58 85.5 -120t30.5 -138q0 -90 -47 -161.5t-132 -112.5
t-198 -41zM716 206q17 35 29.5 76.5t12.5 72.5q0 80 -40.5 141.5t-82.5 97.5q-59 51 -122 104.5t-113 99.5q-17 -36 -29.5 -77.5t-12.5 -71.5q0 -81 40 -142t81 -98q59 -51 122.5 -104.5t114.5 -98.5z" />
    <glyph glyph-name="dieresis" unicode="&#xa8;" horiz-adv-x="1024" 
d="M362 1242q-48 18 -68 63.5t-3 92.5t53.5 69t85.5 5q47 -18 68 -63q18 42 53 60.5t81 2.5q48 -18 68 -63t4 -93q-17 -47 -54.5 -69.5t-85.5 -4.5q-47 17 -67 62q-19 -41 -54.5 -59.5t-80.5 -2.5z" />
    <glyph glyph-name="copyright" unicode="&#xa9;" horiz-adv-x="1929" 
d="M964 -281q-185 0 -347 69.5t-285 192.5t-192.5 285t-69.5 347t69.5 347.5t192.5 285.5t285 192.5t347 69.5t347.5 -69.5t285.5 -192.5t192.5 -285.5t69.5 -347.5t-69.5 -347t-192.5 -285t-285.5 -192.5t-347.5 -69.5zM964 -201q167 0 312.5 64t256.5 176.5t173.5 260
t62.5 313.5q0 167 -62.5 314t-173.5 260t-256.5 177t-312.5 64q-166 0 -312 -64t-256.5 -177t-173 -260t-62.5 -314q0 -166 62.5 -313.5t173 -260t256.5 -176.5t312 -64zM1003 122q-463 0 -463 500q0 167 62.5 274t169.5 158t240 51q38 0 91 -9.5t105.5 -36.5t86.5 -80
q27 -41 38 -75t11 -60q0 -39 -19 -60t-44 -21q-52 0 -74 29.5t-37 62.5q-16 33 -23 66t-26 55l-25.5 18.5t-68.5 18.5q-81 0 -150 -32.5t-111.5 -119t-42.5 -249.5q0 -121 26.5 -198.5t69 -121.5t90.5 -61.5t90 -17.5q55 0 109.5 15.5t97 58.5t59.5 127q1 6 3 13.5t11 7.5
l72 1q13 0 14.5 -8.5t1.5 -15.5q-4 -104 -57 -168t-135 -93t-172 -29z" />
    <glyph glyph-name="ordfeminine" unicode="&#xaa;" horiz-adv-x="1098" 
d="M407 613q-62 0 -121.5 26t-98 77t-38.5 127q0 79 46.5 133t121.5 87t163 47.5t172 14.5v123q0 66 -37 90.5t-113 24.5q-26 0 -46.5 -7t-30.5 -15l-136 -172q-42 0 -74.5 28t-32.5 65q0 50 37 85t93.5 57.5t117.5 33t108 10.5q163 0 254 -55.5t91 -189.5v-388
q0 -39 10.5 -65.5t34.5 -26.5q25 0 52 8q14 7 22 -8t8 -37q0 -18 -4 -21q-14 -9 -76 -30.5t-160 -21.5q-63 0 -83.5 34.5t-21.5 92.5q-48 -56 -115.5 -91.5t-142.5 -35.5zM510 737q53 0 87 21t54 41v257q-122 0 -193 -49t-71 -139q0 -51 31 -91t92 -40z" />
    <glyph glyph-name="guillemotleft" unicode="&#xab;" horiz-adv-x="1232" 
d="M256 661v39l268 193l75 -219l-164 -267l25 -93v-78zM749 661v39l276 193l81 -219l-177 -267l33 -93v-78z" />
    <glyph glyph-name="logicalnot" unicode="&#xac;" horiz-adv-x="1403" 
d="M1029 125v374h-808v140h961v-514h-153z" />
    <glyph glyph-name="uni00AD" unicode="&#xad;" 
 />
    <glyph glyph-name="registered" unicode="&#xae;" horiz-adv-x="1929" 
d="M964 -281q-185 0 -347 69.5t-285 192.5t-192.5 285t-69.5 347t69.5 347.5t192.5 285.5t285 192.5t347 69.5t347.5 -69.5t285.5 -192.5t192.5 -285.5t69.5 -347.5t-69.5 -347t-192.5 -285t-285.5 -192.5t-347.5 -69.5zM964 -201q167 0 312.5 64t256.5 176.5t173.5 260
t62.5 313.5q0 167 -62.5 314t-173.5 260t-256.5 177t-312.5 64q-166 0 -312 -64t-256.5 -177t-173 -260t-62.5 -314q0 -166 62.5 -313.5t173 -260t256.5 -176.5t312 -64zM585 136q-11 0 -16.5 12t-5.5 19q0 10 4 21.5t17 12.5q32 2 60.5 11t28.5 31v738q0 42 -31.5 51.5
t-61.5 11.5q-13 2 -18 6t-5 19q0 20 22 20h407q93 0 168 -22.5t119.5 -75t44.5 -144.5q0 -103 -71 -156.5t-176 -82.5q68 -6 106.5 -40.5t62 -85t42.5 -105t48 -99.5q22 -43 46.5 -58.5t49.5 -18.5q33 -4 33 -34q0 -7 -5.5 -19t-16.5 -12h-143q-54 0 -87 31t-52.5 80.5
t-34.5 104.5t-33 104.5t-46.5 80.5t-77.5 31h-134v-304q0 -42 38.5 -51.5t73.5 -11.5q24 -3 24 -34q0 -7 -5.5 -19t-16.5 -12h-358zM829 645h102q54 0 107 12t88 51t35 119t-30 119.5t-81 52.5t-114 13h-107v-367z" />
    <glyph glyph-name="macron" unicode="&#xaf;" horiz-adv-x="1403" 
d="M-5 1270v148h587v-148h-587z" />
    <glyph glyph-name="degree" unicode="&#xb0;" horiz-adv-x="860" 
d="M326 872q-108 46 -145.5 141.5t9.5 202.5q46 107 142 144.5t204 -8.5q107 -46 144 -140.5t-9 -201.5t-142 -145.5t-203 7.5zM370 961q59 -35 111.5 -14.5t79.5 96.5t6.5 130.5t-78.5 89.5q-59 35 -111 15t-79 -96q-28 -76 -8 -131t79 -90z" />
    <glyph glyph-name="plusminus" unicode="&#xb1;" horiz-adv-x="1403" 
d="M250 0v140h372v359h-399v140h399v414h160v-414h398v-140h-398v-359h371v-140h-903z" />
    <glyph glyph-name="uni00B2" unicode="&#xb2;" horiz-adv-x="1098" 
d="M133 754v41q1 26 18 40q122 80 233 183t182 217.5t71 228.5q0 51 -10.5 99t-38.5 79.5t-81 31.5q-73 0 -100 -29t-37 -52l-53 -127q-10 -23 -26 -44t-47 -21q-42 0 -80 23.5t-38 73.5q0 34 24 77q32 61 130.5 112.5t236.5 51.5q383 0 383 -273q0 -83 -49 -166
t-126.5 -157t-163.5 -131t-161 -89h544l-7 -169h-804z" />
    <glyph glyph-name="uni00B3" unicode="&#xb3;" horiz-adv-x="1098" 
d="M474 736q-92 0 -170.5 26.5t-126.5 74.5t-48 113q0 70 42.5 104.5t74.5 34.5q48 0 69 -15t27 -28q-7 -28 -10 -40.5t-10 -39.5t-26 -100q3 -1 20.5 -17t54 -32t96.5 -16q103 0 153.5 57t50.5 157q0 95 -26 139t-72.5 56.5t-107.5 12.5h-68q-10 0 -14 5t-4 33q0 27 4.5 33
t13.5 6h52q41 0 88 14.5t80.5 58t33.5 130.5q0 34 -13 74t-47 68t-96 28q-32 0 -62 -13.5t-52 -61.5q-12 -32 -20 -62t-17 -54q-12 -30 -32.5 -42.5t-45.5 -12.5q-36 0 -67.5 26.5t-33.5 58.5q-2 13 -1 23q2 61 55 107t135.5 71.5t174.5 25.5q173 0 270.5 -57t97.5 -168
q0 -106 -72.5 -170t-180.5 -79q141 -1 223.5 -57.5t82.5 -171.5q0 -128 -119.5 -214t-356.5 -86z" />
    <glyph glyph-name="acute" unicode="&#xb4;" horiz-adv-x="1024" 
d="M296 1089l-56 58q118 142 187 245.5t92 126.5q16 15 41 25.5t52 10.5q48 0 78 -33q31 -33 31 -79q0 -52 -34 -85q-24 -23 -131 -85.5t-260 -183.5z" />
    <glyph glyph-name="uni00B5" unicode="&#xb5;" horiz-adv-x="1315" 
d="M1102 992v-784q0 -62 26 -85t61 -28t62 -12q11 -4 17.5 -12.5t6.5 -27.5q0 -12 -6 -22.5t-18 -11.5q-125 -8 -229 -8.5t-159 -0.5q-8 0 -18 7.5t-12 31.5v92q-14 -32 -43 -69t-79.5 -63t-129.5 -26q-65 0 -124.5 31.5t-97.5 117.5q8 -95 15 -184.5t11.5 -155.5t4.5 -89
q0 -58 -36.5 -98.5t-91.5 -40.5q-56 0 -92.5 40.5t-36.5 98.5q0 34 7.5 136t15 242t7.5 287v634h271v-691q0 -24 17 -68.5t59 -80.5t117 -36q56 0 115.5 46t90.5 98v732h269z" />
    <glyph glyph-name="paragraph" unicode="&#xb6;" horiz-adv-x="1094" 
d="M192 -287q-17 0 -25.5 20t-8.5 31q0 23 7.5 29t28.5 8q35 3 73.5 9t65.5 25.5t27 62.5v687q-144 45 -230.5 153.5t-86.5 261.5q0 156 64.5 248t168.5 132.5t223 40.5l519 -2q17 0 25.5 -20t8.5 -31q0 -22 -7.5 -28.5t-28.5 -8.5q-46 -3 -84 -17.5t-38 -79.5v-1369
q0 -33 46.5 -46.5t92.5 -17.5q33 -4 33 -37q0 -11 -8.5 -31t-25.5 -20h-310v1589h-180v-1589h-350z" />
    <glyph glyph-name="periodcentered" unicode="&#xb7;" horiz-adv-x="655" 
d="M150 735q0 70 51 120t126 50t127 -50t52 -120q0 -72 -52 -126t-127 -54t-126 54t-51 126z" />
    <glyph glyph-name="cedilla" unicode="&#xb8;" horiz-adv-x="508" 
d="M226 -495q-78 0 -134.5 20.5t-80.5 36.5q-12 8 -6 21q5 11 15.5 31.5t16.5 33.5q7 13 20 8q25 -10 58 -20t75 -10q56 0 89.5 25.5t33.5 66.5q0 36 -42 65t-129 28l33 207h138l-34 -124q109 -8 168 -58.5t59 -124.5q0 -86 -72 -146t-208 -60z" />
    <glyph glyph-name="uni00B9" unicode="&#xb9;" horiz-adv-x="1098" 
d="M210 754q-13 0 -19.5 15t-5.5 23q0 12 5 23.5t19 12.5q20 2 56.5 5t75.5 9t66 16.5t27 28.5l3 678q-40 -31 -112.5 -63.5t-144.5 -32.5q-14 0 -31 32.5t-16 56.5q0 16 6.5 29t25.5 14q20 1 65.5 7t100.5 20t106 37t82 57h171l-3 -828q0 -21 24.5 -34t59 -20t67.5 -9.5
t50 -2.5q29 0 26 -40q0 -13 -6.5 -23.5t-18.5 -10.5h-679z" />
    <glyph glyph-name="ordmasculine" unicode="&#xba;" horiz-adv-x="1098" 
d="M548 612q-140 0 -239.5 56.5t-152.5 152t-53 210.5q0 116 54.5 211t155 151.5t240.5 56.5t238.5 -56.5t150.5 -151.5t52 -211q0 -115 -53 -210.5t-153 -152t-240 -56.5zM549 698q104 0 148 87.5t44 245.5t-45.5 245t-148.5 87q-105 0 -148.5 -87t-43.5 -245t45 -245.5
t149 -87.5z" />
    <glyph glyph-name="guillemotright" unicode="&#xbb;" horiz-adv-x="1232" 
d="M995 366l-342 -252l74 218l89 327l-163 267l138 -14l342 -334zM502 661l-213 -425v78l33 93l-177 267l81 219l276 -193v-39z" />
    <glyph glyph-name="onequarter" unicode="&#xbc;" horiz-adv-x="2181" 
d="M169 511q-13 0 -19.5 15t-5.5 23q0 12 5 23.5t19 12.5q20 2 56.5 5t75.5 9t66 16.5t27 28.5l3 678q-40 -31 -112.5 -63.5t-144.5 -32.5q-14 0 -31 32.5t-16 56.5q0 16 6.5 29t25.5 14q20 1 65.5 7t100.5 20t106 37t82 57h171l-3 -828q0 -21 24.5 -34t59 -20t67.5 -9.5
t50 -2.5q29 0 26 -40q0 -13 -6.5 -23.5t-18.5 -10.5h-679zM724 0l702 1419h144l-704 -1419h-142zM1757 0v190h-533q-7 0 -11.5 18.5t-4.5 32.5t8 31l325 687q14 20 31 26.5t36 6.5q43 0 85 -22.5t69.5 -52t27.5 -50.5l-386 -571h353v272l224 25v-297h192l-9 -106h-183v-190
h-224z" />
    <glyph glyph-name="onehalf" unicode="&#xbd;" horiz-adv-x="2181" 
d="M143 511q-13 0 -19.5 15t-5.5 23q0 12 5 23.5t19 12.5q20 2 56.5 5t75.5 9t66 16.5t27 28.5l3 678q-40 -31 -112.5 -63.5t-144.5 -32.5q-14 0 -31 32.5t-16 56.5q0 16 6.5 29t25.5 14q20 1 65.5 7t100.5 20t106 37t82 57h171l-3 -828q0 -21 24.5 -34t59 -20t67.5 -9.5
t50 -2.5q29 0 26 -40q0 -13 -6.5 -23.5t-18.5 -10.5h-679zM675 0l702 1419h144l-704 -1419h-142zM1284 0v41q1 26 18 40q122 80 233 183t182 217.5t71 228.5q0 51 -10.5 99t-38.5 79.5t-81 31.5q-73 0 -100 -29t-37 -52l-53 -127q-10 -23 -26 -44t-47 -21q-42 0 -80 23.5
t-38 73.5q0 34 24 77q32 61 130.5 112.5t236.5 51.5q383 0 383 -273q0 -83 -49 -166t-126.5 -157t-163.5 -131t-161 -89h544l-7 -169h-804z" />
    <glyph glyph-name="threequarters" unicode="&#xbe;" horiz-adv-x="2181" 
d="M444 493q-92 0 -170.5 26.5t-126.5 74.5t-48 113q0 70 42.5 104.5t74.5 34.5q48 0 69 -15t27 -28q-7 -28 -10 -40.5t-10 -39.5t-26 -100q3 -1 20.5 -17t54 -32t96.5 -16q103 0 153.5 57t50.5 157q0 95 -26 139t-72.5 56.5t-107.5 12.5h-68q-10 0 -14 5t-4 33q0 27 4.5 33
t13.5 6h52q41 0 88 14.5t80.5 58t33.5 130.5q0 34 -13 74t-47 68t-96 28q-32 0 -62 -13.5t-52 -61.5q-12 -32 -20 -62t-17 -54q-12 -30 -32.5 -42.5t-45.5 -12.5q-36 0 -67.5 26.5t-33.5 58.5q-2 13 -1 23q2 61 55 107t135.5 71.5t174.5 25.5q173 0 270.5 -57t97.5 -168
q0 -106 -72.5 -170t-180.5 -79q141 -1 223.5 -57.5t82.5 -171.5q0 -128 -119.5 -214t-356.5 -86zM713 0l702 1419h144l-704 -1419h-142zM1779 0v190h-533q-7 0 -11.5 18.5t-4.5 32.5t8 31l325 687q14 20 31 26.5t36 6.5q43 0 85 -22.5t69.5 -52t27.5 -50.5l-386 -571h353
v272l224 25v-297h192l-9 -106h-183v-190h-224z" />
    <glyph glyph-name="questiondown" unicode="&#xbf;" horiz-adv-x="1079" 
d="M578 1504q75 0 126 -54t51 -125t-51 -121t-126 -50t-127 50t-52 121t52 125t127 54zM650 1037v-79q0 -94 -29.5 -156.5t-72.5 -108t-86 -90.5t-72.5 -104.5t-29.5 -149.5q0 -46 8 -99.5t30 -101t64.5 -77.5t112.5 -30q64 0 105 20.5t61.5 41l20.5 20.5l26 265
q8 23 32.5 30.5t70.5 7.5q31 0 70.5 -35.5t39.5 -105.5q0 -40 -17 -85q-22 -59 -82.5 -115t-150 -92.5t-199.5 -36.5q-158 0 -261 51.5t-153 136.5t-50 186q0 94 42 162.5t103.5 123t123.5 107t103.5 112t42.5 139.5v63h147z" />
    <glyph glyph-name="Agrave" unicode="&#xc0;" horiz-adv-x="1498" 
d="M18 0q-16 0 -25 15.5t-9 35.5q0 23 7.5 29t28.5 8q25 3 54.5 3.5t56 15.5t42.5 58l473 1276h212l466 -1276q16 -45 44 -59.5t58.5 -14.5t55.5 -3q21 -2 28.5 -8t7.5 -29q0 -11 -9 -31t-25 -20h-585q-18 0 -26 20t-8 31q0 33 33 37q59 3 94.5 4.5t35.5 24.5q0 6 -3 15
l-124 350l-479 1l-124 -351q-3 -7 -3 -13q0 -24 43 -26t104 -5q33 -4 33 -37q0 -11 -8.5 -31t-25.5 -20h-423zM679 1189l-229 -621h422zM923 1540q-153 122 -259.5 184.5t-130.5 84.5q-35 31 -35 85q0 20 7 40.5t24 38.5q31 33 78 33q28 0 53 -10.5t41 -25.5
q23 -23 92 -126.5t186 -245.5z" />
    <glyph glyph-name="Aacute" unicode="&#xc1;" horiz-adv-x="1498" 
d="M18 0q-16 0 -25 15.5t-9 35.5q0 23 7.5 29t28.5 8q25 3 54.5 3.5t56 15.5t42.5 58l473 1276h212l466 -1276q16 -45 44 -59.5t58.5 -14.5t55.5 -3q21 -2 28.5 -8t7.5 -29q0 -11 -9 -31t-25 -20h-585q-18 0 -26 20t-8 31q0 33 33 37q59 3 94.5 4.5t35.5 24.5q0 6 -3 15
l-124 350l-479 1l-124 -351q-3 -7 -3 -13q0 -24 43 -26t104 -5q33 -4 33 -37q0 -11 -8.5 -31t-25.5 -20h-423zM679 1189l-229 -621h422zM594 1540l-56 58q118 142 187 245.5t92 126.5q16 15 41 25.5t52 10.5q47 0 79 -33q30 -33 30 -79q0 -52 -34 -85q-23 -23 -130.5 -85
t-260.5 -184z" />
    <glyph glyph-name="Acircumflex" unicode="&#xc2;" horiz-adv-x="1498" 
d="M18 0q-16 0 -25 15.5t-9 35.5q0 23 7.5 29t28.5 8q25 3 54.5 3.5t56 15.5t42.5 58l473 1276h212l466 -1276q16 -45 44 -59.5t58.5 -14.5t55.5 -3q21 -2 28.5 -8t7.5 -29q0 -11 -9 -31t-25 -20h-585q-18 0 -26 20t-8 31q0 33 33 37q59 3 94.5 4.5t35.5 24.5q0 6 -3 15
l-124 350l-479 1l-124 -351q-3 -7 -3 -13q0 -24 43 -26t104 -5q33 -4 33 -37q0 -11 -8.5 -31t-25.5 -20h-423zM679 1189l-229 -621h422zM377 1559l247 348q15 21 41.5 36t72.5 15q47 0 73.5 -18t43.5 -42l244 -339h-134l-227 207l-222 -207h-139z" />
    <glyph glyph-name="Atilde" unicode="&#xc3;" horiz-adv-x="1498" 
d="M18 0q-16 0 -25 15.5t-9 35.5q0 23 7.5 29t28.5 8q25 3 54.5 3.5t56 15.5t42.5 58l473 1276h212l466 -1276q16 -45 44 -59.5t58.5 -14.5t55.5 -3q21 -2 28.5 -8t7.5 -29q0 -11 -9 -31t-25 -20h-585q-18 0 -26 20t-8 31q0 33 33 37q59 3 94.5 4.5t35.5 24.5q0 6 -3 15
l-124 350l-479 1l-124 -351q-3 -7 -3 -13q0 -24 43 -26t104 -5q33 -4 33 -37q0 -11 -8.5 -31t-25.5 -20h-423zM679 1189l-229 -621h422zM880 1557q-47 0 -88.5 20.5t-80 46.5t-76 46.5t-76.5 20.5q-46 0 -69.5 -23.5t-38.5 -46.5t-35 -23q-18 0 -35.5 21.5t-17.5 46.5
q0 34 30.5 81t83 82.5t120.5 35.5q46 0 85.5 -20.5t76 -47t74 -46.5t79.5 -20q47 0 71.5 23t40 46.5t35.5 23.5q18 0 36 -22t18 -46q0 -35 -31.5 -82t-84 -82t-117.5 -35z" />
    <glyph glyph-name="Adieresis" unicode="&#xc4;" horiz-adv-x="1498" 
d="M18 0q-16 0 -25 15.5t-9 35.5q0 23 7.5 29t28.5 8q25 3 54.5 3.5t56 15.5t42.5 58l473 1276h212l466 -1276q16 -45 44 -59.5t58.5 -14.5t55.5 -3q21 -2 28.5 -8t7.5 -29q0 -11 -9 -31t-25 -20h-585q-18 0 -26 20t-8 31q0 33 33 37q59 3 94.5 4.5t35.5 24.5q0 6 -3 15
l-124 350l-479 1l-124 -351q-3 -7 -3 -13q0 -24 43 -26t104 -5q33 -4 33 -37q0 -11 -8.5 -31t-25.5 -20h-423zM679 1189l-229 -621h422zM968 1605q-71 0 -111 49t-40 119q0 71 40 120t111 49q70 0 110.5 -49t40.5 -120q0 -70 -40.5 -119t-110.5 -49zM507 1605q-70 0 -110 49
t-40 119q0 71 40 120t110 49t111 -49t41 -120q0 -70 -41 -119t-111 -49z" />
    <glyph glyph-name="Aring" unicode="&#xc5;" horiz-adv-x="1498" 
d="M18 0q-16 0 -25 15.5t-9 35.5q0 23 7.5 29t28.5 8q25 3 54.5 3.5t56 15.5t42.5 58l473 1276h212l466 -1276q16 -45 44 -59.5t58.5 -14.5t55.5 -3q21 -2 28.5 -8t7.5 -29q0 -11 -9 -31t-25 -20h-585q-18 0 -26 20t-8 31q0 33 33 37q59 3 94.5 4.5t35.5 24.5q0 6 -3 15
l-124 350l-479 1l-124 -351q-3 -7 -3 -13q0 -24 43 -26t104 -5q33 -4 33 -37q0 -11 -8.5 -31t-25.5 -20h-423zM679 1189l-229 -621h422zM738 1404q-84 0 -152 33.5t-108.5 95.5t-40.5 147q0 127 88 201t213 74q83 0 151.5 -35t109 -97.5t40.5 -145.5q0 -85 -40.5 -146
t-109 -94t-151.5 -33zM738 1537q80 0 114 43t34 101t-34 100t-114 42t-113.5 -43t-33.5 -101t33.5 -100t113.5 -42z" />
    <glyph glyph-name="AE" unicode="&#xc6;" horiz-adv-x="2129" 
d="M-43 0q-16 0 -25 20t-9 31q0 22 7.5 28.5t28.5 8.5q25 3 58.5 4.5t66 16.5t54.5 56l603 1147q-69 6 -134 11l-104 8q-36 3 -36 47q0 13 9 27t25 14h1423l35 -337q0 -17 -15 -25.5t-26 -8.5q-16 0 -32 7t-24 26q-14 27 -31 67t-40 79.5t-56 66t-80 26.5h-395l-1 -553h272
q26 4 47.5 38.5t35.5 74.5t16 60q3 19 18.5 25.5t31.5 6.5q11 0 26 -8.5t15 -25.5v-443q0 -17 -15 -25.5t-26 -8.5q-16 0 -32.5 6.5t-19.5 26.5q-1 21 -15 64.5t-37 79.5t-51 36h-266v-477q0 -55 28 -75.5t61 -20.5h386q47 0 82.5 36t59.5 86.5t38 95.5t18 64q5 19 23.5 27
t39.5 8q14 0 30.5 -8.5t15.5 -25.5l-13 -384h-1221q-18 0 -26 20t-8 31q0 33 33 37q32 3 68 9.5t61.5 19.5t25.5 35v431h-473l-201 -410q-11 -23 -11 -38q0 -45 168 -47q36 0 36 -37q0 -19 -10.5 -35t-23.5 -16h-489zM535 676h426v616q-19 2 -51.5 5.5t-62.5 6.5z" />
    <glyph glyph-name="Ccedilla" unicode="&#xc7;" horiz-adv-x="1419" 
d="M847 -30q-141 0 -278.5 36.5t-249 120.5t-178.5 226t-67 353q0 198 69.5 339.5t182 230.5t244.5 131t256 42q154 0 246 -20t142.5 -42t80.5 -26l18 -318q2 -17 -22.5 -28.5t-37.5 -11.5q-3 0 -6 -0.5t-7 -0.5q-18 0 -39.5 6.5t-24.5 22.5q-18 85 -56.5 158.5
t-109.5 118.5t-186 45q-62 0 -131.5 -20.5t-131 -84.5t-100 -193.5t-38.5 -348.5q0 -208 42.5 -335t109 -193.5t139 -89.5t132.5 -23q105 0 178 47.5t116.5 124.5t60.5 167q4 19 16 26t29 7q12 0 40 -8.5t28 -25.5l-30 -295q-1 -14 -60 -47.5t-157.5 -62t-219.5 -28.5z
M769 -495q-78 0 -134.5 20.5t-80.5 36.5q-12 8 -6 21q5 11 15.5 31.5t16.5 33.5q7 13 20 8q25 -10 58 -20t75 -10q56 0 89.5 25.5t33.5 66.5q0 36 -42 65t-129 28l33 207h138l-34 -124q109 -8 168 -58.5t59 -124.5q0 -86 -72 -146t-208 -60z" />
    <glyph glyph-name="Egrave" unicode="&#xc8;" horiz-adv-x="1435" 
d="M108 51q0 33 33 37q48 4 97 17.5t49 46.5v1082q0 43 -25 62t-60.5 25.5t-66.5 9.5q-21 2 -28.5 8.5t-7.5 28.5q0 11 8.5 31t25.5 20h1105l35 -325q1 -17 -15.5 -25.5t-27.5 -8.5q-16 0 -37 5.5t-33 27.5q-40 75 -64 125.5t-53 76t-83 25.5h-375v-542h257q26 4 48 38
t36 73.5t17 59.5q2 20 16 26t30 6q11 0 31 -8t20 -26v-443q0 -17 -20 -25.5t-31 -8.5q-16 0 -31.5 7t-17.5 26q-2 22 -16 65t-37 78.5t-51 35.5h-251v-485q0 -55 28.5 -74t61.5 -22h288q90 0 151 61t120 211q7 19 29.5 26t38.5 7q19 0 37.5 -8t20.5 -26l-43 -372h-1175
q-17 0 -25.5 20t-8.5 31zM940 1540q-153 122 -259.5 184.5t-130.5 84.5q-35 31 -35 85q0 20 7 40.5t24 38.5q31 33 78 33q28 0 53 -10.5t41 -25.5q23 -23 92 -126.5t186 -245.5z" />
    <glyph glyph-name="Eacute" unicode="&#xc9;" horiz-adv-x="1435" 
d="M108 51q0 33 33 37q48 4 97 17.5t49 46.5v1082q0 43 -25 62t-60.5 25.5t-66.5 9.5q-21 2 -28.5 8.5t-7.5 28.5q0 11 8.5 31t25.5 20h1105l35 -325q1 -17 -15.5 -25.5t-27.5 -8.5q-16 0 -37 5.5t-33 27.5q-40 75 -64 125.5t-53 76t-83 25.5h-375v-542h257q26 4 48 38
t36 73.5t17 59.5q2 20 16 26t30 6q11 0 31 -8t20 -26v-443q0 -17 -20 -25.5t-31 -8.5q-16 0 -31.5 7t-17.5 26q-2 22 -16 65t-37 78.5t-51 35.5h-251v-485q0 -55 28.5 -74t61.5 -22h288q90 0 151 61t120 211q7 19 29.5 26t38.5 7q19 0 37.5 -8t20.5 -26l-43 -372h-1175
q-17 0 -25.5 20t-8.5 31zM611 1540l-56 58q118 142 187 245.5t92 126.5q16 15 41 25.5t52 10.5q47 0 79 -33q30 -33 30 -79q0 -52 -34 -85q-23 -23 -130.5 -85t-260.5 -184z" />
    <glyph glyph-name="Ecircumflex" unicode="&#xca;" horiz-adv-x="1435" 
d="M108 51q0 33 33 37q48 4 97 17.5t49 46.5v1082q0 43 -25 62t-60.5 25.5t-66.5 9.5q-21 2 -28.5 8.5t-7.5 28.5q0 11 8.5 31t25.5 20h1105l35 -325q1 -17 -15.5 -25.5t-27.5 -8.5q-16 0 -37 5.5t-33 27.5q-40 75 -64 125.5t-53 76t-83 25.5h-375v-542h257q26 4 48 38
t36 73.5t17 59.5q2 20 16 26t30 6q11 0 31 -8t20 -26v-443q0 -17 -20 -25.5t-31 -8.5q-16 0 -31.5 7t-17.5 26q-2 22 -16 65t-37 78.5t-51 35.5h-251v-485q0 -55 28.5 -74t61.5 -22h288q90 0 151 61t120 211q7 19 29.5 26t38.5 7q19 0 37.5 -8t20.5 -26l-43 -372h-1175
q-17 0 -25.5 20t-8.5 31zM394 1559l247 348q15 21 41.5 36t72.5 15q47 0 73.5 -18t43.5 -42l244 -339h-134l-227 207l-222 -207h-139z" />
    <glyph glyph-name="Edieresis" unicode="&#xcb;" horiz-adv-x="1435" 
d="M108 51q0 33 33 37q48 4 97 17.5t49 46.5v1082q0 43 -25 62t-60.5 25.5t-66.5 9.5q-21 2 -28.5 8.5t-7.5 28.5q0 11 8.5 31t25.5 20h1105l35 -325q1 -17 -15.5 -25.5t-27.5 -8.5q-16 0 -37 5.5t-33 27.5q-40 75 -64 125.5t-53 76t-83 25.5h-375v-542h257q26 4 48 38
t36 73.5t17 59.5q2 20 16 26t30 6q11 0 31 -8t20 -26v-443q0 -17 -20 -25.5t-31 -8.5q-16 0 -31.5 7t-17.5 26q-2 22 -16 65t-37 78.5t-51 35.5h-251v-485q0 -55 28.5 -74t61.5 -22h288q90 0 151 61t120 211q7 19 29.5 26t38.5 7q19 0 37.5 -8t20.5 -26l-43 -372h-1175
q-17 0 -25.5 20t-8.5 31zM985 1605q-71 0 -111 49t-40 119q0 71 40 120t111 49q70 0 110.5 -49t40.5 -120q0 -70 -40.5 -119t-110.5 -49zM524 1605q-70 0 -110 49t-40 119q0 71 40 120t110 49t111 -49t41 -120q0 -70 -41 -119t-111 -49z" />
    <glyph glyph-name="Igrave" unicode="&#xcc;" horiz-adv-x="878" 
d="M146 0q-17 0 -25.5 20t-8.5 31q0 34 33 37q48 4 96.5 17.5t48.5 46.5l1 1082q0 43 -25 62.5t-60.5 25.5t-66.5 9q-21 2 -28.5 8.5t-7.5 28.5q0 11 8.5 31t25.5 20h596q17 0 25.5 -20t8.5 -31q0 -34 -33 -37q-51 -4 -98 -17.5t-47 -46.5l-1 -1082q0 -43 25 -62.5
t60.5 -25.5t66.5 -9q21 -2 28.5 -8t7.5 -29q0 -11 -8.5 -31t-25.5 -20h-596zM622 1540q-153 122 -259.5 184.5t-130.5 84.5q-35 31 -35 85q0 20 7 40.5t24 38.5q31 33 78 33q28 0 53 -10.5t41 -25.5q23 -23 92 -126.5t186 -245.5z" />
    <glyph glyph-name="Iacute" unicode="&#xcd;" horiz-adv-x="878" 
d="M146 0q-17 0 -25.5 20t-8.5 31q0 34 33 37q48 4 96.5 17.5t48.5 46.5l1 1082q0 43 -25 62.5t-60.5 25.5t-66.5 9q-21 2 -28.5 8.5t-7.5 28.5q0 11 8.5 31t25.5 20h596q17 0 25.5 -20t8.5 -31q0 -34 -33 -37q-51 -4 -98 -17.5t-47 -46.5l-1 -1082q0 -43 25 -62.5
t60.5 -25.5t66.5 -9q21 -2 28.5 -8t7.5 -29q0 -11 -8.5 -31t-25.5 -20h-596zM293 1540l-56 58q118 142 187 245.5t92 126.5q16 15 41 25.5t52 10.5q47 0 79 -33q30 -33 30 -79q0 -52 -34 -85q-23 -23 -130.5 -85t-260.5 -184z" />
    <glyph glyph-name="Icircumflex" unicode="&#xce;" horiz-adv-x="878" 
d="M146 0q-17 0 -25.5 20t-8.5 31q0 34 33 37q48 4 96.5 17.5t48.5 46.5l1 1082q0 43 -25 62.5t-60.5 25.5t-66.5 9q-21 2 -28.5 8.5t-7.5 28.5q0 11 8.5 31t25.5 20h596q17 0 25.5 -20t8.5 -31q0 -34 -33 -37q-51 -4 -98 -17.5t-47 -46.5l-1 -1082q0 -43 25 -62.5
t60.5 -25.5t66.5 -9q21 -2 28.5 -8t7.5 -29q0 -11 -8.5 -31t-25.5 -20h-596zM77 1559l247 348q15 21 41.5 36t72.5 15q47 0 73.5 -18t43.5 -42l244 -339h-134l-227 207l-222 -207h-139z" />
    <glyph glyph-name="Idieresis" unicode="&#xcf;" horiz-adv-x="878" 
d="M146 0q-17 0 -25.5 20t-8.5 31q0 34 33 37q48 4 96.5 17.5t48.5 46.5l1 1082q0 43 -25 62.5t-60.5 25.5t-66.5 9q-21 2 -28.5 8.5t-7.5 28.5q0 11 8.5 31t25.5 20h596q17 0 25.5 -20t8.5 -31q0 -34 -33 -37q-51 -4 -98 -17.5t-47 -46.5l-1 -1082q0 -43 25 -62.5
t60.5 -25.5t66.5 -9q21 -2 28.5 -8t7.5 -29q0 -11 -8.5 -31t-25.5 -20h-596zM668 1605q-71 0 -111 49t-40 119q0 71 40 120t111 49q70 0 110.5 -49t40.5 -120q0 -70 -40.5 -119t-110.5 -49zM207 1605q-70 0 -110 49t-40 119q0 71 40 120t110 49t111 -49t41 -120
q0 -70 -41 -119t-111 -49z" />
    <glyph glyph-name="Eth" unicode="&#xd0;" horiz-adv-x="1655" 
d="M124 0q-18 0 -26 20t-8 31q0 33 33 37q48 4 96.5 17.5t48.5 46.5v542h-139q-12 1 -18 11.5t-6 22.5q0 19 7 37t17 23h139v446q0 43 -25.5 62t-61 25.5t-65.5 9.5q-21 2 -28.5 8.5t-7.5 28.5q0 11 8 31t26 20h665q204 -1 352.5 -58t244.5 -154t142.5 -218.5t46.5 -250.5
q0 -195 -69 -335t-178.5 -229t-234.5 -131.5t-238 -42.5h-721zM567 168q0 -14 15.5 -29.5t60.5 -26.5t132 -11q91 0 171 19.5t141.5 82t96.5 189.5t35 342q0 186 -38 301.5t-102 178t-145.5 85.5t-168.5 23h-197l-1 -534h292q12 -1 18 -15t6 -26q0 -43 -24 -53h-292v-526z
" />
    <glyph glyph-name="Ntilde" unicode="&#xd1;" horiz-adv-x="1674" 
d="M87 0q-17 0 -25.5 20t-8.5 31q0 33 33 37q32 3 73.5 10t72 24.5t30.5 49.5v1024q0 43 -33 72t-76 44.5t-73 18.5q-21 2 -28.5 8.5t-7.5 28.5q0 11 8.5 31t25.5 20h442l800 -999h12v814q0 43 -32.5 62t-75.5 25.5t-73 9.5q-21 2 -28.5 8.5t-7.5 28.5q0 11 8.5 31t25.5 20
h469q17 0 25.5 -20t8.5 -31q0 -33 -33 -37q-31 -3 -72 -11t-72 -27t-31 -56v-1124q0 -19 1.5 -31.5t4.5 -41.5q3 -40 -32 -55t-63 -15q-36 0 -54 22l-904 1118h-17v-925q0 -43 35.5 -62t81 -25t76.5 -10q21 -2 28.5 -8t7.5 -29q0 -11 -8.5 -31t-25.5 -20h-488zM1023 1557
q-47 0 -88.5 20.5t-80 46.5t-76 46.5t-76.5 20.5q-46 0 -69.5 -23.5t-38.5 -46.5t-35 -23q-18 0 -35.5 21.5t-17.5 46.5q0 34 30.5 81t83 82.5t120.5 35.5q46 0 85.5 -20.5t76 -47t74 -46.5t79.5 -20q47 0 71.5 23t40 46.5t35.5 23.5q18 0 36 -22t18 -46q0 -35 -31.5 -82
t-84 -82t-117.5 -35z" />
    <glyph glyph-name="Ograve" unicode="&#xd2;" horiz-adv-x="1632" 
d="M815 -29q-169 0 -302.5 58t-226.5 160.5t-142 237.5t-49 289q0 205 86.5 371t248.5 264t388 98q225 0 386 -98t247 -264t86 -371q0 -154 -49 -289t-143 -237.5t-227.5 -160.5t-302.5 -58zM819 65q138 0 220.5 78.5t119 224t36.5 346.5q0 302 -87.5 472t-294.5 170
q-208 0 -292.5 -170t-84.5 -472q0 -201 38 -346.5t122 -224t223 -78.5zM996 1540q-153 122 -259.5 184.5t-130.5 84.5q-35 31 -35 85q0 20 7 40.5t24 38.5q31 33 78 33q28 0 53 -10.5t41 -25.5q23 -23 92 -126.5t186 -245.5z" />
    <glyph glyph-name="Oacute" unicode="&#xd3;" horiz-adv-x="1632" 
d="M815 -29q-169 0 -302.5 58t-226.5 160.5t-142 237.5t-49 289q0 205 86.5 371t248.5 264t388 98q225 0 386 -98t247 -264t86 -371q0 -154 -49 -289t-143 -237.5t-227.5 -160.5t-302.5 -58zM819 65q138 0 220.5 78.5t119 224t36.5 346.5q0 302 -87.5 472t-294.5 170
q-208 0 -292.5 -170t-84.5 -472q0 -201 38 -346.5t122 -224t223 -78.5zM667 1540l-56 58q118 142 187 245.5t92 126.5q16 15 41 25.5t52 10.5q47 0 79 -33q30 -33 30 -79q0 -52 -34 -85q-23 -23 -130.5 -85t-260.5 -184z" />
    <glyph glyph-name="Ocircumflex" unicode="&#xd4;" horiz-adv-x="1632" 
d="M815 -29q-169 0 -302.5 58t-226.5 160.5t-142 237.5t-49 289q0 205 86.5 371t248.5 264t388 98q225 0 386 -98t247 -264t86 -371q0 -154 -49 -289t-143 -237.5t-227.5 -160.5t-302.5 -58zM819 65q138 0 220.5 78.5t119 224t36.5 346.5q0 302 -87.5 472t-294.5 170
q-208 0 -292.5 -170t-84.5 -472q0 -201 38 -346.5t122 -224t223 -78.5zM451 1559l247 348q15 21 41.5 36t72.5 15q47 0 73.5 -18t43.5 -42l244 -339h-134l-227 207l-222 -207h-139z" />
    <glyph glyph-name="Otilde" unicode="&#xd5;" horiz-adv-x="1632" 
d="M815 -29q-169 0 -302.5 58t-226.5 160.5t-142 237.5t-49 289q0 205 86.5 371t248.5 264t388 98q225 0 386 -98t247 -264t86 -371q0 -154 -49 -289t-143 -237.5t-227.5 -160.5t-302.5 -58zM819 65q138 0 220.5 78.5t119 224t36.5 346.5q0 302 -87.5 472t-294.5 170
q-208 0 -292.5 -170t-84.5 -472q0 -201 38 -346.5t122 -224t223 -78.5zM954 1557q-47 0 -88.5 20.5t-80 46.5t-76 46.5t-76.5 20.5q-46 0 -69.5 -23.5t-38.5 -46.5t-35 -23q-18 0 -35.5 21.5t-17.5 46.5q0 34 30.5 81t83 82.5t120.5 35.5q46 0 85.5 -20.5t76 -47t74 -46.5
t79.5 -20q47 0 71.5 23t40 46.5t35.5 23.5q18 0 36 -22t18 -46q0 -35 -31.5 -82t-84 -82t-117.5 -35z" />
    <glyph glyph-name="Odieresis" unicode="&#xd6;" horiz-adv-x="1632" 
d="M815 -29q-169 0 -302.5 58t-226.5 160.5t-142 237.5t-49 289q0 205 86.5 371t248.5 264t388 98q225 0 386 -98t247 -264t86 -371q0 -154 -49 -289t-143 -237.5t-227.5 -160.5t-302.5 -58zM819 65q138 0 220.5 78.5t119 224t36.5 346.5q0 302 -87.5 472t-294.5 170
q-208 0 -292.5 -170t-84.5 -472q0 -201 38 -346.5t122 -224t223 -78.5zM1042 1605q-71 0 -111 49t-40 119q0 71 40 120t111 49q70 0 110.5 -49t40.5 -120q0 -70 -40.5 -119t-110.5 -49zM581 1605q-70 0 -110 49t-40 119q0 71 40 120t110 49t111 -49t41 -120q0 -70 -41 -119
t-111 -49z" />
    <glyph glyph-name="multiply" unicode="&#xd7;" horiz-adv-x="1403" 
d="M340 103l-102 105l360 365l-360 366l102 106l361 -367l361 367l102 -106l-360 -366l360 -365l-102 -105l-361 366z" />
    <glyph glyph-name="Oslash" unicode="&#xd8;" horiz-adv-x="1632" 
d="M815 -29q-87 0 -164 16t-145 45l-109 -196q-6 -7 -17 -7q-18 0 -32 9q-36 23 -33 48l106 191q-157 98 -241.5 267t-84.5 372q0 205 86.5 371t248.5 264t388 98q92 0 174 -17.5t153 -50.5l108 194q6 9 20 9q11 0 22 -6q15 -9 28.5 -25.5t12.5 -27.5l-106 -191
q148 -96 227.5 -258.5t79.5 -359.5q0 -154 -49 -289t-143 -237.5t-227.5 -160.5t-302.5 -58zM436 714q0 -146 19.5 -263t61.5 -201l552 993q-93 113 -256 113q-208 0 -292.5 -170t-84.5 -472zM819 65q138 0 220.5 78.5t119 224t36.5 346.5q0 134 -16.5 243.5t-52.5 190.5
l-548 -986q91 -97 241 -97z" />
    <glyph glyph-name="Ugrave" unicode="&#xd9;" horiz-adv-x="1659" 
d="M1400 1230l-2 -714q-1 -255 -142 -400t-392 -145q-186 0 -325.5 57.5t-217 182.5t-77.5 327l1 696q0 43 -23 62.5t-55.5 26t-63.5 8.5q-21 2 -28.5 8.5t-7.5 28.5q0 11 8.5 31t25.5 20h596q17 0 25.5 -20t8.5 -31q0 -34 -33 -37q-52 -4 -103.5 -17.5t-51.5 -46.5l-1 -743
q0 -248 80.5 -353.5t245.5 -105.5q151 0 241.5 62.5t130.5 165t40 221.5v730q0 34 -33 51.5t-75 25t-69 10.5q-21 2 -28.5 8.5t-7.5 28.5q0 11 8.5 31t25.5 20h466q18 0 26 -20t8 -31q0 -36 -33 -37q-77 -3 -122.5 -28t-45.5 -73zM1062 1540q-153 122 -259.5 184.5
t-130.5 84.5q-35 31 -35 85q0 20 7 40.5t24 38.5q31 33 78 33q28 0 53 -10.5t41 -25.5q23 -23 92 -126.5t186 -245.5z" />
    <glyph glyph-name="Uacute" unicode="&#xda;" horiz-adv-x="1659" 
d="M1400 1230l-2 -714q-1 -255 -142 -400t-392 -145q-186 0 -325.5 57.5t-217 182.5t-77.5 327l1 696q0 43 -23 62.5t-55.5 26t-63.5 8.5q-21 2 -28.5 8.5t-7.5 28.5q0 11 8.5 31t25.5 20h596q17 0 25.5 -20t8.5 -31q0 -34 -33 -37q-52 -4 -103.5 -17.5t-51.5 -46.5l-1 -743
q0 -248 80.5 -353.5t245.5 -105.5q151 0 241.5 62.5t130.5 165t40 221.5v730q0 34 -33 51.5t-75 25t-69 10.5q-21 2 -28.5 8.5t-7.5 28.5q0 11 8.5 31t25.5 20h466q18 0 26 -20t8 -31q0 -36 -33 -37q-77 -3 -122.5 -28t-45.5 -73zM733 1540l-56 58q118 142 187 245.5
t92 126.5q16 15 41 25.5t52 10.5q47 0 79 -33q30 -33 30 -79q0 -52 -34 -85q-23 -23 -130.5 -85t-260.5 -184z" />
    <glyph glyph-name="Ucircumflex" unicode="&#xdb;" horiz-adv-x="1659" 
d="M1400 1230l-2 -714q-1 -255 -142 -400t-392 -145q-186 0 -325.5 57.5t-217 182.5t-77.5 327l1 696q0 43 -23 62.5t-55.5 26t-63.5 8.5q-21 2 -28.5 8.5t-7.5 28.5q0 11 8.5 31t25.5 20h596q17 0 25.5 -20t8.5 -31q0 -34 -33 -37q-52 -4 -103.5 -17.5t-51.5 -46.5l-1 -743
q0 -248 80.5 -353.5t245.5 -105.5q151 0 241.5 62.5t130.5 165t40 221.5v730q0 34 -33 51.5t-75 25t-69 10.5q-21 2 -28.5 8.5t-7.5 28.5q0 11 8.5 31t25.5 20h466q18 0 26 -20t8 -31q0 -36 -33 -37q-77 -3 -122.5 -28t-45.5 -73zM517 1559l247 348q15 21 41.5 36t72.5 15
q47 0 73.5 -18t43.5 -42l244 -339h-134l-227 207l-222 -207h-139z" />
    <glyph glyph-name="Udieresis" unicode="&#xdc;" horiz-adv-x="1659" 
d="M1400 1230l-2 -714q-1 -255 -142 -400t-392 -145q-186 0 -325.5 57.5t-217 182.5t-77.5 327l1 696q0 43 -23 62.5t-55.5 26t-63.5 8.5q-21 2 -28.5 8.5t-7.5 28.5q0 11 8.5 31t25.5 20h596q17 0 25.5 -20t8.5 -31q0 -34 -33 -37q-52 -4 -103.5 -17.5t-51.5 -46.5l-1 -743
q0 -248 80.5 -353.5t245.5 -105.5q151 0 241.5 62.5t130.5 165t40 221.5v730q0 34 -33 51.5t-75 25t-69 10.5q-21 2 -28.5 8.5t-7.5 28.5q0 11 8.5 31t25.5 20h466q18 0 26 -20t8 -31q0 -36 -33 -37q-77 -3 -122.5 -28t-45.5 -73zM1108 1605q-71 0 -111 49t-40 119
q0 71 40 120t111 49q70 0 110.5 -49t40.5 -120q0 -70 -40.5 -119t-110.5 -49zM647 1605q-70 0 -110 49t-40 119q0 71 40 120t110 49t111 -49t41 -120q0 -70 -41 -119t-111 -49z" />
    <glyph glyph-name="Yacute" unicode="&#xdd;" horiz-adv-x="1426" 
d="M409 0q-18 0 -26 20t-8 31q0 32 43 37q33 3 71.5 4t66 13t27.5 47v376l-427 726q-36 61 -78 72t-79 15q-21 2 -28.5 8.5t-7.5 28.5q0 11 8.5 26t25.5 15h649q17 0 25.5 -15t8.5 -26q0 -33 -33 -37q-86 -5 -128.5 -10t-42.5 -30q0 -5 6.5 -16.5t8.5 -14.5l326 -620
l340 630q7 13 7 20q-1 20 -42.5 28t-108.5 13q-33 3 -33 37q0 11 8.5 26t25.5 15h415q16 0 25 -15t9 -26q0 -22 -7.5 -28.5t-28.5 -8.5q-37 -4 -77 -15t-74 -72l-396 -709v-380q0 -43 29 -57.5t69.5 -15.5t73.5 -4q21 -2 33.5 -8t12.5 -29q0 -11 -8.5 -31t-25.5 -20h-655z
M628 1540l-56 58q118 142 187 245.5t92 126.5q16 15 41 25.5t52 10.5q47 0 79 -33q30 -33 30 -79q0 -52 -34 -85q-23 -23 -130.5 -85t-260.5 -184z" />
    <glyph glyph-name="Thorn" unicode="&#xde;" horiz-adv-x="1392" 
d="M142 0q-17 0 -25.5 20t-8.5 31q0 33 33 37q48 4 93.5 17.5t45.5 46.5l1 1082q0 43 -24 62.5t-57.5 25.5t-64.5 9q-21 2 -28.5 8.5t-7.5 28.5q0 11 8.5 31t25.5 20h589q17 0 25.5 -20t8.5 -31q0 -33 -33 -37q-50 -4 -97.5 -17.5t-47.5 -46.5v-124l198 2q261 2 408.5 -90
t147.5 -304q0 -126 -59 -224.5t-181 -155t-308 -56.5h-206v-130q0 -43 28.5 -62.5t68 -25.5t69.5 -9q21 -2 28.5 -8t7.5 -29q0 -11 -8.5 -31t-25.5 -20h-604zM578 399h133q28 0 77.5 12.5t100 47t85.5 100t35 171.5q0 141 -50.5 213.5t-127 97.5t-155.5 25h-98v-667z" />
    <glyph glyph-name="germandbls" unicode="&#xdf;" horiz-adv-x="1279" 
d="M28 0q-17 0 -25.5 16.5t-8.5 27.5q0 33 33 37q37 5 74.5 14.5t37.5 42.5v902q0 142 62 259.5t182 188.5t292 71q107 0 201 -24t153 -77t59 -138q0 -75 -30.5 -122t-75.5 -77t-90 -55.5t-75.5 -57t-30.5 -81.5q0 -33 44.5 -65.5t111 -73t132.5 -95.5t111 -132.5t45 -185.5
q0 -95 -40 -169t-104.5 -125t-138 -77t-139.5 -26q-156 0 -225.5 54.5t-69.5 140.5q0 54 44 93t94 39l88 -218l15.5 -11t42.5 -11q59 0 98 54t39 170q0 84 -32 145t-80 111t-95.5 98.5t-80 104.5t-32.5 131q0 65 28.5 105t66 74.5t66.5 83.5t29 133q0 87 -41.5 140.5
t-116.5 53.5q-33 0 -73 -9t-77 -44t-60.5 -111.5t-23.5 -211.5v-1093h-384z" />
    <glyph glyph-name="agrave" unicode="&#xe0;" horiz-adv-x="1163" 
d="M97 242q0 100 57.5 164.5t150.5 103t201 58.5t209 30v162q0 161 -168 161q-48 0 -70.5 -5.5t-33.5 -11.5l-147 -260q-71 0 -117 35t-46 99q0 58 42 102t110 74t148 45t157 15q152 0 241.5 -40t128.5 -106.5t39 -145.5v-523q0 -39 11 -68t27 -29q14 0 38.5 5t33.5 7
q18 1 26 -17.5t8 -35.5q0 -13 -6 -17q-20 -14 -92 -40.5t-176 -26.5q-80 0 -108.5 24.5t-28.5 104.5v16q-65 -74 -151 -109.5t-191 -35.5q-61 0 -129 26t-116 84.5t-48 154.5zM396 251q0 -54 34.5 -97t100.5 -43q70 0 115.5 26.5t67.5 52.5v331q-79 -12 -152 -35t-119.5 -77
t-46.5 -158zM662 1106q-153 122 -260 185t-131 84q-35 32 -35 86q0 20 7.5 40.5t23.5 37.5q32 33 79 33q27 0 52 -10.5t41 -25.5q23 -22 92 -126t187 -246z" />
    <glyph glyph-name="aacute" unicode="&#xe1;" horiz-adv-x="1163" 
d="M97 242q0 100 57.5 164.5t150.5 103t201 58.5t209 30v162q0 161 -168 161q-48 0 -70.5 -5.5t-33.5 -11.5l-147 -260q-71 0 -117 35t-46 99q0 58 42 102t110 74t148 45t157 15q152 0 241.5 -40t128.5 -106.5t39 -145.5v-523q0 -39 11 -68t27 -29q14 0 38.5 5t33.5 7
q18 1 26 -17.5t8 -35.5q0 -13 -6 -17q-20 -14 -92 -40.5t-176 -26.5q-80 0 -108.5 24.5t-28.5 104.5v16q-65 -74 -151 -109.5t-191 -35.5q-61 0 -129 26t-116 84.5t-48 154.5zM396 251q0 -54 34.5 -97t100.5 -43q70 0 115.5 26.5t67.5 52.5v331q-79 -12 -152 -35t-119.5 -77
t-46.5 -158zM470 1106l-56 58q118 142 187 245.5t92 126.5q16 15 41 25.5t52 10.5q48 0 78 -33q31 -33 31 -79q0 -52 -34 -85q-24 -23 -131 -85.5t-260 -183.5z" />
    <glyph glyph-name="acircumflex" unicode="&#xe2;" horiz-adv-x="1163" 
d="M97 242q0 100 57.5 164.5t150.5 103t201 58.5t209 30v162q0 161 -168 161q-48 0 -70.5 -5.5t-33.5 -11.5l-147 -260q-71 0 -117 35t-46 99q0 58 42 102t110 74t148 45t157 15q152 0 241.5 -40t128.5 -106.5t39 -145.5v-523q0 -39 11 -68t27 -29q14 0 38.5 5t33.5 7
q18 1 26 -17.5t8 -35.5q0 -13 -6 -17q-20 -14 -92 -40.5t-176 -26.5q-80 0 -108.5 24.5t-28.5 104.5v16q-65 -74 -151 -109.5t-191 -35.5q-61 0 -129 26t-116 84.5t-48 154.5zM396 251q0 -54 34.5 -97t100.5 -43q70 0 115.5 26.5t67.5 52.5v331q-79 -12 -152 -35t-119.5 -77
t-46.5 -158zM214 1131l247 374q15 21 41.5 36t72.5 15q47 0 74 -18t43 -42l244 -365h-134l-227 226l-222 -226h-139z" />
    <glyph glyph-name="atilde" unicode="&#xe3;" horiz-adv-x="1163" 
d="M97 242q0 100 57.5 164.5t150.5 103t201 58.5t209 30v162q0 161 -168 161q-48 0 -70.5 -5.5t-33.5 -11.5l-147 -260q-71 0 -117 35t-46 99q0 58 42 102t110 74t148 45t157 15q152 0 241.5 -40t128.5 -106.5t39 -145.5v-523q0 -39 11 -68t27 -29q14 0 38.5 5t33.5 7
q18 1 26 -17.5t8 -35.5q0 -13 -6 -17q-20 -14 -92 -40.5t-176 -26.5q-80 0 -108.5 24.5t-28.5 104.5v16q-65 -74 -151 -109.5t-191 -35.5q-61 0 -129 26t-116 84.5t-48 154.5zM396 251q0 -54 34.5 -97t100.5 -43q70 0 115.5 26.5t67.5 52.5v331q-79 -12 -152 -35t-119.5 -77
t-46.5 -158zM691 1118q-41 1 -76 21.5t-66.5 47.5t-62 47.5t-63.5 20.5q-41 0 -63 -24t-36 -47.5t-33 -23.5q-16 0 -32 22t-16 47q0 31 28 77t76.5 81.5t111.5 35.5q39 0 71.5 -20.5t62 -48t61 -48t67.5 -20.5q43 0 65.5 23.5t37 47.5t33.5 24q16 0 32.5 -22t16.5 -47
q0 -36 -29 -81.5t-77.5 -79t-108.5 -33.5z" />
    <glyph glyph-name="adieresis" unicode="&#xe4;" horiz-adv-x="1163" 
d="M97 242q0 100 57.5 164.5t150.5 103t201 58.5t209 30v162q0 161 -168 161q-48 0 -70.5 -5.5t-33.5 -11.5l-147 -260q-71 0 -117 35t-46 99q0 58 42 102t110 74t148 45t157 15q152 0 241.5 -40t128.5 -106.5t39 -145.5v-523q0 -39 11 -68t27 -29q14 0 38.5 5t33.5 7
q18 1 26 -17.5t8 -35.5q0 -13 -6 -17q-20 -14 -92 -40.5t-176 -26.5q-80 0 -108.5 24.5t-28.5 104.5v16q-65 -74 -151 -109.5t-191 -35.5q-61 0 -129 26t-116 84.5t-48 154.5zM396 251q0 -54 34.5 -97t100.5 -43q70 0 115.5 26.5t67.5 52.5v331q-79 -12 -152 -35t-119.5 -77
t-46.5 -158zM805 1181q-71 0 -111 49t-40 119t40 119t111 49q70 0 110.5 -49t40.5 -119t-40.5 -119t-110.5 -49zM344 1181q-71 0 -111 49t-40 119t40 119t111 49q70 0 110.5 -49t40.5 -119t-40.5 -119t-110.5 -49z" />
    <glyph glyph-name="aring" unicode="&#xe5;" horiz-adv-x="1163" 
d="M97 242q0 100 57.5 164.5t150.5 103t201 58.5t209 30v162q0 161 -168 161q-48 0 -70.5 -5.5t-33.5 -11.5l-147 -260q-71 0 -117 35t-46 99q0 58 42 102t110 74t148 45t157 15q152 0 241.5 -40t128.5 -106.5t39 -145.5v-523q0 -39 11 -68t27 -29q14 0 38.5 5t33.5 7
q18 1 26 -17.5t8 -35.5q0 -13 -6 -17q-20 -14 -92 -40.5t-176 -26.5q-80 0 -108.5 24.5t-28.5 104.5v16q-65 -74 -151 -109.5t-191 -35.5q-61 0 -129 26t-116 84.5t-48 154.5zM396 251q0 -54 34.5 -97t100.5 -43q70 0 115.5 26.5t67.5 52.5v331q-79 -12 -152 -35t-119.5 -77
t-46.5 -158zM575 1118q-84 0 -152 33.5t-108.5 95.5t-40.5 147q0 127 88 201t213 74q83 0 151.5 -35t109 -97.5t40.5 -145.5q0 -85 -40.5 -146t-109 -94t-151.5 -33zM575 1251q80 0 114 43t34 101t-34 99.5t-114 41.5t-113.5 -42.5t-33.5 -100.5t33.5 -100t113.5 -42z" />
    <glyph glyph-name="ae" unicode="&#xe6;" horiz-adv-x="1681" 
d="M389 -24q-60 0 -127.5 26.5t-115.5 85t-48 154.5q0 98 56 162t146 103t195.5 59.5t204.5 31.5v163q0 90 -42 125t-112 35q-57 0 -88 -8.5l-31 -8.5l-149 -253q-59 0 -102.5 31.5t-43.5 98.5q0 55 43.5 98.5t113.5 73.5t150 45.5t153 15.5q95 0 151.5 -26.5t104.5 -73.5
q130 100 307 100q151 0 244 -43.5t141 -123t65 -187.5q5 -34 6.5 -74t1.5 -79h-658q1 -156 43 -245.5t104.5 -127.5t125.5 -38q88 0 153 26.5t109 85.5q4 5 9 11.5t14 3.5l46 -21q11 -5 11 -12q0 -6 -6 -17q-50 -90 -147.5 -146t-249.5 -56q-314 0 -392 170
q-65 -82 -152.5 -123.5t-233.5 -41.5zM958 597l356 2q0 174 -40.5 250.5t-120.5 76.5q-75 0 -129.5 -70t-65.5 -259zM530 111q59 0 100.5 20t68.5 48l1 341q-72 -11 -141.5 -34.5t-115 -77.5t-45.5 -156q0 -53 33 -97t99 -44z" />
    <glyph glyph-name="ccedilla" unicode="&#xe7;" horiz-adv-x="1040" 
d="M603 -29q-275 0 -404 142t-129 380q0 163 69.5 279.5t191.5 179t281 62.5q133 0 223.5 -41t134.5 -133q13 -26 17.5 -45.5t4.5 -38.5q0 -70 -43.5 -101t-77.5 -31t-60 16.5t-36 39.5l-97 227q-6 5 -22 12t-43 7q-101 0 -169.5 -99.5t-68.5 -336.5q0 -140 39.5 -227
t99 -127t119.5 -40q78 0 146 28.5t109 83.5q4 5 9 11.5t14 3.5l46 -21q11 -5 11 -13q0 -5 -6 -16q-49 -88 -145 -145t-214 -57zM520 -495q-78 0 -134.5 20.5t-80.5 36.5q-12 8 -6 21q5 11 15.5 31.5t16.5 33.5q7 13 20 8q25 -10 58 -20t75 -10q56 0 89.5 25.5t33.5 66.5
q0 36 -42 65t-129 28l33 207h138l-34 -124q109 -8 168 -58.5t59 -124.5q0 -86 -72 -146t-208 -60z" />
    <glyph glyph-name="egrave" unicode="&#xe8;" horiz-adv-x="1116" 
d="M608 -29q-276 0 -407.5 140t-131.5 390q0 167 73 281.5t192.5 173t259.5 58.5q218 0 317.5 -92t126.5 -250q6 -36 8 -79.5t2 -85.5l-677 -1q0 -155 46 -244.5t114.5 -127.5t137.5 -38q86 0 149 26.5t106 85.5q4 5 9 11.5t15 3.5l46 -21q10 -5 10 -12q0 -6 -6 -17
q-49 -89 -145 -145.5t-245 -56.5zM374 597l375 2q0 174 -40.5 250.5t-117.5 76.5q-84 0 -144.5 -70t-72.5 -259zM686 1106q-153 122 -260 185t-131 84q-35 32 -35 86q0 20 7.5 40.5t23.5 37.5q32 33 79 33q27 0 52 -10.5t41 -25.5q23 -22 92 -126t187 -246z" />
    <glyph glyph-name="eacute" unicode="&#xe9;" horiz-adv-x="1116" 
d="M608 -29q-276 0 -407.5 140t-131.5 390q0 167 73 281.5t192.5 173t259.5 58.5q218 0 317.5 -92t126.5 -250q6 -36 8 -79.5t2 -85.5l-677 -1q0 -155 46 -244.5t114.5 -127.5t137.5 -38q86 0 149 26.5t106 85.5q4 5 9 11.5t15 3.5l46 -21q10 -5 10 -12q0 -6 -6 -17
q-49 -89 -145 -145.5t-245 -56.5zM374 597l375 2q0 174 -40.5 250.5t-117.5 76.5q-84 0 -144.5 -70t-72.5 -259zM494 1106l-56 58q118 142 187 245.5t92 126.5q16 15 41 25.5t52 10.5q48 0 78 -33q31 -33 31 -79q0 -52 -34 -85q-24 -23 -131 -85.5t-260 -183.5z" />
    <glyph glyph-name="ecircumflex" unicode="&#xea;" horiz-adv-x="1116" 
d="M608 -29q-276 0 -407.5 140t-131.5 390q0 167 73 281.5t192.5 173t259.5 58.5q218 0 317.5 -92t126.5 -250q6 -36 8 -79.5t2 -85.5l-677 -1q0 -155 46 -244.5t114.5 -127.5t137.5 -38q86 0 149 26.5t106 85.5q4 5 9 11.5t15 3.5l46 -21q10 -5 10 -12q0 -6 -6 -17
q-49 -89 -145 -145.5t-245 -56.5zM374 597l375 2q0 174 -40.5 250.5t-117.5 76.5q-84 0 -144.5 -70t-72.5 -259zM237 1131l247 374q15 21 41.5 36t72.5 15q47 0 74 -18t43 -42l244 -365h-134l-227 226l-222 -226h-139z" />
    <glyph glyph-name="edieresis" unicode="&#xeb;" horiz-adv-x="1116" 
d="M608 -29q-276 0 -407.5 140t-131.5 390q0 167 73 281.5t192.5 173t259.5 58.5q218 0 317.5 -92t126.5 -250q6 -36 8 -79.5t2 -85.5l-677 -1q0 -155 46 -244.5t114.5 -127.5t137.5 -38q86 0 149 26.5t106 85.5q4 5 9 11.5t15 3.5l46 -21q10 -5 10 -12q0 -6 -6 -17
q-49 -89 -145 -145.5t-245 -56.5zM374 597l375 2q0 174 -40.5 250.5t-117.5 76.5q-84 0 -144.5 -70t-72.5 -259zM829 1181q-71 0 -111 49t-40 119t40 119t111 49q70 0 110.5 -49t40.5 -119t-40.5 -119t-110.5 -49zM368 1181q-71 0 -111 49t-40 119t40 119t111 49
q70 0 110.5 -49t40.5 -119t-40.5 -119t-110.5 -49z" />
    <glyph glyph-name="igrave" unicode="&#xec;" horiz-adv-x="686" 
d="M105 0q-17 0 -25.5 15t-8.5 26q0 34 33 37q37 3 76 15.5t39 41.5l1 643q0 62 -26 84.5t-61 26.5t-62 11q-10 5 -17 13t-7 27q0 12 6 27.5t18 16.5q130 8 235.5 10.5t160.5 2.5q8 0 18.5 -8t11.5 -32v-789q0 -40 20 -58t48.5 -23.5t53.5 -8.5q21 -2 28.5 -8t7.5 -29
q0 -11 -9 -26t-25 -15h-516zM440 1106q-153 122 -260 185t-131 84q-35 32 -35 86q0 20 7.5 40.5t23.5 37.5q32 33 79 33q27 0 52 -10.5t41 -25.5q23 -22 92 -126t187 -246z" />
    <glyph glyph-name="iacute" unicode="&#xed;" horiz-adv-x="686" 
d="M105 0q-17 0 -25.5 15t-8.5 26q0 34 33 37q37 3 76 15.5t39 41.5l1 643q0 62 -26 84.5t-61 26.5t-62 11q-10 5 -17 13t-7 27q0 12 6 27.5t18 16.5q130 8 235.5 10.5t160.5 2.5q8 0 18.5 -8t11.5 -32v-789q0 -40 20 -58t48.5 -23.5t53.5 -8.5q21 -2 28.5 -8t7.5 -29
q0 -11 -9 -26t-25 -15h-516zM248 1106l-56 58q118 142 187 245.5t92 126.5q16 15 41 25.5t52 10.5q48 0 78 -33q31 -33 31 -79q0 -52 -34 -85q-24 -23 -131 -85.5t-260 -183.5z" />
    <glyph glyph-name="icircumflex" unicode="&#xee;" horiz-adv-x="686" 
d="M105 0q-17 0 -25.5 15t-8.5 26q0 34 33 37q37 3 76 15.5t39 41.5l1 643q0 62 -26 84.5t-61 26.5t-62 11q-10 5 -17 13t-7 27q0 12 6 27.5t18 16.5q130 8 235.5 10.5t160.5 2.5q8 0 18.5 -8t11.5 -32v-789q0 -40 20 -58t48.5 -23.5t53.5 -8.5q21 -2 28.5 -8t7.5 -29
q0 -11 -9 -26t-25 -15h-516zM-8 1131l247 374q15 21 41.5 36t72.5 15q47 0 74 -18t43 -42l244 -365h-134l-227 226l-222 -226h-139z" />
    <glyph glyph-name="idieresis" unicode="&#xef;" horiz-adv-x="686" 
d="M105 0q-17 0 -25.5 15t-8.5 26q0 34 33 37q37 3 76 15.5t39 41.5l1 643q0 62 -26 84.5t-61 26.5t-62 11q-10 5 -17 13t-7 27q0 12 6 27.5t18 16.5q130 8 235.5 10.5t160.5 2.5q8 0 18.5 -8t11.5 -32v-789q0 -40 20 -58t48.5 -23.5t53.5 -8.5q21 -2 28.5 -8t7.5 -29
q0 -11 -9 -26t-25 -15h-516zM583 1181q-71 0 -111 49t-40 119t40 119t111 49q70 0 110.5 -49t40.5 -119t-40.5 -119t-110.5 -49zM122 1181q-71 0 -111 49t-40 119t40 119t111 49q70 0 110.5 -49t40.5 -119t-40.5 -119t-110.5 -49z" />
    <glyph glyph-name="eth" unicode="&#xf0;" horiz-adv-x="1240" 
d="M76 454q0 152 63.5 269.5t181 184t279.5 66.5q65 0 132.5 -24.5t109.5 -66.5q-30 130 -97.5 258.5t-158.5 205.5l-205 -162q-9 -1 -19 6.5t-16 14.5q-17 23 -17 44q0 8 2 12l176 142q-53 34 -108.5 57.5t-132.5 32.5q-8 1 -12.5 14t-4.5 29t3 28q6 19 13 29.5t21 10.5
q103 -8 185 -35.5t163 -68.5l185 144q6 4 13 4q12 0 24 -15q21 -27 21 -54q0 -4 -2 -10l-154 -120q144 -101 241.5 -241t147 -296.5t49.5 -307.5q0 -172 -57 -315.5t-176.5 -229.5t-306.5 -86q-164 0 -286 61.5t-189.5 169.5t-67.5 249zM381 433q0 -364 235 -364
q103 0 152.5 71t64 187.5t14.5 251.5v5q0 153 -46.5 215.5t-185.5 61.5q-83 0 -134.5 -60t-75.5 -157.5t-24 -210.5z" />
    <glyph glyph-name="ntilde" unicode="&#xf1;" horiz-adv-x="1351" 
d="M104 0q-17 0 -25.5 15t-8.5 26q0 33 33 37q37 5 73 18t36 46v636q0 62 -26.5 84.5t-62 26.5t-60.5 11q-10 5 -17 13t-7 27q0 12 6 28t18 17q126 7 228.5 9.5t155.5 2.5q9 0 18.5 -8t11.5 -32v-112q19 21 78 61.5t142 74t174 33.5q79 0 146.5 -21.5t109 -82.5t41.5 -179
v-556q0 -48 22 -67t52.5 -22.5t55.5 -7.5q16 -2 24.5 -8.5t8.5 -28.5q0 -11 -8.5 -26t-25.5 -15h-504q-17 0 -25.5 15t-8.5 26q0 16 5.5 25.5t25.5 11.5q32 3 65.5 19.5t33.5 44.5v595q0 22 -5.5 54t-31 56.5t-85.5 24.5q-56 0 -111 -20.5t-99.5 -49.5t-69.5 -55v-572
q0 -64 35 -78.5t72 -18.5q21 -2 28.5 -8t7.5 -29q0 -11 -9 -26t-25 -15h-492zM802 1118q-41 1 -76 21.5t-66.5 47.5t-62 47.5t-63.5 20.5q-41 0 -63 -24t-36 -47.5t-33 -23.5q-16 0 -32 22t-16 47q0 31 28 77t76.5 81.5t111.5 35.5q39 0 71.5 -20.5t62 -48t61 -48
t67.5 -20.5q43 0 65.5 23.5t37 47.5t33.5 24q16 0 32.5 -22t16.5 -47q0 -36 -29 -81.5t-77.5 -79t-108.5 -33.5z" />
    <glyph glyph-name="ograve" unicode="&#xf2;" horiz-adv-x="1242" 
d="M76 492q0 164 68.5 281t192 179t290.5 62q251 0 394.5 -138t143.5 -384t-147 -383.5t-398 -137.5t-397.5 137.5t-146.5 383.5zM386 492q0 -201 49 -313.5t188 -112.5q138 0 185 112.5t47 313.5t-49 313.5t-187 112.5q-139 0 -186 -113t-47 -313zM707 1106
q-153 122 -260 185t-131 84q-35 32 -35 86q0 20 7.5 40.5t23.5 37.5q32 33 79 33q27 0 52 -10.5t41 -25.5q23 -22 92 -126t187 -246z" />
    <glyph glyph-name="oacute" unicode="&#xf3;" horiz-adv-x="1242" 
d="M76 492q0 164 68.5 281t192 179t290.5 62q251 0 394.5 -138t143.5 -384t-147 -383.5t-398 -137.5t-397.5 137.5t-146.5 383.5zM386 492q0 -201 49 -313.5t188 -112.5q138 0 185 112.5t47 313.5t-49 313.5t-187 112.5q-139 0 -186 -113t-47 -313zM515 1106l-56 58
q118 142 187 245.5t92 126.5q16 15 41 25.5t52 10.5q48 0 78 -33q31 -33 31 -79q0 -52 -34 -85q-24 -23 -131 -85.5t-260 -183.5z" />
    <glyph glyph-name="ocircumflex" unicode="&#xf4;" horiz-adv-x="1242" 
d="M76 492q0 164 68.5 281t192 179t290.5 62q251 0 394.5 -138t143.5 -384t-147 -383.5t-398 -137.5t-397.5 137.5t-146.5 383.5zM386 492q0 -201 49 -313.5t188 -112.5q138 0 185 112.5t47 313.5t-49 313.5t-187 112.5q-139 0 -186 -113t-47 -313zM258 1131l247 374
q15 21 41.5 36t72.5 15q47 0 74 -18t43 -42l244 -365h-134l-227 226l-222 -226h-139z" />
    <glyph glyph-name="otilde" unicode="&#xf5;" horiz-adv-x="1242" 
d="M76 492q0 164 68.5 281t192 179t290.5 62q251 0 394.5 -138t143.5 -384t-147 -383.5t-398 -137.5t-397.5 137.5t-146.5 383.5zM386 492q0 -201 49 -313.5t188 -112.5q138 0 185 112.5t47 313.5t-49 313.5t-187 112.5q-139 0 -186 -113t-47 -313zM735 1118q-41 1 -76 21.5
t-66.5 47.5t-62 47.5t-63.5 20.5q-41 0 -63 -24t-36 -47.5t-33 -23.5q-16 0 -32 22t-16 47q0 31 28 77t76.5 81.5t111.5 35.5q39 0 71.5 -20.5t62 -48t61 -48t67.5 -20.5q43 0 65.5 23.5t37 47.5t33.5 24q16 0 32.5 -22t16.5 -47q0 -36 -29 -81.5t-77.5 -79t-108.5 -33.5z
" />
    <glyph glyph-name="odieresis" unicode="&#xf6;" horiz-adv-x="1242" 
d="M76 492q0 164 68.5 281t192 179t290.5 62q251 0 394.5 -138t143.5 -384t-147 -383.5t-398 -137.5t-397.5 137.5t-146.5 383.5zM386 492q0 -201 49 -313.5t188 -112.5q138 0 185 112.5t47 313.5t-49 313.5t-187 112.5q-139 0 -186 -113t-47 -313zM850 1181q-71 0 -111 49
t-40 119t40 119t111 49q70 0 110.5 -49t40.5 -119t-40.5 -119t-110.5 -49zM389 1181q-71 0 -111 49t-40 119t40 119t111 49q70 0 110.5 -49t40.5 -119t-40.5 -119t-110.5 -49z" />
    <glyph glyph-name="divide" unicode="&#xf7;" horiz-adv-x="1403" 
d="M549 962q0 71 51 120.5t126 49.5q74 0 126 -49.5t52 -120.5q0 -72 -52 -126t-126 -54q-75 0 -126 54t-51 126zM243 499v140h957v-140h-957zM549 187q0 71 51 120.5t126 49.5q74 0 126 -49.5t52 -120.5q0 -72 -52 -126t-126 -54q-75 0 -126 54t-51 126z" />
    <glyph glyph-name="oslash" unicode="&#xf8;" horiz-adv-x="1242" 
d="M76 492q0 164 68.5 281t192 179t290.5 62q251 0 394.5 -138t143.5 -384t-147 -383.5t-398 -137.5t-397.5 137.5t-146.5 383.5zM386 492q0 -201 49 -313.5t188 -112.5q138 0 185 112.5t47 313.5t-49 313.5t-187 112.5q-139 0 -186 -113t-47 -313zM889 1140q6 9 20 9
q12 0 22 -6q16 -9 29.5 -25t11.5 -28l-629 -1247q-6 -7 -17 -7q-18 0 -32 9q-37 23 -33 48z" />
    <glyph glyph-name="ugrave" unicode="&#xf9;" horiz-adv-x="1323" 
d="M516 -27q-88 0 -161 22.5t-116.5 86.5t-43.5 188v549q0 43 -17.5 62.5t-44 26t-50.5 8.5q-21 2 -28.5 8.5t-7.5 28.5q0 11 8.5 26t25.5 15h354q37 0 37 -36v-627q0 -84 23.5 -146t93.5 -62q91 0 151.5 28.5t109.5 81.5v586q0 43 -23 62.5t-56.5 25.5t-65.5 9
q-21 2 -28.5 8.5t-7.5 28.5q0 11 8.5 26t25.5 15h386q37 0 37 -36v-740q0 -71 13.5 -90t29.5 -19q33 0 51 8q17 7 28 -18t11 -45q0 -13 -5 -17q-19 -14 -82.5 -38t-175.5 -24q-56 0 -84.5 27t-38.5 65.5t-11 74.5q-28 -41 -82.5 -80t-123.5 -64t-140 -25zM741 1106
q-153 122 -260 185t-131 84q-35 32 -35 86q0 20 7.5 40.5t23.5 37.5q32 33 79 33q27 0 52 -10.5t41 -25.5q23 -22 92 -126t187 -246z" />
    <glyph glyph-name="uacute" unicode="&#xfa;" horiz-adv-x="1323" 
d="M516 -27q-88 0 -161 22.5t-116.5 86.5t-43.5 188v549q0 43 -17.5 62.5t-44 26t-50.5 8.5q-21 2 -28.5 8.5t-7.5 28.5q0 11 8.5 26t25.5 15h354q37 0 37 -36v-627q0 -84 23.5 -146t93.5 -62q91 0 151.5 28.5t109.5 81.5v586q0 43 -23 62.5t-56.5 25.5t-65.5 9
q-21 2 -28.5 8.5t-7.5 28.5q0 11 8.5 26t25.5 15h386q37 0 37 -36v-740q0 -71 13.5 -90t29.5 -19q33 0 51 8q17 7 28 -18t11 -45q0 -13 -5 -17q-19 -14 -82.5 -38t-175.5 -24q-56 0 -84.5 27t-38.5 65.5t-11 74.5q-28 -41 -82.5 -80t-123.5 -64t-140 -25zM549 1106l-56 58
q118 142 187 245.5t92 126.5q16 15 41 25.5t52 10.5q48 0 78 -33q31 -33 31 -79q0 -52 -34 -85q-24 -23 -131 -85.5t-260 -183.5z" />
    <glyph glyph-name="ucircumflex" unicode="&#xfb;" horiz-adv-x="1323" 
d="M516 -27q-88 0 -161 22.5t-116.5 86.5t-43.5 188v549q0 43 -17.5 62.5t-44 26t-50.5 8.5q-21 2 -28.5 8.5t-7.5 28.5q0 11 8.5 26t25.5 15h354q37 0 37 -36v-627q0 -84 23.5 -146t93.5 -62q91 0 151.5 28.5t109.5 81.5v586q0 43 -23 62.5t-56.5 25.5t-65.5 9
q-21 2 -28.5 8.5t-7.5 28.5q0 11 8.5 26t25.5 15h386q37 0 37 -36v-740q0 -71 13.5 -90t29.5 -19q33 0 51 8q17 7 28 -18t11 -45q0 -13 -5 -17q-19 -14 -82.5 -38t-175.5 -24q-56 0 -84.5 27t-38.5 65.5t-11 74.5q-28 -41 -82.5 -80t-123.5 -64t-140 -25zM292 1131l247 374
q15 21 41.5 36t72.5 15q47 0 74 -18t43 -42l244 -365h-134l-227 226l-222 -226h-139z" />
    <glyph glyph-name="udieresis" unicode="&#xfc;" horiz-adv-x="1323" 
d="M516 -27q-88 0 -161 22.5t-116.5 86.5t-43.5 188v549q0 43 -17.5 62.5t-44 26t-50.5 8.5q-21 2 -28.5 8.5t-7.5 28.5q0 11 8.5 26t25.5 15h354q37 0 37 -36v-627q0 -84 23.5 -146t93.5 -62q91 0 151.5 28.5t109.5 81.5v586q0 43 -23 62.5t-56.5 25.5t-65.5 9
q-21 2 -28.5 8.5t-7.5 28.5q0 11 8.5 26t25.5 15h386q37 0 37 -36v-740q0 -71 13.5 -90t29.5 -19q33 0 51 8q17 7 28 -18t11 -45q0 -13 -5 -17q-19 -14 -82.5 -38t-175.5 -24q-56 0 -84.5 27t-38.5 65.5t-11 74.5q-28 -41 -82.5 -80t-123.5 -64t-140 -25zM884 1181
q-71 0 -111 49t-40 119t40 119t111 49q70 0 110.5 -49t40.5 -119t-40.5 -119t-110.5 -49zM423 1181q-71 0 -111 49t-40 119t40 119t111 49q70 0 110.5 -49t40.5 -119t-40.5 -119t-110.5 -49z" />
    <glyph glyph-name="yacute" unicode="&#xfd;" horiz-adv-x="1107" 
d="M265 -449q-47 0 -93 20.5t-76.5 55.5t-30.5 80q0 59 31 90.5t73 31.5l116 -125q70 2 120.5 63.5t116.5 196.5l-389 865q-27 52 -56.5 67.5t-65.5 19.5q-21 2 -28.5 8.5t-7.5 28.5q0 11 8 26t25 15h520q17 0 25.5 -15t8.5 -26q0 -33 -33 -37q-34 -4 -71 -12t-37 -34
l235 -613l211 612q0 27 -39.5 35t-74.5 12q-33 4 -33 37q0 11 8.5 26t25.5 15h349q17 0 25.5 -15t8.5 -26q0 -22 -7.5 -28.5t-28.5 -8.5q-36 -4 -61.5 -19.5t-50.5 -67.5l-286 -723q-42 -104 -84.5 -202.5t-92.5 -178.5t-113.5 -127t-147.5 -47zM490 1106l-56 58
q118 142 187 245.5t92 126.5q16 15 41 25.5t52 10.5q48 0 78 -33q31 -33 31 -79q0 -52 -34 -85q-24 -23 -131 -85.5t-260 -183.5z" />
    <glyph glyph-name="thorn" unicode="&#xfe;" horiz-adv-x="1267" 
d="M23 -444q-17 0 -25.5 15t-8.5 26q0 23 7.5 29t28.5 8q24 3 52.5 9t49 25.5t20.5 62.5v1601q0 62 -27.5 85t-63 28t-61.5 12q-11 5 -17.5 13t-6.5 27q0 12 6 28t18 16q126 8 233 9.5t162 1.5q13 0 21 -14t9 -33v-463l-7 -166q51 68 142.5 103t175.5 35q161 0 258 -74
t140.5 -193t43.5 -254t-53.5 -254t-162.5 -193.5t-276 -74.5q-64 0 -134.5 7.5t-133.5 30.5l7 -110v-201q0 -33 48 -46.5t107 -17.5q33 -4 33 -37q0 -11 -8.5 -26t-25.5 -15h-551zM602 73q105 0 164 52t83 146.5t24 221.5q0 116 -24 204t-81 137.5t-156 49.5q-49 0 -107 -26
t-85 -72v-620q17 -32 70.5 -62.5t111.5 -30.5z" />
    <glyph glyph-name="ydieresis" unicode="&#xff;" horiz-adv-x="1107" 
d="M265 -449q-47 0 -93 20.5t-76.5 55.5t-30.5 80q0 59 31 90.5t73 31.5l116 -125q70 2 120.5 63.5t116.5 196.5l-389 865q-27 52 -56.5 67.5t-65.5 19.5q-21 2 -28.5 8.5t-7.5 28.5q0 11 8 26t25 15h520q17 0 25.5 -15t8.5 -26q0 -33 -33 -37q-34 -4 -71 -12t-37 -34
l235 -613l211 612q0 27 -39.5 35t-74.5 12q-33 4 -33 37q0 11 8.5 26t25.5 15h349q17 0 25.5 -15t8.5 -26q0 -22 -7.5 -28.5t-28.5 -8.5q-36 -4 -61.5 -19.5t-50.5 -67.5l-286 -723q-42 -104 -84.5 -202.5t-92.5 -178.5t-113.5 -127t-147.5 -47zM825 1181q-71 0 -111 49
t-40 119t40 119t111 49q70 0 110.5 -49t40.5 -119t-40.5 -119t-110.5 -49zM364 1181q-71 0 -111 49t-40 119t40 119t111 49q70 0 110.5 -49t40.5 -119t-40.5 -119t-110.5 -49z" />
    <glyph glyph-name="Amacron" unicode="&#x100;" horiz-adv-x="1498" 
d="M18 0q-16 0 -25 15.5t-9 35.5q0 23 7.5 29t28.5 8q25 3 54.5 3.5t56 15.5t42.5 58l473 1276h212l466 -1276q16 -45 44 -59.5t58.5 -14.5t55.5 -3q21 -2 28.5 -8t7.5 -29q0 -11 -9 -31t-25 -20h-585q-18 0 -26 20t-8 31q0 33 33 37q59 3 94.5 4.5t35.5 24.5q0 6 -3 15
l-124 350l-479 1l-124 -351q-3 -7 -3 -13q0 -24 43 -26t104 -5q33 -4 33 -37q0 -11 -8.5 -31t-25.5 -20h-423zM679 1189l-229 -621h422zM445 1615v148h588v-148h-588z" />
    <glyph glyph-name="amacron" unicode="&#x101;" horiz-adv-x="1163" 
d="M97 242q0 100 57.5 164.5t150.5 103t201 58.5t209 30v162q0 161 -168 161q-48 0 -70.5 -5.5t-33.5 -11.5l-147 -260q-71 0 -117 35t-46 99q0 58 42 102t110 74t148 45t157 15q152 0 241.5 -40t128.5 -106.5t39 -145.5v-523q0 -39 11 -68t27 -29q14 0 38.5 5t33.5 7
q18 1 26 -17.5t8 -35.5q0 -13 -6 -17q-20 -14 -92 -40.5t-176 -26.5q-80 0 -108.5 24.5t-28.5 104.5v16q-65 -74 -151 -109.5t-191 -35.5q-61 0 -129 26t-116 84.5t-48 154.5zM396 251q0 -54 34.5 -97t100.5 -43q70 0 115.5 26.5t67.5 52.5v331q-79 -12 -152 -35t-119.5 -77
t-46.5 -158zM282 1174v148h588v-148h-588z" />
    <glyph glyph-name="Abreve" unicode="&#x102;" horiz-adv-x="1498" 
d="M18 0q-16 0 -25 15.5t-9 35.5q0 23 7.5 29t28.5 8q25 3 54.5 3.5t56 15.5t42.5 58l473 1276h212l466 -1276q16 -45 44 -59.5t58.5 -14.5t55.5 -3q21 -2 28.5 -8t7.5 -29q0 -11 -9 -31t-25 -20h-585q-18 0 -26 20t-8 31q0 33 33 37q59 3 94.5 4.5t35.5 24.5q0 6 -3 15
l-124 350l-479 1l-124 -351q-3 -7 -3 -13q0 -24 43 -26t104 -5q33 -4 33 -37q0 -11 -8.5 -31t-25.5 -20h-423zM679 1189l-229 -621h422zM738 1589q-57 0 -119 15.5t-114.5 55.5t-84 112.5t-29.5 186.5h127q5 -84 58.5 -135.5t161.5 -51.5t162 51.5t58 135.5h127
q2 -114 -29.5 -186.5t-84 -112.5t-114.5 -55.5t-119 -15.5z" />
    <glyph glyph-name="abreve" unicode="&#x103;" horiz-adv-x="1163" 
d="M97 242q0 100 57.5 164.5t150.5 103t201 58.5t209 30v162q0 161 -168 161q-48 0 -70.5 -5.5t-33.5 -11.5l-147 -260q-71 0 -117 35t-46 99q0 58 42 102t110 74t148 45t157 15q152 0 241.5 -40t128.5 -106.5t39 -145.5v-523q0 -39 11 -68t27 -29q14 0 38.5 5t33.5 7
q18 1 26 -17.5t8 -35.5q0 -13 -6 -17q-20 -14 -92 -40.5t-176 -26.5q-80 0 -108.5 24.5t-28.5 104.5v16q-65 -74 -151 -109.5t-191 -35.5q-61 0 -129 26t-116 84.5t-48 154.5zM396 251q0 -54 34.5 -97t100.5 -43q70 0 115.5 26.5t67.5 52.5v331q-79 -12 -152 -35t-119.5 -77
t-46.5 -158zM575 1181q-57 0 -119 15.5t-114.5 55.5t-84 112.5t-29.5 186.5h127q5 -84 58.5 -135.5t161.5 -51.5t162 51.5t58 135.5h127q2 -114 -29.5 -186.5t-84 -112.5t-114.5 -55.5t-119 -15.5z" />
    <glyph glyph-name="Aogonek" unicode="&#x104;" horiz-adv-x="1498" 
d="M18 0q-16 0 -25 15.5t-9 35.5q0 23 7.5 29t28.5 8q25 3 54.5 3.5t56 15.5t42.5 58l473 1276h212l466 -1276q16 -45 44 -59.5t58.5 -14.5t55.5 -3q21 -2 28.5 -8t7.5 -29q0 -11 -9 -31t-25 -20h-585q-18 0 -26 20t-8 31q0 33 33 37q59 3 94.5 4.5t35.5 24.5q0 6 -3 15
l-124 350l-479 1l-124 -351q-3 -7 -3 -13q0 -24 43 -26t104 -5q33 -4 33 -37q0 -11 -8.5 -31t-25.5 -20h-423zM679 1189l-229 -621h422zM1295 60l24 -25q-219 -106 -219 -252q0 -59 43 -97t103 -38q28 0 49 4t56 23q8 4 18 -12t10 -40q0 -33 -25 -52q-34 -26 -92 -43.5
t-118 -17.5q-136 0 -202 59t-66 137q0 69 47 132.5t130 112t190 72.5z" />
    <glyph glyph-name="aogonek" unicode="&#x105;" horiz-adv-x="1163" 
d="M97 242q0 100 57.5 164.5t150.5 103t201 58.5t209 30v162q0 161 -168 161q-48 0 -70.5 -5.5t-33.5 -11.5l-147 -260q-71 0 -117 35t-46 99q0 58 42 102t110 74t148 45t157 15q152 0 241.5 -40t128.5 -106.5t39 -145.5v-523q0 -39 11 -68t27 -29q14 0 38.5 5t33.5 7
q18 1 26 -17.5t8 -35.5q0 -13 -6 -17q-20 -14 -92 -40.5t-176 -26.5q-80 0 -108.5 24.5t-28.5 104.5v16q-65 -74 -151 -109.5t-191 -35.5q-61 0 -129 26t-116 84.5t-48 154.5zM396 251q0 -54 34.5 -97t100.5 -43q70 0 115.5 26.5t67.5 52.5v331q-79 -12 -152 -35t-119.5 -77
t-46.5 -158zM997 60l24 -25q-219 -106 -219 -252q0 -59 43 -97t103 -38q28 0 49 4t56 23q8 4 18 -12t10 -40q0 -33 -25 -52q-35 -26 -92.5 -43.5t-117.5 -17.5q-136 0 -202 59t-66 137q0 69 47 132.5t130 112t189 72.5z" />
    <glyph glyph-name="Cacute" unicode="&#x106;" horiz-adv-x="1419" 
d="M847 -30q-141 0 -278.5 36.5t-249 120.5t-178.5 226t-67 353q0 198 69.5 339.5t182 230.5t244.5 131t256 42q154 0 246 -20t142.5 -42t80.5 -26l18 -318q2 -17 -22.5 -28.5t-37.5 -11.5q-3 0 -6 -0.5t-7 -0.5q-18 0 -39.5 6.5t-24.5 22.5q-18 85 -56.5 158.5
t-109.5 118.5t-186 45q-62 0 -131.5 -20.5t-131 -84.5t-100 -193.5t-38.5 -348.5q0 -208 42.5 -335t109 -193.5t139 -89.5t132.5 -23q105 0 178 47.5t116.5 124.5t60.5 167q4 19 16 26t29 7q12 0 40 -8.5t28 -25.5l-30 -295q-1 -14 -60 -47.5t-157.5 -62t-219.5 -28.5z
M682 1540l-56 58q118 142 187 245.5t92 126.5q16 15 41 25.5t52 10.5q47 0 79 -33q30 -33 30 -79q0 -52 -34 -85q-23 -23 -130.5 -85t-260.5 -184z" />
    <glyph glyph-name="cacute" unicode="&#x107;" horiz-adv-x="1040" 
d="M603 -29q-275 0 -404 142t-129 380q0 163 69.5 279.5t191.5 179t281 62.5q133 0 223.5 -41t134.5 -133q13 -26 17.5 -45.5t4.5 -38.5q0 -70 -43.5 -101t-77.5 -31t-60 16.5t-36 39.5l-97 227q-6 5 -22 12t-43 7q-101 0 -169.5 -99.5t-68.5 -336.5q0 -140 39.5 -227
t99 -127t119.5 -40q78 0 146 28.5t109 83.5q4 5 9 11.5t14 3.5l46 -21q11 -5 11 -13q0 -5 -6 -16q-49 -88 -145 -145t-214 -57zM522 1106l-56 58q118 142 187 245.5t92 126.5q16 15 41 25.5t52 10.5q48 0 78 -33q31 -33 31 -79q0 -52 -34 -85q-24 -23 -131 -85.5
t-260 -183.5z" />
    <glyph glyph-name="Ccircumflex" unicode="&#x108;" horiz-adv-x="1419" 
d="M847 -30q-141 0 -278.5 36.5t-249 120.5t-178.5 226t-67 353q0 198 69.5 339.5t182 230.5t244.5 131t256 42q154 0 246 -20t142.5 -42t80.5 -26l18 -318q2 -17 -22.5 -28.5t-37.5 -11.5q-3 0 -6 -0.5t-7 -0.5q-18 0 -39.5 6.5t-24.5 22.5q-18 85 -56.5 158.5
t-109.5 118.5t-186 45q-62 0 -131.5 -20.5t-131 -84.5t-100 -193.5t-38.5 -348.5q0 -208 42.5 -335t109 -193.5t139 -89.5t132.5 -23q105 0 178 47.5t116.5 124.5t60.5 167q4 19 16 26t29 7q12 0 40 -8.5t28 -25.5l-30 -295q-1 -14 -60 -47.5t-157.5 -62t-219.5 -28.5z
M465 1559l247 348q15 21 41.5 36t72.5 15q47 0 73.5 -18t43.5 -42l244 -339h-134l-227 207l-222 -207h-139z" />
    <glyph glyph-name="ccircumflex" unicode="&#x109;" horiz-adv-x="1040" 
d="M603 -29q-275 0 -404 142t-129 380q0 163 69.5 279.5t191.5 179t281 62.5q133 0 223.5 -41t134.5 -133q13 -26 17.5 -45.5t4.5 -38.5q0 -70 -43.5 -101t-77.5 -31t-60 16.5t-36 39.5l-97 227q-6 5 -22 12t-43 7q-101 0 -169.5 -99.5t-68.5 -336.5q0 -140 39.5 -227
t99 -127t119.5 -40q78 0 146 28.5t109 83.5q4 5 9 11.5t14 3.5l46 -21q11 -5 11 -13q0 -5 -6 -16q-49 -88 -145 -145t-214 -57zM265 1131l247 374q15 21 41.5 36t72.5 15q47 0 74 -18t43 -42l244 -365h-134l-227 226l-222 -226h-139z" />
    <glyph glyph-name="Cdotaccent" unicode="&#x10a;" horiz-adv-x="1419" 
d="M847 -30q-141 0 -278.5 36.5t-249 120.5t-178.5 226t-67 353q0 198 69.5 339.5t182 230.5t244.5 131t256 42q154 0 246 -20t142.5 -42t80.5 -26l18 -318q2 -17 -22.5 -28.5t-37.5 -11.5q-3 0 -6 -0.5t-7 -0.5q-18 0 -39.5 6.5t-24.5 22.5q-18 85 -56.5 158.5
t-109.5 118.5t-186 45q-62 0 -131.5 -20.5t-131 -84.5t-100 -193.5t-38.5 -348.5q0 -208 42.5 -335t109 -193.5t139 -89.5t132.5 -23q105 0 178 47.5t116.5 124.5t60.5 167q4 19 16 26t29 7q12 0 40 -8.5t28 -25.5l-30 -295q-1 -14 -60 -47.5t-157.5 -62t-219.5 -28.5z
M826 1552q-71 0 -119.5 48t-48.5 122t48.5 122t119.5 48q70 0 119 -48t49 -122t-49 -122t-119 -48z" />
    <glyph glyph-name="cdotaccent" unicode="&#x10b;" horiz-adv-x="1040" 
d="M603 -29q-275 0 -404 142t-129 380q0 163 69.5 279.5t191.5 179t281 62.5q133 0 223.5 -41t134.5 -133q13 -26 17.5 -45.5t4.5 -38.5q0 -70 -43.5 -101t-77.5 -31t-60 16.5t-36 39.5l-97 227q-6 5 -22 12t-43 7q-101 0 -169.5 -99.5t-68.5 -336.5q0 -140 39.5 -227
t99 -127t119.5 -40q78 0 146 28.5t109 83.5q4 5 9 11.5t14 3.5l46 -21q11 -5 11 -13q0 -5 -6 -16q-49 -88 -145 -145t-214 -57zM626 1171q-71 0 -119.5 47.5t-48.5 122.5q0 74 48.5 122t119.5 48q70 0 119 -48t49 -122q0 -75 -49 -122.5t-119 -47.5z" />
    <glyph glyph-name="Ccaron" unicode="&#x10c;" horiz-adv-x="1419" 
d="M847 -30q-141 0 -278.5 36.5t-249 120.5t-178.5 226t-67 353q0 198 69.5 339.5t182 230.5t244.5 131t256 42q154 0 246 -20t142.5 -42t80.5 -26l18 -318q2 -17 -22.5 -28.5t-37.5 -11.5q-3 0 -6 -0.5t-7 -0.5q-18 0 -39.5 6.5t-24.5 22.5q-18 85 -56.5 158.5
t-109.5 118.5t-186 45q-62 0 -131.5 -20.5t-131 -84.5t-100 -193.5t-38.5 -348.5q0 -208 42.5 -335t109 -193.5t139 -89.5t132.5 -23q105 0 178 47.5t116.5 124.5t60.5 167q4 19 16 26t29 7q12 0 40 -8.5t28 -25.5l-30 -295q-1 -14 -60 -47.5t-157.5 -62t-219.5 -28.5z
M826 1562q-46 0 -73 14.5t-43 36.5l-243 345h138l221 -204l226 204h133l-243 -336q-17 -24 -43 -42t-73 -18z" />
    <glyph glyph-name="ccaron" unicode="&#x10d;" horiz-adv-x="1040" 
d="M603 -29q-275 0 -404 142t-129 380q0 163 69.5 279.5t191.5 179t281 62.5q133 0 223.5 -41t134.5 -133q13 -26 17.5 -45.5t4.5 -38.5q0 -70 -43.5 -101t-77.5 -31t-60 16.5t-36 39.5l-97 227q-6 5 -22 12t-43 7q-101 0 -169.5 -99.5t-68.5 -336.5q0 -140 39.5 -227
t99 -127t119.5 -40q78 0 146 28.5t109 83.5q4 5 9 11.5t14 3.5l46 -21q11 -5 11 -13q0 -5 -6 -16q-49 -88 -145 -145t-214 -57zM626 1131q-46 0 -73 14.5t-42 36.5l-244 355h139l221 -214l225 214h134l-248 -355q-16 -18 -40.5 -34.5t-71.5 -16.5z" />
    <glyph glyph-name="Dcaron" unicode="&#x10e;" horiz-adv-x="1655" 
d="M143 0q-17 0 -25.5 20t-8.5 31q0 33 33 37q48 4 96.5 17.5t48.5 46.5v1082q0 43 -25 62t-60.5 25.5t-66.5 9.5q-21 2 -28.5 8.5t-7.5 28.5q0 11 8.5 31t25.5 20h666q204 -1 352.5 -58t244.5 -154t142.5 -218.5t46.5 -250.5q0 -195 -69 -335t-178.5 -229t-235 -131.5
t-237.5 -42.5h-722zM586 168q0 -14 16 -29.5t60.5 -26.5t131.5 -11q92 0 172 19.5t141.5 82t96.5 189.5t35 342q0 186 -38 301.5t-102.5 178t-145.5 85.5t-169 23h-197zM808 1562q-46 0 -73 14.5t-43 36.5l-243 345h138l221 -204l226 204h133l-243 -336q-17 -24 -43 -42
t-73 -18z" />
    <glyph glyph-name="dcaron" unicode="&#x10f;" horiz-adv-x="1431" 
d="M538 -29q-162 0 -259.5 74t-140.5 193t-43 254t53.5 254t162.5 193.5t277 74.5q81 0 144.5 -14t124.5 -56l-10 161v227q0 52 -29.5 77t-75 34t-92.5 14q-11 5 -17.5 13t-6.5 27q0 12 6 28t18 16q85 6 173.5 8t160.5 2.5t108 0.5q8 0 19 -8.5t11 -32.5v-1336
q0 -64 37.5 -78.5t74.5 -18.5q21 -2 28.5 -8t7.5 -29q0 -11 -8.5 -26t-25.5 -15h-307q-59 0 -68 26.5t-8 78.5q-52 -66 -142.5 -100t-172.5 -34zM657 101q49 0 105.5 26t84.5 72v606q-17 42 -69.5 74.5t-110.5 32.5q-106 0 -165 -53.5t-83.5 -148.5t-24.5 -218
q0 -113 24 -201t81.5 -139t157.5 -51zM1295 1028l-57 48q47 63 64.5 109t17.5 84q1 30 -12 54t-40 50q-39 38 -39 87q0 48 33.5 85.5t87.5 37.5q67 0 105 -51.5t38 -118.5q0 -75 -29.5 -145t-75 -130.5t-93.5 -109.5z" />
    <glyph glyph-name="Dcroat" unicode="&#x110;" horiz-adv-x="1655" 
d="M124 0q-18 0 -26 20t-8 31q0 33 33 37q48 4 96.5 17.5t48.5 46.5v542h-139q-12 1 -18 11.5t-6 22.5q0 19 7 37t17 23h139v446q0 43 -25.5 62t-61 25.5t-65.5 9.5q-21 2 -28.5 8.5t-7.5 28.5q0 11 8 31t26 20h665q204 -1 352.5 -58t244.5 -154t142.5 -218.5t46.5 -250.5
q0 -195 -69 -335t-178.5 -229t-234.5 -131.5t-238 -42.5h-721zM567 168q0 -14 15.5 -29.5t60.5 -26.5t132 -11q91 0 171 19.5t141.5 82t96.5 189.5t35 342q0 186 -38 301.5t-102 178t-145.5 85.5t-168.5 23h-197l-1 -534h292q12 -1 18 -15t6 -26q0 -43 -24 -53h-292v-526z
" />
    <glyph glyph-name="dcroat" unicode="&#x111;" horiz-adv-x="1303" 
d="M528 -29q-162 0 -259.5 74t-140.5 193t-43 254t53.5 254t162.5 193.5t277 74.5q81 0 144.5 -14t123.5 -56l-9 161v86h-310q-12 1 -18 11.5t-6 22.5q0 19 6.5 39t17.5 24h310v44q0 52 -29.5 77t-75 34t-92.5 14q-11 5 -17.5 13t-6.5 27q0 12 6 28t18 16q85 6 173.5 8
t160.5 2.5t108 0.5q8 0 18.5 -8.5t11.5 -32.5v-223h133q12 -1 18 -16.5t6 -27.5q0 -43 -24 -53h-133v-1016q0 -64 37.5 -78.5t74.5 -18.5q21 -2 28.5 -8t7.5 -29q0 -11 -8.5 -26t-25.5 -15h-307q-59 0 -68 26.5t-8 78.5q-52 -66 -142.5 -100t-172.5 -34zM647 101
q49 0 105.5 26t84.5 72v606q-17 42 -69.5 74.5t-110.5 32.5q-106 0 -165.5 -53.5t-83.5 -148.5t-24 -218q0 -113 24 -201t81.5 -139t157.5 -51z" />
    <glyph glyph-name="Emacron" unicode="&#x112;" horiz-adv-x="1435" 
d="M108 51q0 33 33 37q48 4 97 17.5t49 46.5v1082q0 43 -25 62t-60.5 25.5t-66.5 9.5q-21 2 -28.5 8.5t-7.5 28.5q0 11 8.5 31t25.5 20h1105l35 -325q1 -17 -15.5 -25.5t-27.5 -8.5q-16 0 -37 5.5t-33 27.5q-40 75 -64 125.5t-53 76t-83 25.5h-375v-542h257q26 4 48 38
t36 73.5t17 59.5q2 20 16 26t30 6q11 0 31 -8t20 -26v-443q0 -17 -20 -25.5t-31 -8.5q-16 0 -31.5 7t-17.5 26q-2 22 -16 65t-37 78.5t-51 35.5h-251v-485q0 -55 28.5 -74t61.5 -22h288q90 0 151 61t120 211q7 19 29.5 26t38.5 7q19 0 37.5 -8t20.5 -26l-43 -372h-1175
q-17 0 -25.5 20t-8.5 31zM462 1615v148h588v-148h-588z" />
    <glyph glyph-name="emacron" unicode="&#x113;" horiz-adv-x="1116" 
d="M608 -29q-276 0 -407.5 140t-131.5 390q0 167 73 281.5t192.5 173t259.5 58.5q218 0 317.5 -92t126.5 -250q6 -36 8 -79.5t2 -85.5l-677 -1q0 -155 46 -244.5t114.5 -127.5t137.5 -38q86 0 149 26.5t106 85.5q4 5 9 11.5t15 3.5l46 -21q10 -5 10 -12q0 -6 -6 -17
q-49 -89 -145 -145.5t-245 -56.5zM374 597l375 2q0 174 -40.5 250.5t-117.5 76.5q-84 0 -144.5 -70t-72.5 -259zM306 1174v148h588v-148h-588z" />
    <glyph glyph-name="Ebreve" unicode="&#x114;" horiz-adv-x="1435" 
d="M108 51q0 33 33 37q48 4 97 17.5t49 46.5v1082q0 43 -25 62t-60.5 25.5t-66.5 9.5q-21 2 -28.5 8.5t-7.5 28.5q0 11 8.5 31t25.5 20h1105l35 -325q1 -17 -15.5 -25.5t-27.5 -8.5q-16 0 -37 5.5t-33 27.5q-40 75 -64 125.5t-53 76t-83 25.5h-375v-542h257q26 4 48 38
t36 73.5t17 59.5q2 20 16 26t30 6q11 0 31 -8t20 -26v-443q0 -17 -20 -25.5t-31 -8.5q-16 0 -31.5 7t-17.5 26q-2 22 -16 65t-37 78.5t-51 35.5h-251v-485q0 -55 28.5 -74t61.5 -22h288q90 0 151 61t120 211q7 19 29.5 26t38.5 7q19 0 37.5 -8t20.5 -26l-43 -372h-1175
q-17 0 -25.5 20t-8.5 31zM755 1589q-57 0 -119 15.5t-114.5 55.5t-84 112.5t-29.5 186.5h127q5 -84 58.5 -135.5t161.5 -51.5t162 51.5t58 135.5h127q2 -114 -29.5 -186.5t-84 -112.5t-114.5 -55.5t-119 -15.5z" />
    <glyph glyph-name="ebreve" unicode="&#x115;" horiz-adv-x="1116" 
d="M608 -29q-276 0 -407.5 140t-131.5 390q0 167 73 281.5t192.5 173t259.5 58.5q218 0 317.5 -92t126.5 -250q6 -36 8 -79.5t2 -85.5l-677 -1q0 -155 46 -244.5t114.5 -127.5t137.5 -38q86 0 149 26.5t106 85.5q4 5 9 11.5t15 3.5l46 -21q10 -5 10 -12q0 -6 -6 -17
q-49 -89 -145 -145.5t-245 -56.5zM374 597l375 2q0 174 -40.5 250.5t-117.5 76.5q-84 0 -144.5 -70t-72.5 -259zM599 1181q-57 0 -119 15.5t-114.5 55.5t-84 112.5t-29.5 186.5h127q5 -84 58.5 -135.5t161.5 -51.5t162 51.5t58 135.5h127q2 -114 -29.5 -186.5t-84 -112.5
t-114.5 -55.5t-119 -15.5z" />
    <glyph glyph-name="Edotaccent" unicode="&#x116;" horiz-adv-x="1435" 
d="M108 51q0 33 33 37q48 4 97 17.5t49 46.5v1082q0 43 -25 62t-60.5 25.5t-66.5 9.5q-21 2 -28.5 8.5t-7.5 28.5q0 11 8.5 31t25.5 20h1105l35 -325q1 -17 -15.5 -25.5t-27.5 -8.5q-16 0 -37 5.5t-33 27.5q-40 75 -64 125.5t-53 76t-83 25.5h-375v-542h257q26 4 48 38
t36 73.5t17 59.5q2 20 16 26t30 6q11 0 31 -8t20 -26v-443q0 -17 -20 -25.5t-31 -8.5q-16 0 -31.5 7t-17.5 26q-2 22 -16 65t-37 78.5t-51 35.5h-251v-485q0 -55 28.5 -74t61.5 -22h288q90 0 151 61t120 211q7 19 29.5 26t38.5 7q19 0 37.5 -8t20.5 -26l-43 -372h-1175
q-17 0 -25.5 20t-8.5 31zM755 1552q-71 0 -119.5 48t-48.5 122t48.5 122t119.5 48q70 0 119 -48t49 -122t-49 -122t-119 -48z" />
    <glyph glyph-name="edotaccent" unicode="&#x117;" horiz-adv-x="1116" 
d="M608 -29q-276 0 -407.5 140t-131.5 390q0 167 73 281.5t192.5 173t259.5 58.5q218 0 317.5 -92t126.5 -250q6 -36 8 -79.5t2 -85.5l-677 -1q0 -155 46 -244.5t114.5 -127.5t137.5 -38q86 0 149 26.5t106 85.5q4 5 9 11.5t15 3.5l46 -21q10 -5 10 -12q0 -6 -6 -17
q-49 -89 -145 -145.5t-245 -56.5zM374 597l375 2q0 174 -40.5 250.5t-117.5 76.5q-84 0 -144.5 -70t-72.5 -259zM599 1171q-71 0 -119.5 47.5t-48.5 122.5q0 74 48.5 122t119.5 48q70 0 119 -48t49 -122q0 -75 -49 -122.5t-119 -47.5z" />
    <glyph glyph-name="Eogonek" unicode="&#x118;" horiz-adv-x="1435" 
d="M108 51q0 33 33 37q48 4 97 17.5t49 46.5v1082q0 43 -25 62t-60.5 25.5t-66.5 9.5q-21 2 -28.5 8.5t-7.5 28.5q0 11 8.5 31t25.5 20h1105l35 -325q1 -17 -15.5 -25.5t-27.5 -8.5q-16 0 -37 5.5t-33 27.5q-40 75 -64 125.5t-53 76t-83 25.5h-375v-542h257q26 4 48 38
t36 73.5t17 59.5q2 20 16 26t30 6q11 0 31 -8t20 -26v-443q0 -17 -20 -25.5t-31 -8.5q-16 0 -31.5 7t-17.5 26q-2 22 -16 65t-37 78.5t-51 35.5h-251v-485q0 -55 28.5 -74t61.5 -22h288q90 0 151 61t120 211q7 19 29.5 26t38.5 7q19 0 37.5 -8t20.5 -26l-43 -372h-1175
q-17 0 -25.5 20t-8.5 31zM1208 60l24 -25q-219 -106 -219 -252q0 -59 43 -97t103 -38q28 0 49 4t56 23q8 4 18 -12t10 -40q0 -33 -25 -52q-34 -26 -92 -43.5t-118 -17.5q-136 0 -202 59t-66 137q0 69 47 132.5t130 112t190 72.5z" />
    <glyph glyph-name="eogonek" unicode="&#x119;" horiz-adv-x="1116" 
d="M608 -29q-276 0 -407.5 140t-131.5 390q0 167 73 281.5t192.5 173t259.5 58.5q218 0 317.5 -92t126.5 -250q6 -36 8 -79.5t2 -85.5l-677 -1q0 -155 46 -244.5t114.5 -127.5t137.5 -38q86 0 149 26.5t106 85.5q4 5 9 11.5t15 3.5l46 -21q10 -5 10 -12q0 -6 -6 -17
q-49 -89 -145 -145.5t-245 -56.5zM374 597l375 2q0 174 -40.5 250.5t-117.5 76.5q-84 0 -144.5 -70t-72.5 -259zM827 60l24 -25q-219 -106 -219 -252q0 -59 43 -97t103 -38q28 0 49 4t56 23q8 4 18 -12t10 -40q0 -33 -25 -52q-35 -26 -92.5 -43.5t-117.5 -17.5
q-136 0 -202 59t-66 137q0 69 47 132.5t130 112t189 72.5z" />
    <glyph glyph-name="Ecaron" unicode="&#x11a;" horiz-adv-x="1435" 
d="M108 51q0 33 33 37q48 4 97 17.5t49 46.5v1082q0 43 -25 62t-60.5 25.5t-66.5 9.5q-21 2 -28.5 8.5t-7.5 28.5q0 11 8.5 31t25.5 20h1105l35 -325q1 -17 -15.5 -25.5t-27.5 -8.5q-16 0 -37 5.5t-33 27.5q-40 75 -64 125.5t-53 76t-83 25.5h-375v-542h257q26 4 48 38
t36 73.5t17 59.5q2 20 16 26t30 6q11 0 31 -8t20 -26v-443q0 -17 -20 -25.5t-31 -8.5q-16 0 -31.5 7t-17.5 26q-2 22 -16 65t-37 78.5t-51 35.5h-251v-485q0 -55 28.5 -74t61.5 -22h288q90 0 151 61t120 211q7 19 29.5 26t38.5 7q19 0 37.5 -8t20.5 -26l-43 -372h-1175
q-17 0 -25.5 20t-8.5 31zM755 1562q-46 0 -73 14.5t-43 36.5l-243 345h138l221 -204l226 204h133l-243 -336q-17 -24 -43 -42t-73 -18z" />
    <glyph glyph-name="ecaron" unicode="&#x11b;" horiz-adv-x="1116" 
d="M608 -29q-276 0 -407.5 140t-131.5 390q0 167 73 281.5t192.5 173t259.5 58.5q218 0 317.5 -92t126.5 -250q6 -36 8 -79.5t2 -85.5l-677 -1q0 -155 46 -244.5t114.5 -127.5t137.5 -38q86 0 149 26.5t106 85.5q4 5 9 11.5t15 3.5l46 -21q10 -5 10 -12q0 -6 -6 -17
q-49 -89 -145 -145.5t-245 -56.5zM374 597l375 2q0 174 -40.5 250.5t-117.5 76.5q-84 0 -144.5 -70t-72.5 -259zM598 1131q-46 0 -73 14.5t-42 36.5l-244 355h139l221 -214l225 214h134l-248 -355q-16 -18 -40.5 -34.5t-71.5 -16.5z" />
    <glyph glyph-name="Gcircumflex" unicode="&#x11c;" horiz-adv-x="1602" 
d="M846 -30q-91 0 -195 23.5t-205.5 76t-184 138.5t-132.5 209t-50 289q0 165 49 288.5t131.5 210.5t184.5 141t210.5 78.5t207.5 24.5q194 0 317 -32.5t175 -55.5l22 -310q2 -17 -17.5 -28.5t-32.5 -11.5q-3 0 -6 -0.5t-7 -0.5q-17 0 -37.5 6.5t-23.5 22.5
q-23 84 -69.5 155.5t-125 115t-197.5 43.5q-44 0 -101.5 -14.5t-117 -53.5t-110 -111.5t-81.5 -187t-31 -280.5q0 -183 46 -306.5t117 -197t149 -105.5t141 -32q96 0 146.5 19.5t69.5 49.5t19 62v260q0 43 -30 62.5t-73 25.5t-81 9q-21 2 -28.5 8.5t-7.5 28.5q0 11 8.5 31
t25.5 20h591q18 0 26 -20t8 -31q0 -34 -33 -37q-44 -5 -80 -18t-36 -46l3 -366q-15 -22 -86.5 -58.5t-190.5 -65.5t-277 -29zM501 1559l247 348q15 21 41.5 36t72.5 15q47 0 73.5 -18t43.5 -42l244 -339h-134l-227 207l-222 -207h-139z" />
    <glyph glyph-name="gcircumflex" unicode="&#x11d;" horiz-adv-x="1139" 
d="M538 -478q-126 0 -238 29.5t-182.5 91t-70.5 156.5q0 86 52 137t135 77q-82 35 -106.5 81.5t-24.5 100.5q0 72 56.5 126t127.5 75q-99 45 -141 125t-42 165q0 142 108.5 235t322.5 93q104 0 171 -23t117 -63q31 35 76 61.5t96 26.5q62 0 110 -38t48 -120q0 -125 -88 -125
l-118 172q-43 -3 -75 -29q59 -80 59 -188q0 -94 -43.5 -170t-135 -121t-236.5 -45q-102 0 -167 19q-57 -35 -57 -99q0 -45 44.5 -59.5t114.5 -14.5h262q158 0 255.5 -77t97.5 -236q0 -85 -58 -168.5t-175 -139t-295 -55.5zM520 442q59 0 92.5 35t47 91t13.5 121
q0 98 -32.5 166.5t-121.5 68.5q-59 0 -90.5 -33t-43.5 -88t-12 -120q0 -64 12 -119t44 -88.5t91 -33.5zM565 -380q72 0 136 22t103.5 65.5t39.5 107.5q0 62 -41.5 105.5t-138.5 43.5h-188q-35 0 -87.5 5.5t-75.5 15.5q-12 -24 -21.5 -55t-9.5 -87q0 -82 45.5 -131t111 -70.5
t126.5 -21.5zM187 1131l247 374q15 21 41.5 36t72.5 15q47 0 74 -18t43 -42l244 -365h-134l-227 226l-222 -226h-139z" />
    <glyph glyph-name="Gbreve" unicode="&#x11e;" horiz-adv-x="1602" 
d="M846 -30q-91 0 -195 23.5t-205.5 76t-184 138.5t-132.5 209t-50 289q0 165 49 288.5t131.5 210.5t184.5 141t210.5 78.5t207.5 24.5q194 0 317 -32.5t175 -55.5l22 -310q2 -17 -17.5 -28.5t-32.5 -11.5q-3 0 -6 -0.5t-7 -0.5q-17 0 -37.5 6.5t-23.5 22.5
q-23 84 -69.5 155.5t-125 115t-197.5 43.5q-44 0 -101.5 -14.5t-117 -53.5t-110 -111.5t-81.5 -187t-31 -280.5q0 -183 46 -306.5t117 -197t149 -105.5t141 -32q96 0 146.5 19.5t69.5 49.5t19 62v260q0 43 -30 62.5t-73 25.5t-81 9q-21 2 -28.5 8.5t-7.5 28.5q0 11 8.5 31
t25.5 20h591q18 0 26 -20t8 -31q0 -34 -33 -37q-44 -5 -80 -18t-36 -46l3 -366q-15 -22 -86.5 -58.5t-190.5 -65.5t-277 -29zM862 1589q-57 0 -119 15.5t-114.5 55.5t-84 112.5t-29.5 186.5h127q5 -84 58.5 -135.5t161.5 -51.5t162 51.5t58 135.5h127q2 -114 -29.5 -186.5
t-84 -112.5t-114.5 -55.5t-119 -15.5z" />
    <glyph glyph-name="gbreve" unicode="&#x11f;" horiz-adv-x="1139" 
d="M538 -478q-126 0 -238 29.5t-182.5 91t-70.5 156.5q0 86 52 137t135 77q-82 35 -106.5 81.5t-24.5 100.5q0 72 56.5 126t127.5 75q-99 45 -141 125t-42 165q0 142 108.5 235t322.5 93q104 0 171 -23t117 -63q31 35 76 61.5t96 26.5q62 0 110 -38t48 -120q0 -125 -88 -125
l-118 172q-43 -3 -75 -29q59 -80 59 -188q0 -94 -43.5 -170t-135 -121t-236.5 -45q-102 0 -167 19q-57 -35 -57 -99q0 -45 44.5 -59.5t114.5 -14.5h262q158 0 255.5 -77t97.5 -236q0 -85 -58 -168.5t-175 -139t-295 -55.5zM520 442q59 0 92.5 35t47 91t13.5 121
q0 98 -32.5 166.5t-121.5 68.5q-59 0 -90.5 -33t-43.5 -88t-12 -120q0 -64 12 -119t44 -88.5t91 -33.5zM565 -380q72 0 136 22t103.5 65.5t39.5 107.5q0 62 -41.5 105.5t-138.5 43.5h-188q-35 0 -87.5 5.5t-75.5 15.5q-12 -24 -21.5 -55t-9.5 -87q0 -82 45.5 -131t111 -70.5
t126.5 -21.5zM548 1181q-57 0 -119 15.5t-114.5 55.5t-84 112.5t-29.5 186.5h127q5 -84 58.5 -135.5t161.5 -51.5t162 51.5t58 135.5h127q2 -114 -29.5 -186.5t-84 -112.5t-114.5 -55.5t-119 -15.5z" />
    <glyph glyph-name="Gdotaccent" unicode="&#x120;" horiz-adv-x="1602" 
d="M846 -30q-91 0 -195 23.5t-205.5 76t-184 138.5t-132.5 209t-50 289q0 165 49 288.5t131.5 210.5t184.5 141t210.5 78.5t207.5 24.5q194 0 317 -32.5t175 -55.5l22 -310q2 -17 -17.5 -28.5t-32.5 -11.5q-3 0 -6 -0.5t-7 -0.5q-17 0 -37.5 6.5t-23.5 22.5
q-23 84 -69.5 155.5t-125 115t-197.5 43.5q-44 0 -101.5 -14.5t-117 -53.5t-110 -111.5t-81.5 -187t-31 -280.5q0 -183 46 -306.5t117 -197t149 -105.5t141 -32q96 0 146.5 19.5t69.5 49.5t19 62v260q0 43 -30 62.5t-73 25.5t-81 9q-21 2 -28.5 8.5t-7.5 28.5q0 11 8.5 31
t25.5 20h591q18 0 26 -20t8 -31q0 -34 -33 -37q-44 -5 -80 -18t-36 -46l3 -366q-15 -22 -86.5 -58.5t-190.5 -65.5t-277 -29zM862 1552q-71 0 -119.5 48t-48.5 122t48.5 122t119.5 48q70 0 119 -48t49 -122t-49 -122t-119 -48z" />
    <glyph glyph-name="gdotaccent" unicode="&#x121;" horiz-adv-x="1139" 
d="M538 -478q-126 0 -238 29.5t-182.5 91t-70.5 156.5q0 86 52 137t135 77q-82 35 -106.5 81.5t-24.5 100.5q0 72 56.5 126t127.5 75q-99 45 -141 125t-42 165q0 142 108.5 235t322.5 93q104 0 171 -23t117 -63q31 35 76 61.5t96 26.5q62 0 110 -38t48 -120q0 -125 -88 -125
l-118 172q-43 -3 -75 -29q59 -80 59 -188q0 -94 -43.5 -170t-135 -121t-236.5 -45q-102 0 -167 19q-57 -35 -57 -99q0 -45 44.5 -59.5t114.5 -14.5h262q158 0 255.5 -77t97.5 -236q0 -85 -58 -168.5t-175 -139t-295 -55.5zM520 442q59 0 92.5 35t47 91t13.5 121
q0 98 -32.5 166.5t-121.5 68.5q-59 0 -90.5 -33t-43.5 -88t-12 -120q0 -64 12 -119t44 -88.5t91 -33.5zM565 -380q72 0 136 22t103.5 65.5t39.5 107.5q0 62 -41.5 105.5t-138.5 43.5h-188q-35 0 -87.5 5.5t-75.5 15.5q-12 -24 -21.5 -55t-9.5 -87q0 -82 45.5 -131t111 -70.5
t126.5 -21.5zM548 1171q-71 0 -119.5 47.5t-48.5 122.5q0 74 48.5 122t119.5 48q70 0 119 -48t49 -122q0 -75 -49 -122.5t-119 -47.5z" />
    <glyph glyph-name="uni0122" unicode="&#x122;" horiz-adv-x="1602" 
d="M846 -30q-91 0 -195 23.5t-205.5 76t-184 138.5t-132.5 209t-50 289q0 165 49 288.5t131.5 210.5t184.5 141t210.5 78.5t207.5 24.5q194 0 317 -32.5t175 -55.5l22 -310q2 -17 -17.5 -28.5t-32.5 -11.5q-3 0 -6 -0.5t-7 -0.5q-17 0 -37.5 6.5t-23.5 22.5
q-23 84 -69.5 155.5t-125 115t-197.5 43.5q-44 0 -101.5 -14.5t-117 -53.5t-110 -111.5t-81.5 -187t-31 -280.5q0 -183 46 -306.5t117 -197t149 -105.5t141 -32q96 0 146.5 19.5t69.5 49.5t19 62v260q0 43 -30 62.5t-73 25.5t-81 9q-21 2 -28.5 8.5t-7.5 28.5q0 11 8.5 31
t25.5 20h591q18 0 26 -20t8 -31q0 -34 -33 -37q-44 -5 -80 -18t-36 -46l3 -366q-15 -22 -86.5 -58.5t-190.5 -65.5t-277 -29zM859 -130q59 0 100.5 -47t41.5 -144q0 -69 -24.5 -134t-62.5 -115.5t-80 -75.5q-9 -6 -23 -6q-17 0 -31.5 8t-14.5 23q0 14 15 31q22 23 40 71.5
t18 109.5q-43 0 -82.5 36t-39.5 101q0 75 43 108.5t100 33.5z" />
    <glyph glyph-name="uni0123" unicode="&#x123;" horiz-adv-x="1139" 
d="M538 -478q-126 0 -238 29.5t-182.5 91t-70.5 156.5q0 86 52 137t135 77q-82 35 -106.5 81.5t-24.5 100.5q0 72 56.5 126t127.5 75q-99 45 -141 125t-42 165q0 142 108.5 235t322.5 93q104 0 171 -23t117 -63q31 35 76 61.5t96 26.5q62 0 110 -38t48 -120q0 -125 -88 -125
l-118 172q-43 -3 -75 -29q59 -80 59 -188q0 -94 -43.5 -170t-135 -121t-236.5 -45q-102 0 -167 19q-57 -35 -57 -99q0 -45 44.5 -59.5t114.5 -14.5h262q158 0 255.5 -77t97.5 -236q0 -85 -58 -168.5t-175 -139t-295 -55.5zM520 442q59 0 92.5 35t47 91t13.5 121
q0 98 -32.5 166.5t-121.5 68.5q-59 0 -90.5 -33t-43.5 -88t-12 -120q0 -64 12 -119t44 -88.5t91 -33.5zM565 -380q72 0 136 22t103.5 65.5t39.5 107.5q0 62 -41.5 105.5t-138.5 43.5h-188q-35 0 -87.5 5.5t-75.5 15.5q-12 -24 -21.5 -55t-9.5 -87q0 -82 45.5 -131t111 -70.5
t126.5 -21.5zM567 1158q-67 0 -111.5 49.5t-44.5 131.5q0 94 58.5 187t183.5 146l34 -68q-123 -63 -132 -179q71 -6 107.5 -43t36.5 -91q0 -58 -39 -95.5t-93 -37.5z" />
    <glyph glyph-name="Hcircumflex" unicode="&#x124;" horiz-adv-x="1809" 
d="M142 0q-17 0 -25.5 20t-8.5 31q0 34 33 37q48 4 92 17.5t44 46.5v1082q0 43 -22.5 62.5t-55.5 25.5t-64 9q-21 2 -28.5 8.5t-7.5 28.5q0 11 8.5 31t25.5 20h585q17 0 25.5 -20t8.5 -31q0 -34 -33 -37q-50 -4 -97.5 -17.5t-47.5 -46.5v-458h661v425q0 43 -25 62
t-60.5 25.5t-66.5 9.5q-21 2 -28.5 8.5t-7.5 28.5q0 11 8.5 31t25.5 20h595q17 0 25.5 -20t8.5 -31q0 -34 -33 -37q-50 -4 -97.5 -17.5t-47.5 -46.5v-1082q0 -43 25 -62t60 -25t66 -10q21 -2 28.5 -8t7.5 -29q0 -11 -8.5 -31t-25.5 -20h-595q-17 0 -25.5 20t-8.5 31
q0 34 33 37q48 4 97 17.5t49 46.5v539h-661v-506q0 -43 25 -62.5t60 -25.5t66 -9q21 -2 28.5 -8t7.5 -29q0 -11 -8.5 -31t-25.5 -20h-585zM540 1559l247 348q15 21 41.5 36t72.5 15q47 0 73.5 -18t43.5 -42l244 -339h-134l-227 207l-222 -207h-139z" />
    <glyph glyph-name="hcircumflex" unicode="&#x125;" horiz-adv-x="1331" 
d="M75 0q-18 0 -26 15t-8 26q0 33 33 37q36 3 76 15.5t40 41.5v1197q0 62 -26 84.5t-61 26.5t-62 11q-11 5 -17.5 13.5t-6.5 26.5q0 12 6 28t18 17q129 8 232.5 10.5t159.5 2.5q8 0 17.5 -8.5t12.5 -32.5v-485l-7 -181q20 21 81.5 61.5t149 74t182.5 33.5q72 0 135 -20.5
t102 -78.5t39 -170v-577q0 -44 24 -61.5t56 -21t57 -7.5q17 -2 25 -8.5t8 -28.5q0 -11 -8.5 -26t-25.5 -15h-510q-18 0 -26 15t-8 26q0 16 5.5 25.5t25.5 11.5q31 2 68.5 17t37.5 40v609q0 20 -6 48.5t-31.5 50.5t-84.5 22q-57 0 -114 -20.5t-104 -49.5t-71 -55v-572
q0 -40 18.5 -58t45.5 -23.5t51 -8.5q21 -2 28.5 -8t7.5 -29q0 -11 -8.5 -26t-25.5 -15h-505zM-51 1609l247 348q15 21 41.5 36t72.5 15q47 0 73.5 -18t43.5 -42l244 -339h-134l-227 207l-222 -207h-139z" />
    <glyph glyph-name="Hbar" unicode="&#x126;" horiz-adv-x="1809" 
d="M123 0q-17 0 -25.5 20t-8.5 31q0 33 33 37q48 4 92 17.5t44 46.5v735h-156q-12 1 -18 21.5t-6 32.5q0 43 24 53h156v240q0 43 -23 62.5t-56 26t-63 8.5q-21 2 -28.5 8.5t-7.5 28.5q0 11 8.5 31t25.5 20h585q18 0 26 -20t8 -31q0 -33 -33 -37q-50 -4 -97.5 -17.5
t-47.5 -46.5v-273h651v240q0 43 -25.5 62.5t-60.5 26t-66 8.5q-21 2 -28.5 8.5t-7.5 28.5q0 11 8.5 31t25.5 20h595q18 0 26 -20t8 -31q0 -33 -33 -37q-50 -4 -97.5 -17.5t-47.5 -46.5v-273h179q12 -1 18 -11.5t6 -22.5q0 -19 -7 -43.5t-17 -29.5h-179v-702q0 -43 25 -62.5
t60.5 -25.5t65.5 -9q21 -2 28.5 -8t7.5 -29q0 -11 -8 -31t-26 -20h-595q-17 0 -25.5 20t-8.5 31q0 33 33 37q48 4 97 17.5t49 46.5v357h-651v-324q0 -43 25 -62.5t60.5 -25.5t65.5 -9q21 -2 28.5 -8t7.5 -29q0 -11 -8 -31t-26 -20h-585zM555 630h651v257h-651v-257z" />
    <glyph glyph-name="hbar" unicode="&#x127;" horiz-adv-x="1331" 
d="M13 0q-18 0 -26 15t-8 26q0 33 33 37q36 3 76 15.5t40 41.5v1056h-144q-12 1 -18 11.5t-6 22.5q0 19 6.5 39t17.5 24h144v44q0 62 -26 84.5t-61 26.5t-62 11q-11 5 -17.5 13.5t-6.5 26.5q0 12 6 28t18 17q129 8 232.5 10.5t158.5 2.5q9 0 18.5 -8.5t11.5 -32.5v-223h255
q12 -1 18 -16.5t6 -27.5q0 -43 -24 -53h-255v-165l-6 -181q20 21 81.5 61.5t148.5 74t183 33.5q72 0 135 -20.5t102 -78.5t39 -170v-577q0 -44 24 -61.5t56 -21t57 -7.5q16 -2 24.5 -8.5t8.5 -28.5q0 -11 -8.5 -26t-25.5 -15h-511q-17 0 -25.5 15t-8.5 26q0 16 5.5 25.5
t25.5 11.5q32 2 69 17t37 40v609q0 20 -5.5 48.5t-31 50.5t-85.5 22q-56 0 -113.5 -20.5t-104 -49.5t-71.5 -55v-572q0 -40 19 -58t45.5 -23.5t51.5 -8.5q21 -2 28.5 -8t7.5 -29q0 -11 -9 -26t-25 -15h-505z" />
    <glyph glyph-name="Itilde" unicode="&#x128;" horiz-adv-x="878" 
d="M146 0q-17 0 -25.5 20t-8.5 31q0 34 33 37q48 4 96.5 17.5t48.5 46.5l1 1082q0 43 -25 62.5t-60.5 25.5t-66.5 9q-21 2 -28.5 8.5t-7.5 28.5q0 11 8.5 31t25.5 20h596q17 0 25.5 -20t8.5 -31q0 -34 -33 -37q-51 -4 -98 -17.5t-47 -46.5l-1 -1082q0 -43 25 -62.5
t60.5 -25.5t66.5 -9q21 -2 28.5 -8t7.5 -29q0 -11 -8.5 -31t-25.5 -20h-596zM580 1557q-47 0 -88.5 20.5t-80 46.5t-76 46.5t-76.5 20.5q-46 0 -69.5 -23.5t-38.5 -46.5t-35 -23q-18 0 -35.5 21.5t-17.5 46.5q0 34 30.5 81t83 82.5t120.5 35.5q46 0 85.5 -20.5t76 -47
t74 -46.5t79.5 -20q47 0 71.5 23t40 46.5t35.5 23.5q18 0 36 -22t18 -46q0 -35 -31.5 -82t-84 -82t-117.5 -35z" />
    <glyph glyph-name="itilde" unicode="&#x129;" horiz-adv-x="686" 
d="M105 0q-17 0 -25.5 15t-8.5 26q0 34 33 37q37 3 76 15.5t39 41.5l1 643q0 62 -26 84.5t-61 26.5t-62 11q-10 5 -17 13t-7 27q0 12 6 27.5t18 16.5q130 8 235.5 10.5t160.5 2.5q8 0 18.5 -8t11.5 -32v-789q0 -40 20 -58t48.5 -23.5t53.5 -8.5q21 -2 28.5 -8t7.5 -29
q0 -11 -9 -26t-25 -15h-516zM469 1118q-41 1 -76 21.5t-66.5 47.5t-62 47.5t-63.5 20.5q-41 0 -63 -24t-36 -47.5t-33 -23.5q-16 0 -32 22t-16 47q0 31 28 77t76.5 81.5t111.5 35.5q39 0 71.5 -20.5t62 -48t61 -48t67.5 -20.5q43 0 65.5 23.5t37 47.5t33.5 24q16 0 32.5 -22
t16.5 -47q0 -36 -29 -81.5t-77.5 -79t-108.5 -33.5z" />
    <glyph glyph-name="Imacron" unicode="&#x12a;" horiz-adv-x="878" 
d="M146 0q-17 0 -25.5 20t-8.5 31q0 34 33 37q48 4 96.5 17.5t48.5 46.5l1 1082q0 43 -25 62.5t-60.5 25.5t-66.5 9q-21 2 -28.5 8.5t-7.5 28.5q0 11 8.5 31t25.5 20h596q17 0 25.5 -20t8.5 -31q0 -34 -33 -37q-51 -4 -98 -17.5t-47 -46.5l-1 -1082q0 -43 25 -62.5
t60.5 -25.5t66.5 -9q21 -2 28.5 -8t7.5 -29q0 -11 -8.5 -31t-25.5 -20h-596zM145 1615v148h588v-148h-588z" />
    <glyph glyph-name="imacron" unicode="&#x12b;" horiz-adv-x="686" 
d="M105 0q-17 0 -25.5 15t-8.5 26q0 34 33 37q37 3 76 15.5t39 41.5l1 643q0 62 -26 84.5t-61 26.5t-62 11q-10 5 -17 13t-7 27q0 12 6 27.5t18 16.5q130 8 235.5 10.5t160.5 2.5q8 0 18.5 -8t11.5 -32v-789q0 -40 20 -58t48.5 -23.5t53.5 -8.5q21 -2 28.5 -8t7.5 -29
q0 -11 -9 -26t-25 -15h-516zM60 1174v148h588v-148h-588z" />
    <glyph glyph-name="Ibreve" unicode="&#x12c;" horiz-adv-x="878" 
d="M146 0q-17 0 -25.5 20t-8.5 31q0 34 33 37q48 4 96.5 17.5t48.5 46.5l1 1082q0 43 -25 62.5t-60.5 25.5t-66.5 9q-21 2 -28.5 8.5t-7.5 28.5q0 11 8.5 31t25.5 20h596q17 0 25.5 -20t8.5 -31q0 -34 -33 -37q-51 -4 -98 -17.5t-47 -46.5l-1 -1082q0 -43 25 -62.5
t60.5 -25.5t66.5 -9q21 -2 28.5 -8t7.5 -29q0 -11 -8.5 -31t-25.5 -20h-596zM438 1589q-57 0 -119 15.5t-114.5 55.5t-84 112.5t-29.5 186.5h127q5 -84 58.5 -135.5t161.5 -51.5t162 51.5t58 135.5h127q2 -114 -29.5 -186.5t-84 -112.5t-114.5 -55.5t-119 -15.5z" />
    <glyph glyph-name="ibreve" unicode="&#x12d;" horiz-adv-x="686" 
d="M105 0q-17 0 -25.5 15t-8.5 26q0 34 33 37q37 3 76 15.5t39 41.5l1 643q0 62 -26 84.5t-61 26.5t-62 11q-10 5 -17 13t-7 27q0 12 6 27.5t18 16.5q130 8 235.5 10.5t160.5 2.5q8 0 18.5 -8t11.5 -32v-789q0 -40 20 -58t48.5 -23.5t53.5 -8.5q21 -2 28.5 -8t7.5 -29
q0 -11 -9 -26t-25 -15h-516zM353 1181q-57 0 -119 15.5t-114.5 55.5t-84 112.5t-29.5 186.5h127q5 -84 58.5 -135.5t161.5 -51.5t162 51.5t58 135.5h127q2 -114 -29.5 -186.5t-84 -112.5t-114.5 -55.5t-119 -15.5z" />
    <glyph glyph-name="Iogonek" unicode="&#x12e;" horiz-adv-x="878" 
d="M146 0q-17 0 -25.5 20t-8.5 31q0 34 33 37q48 4 96.5 17.5t48.5 46.5l1 1082q0 43 -25 62.5t-60.5 25.5t-66.5 9q-21 2 -28.5 8.5t-7.5 28.5q0 11 8.5 31t25.5 20h596q17 0 25.5 -20t8.5 -31q0 -34 -33 -37q-51 -4 -98 -17.5t-47 -46.5l-1 -1082q0 -43 25 -62.5
t60.5 -25.5t66.5 -9q21 -2 28.5 -8t7.5 -29q0 -11 -8.5 -31t-25.5 -20h-596zM553 60l24 -25q-219 -106 -219 -252q0 -59 43 -97t103 -38q28 0 49 4t56 23q8 4 18 -12t10 -40q0 -33 -25 -52q-34 -26 -92 -43.5t-118 -17.5q-136 0 -202 59t-66 137q0 69 47 132.5t130 112
t190 72.5z" />
    <glyph glyph-name="iogonek" unicode="&#x12f;" horiz-adv-x="686" 
d="M105 0q-17 0 -25.5 15t-8.5 26q0 34 33 37q37 3 76 15.5t39 41.5l1 643q0 62 -26 84.5t-61 26.5t-62 11q-10 5 -17 13t-7 27q0 12 6 27.5t18 16.5q130 8 235.5 10.5t160.5 2.5q8 0 18.5 -8t11.5 -32v-789q0 -40 20 -58t48.5 -23.5t53.5 -8.5q21 -2 28.5 -8t7.5 -29
q0 -11 -9 -26t-25 -15h-516zM353 1171q-71 0 -119.5 47.5t-48.5 122.5q0 74 48.5 122t119.5 48q70 0 119 -48t49 -122q0 -75 -49 -122.5t-119 -47.5zM514 60l24 -25q-219 -106 -219 -252q0 -59 43 -97t103 -38q28 0 49 4t56 23q8 4 18 -12t10 -40q0 -33 -25 -52
q-35 -26 -92.5 -43.5t-117.5 -17.5q-136 0 -202 59t-66 137q0 69 47 132.5t130 112t189 72.5z" />
    <glyph glyph-name="Idotaccent" unicode="&#x130;" horiz-adv-x="878" 
d="M146 0q-17 0 -25.5 20t-8.5 31q0 34 33 37q48 4 96.5 17.5t48.5 46.5l1 1082q0 43 -25 62.5t-60.5 25.5t-66.5 9q-21 2 -28.5 8.5t-7.5 28.5q0 11 8.5 31t25.5 20h596q17 0 25.5 -20t8.5 -31q0 -34 -33 -37q-51 -4 -98 -17.5t-47 -46.5l-1 -1082q0 -43 25 -62.5
t60.5 -25.5t66.5 -9q21 -2 28.5 -8t7.5 -29q0 -11 -8.5 -31t-25.5 -20h-596zM438 1552q-71 0 -119.5 48t-48.5 122t48.5 122t119.5 48q70 0 119 -48t49 -122t-49 -122t-119 -48z" />
    <glyph glyph-name="dotlessi" unicode="&#x131;" horiz-adv-x="686" 
d="M105 0q-17 0 -25.5 15t-8.5 26q0 34 33 37q37 3 76 15.5t39 41.5l1 643q0 62 -26 84.5t-61 26.5t-62 11q-10 5 -17 13t-7 27q0 12 6 27.5t18 16.5q130 8 235.5 10.5t160.5 2.5q8 0 18.5 -8t11.5 -32v-789q0 -40 20 -58t48.5 -23.5t53.5 -8.5q21 -2 28.5 -8t7.5 -29
q0 -11 -9 -26t-25 -15h-516z" />
    <glyph glyph-name="IJ" unicode="&#x132;" horiz-adv-x="2049" 
d="M146 0q-17 0 -25.5 20t-8.5 31q0 34 33 37q48 4 96.5 17.5t48.5 46.5l1 1082q0 43 -25 62.5t-60.5 25.5t-66.5 9q-21 2 -28.5 8.5t-7.5 28.5q0 11 8.5 31t25.5 20h596q17 0 25.5 -20t8.5 -31q0 -34 -33 -37q-51 -4 -98 -17.5t-47 -46.5l-1 -1082q0 -43 25 -62.5
t60.5 -25.5t66.5 -9q21 -2 28.5 -8t7.5 -29q0 -11 -8.5 -31t-25.5 -20h-596zM1313 -30q-70 0 -151 29.5t-150 89.5q-50 44 -71.5 102t-21.5 115q0 98 49.5 156t141.5 58q49 0 79 -22t30 -43l-54 -362q28 -15 63 -24.5t76 -9.5q106 0 160.5 81.5t54.5 265.5l1 828
q0 43 -29.5 62.5t-72 26t-82.5 8.5q-21 2 -28.5 8.5t-7.5 28.5q0 11 8.5 31t25.5 20h632q17 0 25.5 -20t8.5 -31q0 -35 -33 -37q-66 -3 -110 -17t-44 -47v-828q0 -147 -48.5 -239t-125 -142t-163 -69t-163.5 -19z" />
    <glyph glyph-name="ij" unicode="&#x133;" horiz-adv-x="1361" 
d="M105 0q-17 0 -25.5 15t-8.5 26q0 34 33 37q37 3 76 15.5t39 41.5l1 643q0 62 -26 84.5t-61 26.5t-62 11q-10 5 -17 13t-7 27q0 12 6 27.5t18 16.5q130 8 235.5 10.5t160.5 2.5q8 0 18.5 -8t11.5 -32v-789q0 -40 20 -58t48.5 -23.5t53.5 -8.5q21 -2 28.5 -8t7.5 -29
q0 -11 -9 -26t-25 -15h-516zM353 1171q-71 0 -119.5 47.5t-48.5 122.5q0 74 48.5 122t119.5 48q70 0 119 -48t49 -122q0 -75 -49 -122.5t-119 -47.5zM793 -449q-79 0 -133 28t-81.5 69.5t-27.5 80.5q0 56 38.5 93t82.5 37q27 0 43.5 -15t40.5 -59.5t74 -131.5q42 1 64.5 72
t22.5 230l1 823q0 62 -28.5 84.5t-66 26.5t-64.5 11q-10 5 -17 13t-7 27q0 12 6 27.5t18 16.5q129 8 239.5 10.5t166.5 2.5q8 0 18.5 -8t11.5 -32l-1 -891q0 -100 -16 -192.5t-58 -165t-121 -115t-206 -42.5zM1027 1171q-71 0 -119.5 47.5t-48.5 122.5q0 74 48.5 122
t119.5 48q70 0 119 -48t49 -122q0 -75 -49 -122.5t-119 -47.5z" />
    <glyph glyph-name="Jcircumflex" unicode="&#x134;" horiz-adv-x="1171" 
d="M435 -30q-70 0 -151 29.5t-150 89.5q-50 44 -71.5 102t-21.5 115q0 98 49.5 156t141.5 58q49 0 79 -22t30 -43l-54 -362q28 -15 63 -24.5t76 -9.5q106 0 160.5 81.5t54.5 265.5l1 828q0 43 -29.5 62.5t-72 26t-82.5 8.5q-21 2 -28.5 8.5t-7.5 28.5q0 11 8.5 31t25.5 20
h632q17 0 25.5 -20t8.5 -31q0 -35 -33 -37q-66 -3 -110 -17t-44 -47v-828q0 -147 -48.5 -239t-125 -142t-163 -69t-163.5 -19zM423 1559l247 348q15 21 41.5 36t72.5 15q47 0 73.5 -18t43.5 -42l244 -339h-134l-227 207l-222 -207h-139z" />
    <glyph glyph-name="jcircumflex" unicode="&#x135;" horiz-adv-x="675" 
d="M107 -449q-79 0 -133 28t-81.5 69.5t-27.5 80.5q0 56 38.5 93t82.5 37q27 0 43.5 -15t40.5 -59.5t74 -131.5q42 1 64.5 72t22.5 230l1 823q0 62 -28.5 84.5t-66 26.5t-64.5 11q-10 5 -17 13t-7 27q0 12 6 27.5t18 16.5q129 8 239.5 10.5t166.5 2.5q8 0 18.5 -8t11.5 -32
l-1 -891q0 -100 -16 -192.5t-58 -165t-121 -115t-206 -42.5zM-20 1131l247 374q15 21 41.5 36t72.5 15q47 0 74 -18t43 -42l244 -365h-134l-227 226l-222 -226h-139z" />
    <glyph glyph-name="uni0136" unicode="&#x136;" horiz-adv-x="1597" 
d="M142 0q-17 0 -25.5 20t-8.5 31q0 33 33 37q48 4 96.5 21t48.5 50l1 1075q0 43 -25 62t-60.5 25.5t-66.5 9.5q-21 2 -28.5 8.5t-7.5 28.5q0 11 8.5 31t25.5 20h586q17 0 25.5 -20t8.5 -31q0 -34 -33 -37q-43 -3 -89 -17t-46 -47l-1 -1082q0 -43 22.5 -62t55.5 -25t64 -10
q21 -2 28.5 -8t7.5 -29q0 -11 -8.5 -31t-25.5 -20h-586zM1191 0q-35 0 -65.5 28.5t-65.5 81.5q-40 61 -83 139t-88.5 157t-92.5 145.5t-94.5 107t-94.5 39.5l515 578q9 10 9 18q0 13 -21 20.5t-48 10.5t-46 5t-25 11.5t-6 25.5q0 11 8 31.5t26 20.5h480q17 0 25.5 -20.5
t8.5 -31.5q0 -37 -33 -37q-51 0 -107.5 -18t-92.5 -51l-396 -419q42 -22 96 -88t112.5 -154t115 -176t102.5 -153q62 -86 117.5 -132t91.5 -50t36 -47q0 -12 -8.5 -27t-25.5 -15h-350zM872 -130q59 0 100.5 -47t41.5 -144q0 -69 -24.5 -134t-62.5 -115.5t-80 -75.5
q-9 -6 -23 -6q-17 0 -31.5 8t-14.5 23q0 14 15 31q22 23 40 71.5t18 109.5q-43 0 -82.5 36t-39.5 101q0 75 43 108.5t100 33.5z" />
    <glyph glyph-name="uni0137" unicode="&#x137;" horiz-adv-x="1234" 
d="M77 0q-17 0 -25.5 15t-8.5 26q0 33 33 37q37 3 69.5 15.5t32.5 41.5v1197q0 62 -26 84.5t-61 26.5t-62 11q-10 5 -17 13.5t-7 26.5q0 12 6 28t18 17q129 8 232.5 10.5t159.5 2.5q8 0 19 -8.5t11 -32.5v-1031l370 362q11 9 11 17q0 20 -43.5 32.5t-82.5 14.5
q-20 2 -25.5 14.5t-5.5 28.5q0 11 8 28t26 17h441q18 0 26 -17t8 -28q0 -18 -8 -30.5t-25 -12.5q-48 0 -99 -22.5t-88 -51.5l-185 -178q57 -111 134.5 -241t146.5 -234q28 -42 63 -69.5t69 -31.5q16 -2 24.5 -8.5t8.5 -28.5q0 -11 -8.5 -26t-25.5 -15h-358q-20 16 -51.5 72
t-68 130.5t-71 147t-59.5 120.5l-132 -129v-173q0 -60 32.5 -73t69.5 -17q21 -2 28.5 -8t7.5 -29q0 -11 -8.5 -26t-25.5 -15h-478zM593 -136q67 0 111.5 -45.5t44.5 -135.5q0 -89 -58 -173.5t-186 -111.5l-34 67q54 16 88 46.5t44 85.5q-71 6 -106.5 43t-35.5 91
q0 58 39 95.5t93 37.5z" />
    <glyph glyph-name="kgreenlandic" unicode="&#x138;" horiz-adv-x="1255" 
d="M107 0q-17 0 -25.5 10t-8.5 21q0 33 33 37q37 4 71.5 17.5t34.5 46.5v656q0 62 -24 85t-57 28t-58 12q-10 4 -17 12.5t-7 27.5q0 12 6 22.5t18 11.5q127 8 229.5 9t156.5 1q8 0 17.5 -8t12.5 -32v-437l352 314q18 16 18 25q0 37 -125 51q-20 2 -25.5 13.5t-5.5 27.5
q0 11 8.5 26t25.5 15h433q17 0 25.5 -15t8.5 -26q0 -41 -33 -41q-49 0 -101.5 -25t-86.5 -53l-235 -207q46 -55 102.5 -134.5t116.5 -161.5t116 -144q41 -42 77 -73.5t74 -36.5q16 -2 24.5 -8.5t8.5 -28.5q0 -11 -8.5 -24.5t-25.5 -13.5h-464q-17 0 -25.5 13.5t-8.5 24.5
q0 16 6 25.5t25 11.5q15 2 27 10.5t12 22.5t-11 31q-56 90 -118 180.5t-117 155.5l-70 -63v-247q0 -64 30.5 -78.5t67.5 -18.5q21 -2 28.5 -8t7.5 -29q0 -11 -9 -21t-25 -10h-482z" />
    <glyph glyph-name="Lacute" unicode="&#x139;" horiz-adv-x="1353" 
d="M143 0q-17 0 -25.5 20t-8.5 31q0 34 33 37q48 4 95 21t47 50v1075q0 43 -23 62.5t-57.5 25.5t-68.5 9q-21 2 -28.5 8.5t-7.5 28.5q0 11 8.5 31t25.5 20h633q17 0 25.5 -20t8.5 -31q0 -37 -33 -37q-74 0 -129 -19t-55 -75v-1060q0 -49 28.5 -62.5t65.5 -13.5h277
q46 0 92 54.5t84.5 133.5t62.5 151q6 18 30 25.5t40 7.5q18 0 36 -8.5t15 -25.5l-56 -439h-1115zM513 1540l-56 58q118 142 187 245.5t92 126.5q16 15 41 25.5t52 10.5q47 0 79 -33q30 -33 30 -79q0 -52 -34 -85q-23 -23 -130.5 -85t-260.5 -184z" />
    <glyph glyph-name="lacute" unicode="&#x13a;" horiz-adv-x="669" 
d="M79 0q-17 0 -26 14t-9 27q0 34 33 37q36 3 75.5 15.5t39.5 41.5l1 1196q0 63 -30 85.5t-69 26.5t-67 11q-11 5 -17.5 13.5t-6.5 26.5q0 12 6 28t18 17q127 8 238 10.5t167 2.5q8 0 18.5 -8.5t11.5 -32.5v-1343q0 -40 20.5 -58t49 -23.5t52.5 -8.5q21 -2 28.5 -8.5
t7.5 -27.5q0 -13 -9 -27.5t-26 -14.5h-506zM177 1579l-56 58q118 142 187 245.5t92 126.5q16 15 41 25.5t52 10.5q47 0 79 -33q30 -33 30 -79q0 -52 -34 -85q-23 -23 -130.5 -85t-260.5 -184z" />
    <glyph glyph-name="uni013B" unicode="&#x13b;" horiz-adv-x="1353" 
d="M143 0q-17 0 -25.5 20t-8.5 31q0 34 33 37q48 4 95 21t47 50v1075q0 43 -23 62.5t-57.5 25.5t-68.5 9q-21 2 -28.5 8.5t-7.5 28.5q0 11 8.5 31t25.5 20h633q17 0 25.5 -20t8.5 -31q0 -37 -33 -37q-74 0 -129 -19t-55 -75v-1060q0 -49 28.5 -62.5t65.5 -13.5h277
q46 0 92 54.5t84.5 133.5t62.5 151q6 18 30 25.5t40 7.5q18 0 36 -8.5t15 -25.5l-56 -439h-1115zM659 -130q59 0 100.5 -47t41.5 -144q0 -69 -24.5 -134t-62.5 -115.5t-80 -75.5q-9 -6 -23 -6q-17 0 -31.5 8t-14.5 23q0 14 15 31q22 23 40 71.5t18 109.5q-43 0 -82.5 36
t-39.5 101q0 75 43 108.5t100 33.5z" />
    <glyph glyph-name="uni013C" unicode="&#x13c;" horiz-adv-x="669" 
d="M79 0q-17 0 -26 14t-9 27q0 34 33 37q36 3 75.5 15.5t39.5 41.5l1 1196q0 63 -30 85.5t-69 26.5t-67 11q-11 5 -17.5 13.5t-6.5 26.5q0 12 6 28t18 17q127 8 238 10.5t167 2.5q8 0 18.5 -8.5t11.5 -32.5v-1343q0 -40 20.5 -58t49 -23.5t52.5 -8.5q21 -2 28.5 -8.5
t7.5 -27.5q0 -13 -9 -27.5t-26 -14.5h-506zM318 -136q67 0 111.5 -45.5t44.5 -135.5q0 -89 -58 -173.5t-186 -111.5l-34 67q54 16 88 46.5t44 85.5q-71 6 -106.5 43t-35.5 91q0 58 39 95.5t93 37.5z" />
    <glyph glyph-name="Lcaron" unicode="&#x13d;" horiz-adv-x="1353" 
d="M143 0q-17 0 -25.5 20t-8.5 31q0 34 33 37q48 4 95 21t47 50v1075q0 43 -23 62.5t-57.5 25.5t-68.5 9q-21 2 -28.5 8.5t-7.5 28.5q0 11 8.5 31t25.5 20h633q17 0 25.5 -20t8.5 -31q0 -37 -33 -37q-74 0 -129 -19t-55 -75v-1060q0 -49 28.5 -62.5t65.5 -13.5h277
q46 0 92 54.5t84.5 133.5t62.5 151q6 18 30 25.5t40 7.5q18 0 36 -8.5t15 -25.5l-56 -439h-1115zM1045 1015l-57 48q47 63 64.5 109t17.5 84q1 30 -12 54t-40 50q-39 38 -39 87q0 48 33.5 85.5t87.5 37.5q67 0 105 -51.5t38 -118.5q0 -75 -29.5 -145t-75 -130.5
t-93.5 -109.5z" />
    <glyph glyph-name="lcaron" unicode="&#x13e;" horiz-adv-x="785" 
d="M79 0q-17 0 -26 14t-9 27q0 34 33 37q36 3 75.5 15.5t39.5 41.5l1 1196q0 63 -30 85.5t-69 26.5t-67 11q-11 5 -17.5 13.5t-6.5 26.5q0 12 6 28t18 17q127 8 238 10.5t167 2.5q8 0 18.5 -8.5t11.5 -32.5v-1343q0 -40 20.5 -58t49 -23.5t52.5 -8.5q21 -2 28.5 -8.5
t7.5 -27.5q0 -13 -9 -27.5t-26 -14.5h-506zM636 1050l-57 48q47 63 64.5 109t17.5 84q1 30 -12 54t-40 50q-39 38 -39 87q0 48 33.5 85.5t87.5 37.5q67 0 105 -51.5t38 -118.5q0 -75 -29.5 -145t-75 -130.5t-93.5 -109.5z" />
    <glyph glyph-name="Ldot" unicode="&#x13f;" horiz-adv-x="1466" 
d="M143 0q-17 0 -25.5 20t-8.5 31q0 34 33 37q48 4 95 21t47 50v1075q0 43 -23 62.5t-57.5 25.5t-68.5 9q-21 2 -28.5 8.5t-7.5 28.5q0 11 8.5 31t25.5 20h633q17 0 25.5 -20t8.5 -31q0 -37 -33 -37q-74 0 -129 -19t-55 -75v-1060q0 -49 28.5 -62.5t65.5 -13.5h277
q46 0 92 54.5t84.5 133.5t62.5 151q6 18 30 25.5t40 7.5q18 0 36 -8.5t15 -25.5l-56 -439h-1115zM1080 841q0 70 51 120t126 50t127 -50t52 -120q0 -72 -52 -126t-127 -54t-126 54t-51 126z" />
    <glyph glyph-name="ldot" unicode="&#x140;" horiz-adv-x="1026" 
d="M79 0q-17 0 -26 14t-9 27q0 34 33 37q36 3 75.5 15.5t39.5 41.5l1 1196q0 63 -30 85.5t-69 26.5t-67 11q-11 5 -17.5 13.5t-6.5 26.5q0 12 6 28t18 17q127 8 238 10.5t167 2.5q8 0 18.5 -8.5t11.5 -32.5v-1343q0 -40 20.5 -58t49 -23.5t52.5 -8.5q21 -2 28.5 -8.5
t7.5 -27.5q0 -13 -9 -27.5t-26 -14.5h-506zM588 735q0 70 51 120t126 50t127 -50t52 -120q0 -72 -52 -126t-127 -54t-126 54t-51 126z" />
    <glyph glyph-name="Lslash" unicode="&#x141;" horiz-adv-x="1353" 
d="M121 0q-17 0 -25.5 20t-8.5 31q0 34 33 37q48 4 95 21t47 50v539l-126 -46q-11 -4 -24.5 13.5t-17.5 28.5q-6 15 -6 29q0 20 9 29l165 60v422q0 43 -23 62.5t-57.5 25.5t-68.5 9q-21 2 -28.5 8.5t-7.5 28.5q0 11 8.5 31t25.5 20h633q17 0 25.5 -20t8.5 -31q0 -37 -33 -37
q-75 0 -129.5 -19t-54.5 -75v-317l218 79q12 4 21.5 -4t13.5 -19q10 -23 10 -53q0 -18 -6 -24l-257 -93v-629q0 -49 28.5 -62.5t64.5 -13.5h278q46 0 92 54.5t84.5 133.5t62.5 151q6 18 30 25.5t39 7.5q19 0 36.5 -8.5t15.5 -25.5l-56 -439h-1115z" />
    <glyph glyph-name="lslash" unicode="&#x142;" horiz-adv-x="669" 
d="M101 0q-17 0 -26 14t-9 27q0 34 33 37q37 3 76.5 15.5t39.5 41.5v579l-137 -59q-12 -3 -25 14t-17 28q-6 15 -6 29q0 20 9 29l176 75l1 501q0 63 -30 85.5t-69.5 26.5t-67.5 11q-11 5 -17.5 13.5t-6.5 26.5q0 12 6 28t18 17q127 8 238 10.5t167 2.5q9 0 19.5 -8.5
t10.5 -32.5v-567l130 55q11 4 20.5 -4t14.5 -19q10 -23 10 -53q0 -18 -6 -24l-169 -71v-660q0 -40 20.5 -58t49 -23.5t52.5 -8.5q21 -2 28.5 -8.5t7.5 -27.5q0 -13 -9 -27.5t-26 -14.5h-506z" />
    <glyph glyph-name="Nacute" unicode="&#x143;" horiz-adv-x="1674" 
d="M87 0q-17 0 -25.5 20t-8.5 31q0 33 33 37q32 3 73.5 10t72 24.5t30.5 49.5v1024q0 43 -33 72t-76 44.5t-73 18.5q-21 2 -28.5 8.5t-7.5 28.5q0 11 8.5 31t25.5 20h442l800 -999h12v814q0 43 -32.5 62t-75.5 25.5t-73 9.5q-21 2 -28.5 8.5t-7.5 28.5q0 11 8.5 31t25.5 20
h469q17 0 25.5 -20t8.5 -31q0 -33 -33 -37q-31 -3 -72 -11t-72 -27t-31 -56v-1124q0 -19 1.5 -31.5t4.5 -41.5q3 -40 -32 -55t-63 -15q-36 0 -54 22l-904 1118h-17v-925q0 -43 35.5 -62t81 -25t76.5 -10q21 -2 28.5 -8t7.5 -29q0 -11 -8.5 -31t-25.5 -20h-488zM736 1540
l-56 58q118 142 187 245.5t92 126.5q16 15 41 25.5t52 10.5q47 0 79 -33q30 -33 30 -79q0 -52 -34 -85q-23 -23 -130.5 -85t-260.5 -184z" />
    <glyph glyph-name="nacute" unicode="&#x144;" horiz-adv-x="1351" 
d="M104 0q-17 0 -25.5 15t-8.5 26q0 33 33 37q37 5 73 18t36 46v636q0 62 -26.5 84.5t-62 26.5t-60.5 11q-10 5 -17 13t-7 27q0 12 6 28t18 17q126 7 228.5 9.5t155.5 2.5q9 0 18.5 -8t11.5 -32v-112q19 21 78 61.5t142 74t174 33.5q79 0 146.5 -21.5t109 -82.5t41.5 -179
v-556q0 -48 22 -67t52.5 -22.5t55.5 -7.5q16 -2 24.5 -8.5t8.5 -28.5q0 -11 -8.5 -26t-25.5 -15h-504q-17 0 -25.5 15t-8.5 26q0 16 5.5 25.5t25.5 11.5q32 3 65.5 19.5t33.5 44.5v595q0 22 -5.5 54t-31 56.5t-85.5 24.5q-56 0 -111 -20.5t-99.5 -49.5t-69.5 -55v-572
q0 -64 35 -78.5t72 -18.5q21 -2 28.5 -8t7.5 -29q0 -11 -9 -26t-25 -15h-492zM581 1106l-56 58q118 142 187 245.5t92 126.5q16 15 41 25.5t52 10.5q48 0 78 -33q31 -33 31 -79q0 -52 -34 -85q-24 -23 -131 -85.5t-260 -183.5z" />
    <glyph glyph-name="uni0145" unicode="&#x145;" horiz-adv-x="1674" 
d="M87 0q-17 0 -25.5 20t-8.5 31q0 33 33 37q32 3 73.5 10t72 24.5t30.5 49.5v1024q0 43 -33 72t-76 44.5t-73 18.5q-21 2 -28.5 8.5t-7.5 28.5q0 11 8.5 31t25.5 20h442l800 -999h12v814q0 43 -32.5 62t-75.5 25.5t-73 9.5q-21 2 -28.5 8.5t-7.5 28.5q0 11 8.5 31t25.5 20
h469q17 0 25.5 -20t8.5 -31q0 -33 -33 -37q-31 -3 -72 -11t-72 -27t-31 -56v-1124q0 -19 1.5 -31.5t4.5 -41.5q3 -40 -32 -55t-63 -15q-36 0 -54 22l-904 1118h-17v-925q0 -43 35.5 -62t81 -25t76.5 -10q21 -2 28.5 -8t7.5 -29q0 -11 -8.5 -31t-25.5 -20h-488zM861 -130
q59 0 100.5 -47t41.5 -144q0 -69 -24.5 -134t-62.5 -115.5t-80 -75.5q-9 -6 -23 -6q-17 0 -31.5 8t-14.5 23q0 14 15 31q22 23 40 71.5t18 109.5q-43 0 -82.5 36t-39.5 101q0 75 43 108.5t100 33.5z" />
    <glyph glyph-name="uni0146" unicode="&#x146;" horiz-adv-x="1351" 
d="M104 0q-17 0 -25.5 15t-8.5 26q0 33 33 37q37 5 73 18t36 46v636q0 62 -26.5 84.5t-62 26.5t-60.5 11q-10 5 -17 13t-7 27q0 12 6 28t18 17q126 7 228.5 9.5t155.5 2.5q9 0 18.5 -8t11.5 -32v-112q19 21 78 61.5t142 74t174 33.5q79 0 146.5 -21.5t109 -82.5t41.5 -179
v-556q0 -48 22 -67t52.5 -22.5t55.5 -7.5q16 -2 24.5 -8.5t8.5 -28.5q0 -11 -8.5 -26t-25.5 -15h-504q-17 0 -25.5 15t-8.5 26q0 16 5.5 25.5t25.5 11.5q32 3 65.5 19.5t33.5 44.5v595q0 22 -5.5 54t-31 56.5t-85.5 24.5q-56 0 -111 -20.5t-99.5 -49.5t-69.5 -55v-572
q0 -64 35 -78.5t72 -18.5q21 -2 28.5 -8t7.5 -29q0 -11 -9 -26t-25 -15h-492zM675 -136q67 0 111.5 -45.5t44.5 -135.5q0 -89 -58 -173.5t-186 -111.5l-34 67q54 16 88 46.5t44 85.5q-71 6 -106.5 43t-35.5 91q0 58 39 95.5t93 37.5z" />
    <glyph glyph-name="Ncaron" unicode="&#x147;" horiz-adv-x="1674" 
d="M87 0q-17 0 -25.5 20t-8.5 31q0 33 33 37q32 3 73.5 10t72 24.5t30.5 49.5v1024q0 43 -33 72t-76 44.5t-73 18.5q-21 2 -28.5 8.5t-7.5 28.5q0 11 8.5 31t25.5 20h442l800 -999h12v814q0 43 -32.5 62t-75.5 25.5t-73 9.5q-21 2 -28.5 8.5t-7.5 28.5q0 11 8.5 31t25.5 20
h469q17 0 25.5 -20t8.5 -31q0 -33 -33 -37q-31 -3 -72 -11t-72 -27t-31 -56v-1124q0 -19 1.5 -31.5t4.5 -41.5q3 -40 -32 -55t-63 -15q-36 0 -54 22l-904 1118h-17v-925q0 -43 35.5 -62t81 -25t76.5 -10q21 -2 28.5 -8t7.5 -29q0 -11 -8.5 -31t-25.5 -20h-488zM881 1562
q-46 0 -73 14.5t-43 36.5l-243 345h138l221 -204l226 204h133l-243 -336q-17 -24 -43 -42t-73 -18z" />
    <glyph glyph-name="ncaron" unicode="&#x148;" horiz-adv-x="1351" 
d="M104 0q-17 0 -25.5 15t-8.5 26q0 33 33 37q37 5 73 18t36 46v636q0 62 -26.5 84.5t-62 26.5t-60.5 11q-10 5 -17 13t-7 27q0 12 6 28t18 17q126 7 228.5 9.5t155.5 2.5q9 0 18.5 -8t11.5 -32v-112q19 21 78 61.5t142 74t174 33.5q79 0 146.5 -21.5t109 -82.5t41.5 -179
v-556q0 -48 22 -67t52.5 -22.5t55.5 -7.5q16 -2 24.5 -8.5t8.5 -28.5q0 -11 -8.5 -26t-25.5 -15h-504q-17 0 -25.5 15t-8.5 26q0 16 5.5 25.5t25.5 11.5q32 3 65.5 19.5t33.5 44.5v595q0 22 -5.5 54t-31 56.5t-85.5 24.5q-56 0 -111 -20.5t-99.5 -49.5t-69.5 -55v-572
q0 -64 35 -78.5t72 -18.5q21 -2 28.5 -8t7.5 -29q0 -11 -9 -26t-25 -15h-492zM685 1131q-46 0 -73 14.5t-42 36.5l-244 355h139l221 -214l225 214h134l-248 -355q-16 -18 -40.5 -34.5t-71.5 -16.5z" />
    <glyph glyph-name="Eng" unicode="&#x14a;" horiz-adv-x="1674" 
d="M957 -449q-120 0 -184.5 46t-64.5 123q0 44 26.5 71t64.5 39.5t75 12.5l105 -193q114 3 190 67.5t93 242.5l-894 1138h-17v-913q0 -43 33 -62.5t76.5 -25.5t74.5 -9q21 -2 28.5 -8t7.5 -29q0 -11 -8.5 -31t-25.5 -20h-473q-17 0 -25.5 20t-8.5 31q0 33 33 37q32 3 72 10
t69 24.5t29 49.5v1062q0 43 -26 62.5t-62 26t-67 8.5q-21 2 -28.5 8.5t-7.5 28.5q0 11 8.5 31t25.5 20h415l766 -982h12v797q0 43 -30.5 62.5t-71.5 26t-71 8.5q-21 2 -28.5 8.5t-7.5 28.5q0 11 8 31t26 20h453q18 0 26 -20t8 -31q0 -33 -33 -37q-30 -3 -70 -11t-69.5 -25
t-29.5 -47v-1173q0 -89 -16 -181t-60.5 -170t-128 -125.5t-217.5 -47.5z" />
    <glyph glyph-name="eng" unicode="&#x14b;" horiz-adv-x="1330" 
d="M710 -469q-79 0 -137 30t-89 73t-31 82q0 58 43 91t87 33q42 0 66 -42l92 -165q42 0 78 26t58.5 108.5t22.5 251.5v712q0 29 -9 62t-38.5 56t-88.5 23q-56 0 -110.5 -20.5t-99 -49.5t-69.5 -55v-572q0 -64 34.5 -78.5t71.5 -18.5q21 -2 28.5 -8t7.5 -29q0 -11 -9 -26
t-25 -15h-492q-17 0 -25.5 15t-8.5 26q0 33 33 37q37 5 73 18t36 46v636q0 62 -26.5 84.5t-62 26.5t-60.5 11q-10 5 -17 13t-7 27q0 12 6 28t18 17q126 7 229.5 9.5t156.5 2.5q8 0 18 -8t12 -32v-109q18 21 78.5 61t144.5 72.5t174 32.5q79 0 148.5 -21.5t112 -82.5
t42.5 -179v-677q0 -103 -20 -197t-71 -167.5t-142 -116t-233 -42.5z" />
    <glyph glyph-name="Omacron" unicode="&#x14c;" horiz-adv-x="1632" 
d="M815 -29q-169 0 -302.5 58t-226.5 160.5t-142 237.5t-49 289q0 205 86.5 371t248.5 264t388 98q225 0 386 -98t247 -264t86 -371q0 -154 -49 -289t-143 -237.5t-227.5 -160.5t-302.5 -58zM819 65q138 0 220.5 78.5t119 224t36.5 346.5q0 302 -87.5 472t-294.5 170
q-208 0 -292.5 -170t-84.5 -472q0 -201 38 -346.5t122 -224t223 -78.5zM519 1615v148h588v-148h-588z" />
    <glyph glyph-name="omacron" unicode="&#x14d;" horiz-adv-x="1242" 
d="M76 492q0 164 68.5 281t192 179t290.5 62q251 0 394.5 -138t143.5 -384t-147 -383.5t-398 -137.5t-397.5 137.5t-146.5 383.5zM386 492q0 -201 49 -313.5t188 -112.5q138 0 185 112.5t47 313.5t-49 313.5t-187 112.5q-139 0 -186 -113t-47 -313zM326 1174v148h588v-148
h-588z" />
    <glyph glyph-name="Obreve" unicode="&#x14e;" horiz-adv-x="1632" 
d="M815 -29q-169 0 -302.5 58t-226.5 160.5t-142 237.5t-49 289q0 205 86.5 371t248.5 264t388 98q225 0 386 -98t247 -264t86 -371q0 -154 -49 -289t-143 -237.5t-227.5 -160.5t-302.5 -58zM819 65q138 0 220.5 78.5t119 224t36.5 346.5q0 302 -87.5 472t-294.5 170
q-208 0 -292.5 -170t-84.5 -472q0 -201 38 -346.5t122 -224t223 -78.5zM812 1589q-57 0 -119 15.5t-114.5 55.5t-84 112.5t-29.5 186.5h127q5 -84 58.5 -135.5t161.5 -51.5t162 51.5t58 135.5h127q2 -114 -29.5 -186.5t-84 -112.5t-114.5 -55.5t-119 -15.5z" />
    <glyph glyph-name="obreve" unicode="&#x14f;" horiz-adv-x="1242" 
d="M76 492q0 164 68.5 281t192 179t290.5 62q251 0 394.5 -138t143.5 -384t-147 -383.5t-398 -137.5t-397.5 137.5t-146.5 383.5zM386 492q0 -201 49 -313.5t188 -112.5q138 0 185 112.5t47 313.5t-49 313.5t-187 112.5q-139 0 -186 -113t-47 -313zM619 1181
q-57 0 -119 15.5t-114.5 55.5t-84 112.5t-29.5 186.5h127q5 -84 58.5 -135.5t161.5 -51.5t162 51.5t58 135.5h127q2 -114 -29.5 -186.5t-84 -112.5t-114.5 -55.5t-119 -15.5z" />
    <glyph glyph-name="Ohungarumlaut" unicode="&#x150;" horiz-adv-x="1632" 
d="M815 -29q-169 0 -302.5 58t-226.5 160.5t-142 237.5t-49 289q0 205 86.5 371t248.5 264t388 98q225 0 386 -98t247 -264t86 -371q0 -154 -49 -289t-143 -237.5t-227.5 -160.5t-302.5 -58zM819 65q138 0 220.5 78.5t119 224t36.5 346.5q0 302 -87.5 472t-294.5 170
q-208 0 -292.5 -170t-84.5 -472q0 -201 38 -346.5t122 -224t223 -78.5zM1007 1512l-77 62q105 161 158 275t72 140q15 19 37 31.5t48 12.5q34 0 65 -24q23 -17 32.5 -38.5t9.5 -42.5q0 -38 -25 -70q-19 -26 -108 -106.5t-212 -239.5zM595 1512l-78 62q106 161 155.5 275.5
t69.5 139.5q14 18 36 31t48 13q35 0 65 -24q42 -32 42 -79q0 -39 -25 -72q-20 -26 -105.5 -106.5t-207.5 -239.5z" />
    <glyph glyph-name="ohungarumlaut" unicode="&#x151;" horiz-adv-x="1242" 
d="M76 492q0 164 68.5 281t192 179t290.5 62q251 0 394.5 -138t143.5 -384t-147 -383.5t-398 -137.5t-397.5 137.5t-146.5 383.5zM386 492q0 -201 49 -313.5t188 -112.5q138 0 185 112.5t47 313.5t-49 313.5t-187 112.5q-139 0 -186 -113t-47 -313zM809 1111l-78 56
q106 147 159 250.5t72 127.5q15 17 36.5 28.5t47.5 11.5q34 0 66 -22q42 -30 42 -74q0 -35 -25 -64q-19 -24 -108.5 -97t-211.5 -217zM397 1111l-78 56q105 147 155 250.5t70 127.5q14 16 36 28t48 12q34 0 65 -22q42 -30 42 -73q0 -35 -25 -65q-20 -24 -105.5 -97
t-207.5 -217z" />
    <glyph glyph-name="OE" unicode="&#x152;" horiz-adv-x="2190" 
d="M766 -29q-149 0 -273 58t-215.5 160.5t-141.5 237.5t-50 289t52 287t145 233t219 156.5t274 56.5q80 0 128.5 -7t81.5 -14.5t67 -8.5h940l35 -325q1 -18 -13 -26t-25 -8q-21 0 -40 8.5t-29 29.5q-31 61 -57.5 111.5t-57.5 80.5t-78 30h-404v-542h280q26 4 47.5 38
t35.5 73.5t16 59.5t16 26t30 6q12 0 29 -8t17 -26v-442q0 -18 -17.5 -26t-28.5 -8q-16 0 -31 6.5t-18 26.5q-1 21 -15.5 64t-37.5 78.5t-51 35.5h-272v-480q0 -57 28.5 -78t64.5 -23h320q56 0 103.5 37.5t84.5 97.5t62 128q14 42 80 42q16 0 31.5 -8t17.5 -26l-49 -372h-927
q-82 0 -137.5 -7t-109 -14.5t-127.5 -7.5zM770 65q103 0 165 14.5t91 62.5l1 344v799q-10 15 -33 32t-75.5 30t-153.5 13q-175 0 -260.5 -172t-85.5 -474q0 -301 86 -475t265 -174z" />
    <glyph glyph-name="oe" unicode="&#x153;" horiz-adv-x="1845" 
d="M595 -29q-243 0 -384.5 137.5t-141.5 383.5q0 164 66 281t186 179t281 62q122 0 215.5 -35.5t158.5 -99.5q67 67 156 101t190 34q220 0 320 -90t127 -244q7 -38 9 -83t2 -90l-659 -1q1 -155 43 -244.5t105 -127.5t125 -38q88 0 153 26t109 86q4 5 9 11.5t15 3.5l46 -21
q10 -5 10 -12q0 -6 -6 -17q-48 -90 -146.5 -146t-250.5 -56q-125 0 -217.5 33.5t-154.5 97.5q-65 -61 -157 -96t-209 -35zM1124 597l356 2q0 174 -40.5 250.5t-120.5 76.5q-74 0 -129 -70t-66 -259zM598 66q133 0 177.5 113t44.5 313t-46.5 313t-179.5 113
q-129 0 -172 -113.5t-43 -312.5q0 -200 45 -313t174 -113z" />
    <glyph glyph-name="Racute" unicode="&#x154;" horiz-adv-x="1573" 
d="M140 0q-18 0 -26 20t-8 31q0 33 33 37q48 4 93 17.5t45 46.5l1 1082q0 43 -22.5 62t-56 25.5t-63.5 9.5q-21 2 -28.5 8.5t-7.5 28.5q0 11 8.5 31t25.5 20q61 0 102.5 1t86.5 1q106 0 207.5 4t229.5 4q252 -1 401 -89.5t149 -289.5q0 -124 -47.5 -202t-127.5 -122.5
t-177 -70.5q99 -10 156 -54.5t91 -111t62.5 -140.5t71.5 -143q34 -65 70.5 -89t73.5 -28q36 -4 36 -43q0 -11 -9 -28.5t-25 -17.5h-319q-55 0 -91 45t-62 116.5t-51 151t-57 151t-79.5 116.5t-119.5 45h-137v-440q0 -43 27.5 -62.5t67 -25.5t75.5 -9q21 -2 28.5 -8t7.5 -29
q0 -11 -8 -31t-26 -20h-601zM569 711h151q83 0 148 27.5t102.5 94.5t37.5 186q0 162 -76.5 237.5t-220.5 75.5h-142v-621zM621 1540l-56 58q118 142 187 245.5t92 126.5q16 15 41 25.5t52 10.5q47 0 79 -33q30 -33 30 -79q0 -52 -34 -85q-23 -23 -130.5 -85t-260.5 -184z
" />
    <glyph glyph-name="racute" unicode="&#x155;" horiz-adv-x="996" 
d="M107 0q-17 0 -25.5 15t-8.5 26q0 33 33 37q41 3 78.5 15.5t37.5 41.5v643q0 62 -26 85t-61 28t-62 12q-10 5 -17 13t-7 27q0 12 6.5 27.5t17.5 16.5q130 6 229.5 8.5t154.5 3.5q8 0 18 -8t12 -32v-185q29 57 77 112.5t112 91.5t139 36q93 0 127.5 -53t34.5 -117
q0 -47 -23.5 -84.5t-56.5 -59t-61 -21.5l-130 169q-43 0 -82.5 -30t-72 -77t-52.5 -97v-476q0 -40 28.5 -57.5t70 -23t79.5 -9.5q21 -2 28.5 -8t7.5 -29q0 -11 -8.5 -26t-25.5 -15h-572zM402 1106l-56 58q118 142 187 245.5t92 126.5q16 15 41 25.5t52 10.5q48 0 78 -33
q31 -33 31 -79q0 -52 -34 -85q-24 -23 -131 -85.5t-260 -183.5z" />
    <glyph glyph-name="uni0156" unicode="&#x156;" horiz-adv-x="1573" 
d="M140 0q-18 0 -26 20t-8 31q0 33 33 37q48 4 93 17.5t45 46.5l1 1082q0 43 -22.5 62t-56 25.5t-63.5 9.5q-21 2 -28.5 8.5t-7.5 28.5q0 11 8.5 31t25.5 20q61 0 102.5 1t86.5 1q106 0 207.5 4t229.5 4q252 -1 401 -89.5t149 -289.5q0 -124 -47.5 -202t-127.5 -122.5
t-177 -70.5q99 -10 156 -54.5t91 -111t62.5 -140.5t71.5 -143q34 -65 70.5 -89t73.5 -28q36 -4 36 -43q0 -11 -9 -28.5t-25 -17.5h-319q-55 0 -91 45t-62 116.5t-51 151t-57 151t-79.5 116.5t-119.5 45h-137v-440q0 -43 27.5 -62.5t67 -25.5t75.5 -9q21 -2 28.5 -8t7.5 -29
q0 -11 -8 -31t-26 -20h-601zM569 711h151q83 0 148 27.5t102.5 94.5t37.5 186q0 162 -76.5 237.5t-220.5 75.5h-142v-621zM767 -130q59 0 100.5 -47t41.5 -144q0 -69 -24.5 -134t-62.5 -115.5t-80 -75.5q-9 -6 -23 -6q-17 0 -31.5 8t-14.5 23q0 14 15 31q22 23 40 71.5
t18 109.5q-43 0 -82.5 36t-39.5 101q0 75 43 108.5t100 33.5z" />
    <glyph glyph-name="uni0157" unicode="&#x157;" horiz-adv-x="996" 
d="M107 0q-17 0 -25.5 15t-8.5 26q0 33 33 37q41 3 78.5 15.5t37.5 41.5v643q0 62 -26 85t-61 28t-62 12q-10 5 -17 13t-7 27q0 12 6.5 27.5t17.5 16.5q130 6 229.5 8.5t154.5 3.5q8 0 18 -8t12 -32v-185q29 57 77 112.5t112 91.5t139 36q93 0 127.5 -53t34.5 -117
q0 -47 -23.5 -84.5t-56.5 -59t-61 -21.5l-130 169q-43 0 -82.5 -30t-72 -77t-52.5 -97v-476q0 -40 28.5 -57.5t70 -23t79.5 -9.5q21 -2 28.5 -8t7.5 -29q0 -11 -8.5 -26t-25.5 -15h-572zM363 -136q67 0 111.5 -45.5t44.5 -135.5q0 -89 -58 -173.5t-186 -111.5l-34 67
q54 16 88 46.5t44 85.5q-71 6 -106.5 43t-35.5 91q0 58 39 95.5t93 37.5z" />
    <glyph glyph-name="Rcaron" unicode="&#x158;" horiz-adv-x="1573" 
d="M140 0q-18 0 -26 20t-8 31q0 33 33 37q48 4 93 17.5t45 46.5l1 1082q0 43 -22.5 62t-56 25.5t-63.5 9.5q-21 2 -28.5 8.5t-7.5 28.5q0 11 8.5 31t25.5 20q61 0 102.5 1t86.5 1q106 0 207.5 4t229.5 4q252 -1 401 -89.5t149 -289.5q0 -124 -47.5 -202t-127.5 -122.5
t-177 -70.5q99 -10 156 -54.5t91 -111t62.5 -140.5t71.5 -143q34 -65 70.5 -89t73.5 -28q36 -4 36 -43q0 -11 -9 -28.5t-25 -17.5h-319q-55 0 -91 45t-62 116.5t-51 151t-57 151t-79.5 116.5t-119.5 45h-137v-440q0 -43 27.5 -62.5t67 -25.5t75.5 -9q21 -2 28.5 -8t7.5 -29
q0 -11 -8 -31t-26 -20h-601zM569 711h151q83 0 148 27.5t102.5 94.5t37.5 186q0 162 -76.5 237.5t-220.5 75.5h-142v-621zM765 1562q-46 0 -73 14.5t-43 36.5l-243 345h138l221 -204l226 204h133l-243 -336q-17 -24 -43 -42t-73 -18z" />
    <glyph glyph-name="rcaron" unicode="&#x159;" horiz-adv-x="996" 
d="M107 0q-17 0 -25.5 15t-8.5 26q0 33 33 37q41 3 78.5 15.5t37.5 41.5v643q0 62 -26 85t-61 28t-62 12q-10 5 -17 13t-7 27q0 12 6.5 27.5t17.5 16.5q130 6 229.5 8.5t154.5 3.5q8 0 18 -8t12 -32v-185q29 57 77 112.5t112 91.5t139 36q93 0 127.5 -53t34.5 -117
q0 -47 -23.5 -84.5t-56.5 -59t-61 -21.5l-130 169q-43 0 -82.5 -30t-72 -77t-52.5 -97v-476q0 -40 28.5 -57.5t70 -23t79.5 -9.5q21 -2 28.5 -8t7.5 -29q0 -11 -8.5 -26t-25.5 -15h-572zM506 1131q-46 0 -73 14.5t-42 36.5l-244 355h139l221 -214l225 214h134l-248 -355
q-16 -18 -40.5 -34.5t-71.5 -16.5z" />
    <glyph glyph-name="Sacute" unicode="&#x15a;" horiz-adv-x="1274" 
d="M684 -30q-121 0 -200 29t-113 43q-28 12 -43.5 21.5t-29.5 9.5q-11 0 -19.5 -7t-14.5 -14q-21 -24 -38.5 -32.5t-35.5 -8.5q-23 0 -37.5 13.5t-12.5 34.5q2 25 2 39v45q0 95 -8.5 179.5t-8.5 124.5q0 37 16.5 50.5t38.5 13.5q46 0 58 -42q6 -26 21 -71.5t49 -109.5
q58 -106 160.5 -167t215.5 -61q57 0 110 20t86.5 64t32.5 117q-2 89 -57 151.5t-138 110t-167 92.5q-67 35 -135.5 75t-126 91.5t-93 119t-35.5 157.5q-1 125 63.5 212t174 132.5t241.5 45.5q88 0 143 -13t89.5 -25.5t58.5 -12.5t32 9.5t22 18.5q11 7 28 7q23 0 44.5 -11
t21.5 -27q1 -55 7 -118t12 -115.5t6 -75.5q0 -32 -18 -44.5t-41 -12.5q-37 0 -49 23q-4 25 -22 76t-55.5 105.5t-101.5 92.5t-161 38q-63 0 -118.5 -18.5t-89.5 -61t-34 -114.5q0 -76 52.5 -135.5t132.5 -108.5t163 -92q74 -38 148.5 -81.5t136.5 -97t99.5 -121t37.5 -154.5
q0 -129 -68.5 -220.5t-182.5 -140t-249 -48.5zM509 1540l-56 58q118 142 187 245.5t92 126.5q16 15 41 25.5t52 10.5q47 0 79 -33q30 -33 30 -79q0 -52 -34 -85q-23 -23 -130.5 -85t-260.5 -184z" />
    <glyph glyph-name="sacute" unicode="&#x15b;" horiz-adv-x="1000" 
d="M494 -29q-83 0 -142.5 20.5t-86.5 32.5q-24 9 -40 9q-23 0 -32 -8.5t-18.5 -17t-33.5 -8.5q-19 0 -33.5 8.5t-14.5 22.5q0 18 -1.5 57.5t-3.5 86t-3.5 87.5t-1.5 62q0 23 14.5 33t31.5 10q36 0 42 -22t16.5 -52.5t38.5 -87.5q26 -50 91.5 -99t164.5 -49q83 0 135 31
t52 92q0 74 -69.5 120t-216.5 102q-65 26 -127.5 66t-104 101t-41.5 149t55 155t145 104.5t196 37.5q95 0 151 -24.5t79 -24.5q22 0 25.5 11t9.5 22q12 21 44 21q19 0 34 -9.5t15 -25.5q0 -9 -1.5 -48.5t-1.5 -85.5q0 -35 3 -64t3 -50q0 -27 -14 -38t-32 -11q-33 0 -39 18
q-15 42 -42.5 94t-80 90.5t-143.5 38.5q-59 0 -106.5 -27t-47.5 -90q0 -69 59.5 -111.5t169.5 -83.5q89 -33 168.5 -76t129 -105.5t49.5 -154.5q0 -147 -115 -228t-329 -81zM401 1106l-56 58q118 142 187 245.5t92 126.5q16 15 41 25.5t52 10.5q48 0 78 -33q31 -33 31 -79
q0 -52 -34 -85q-24 -23 -131 -85.5t-260 -183.5z" />
    <glyph glyph-name="Scircumflex" unicode="&#x15c;" horiz-adv-x="1274" 
d="M684 -30q-121 0 -200 29t-113 43q-28 12 -43.5 21.5t-29.5 9.5q-11 0 -19.5 -7t-14.5 -14q-21 -24 -38.5 -32.5t-35.5 -8.5q-23 0 -37.5 13.5t-12.5 34.5q2 25 2 39v45q0 95 -8.5 179.5t-8.5 124.5q0 37 16.5 50.5t38.5 13.5q46 0 58 -42q6 -26 21 -71.5t49 -109.5
q58 -106 160.5 -167t215.5 -61q57 0 110 20t86.5 64t32.5 117q-2 89 -57 151.5t-138 110t-167 92.5q-67 35 -135.5 75t-126 91.5t-93 119t-35.5 157.5q-1 125 63.5 212t174 132.5t241.5 45.5q88 0 143 -13t89.5 -25.5t58.5 -12.5t32 9.5t22 18.5q11 7 28 7q23 0 44.5 -11
t21.5 -27q1 -55 7 -118t12 -115.5t6 -75.5q0 -32 -18 -44.5t-41 -12.5q-37 0 -49 23q-4 25 -22 76t-55.5 105.5t-101.5 92.5t-161 38q-63 0 -118.5 -18.5t-89.5 -61t-34 -114.5q0 -76 52.5 -135.5t132.5 -108.5t163 -92q74 -38 148.5 -81.5t136.5 -97t99.5 -121t37.5 -154.5
q0 -129 -68.5 -220.5t-182.5 -140t-249 -48.5zM293 1559l247 348q15 21 41.5 36t72.5 15q47 0 73.5 -18t43.5 -42l244 -339h-134l-227 207l-222 -207h-139z" />
    <glyph glyph-name="scircumflex" unicode="&#x15d;" horiz-adv-x="1000" 
d="M494 -29q-83 0 -142.5 20.5t-86.5 32.5q-24 9 -40 9q-23 0 -32 -8.5t-18.5 -17t-33.5 -8.5q-19 0 -33.5 8.5t-14.5 22.5q0 18 -1.5 57.5t-3.5 86t-3.5 87.5t-1.5 62q0 23 14.5 33t31.5 10q36 0 42 -22t16.5 -52.5t38.5 -87.5q26 -50 91.5 -99t164.5 -49q83 0 135 31
t52 92q0 74 -69.5 120t-216.5 102q-65 26 -127.5 66t-104 101t-41.5 149t55 155t145 104.5t196 37.5q95 0 151 -24.5t79 -24.5q22 0 25.5 11t9.5 22q12 21 44 21q19 0 34 -9.5t15 -25.5q0 -9 -1.5 -48.5t-1.5 -85.5q0 -35 3 -64t3 -50q0 -27 -14 -38t-32 -11q-33 0 -39 18
q-15 42 -42.5 94t-80 90.5t-143.5 38.5q-59 0 -106.5 -27t-47.5 -90q0 -69 59.5 -111.5t169.5 -83.5q89 -33 168.5 -76t129 -105.5t49.5 -154.5q0 -147 -115 -228t-329 -81zM145 1131l247 374q15 21 41.5 36t72.5 15q47 0 74 -18t43 -42l244 -365h-134l-227 226l-222 -226
h-139z" />
    <glyph glyph-name="Scedilla" unicode="&#x15e;" horiz-adv-x="1274" 
d="M684 -30q-121 0 -200 29t-113 43q-28 12 -43.5 21.5t-29.5 9.5q-11 0 -19.5 -7t-14.5 -14q-21 -24 -38.5 -32.5t-35.5 -8.5q-23 0 -37.5 13.5t-12.5 34.5q2 25 2 39v45q0 95 -8.5 179.5t-8.5 124.5q0 37 16.5 50.5t38.5 13.5q46 0 58 -42q6 -26 21 -71.5t49 -109.5
q58 -106 160.5 -167t215.5 -61q57 0 110 20t86.5 64t32.5 117q-2 89 -57 151.5t-138 110t-167 92.5q-67 35 -135.5 75t-126 91.5t-93 119t-35.5 157.5q-1 125 63.5 212t174 132.5t241.5 45.5q88 0 143 -13t89.5 -25.5t58.5 -12.5t32 9.5t22 18.5q11 7 28 7q23 0 44.5 -11
t21.5 -27q1 -55 7 -118t12 -115.5t6 -75.5q0 -32 -18 -44.5t-41 -12.5q-37 0 -49 23q-4 25 -22 76t-55.5 105.5t-101.5 92.5t-161 38q-63 0 -118.5 -18.5t-89.5 -61t-34 -114.5q0 -76 52.5 -135.5t132.5 -108.5t163 -92q74 -38 148.5 -81.5t136.5 -97t99.5 -121t37.5 -154.5
q0 -129 -68.5 -220.5t-182.5 -140t-249 -48.5zM641 -495q-78 0 -134.5 20.5t-80.5 36.5q-12 8 -6 21q5 11 15.5 31.5t16.5 33.5q7 13 20 8q25 -10 58 -20t75 -10q56 0 89.5 25.5t33.5 66.5q0 36 -42 65t-129 28l33 207h138l-34 -124q109 -8 168 -58.5t59 -124.5
q0 -86 -72 -146t-208 -60z" />
    <glyph glyph-name="scedilla" unicode="&#x15f;" horiz-adv-x="1000" 
d="M494 -29q-83 0 -142.5 20.5t-86.5 32.5q-24 9 -40 9q-23 0 -32 -8.5t-18.5 -17t-33.5 -8.5q-19 0 -33.5 8.5t-14.5 22.5q0 18 -1.5 57.5t-3.5 86t-3.5 87.5t-1.5 62q0 23 14.5 33t31.5 10q36 0 42 -22t16.5 -52.5t38.5 -87.5q26 -50 91.5 -99t164.5 -49q83 0 135 31
t52 92q0 74 -69.5 120t-216.5 102q-65 26 -127.5 66t-104 101t-41.5 149t55 155t145 104.5t196 37.5q95 0 151 -24.5t79 -24.5q22 0 25.5 11t9.5 22q12 21 44 21q19 0 34 -9.5t15 -25.5q0 -9 -1.5 -48.5t-1.5 -85.5q0 -35 3 -64t3 -50q0 -27 -14 -38t-32 -11q-33 0 -39 18
q-15 42 -42.5 94t-80 90.5t-143.5 38.5q-59 0 -106.5 -27t-47.5 -90q0 -69 59.5 -111.5t169.5 -83.5q89 -33 168.5 -76t129 -105.5t49.5 -154.5q0 -147 -115 -228t-329 -81zM486 -495q-78 0 -134.5 20.5t-80.5 36.5q-12 8 -6 21q5 11 15.5 31.5t16.5 33.5q7 13 20 8
q25 -10 58 -20t75 -10q56 0 89.5 25.5t33.5 66.5q0 36 -42 65t-129 28l33 207h138l-34 -124q109 -8 168 -58.5t59 -124.5q0 -86 -72 -146t-208 -60z" />
    <glyph glyph-name="Scaron" unicode="&#x160;" horiz-adv-x="1274" 
d="M684 -30q-121 0 -200 29t-113 43q-28 12 -43.5 21.5t-29.5 9.5q-11 0 -19.5 -7t-14.5 -14q-21 -24 -38.5 -32.5t-35.5 -8.5q-23 0 -37.5 13.5t-12.5 34.5q2 25 2 39v45q0 95 -8.5 179.5t-8.5 124.5q0 37 16.5 50.5t38.5 13.5q46 0 58 -42q6 -26 21 -71.5t49 -109.5
q58 -106 160.5 -167t215.5 -61q57 0 110 20t86.5 64t32.5 117q-2 89 -57 151.5t-138 110t-167 92.5q-67 35 -135.5 75t-126 91.5t-93 119t-35.5 157.5q-1 125 63.5 212t174 132.5t241.5 45.5q88 0 143 -13t89.5 -25.5t58.5 -12.5t32 9.5t22 18.5q11 7 28 7q23 0 44.5 -11
t21.5 -27q1 -55 7 -118t12 -115.5t6 -75.5q0 -32 -18 -44.5t-41 -12.5q-37 0 -49 23q-4 25 -22 76t-55.5 105.5t-101.5 92.5t-161 38q-63 0 -118.5 -18.5t-89.5 -61t-34 -114.5q0 -76 52.5 -135.5t132.5 -108.5t163 -92q74 -38 148.5 -81.5t136.5 -97t99.5 -121t37.5 -154.5
q0 -129 -68.5 -220.5t-182.5 -140t-249 -48.5zM654 1562q-46 0 -73 14.5t-43 36.5l-243 345h138l221 -204l226 204h133l-243 -336q-17 -24 -43 -42t-73 -18z" />
    <glyph glyph-name="scaron" unicode="&#x161;" horiz-adv-x="1000" 
d="M494 -29q-83 0 -142.5 20.5t-86.5 32.5q-24 9 -40 9q-23 0 -32 -8.5t-18.5 -17t-33.5 -8.5q-19 0 -33.5 8.5t-14.5 22.5q0 18 -1.5 57.5t-3.5 86t-3.5 87.5t-1.5 62q0 23 14.5 33t31.5 10q36 0 42 -22t16.5 -52.5t38.5 -87.5q26 -50 91.5 -99t164.5 -49q83 0 135 31
t52 92q0 74 -69.5 120t-216.5 102q-65 26 -127.5 66t-104 101t-41.5 149t55 155t145 104.5t196 37.5q95 0 151 -24.5t79 -24.5q22 0 25.5 11t9.5 22q12 21 44 21q19 0 34 -9.5t15 -25.5q0 -9 -1.5 -48.5t-1.5 -85.5q0 -35 3 -64t3 -50q0 -27 -14 -38t-32 -11q-33 0 -39 18
q-15 42 -42.5 94t-80 90.5t-143.5 38.5q-59 0 -106.5 -27t-47.5 -90q0 -69 59.5 -111.5t169.5 -83.5q89 -33 168.5 -76t129 -105.5t49.5 -154.5q0 -147 -115 -228t-329 -81zM505 1131q-46 0 -73 14.5t-42 36.5l-244 355h139l221 -214l225 214h134l-248 -355
q-16 -18 -40.5 -34.5t-71.5 -16.5z" />
    <glyph glyph-name="uni0162" unicode="&#x162;" horiz-adv-x="1360" 
d="M332 0q-18 0 -26 20t-8 31q0 33 33 37q47 3 94.5 10.5t79 27t31.5 56.5l1 1138h-252q-42 0 -71 -40t-46 -96.5t-25 -108.5t-10 -76q-2 -19 -18.5 -26t-32.5 -7q-11 0 -31 8.5t-20 25.5q2 49 5 119.5t7 139t9 114.5t10 46h1236q6 0 11 -46t9 -114.5t7 -139t4 -119.5
q0 -17 -20 -25.5t-31 -8.5q-16 0 -32 7t-19 26q-2 24 -10 76t-25 108.5t-45.5 96.5t-71.5 40h-242v-1135q0 -43 33.5 -62.5t80.5 -25.5t88 -9q21 -2 28.5 -8t7.5 -29q0 -11 -8.5 -31t-25.5 -20h-705zM679 -495q-78 0 -134.5 20.5t-80.5 36.5q-12 8 -6 21q5 11 15.5 31.5
t16.5 33.5q7 13 20 8q25 -10 58 -20t75 -10q56 0 89.5 25.5t33.5 66.5q0 36 -42 65t-129 28l33 207h138l-34 -124q109 -8 168 -58.5t59 -124.5q0 -86 -72 -146t-208 -60z" />
    <glyph glyph-name="uni0163" unicode="&#x163;" horiz-adv-x="781" 
d="M471 -30q-129 0 -212.5 53.5t-83.5 199.5v669h-110q-11 0 -17.5 14.5t-6.5 26.5q0 39 26 45q78 13 127 42t79 88t53 160q4 16 19 25t48 9q35 0 48 -8t13 -23v-277h244q12 -1 18 -11.5t6 -22.5q0 -29 -9.5 -48t-19.5 -19h-239v-586q0 -127 25.5 -167t73.5 -40
q45 0 88.5 13t80.5 34q13 8 23.5 -7t14 -34t-3.5 -24q-24 -25 -73 -51t-106.5 -43.5t-105.5 -17.5zM382 -495q-78 0 -134.5 20.5t-80.5 36.5q-12 8 -6 21q5 11 15.5 31.5t16.5 33.5q7 13 20 8q25 -10 58 -20t75 -10q56 0 89.5 25.5t33.5 66.5q0 36 -42 65t-129 28l33 207
h138l-34 -124q109 -8 168 -58.5t59 -124.5q0 -86 -72 -146t-208 -60z" />
    <glyph glyph-name="Tcaron" unicode="&#x164;" horiz-adv-x="1360" 
d="M332 0q-18 0 -26 20t-8 31q0 33 33 37q47 3 94.5 10.5t79 27t31.5 56.5l1 1138h-252q-42 0 -71 -40t-46 -96.5t-25 -108.5t-10 -76q-2 -19 -18.5 -26t-32.5 -7q-11 0 -31 8.5t-20 25.5q2 49 5 119.5t7 139t9 114.5t10 46h1236q6 0 11 -46t9 -114.5t7 -139t4 -119.5
q0 -17 -20 -25.5t-31 -8.5q-16 0 -32 7t-19 26q-2 24 -10 76t-25 108.5t-45.5 96.5t-71.5 40h-242v-1135q0 -43 33.5 -62.5t80.5 -25.5t88 -9q21 -2 28.5 -8t7.5 -29q0 -11 -8.5 -31t-25.5 -20h-705zM689 1562q-46 0 -73 14.5t-43 36.5l-243 345h138l221 -204l226 204h133
l-243 -336q-17 -24 -43 -42t-73 -18z" />
    <glyph glyph-name="tcaron" unicode="&#x165;" horiz-adv-x="781" 
d="M471 -30q-129 0 -212.5 53.5t-83.5 199.5v669h-110q-11 0 -17.5 14.5t-6.5 26.5q0 39 26 45q78 13 127 42t79 88t53 160q4 16 19 25t48 9q35 0 48 -8t13 -23v-277h244q12 -1 18 -11.5t6 -22.5q0 -29 -9.5 -48t-19.5 -19h-239v-586q0 -127 25.5 -167t73.5 -40
q45 0 88.5 13t80.5 34q13 8 23.5 -7t14 -34t-3.5 -24q-24 -25 -73 -51t-106.5 -43.5t-105.5 -17.5zM635 1050l-57 48q47 63 64.5 109t17.5 84q1 30 -12 54t-40 50q-39 38 -39 87q0 48 33.5 85.5t87.5 37.5q67 0 105 -51.5t38 -118.5q0 -75 -29.5 -145t-75 -130.5
t-93.5 -109.5z" />
    <glyph glyph-name="Tbar" unicode="&#x166;" horiz-adv-x="1360" 
d="M337 0q-17 0 -25.5 20t-8.5 31q0 33 33 37q47 3 94.5 10.5t79.5 27t32 56.5v404h-279q-12 1 -18 21.5t-6 32.5q0 43 24 53h279v627h-251q-43 0 -71.5 -40t-46 -96.5t-25.5 -108.5t-10 -76q-2 -19 -18.5 -26t-32.5 -7q-11 0 -31 8.5t-20 25.5q2 49 5 119.5t7 139t9 114.5
t11 46h1235q6 0 11 -46t9 -114.5t7 -139t5 -119.5q0 -17 -20 -25.5t-31 -8.5q-16 0 -32.5 7t-18.5 26q-3 24 -11 76t-25 108.5t-45.5 96.5t-71.5 40h-241l-1 -627h254q12 -1 18 -11.5t6 -22.5q0 -19 -7 -43.5t-17 -29.5h-254v-401q0 -43 34 -62.5t81 -25.5t87 -9
q21 -2 28.5 -8t7.5 -29q0 -11 -8 -31t-26 -20h-705z" />
    <glyph glyph-name="tbar" unicode="&#x167;" horiz-adv-x="781" 
d="M435 -30q-129 0 -213 53.5t-84 199.5v244h-102q-12 0 -18 18t-6 30q0 42 24 53h102v324h-109q-12 0 -18 14.5t-6 26.5q0 39 26 45q78 13 127 42t79 88t53 160q3 16 18 25t48 9q36 0 49 -8t13 -23v-277h244q12 -1 18 -11.5t6 -22.5q0 -29 -9.5 -48t-20.5 -19h-238v-325
h281q12 -1 18 -11.5t6 -22.5q0 -19 -7 -41t-17 -26h-281v-160q0 -127 25 -167t73 -40q45 0 88.5 13t80.5 34q14 8 24 -7t13.5 -34t-2.5 -24q-24 -25 -73.5 -51t-106.5 -43.5t-105 -17.5z" />
    <glyph glyph-name="Utilde" unicode="&#x168;" horiz-adv-x="1659" 
d="M1400 1230l-2 -714q-1 -255 -142 -400t-392 -145q-186 0 -325.5 57.5t-217 182.5t-77.5 327l1 696q0 43 -23 62.5t-55.5 26t-63.5 8.5q-21 2 -28.5 8.5t-7.5 28.5q0 11 8.5 31t25.5 20h596q17 0 25.5 -20t8.5 -31q0 -34 -33 -37q-52 -4 -103.5 -17.5t-51.5 -46.5l-1 -743
q0 -248 80.5 -353.5t245.5 -105.5q151 0 241.5 62.5t130.5 165t40 221.5v730q0 34 -33 51.5t-75 25t-69 10.5q-21 2 -28.5 8.5t-7.5 28.5q0 11 8.5 31t25.5 20h466q18 0 26 -20t8 -31q0 -36 -33 -37q-77 -3 -122.5 -28t-45.5 -73zM1020 1557q-47 0 -88.5 20.5t-80 46.5
t-76 46.5t-76.5 20.5q-46 0 -69.5 -23.5t-38.5 -46.5t-35 -23q-18 0 -35.5 21.5t-17.5 46.5q0 34 30.5 81t83 82.5t120.5 35.5q46 0 85.5 -20.5t76 -47t74 -46.5t79.5 -20q47 0 71.5 23t40 46.5t35.5 23.5q18 0 36 -22t18 -46q0 -35 -31.5 -82t-84 -82t-117.5 -35z" />
    <glyph glyph-name="utilde" unicode="&#x169;" horiz-adv-x="1323" 
d="M516 -27q-88 0 -161 22.5t-116.5 86.5t-43.5 188v549q0 43 -17.5 62.5t-44 26t-50.5 8.5q-21 2 -28.5 8.5t-7.5 28.5q0 11 8.5 26t25.5 15h354q37 0 37 -36v-627q0 -84 23.5 -146t93.5 -62q91 0 151.5 28.5t109.5 81.5v586q0 43 -23 62.5t-56.5 25.5t-65.5 9
q-21 2 -28.5 8.5t-7.5 28.5q0 11 8.5 26t25.5 15h386q37 0 37 -36v-740q0 -71 13.5 -90t29.5 -19q33 0 51 8q17 7 28 -18t11 -45q0 -13 -5 -17q-19 -14 -82.5 -38t-175.5 -24q-56 0 -84.5 27t-38.5 65.5t-11 74.5q-28 -41 -82.5 -80t-123.5 -64t-140 -25zM769 1118
q-41 1 -76 21.5t-66.5 47.5t-62 47.5t-63.5 20.5q-41 0 -63 -24t-36 -47.5t-33 -23.5q-16 0 -32 22t-16 47q0 31 28 77t76.5 81.5t111.5 35.5q39 0 71.5 -20.5t62 -48t61 -48t67.5 -20.5q43 0 65.5 23.5t37 47.5t33.5 24q16 0 32.5 -22t16.5 -47q0 -36 -29 -81.5t-77.5 -79
t-108.5 -33.5z" />
    <glyph glyph-name="Umacron" unicode="&#x16a;" horiz-adv-x="1659" 
d="M1400 1230l-2 -714q-1 -255 -142 -400t-392 -145q-186 0 -325.5 57.5t-217 182.5t-77.5 327l1 696q0 43 -23 62.5t-55.5 26t-63.5 8.5q-21 2 -28.5 8.5t-7.5 28.5q0 11 8.5 31t25.5 20h596q17 0 25.5 -20t8.5 -31q0 -34 -33 -37q-52 -4 -103.5 -17.5t-51.5 -46.5l-1 -743
q0 -248 80.5 -353.5t245.5 -105.5q151 0 241.5 62.5t130.5 165t40 221.5v730q0 34 -33 51.5t-75 25t-69 10.5q-21 2 -28.5 8.5t-7.5 28.5q0 11 8.5 31t25.5 20h466q18 0 26 -20t8 -31q0 -36 -33 -37q-77 -3 -122.5 -28t-45.5 -73zM585 1615v148h588v-148h-588z" />
    <glyph glyph-name="umacron" unicode="&#x16b;" horiz-adv-x="1323" 
d="M516 -27q-88 0 -161 22.5t-116.5 86.5t-43.5 188v549q0 43 -17.5 62.5t-44 26t-50.5 8.5q-21 2 -28.5 8.5t-7.5 28.5q0 11 8.5 26t25.5 15h354q37 0 37 -36v-627q0 -84 23.5 -146t93.5 -62q91 0 151.5 28.5t109.5 81.5v586q0 43 -23 62.5t-56.5 25.5t-65.5 9
q-21 2 -28.5 8.5t-7.5 28.5q0 11 8.5 26t25.5 15h386q37 0 37 -36v-740q0 -71 13.5 -90t29.5 -19q33 0 51 8q17 7 28 -18t11 -45q0 -13 -5 -17q-19 -14 -82.5 -38t-175.5 -24q-56 0 -84.5 27t-38.5 65.5t-11 74.5q-28 -41 -82.5 -80t-123.5 -64t-140 -25zM360 1174v148h588
v-148h-588z" />
    <glyph glyph-name="Ubreve" unicode="&#x16c;" horiz-adv-x="1659" 
d="M1400 1230l-2 -714q-1 -255 -142 -400t-392 -145q-186 0 -325.5 57.5t-217 182.5t-77.5 327l1 696q0 43 -23 62.5t-55.5 26t-63.5 8.5q-21 2 -28.5 8.5t-7.5 28.5q0 11 8.5 31t25.5 20h596q17 0 25.5 -20t8.5 -31q0 -34 -33 -37q-52 -4 -103.5 -17.5t-51.5 -46.5l-1 -743
q0 -248 80.5 -353.5t245.5 -105.5q151 0 241.5 62.5t130.5 165t40 221.5v730q0 34 -33 51.5t-75 25t-69 10.5q-21 2 -28.5 8.5t-7.5 28.5q0 11 8.5 31t25.5 20h466q18 0 26 -20t8 -31q0 -36 -33 -37q-77 -3 -122.5 -28t-45.5 -73zM878 1589q-57 0 -119 15.5t-114.5 55.5
t-84 112.5t-29.5 186.5h127q5 -84 58.5 -135.5t161.5 -51.5t162 51.5t58 135.5h127q2 -114 -29.5 -186.5t-84 -112.5t-114.5 -55.5t-119 -15.5z" />
    <glyph glyph-name="ubreve" unicode="&#x16d;" horiz-adv-x="1323" 
d="M516 -27q-88 0 -161 22.5t-116.5 86.5t-43.5 188v549q0 43 -17.5 62.5t-44 26t-50.5 8.5q-21 2 -28.5 8.5t-7.5 28.5q0 11 8.5 26t25.5 15h354q37 0 37 -36v-627q0 -84 23.5 -146t93.5 -62q91 0 151.5 28.5t109.5 81.5v586q0 43 -23 62.5t-56.5 25.5t-65.5 9
q-21 2 -28.5 8.5t-7.5 28.5q0 11 8.5 26t25.5 15h386q37 0 37 -36v-740q0 -71 13.5 -90t29.5 -19q33 0 51 8q17 7 28 -18t11 -45q0 -13 -5 -17q-19 -14 -82.5 -38t-175.5 -24q-56 0 -84.5 27t-38.5 65.5t-11 74.5q-28 -41 -82.5 -80t-123.5 -64t-140 -25zM653 1181
q-57 0 -119 15.5t-114.5 55.5t-84 112.5t-29.5 186.5h127q5 -84 58.5 -135.5t161.5 -51.5t162 51.5t58 135.5h127q2 -114 -29.5 -186.5t-84 -112.5t-114.5 -55.5t-119 -15.5z" />
    <glyph glyph-name="Uring" unicode="&#x16e;" horiz-adv-x="1659" 
d="M1400 1230l-2 -714q-1 -255 -142 -400t-392 -145q-186 0 -325.5 57.5t-217 182.5t-77.5 327l1 696q0 43 -23 62.5t-55.5 26t-63.5 8.5q-21 2 -28.5 8.5t-7.5 28.5q0 11 8.5 31t25.5 20h596q17 0 25.5 -20t8.5 -31q0 -34 -33 -37q-52 -4 -103.5 -17.5t-51.5 -46.5l-1 -743
q0 -248 80.5 -353.5t245.5 -105.5q151 0 241.5 62.5t130.5 165t40 221.5v730q0 34 -33 51.5t-75 25t-69 10.5q-21 2 -28.5 8.5t-7.5 28.5q0 11 8.5 31t25.5 20h466q18 0 26 -20t8 -31q0 -36 -33 -37q-77 -3 -122.5 -28t-45.5 -73zM878 1549q-84 0 -152 33.5t-108.5 95.5
t-40.5 147q0 127 88 201t213 74q83 0 151.5 -35t109 -97.5t40.5 -145.5q0 -85 -40.5 -146t-109 -94t-151.5 -33zM878 1682q80 0 114 43t34 101t-34 100t-114 42t-113.5 -43t-33.5 -101t33.5 -100t113.5 -42z" />
    <glyph glyph-name="uring" unicode="&#x16f;" horiz-adv-x="1323" 
d="M516 -27q-88 0 -161 22.5t-116.5 86.5t-43.5 188v549q0 43 -17.5 62.5t-44 26t-50.5 8.5q-21 2 -28.5 8.5t-7.5 28.5q0 11 8.5 26t25.5 15h354q37 0 37 -36v-627q0 -84 23.5 -146t93.5 -62q91 0 151.5 28.5t109.5 81.5v586q0 43 -23 62.5t-56.5 25.5t-65.5 9
q-21 2 -28.5 8.5t-7.5 28.5q0 11 8.5 26t25.5 15h386q37 0 37 -36v-740q0 -71 13.5 -90t29.5 -19q33 0 51 8q17 7 28 -18t11 -45q0 -13 -5 -17q-19 -14 -82.5 -38t-175.5 -24q-56 0 -84.5 27t-38.5 65.5t-11 74.5q-28 -41 -82.5 -80t-123.5 -64t-140 -25zM653 1118
q-84 0 -152 33.5t-108.5 95.5t-40.5 147q0 127 88 201t213 74q83 0 151.5 -35t109 -97.5t40.5 -145.5q0 -85 -40.5 -146t-109 -94t-151.5 -33zM653 1251q80 0 114 43t34 101t-34 99.5t-114 41.5t-113.5 -42.5t-33.5 -100.5t33.5 -100t113.5 -42z" />
    <glyph glyph-name="Uhungarumlaut" unicode="&#x170;" horiz-adv-x="1659" 
d="M1400 1230l-2 -714q-1 -255 -142 -400t-392 -145q-186 0 -325.5 57.5t-217 182.5t-77.5 327l1 696q0 43 -23 62.5t-55.5 26t-63.5 8.5q-21 2 -28.5 8.5t-7.5 28.5q0 11 8.5 31t25.5 20h596q17 0 25.5 -20t8.5 -31q0 -34 -33 -37q-52 -4 -103.5 -17.5t-51.5 -46.5l-1 -743
q0 -248 80.5 -353.5t245.5 -105.5q151 0 241.5 62.5t130.5 165t40 221.5v730q0 34 -33 51.5t-75 25t-69 10.5q-21 2 -28.5 8.5t-7.5 28.5q0 11 8.5 31t25.5 20h466q18 0 26 -20t8 -31q0 -36 -33 -37q-77 -3 -122.5 -28t-45.5 -73zM1073 1512l-77 62q105 161 158 275t72 140
q15 19 37 31.5t48 12.5q34 0 65 -24q23 -17 32.5 -38.5t9.5 -42.5q0 -38 -25 -70q-19 -26 -108 -106.5t-212 -239.5zM661 1512l-78 62q106 161 155.5 275.5t69.5 139.5q14 18 36 31t48 13q35 0 65 -24q42 -32 42 -79q0 -39 -25 -72q-20 -26 -105.5 -106.5t-207.5 -239.5z
" />
    <glyph glyph-name="uhungarumlaut" unicode="&#x171;" horiz-adv-x="1323" 
d="M516 -27q-88 0 -161 22.5t-116.5 86.5t-43.5 188v549q0 43 -17.5 62.5t-44 26t-50.5 8.5q-21 2 -28.5 8.5t-7.5 28.5q0 11 8.5 26t25.5 15h354q37 0 37 -36v-627q0 -84 23.5 -146t93.5 -62q91 0 151.5 28.5t109.5 81.5v586q0 43 -23 62.5t-56.5 25.5t-65.5 9
q-21 2 -28.5 8.5t-7.5 28.5q0 11 8.5 26t25.5 15h386q37 0 37 -36v-740q0 -71 13.5 -90t29.5 -19q33 0 51 8q17 7 28 -18t11 -45q0 -13 -5 -17q-19 -14 -82.5 -38t-175.5 -24q-56 0 -84.5 27t-38.5 65.5t-11 74.5q-28 -41 -82.5 -80t-123.5 -64t-140 -25zM843 1111l-78 56
q106 147 159 250.5t72 127.5q15 17 36.5 28.5t47.5 11.5q34 0 66 -22q42 -30 42 -74q0 -35 -25 -64q-19 -24 -108.5 -97t-211.5 -217zM431 1111l-78 56q105 147 155 250.5t70 127.5q14 16 36 28t48 12q34 0 65 -22q42 -30 42 -73q0 -35 -25 -65q-20 -24 -105.5 -97
t-207.5 -217z" />
    <glyph glyph-name="Uogonek" unicode="&#x172;" horiz-adv-x="1659" 
d="M1400 1230l-2 -714q-1 -255 -142 -400t-392 -145q-186 0 -325.5 57.5t-217 182.5t-77.5 327l1 696q0 43 -23 62.5t-55.5 26t-63.5 8.5q-21 2 -28.5 8.5t-7.5 28.5q0 11 8.5 31t25.5 20h596q17 0 25.5 -20t8.5 -31q0 -34 -33 -37q-52 -4 -103.5 -17.5t-51.5 -46.5l-1 -743
q0 -248 80.5 -353.5t245.5 -105.5q151 0 241.5 62.5t130.5 165t40 221.5v730q0 34 -33 51.5t-75 25t-69 10.5q-21 2 -28.5 8.5t-7.5 28.5q0 11 8.5 31t25.5 20h466q18 0 26 -20t8 -31q0 -36 -33 -37q-77 -3 -122.5 -28t-45.5 -73zM1057 60l24 -25q-219 -106 -219 -252
q0 -59 43 -97t103 -38q28 0 49 4t56 23q8 4 18 -12t10 -40q0 -33 -25 -52q-34 -26 -92 -43.5t-118 -17.5q-136 0 -202 59t-66 137q0 69 47 132.5t130 112t190 72.5z" />
    <glyph glyph-name="uogonek" unicode="&#x173;" horiz-adv-x="1323" 
d="M516 -27q-88 0 -161 22.5t-116.5 86.5t-43.5 188v549q0 43 -17.5 62.5t-44 26t-50.5 8.5q-21 2 -28.5 8.5t-7.5 28.5q0 11 8.5 26t25.5 15h354q37 0 37 -36v-627q0 -84 23.5 -146t93.5 -62q91 0 151.5 28.5t109.5 81.5v586q0 43 -23 62.5t-56.5 25.5t-65.5 9
q-21 2 -28.5 8.5t-7.5 28.5q0 11 8.5 26t25.5 15h386q37 0 37 -36v-740q0 -71 13.5 -90t29.5 -19q33 0 51 8q17 7 28 -18t11 -45q0 -13 -5 -17q-19 -14 -82.5 -38t-175.5 -24q-56 0 -84.5 27t-38.5 65.5t-11 74.5q-28 -41 -82.5 -80t-123.5 -64t-140 -25zM1115 60l24 -25
q-219 -106 -219 -252q0 -59 43 -97t103 -38q28 0 49 4t56 23q8 4 18 -12t10 -40q0 -33 -25 -52q-35 -26 -92.5 -43.5t-117.5 -17.5q-136 0 -202 59t-66 137q0 69 47 132.5t130 112t189 72.5z" />
    <glyph glyph-name="Wcircumflex" unicode="&#x174;" horiz-adv-x="2213" 
d="M628 -18l-462 1238q-25 66 -60.5 84.5t-94.5 26.5q-21 3 -29 9t-8 28q0 11 9 31t25 20h610q17 0 25.5 -20t8.5 -31q0 -33 -33 -37q-150 -2 -150 -60q0 -11 4 -24l303 -869l329 1014h153l376 -995l285 852q4 12 4 22q0 29 -42.5 44t-138.5 16q-33 4 -33 37q0 11 8 31
t26 20h472q17 0 25.5 -20t8.5 -31q0 -22 -7.5 -29t-28.5 -8q-84 -1 -122 -31t-61 -97l-427 -1221h-123l-394 1023l-335 -1023h-123zM826 1559l247 348q15 21 41.5 36t72.5 15q47 0 73.5 -18t43.5 -42l244 -339h-134l-227 207l-222 -207h-139z" />
    <glyph glyph-name="wcircumflex" unicode="&#x175;" horiz-adv-x="1689" 
d="M436 -9l-321 838q-24 53 -54.5 68t-67.5 19q-21 2 -28.5 8.5t-7.5 28.5q0 11 8.5 26t25.5 15h516q17 0 25.5 -15t8.5 -26q0 -35 -33 -37q-45 -3 -76.5 -11t-31.5 -33l205 -575l209 686h186l256 -674l197 561q0 26 -41 34.5t-93 11.5q-33 2 -33 37q0 11 8.5 26t25.5 15
h359q17 0 25.5 -15t8.5 -26q0 -22 -7.5 -28.5t-28.5 -8.5q-37 -4 -66 -19t-52 -68l-309 -838h-157l-262 685l-223 -685h-172zM544 1131l247 374q15 21 41.5 36t72.5 15q47 0 74 -18t43 -42l244 -365h-134l-227 226l-222 -226h-139z" />
    <glyph glyph-name="Ycircumflex" unicode="&#x176;" horiz-adv-x="1426" 
d="M409 0q-18 0 -26 20t-8 31q0 32 43 37q33 3 71.5 4t66 13t27.5 47v376l-427 726q-36 61 -78 72t-79 15q-21 2 -28.5 8.5t-7.5 28.5q0 11 8.5 26t25.5 15h649q17 0 25.5 -15t8.5 -26q0 -33 -33 -37q-86 -5 -128.5 -10t-42.5 -30q0 -5 6.5 -16.5t8.5 -14.5l326 -620
l340 630q7 13 7 20q-1 20 -42.5 28t-108.5 13q-33 3 -33 37q0 11 8.5 26t25.5 15h415q16 0 25 -15t9 -26q0 -22 -7.5 -28.5t-28.5 -8.5q-37 -4 -77 -15t-74 -72l-396 -709v-380q0 -43 29 -57.5t69.5 -15.5t73.5 -4q21 -2 33.5 -8t12.5 -29q0 -11 -8.5 -31t-25.5 -20h-655z
M412 1559l247 348q15 21 41.5 36t72.5 15q47 0 73.5 -18t43.5 -42l244 -339h-134l-227 207l-222 -207h-139z" />
    <glyph glyph-name="ycircumflex" unicode="&#x177;" horiz-adv-x="1107" 
d="M265 -449q-47 0 -93 20.5t-76.5 55.5t-30.5 80q0 59 31 90.5t73 31.5l116 -125q70 2 120.5 63.5t116.5 196.5l-389 865q-27 52 -56.5 67.5t-65.5 19.5q-21 2 -28.5 8.5t-7.5 28.5q0 11 8 26t25 15h520q17 0 25.5 -15t8.5 -26q0 -33 -33 -37q-34 -4 -71 -12t-37 -34
l235 -613l211 612q0 27 -39.5 35t-74.5 12q-33 4 -33 37q0 11 8.5 26t25.5 15h349q17 0 25.5 -15t8.5 -26q0 -22 -7.5 -28.5t-28.5 -8.5q-36 -4 -61.5 -19.5t-50.5 -67.5l-286 -723q-42 -104 -84.5 -202.5t-92.5 -178.5t-113.5 -127t-147.5 -47zM233 1131l247 374
q15 21 41.5 36t72.5 15q47 0 74 -18t43 -42l244 -365h-134l-227 226l-222 -226h-139z" />
    <glyph glyph-name="Ydieresis" unicode="&#x178;" horiz-adv-x="1426" 
d="M409 0q-18 0 -26 20t-8 31q0 32 43 37q33 3 71.5 4t66 13t27.5 47v376l-427 726q-36 61 -78 72t-79 15q-21 2 -28.5 8.5t-7.5 28.5q0 11 8.5 26t25.5 15h649q17 0 25.5 -15t8.5 -26q0 -33 -33 -37q-86 -5 -128.5 -10t-42.5 -30q0 -5 6.5 -16.5t8.5 -14.5l326 -620
l340 630q7 13 7 20q-1 20 -42.5 28t-108.5 13q-33 3 -33 37q0 11 8.5 26t25.5 15h415q16 0 25 -15t9 -26q0 -22 -7.5 -28.5t-28.5 -8.5q-37 -4 -77 -15t-74 -72l-396 -709v-380q0 -43 29 -57.5t69.5 -15.5t73.5 -4q21 -2 33.5 -8t12.5 -29q0 -11 -8.5 -31t-25.5 -20h-655z
M1003 1605q-71 0 -111 49t-40 119q0 71 40 120t111 49q70 0 110.5 -49t40.5 -120q0 -70 -40.5 -119t-110.5 -49zM542 1605q-70 0 -110 49t-40 119q0 71 40 120t110 49t111 -49t41 -120q0 -70 -41 -119t-111 -49z" />
    <glyph glyph-name="Zacute" unicode="&#x179;" horiz-adv-x="1357" 
d="M96 0q-19 0 -25 9.5t-6 18.5v9q0 10 7.5 27.5t34.5 58.5l715 1081l97 132h-475q-33 0 -65.5 -32.5t-61 -82.5t-49.5 -104t-31 -98q-6 -33 -37 -33q-11 0 -31.5 8.5t-20.5 25.5l29 358q18 40 47 41h1026q11 0 21 -5.5t10 -19.5v-20q0 -17 -10 -34l-741 -1116l-101 -141
h496q34 0 73 34t76.5 88t66.5 114t42 111q4 33 37 33q12 0 37.5 -8.5t24.5 -25.5l-50 -388q-17 -40 -47 -41h-1089zM591 1540l-56 58q118 142 187 245.5t92 126.5q16 15 41 25.5t52 10.5q47 0 79 -33q30 -33 30 -79q0 -52 -34 -85q-23 -23 -130.5 -85t-260.5 -184z" />
    <glyph glyph-name="zacute" unicode="&#x17a;" horiz-adv-x="1025" 
d="M81 0q-18 0 -31.5 16.5t-13.5 37.5q0 22 14 46.5t39 60.5l489 672l68 77h-285q-41 0 -73.5 -32t-56.5 -77t-38 -86t-16 -59q-2 -20 -25.5 -26.5t-39.5 -6.5q-11 0 -21.5 8t-9.5 26l20 295q1 18 16.5 29.5t30.5 12.5h771q25 0 35.5 -15t10.5 -34q0 -18 -12 -42.5
t-28 -47.5l-478 -665l-89 -106l318 6q38 1 71 32t57.5 75t39.5 84.5t17 58.5q2 20 20 26.5t45 6.5q12 0 24 -8.5t11 -25.5l-20 -298q-1 -19 -16.5 -29.5t-30.5 -11.5h-813zM439 1106l-56 58q118 142 187 245.5t92 126.5q16 15 41 25.5t52 10.5q48 0 78 -33q31 -33 31 -79
q0 -52 -34 -85q-24 -23 -131 -85.5t-260 -183.5z" />
    <glyph glyph-name="Zdotaccent" unicode="&#x17b;" horiz-adv-x="1357" 
d="M96 0q-19 0 -25 9.5t-6 18.5v9q0 10 7.5 27.5t34.5 58.5l715 1081l97 132h-475q-33 0 -65.5 -32.5t-61 -82.5t-49.5 -104t-31 -98q-6 -33 -37 -33q-11 0 -31.5 8.5t-20.5 25.5l29 358q18 40 47 41h1026q11 0 21 -5.5t10 -19.5v-20q0 -17 -10 -34l-741 -1116l-101 -141
h496q34 0 73 34t76.5 88t66.5 114t42 111q4 33 37 33q12 0 37.5 -8.5t24.5 -25.5l-50 -388q-17 -40 -47 -41h-1089zM735 1552q-71 0 -119.5 48t-48.5 122t48.5 122t119.5 48q70 0 119 -48t49 -122t-49 -122t-119 -48z" />
    <glyph glyph-name="zdotaccent" unicode="&#x17c;" horiz-adv-x="1025" 
d="M81 0q-18 0 -31.5 16.5t-13.5 37.5q0 22 14 46.5t39 60.5l489 672l68 77h-285q-41 0 -73.5 -32t-56.5 -77t-38 -86t-16 -59q-2 -20 -25.5 -26.5t-39.5 -6.5q-11 0 -21.5 8t-9.5 26l20 295q1 18 16.5 29.5t30.5 12.5h771q25 0 35.5 -15t10.5 -34q0 -18 -12 -42.5
t-28 -47.5l-478 -665l-89 -106l318 6q38 1 71 32t57.5 75t39.5 84.5t17 58.5q2 20 20 26.5t45 6.5q12 0 24 -8.5t11 -25.5l-20 -298q-1 -19 -16.5 -29.5t-30.5 -11.5h-813zM544 1171q-71 0 -119.5 47.5t-48.5 122.5q0 74 48.5 122t119.5 48q70 0 119 -48t49 -122
q0 -75 -49 -122.5t-119 -47.5z" />
    <glyph glyph-name="Zcaron" unicode="&#x17d;" horiz-adv-x="1357" 
d="M96 0q-19 0 -25 9.5t-6 18.5v9q0 10 7.5 27.5t34.5 58.5l715 1081l97 132h-475q-33 0 -65.5 -32.5t-61 -82.5t-49.5 -104t-31 -98q-6 -33 -37 -33q-11 0 -31.5 8.5t-20.5 25.5l29 358q18 40 47 41h1026q11 0 21 -5.5t10 -19.5v-20q0 -17 -10 -34l-741 -1116l-101 -141
h496q34 0 73 34t76.5 88t66.5 114t42 111q4 33 37 33q12 0 37.5 -8.5t24.5 -25.5l-50 -388q-17 -40 -47 -41h-1089zM735 1562q-46 0 -73 14.5t-43 36.5l-243 345h138l221 -204l226 204h133l-243 -336q-17 -24 -43 -42t-73 -18z" />
    <glyph glyph-name="zcaron" unicode="&#x17e;" horiz-adv-x="1025" 
d="M81 0q-18 0 -31.5 16.5t-13.5 37.5q0 22 14 46.5t39 60.5l489 672l68 77h-285q-41 0 -73.5 -32t-56.5 -77t-38 -86t-16 -59q-2 -20 -25.5 -26.5t-39.5 -6.5q-11 0 -21.5 8t-9.5 26l20 295q1 18 16.5 29.5t30.5 12.5h771q25 0 35.5 -15t10.5 -34q0 -18 -12 -42.5
t-28 -47.5l-478 -665l-89 -106l318 6q38 1 71 32t57.5 75t39.5 84.5t17 58.5q2 20 20 26.5t45 6.5q12 0 24 -8.5t11 -25.5l-20 -298q-1 -19 -16.5 -29.5t-30.5 -11.5h-813zM543 1131q-46 0 -73 14.5t-42 36.5l-244 355h139l221 -214l225 214h134l-248 -355
q-16 -18 -40.5 -34.5t-71.5 -16.5z" />
    <glyph glyph-name="longs" unicode="&#x17f;" horiz-adv-x="689" 
d="M88 0q-17 0 -25.5 15t-8.5 26q0 33 33 37q37 3 76.5 15.5t39.5 41.5v941q0 127 45.5 239t138 181.5t231.5 69.5q124 0 178.5 -43t55.5 -99q3 -61 -36 -100t-81 -39q-1 0 -6 1t-6 2l-136 169q-29 -2 -53.5 -27.5t-39.5 -100t-15 -222.5v-939q0 -40 27 -58t65 -24t70 -8
q21 -2 28.5 -8t7.5 -29q0 -11 -8 -26t-26 -15h-555z" />
    <glyph glyph-name="uni018F" unicode="&#x18f;" horiz-adv-x="1602" 
d="M753 -30q-177 0 -299.5 54t-198 140.5t-110 185t-34.5 187.5q0 56 9 91.5t19 35.5h1026q1 20 1 42q0 166 -31 280.5t-81.5 186.5t-110 111.5t-117 54t-101.5 14.5q-121 0 -200 -43.5t-125.5 -115t-69.5 -155.5q-2 -16 -22.5 -22.5t-38.5 -6.5q-4 0 -7 0.5t-6 0.5
q-13 0 -32.5 11.5t-17.5 28.5l22 310q53 23 176 55.5t319 32.5q99 0 207 -24.5t210.5 -78.5t185 -141t131 -210.5t48.5 -288.5q0 -166 -48 -289t-129 -209t-180 -138.5t-202 -76t-193 -23.5zM422 454q0 -99 37 -188t107 -145t170 -56q89 0 179.5 47t158 158.5t86.5 304.5
l-727 -4q-6 -21 -8.5 -52t-2.5 -65z" />
    <glyph glyph-name="florin" unicode="&#x192;" horiz-adv-x="1149" 
d="M40 -452q-99 0 -159 41t-60 110q0 57 39.5 95t81.5 37l172 -178q46 1 80 96.5t59 250.5l80 518h-159q-12 1 -18 15t-6 26q0 38 25 48l173 12l32 200q20 127 76.5 241t160.5 185.5t266 71.5q63 0 119 -22.5t90.5 -61.5t34.5 -90q0 -63 -36 -107t-78 -43l-206 214
q-42 21 -80 -61.5t-71 -294.5l-36 -232h240q12 -1 18 -11.5t6 -22.5q0 -19 -7 -40.5t-17 -26.5h-256l-75 -486q-20 -127 -75 -237t-156 -178.5t-258 -68.5z" />
    <glyph glyph-name="Ohorn" unicode="&#x1a0;" horiz-adv-x="1632" 
d="M819 -29q-169 0 -302.5 58t-226.5 160.5t-142 237.5t-49 289q0 205 86.5 371t248.5 264t388 98q138 0 257 -40q91 6 145.5 50.5t78.5 105t24 114.5q0 13 -0.5 23.5t-1.5 17.5h203q2 -15 4 -46.5t2 -44.5q0 -78 -33 -134.5t-81.5 -92.5t-96.5 -54.5t-78 -20.5
q143 -98 219.5 -258t76.5 -353q0 -154 -49 -289t-143 -237.5t-227.5 -160.5t-302.5 -58zM823 65q138 0 220.5 78.5t119 224t36.5 346.5q0 302 -87 472t-295 170t-292.5 -170t-84.5 -472q0 -201 38 -346.5t122.5 -224t222.5 -78.5z" />
    <glyph glyph-name="ohorn" unicode="&#x1a1;" horiz-adv-x="1242" 
d="M76 492q0 164 68.5 281t192 179t290.5 62q89 0 166 -18q86 9 132.5 56t64.5 106t18 102v23.5t-2 18.5h203q3 -15 4.5 -47t1.5 -45q-1 -89 -48 -150t-107.5 -94.5t-101.5 -38.5q100 -66 153.5 -176t53.5 -259q0 -246 -147 -383.5t-398 -137.5t-397.5 137.5t-146.5 383.5z
M386 492q0 -201 49 -313.5t188 -112.5q138 0 185 112.5t47 313.5t-49 313.5t-187 112.5q-139 0 -186 -113t-47 -313z" />
    <glyph glyph-name="Uhorn" unicode="&#x1af;" horiz-adv-x="1658" 
d="M1400 1230l-2 -714q-1 -255 -142 -400t-392 -145q-186 0 -325.5 57.5t-217 182.5t-77.5 327l1 696q0 43 -23 62.5t-55.5 26t-63.5 8.5q-21 2 -28.5 8.5t-7.5 28.5q0 11 8.5 31t25.5 20h595q17 0 25.5 -20t8.5 -31q0 -34 -33 -37q-52 -4 -103.5 -17.5t-51.5 -46.5l-1 -743
q0 -248 82.5 -353.5t244.5 -105.5q151 0 241.5 62.5t130.5 165t40 221.5v730q0 34 -33 51.5t-75 25t-69 10.5q-21 2 -28.5 8.5t-7.5 28.5q0 11 8.5 31t25.5 20h298q76 8 111.5 47t45 90t9.5 96v45t-2 23h203q2 -15 4 -46.5t2 -44.5q-2 -95 -42 -163t-95.5 -103.5
t-102.5 -35.5q-132 -4 -132 -97z" />
    <glyph glyph-name="uhorn" unicode="&#x1b0;" horiz-adv-x="1323" 
d="M503 -27q-89 0 -161.5 22.5t-116 86.5t-43.5 188v549q0 65 -36.5 79t-73.5 18q-21 2 -28.5 8.5t-7.5 28.5q0 11 9 26t25 15h353q37 0 37 -36v-627q0 -84 23 -146t93 -62q90 0 151 28.5t110 81.5v586q0 43 -23 62.5t-56.5 25.5t-65.5 9q-21 2 -28.5 8.5t-7.5 28.5
q0 11 8.5 26t25.5 15h223q90 0 131.5 40t52.5 96t11 103v45t-2 24h203q3 -15 4.5 -47t1.5 -45q-1 -87 -35.5 -147.5t-81 -94.5t-85.5 -41v-709q0 -65 13 -87t29 -22q14 0 27.5 1.5t26.5 6.5q17 7 28 -18t11 -45q0 -13 -5 -17q-19 -13 -81.5 -37.5t-175.5 -24.5
q-56 0 -84.5 28t-39.5 67t-14 72q-27 -41 -81.5 -80t-123.5 -64t-140 -25z" />
    <glyph glyph-name="uni01C4" unicode="&#x1c4;" horiz-adv-x="3012" 
d="M143 0q-17 0 -25.5 20t-8.5 31q0 33 33 37q48 4 96.5 17.5t48.5 46.5v1082q0 43 -25 62t-60.5 25.5t-66.5 9.5q-21 2 -28.5 8.5t-7.5 28.5q0 11 8.5 31t25.5 20h666q204 -1 352.5 -58t244.5 -154t142.5 -218.5t46.5 -250.5q0 -195 -69 -335t-178.5 -229t-235 -131.5
t-237.5 -42.5h-722zM586 168q0 -14 16 -29.5t60.5 -26.5t131.5 -11q92 0 172 19.5t141.5 82t96.5 189.5t35 342q0 186 -38 301.5t-102.5 178t-145.5 85.5t-169 23h-197zM1751 0q-19 0 -25 9.5t-6 18.5v9q0 10 7.5 27.5t34.5 58.5l715 1081l97 132h-475q-33 0 -65.5 -32.5
t-61 -82.5t-49.5 -104t-31 -98q-6 -33 -37 -33q-11 0 -31.5 8.5t-20.5 25.5l29 358q18 40 47 41h1026q11 0 21 -5.5t10 -19.5v-20q0 -17 -10 -34l-741 -1116l-101 -141h496q34 0 73 34t76.5 88t66.5 114t42 111q4 33 37 33q12 0 37.5 -8.5t24.5 -25.5l-50 -388
q-17 -40 -47 -41h-1089zM2390 1562q-46 0 -73 14.5t-43 36.5l-243 345h138l221 -204l226 204h133l-243 -336q-17 -24 -43 -42t-73 -18z" />
    <glyph glyph-name="uni01C5" unicode="&#x1c5;" horiz-adv-x="2680" 
d="M143 0q-17 0 -25.5 20t-8.5 31q0 33 33 37q48 4 96.5 17.5t48.5 46.5v1082q0 43 -25 62t-60.5 25.5t-66.5 9.5q-21 2 -28.5 8.5t-7.5 28.5q0 11 8.5 31t25.5 20h666q204 -1 352.5 -58t244.5 -154t142.5 -218.5t46.5 -250.5q0 -195 -69 -335t-178.5 -229t-235 -131.5
t-237.5 -42.5h-722zM586 168q0 -14 16 -29.5t60.5 -26.5t131.5 -11q92 0 172 19.5t141.5 82t96.5 189.5t35 342q0 186 -38 301.5t-102.5 178t-145.5 85.5t-169 23h-197zM1736 0q-18 0 -31.5 16.5t-13.5 37.5q0 22 14 46.5t39 60.5l489 672l68 77h-285q-41 0 -73.5 -32
t-56.5 -77t-38 -86t-16 -59q-2 -20 -25.5 -26.5t-39.5 -6.5q-11 0 -21.5 8t-9.5 26l20 295q1 18 16.5 29.5t30.5 12.5h771q25 0 35.5 -15t10.5 -34q0 -18 -12 -42.5t-28 -47.5l-478 -665l-89 -106l318 6q38 1 71 32t57.5 75t39.5 84.5t17 58.5q2 20 20 26.5t45 6.5
q12 0 24 -8.5t11 -25.5l-20 -298q-1 -19 -16.5 -29.5t-30.5 -11.5h-813zM2198 1131q-46 0 -73 14.5t-42 36.5l-244 355h139l221 -214l225 214h134l-248 -355q-16 -18 -40.5 -34.5t-71.5 -16.5z" />
    <glyph glyph-name="uni01C6" unicode="&#x1c6;" horiz-adv-x="2328" 
d="M538 -29q-162 0 -259.5 74t-140.5 193t-43 254t53.5 254t162.5 193.5t277 74.5q81 0 144.5 -14t124.5 -56l-10 161v227q0 52 -29.5 77t-75 34t-92.5 14q-11 5 -17.5 13t-6.5 27q0 12 6 28t18 16q85 6 173.5 8t160.5 2.5t108 0.5q8 0 19 -8.5t11 -32.5v-1336
q0 -64 37.5 -78.5t74.5 -18.5q21 -2 28.5 -8t7.5 -29q0 -11 -8.5 -26t-25.5 -15h-307q-59 0 -68 26.5t-8 78.5q-52 -66 -142.5 -100t-172.5 -34zM657 101q49 0 105.5 26t84.5 72v606q-17 42 -69.5 74.5t-110.5 32.5q-106 0 -165 -53.5t-83.5 -148.5t-24.5 -218
q0 -113 24 -201t81.5 -139t157.5 -51zM1384 0q-18 0 -31.5 16.5t-13.5 37.5q0 22 14 46.5t39 60.5l489 672l68 77h-285q-41 0 -73.5 -32t-56.5 -77t-38 -86t-16 -59q-2 -20 -25.5 -26.5t-39.5 -6.5q-11 0 -21.5 8t-9.5 26l20 295q1 18 16.5 29.5t30.5 12.5h771
q25 0 35.5 -15t10.5 -34q0 -18 -12 -42.5t-28 -47.5l-478 -665l-89 -106l318 6q38 1 71 32t57.5 75t39.5 84.5t17 58.5q2 20 20 26.5t45 6.5q12 0 24 -8.5t11 -25.5l-20 -298q-1 -19 -16.5 -29.5t-30.5 -11.5h-813zM1846 1131q-46 0 -73 14.5t-42 36.5l-244 355h139
l221 -214l225 214h134l-248 -355q-16 -18 -40.5 -34.5t-71.5 -16.5z" />
    <glyph glyph-name="uni01C7" unicode="&#x1c7;" horiz-adv-x="2523" 
d="M143 0q-17 0 -25.5 20t-8.5 31q0 34 33 37q48 4 95 21t47 50v1075q0 43 -23 62.5t-57.5 25.5t-68.5 9q-21 2 -28.5 8.5t-7.5 28.5q0 11 8.5 31t25.5 20h633q17 0 25.5 -20t8.5 -31q0 -37 -33 -37q-74 0 -129 -19t-55 -75v-1060q0 -49 28.5 -62.5t65.5 -13.5h277
q46 0 92 54.5t84.5 133.5t62.5 151q6 18 30 25.5t40 7.5q18 0 36 -8.5t15 -25.5l-56 -439h-1115zM1788 -30q-70 0 -151 29.5t-150 89.5q-50 44 -71.5 102t-21.5 115q0 98 49.5 156t141.5 58q49 0 79 -22t30 -43l-54 -362q28 -15 63 -24.5t76 -9.5q106 0 160.5 81.5
t54.5 265.5l1 828q0 43 -29.5 62.5t-72 26t-82.5 8.5q-21 2 -28.5 8.5t-7.5 28.5q0 11 8.5 31t25.5 20h632q17 0 25.5 -20t8.5 -31q0 -35 -33 -37q-66 -3 -110 -17t-44 -47v-828q0 -147 -48.5 -239t-125 -142t-163 -69t-163.5 -19z" />
    <glyph glyph-name="uni01C8" unicode="&#x1c8;" horiz-adv-x="2028" 
d="M143 0q-17 0 -25.5 20t-8.5 31q0 34 33 37q48 4 95 21t47 50v1075q0 43 -23 62.5t-57.5 25.5t-68.5 9q-21 2 -28.5 8.5t-7.5 28.5q0 11 8.5 31t25.5 20h633q17 0 25.5 -20t8.5 -31q0 -37 -33 -37q-74 0 -129 -19t-55 -75v-1060q0 -49 28.5 -62.5t65.5 -13.5h277
q46 0 92 54.5t84.5 133.5t62.5 151q6 18 30 25.5t40 7.5q18 0 36 -8.5t15 -25.5l-56 -439h-1115zM1460 -449q-79 0 -133 28t-81.5 69.5t-27.5 80.5q0 56 38.5 93t82.5 37q27 0 43.5 -15t40.5 -59.5t74 -131.5q42 1 64.5 72t22.5 230l1 823q0 62 -28.5 84.5t-66 26.5
t-64.5 11q-10 5 -17 13t-7 27q0 12 6 27.5t18 16.5q129 8 239.5 10.5t166.5 2.5q8 0 18.5 -8t11.5 -32l-1 -891q0 -100 -16 -192.5t-58 -165t-121 -115t-206 -42.5zM1694 1171q-71 0 -119.5 47.5t-48.5 122.5q0 74 48.5 122t119.5 48q70 0 119 -48t49 -122q0 -75 -49 -122.5
t-119 -47.5z" />
    <glyph glyph-name="uni01C9" unicode="&#x1c9;" horiz-adv-x="1344" 
d="M79 0q-17 0 -26 14t-9 27q0 34 33 37q36 3 75.5 15.5t39.5 41.5l1 1196q0 63 -30 85.5t-69 26.5t-67 11q-11 5 -17.5 13.5t-6.5 26.5q0 12 6 28t18 17q127 8 238 10.5t167 2.5q8 0 18.5 -8.5t11.5 -32.5v-1343q0 -40 20.5 -58t49 -23.5t52.5 -8.5q21 -2 28.5 -8.5
t7.5 -27.5q0 -13 -9 -27.5t-26 -14.5h-506zM776 -449q-79 0 -133 28t-81.5 69.5t-27.5 80.5q0 56 38.5 93t82.5 37q27 0 43.5 -15t40.5 -59.5t74 -131.5q42 1 64.5 72t22.5 230l1 823q0 62 -28.5 84.5t-66 26.5t-64.5 11q-10 5 -17 13t-7 27q0 12 6 27.5t18 16.5
q129 8 239.5 10.5t166.5 2.5q8 0 18.5 -8t11.5 -32l-1 -891q0 -100 -16 -192.5t-58 -165t-121 -115t-206 -42.5zM1010 1171q-71 0 -119.5 47.5t-48.5 122.5q0 74 48.5 122t119.5 48q70 0 119 -48t49 -122q0 -75 -49 -122.5t-119 -47.5z" />
    <glyph glyph-name="uni01CA" unicode="&#x1ca;" horiz-adv-x="2844" 
d="M87 0q-17 0 -25.5 20t-8.5 31q0 33 33 37q32 3 73.5 10t72 24.5t30.5 49.5v1024q0 43 -33 72t-76 44.5t-73 18.5q-21 2 -28.5 8.5t-7.5 28.5q0 11 8.5 31t25.5 20h442l800 -999h12v814q0 43 -32.5 62t-75.5 25.5t-73 9.5q-21 2 -28.5 8.5t-7.5 28.5q0 11 8.5 31t25.5 20
h469q17 0 25.5 -20t8.5 -31q0 -33 -33 -37q-31 -3 -72 -11t-72 -27t-31 -56v-1124q0 -19 1.5 -31.5t4.5 -41.5q3 -40 -32 -55t-63 -15q-36 0 -54 22l-904 1118h-17v-925q0 -43 35.5 -62t81 -25t76.5 -10q21 -2 28.5 -8t7.5 -29q0 -11 -8.5 -31t-25.5 -20h-488zM2109 -30
q-70 0 -151 29.5t-150 89.5q-50 44 -71.5 102t-21.5 115q0 98 49.5 156t141.5 58q49 0 79 -22t30 -43l-54 -362q28 -15 63 -24.5t76 -9.5q106 0 160.5 81.5t54.5 265.5l1 828q0 43 -29.5 62.5t-72 26t-82.5 8.5q-21 2 -28.5 8.5t-7.5 28.5q0 11 8.5 31t25.5 20h632
q17 0 25.5 -20t8.5 -31q0 -35 -33 -37q-66 -3 -110 -17t-44 -47v-828q0 -147 -48.5 -239t-125 -142t-163 -69t-163.5 -19z" />
    <glyph glyph-name="uni01CB" unicode="&#x1cb;" horiz-adv-x="2349" 
d="M87 0q-17 0 -25.5 20t-8.5 31q0 33 33 37q32 3 73.5 10t72 24.5t30.5 49.5v1024q0 43 -33 72t-76 44.5t-73 18.5q-21 2 -28.5 8.5t-7.5 28.5q0 11 8.5 31t25.5 20h442l800 -999h12v814q0 43 -32.5 62t-75.5 25.5t-73 9.5q-21 2 -28.5 8.5t-7.5 28.5q0 11 8.5 31t25.5 20
h469q17 0 25.5 -20t8.5 -31q0 -33 -33 -37q-31 -3 -72 -11t-72 -27t-31 -56v-1124q0 -19 1.5 -31.5t4.5 -41.5q3 -40 -32 -55t-63 -15q-36 0 -54 22l-904 1118h-17v-925q0 -43 35.5 -62t81 -25t76.5 -10q21 -2 28.5 -8t7.5 -29q0 -11 -8.5 -31t-25.5 -20h-488zM1781 -449
q-79 0 -133 28t-81.5 69.5t-27.5 80.5q0 56 38.5 93t82.5 37q27 0 43.5 -15t40.5 -59.5t74 -131.5q42 1 64.5 72t22.5 230l1 823q0 62 -28.5 84.5t-66 26.5t-64.5 11q-10 5 -17 13t-7 27q0 12 6 27.5t18 16.5q129 8 239.5 10.5t166.5 2.5q8 0 18.5 -8t11.5 -32l-1 -891
q0 -100 -16 -192.5t-58 -165t-121 -115t-206 -42.5zM2015 1171q-71 0 -119.5 47.5t-48.5 122.5q0 74 48.5 122t119.5 48q70 0 119 -48t49 -122q0 -75 -49 -122.5t-119 -47.5z" />
    <glyph glyph-name="uni01CC" unicode="&#x1cc;" horiz-adv-x="2026" 
d="M104 0q-17 0 -25.5 15t-8.5 26q0 33 33 37q37 5 73 18t36 46v636q0 62 -26.5 84.5t-62 26.5t-60.5 11q-10 5 -17 13t-7 27q0 12 6 28t18 17q126 7 228.5 9.5t155.5 2.5q9 0 18.5 -8t11.5 -32v-112q19 21 78 61.5t142 74t174 33.5q79 0 146.5 -21.5t109 -82.5t41.5 -179
v-556q0 -48 22 -67t52.5 -22.5t55.5 -7.5q16 -2 24.5 -8.5t8.5 -28.5q0 -11 -8.5 -26t-25.5 -15h-504q-17 0 -25.5 15t-8.5 26q0 16 5.5 25.5t25.5 11.5q32 3 65.5 19.5t33.5 44.5v595q0 22 -5.5 54t-31 56.5t-85.5 24.5q-56 0 -111 -20.5t-99.5 -49.5t-69.5 -55v-572
q0 -64 35 -78.5t72 -18.5q21 -2 28.5 -8t7.5 -29q0 -11 -9 -26t-25 -15h-492zM1458 -449q-79 0 -133 28t-81.5 69.5t-27.5 80.5q0 56 38.5 93t82.5 37q27 0 43.5 -15t40.5 -59.5t74 -131.5q42 1 64.5 72t22.5 230l1 823q0 62 -28.5 84.5t-66 26.5t-64.5 11q-10 5 -17 13
t-7 27q0 12 6 27.5t18 16.5q129 8 239.5 10.5t166.5 2.5q8 0 18.5 -8t11.5 -32l-1 -891q0 -100 -16 -192.5t-58 -165t-121 -115t-206 -42.5zM1692 1171q-71 0 -119.5 47.5t-48.5 122.5q0 74 48.5 122t119.5 48q70 0 119 -48t49 -122q0 -75 -49 -122.5t-119 -47.5z" />
    </font>
</defs>
</svg>
