<?xml version="1.0" standalone="no"?>
<!DOCTYPE svg PUBLIC "-//W3C//DTD SVG 1.1//EN" "http://www.w3.org/Graphics/SVG/1.1/DTD/svg11.dtd" >
<svg xmlns="http://www.w3.org/2000/svg" xmlns:xlink="http://www.w3.org/1999/xlink" version="1.1">
<metadata>
Created by FontForge 20170731 at Thu Jun  9 11:34:56 2022
 By Aleksey,,,
Copyright 2022 The Gelasio Project Authors (https://github.com/SorkinType/Gelasio)
</metadata>
<defs>
<font id="Gelasio-Regular" horiz-adv-x="0" >
  <font-face 
    font-family="Gelasio"
    font-weight="400"
    font-stretch="normal"
    units-per-em="2048"
    panose-1="0 0 0 0 0 0 0 0 0 0"
    ascent="1638"
    descent="-410"
    x-height="994"
    cap-height="1419"
    bbox="-536 -635 2705.22 2593"
    underline-thickness="106"
    underline-position="-349"
    unicode-range="U+000D-FB02"
  />
<missing-glyph horiz-adv-x="2048" 
d="M256 0v1547h1556v-1547h-1556zM362 90h1344v1367h-1344v-1367zM581 397l365 370l-365 371l92 86l361 -367l361 367l92 -86l-365 -371l365 -370l-92 -85l-361 366l-361 -366z" />
    <glyph glyph-name="fi" unicode="fi" horiz-adv-x="1193" 
d="M58 0q-17 0 -25.5 15t-8.5 26q0 33 33 37q37 4 76.5 17.5t39.5 46.5v765h-123q-12 1 -18 11.5t-6 22.5q0 33 24 43l122 10l1 81q2 162 74 273t198.5 168t291.5 57q135 0 219 -49.5t84 -119.5q0 -76 -23.5 -106t-56 -35t-60.5 -5l-123 193q-34 23 -82 23q-81 0 -158 -31.5
t-127.5 -111.5t-50.5 -224v-113h488q47 2 84.5 2t61.5 1q8 0 18 -8t12 -32v-782q0 -43 20.5 -62.5t49 -25.5t52.5 -9q21 -2 28.5 -8t7.5 -29q0 -11 -8.5 -26t-25.5 -15h-425q-17 0 -25.5 15t-8.5 26q0 33 33 37q37 4 76 17.5t39 46.5l1 636q0 62 -26 89.5t-61 34t-62 6.5
l-329 -1v-732q0 -43 27 -62.5t65 -25.5t70 -9q21 -2 28.5 -8t7.5 -29q0 -11 -8.5 -26t-25.5 -15h-465z" />
    <glyph glyph-name="fl" unicode="fl" horiz-adv-x="1208" 
d="M58 0q-17 0 -25.5 15t-8.5 26q0 33 33 37q37 5 76.5 18t39.5 46v765h-122q-12 1 -18 11.5t-6 22.5q0 39 43 45l103 6v83q0 96 22.5 185t75 159.5t142.5 112t226 41.5q107 0 164.5 -27.5t84.5 -54.5q8 4 9.5 4t9.5 3.5t34 15.5q10 5 19.5 9.5t17.5 4.5q12 0 20.5 -8
t8.5 -32v-1313q0 -43 20.5 -62.5t49 -25.5t52.5 -9q21 -2 28.5 -8t7.5 -29q0 -11 -8.5 -26t-25.5 -15h-425q-17 0 -25.5 15t-8.5 26q0 33 33 37q37 5 76 18t39 46v1191q0 33 -28 67t-69.5 57t-83.5 23q-53 0 -103 -12t-89.5 -49t-63 -111.5t-23.5 -200.5v-115h210
q12 -1 18 -11.5t6 -22.5q0 -41 -24 -51h-210v-732q0 -43 27 -62.5t65 -25.5t70 -9q21 -2 28.5 -8t7.5 -29q0 -11 -8.5 -26t-25.5 -15h-466z" />
    <glyph glyph-name="f_f" unicode="ff" horiz-adv-x="1270" 
d="M97 0q-17 0 -25.5 15t-8.5 26q0 33 33 37q37 5 76.5 18t39.5 46v765h-123q-12 1 -18 11.5t-6 22.5q0 33 24 43l122 10l1 61q2 128 45 241.5t125.5 185t203.5 71.5q96 0 146 -40.5t56 -91.5q5 -39 -18 -69t-52.5 -46.5t-47.5 -16.5l-120 166q-37 -6 -72 -32t-57.5 -102.5
t-22.5 -233.5v-93h210v-2l207 2l1 81q2 128 44 241.5t124 185t203 71.5q96 0 146 -40.5t56 -91.5q5 -39 -18 -69t-52.5 -46.5t-47.5 -16.5l-120 166q-37 -6 -71 -32t-56 -102.5t-22 -233.5v-113h210q12 -1 18 -11.5t6 -22.5q0 -43 -24 -53h-210v-732q0 -43 27 -62t65 -25
t70 -10q21 -2 28.5 -8t7.5 -29q0 -11 -8.5 -26t-25.5 -15h-465q-17 0 -25.5 15t-8.5 26q0 33 33 37q37 5 76.5 18t39.5 46v765h-418v-732q0 -43 27 -62t65 -25t70 -10q21 -2 28.5 -8t7.5 -29q0 -11 -8.5 -26t-25.5 -15h-465z" />
    <glyph glyph-name="f_f_i" unicode="ffi" horiz-adv-x="1810" 
d="M1314 0q-17 0 -25.5 15t-8.5 26q0 33 33 37q37 5 76 18t39 46l1 636q0 62 -26 85t-61 28t-62 12q-5 2 -8 4h-250v-732q0 -43 27 -62t65 -25t70 -10q21 -2 28.5 -8t7.5 -29q0 -11 -8.5 -26t-25.5 -15h-465q-17 0 -25.5 15t-8.5 26q0 33 33 37q37 5 76.5 18t39.5 46v765
h-438v-732q0 -43 27 -62t65 -25t70 -10q21 -2 28.5 -8t7.5 -29q0 -11 -8.5 -26t-25.5 -15h-465q-17 0 -25.5 15t-8.5 26q0 33 33 37q37 5 76.5 18t39.5 46v765h-123q-12 1 -18 11.5t-6 22.5q0 33 24 43l122 10l1 61q2 128 45 241.5t125.5 185t203.5 71.5q96 0 146 -40.5
t56 -91.5q5 -39 -18 -69t-52.5 -46.5t-47.5 -16.5l-120 166q-37 -6 -72 -32.5t-57.5 -102.5t-22.5 -233v-93h437l1 81q2 127 46.5 241t131 185.5t211.5 71.5q187 0 200 -107l1 -8q34 47 93 47q55 0 88 -40t33 -99q0 -58 -33 -98.5t-88 -40.5t-88 40.5t-33 98.5q0 14 2 26
q-14 -11 -31.5 -14.5t-31.5 -3.5l-115 108q-64 -6 -108.5 -34t-68 -106t-23.5 -235v-113h407q50 2 90 2.5t66 0.5q8 0 18 -8t12 -32v-782q0 -43 20.5 -62.5t49 -25.5t52.5 -9q21 -2 28.5 -8t7.5 -29q0 -11 -8.5 -26t-25.5 -15h-425z" />
    <glyph glyph-name="f_f_l" unicode="ffl" horiz-adv-x="1810" 
d="M76 0q-17 0 -25.5 15t-8.5 26q0 33 33 37q37 5 76.5 18t39.5 46v765h-123q-12 1 -18 11.5t-6 22.5q0 33 24 43l122 10l1 61q2 128 45 241.5t125.5 185t203.5 71.5q96 0 146 -40.5t56 -91.5q5 -39 -18 -69t-52.5 -46.5t-47.5 -16.5l-120 166q-37 -6 -72 -32t-57.5 -102.5
t-22.5 -233.5v-93h210v-2l207 2l1 81q2 128 44 241.5t124 185t203 71.5q68 0 117 -24q98 6 181.5 7t125.5 2q8 0 18 -8t12 -32v-1343q0 -43 20.5 -62.5t49 -25.5t52.5 -9q36 -4 36 -34q0 -18 -10.5 -31t-28.5 -13h-417q-16 0 -26.5 12.5t-10.5 28.5q0 33 33 37q37 4 77 17.5
t40 46.5l1 1197q0 50 -20.5 73.5t-48.5 33.5q1 -2 1 -5q5 -39 -18 -69t-52.5 -46.5t-47.5 -16.5l-120 166q-37 -6 -71 -32t-56 -102.5t-22 -233.5v-113h210q12 -1 18 -11.5t6 -22.5q0 -43 -24 -53h-210v-732q0 -43 27 -62t65 -25t70 -10q21 -2 28.5 -8t7.5 -29
q0 -11 -8.5 -26t-25.5 -15h-465q-17 0 -25.5 15t-8.5 26q0 33 33 37q37 5 76.5 18t39.5 46v765h-418v-732q0 -43 27 -62t65 -25t70 -10q21 -2 28.5 -8t7.5 -29q0 -11 -8.5 -26t-25.5 -15h-465z" />
    <glyph glyph-name=".notdef" horiz-adv-x="2048" 
d="M256 0v1547h1556v-1547h-1556zM362 90h1344v1367h-1344v-1367zM581 397l365 370l-365 371l92 86l361 -367l361 367l92 -86l-365 -371l365 -370l-92 -85l-361 366l-361 -366z" />
    <glyph glyph-name=".null" 
 />
    <glyph glyph-name="nonmarkingreturn" horiz-adv-x="682" 
 />
    <glyph glyph-name="CR" unicode="&#xd;" 
 />
    <glyph glyph-name="space" unicode=" " horiz-adv-x="494" 
 />
    <glyph glyph-name="exclam" unicode="!" horiz-adv-x="678" 
d="M299 432q-33 436 -62 671.5t-29 285.5q0 59 38 99t93 40t93 -40t38 -99q0 -50 -35 -285.5t-56 -671.5h-80zM339 -20q-59 0 -99.5 43t-40.5 99t40.5 95.5t99.5 39.5t100 -39.5t41 -95.5t-41 -99t-100 -43z" />
    <glyph glyph-name="quotedbl" unicode="&#x22;" horiz-adv-x="843" 
d="M154 967q2 70 2 158v174.5t1.5 152t5.5 90.5q9 59 43.5 99t89.5 40t76.5 -40t12.5 -99q-4 -25 -23.5 -90.5t-46.5 -152t-54.5 -174.5t-48.5 -158h-58zM563 967q2 70 2 158v174.5t1.5 152t5.5 90.5q9 59 43.5 99t89.5 40t76.5 -40t12.5 -99q-4 -25 -23.5 -90.5t-46.5 -152
t-54.5 -174.5t-48.5 -158h-58z" />
    <glyph glyph-name="numbersign" unicode="#" horiz-adv-x="1317" 
d="M233 0l75 400h-209v126h233l70 374h-254v126h278l74 393h147l-74 -393h290l74 393h147l-74 -393h208v-126h-232l-71 -374h233v-126h-257l-76 -400h-145l75 400h-291l-76 -400h-145zM478 526h291l70 374h-290z" />
    <glyph glyph-name="dollar" unicode="$" horiz-adv-x="1249" 
d="M601 -245v219q-85 10 -134 33.5t-77 33.5q-29 11 -48 26t-36 15q-14 0 -30 -17q-38 -41 -66 -41q-38 0 -35 48q2 20 2 41v41q0 67 -5.5 136.5t-10.5 118t-5 51.5q0 26 13.5 38t29.5 12q15 0 29 -10.5t18 -31.5q5 -25 17.5 -66.5t52.5 -127.5q36 -76 97 -123.5t127 -69.5
t118 -22q90 0 160 59t70 193q0 58 -41 104t-108 85t-145 76q-92 44 -180 101t-145.5 137t-57.5 191q0 115 60.5 189.5t150.5 112.5t179 43v198h106v-203q56 -9 95 -23.5t58 -18.5q15 -3 26 -3q23 0 32.5 9t23.5 18q11 7 24 7q17 0 30 -11.5t13 -26.5q0 -12 3 -59t8.5 -107.5
t13.5 -115.5q1 -7 1 -18q0 -30 -13.5 -42t-29.5 -12q-13 0 -25 7t-14 16q-27 161 -113 234t-195 73q-103 0 -169.5 -49.5t-66.5 -173.5q0 -58 44 -108t114 -93t148 -83q93 -47 179.5 -105t142 -133t55.5 -175q0 -183 -108.5 -278t-276.5 -103v-216h-106z" />
    <glyph glyph-name="percent" unicode="%" horiz-adv-x="1674" 
d="M438 711q-151 0 -240 98.5t-89 266.5q0 172 91 272.5t242 100.5q155 0 246 -100.5t91 -272.5q0 -168 -93 -266.5t-248 -98.5zM361 0l792 1419h147l-794 -1419h-145zM440 788q94 0 131.5 71.5t37.5 216.5q0 149 -39 222.5t-133 73.5t-131.5 -73.5t-37.5 -222.5
q0 -145 39 -216.5t133 -71.5zM1224 -29q-151 0 -240 98.5t-89 266.5q0 172 91 272.5t242 100.5q155 0 246 -100.5t91 -272.5q0 -168 -93 -266.5t-248 -98.5zM1226 48q94 0 131.5 71.5t37.5 216.5q0 149 -39 222.5t-133 73.5t-131.5 -73.5t-37.5 -222.5q0 -145 39 -216.5
t133 -71.5z" />
    <glyph glyph-name="ampersand" unicode="&#x26;" horiz-adv-x="1455" 
d="M537 -29q-141 0 -245.5 52t-162 141t-57.5 201q0 140 81.5 237.5t235.5 155.5q-65 81 -115 171t-50 180q0 89 38 166.5t119 125t209 47.5q159 0 245 -69.5t86 -180.5q0 -92 -26.5 -154.5t-96 -119t-198.5 -131.5l363 -410q16 35 38.5 93t44.5 119.5t36.5 107.5t14.5 57
q0 22 -22 34t-50 17t-48 7q-19 2 -25 11.5t-6 25.5q0 15 8.5 28t25.5 13h393q17 0 25.5 -13t8.5 -28q0 -37 -33 -37q-103 0 -152 -77q-40 -73 -88 -185.5t-110 -240.5l136 -153q30 -30 84 -54.5t101 -29.5q21 -2 28.5 -8t7.5 -29q0 -15 -8.5 -28t-25.5 -13h-294l-130 148
q-70 -81 -163.5 -129t-222.5 -48zM550 850q78 52 122 93t62 96.5t18 152.5q0 34 -17 77.5t-54 76.5t-98 33q-67 0 -119.5 -56t-52.5 -135q0 -106 33 -182t106 -156zM545 67q79 0 157.5 32.5t157.5 119.5l-420 486q-68 -43 -101 -100t-43 -119t-10 -121q0 -74 27 -142.5
t84.5 -112t147.5 -43.5z" />
    <glyph glyph-name="quotesingle" unicode="'" horiz-adv-x="441" 
d="M136 967q2 70 2 158v174.5t1.5 152t5.5 90.5q9 59 43.5 99t89.5 40t76.5 -40t12.5 -99q-4 -25 -23.5 -90.5t-46.5 -152t-54.5 -174.5t-48.5 -158h-58z" />
    <glyph glyph-name="parenleft" unicode="(" horiz-adv-x="768" 
d="M678 -340q-65 0 -143.5 29.5t-156 95.5t-141.5 174.5t-103 266t-39 370.5t39 370.5t103 266t141.5 174.5t156 95.5t143.5 29.5v-83q-31 0 -78.5 -16.5t-99.5 -65t-97.5 -142.5t-74 -247.5t-28.5 -381.5t28.5 -381.5t74 -247.5t97.5 -142.5t99.5 -65t78.5 -16.5v-83z" />
    <glyph glyph-name="parenright" unicode=")" horiz-adv-x="768" 
d="M90 -340v83q31 0 78.5 16.5t99.5 65t97.5 142.5t74 247.5t28.5 381.5t-28.5 381.5t-74 247.5t-97.5 142.5t-99 65t-79 16.5v83q65 0 143.5 -29.5t156 -95.5t141.5 -174.5t103 -266t39 -370.5t-39 -370.5t-103 -266t-141.5 -174.5t-156 -95.5t-143.5 -29.5z" />
    <glyph glyph-name="asterisk" unicode="*" horiz-adv-x="967" 
d="M287 722q-37 0 -66.5 27.5t-29.5 69.5q0 39 26 73q8 10 39.5 39t68.5 61q29 26 60 52.5t47 42.5q-21 3 -60.5 3.5t-83.5 1t-80.5 2t-50.5 6.5q-35 12 -59 37t-24 61q0 49 31.5 74.5t68.5 25.5q24 0 44 -8q18 -7 62.5 -36t93 -60t77.5 -46q-15 97 -42.5 170.5t-27.5 115.5
q0 49 27 82t77 33q48 0 76 -33t28 -82q0 -51 -27 -120t-45 -166q20 11 50 30t69 45q57 35 84 51t41.5 20t32.5 4q37 0 68 -26t31 -77q0 -34 -23.5 -59t-60.5 -36q-22 -6 -77 -7.5t-111.5 -1.5t-83.5 -4q24 -25 64 -56t80.5 -66.5t68 -72.5t27.5 -73q0 -38 -27.5 -67.5
t-68.5 -29.5q-26 0 -51 15t-42 39q-7 10 -20.5 45.5t-29.5 81t-30.5 86t-23.5 60.5q-9 -21 -23.5 -61.5t-30 -85.5t-29 -80t-21.5 -46q-38 -54 -93 -54z" />
    <glyph glyph-name="plus" unicode="+" horiz-adv-x="1317" 
d="M576 75v426h-403v146h403v415h166v-415h402v-146h-402v-426h-166z" />
    <glyph glyph-name="comma" unicode="," horiz-adv-x="552" 
d="M183 -360q-16 0 -30 9.5t-14 25.5q0 18 23 44q41 45 60 108t19 110q0 38 -8 56q-37 8 -74.5 35t-37.5 92q0 67 39.5 102t93.5 35q67 0 112.5 -50t45.5 -155q0 -93 -38 -177.5t-86 -144.5t-78 -82q-11 -8 -27 -8z" />
    <glyph glyph-name="hyphen" unicode="-" horiz-adv-x="766" 
d="M106 496v126h554v-126h-554z" />
    <glyph glyph-name="period" unicode="." horiz-adv-x="552" 
d="M136 122q0 56 40.5 95.5t99.5 39.5t100 -39.5t41 -95.5t-41 -99t-100 -43t-99.5 43t-40.5 99z" />
    <glyph glyph-name="slash" unicode="/" horiz-adv-x="960" 
d="M174 -440l475 2040h137l-477 -2040h-135z" />
    <glyph glyph-name="zero" unicode="0" horiz-adv-x="1257" 
d="M627 -29q-229 0 -356 164.5t-127 446.5q0 192 59 331.5t168.5 215.5t262.5 76q230 0 355 -168t125 -455q0 -282 -128.5 -446.5t-358.5 -164.5zM630 66q157 0 212 127.5t55 388.5q0 266 -57 397t-214 131t-212 -131t-55 -397q0 -261 57 -388.5t214 -127.5z" />
    <glyph glyph-name="one" unicode="1" horiz-adv-x="880" 
d="M196 0q-17 0 -25.5 15t-8.5 26q0 33 33 37q32 3 73 9.5t71.5 19.5t30.5 35l1 876q-43 -24 -87 -41t-88 -17q-27 0 -36.5 27t-9.5 38q0 44 36 47q31 2 81 16t105 39.5t101 61.5h95l-1 -1039q0 -26 29 -40.5t71.5 -21.5t81.5 -10q21 -1 28.5 -7.5t7.5 -29.5q0 -11 -8.5 -26
t-25.5 -15h-555z" />
    <glyph glyph-name="two" unicode="2" horiz-adv-x="1144" 
d="M123 0v34q3 28 20 51q117 79 226.5 171t196.5 191.5t138 201.5t51 201q0 51 -20 111.5t-71.5 104t-146.5 43.5q-74 0 -109.5 -18t-50 -42.5t-28.5 -46.5q-8 -39 -15 -81l-12 -72q-5 -31 -21 -53t-46 -22q-18 0 -47 9.5t-52 35t-23 72.5q0 30 13 69q20 60 79.5 116
t146.5 92.5t190 36.5q200 0 311 -91.5t111 -262.5q0 -95 -54.5 -191t-140.5 -186.5t-184 -169.5t-186 -139h634l-10 -165h-900z" />
    <glyph glyph-name="three" unicode="3" horiz-adv-x="1130" 
d="M534 -394q-66 0 -142.5 18t-145 57t-112 101t-43.5 150q0 68 41.5 113t87.5 45q29 0 61.5 -17.5t32.5 -66.5l-47 -172q20 -45 78.5 -89t173.5 -44q143 0 235.5 88t92.5 257q0 105 -38 172t-96 105t-119.5 53t-107.5 15h-63q-4 0 -6.5 21.5t-2.5 35.5t1.5 35.5t7.5 21.5
h63q38 0 86.5 19t94 58t75.5 98.5t30 140.5q0 38 -8 87t-31 95t-66.5 76t-114.5 30q-77 0 -113.5 -18t-51.5 -42.5t-29 -46.5q-8 -39 -15 -81l-12 -72q-5 -31 -21 -53t-46 -22q-18 0 -48.5 9.5t-54.5 35t-24 73.5q0 66 38.5 123t101.5 99.5t139 66.5t151 24q189 0 301.5 -97
t112.5 -268q0 -77 -32.5 -142.5t-83 -115.5t-107.5 -82.5t-106 -43.5q90 -1 180.5 -38.5t151 -123.5t60.5 -231q0 -137 -66 -240t-181.5 -160t-262.5 -57z" />
    <glyph glyph-name="four" unicode="4" horiz-adv-x="1157" 
d="M717 -328v328h-627q-11 0 -22 22.5t-11 50.5q0 20 5.5 36t12.5 26l534 1035q4 9 19.5 21t41.5 12q47 0 89 -33.5t42 -74.5l-560 -931h476v382l163 10v-392h234l-10 -164h-224v-328h-163z" />
    <glyph glyph-name="five" unicode="5" horiz-adv-x="1082" 
d="M470 -392q-66 0 -137 20t-132 57t-99 88.5t-38 115.5q0 54 23 91.5t54 57t54 19.5q39 0 75 -10.5t43 -46.5l-40 -230q35 -39 93.5 -53.5t128.5 -14.5q81 0 135.5 41t87 109.5t47 151t14.5 166.5q0 177 -74.5 261.5t-182.5 84.5q-78 0 -166 -31.5t-135 -104.5l-68 33
l32 776h767l-10 -169h-609l-44 -477q53 37 129.5 60.5t135.5 23.5q212 0 328.5 -122.5t116.5 -317.5q0 -176 -69.5 -306.5t-189 -201.5t-270.5 -71z" />
    <glyph glyph-name="six" unicode="6" horiz-adv-x="1159" 
d="M583 -29q-115 0 -205 46.5t-153 125t-96 177t-33 202.5q0 118 29 246t91 251.5t160.5 229t237 179t321.5 101.5l1 -92q-151 -36 -257 -103.5t-175 -155.5t-108.5 -186t-59.5 -194q43 48 112.5 91.5t187.5 43.5q152 0 246 -61.5t137.5 -166t43.5 -233.5q0 -138 -56 -252
t-163.5 -181.5t-260.5 -67.5zM579 66q105 0 163 49.5t81 140.5t23 216q0 153 -56.5 248t-179.5 95q-96 0 -172.5 -44.5t-120.5 -100.5q-6 -56 -7.5 -106.5t-1.5 -91.5q0 -187 57 -296.5t214 -109.5z" />
    <glyph glyph-name="seven" unicode="7" horiz-adv-x="1029" 
d="M218 -349l617 1377h-496q-46 0 -79.5 -31.5t-56 -75.5t-34.5 -82.5t-14 -53.5q-2 -19 -16.5 -26t-30.5 -7q-11 0 -26 8.5t-15 25.5l35 404l837 -1l53 -67l-552 -1472z" />
    <glyph glyph-name="eight" unicode="8" horiz-adv-x="1221" 
d="M616 -30q-160 0 -266 55t-158.5 147t-52.5 201q0 97 43 170.5t107 123.5t127 75q-87 66 -147 152.5t-60 207.5q0 82 49 161.5t142 132.5t226 53q145 0 233.5 -49t129.5 -130.5t41 -178.5q0 -78 -35 -142.5t-88.5 -113t-109.5 -79.5q77 -45 142 -100.5t104.5 -128
t39.5 -169.5q0 -106 -50.5 -194t-154 -141t-262.5 -53zM713 803q54 33 92.5 100.5t38.5 198.5q0 66 -21.5 123.5t-70 93t-129.5 35.5q-109 0 -163 -66t-54 -181q0 -57 28 -102.5t95 -92.5t184 -109zM619 65q128 0 197.5 66.5t69.5 182.5q0 87 -44 143t-109 95t-129 73
q-28 14 -55 30.5t-55 32.5q-71 -36 -118.5 -118.5t-47.5 -207.5q0 -42 14 -92.5t46.5 -97.5t89 -77t141.5 -30z" />
    <glyph glyph-name="nine" unicode="9" horiz-adv-x="1159" 
d="M224 -353l-1 92q152 36 257.5 103.5t174.5 155.5t109 186t59 194q-43 -48 -112 -91.5t-188 -43.5q-151 0 -245.5 61.5t-138 166.5t-43.5 233q0 139 56 252.5t163.5 181t260.5 67.5q115 0 205 -46.5t153 -125t96 -177t33 -202.5q0 -118 -29 -246t-91 -251.5t-160.5 -229
t-237 -179t-321.5 -101.5zM549 361q96 0 172.5 45t120.5 100q6 56 7.5 106.5t1.5 91.5q0 188 -56.5 297t-214.5 109q-104 0 -162.5 -49.5t-81.5 -140.5t-23 -216q0 -153 56.5 -248t179.5 -95z" />
    <glyph glyph-name="colon" unicode=":" horiz-adv-x="640" 
d="M207 122q0 56 40.5 95.5t99.5 39.5t100 -39.5t41 -95.5t-41 -99t-100 -43t-99.5 43t-40.5 99zM207 860q0 56 40.5 95.5t99.5 39.5t100 -39.5t41 -95.5t-41 -99t-100 -43t-99.5 43t-40.5 99z" />
    <glyph glyph-name="semicolon" unicode=";" horiz-adv-x="640" 
d="M177 860q0 56 40.5 95.5t99.5 39.5t100 -39.5t41 -95.5t-41 -99t-100 -43t-99.5 43t-40.5 99zM225 -360q-16 0 -30 9.5t-14 25.5q0 18 23 44q41 45 60 108t19 110q0 38 -8 56q-37 8 -74.5 35t-37.5 92q0 67 39.5 102t93.5 35q67 0 112.5 -50t45.5 -155q0 -93 -38 -177.5
t-86 -144.5t-78 -82q-11 -8 -27 -8z" />
    <glyph glyph-name="less" unicode="&#x3c;" horiz-adv-x="1317" 
d="M1088 20l-918 475v119l918 477v-146l-770 -391l770 -390v-144z" />
    <glyph glyph-name="equal" unicode="=" horiz-adv-x="1317" 
d="M193 740v146h931v-146h-931zM193 222v146h931v-146h-931z" />
    <glyph glyph-name="greater" unicode="&#x3e;" horiz-adv-x="1317" 
d="M210 20v144l770 390l-770 391v146l918 -477v-119z" />
    <glyph glyph-name="question" unicode="?" horiz-adv-x="980" 
d="M397 377v112q0 91 32 156t79 118t93.5 106t78.5 117.5t32 154.5q0 63 -18.5 133t-68.5 119.5t-145 49.5q-68 0 -111.5 -24t-64 -48l-20.5 -24l-40 -230q-5 -22 -20.5 -30t-46.5 -8t-68.5 28t-37.5 92q0 39 18 85q22 59 75 115t136.5 92.5t195.5 36.5q153 0 244.5 -58.5
t132 -147.5t40.5 -181q0 -82 -41 -149.5t-101 -128.5t-120 -121.5t-101 -129t-41 -152.5v-83h-112zM459 -20q-59 0 -99.5 43t-40.5 99t40.5 95.5t99.5 39.5t100 -39.5t41 -95.5t-41 -99t-100 -43z" />
    <glyph glyph-name="at" unicode="@" horiz-adv-x="1902" 
d="M936 -338q-125 0 -260.5 36t-254 116t-196 212.5t-87.5 324.5q-1 17 -1.5 33.5t-0.5 32.5q0 238 83 420.5t221.5 307.5t307 189t339.5 64q117 0 233.5 -31.5t214.5 -99.5t160.5 -178t70.5 -267q1 -11 1 -22v-22q0 -168 -59.5 -296t-149.5 -215t-185 -131t-166 -44
q-91 0 -133 54t-47 113q-17 -41 -56.5 -77.5t-85.5 -59t-86 -22.5q-59 0 -116.5 29t-96.5 92.5t-45 167.5q-1 8 -1 17v17q0 102 30.5 204.5t89 187.5t142.5 136.5t190 51.5q58 0 97.5 -27t60.5 -65t21 -73l39 139h192l-214 -608q-4 -12 -10 -35.5t-6 -49.5q0 -25 16.5 -44
t63.5 -19q45 0 111 37.5t130.5 109t108 173.5t43.5 231q-1 9 -1 17.5v17.5q-6 122 -57 212.5t-132 150.5t-180 90t-202 30q-178 0 -327 -68.5t-258.5 -189t-170 -279.5t-60.5 -341q-1 -13 -0.5 -27t1.5 -28q8 -149 61 -253.5t133 -171t170.5 -103.5t176 -51.5t146.5 -14.5
q129 0 226 31.5t161.5 72t96.5 72l32 31.5l64 -62q-45 -53 -121.5 -110t-191.5 -96.5t-276 -39.5zM821 231q40 0 80.5 35t71.5 79t40 71l103 310q0 5 0.5 9.5t0.5 8.5q0 27 -9 57.5t-33.5 51.5t-72.5 21q-56 0 -100.5 -37t-77.5 -95.5t-55 -124t-32 -123t-8 -91.5
q3 -67 19 -119.5t73 -52.5z" />
    <glyph glyph-name="A" unicode="A" horiz-adv-x="1374" 
d="M7 0q-16 0 -25 15.5t-9 35.5q0 23 7.5 29t28.5 8q25 3 54.5 3.5t56 15t42.5 58.5l458 1276h160l445 -1276q16 -44 42 -58.5t55.5 -15t53.5 -3.5q21 -2 28.5 -8t7.5 -29q0 -11 -8.5 -31t-25.5 -20h-501q-17 0 -25.5 20t-8.5 31q0 33 33 37q61 3 99 5t38 25q0 7 -3 14
l-121 362h-480l-122 -362q-2 -5 -2 -12q0 -25 42.5 -26.5t103.5 -5.5q33 -4 33 -37q0 -11 -8.5 -31t-25.5 -20h-423zM659 1187l-219 -607h421z" />
    <glyph glyph-name="B" unicode="B" horiz-adv-x="1339" 
d="M100 0q-17 0 -25.5 20t-8.5 31q0 33 33 37q40 3 80 9.5t67.5 19.5t27.5 35l1 1082q0 43 -30.5 62.5t-72.5 26t-79 8.5q-21 2 -28.5 8.5t-7.5 28.5q0 11 8.5 31t25.5 20h606q121 0 229.5 -28t177 -97t68.5 -194q0 -94 -41 -160.5t-106.5 -107.5t-141.5 -56
q62 -7 127.5 -27.5t121.5 -61t90.5 -107t34.5 -164.5q0 -109 -46 -188t-122 -129.5t-166.5 -74.5t-180.5 -24h-642zM478 814h168q78 0 148.5 25.5t115.5 84.5t45 161q0 137 -84 193t-211 56h-182v-520zM666 102q52 0 115 11t121 43.5t95.5 96t37.5 168.5q0 114 -43.5 175.5
t-110 87t-137.5 30t-125 4.5h-141v-579l6 -9.5t45 -18.5t137 -9z" />
    <glyph glyph-name="C" unicode="C" horiz-adv-x="1315" 
d="M752 -30q-120 0 -241.5 36.5t-222.5 120.5t-162 226t-61 353q0 198 62.5 339.5t162.5 230.5t216.5 131t224.5 42q133 0 221.5 -15.5t145 -36t91.5 -36.5l22 -313q2 -17 -16 -28.5t-30 -11.5q-3 0 -5.5 -0.5t-5.5 -0.5q-31 0 -35 29q-23 84 -70.5 156.5t-125.5 116.5
t-194 44q-64 0 -135 -20.5t-132.5 -84.5t-100.5 -193.5t-39 -348.5q0 -208 43.5 -335t111 -193.5t141 -89.5t133.5 -23q114 0 187.5 43.5t115.5 116t58 158.5q6 33 37 33q12 0 36.5 -8.5t24.5 -25.5l-32 -274q-1 -14 -56 -47.5t-150.5 -62t-219.5 -28.5z" />
    <glyph glyph-name="D" unicode="D" horiz-adv-x="1534" 
d="M140 0q-17 0 -25.5 20t-8.5 31q0 33 33 37q48 4 96.5 17.5t48.5 46.5v1082q0 43 -25.5 62t-60.5 25.5t-66 9.5q-21 2 -28.5 8.5t-7.5 28.5q0 11 8.5 31t25.5 20h596q204 -1 344 -58t225 -154t123 -218.5t38 -250.5q0 -195 -62.5 -335t-164 -229t-220 -131.5t-231.5 -42.5
h-638zM496 168q0 -14 16 -29.5t60.5 -26.5t131.5 -11q91 0 181 19.5t163.5 82t117.5 189.5t44 342q0 186 -47 301.5t-123.5 178t-167.5 85.5t-178 23h-197z" />
    <glyph glyph-name="E" unicode="E" horiz-adv-x="1338" 
d="M105 51q0 33 33 37q48 4 97 17.5t49 46.5v1082q0 43 -25.5 62t-60.5 25.5t-66 9.5q-21 2 -28.5 8.5t-7.5 28.5q0 11 8.5 31t25.5 20l980 1l35 -325q2 -17 -12 -25.5t-25 -8.5q-16 0 -34 5.5t-30 27.5q-40 75 -65.5 125.5t-56 76t-84.5 25.5l-340 -1v-542l234 1
q26 4 48 38t36.5 73.5t16.5 59.5t16 26t30 6q11 0 26 -8.5t15 -25.5v-443q0 -17 -15 -25.5t-26 -8.5q-16 0 -31.5 7t-17.5 26q-1 22 -15.5 64.5t-37.5 78.5t-51 36l-228 -1v-485q0 -55 28 -74t61 -22l285 1q90 0 157 60.5t103 211.5q5 19 28.5 26t39.5 7q19 0 33 -8.5
t16 -25.5l-50 -372l-1060 -1q-17 0 -25.5 20t-8.5 31z" />
    <glyph glyph-name="F" unicode="F" horiz-adv-x="1227" 
d="M139 0q-17 0 -25.5 20t-8.5 31q0 33 33 37q40 3 80 9.5t67.5 19.5t27.5 35l1 1082q0 43 -30.5 62.5t-72.5 26t-79 8.5q-21 2 -28.5 8.5t-7.5 28.5q0 11 8.5 31t25.5 20l1024 -1l37 -348q0 -17 -15 -25.5t-26 -8.5q-16 0 -28.5 7t-14.5 26q-2 15 -19.5 55t-46 85.5t-65 78
t-77.5 32.5h-379v-579h264q26 4 46.5 39t33.5 75.5t15 60.5t19 26.5t33 6.5q11 0 26 -8.5t15 -25.5v-443q0 -17 -15 -25.5t-26 -8.5q-16 0 -33 7t-19 26q-2 22 -15.5 66t-35.5 81t-50 37h-258v-458q0 -43 38 -66.5t90 -33t94 -9.5q17 0 26.5 -7t9.5 -30q0 -11 -8.5 -31
t-25.5 -20h-605z" />
    <glyph glyph-name="G" unicode="G" horiz-adv-x="1485" 
d="M754 -30q-102 0 -218 37.5t-219 123t-168 227t-65 348.5q0 206 66.5 348.5t172 229.5t227.5 126t233 39q194 0 299.5 -32.5t158.5 -55.5l22 -310q2 -17 -11 -28.5t-25 -11.5q-3 0 -5.5 -0.5t-5.5 -0.5q-33 0 -37 29q-23 84 -73 155t-130 114.5t-195 44.5
q-46 0 -104.5 -14.5t-118.5 -53.5t-111 -111.5t-82.5 -187t-31.5 -280.5q0 -183 48 -306.5t122 -197t153.5 -105.5t143.5 -32q156 0 214 43t58 91v257q0 43 -28.5 62.5t-70 26t-80.5 8.5q-21 2 -28.5 8.5t-7.5 28.5q0 11 8.5 31t25.5 20h515q17 0 25.5 -20t8.5 -31
q0 -34 -33 -37q-44 -4 -88 -17.5t-44 -46.5l7 -366q-16 -22 -79 -58.5t-175 -65.5t-274 -29z" />
    <glyph glyph-name="H" unicode="H" horiz-adv-x="1669" 
d="M139 0q-17 0 -25.5 20t-8.5 31q0 34 33 37q48 4 91.5 17.5t43.5 46.5l1 1082q0 43 -23 62t-55.5 25.5t-63.5 9.5q-21 2 -28.5 8.5t-7.5 28.5q0 11 8.5 31t25.5 20h492q17 0 25.5 -20t8.5 -31q0 -34 -33 -37q-48 -4 -96.5 -17.5t-48.5 -46.5v-471h715v438q0 43 -25.5 62
t-60.5 25.5t-66 9.5q-21 2 -28.5 8.5t-7.5 28.5q0 11 8.5 31t25.5 20h502q17 0 25.5 -20t8.5 -31q0 -34 -33 -37q-48 -4 -96.5 -17.5t-48.5 -46.5l-1 -1082q0 -43 25.5 -62t61 -25t65.5 -10q21 -2 28.5 -8t7.5 -29q0 -11 -8.5 -31t-25.5 -20h-502q-17 0 -25.5 20t-8.5 31
q0 34 33 37q48 4 96.5 17.5t48.5 46.5v536h-715v-503q0 -43 25.5 -62t61 -25t65.5 -10q21 -2 28.5 -8t7.5 -29q0 -11 -8.5 -31t-25.5 -20h-492z" />
    <glyph glyph-name="I" unicode="I" horiz-adv-x="798" 
d="M151 0q-17 0 -25.5 20t-8.5 31q0 34 33 37q48 4 96.5 17.5t48.5 46.5l1 1082q0 43 -25.5 62t-60.5 25.5t-66 9.5q-21 2 -28.5 8.5t-7.5 28.5q0 11 8.5 31t25.5 20h505q17 0 25.5 -20t8.5 -31q0 -34 -33 -37q-48 -4 -96.5 -17.5t-48.5 -46.5l-1 -1082q0 -43 25.5 -62
t61 -25t65.5 -10q21 -2 28.5 -8t7.5 -29q0 -11 -8.5 -31t-25.5 -20h-505z" />
    <glyph glyph-name="J" unicode="J" horiz-adv-x="1060" 
d="M404 -30q-67 0 -138.5 25t-137.5 81q-47 46 -65.5 99.5t-18.5 102.5q0 89 43.5 141t113.5 52q31 0 52.5 -10.5t21.5 -21.5l-44 -326q30 -23 71.5 -38.5t92.5 -15.5q105 0 167 81.5t62 265.5l1 828q0 65 -38.5 79t-93.5 18q-21 2 -28.5 8.5t-7.5 28.5q0 11 8.5 31t25.5 20
h465q17 0 25.5 -20t8.5 -31q0 -34 -33 -37q-44 -4 -85 -17.5t-41 -46.5v-828q0 -147 -44.5 -239t-112.5 -142t-140.5 -69t-129.5 -19z" />
    <glyph glyph-name="K" unicode="K" horiz-adv-x="1422" 
d="M139 0q-17 0 -25.5 20t-8.5 31q0 33 33 37q48 4 96.5 17.5t48.5 46.5l1 1082q0 43 -25.5 62t-60.5 25.5t-66 9.5q-21 2 -28.5 8.5t-7.5 28.5q0 11 8.5 31t25.5 20h495q17 0 25.5 -20t8.5 -31q0 -33 -33 -37q-48 -4 -91.5 -17.5t-43.5 -46.5l-1 -1082q0 -43 23 -62t56 -25
t63 -10q21 -2 28.5 -8t7.5 -29q0 -11 -8.5 -31t-25.5 -20h-495zM1113 0q-17 0 -44 16t-63 67q-39 55 -85 131.5t-96.5 159t-101.5 155t-100 120t-92 52.5l464 575q8 9 8 17q0 14 -21 21t-48 10.5t-45 5.5q-19 2 -25 11.5t-6 25.5q0 11 8.5 31.5t25.5 20.5h451
q17 0 25.5 -20.5t8.5 -31.5q0 -37 -33 -37q-51 0 -104 -19t-93 -48l-393 -464q47 -31 105 -101.5t119.5 -158t119.5 -172.5t103 -145q37 -49 93 -89t93 -44q21 -2 28.5 -18t7.5 -39q0 -11 -8.5 -21.5t-25.5 -10.5h-276z" />
    <glyph glyph-name="L" unicode="L" horiz-adv-x="1236" 
d="M139 0q-17 0 -25.5 20t-8.5 31q0 33 33 37q48 4 91.5 17.5t43.5 46.5l1 1082q0 43 -23 62t-55.5 25.5t-63.5 9.5q-21 2 -28.5 8.5t-7.5 28.5q0 11 8.5 31t25.5 20h513q17 0 25.5 -20t8.5 -31q0 -37 -33 -37t-72 -8t-66.5 -28.5t-27.5 -57.5l-1 -1060q0 -49 34 -62.5
t71 -13.5h285q47 0 90.5 54.5t79.5 133.5t60 151q11 33 48 33q44 0 40 -34l-49 -439h-997z" />
    <glyph glyph-name="M" unicode="M" horiz-adv-x="1899" 
d="M124 0q-17 0 -25.5 20t-8.5 31q0 33 33 37q40 3 80 9t67.5 25.5t27.5 61.5v1050q0 43 -30 62.5t-72 26t-79 8.5q-21 2 -28.5 8.5t-7.5 28.5q0 11 8.5 30.5t25.5 20.5h497l357 -1053h12l295 880q20 60 33 99.5t20 73.5h444q17 0 25.5 -20t8.5 -31q0 -33 -33 -37
q-48 -4 -96.5 -17.5t-48.5 -46.5l-1 -1082q0 -43 26 -62t62.5 -25t66.5 -10q21 -2 28.5 -8t7.5 -29q0 -11 -8.5 -31t-25.5 -20h-513q-17 0 -25.5 20t-8.5 31q0 33 33 37q32 3 67.5 9.5t60.5 19.5t25 35l1 1129h-37l-429 -1281h-51l-476 1281h-37v-1096q0 -43 33 -62.5
t78 -25.5t81 -9q21 -2 28.5 -8t7.5 -29q0 -11 -8.5 -31t-25.5 -20h-465z" />
    <glyph glyph-name="N" unicode="N" horiz-adv-x="1571" 
d="M96 0q-17 0 -25.5 20t-8.5 31q0 33 33 37q32 3 68 10t61.5 24.5t25.5 49.5v1062q0 43 -27.5 62t-65 25.5t-68.5 9.5q-21 2 -28.5 8.5t-7.5 28.5q0 11 8.5 31t25.5 20h338l777 -1106h12v921q0 43 -32.5 62t-74.5 25.5t-73 9.5q-21 2 -28.5 8.5t-7.5 28.5q0 11 8.5 31
t25.5 20h455q17 0 25.5 -20t8.5 -31q0 -33 -33 -37q-30 -3 -71.5 -9.5t-72.5 -25.5t-31 -62v-1121q0 -19 2 -31.5t4 -41.5q3 -42 -18 -56t-42 -14q-36 0 -54 22l-839 1162h-17v-969q0 -43 30 -62t70 -25t70 -10q21 -2 28.5 -8t7.5 -29q0 -11 -8.5 -31t-25.5 -20h-425z" />
    <glyph glyph-name="O" unicode="O" horiz-adv-x="1524" 
d="M759 -29q-158 0 -281.5 58t-209 160.5t-130 237.5t-44.5 289q0 205 81 371t232 264t362 98t358.5 -98t225 -264t77.5 -371q0 -154 -45.5 -289t-132 -237.5t-211 -160.5t-282.5 -58zM763 65q166 0 256 78.5t125.5 224t35.5 346.5t-36.5 345t-128.5 220.5t-257 76.5
q-166 0 -256.5 -76.5t-125 -220.5t-34.5 -345t36.5 -346.5t128 -224t256.5 -78.5z" />
    <glyph glyph-name="P" unicode="P" horiz-adv-x="1249" 
d="M139 0q-17 0 -25.5 20t-8.5 31q0 33 33 37q48 4 96.5 17.5t48.5 46.5l1 1082q0 43 -25.5 62t-60.5 25.5t-66 9.5q-21 2 -28.5 8.5t-7.5 28.5q0 11 8.5 31t25.5 20h223q99 0 174 6t178 6q118 0 226.5 -40.5t178.5 -132.5t70 -248q0 -134 -66.5 -236.5t-183 -160.5
t-266.5 -58h-174v-370q0 -43 34.5 -62.5t82 -25.5t85.5 -9q21 -2 28.5 -8t7.5 -29q0 -11 -8.5 -31t-25.5 -20h-555zM490 641h171q28 0 76 17t97.5 56.5t83.5 107t34 167.5q0 138 -48 215t-122 107.5t-154 30.5h-137z" />
    <glyph glyph-name="Q" unicode="Q" horiz-adv-x="1524" 
d="M914 -13q15 -76 59.5 -147.5t135 -117.5t242.5 -46v-69q-20 -9 -67 -21t-115 -12q-72 0 -151 13.5t-152 54.5t-127 121.5t-77 213.5q-181 24 -307.5 128t-193.5 263.5t-67 347.5q0 205 81 371t232 264t362 98t358.5 -98t225 -264t77.5 -371q0 -178 -61 -330.5
t-176 -257.5t-279 -141zM342 714q0 -201 36.5 -346.5t128 -224t256.5 -78.5q166 0 256 78.5t125.5 224t35.5 346.5t-36.5 345t-128.5 220.5t-257 76.5q-166 0 -256.5 -76.5t-125 -220.5t-34.5 -345z" />
    <glyph glyph-name="R" unicode="R" horiz-adv-x="1437" 
d="M130 0q-17 0 -25.5 20t-8.5 31q0 33 33 37q48 4 96.5 17.5t48.5 46.5l1 1082q0 43 -23 62t-55.5 25.5t-63.5 9.5q-21 2 -28.5 8.5t-7.5 28.5q0 11 8.5 31t25.5 20q60 0 103 0.5t83 0.5q84 0 133 2t96 4.5t124 1.5q141 -1 256 -37.5t182.5 -118.5t67.5 -222
q0 -305 -322 -392q99 -10 155 -55.5t89 -112t61 -141t71 -143.5q34 -65 74 -89t77 -28q36 -4 36 -43q0 -11 -8.5 -28.5t-25.5 -17.5h-267q-44 0 -75.5 45t-57.5 116.5t-53.5 151t-63 151t-86.5 116.5t-125 45h-178v-440q0 -43 28 -62.5t68 -25.5t76 -9q21 -2 28.5 -8
t7.5 -29q0 -11 -8.5 -31t-25.5 -20h-521zM478 711h168q83 0 154 26t115 93t44 189t-44 190t-120 95.5t-172 27.5h-144z" />
    <glyph glyph-name="S" unicode="S" horiz-adv-x="1149" 
d="M626 -30q-115 0 -176.5 29t-95.5 46q-28 15 -46 26t-35 11t-31 -17q-18 -22 -37 -31.5t-34 -9.5q-19 0 -30.5 13.5t-10.5 34.5q2 20 2 41v42q0 99 -11 183t-11 131q0 26 15.5 38.5t33.5 12.5q43 0 53 -42q6 -25 20.5 -71.5t54.5 -132.5q36 -76 91.5 -123.5t116.5 -69.5
t114 -22q61 0 118 19t94.5 71t37.5 150q0 74 -45.5 132.5t-118 106.5t-152.5 88q-92 47 -179.5 104.5t-145 138.5t-60.5 200q-3 103 35 175.5t100 117.5t136 66t143 21q119 0 182 -25.5t83 -25.5q24 0 33.5 9t23.5 18q11 7 27 7q20 0 37.5 -11.5t17.5 -26.5q0 -91 13 -172
t13 -138q0 -31 -16 -43.5t-36 -12.5q-15 0 -28.5 7t-15.5 16q-28 161 -117.5 240t-199.5 79q-104 0 -171 -53.5t-67 -187.5q0 -64 46.5 -118.5t119 -102.5t149.5 -93q65 -38 134.5 -80.5t129.5 -95t97.5 -118.5t37.5 -150q0 -130 -59 -219.5t-158.5 -135.5t-221.5 -46z" />
    <glyph glyph-name="T" unicode="T" horiz-adv-x="1267" 
d="M326 0q-17 0 -25.5 20t-8.5 31q0 33 33 37q47 3 94.5 10.5t79 27t31.5 56.5l1 1138h-254q-43 0 -71 -40t-44.5 -96.5t-24 -108.5t-9.5 -76q-4 -33 -37 -33q-11 0 -31.5 8.5t-19.5 25.5q2 49 5.5 119.5t8.5 139t10 114.5t11 46h1118q6 0 11 -46t10 -114.5t8.5 -139
t4.5 -119.5q0 -17 -20 -25.5t-31 -8.5q-33 0 -37 33q-2 24 -9.5 76t-23.5 108.5t-44 96.5t-71 40h-253l-1 -1135q0 -43 33.5 -62.5t81 -25.5t87.5 -9q21 -2 28.5 -8t7.5 -29q0 -11 -8.5 -31t-25.5 -20h-615z" />
    <glyph glyph-name="U" unicode="U" horiz-adv-x="1549" 
d="M1296 1230l-2 -714q-1 -271 -137 -408t-376 -137q-181 0 -298.5 69t-174.5 192t-57 284l1 718q0 43 -23 62.5t-55.5 26t-63.5 8.5q-21 2 -28.5 8.5t-7.5 28.5q0 11 8.5 31t25.5 20h508q17 0 25.5 -20t8.5 -31q0 -34 -33 -37q-52 -4 -102.5 -17.5t-50.5 -46.5l-1 -743
q0 -234 79.5 -346.5t242.5 -112.5q158 0 244 57.5t120 158.5t34 233v730q0 34 -32.5 51.5t-74 25t-69.5 10.5q-21 2 -28.5 8.5t-7.5 28.5q0 11 8.5 31t25.5 20h465q17 0 25.5 -20t8.5 -31q0 -36 -33 -37q-77 -4 -126 -28.5t-49 -72.5z" />
    <glyph glyph-name="V" unicode="V" horiz-adv-x="1365" 
d="M644 -18l-485 1272q-16 44 -45 58.5t-60 15.5t-56 3q-21 2 -28.5 8.5t-7.5 28.5q0 11 9 31t25 20h525q17 0 25.5 -20t8.5 -31q0 -33 -33 -37q-61 -3 -101 -5t-40 -26q0 -5 3 -13l366 -1055l347 1025q2 8 2 11q0 30 -49 44.5t-111 18.5q-33 4 -33 37q0 11 8.5 31t25.5 20
h455q17 0 25.5 -20t8.5 -31q0 -22 -7.5 -28.5t-28.5 -8.5q-24 -2 -55.5 -3t-60 -15.5t-45.5 -58.5l-465 -1272h-123z" />
    <glyph glyph-name="W" unicode="W" horiz-adv-x="1998" 
d="M552 -18l-369 1272q-16 44 -42.5 58.5t-55 15.5t-53.5 3q-21 2 -28.5 8.5t-7.5 28.5q0 11 9 31t25 20h515q17 0 25.5 -20t8.5 -31q0 -33 -33 -37q-62 -4 -111 -5.5t-49 -27.5q0 -3 2 -11l276 -1001l337 1113h108l355 -1117l269 1005q1 3 1 8q0 20 -26.5 26t-66.5 7t-83 3
q-33 4 -33 37q0 11 8.5 31t25.5 20h445q17 0 25.5 -20t8.5 -31q0 -22 -7.5 -28.5t-28.5 -8.5q-24 -2 -54.5 -2.5t-56.5 -15t-40 -59.5l-373 -1272h-123l-354 1064l-326 -1064h-123z" />
    <glyph glyph-name="X" unicode="X" horiz-adv-x="1455" 
d="M47 0q-16 0 -25 20t-9 31q0 23 7.5 29t28.5 8q25 3 61.5 6t74.5 18t65 53l349 521l-359 568q-38 59 -86 66t-85 11q-21 2 -28.5 8.5t-7.5 28.5q0 11 9 31t25 20h525q17 0 25.5 -20t8.5 -31q0 -33 -33 -37q-52 -3 -97.5 -6.5t-45.5 -23.5q0 -6 5 -14l269 -428l254 398
q7 10 7 21q0 22 -34.5 36t-90.5 17q-33 4 -33 37q0 11 8.5 31t25.5 20h455q17 0 25.5 -20t8.5 -31q0 -22 -7.5 -28.5t-28.5 -8.5q-24 -2 -61 -5.5t-74.5 -18.5t-65.5 -53l-343 -488l386 -601q26 -40 58 -54.5t64 -17t56 -5.5q21 -2 28.5 -8t7.5 -29q0 -11 -8.5 -31
t-25.5 -20h-557q-17 0 -25.5 20t-8.5 31q0 33 33 37q60 3 111.5 6.5t51.5 24.5q0 5 -5 13l-285 473l-266 -443q-9 -13 -9 -25q0 -43 107 -49q33 -4 33 -37q0 -11 -8.5 -31t-25.5 -20h-435z" />
    <glyph glyph-name="Y" unicode="Y" horiz-adv-x="1260" 
d="M360 0q-17 0 -25.5 20t-8.5 31q0 32 43 37q34 3 72 4t65.5 13t27.5 47v382l-391 720q-34 62 -74 72.5t-77 14.5q-21 2 -28.5 8.5t-7.5 28.5q0 11 9 26t25 15h522q17 0 25.5 -15t8.5 -26q0 -33 -33 -37q-59 -3 -105.5 -9.5t-46.5 -29.5q0 -7 4 -15l313 -632l323 632
q4 8 4 16q-3 22 -48 28.5t-104 9.5q-33 4 -33 37q0 11 8.5 26t25.5 15h415q17 0 25.5 -15t8.5 -26q0 -22 -7.5 -28.5t-28.5 -8.5q-37 -4 -77 -14.5t-74 -72.5l-375 -687v-402q0 -43 29 -57t69.5 -15t73.5 -5q21 -2 33.5 -8t12.5 -29q0 -11 -8.5 -31t-25.5 -20h-565z" />
    <glyph glyph-name="Z" unicode="Z" horiz-adv-x="1232" 
d="M89 0q-24 0 -24 24v16q0 10 7.5 26t34.5 57l705 1078l92 135h-505q-33 0 -68.5 -41.5t-66 -99t-50.5 -108t-22 -68.5q-4 -33 -37 -33q-11 0 -21.5 8.5t-9.5 25.5l29 358q18 40 47 41h942q24 0 24 -24v-27q0 -11 -10 -28l-714 -1092l-111 -165h504q26 0 59.5 30.5t67.5 77
t63 96.5t47.5 89t20.5 54q4 33 37 33q11 0 27 -8.5t14 -25.5l-50 -388q-18 -40 -47 -41h-985z" />
    <glyph glyph-name="bracketleft" unicode="[" horiz-adv-x="768" 
d="M170 -327v1862l442 1v-97h-253v-1670h253v-97z" />
    <glyph glyph-name="backslash" unicode="\" horiz-adv-x="960" 
d="M661 -540h-135l-477 2040h137z" />
    <glyph glyph-name="bracketright" unicode="]" horiz-adv-x="768" 
d="M156 -328v97h253v1670h-253v97l439 -1v-1862z" />
    <glyph glyph-name="asciicircum" unicode="^" horiz-adv-x="1317" 
d="M123 300l475 1128h119l477 -1128h-146l-391 970l-380 -970h-154z" />
    <glyph glyph-name="underscore" unicode="_" horiz-adv-x="1317" 
d="M-25 -296v106h1367v-106h-1367z" />
    <glyph glyph-name="grave" unicode="`" horiz-adv-x="1024" 
d="M748 1101q-153 137 -255.5 200t-125.5 85q-16 15 -27.5 36t-11.5 45q0 37 29 67q32 33 72 33q25 0 47 -10.5t38 -25.5q23 -22 95 -126t195 -246z" />
    <glyph glyph-name="a" unicode="a" horiz-adv-x="1032" 
d="M97 243q0 99 52.5 163.5t138.5 103t189 59t203 30.5v154q0 37 -18.5 76.5t-63 67t-124.5 27.5q-43 0 -64 -5.5t-34 -11.5l-120 -242q-56 0 -101.5 25.5t-45.5 90.5q0 60 50 113t142 86.5t217 33.5q113 0 182.5 -28t106 -75t49.5 -104.5t13 -117.5v-488q0 -39 11 -73
t27 -34q14 0 24.5 1.5t28.5 6.5q17 5 28.5 -11.5t11.5 -31.5q0 -11 -6 -16q-26 -19 -78 -40.5t-114 -21.5q-52 0 -78 22t-26 96v20q-65 -68 -140.5 -104t-180.5 -36q-60 0 -125 26t-110 84t-45 154zM306 248q0 -63 38.5 -110.5t104.5 -47.5q83 0 141.5 28t88.5 58v352
q-108 -16 -192 -41.5t-132.5 -80t-48.5 -158.5z" />
    <glyph glyph-name="b" unicode="b" horiz-adv-x="1147" 
d="M190 -32q-21 0 -28 11t-7 33v1327q0 62 -28.5 85t-66 28t-64.5 12q-10 5 -17 13t-7 27q0 12 6 28t18 17q100 6 186 7.5t129 1.5q8 0 18 -8t12 -32v-414l-10 -229q51 62 135 100t159 38q154 0 248.5 -74t138 -193t43.5 -254q0 -134 -48.5 -253.5t-148.5 -194t-255 -74.5
q-92 0 -171 22.5t-121 81.5q-25 -40 -61 -73t-60 -33zM566 65q108 0 167.5 57t83 153.5t23.5 216.5t-24.5 216.5t-85 153t-168.5 56.5q-58 0 -123 -33t-98 -77v-638q56 -105 225 -105z" />
    <glyph glyph-name="c" unicode="c" horiz-adv-x="930" 
d="M512 -29q-219 0 -331 143t-112 386q0 162 62.5 277t169.5 176t240 61q86 0 166.5 -25t126.5 -102q23 -38 33 -71t10 -59q0 -45 -22.5 -70t-48.5 -25q-29 0 -48 7.5t-34 40.5l-84 187l-20.5 10.5t-63.5 10.5q-121 0 -196.5 -96t-75.5 -332q0 -156 44.5 -246.5t107 -129.5
t114.5 -39q76 0 139 34.5t95 98.5q3 6 6.5 13.5t12.5 2.5l50 -23q11 -5 11 -13q0 -4 -2 -8t-4 -7q-44 -88 -131 -145t-215 -57z" />
    <glyph glyph-name="d" unicode="d" horiz-adv-x="1176" 
d="M525 -29q-157 0 -252.5 74t-138 193t-42.5 254t48 254t148.5 193.5t258.5 74.5q82 0 154 -17.5t118 -62.5l-10 170v235q0 47 -21.5 70.5t-53 33t-63 13t-51.5 8.5q-10 5 -17 13t-7 27q0 12 6 28t18 17q67 4 135.5 6t125 2.5t84.5 0.5q8 0 18 -8t12 -32v-1343
q0 -64 37.5 -78.5t74.5 -18.5q21 -2 28.5 -8t7.5 -29q0 -11 -8.5 -26t-25.5 -15h-224q-56 0 -66.5 25t-9.5 72q-52 -57 -132.5 -91.5t-151.5 -34.5zM588 66q58 0 123 33t98 77v638q-56 105 -225 105q-111 0 -171.5 -56t-83.5 -152.5t-23 -218.5q0 -119 24 -216t85 -153.5
t173 -56.5z" />
    <glyph glyph-name="e" unicode="e" horiz-adv-x="990" 
d="M532 -29q-229 0 -346 139.5t-117 389.5q0 167 63 281.5t166 173.5t222 59q126 0 205.5 -43.5t123 -121t61.5 -180.5q7 -38 9.5 -80t2.5 -86h-638q1 -158 42 -252t103.5 -135t128.5 -41q76 0 139 34.5t95 98.5l6 12t13 4l50 -23q11 -4 11 -12q0 -4 -2 -8.5t-4 -7.5
q-44 -88 -125 -145t-209 -57zM286 589l414 6q0 174 -52 248.5t-129 74.5q-71 0 -121 -23t-78 -93.5t-34 -212.5z" />
    <glyph glyph-name="f" unicode="f" horiz-adv-x="666" 
d="M97 0q-17 0 -25.5 15t-8.5 26q0 33 33 37q37 5 72 18t35 46v765h-123q-12 1 -18 11.5t-6 22.5q0 33 24 43l122 10l1 148q1 128 48.5 225t128 151.5t178.5 54.5q96 0 144 -39.5t48 -92.5q0 -40 -19.5 -69.5t-45 -46t-43.5 -16.5q-8 0 -11 3l-109 163q-9 0 -30.5 -4
t-45 -29t-40.5 -87.5t-17 -180.5v-180h210q12 -1 18 -11.5t6 -22.5q0 -43 -24 -53h-210v-732q0 -43 29 -62t69.5 -25t72.5 -10q21 -2 28.5 -8t7.5 -29q0 -11 -8.5 -26t-25.5 -15h-465z" />
    <glyph glyph-name="g" unicode="g" horiz-adv-x="1043" 
d="M503 -480q-133 0 -233.5 41.5t-156.5 112.5t-56 158q0 91 53 137t111 63q-105 46 -105 172q0 63 44 123.5t101 76.5q-70 47 -101.5 124t-31.5 152q0 93 43.5 169t125 120.5t194.5 44.5q83 0 148 -25t111 -69q26 45 68.5 73.5t94.5 28.5q66 0 101 -44.5t35 -109.5
q0 -48 -24 -75t-52 -27l-105 165q-22 -5 -37.5 -17.5t-39.5 -41.5q56 -82 56 -192q0 -91 -43.5 -168t-124.5 -123t-194 -46q-52 0 -92.5 4.5t-66.5 17.5q-37 -13 -53 -39t-16 -55q0 -53 39 -82t99 -29h226q106 0 179.5 -23.5t112 -86.5t37.5 -181q0 -85 -50 -165t-149 -132
t-248 -52zM489 439q68 0 105 33t51 88.5t14 121.5q0 101 -36 170t-138 69q-103 0 -137 -69t-34 -170q0 -66 15 -121.5t53 -88.5t107 -33zM523 -383q40 0 90.5 9.5t97.5 34t77.5 67.5t30.5 110q0 81 -61.5 112t-145.5 31h-178q-61 0 -91.5 6t-53.5 13q-17 -21 -33.5 -56.5
t-16.5 -92.5q0 -82 41 -134t106 -76t137 -24z" />
    <glyph glyph-name="h" unicode="h" horiz-adv-x="1192" 
d="M74 0q-17 0 -25.5 15t-8.5 26q0 33 33 37q37 5 76.5 18t39.5 46v1197q0 62 -26 85t-61 28t-62 12q-10 5 -17 13t-7 27q0 12 6 28t18 17q100 6 181 7.5t124 1.5q8 0 18 -8t12 -32v-414l-10 -259q18 18 73 58.5t136 75.5t175 35q65 0 120 -18.5t88 -72t33 -157.5v-591
q0 -48 24 -67t56 -22.5t57 -7.5q17 -2 25 -8.5t8 -28.5q0 -11 -8.5 -26t-25.5 -15h-427q-17 0 -25.5 15t-8.5 26q0 16 6 26t25 11q32 2 69 19t37 45v653q0 17 -7.5 41t-35 42t-86.5 18q-62 0 -120 -20.5t-104 -49.5t-74 -55v-596q0 -64 37.5 -78.5t74.5 -18.5q21 -2 28.5 -8
t7.5 -29q0 -11 -8.5 -26t-25.5 -15h-415z" />
    <glyph glyph-name="i" unicode="i" horiz-adv-x="600" 
d="M104 0q-17 0 -25.5 15t-8.5 26q0 33 33 37q37 5 76 18t39 46l1 636q0 62 -26 85t-61 28t-62 12q-10 5 -17 13t-7 27q0 12 6 27.5t18 16.5q100 6 181 8t124 2q8 0 18 -8t12 -32v-782q0 -43 20.5 -62.5t49 -25.5t52.5 -9q21 -2 28.5 -8t7.5 -29q0 -11 -8.5 -26t-25.5 -15
h-425zM309 1173q-55 0 -88 40.5t-33 98.5q0 59 33 99t88 40t88 -40t33 -99q0 -58 -33 -98.5t-88 -40.5z" />
    <glyph glyph-name="j" unicode="j" horiz-adv-x="598" 
d="M117 -449q-96 0 -132 43.5t-36 95.5q0 56 39.5 83.5t67.5 27.5q30 0 43 -36.5t53 -111.5q50 3 65 85.5t15 245.5l1 794q0 62 -28.5 85t-66 28t-64.5 12q-10 5 -17 13t-7 27q0 12 6 27.5t18 16.5q100 6 186 8t129 2q8 0 18 -8t12 -32l-1 -941q0 -125 -27.5 -231
t-93.5 -170t-180 -64zM302 1173q-55 0 -88 40.5t-33 98.5q0 59 33 99t88 40t88 -40t33 -99q0 -58 -33 -98.5t-88 -40.5z" />
    <glyph glyph-name="k" unicode="k" horiz-adv-x="1097" 
d="M64 0q-17 0 -25.5 15t-8.5 26q0 33 33 37q37 4 76.5 17.5t39.5 46.5v1197q0 62 -26 85t-61 28t-62 12q-10 5 -17 13t-7 27q0 12 6 28t18 17q100 6 181 7t124 2q8 0 18 -8t12 -32v-1049l360 373q15 11 15 21q0 21 -46.5 31t-84.5 12q-19 2 -25 14.5t-6 28.5q0 11 8.5 28
t25.5 17h407q17 0 25.5 -17t8.5 -28q0 -18 -8 -30.5t-25 -12.5q-49 0 -99 -29t-88 -58l-179 -193q20 -35 53.5 -94.5t75.5 -130.5t88 -140t90 -124q22 -27 45 -43t48 -16q33 0 33 -37q0 -11 -8.5 -26t-25.5 -15h-264q-40 69 -91.5 159t-100.5 179t-84 154l-148 -150v-167
q0 -64 37.5 -78.5t74.5 -18.5q21 -2 28.5 -8t7.5 -29q0 -11 -8.5 -26t-25.5 -15h-415z" />
    <glyph glyph-name="l" unicode="l" horiz-adv-x="586" 
d="M73 0q-16 0 -26.5 12.5t-10.5 28.5q0 33 33 37q37 4 77 17.5t40 46.5l1 1197q0 62 -29 85t-67 28t-65 12q-10 5 -17 13t-7 27q0 12 6 28t18 17q100 6 186 7t129 2q8 0 18 -8t12 -32v-1343q0 -43 20.5 -62.5t49 -25.5t52.5 -9q36 -4 36 -34q0 -18 -10.5 -31t-28.5 -13
h-417z" />
    <glyph glyph-name="m" unicode="m" horiz-adv-x="1804" 
d="M105 0q-17 0 -25.5 15t-8.5 26q0 33 33 37q37 5 76.5 18t39.5 46v636q0 62 -27 85t-62 28t-60 12q-10 5 -17 13t-7 27q0 12 6 28t18 17q97 6 175.5 7.5t119.5 1.5q8 0 18 -8t12 -32v-112q18 18 68 58.5t127 75.5t173 35q47 0 95.5 -13t87.5 -48t54 -103q20 22 71 61
t127.5 71t172.5 32q67 0 121.5 -18.5t87.5 -72t33 -157.5v-591q0 -48 24 -67t56 -22.5t57 -7.5q17 -2 25 -8.5t8 -28.5q0 -11 -8.5 -26t-25.5 -15h-427q-17 0 -25.5 15t-8.5 26q0 16 6 26t25 11q32 2 69 19t37 45v653q0 17 -7.5 41t-35 42t-86.5 18q-94 0 -168.5 -43.5
t-118.5 -81.5v-596q0 -48 21.5 -67t51 -22.5t54.5 -7.5q17 -2 25 -8.5t8 -28.5q0 -11 -8.5 -26t-25.5 -15h-417q-17 0 -25.5 15t-8.5 26q0 16 6 26t25 11q32 2 69 19t37 45v653q0 17 -7.5 41t-35 42t-86.5 18q-94 0 -170 -43.5t-117 -81.5v-596q0 -64 37.5 -78.5t74.5 -18.5
q21 -2 28.5 -8t7.5 -29q0 -11 -8.5 -26t-25.5 -15h-415z" />
    <glyph glyph-name="n" unicode="n" horiz-adv-x="1210" 
d="M103 0q-17 0 -25.5 15t-8.5 26q0 33 33 37q37 5 76.5 18t39.5 46v636q0 62 -27 85t-62 28t-60 12q-10 5 -17 13t-7 27q0 12 6 28t18 17q97 6 175.5 7.5t119.5 1.5q8 0 18 -8t12 -32v-112q18 18 73.5 58.5t136.5 75.5t175 35q65 0 119.5 -18.5t87.5 -72t33 -157.5v-591
q0 -48 24 -67t56 -22.5t57 -7.5q17 -2 25 -8.5t8 -28.5q0 -11 -8.5 -26t-25.5 -15h-427q-17 0 -25.5 15t-8.5 26q0 16 6 26t25 11q32 2 69 19t37 45v653q0 17 -7.5 41t-35 42t-86.5 18q-62 0 -120 -20.5t-104 -49.5t-74 -55v-596q0 -64 37.5 -78.5t74.5 -18.5q21 -2 28.5 -8
t7.5 -29q0 -11 -8.5 -26t-25.5 -15h-415z" />
    <glyph glyph-name="o" unicode="o" horiz-adv-x="1104" 
d="M77 492q0 144 57.5 262.5t165 189t257.5 70.5t255 -70.5t160 -189t55 -262.5t-56.5 -262t-163.5 -188.5t-257 -70.5t-255.5 70.5t-161.5 188.5t-56 262zM292 492q0 -201 55 -313.5t206 -112.5t204 112.5t53 313.5t-55 313.5t-206 112.5t-204 -113t-53 -313z" />
    <glyph glyph-name="p" unicode="p" horiz-adv-x="1170" 
d="M60 -426q-16 0 -25 15t-9 26q0 23 7.5 29t28.5 8q25 3 53 9t48.5 25.5t20.5 62.5v1029q0 62 -27 85t-62 28t-60 12q-10 5 -17 13t-7 27q0 12 6 28t18 17q97 6 180.5 7.5t124.5 1.5q8 0 18 -8t12 -32v-63q53 55 130 87.5t147 32.5q158 0 252.5 -74.5t136.5 -193.5t42 -254
q0 -134 -47.5 -253.5t-147.5 -194t-258 -74.5q-79 0 -148.5 16t-116.5 57l10 -72v-255q0 -22 27.5 -35t68 -19.5t80.5 -9.5q33 -4 33 -37q0 -11 -8.5 -26t-25.5 -15h-485zM588 65q112 0 171.5 57t82 153.5t22.5 216.5t-23.5 216.5t-84 153t-172.5 56.5q-55 0 -117 -30
t-97 -71v-659q59 -93 218 -93z" />
    <glyph glyph-name="q" unicode="q" horiz-adv-x="1146" 
d="M652 -444q-17 0 -25.5 15t-8.5 26q0 33 33 37q56 4 106 17.5t50 46.5v273l10 135q-52 -61 -135 -98.5t-157 -37.5q-157 0 -252.5 74t-138 193t-42.5 254t48 254.5t148.5 194t258.5 74.5q89 0 166 -21t120 -75q19 17 38.5 32t43.5 28l22 12t22 6q34 0 34 -33v-1232
q0 -43 19.5 -62.5t48 -25.5t54.5 -9q21 -2 28.5 -8t7.5 -29q0 -11 -8.5 -26t-25.5 -15h-465zM588 65q57 0 121 32t98 75v645q-56 101 -223 101q-111 0 -171.5 -57t-83.5 -153.5t-23 -216.5t24 -216.5t85 -153t173 -56.5z" />
    <glyph glyph-name="r" unicode="r" horiz-adv-x="839" 
d="M119 0q-17 0 -25.5 15t-8.5 26q0 33 33 37q41 4 78.5 17.5t37.5 46.5v636q0 62 -26 85t-61 28t-62 12q-10 5 -17 13t-7 27q0 12 6.5 27t17.5 16q100 6 176 11t119 6q8 0 18 -8t12 -32v-145q47 73 106.5 134.5t149.5 61.5q64 0 96 -21t43 -53t11 -67q0 -38 -23.5 -62.5
t-54 -36.5t-50.5 -12l-95 120q-45 0 -96 -50t-77 -116v-541q0 -43 28.5 -62.5t69 -25.5t74.5 -9q21 -2 28.5 -8t7.5 -29q0 -11 -8.5 -26t-25.5 -15h-475z" />
    <glyph glyph-name="s" unicode="s" horiz-adv-x="885" 
d="M439 -28q-82 0 -126 15t-72 23q-42 13 -60 13q-19 0 -28.5 -6.5t-30.5 -6.5q-40 0 -40 34q0 43 -3.5 95.5t-7 100.5t-3.5 76q0 23 10.5 33t23.5 10q27 0 33 -22t16 -54.5t48 -104.5q39 -71 105 -96t122 -25q87 0 147 37t60 107q0 61 -40.5 98.5t-101.5 66t-123 59.5
q-67 34 -125.5 74.5t-95 100t-36.5 149.5q0 89 52.5 148t129 88t147.5 29q95 0 139.5 -19.5t69.5 -19.5q22 0 25.5 11.5t9.5 21.5q12 21 32 21q13 0 23 -9t10 -26q0 -9 -1.5 -46.5t-1.5 -82.5q0 -47 3 -77.5t3 -44.5q0 -21 -8.5 -29t-19.5 -8q-25 0 -30 16q-17 40 -43.5 88
t-74.5 83t-132 35q-82 0 -125 -36t-43 -97q0 -68 71.5 -114t166.5 -93q78 -37 146.5 -77.5t111 -94.5t42.5 -133q0 -139 -98.5 -225t-276.5 -86z" />
    <glyph glyph-name="t" unicode="t" horiz-adv-x="707" 
d="M424 -30q-135 0 -195 60.5t-60 192.5v684h-115q-12 1 -18 11.5t-6 22.5q0 43 28 43q64 7 105 34.5t69 87.5t51 162q3 15 14 19t29 4q20 0 24.5 -5t4.5 -19v-273h295q12 -1 18 -11.5t6 -22.5q0 -21 -8.5 -37t-19.5 -16h-291v-611q0 -85 17 -129.5t43 -61t51 -16.5
q69 0 109.5 13.5t77.5 38.5q10 7 20.5 -7t16.5 -32t-1 -24q-21 -18 -63 -43.5t-95 -45t-107 -19.5z" />
    <glyph glyph-name="u" unicode="u" horiz-adv-x="1178" 
d="M489 -27q-72 0 -137.5 22.5t-107 86.5t-41.5 188v549q0 43 -19.5 62.5t-46.5 26t-52 8.5q-21 2 -28.5 8.5t-7.5 28.5q0 11 9 26t25 15h271q37 0 37 -36v-697q0 -24 7.5 -59t35 -62t86.5 -27q101 0 163.5 27.5t111.5 79.5v599q0 43 -24 62t-59 25.5t-69 9.5
q-21 2 -28.5 8.5t-7.5 28.5q0 11 9 26t25 15h303q37 0 37 -36v-748q0 -73 12.5 -97.5t28.5 -24.5q14 0 24.5 2t22.5 6q17 5 28.5 -11.5t11.5 -31.5q0 -11 -6 -16q-10 -11 -60.5 -36.5t-131.5 -25.5q-49 0 -78.5 36.5t-37.5 119.5q-17 -32 -64.5 -69t-111 -63t-130.5 -26z
" />
    <glyph glyph-name="v" unicode="v" horiz-adv-x="1017" 
d="M473 -9l-349 838q-30 50 -57.5 66.5t-64.5 20.5q-21 2 -28.5 8.5t-7.5 28.5q0 11 9 26t25 15h405q17 0 25.5 -15t8.5 -26q0 -33 -33 -37q-37 -4 -71.5 -12.5t-34.5 -41.5l265 -612l243 612q0 22 -21.5 32.5t-50.5 14.5t-54 7q-33 4 -33 37q0 11 8.5 26t25.5 15h335
q17 0 25.5 -15t8.5 -26q0 -22 -7.5 -28.5t-28.5 -8.5q-37 -4 -64.5 -20.5t-57.5 -66.5l-347 -838h-74z" />
    <glyph glyph-name="w" unicode="w" horiz-adv-x="1510" 
d="M414 -9l-306 838q-30 50 -57.5 66.5t-64.5 20.5q-21 2 -28.5 8.5t-7.5 28.5q0 11 9 26t25 15h405q17 0 25.5 -15t8.5 -26q0 -33 -33 -37q-37 -4 -71.5 -12.5t-34.5 -41.5l215 -587l230 701h96l255 -698l201 584q0 22 -21.5 32.5t-50.5 14.5t-54 7q-33 4 -33 37
q0 11 8.5 26t25.5 15h325q17 0 25.5 -15t8.5 -26q0 -22 -7.5 -28.5t-28.5 -8.5q-37 -4 -59.5 -20.5t-52.5 -66.5l-297 -838h-74l-265 720l-243 -720h-74z" />
    <glyph glyph-name="x" unicode="x" horiz-adv-x="1034" 
d="M49 0q-17 0 -25.5 15t-8.5 26q0 37 33 37q51 0 83.5 29.5t58.5 57.5l238 314l-233 350q-37 45 -68 63.5t-69 23.5q-16 2 -24.5 8.5t-8.5 28.5q0 11 8.5 26t25.5 15h387q17 0 25.5 -15t8.5 -26q0 -16 -5.5 -25.5t-25.5 -11.5q-24 -3 -46.5 -5t-22.5 -19q0 -7 13 -30
l151 -270l163 256q10 15 10 25q0 22 -30 31t-56 12q-19 2 -25 11.5t-6 25.5q0 11 8.5 26t25.5 15h323q17 0 25.5 -15t8.5 -26q0 -37 -33 -37q-51 0 -84.5 -27.5t-62.5 -59.5l-206 -295l251 -369q38 -45 61 -63.5t60 -23.5q17 -2 25 -8.5t8 -28.5q0 -11 -8.5 -26t-25.5 -15
h-371q-17 0 -25.5 15t-8.5 26q0 16 5.5 25.5t25.5 11.5q23 2 46 7.5t23 21.5q0 11 -13 25l-174 276l-190 -262q-8 -14 -8 -24q0 -24 29.5 -32.5t54.5 -11.5q20 -2 25.5 -11.5t5.5 -25.5q0 -11 -8.5 -26t-25.5 -15h-318z" />
    <glyph glyph-name="y" unicode="y" horiz-adv-x="1008" 
d="M246 -449q-71 0 -123.5 35.5t-52.5 87.5q0 68 32 95t54 27l124 -122q26 5 55.5 30.5t64.5 88.5t77 179l-338 857q-30 50 -57.5 66.5t-64.5 20.5q-21 2 -28.5 8.5t-7.5 28.5q0 11 8.5 26t24.5 15h413q17 0 25.5 -15t8.5 -26q0 -33 -33 -37q-37 -4 -71.5 -12.5t-34.5 -41.5
l244 -663l220 663q0 33 -39.5 41.5t-76.5 12.5q-33 4 -33 37q0 11 8.5 26t25.5 15h335q17 0 25.5 -15t8.5 -26q0 -22 -7.5 -28.5t-28.5 -8.5q-37 -4 -59.5 -20.5t-52.5 -66.5l-303 -838q-21 -58 -51 -133t-71 -145.5t-95.5 -116t-125.5 -45.5z" />
    <glyph glyph-name="z" unicode="z" horiz-adv-x="909" 
d="M71 0q-12 0 -24.5 9.5t-12.5 30.5q0 17 11.5 36t30.5 47l476 698l70 90h-333q-33 0 -60 -31t-47 -74.5t-32 -83.5t-14 -58q-4 -33 -37 -33q-11 0 -21.5 8.5t-9.5 25.5l20 288q0 18 16 29t31 12h678q12 0 23 -11.5t11 -25.5q0 -21 -9 -38t-17 -28l-477 -698l-88 -110h357
q33 0 62.5 32.5t52.5 78t37 87t16 59.5q4 33 37 33q11 0 22 -8.5t9 -25.5l-20 -298q0 -19 -16 -29.5t-31 -11.5h-711z" />
    <glyph glyph-name="braceleft" unicode="{" horiz-adv-x="881" 
d="M688 -328q-70 0 -146 28.5t-128.5 94t-52.5 176.5v387q0 55 -33 98t-83 68t-103 25h-70v110h70q53 0 103 25t83 68.5t33 97.5v387q0 111 52.5 176.5t128.5 94t146 28.5h133v-87h-113q-54 0 -86 -26.5t-46 -65.5t-14 -77v-397q0 -81 -47 -141.5t-123 -94.5t-162 -38v-5
q81 -8 157.5 -45t125.5 -96.5t49 -137.5v-397q0 -38 14 -77t46 -65.5t86 -26.5h113v-87h-133z" />
    <glyph glyph-name="bar" unicode="|" horiz-adv-x="768" 
d="M312 -367v1902h145v-1902h-145z" />
    <glyph glyph-name="braceright" unicode="}" horiz-adv-x="881" 
d="M193 -328h-133v87h113q54 0 86 26.5t46 65.5t14 77v397q0 78 49.5 137.5t125.5 96.5t157 45v5q-86 4 -162 38t-123 94.5t-47 141.5v397q0 38 -14 77t-46 65.5t-86 26.5h-113v87h133q70 0 146 -28.5t128.5 -94t52.5 -176.5v-387q0 -54 33 -97.5t83.5 -68.5t102.5 -25h70
v-110h-70q-52 0 -102.5 -25t-83.5 -68t-33 -98v-387q0 -111 -52.5 -176.5t-128.5 -94t-146 -28.5z" />
    <glyph glyph-name="asciitilde" unicode="~" horiz-adv-x="1317" 
d="M856 425q-85 0 -146 33.5t-132 62.5q-38 19 -70.5 27t-59.5 8q-60 0 -97 -28.5t-61 -60t-44 -39.5q-4 -1 -11 -1q-16 0 -27.5 12.5t-11.5 28.5q0 11 6 20q22 37 45.5 74.5t53.5 67.5q73 75 171 75q82 0 141 -33.5t127 -62.5q38 -19 70.5 -27t59.5 -8q60 0 97 28.5t61 60
t44 39.5q4 1 11 1q16 0 27.5 -12.5t11.5 -28.5q0 -8 -6 -20q-17 -34 -38 -65.5t-51 -66.5q-31 -35 -77.5 -60t-93.5 -25z" />
    <glyph glyph-name="DEL" 
 />
    <glyph glyph-name="uni00A0" unicode="&#xa0;" horiz-adv-x="494" 
 />
    <glyph glyph-name="exclamdown" unicode="&#xa1;" horiz-adv-x="678" 
d="M330 1449q59 0 100 -43t41 -99t-41 -95.5t-100 -39.5t-99.5 39.5t-40.5 95.5t40.5 99t99.5 43zM290 997h80q21 -436 56 -671.5t35 -285.5q0 -58 -38 -98.5t-93 -40.5t-93 40.5t-38 98.5q0 50 29 285.5t62 671.5z" />
    <glyph glyph-name="cent" unicode="&#xa2;" horiz-adv-x="1137" 
d="M518 -228v203q-187 22 -282 161.5t-95 363.5q0 220 107 348.5t270 157.5v219h106v-211q83 -1 160 -27t122 -100q23 -38 33 -71t10 -59q0 -45 -22.5 -70t-48.5 -25q-29 0 -48 7.5t-34 40.5l-84 187l-20.5 10.5t-63.5 10.5q-81 0 -142 -39.5t-95.5 -132.5t-34.5 -256
q0 -156 41.5 -246.5t101 -129.5t111.5 -39q76 0 138 34.5t96 98.5l6 12t13 4l50 -23q11 -4 11 -12q0 -4 -2 -8.5t-4 -7.5q-39 -82 -111.5 -136.5t-182.5 -63.5v-201h-106z" />
    <glyph glyph-name="sterling" unicode="&#xa3;" horiz-adv-x="1274" 
d="M821 -16q-112 0 -193 20t-138.5 47t-98.5 47t-73 20h-13q-7 -16 -27 -44t-52 -51t-76 -23q-28 0 -63 16t-35 76q0 41 31 66t73.5 40t79.5 23.5t48 14.5q20 44 27 111.5t7 125.5v206h-199q-12 1 -18 11.5t-6 22.5q0 43 24 53h199v105q0 169 46.5 299t153.5 204t290 74
q115 0 188 -43t107.5 -97.5t34.5 -89.5q0 -26 -23.5 -56.5t-56 -51.5t-59.5 -21q-23 0 -33 17l-153 250h-39q-81 0 -136.5 -45.5t-84.5 -151.5t-29 -286v-107h284q12 -1 18 -11.5t6 -22.5q0 -43 -24 -53h-283v-76q0 -148 -38 -256.5t-84 -153.5q66 -19 109.5 -42.5t92 -41
t127.5 -21.5q132 -6 199 50t77 130l-58 150q1 14 31.5 37.5t73.5 23.5q71 0 111 -62t40 -142q0 -93 -55 -158t-143 -99t-187 -34z" />
    <glyph glyph-name="currency" unicode="&#xa4;" horiz-adv-x="1170" 
d="M225 97l-125 116l161 164q-61 89 -61 198q0 108 61 197l-161 164l125 117l163 -166q91 52 200 52q54 0 103.5 -13.5t91.5 -36.5l162 164l125 -117l-160 -163q60 -90 60 -198q0 -55 -16 -105t-45 -93l161 -164l-125 -116l-162 165q-43 -24 -93.5 -37.5t-105.5 -13.5
q-108 0 -197 50zM586 364q77 0 134 52.5t57 158.5q0 107 -58.5 159t-135.5 52t-134 -52t-57 -159q0 -106 58.5 -158.5t135.5 -52.5z" />
    <glyph glyph-name="yen" unicode="&#xa5;" horiz-adv-x="1259" 
d="M386 0q-17 0 -25.5 10t-8.5 21q0 33 33 37q34 3 72.5 9t66 23t27.5 52v148h-388q-12 1 -18 21.5t-6 32.5q0 43 24 53h388v227h-387q-12 1 -18 21.5t-6 32.5q0 43 24 53h370l-376 513q-34 62 -81.5 77.5t-84.5 19.5q-21 2 -28.5 8.5t-7.5 28.5q0 11 9 21t25 10h495
q17 0 25.5 -10t8.5 -21q0 -33 -33 -37q-62 -3 -100 -13t-38 -34q0 -7 5 -17l322 -489l326 489q5 10 5 17q0 23 -37 33.5t-96 13.5q-33 4 -33 37q0 11 8.5 21t25.5 10h395q17 0 25.5 -10t8.5 -21q0 -22 -7.5 -28.5t-28.5 -8.5q-37 -4 -77 -19.5t-74 -77.5l-362 -513h339
q12 -1 18 -11.5t6 -22.5q0 -19 -6.5 -43.5t-17.5 -29.5h-362v-227h361q12 -1 18 -11.5t6 -22.5q0 -19 -6.5 -43.5t-17.5 -29.5h-361v-135q0 -43 25.5 -62.5t62.5 -25.5t70 -9q21 -2 28.5 -8t7.5 -29q0 -11 -8.5 -21t-25.5 -10h-505z" />
    <glyph glyph-name="brokenbar" unicode="&#xa6;" horiz-adv-x="768" 
d="M312 765v770h145v-770h-145zM312 -369v770h145v-770h-145z" />
    <glyph glyph-name="section" unicode="&#xa7;" horiz-adv-x="1024" 
d="M457 -452q-79 0 -130 32.5t-75 77.5t-24 80q0 54 40.5 87.5t73.5 33.5l132 -235q80 5 130 71.5t50 150.5q0 63 -32.5 107t-91.5 87.5t-138.5 104t-173.5 155.5q-50 51 -80 113.5t-30 136.5q0 89 42.5 184t130.5 178q-32 48 -50 97t-18 102q0 101 49 176t133.5 117
t188.5 42q80 0 134.5 -32.5t82.5 -77t28 -80.5q0 -35 -22 -57.5t-51.5 -32.5t-52.5 -10l-121 215q-56 -3 -104.5 -35.5t-78 -82.5t-29.5 -107q0 -62 32 -105t90 -86.5t138 -104t176 -156.5q50 -50 80 -113t30 -137q0 -89 -42.5 -184t-130.5 -178q32 -48 50 -97.5t18 -104.5
q0 -99 -46.5 -173.5t-126.5 -116.5t-181 -42zM693 145q16 37 32 83t16 76q0 53 -22.5 102.5t-53.5 91.5t-56 70q-37 40 -86.5 90t-99 100.5t-87.5 90.5q-16 -37 -32 -83t-16 -76q0 -53 21.5 -102.5t51 -91t54.5 -70.5q37 -39 88 -89.5l102 -101t88 -90.5z" />
    <glyph glyph-name="dieresis" unicode="&#xa8;" horiz-adv-x="1024" 
d="M179 1384q0 59 28 96.5t83 37.5t83 -37.5t28 -96.5q0 -58 -28 -96t-83 -38t-83 38t-28 96zM604 1384q0 59 28 96.5t83 37.5t83 -37.5t28 -96.5q0 -58 -28 -96t-83 -38t-83 38t-28 96z" />
    <glyph glyph-name="copyright" unicode="&#xa9;" horiz-adv-x="1929" 
d="M964 -281q-185 0 -347 69.5t-285 192.5t-192.5 285t-69.5 347t69.5 347.5t192.5 285.5t285 192.5t347 69.5t347.5 -69.5t285.5 -192.5t192.5 -285.5t69.5 -347.5t-69.5 -347t-192.5 -285t-285.5 -192.5t-347.5 -69.5zM964 -201q167 0 312.5 64t256.5 176.5t173.5 260
t62.5 313.5q0 167 -62.5 314t-173.5 260t-256.5 177t-312.5 64q-166 0 -312 -64t-256.5 -177t-173 -260t-62.5 -314q0 -166 62.5 -313.5t173 -260t256.5 -176.5t312 -64zM1003 122q-463 0 -463 500q0 167 62.5 274t169.5 158t240 51q38 0 91 -9.5t105.5 -36.5t86.5 -80
q27 -41 38 -75t11 -60q0 -39 -19 -60t-44 -21q-52 0 -74 29.5t-37 62.5q-16 33 -23 66t-26 55l-25.5 18.5t-68.5 18.5q-81 0 -150 -32.5t-111.5 -119t-42.5 -249.5q0 -121 26.5 -198.5t69 -121.5t90.5 -61.5t90 -17.5q55 0 109.5 15.5t97 58.5t59.5 127q1 6 3 13.5t11 7.5
l72 1q13 0 14.5 -8.5t1.5 -15.5q-4 -104 -57 -168t-135 -93t-172 -29z" />
    <glyph glyph-name="ordfeminine" unicode="&#xaa;" horiz-adv-x="1024" 
d="M389 614q-43 0 -95 25t-90 76t-38 127t47.5 129.5t121 87t153.5 49.5t146 16v115q0 138 -157 138q-41 0 -68 -12.5t-37 -23.5l-85 -161q-50 0 -80.5 21t-30.5 55q0 48 32 84t82.5 60t107 36t104.5 12q146 0 219.5 -59.5t73.5 -149.5v-448q0 -40 10.5 -66t34.5 -26
q22 0 44 6q14 4 22 -5t8 -21q0 -4 -1 -10.5t-3 -8.5q-9 -9 -61.5 -27.5t-124.5 -18.5q-42 0 -58 22t-17.5 46.5t-1.5 33.5q-50 -51 -121 -76.5t-137 -25.5zM459 710q72 0 110.5 24.5t63.5 43.5l1 278q-73 0 -140.5 -19.5t-110 -64t-42.5 -119.5q0 -29 9.5 -62.5t35 -57
t73.5 -23.5z" />
    <glyph glyph-name="guillemotleft" unicode="&#xab;" horiz-adv-x="1190" 
d="M570 1041v-146l-245 -341l245 -340v-144l-453 425v119zM1076 1041v-146l-265 -341l265 -340v-144l-473 425v119z" />
    <glyph glyph-name="logicalnot" unicode="&#xac;" horiz-adv-x="1317" 
d="M982 125v371h-792v126h938v-497h-146z" />
    <glyph glyph-name="uni00AD" unicode="&#xad;" 
 />
    <glyph glyph-name="registered" unicode="&#xae;" horiz-adv-x="1929" 
d="M964 -281q-185 0 -347 69.5t-285 192.5t-192.5 285t-69.5 347t69.5 347.5t192.5 285.5t285 192.5t347 69.5t347.5 -69.5t285.5 -192.5t192.5 -285.5t69.5 -347.5t-69.5 -347t-192.5 -285t-285.5 -192.5t-347.5 -69.5zM964 -201q167 0 312.5 64t256.5 176.5t173.5 260
t62.5 313.5q0 167 -62.5 314t-173.5 260t-256.5 177t-312.5 64q-166 0 -312 -64t-256.5 -177t-173 -260t-62.5 -314q0 -166 62.5 -313.5t173 -260t256.5 -176.5t312 -64zM585 136q-11 0 -16.5 12t-5.5 19q0 10 4 21.5t17 12.5q32 2 60.5 11t28.5 31v738q0 42 -31.5 51.5
t-61.5 11.5q-13 2 -18 6t-5 19q0 20 22 20h407q93 0 168 -22.5t119.5 -75t44.5 -144.5q0 -103 -71 -156.5t-176 -82.5q68 -6 106.5 -40.5t62 -85t42.5 -105t48 -99.5q22 -43 46.5 -58.5t49.5 -18.5q33 -4 33 -34q0 -7 -5.5 -19t-16.5 -12h-143q-54 0 -87 31t-52.5 80.5
t-34.5 104.5t-33 104.5t-46.5 80.5t-77.5 31h-134v-304q0 -42 38.5 -51.5t73.5 -11.5q24 -3 24 -34q0 -7 -5.5 -19t-16.5 -12h-358zM829 645h102q54 0 107 12t88 51t35 119t-30 119.5t-81 52.5t-114 13h-107v-367z" />
    <glyph glyph-name="macron" unicode="&#xaf;" horiz-adv-x="1317" 
d="M-5 1242v141h587v-141h-587z" />
    <glyph glyph-name="degree" unicode="&#xb0;" horiz-adv-x="859" 
d="M90 1113q0 151 96 244t247 93q152 0 244.5 -93t92.5 -244t-94.5 -245t-246.5 -94q-151 0 -245 94t-94 245zM232 1113q0 -115 55 -172t144 -57t143 57t54 172t-55.5 171t-144.5 56t-142.5 -56t-53.5 -171z" />
    <glyph glyph-name="plusminus" unicode="&#xb1;" horiz-adv-x="1317" 
d="M215 0v126h372v370h-392v126h392v410h146v-410h389v-126h-389v-370h369v-126h-887z" />
    <glyph glyph-name="uni00B2" unicode="&#xb2;" horiz-adv-x="1024" 
d="M149 757v22q2 23 16 37q128 82 239.5 188.5t180.5 225.5t69 236q0 51 -13 98.5t-48.5 78.5t-102.5 31q-77 0 -108 -27.5t-37 -46.5l-35 -115q-7 -22 -19.5 -39.5t-41.5 -17.5q-31 0 -68 19.5t-37 68.5q0 28 14 60q26 62 121 112.5t223 50.5q171 0 263.5 -70t92.5 -203
q0 -101 -64 -207.5t-168 -200t-225 -158.5h471l-7 -143h-716z" />
    <glyph glyph-name="uni00B3" unicode="&#xb3;" horiz-adv-x="1024" 
d="M467 732q-74 0 -149 25t-125 75t-50 124q0 56 35 89t68 33t57.5 -18t19.5 -42q-4 -21 -15.5 -61.5t-22.5 -75.5q6 -10 24 -30t54.5 -36.5t95.5 -16.5q102 0 161 55.5t59 164.5q0 94 -41 136t-98 53t-106 11h-54q-10 0 -10 38q0 40 10 40h49q42 0 89.5 21.5t81.5 64.5
t34 106q0 34 -12 77.5t-45.5 75.5t-100.5 32q-61 0 -85.5 -20.5t-42.5 -54.5q-8 -28 -13.5 -56.5t-12.5 -51.5q-16 -55 -61 -55q-28 0 -61.5 21.5t-33.5 68.5q0 7 2 21q8 55 55 98.5t118.5 69t154.5 25.5q151 0 243.5 -61.5t92.5 -177.5q0 -70 -39.5 -119.5t-97.5 -79
t-116 -40.5q77 0 146.5 -21.5t113.5 -71t44 -135.5q0 -136 -113 -218.5t-303 -82.5z" />
    <glyph glyph-name="acute" unicode="&#xb4;" horiz-adv-x="1024" 
d="M342 1094l-56 58q123 142 195 246t95 126q16 15 38 25.5t47 10.5q18 0 37 -7.5t35 -25.5q28 -31 28 -66q0 -24 -11 -45t-27 -37q-23 -23 -125.5 -85.5t-255.5 -199.5z" />
    <glyph glyph-name="uni00B5" unicode="&#xb5;" horiz-adv-x="1186" 
d="M952 986v-778q0 -62 26 -85t61 -28t62 -12q11 -4 17.5 -12.5t6.5 -27.5q0 -12 -6 -22.5t-18 -11.5q-100 -6 -181 -7.5t-124 -1.5q-8 0 -18 7.5t-12 31.5v92q-14 -32 -52 -69t-88.5 -63t-103.5 -26q-62 0 -96.5 16.5t-58.5 47.5t-54 74q17 -150 29 -266t12 -152
q0 -58 -28 -98.5t-83 -40.5t-83 40.5t-28 98.5q0 34 8.5 136t17 242t8.5 287v628h188v-685q0 -18 6 -49.5t25.5 -63t59.5 -53.5t108 -22q75 0 125 47.5t88 99.5v726h186z" />
    <glyph glyph-name="paragraph" unicode="&#xb6;" horiz-adv-x="1024" 
d="M208 -287q-17 0 -25.5 20t-8.5 31q0 23 7.5 29.5t28.5 7.5q32 3 67.5 9t60 25.5t24.5 62.5v678q-148 41 -235 152.5t-87 271.5q0 156 63.5 248.5t165 133t213.5 39.5l463 -2q17 0 25.5 -20t8.5 -31q0 -22 -7.5 -28.5t-28.5 -8.5q-46 -3 -84 -17.5t-38 -79.5v-1369
q0 -33 49 -46.5t97 -17.5q33 -4 33 -37q0 -11 -8.5 -31t-25.5 -20h-282v1589h-180v-1589h-296z" />
    <glyph glyph-name="periodcentered" unicode="&#xb7;" horiz-adv-x="572" 
d="M146 727q0 56 40.5 95.5t99.5 39.5t100 -39.5t41 -95.5t-41 -99t-100 -43t-99.5 43t-40.5 99z" />
    <glyph glyph-name="cedilla" unicode="&#xb8;" horiz-adv-x="478" 
d="M203 -488q-64 0 -111 15.5t-74 33.5q-12 8 -5 22q8 16 17 33t15 28q6 13 22 7q17 -6 46.5 -15.5t75.5 -9.5q50 0 83.5 25t33.5 68q0 37 -38 67.5t-118 31.5l33 200h117l-36 -139q100 -10 154.5 -58t54.5 -113q0 -71 -65 -133.5t-205 -62.5z" />
    <glyph glyph-name="uni00B9" unicode="&#xb9;" horiz-adv-x="1024" 
d="M209 757q-13 0 -19 9.5t-6 16.5q0 17 5.5 30t20.5 14q20 2 56.5 5t74 8t63.5 12.5t26 18.5l9 718q-55 -42 -120.5 -75.5t-128.5 -33.5q-15 0 -32.5 30.5t-16.5 54.5q1 16 8 29t27 14q29 2 90.5 12t128.5 34.5t111 70.5h125l-9 -833q0 -21 27 -33.5t66 -19t75.5 -9
t54.5 -3.5q27 -1 27 -25q0 -45 -28 -45h-635z" />
    <glyph glyph-name="ordmasculine" unicode="&#xba;" horiz-adv-x="1024" 
d="M511 612q-123 0 -210 56.5t-133 152t-46 210.5q0 116 47 211t135.5 151.5t211.5 56.5t209.5 -56.5t131.5 -151.5t45 -211q0 -115 -46.5 -210.5t-134 -152t-210.5 -56.5zM512 698q112 0 159 87.5t47 245.5t-49 245t-159 87q-112 0 -159 -87t-47 -245t48.5 -245.5
t159.5 -87.5z" />
    <glyph glyph-name="guillemotright" unicode="&#xbb;" horiz-adv-x="1190" 
d="M134 1041l473 -427v-119l-473 -425v144l265 340l-265 341v146zM640 70v146l245 341l-245 340v144l453 -425v-119z" />
    <glyph glyph-name="onequarter" unicode="&#xbc;" horiz-adv-x="2150" 
d="M155 504q-13 0 -19 9.5t-6 16.5q0 17 5.5 30t20.5 14q20 2 56.5 5t74 8t63.5 12.5t26 18.5l9 718q-55 -42 -120.5 -75.5t-128.5 -33.5q-15 0 -32.5 30.5t-16.5 54.5q1 16 8 29t27 14q29 2 90.5 12t128.5 34.5t111 70.5h125l-9 -833q0 -21 27 -33.5t66 -19t75.5 -9
t54.5 -3.5q27 -1 27 -25q0 -45 -28 -45h-635zM668 0l669 1419h137l-671 -1419h-135zM1677 0v210h-500q-7 0 -14 14t-7 31q0 24 11 43l324 655q8 12 30 20.5t41 8.5q36 0 70.5 -19t57 -44.5t22.5 -45.5l-406 -564h371v259l185 15v-274h204l-9 -99h-195v-210h-185z" />
    <glyph glyph-name="onehalf" unicode="&#xbd;" horiz-adv-x="2150" 
d="M155 504q-13 0 -19 9.5t-6 16.5q0 17 5.5 30t20.5 14q20 2 56.5 5t74 8t63.5 12.5t26 18.5l9 718q-55 -42 -120.5 -75.5t-128.5 -33.5q-15 0 -32.5 30.5t-16.5 54.5q1 16 8 29t27 14q29 2 90.5 12t128.5 34.5t111 70.5h125l-9 -833q0 -21 27 -33.5t66 -19t75.5 -9
t54.5 -3.5q27 -1 27 -25q0 -45 -28 -45h-635zM668 0l669 1419h137l-671 -1419h-135zM1255 0v22q2 23 16 37q128 82 239.5 188.5t180.5 225.5t69 236q0 51 -13 98.5t-48.5 78.5t-102.5 31q-77 0 -108 -27.5t-37 -46.5l-35 -115q-7 -22 -19.5 -39.5t-41.5 -17.5
q-31 0 -68 19.5t-37 68.5q0 28 14 60q26 62 121 112.5t223 50.5q171 0 263.5 -70t92.5 -203q0 -101 -64 -207.5t-168 -200t-225 -158.5h471l-7 -143h-716z" />
    <glyph glyph-name="threequarters" unicode="&#xbe;" horiz-adv-x="2150" 
d="M504 479q-74 0 -149 25t-125 75t-50 124q0 56 35 89t68 33t57.5 -18t19.5 -42q-4 -21 -15.5 -61.5t-22.5 -75.5q6 -10 24 -30t54.5 -36.5t95.5 -16.5q102 0 161 55.5t59 164.5q0 94 -41 136t-98 53t-106 11h-54q-10 0 -10 38q0 40 10 40h49q42 0 89.5 21.5t81.5 64.5
t34 106q0 34 -12 77.5t-45.5 75.5t-100.5 32q-61 0 -85.5 -20.5t-42.5 -54.5q-8 -28 -13.5 -56.5t-12.5 -51.5q-16 -55 -61 -55q-28 0 -61.5 21.5t-33.5 68.5q0 7 2 21q8 55 55 98.5t118.5 69t154.5 25.5q151 0 243.5 -61.5t92.5 -177.5q0 -70 -39.5 -119.5t-97.5 -79
t-116 -40.5q77 0 146.5 -21.5t113.5 -71t44 -135.5q0 -136 -113 -218.5t-303 -82.5zM719 0l669 1419h137l-671 -1419h-135zM1785 0v210h-500q-7 0 -14 14t-7 31q0 24 11 43l324 655q8 12 30 20.5t41 8.5q36 0 70.5 -19t57 -44.5t22.5 -45.5l-406 -564h371v259l185 15v-274
h204l-9 -99h-195v-210h-185z" />
    <glyph glyph-name="questiondown" unicode="&#xbf;" horiz-adv-x="980" 
d="M532 1450q59 0 99.5 -43t40.5 -99t-40.5 -95.5t-99.5 -39.5t-100 39.5t-41 95.5t41 99t100 43zM594 1053v-112q0 -91 -32 -156t-78.5 -118t-93.5 -106t-79 -117.5t-32 -154.5q0 -62 18.5 -132.5t68.5 -120t145 -49.5q69 0 112 24t63.5 48l20.5 24l40 230q5 23 20.5 30.5
t46.5 7.5t68.5 -27.5t37.5 -92.5q0 -39 -18 -85q-22 -59 -75 -115t-136 -92.5t-196 -36.5q-152 0 -244 58.5t-132.5 147.5t-40.5 181q0 82 41 149.5t101 128.5t120 121.5t101 129t41 152.5v83h112z" />
    <glyph glyph-name="Agrave" unicode="&#xc0;" horiz-adv-x="1374" 
d="M7 0q-16 0 -25 15.5t-9 35.5q0 23 7.5 29t28.5 8q25 3 54.5 3.5t56 15t42.5 58.5l458 1276h160l445 -1276q16 -44 42 -58.5t55.5 -15t53.5 -3.5q21 -2 28.5 -8t7.5 -29q0 -11 -8.5 -31t-25.5 -20h-501q-17 0 -25.5 20t-8.5 31q0 33 33 37q61 3 99 5t38 25q0 7 -3 14
l-121 362h-480l-122 -362q-2 -5 -2 -12q0 -25 42.5 -26.5t103.5 -5.5q33 -4 33 -37q0 -11 -8.5 -31t-25.5 -20h-423zM659 1187l-219 -607h421zM864 1526q-153 137 -255 200t-126 85q-16 15 -27.5 36t-11.5 45q0 37 29 67q32 33 72 33q25 0 47 -10.5t38 -25.5q23 -22 95 -126
t195 -246z" />
    <glyph glyph-name="Aacute" unicode="&#xc1;" horiz-adv-x="1374" 
d="M7 0q-16 0 -25 15.5t-9 35.5q0 23 7.5 29t28.5 8q25 3 54.5 3.5t56 15t42.5 58.5l458 1276h160l445 -1276q16 -44 42 -58.5t55.5 -15t53.5 -3.5q21 -2 28.5 -8t7.5 -29q0 -11 -8.5 -31t-25.5 -20h-501q-17 0 -25.5 20t-8.5 31q0 33 33 37q61 3 99 5t38 25q0 7 -3 14
l-121 362h-480l-122 -362q-2 -5 -2 -12q0 -25 42.5 -26.5t103.5 -5.5q33 -4 33 -37q0 -11 -8.5 -31t-25.5 -20h-423zM659 1187l-219 -607h421zM586 1526l-56 58q123 142 195 246t95 126q16 15 38 25.5t47 10.5q40 0 72 -33q28 -31 28 -66q0 -24 -11 -45t-27 -37
q-23 -22 -125.5 -85t-255.5 -200z" />
    <glyph glyph-name="Acircumflex" unicode="&#xc2;" horiz-adv-x="1374" 
d="M7 0q-16 0 -25 15.5t-9 35.5q0 23 7.5 29t28.5 8q25 3 54.5 3.5t56 15t42.5 58.5l458 1276h160l445 -1276q16 -44 42 -58.5t55.5 -15t53.5 -3.5q21 -2 28.5 -8t7.5 -29q0 -11 -8.5 -31t-25.5 -20h-501q-17 0 -25.5 20t-8.5 31q0 33 33 37q61 3 99 5t38 25q0 7 -3 14
l-121 362h-480l-122 -362q-2 -5 -2 -12q0 -25 42.5 -26.5t103.5 -5.5q33 -4 33 -37q0 -11 -8.5 -31t-25.5 -20h-423zM659 1187l-219 -607h421zM342 1545l245 348q17 21 38 36t57 15q37 0 58 -17.5t37 -42.5l245 -339h-113l-227 221l-222 -221h-118z" />
    <glyph glyph-name="Atilde" unicode="&#xc3;" horiz-adv-x="1374" 
d="M7 0q-16 0 -25 15.5t-9 35.5q0 23 7.5 29t28.5 8q25 3 54.5 3.5t56 15t42.5 58.5l458 1276h160l445 -1276q16 -44 42 -58.5t55.5 -15t53.5 -3.5q21 -2 28.5 -8t7.5 -29q0 -11 -8.5 -31t-25.5 -20h-501q-17 0 -25.5 20t-8.5 31q0 33 33 37q61 3 99 5t38 25q0 7 -3 14
l-121 362h-480l-122 -362q-2 -5 -2 -12q0 -25 42.5 -26.5t103.5 -5.5q33 -4 33 -37q0 -11 -8.5 -31t-25.5 -20h-423zM659 1187l-219 -607h421zM801 1533q-60 0 -106 31t-89.5 61.5t-93.5 30.5q-31 0 -53.5 -22.5t-38 -45t-26.5 -22.5q-16 0 -31 18t-15 40q0 27 28 68.5
t76 74t107 32.5q56 0 102 -30.5t90.5 -61.5t96.5 -31q31 0 53.5 22.5t38.5 45t26 22.5q16 0 32.5 -18t16.5 -40q0 -26 -29 -68t-77.5 -74.5t-107.5 -32.5z" />
    <glyph glyph-name="Adieresis" unicode="&#xc4;" horiz-adv-x="1374" 
d="M7 0q-16 0 -25 15.5t-9 35.5q0 23 7.5 29t28.5 8q25 3 54.5 3.5t56 15t42.5 58.5l458 1276h160l445 -1276q16 -44 42 -58.5t55.5 -15t53.5 -3.5q21 -2 28.5 -8t7.5 -29q0 -11 -8.5 -31t-25.5 -20h-501q-17 0 -25.5 20t-8.5 31q0 33 33 37q61 3 99 5t38 25q0 7 -3 14
l-121 362h-480l-122 -362q-2 -5 -2 -12q0 -25 42.5 -26.5t103.5 -5.5q33 -4 33 -37q0 -11 -8.5 -31t-25.5 -20h-423zM659 1187l-219 -607h421zM894 1605q-55 0 -83 38t-28 96q0 59 28 96.5t83 37.5t83 -37.5t28 -96.5q0 -58 -28 -96t-83 -38zM470 1605q-55 0 -83 38t-28 96
q0 59 28 96.5t83 37.5t83 -37.5t28 -96.5q0 -58 -28 -96t-83 -38z" />
    <glyph glyph-name="Aring" unicode="&#xc5;" horiz-adv-x="1374" 
d="M7 0q-16 0 -25 15.5t-9 35.5q0 23 7.5 29t28.5 8q25 3 54.5 3.5t56 15t42.5 58.5l458 1276h160l445 -1276q16 -44 42 -58.5t55.5 -15t53.5 -3.5q21 -2 28.5 -8t7.5 -29q0 -11 -8.5 -31t-25.5 -20h-501q-17 0 -25.5 20t-8.5 31q0 33 33 37q61 3 99 5t38 25q0 7 -3 14
l-121 362h-480l-122 -362q-2 -5 -2 -12q0 -25 42.5 -26.5t103.5 -5.5q33 -4 33 -37q0 -11 -8.5 -31t-25.5 -20h-423zM659 1187l-219 -607h421zM682 1407q-117 0 -199.5 70t-82.5 188q0 119 82.5 188t199.5 69q116 0 199 -70.5t83 -189.5q0 -118 -83 -186.5t-199 -68.5z
M682 1512q86 0 122.5 46t36.5 108t-36.5 107t-122.5 45q-85 0 -121.5 -46t-36.5 -108t36.5 -107t121.5 -45z" />
    <glyph glyph-name="AE" unicode="&#xc6;" horiz-adv-x="1988" 
d="M-63 0q-16 0 -25 20t-9 31q0 20 7 27.5t29 9.5q25 3 54 4.5t57.5 16.5t49.5 56l586 1153q-62 3 -126 6.5t-107 6.5q-18 2 -27 11.5t-9 35.5q0 17 10.5 29t23.5 12l1281 -1l35 -364q0 -17 -15 -25.5t-26 -8.5q-16 0 -30.5 7t-16.5 26q-2 18 -19 61t-45.5 90.5t-64.5 81.5
t-77 34h-394l-1 -577h260q26 4 46.5 39t33.5 75.5t15 60.5t21.5 26.5t35.5 6.5q11 0 26 -8.5t15 -25.5v-443q0 -17 -15 -25.5t-26 -8.5q-16 0 -35.5 7t-21.5 26q-2 22 -15.5 66t-35.5 81t-50 37h-254v-460q0 -55 28 -75.5t61 -20.5h376q35 0 73 40.5t71.5 97t55.5 106.5
t24 68q2 20 16.5 26.5t30.5 6.5q11 0 26 -8.5t15 -25.5l-43 -411l-1095 -1q-17 0 -25.5 20t-8.5 31q0 33 33 37q32 3 68 9.5t61.5 19.5t25.5 35v505h-396l-241 -515q-5 -10 -5 -18q0 -19 46 -26.5t113 -9.5q37 -1 37 -37q0 -19 -10.5 -35t-23.5 -16h-454zM520 743h352v568
q-9 1 -39 1t-39 1z" />
    <glyph glyph-name="Ccedilla" unicode="&#xc7;" horiz-adv-x="1315" 
d="M752 -30q-120 0 -241.5 36.5t-222.5 120.5t-162 226t-61 353q0 198 62.5 339.5t162.5 230.5t216.5 131t224.5 42q133 0 221.5 -15.5t145 -36t91.5 -36.5l22 -313q2 -17 -16 -28.5t-30 -11.5q-3 0 -5.5 -0.5t-5.5 -0.5q-31 0 -35 29q-23 84 -70.5 156.5t-125.5 116.5
t-194 44q-64 0 -135 -20.5t-132.5 -84.5t-100.5 -193.5t-39 -348.5q0 -208 43.5 -335t111 -193.5t141 -89.5t133.5 -23q114 0 187.5 43.5t115.5 116t58 158.5q6 33 37 33q12 0 36.5 -8.5t24.5 -25.5l-32 -274q-1 -14 -56 -47.5t-150.5 -62t-219.5 -28.5zM699 -488
q-64 0 -111 15.5t-74 33.5q-12 8 -5 22q8 16 17 33t15 28q6 13 22 7q17 -6 46.5 -15.5t75.5 -9.5q50 0 83.5 25t33.5 68q0 37 -38 67.5t-118 31.5l33 200h117l-36 -139q100 -10 154.5 -58t54.5 -113q0 -71 -65 -133.5t-205 -62.5z" />
    <glyph glyph-name="Egrave" unicode="&#xc8;" horiz-adv-x="1338" 
d="M105 51q0 33 33 37q48 4 97 17.5t49 46.5v1082q0 43 -25.5 62t-60.5 25.5t-66 9.5q-21 2 -28.5 8.5t-7.5 28.5q0 11 8.5 31t25.5 20l980 1l35 -325q2 -17 -12 -25.5t-25 -8.5q-16 0 -34 5.5t-30 27.5q-40 75 -65.5 125.5t-56 76t-84.5 25.5l-340 -1v-542l234 1
q26 4 48 38t36.5 73.5t16.5 59.5t16 26t30 6q11 0 26 -8.5t15 -25.5v-443q0 -17 -15 -25.5t-26 -8.5q-16 0 -31.5 7t-17.5 26q-1 22 -15.5 64.5t-37.5 78.5t-51 36l-228 -1v-485q0 -55 28 -74t61 -22l285 1q90 0 157 60.5t103 211.5q5 19 28.5 26t39.5 7q19 0 33 -8.5
t16 -25.5l-50 -372l-1060 -1q-17 0 -25.5 20t-8.5 31zM856 1526q-153 137 -255 200t-126 85q-16 15 -27.5 36t-11.5 45q0 37 29 67q32 33 72 33q25 0 47 -10.5t38 -25.5q23 -22 95 -126t195 -246z" />
    <glyph glyph-name="Eacute" unicode="&#xc9;" horiz-adv-x="1338" 
d="M105 51q0 33 33 37q48 4 97 17.5t49 46.5v1082q0 43 -25.5 62t-60.5 25.5t-66 9.5q-21 2 -28.5 8.5t-7.5 28.5q0 11 8.5 31t25.5 20l980 1l35 -325q2 -17 -12 -25.5t-25 -8.5q-16 0 -34 5.5t-30 27.5q-40 75 -65.5 125.5t-56 76t-84.5 25.5l-340 -1v-542l234 1
q26 4 48 38t36.5 73.5t16.5 59.5t16 26t30 6q11 0 26 -8.5t15 -25.5v-443q0 -17 -15 -25.5t-26 -8.5q-16 0 -31.5 7t-17.5 26q-1 22 -15.5 64.5t-37.5 78.5t-51 36l-228 -1v-485q0 -55 28 -74t61 -22l285 1q90 0 157 60.5t103 211.5q5 19 28.5 26t39.5 7q19 0 33 -8.5
t16 -25.5l-50 -372l-1060 -1q-17 0 -25.5 20t-8.5 31zM578 1526l-56 58q123 142 195 246t95 126q16 15 38 25.5t47 10.5q40 0 72 -33q28 -31 28 -66q0 -24 -11 -45t-27 -37q-23 -22 -125.5 -85t-255.5 -200z" />
    <glyph glyph-name="Ecircumflex" unicode="&#xca;" horiz-adv-x="1338" 
d="M105 51q0 33 33 37q48 4 97 17.5t49 46.5v1082q0 43 -25.5 62t-60.5 25.5t-66 9.5q-21 2 -28.5 8.5t-7.5 28.5q0 11 8.5 31t25.5 20l980 1l35 -325q2 -17 -12 -25.5t-25 -8.5q-16 0 -34 5.5t-30 27.5q-40 75 -65.5 125.5t-56 76t-84.5 25.5l-340 -1v-542l234 1
q26 4 48 38t36.5 73.5t16.5 59.5t16 26t30 6q11 0 26 -8.5t15 -25.5v-443q0 -17 -15 -25.5t-26 -8.5q-16 0 -31.5 7t-17.5 26q-1 22 -15.5 64.5t-37.5 78.5t-51 36l-228 -1v-485q0 -55 28 -74t61 -22l285 1q90 0 157 60.5t103 211.5q5 19 28.5 26t39.5 7q19 0 33 -8.5
t16 -25.5l-50 -372l-1060 -1q-17 0 -25.5 20t-8.5 31zM334 1545l245 348q17 21 38 36t57 15q37 0 58 -17.5t37 -42.5l245 -339h-113l-227 221l-222 -221h-118z" />
    <glyph glyph-name="Edieresis" unicode="&#xcb;" horiz-adv-x="1338" 
d="M105 51q0 33 33 37q48 4 97 17.5t49 46.5v1082q0 43 -25.5 62t-60.5 25.5t-66 9.5q-21 2 -28.5 8.5t-7.5 28.5q0 11 8.5 31t25.5 20l980 1l35 -325q2 -17 -12 -25.5t-25 -8.5q-16 0 -34 5.5t-30 27.5q-40 75 -65.5 125.5t-56 76t-84.5 25.5l-340 -1v-542l234 1
q26 4 48 38t36.5 73.5t16.5 59.5t16 26t30 6q11 0 26 -8.5t15 -25.5v-443q0 -17 -15 -25.5t-26 -8.5q-16 0 -31.5 7t-17.5 26q-1 22 -15.5 64.5t-37.5 78.5t-51 36l-228 -1v-485q0 -55 28 -74t61 -22l285 1q90 0 157 60.5t103 211.5q5 19 28.5 26t39.5 7q19 0 33 -8.5
t16 -25.5l-50 -372l-1060 -1q-17 0 -25.5 20t-8.5 31zM886 1605q-55 0 -83 38t-28 96q0 59 28 96.5t83 37.5t83 -37.5t28 -96.5q0 -58 -28 -96t-83 -38zM462 1605q-55 0 -83 38t-28 96q0 59 28 96.5t83 37.5t83 -37.5t28 -96.5q0 -58 -28 -96t-83 -38z" />
    <glyph glyph-name="Igrave" unicode="&#xcc;" horiz-adv-x="798" 
d="M151 0q-17 0 -25.5 20t-8.5 31q0 34 33 37q48 4 96.5 17.5t48.5 46.5l1 1082q0 43 -25.5 62t-60.5 25.5t-66 9.5q-21 2 -28.5 8.5t-7.5 28.5q0 11 8.5 31t25.5 20h505q17 0 25.5 -20t8.5 -31q0 -34 -33 -37q-48 -4 -96.5 -17.5t-48.5 -46.5l-1 -1082q0 -43 25.5 -62
t61 -25t65.5 -10q21 -2 28.5 -8t7.5 -29q0 -11 -8.5 -31t-25.5 -20h-505zM579 1526q-153 137 -255 200t-126 85q-16 15 -27.5 36t-11.5 45q0 37 29 67q32 33 72 33q25 0 47 -10.5t38 -25.5q23 -22 95 -126t195 -246z" />
    <glyph glyph-name="Iacute" unicode="&#xcd;" horiz-adv-x="798" 
d="M151 0q-17 0 -25.5 20t-8.5 31q0 34 33 37q48 4 96.5 17.5t48.5 46.5l1 1082q0 43 -25.5 62t-60.5 25.5t-66 9.5q-21 2 -28.5 8.5t-7.5 28.5q0 11 8.5 31t25.5 20h505q17 0 25.5 -20t8.5 -31q0 -34 -33 -37q-48 -4 -96.5 -17.5t-48.5 -46.5l-1 -1082q0 -43 25.5 -62
t61 -25t65.5 -10q21 -2 28.5 -8t7.5 -29q0 -11 -8.5 -31t-25.5 -20h-505zM301 1526l-56 58q123 142 195 246t95 126q16 15 38 25.5t47 10.5q40 0 72 -33q28 -31 28 -66q0 -24 -11 -45t-27 -37q-23 -22 -125.5 -85t-255.5 -200z" />
    <glyph glyph-name="Icircumflex" unicode="&#xce;" horiz-adv-x="798" 
d="M151 0q-17 0 -25.5 20t-8.5 31q0 34 33 37q48 4 96.5 17.5t48.5 46.5l1 1082q0 43 -25.5 62t-60.5 25.5t-66 9.5q-21 2 -28.5 8.5t-7.5 28.5q0 11 8.5 31t25.5 20h505q17 0 25.5 -20t8.5 -31q0 -34 -33 -37q-48 -4 -96.5 -17.5t-48.5 -46.5l-1 -1082q0 -43 25.5 -62
t61 -25t65.5 -10q21 -2 28.5 -8t7.5 -29q0 -11 -8.5 -31t-25.5 -20h-505zM57 1545l245 348q17 21 38 36t57 15q37 0 58 -17.5t37 -42.5l245 -339h-113l-227 221l-222 -221h-118z" />
    <glyph glyph-name="Idieresis" unicode="&#xcf;" horiz-adv-x="798" 
d="M151 0q-17 0 -25.5 20t-8.5 31q0 34 33 37q48 4 96.5 17.5t48.5 46.5l1 1082q0 43 -25.5 62t-60.5 25.5t-66 9.5q-21 2 -28.5 8.5t-7.5 28.5q0 11 8.5 31t25.5 20h505q17 0 25.5 -20t8.5 -31q0 -34 -33 -37q-48 -4 -96.5 -17.5t-48.5 -46.5l-1 -1082q0 -43 25.5 -62
t61 -25t65.5 -10q21 -2 28.5 -8t7.5 -29q0 -11 -8.5 -31t-25.5 -20h-505zM609 1605q-55 0 -83 38t-28 96q0 59 28 96.5t83 37.5t83 -37.5t28 -96.5q0 -58 -28 -96t-83 -38zM185 1605q-55 0 -83 38t-28 96q0 59 28 96.5t83 37.5t83 -37.5t28 -96.5q0 -58 -28 -96t-83 -38z
" />
    <glyph glyph-name="Eth" unicode="&#xd0;" horiz-adv-x="1534" 
d="M139 0q-17 0 -25.5 20t-8.5 31q0 33 33 37q48 4 96.5 17.5t48.5 46.5v542h-135q-12 1 -18 11.5t-6 22.5q0 43 24 53h135v453q0 43 -25.5 62t-60.5 25.5t-66 9.5q-21 2 -28.5 8.5t-7.5 28.5q0 11 8.5 31t25.5 20h596q204 -1 344 -58t225 -154t123 -218.5t38 -250.5
q0 -195 -62.5 -335t-164 -229t-220 -131.5t-231.5 -42.5h-638zM495 168q0 -14 16 -29.5t60.5 -26.5t131.5 -11q91 0 181 19.5t163.5 82t117.5 189.5t44 342q0 186 -47 301.5t-123.5 178t-167.5 85.5t-178 23h-197v-541h291q12 -1 18 -11.5t6 -22.5q0 -43 -24 -53h-292v-526z
" />
    <glyph glyph-name="Ntilde" unicode="&#xd1;" horiz-adv-x="1571" 
d="M96 0q-17 0 -25.5 20t-8.5 31q0 33 33 37q32 3 68 10t61.5 24.5t25.5 49.5v1062q0 43 -27.5 62t-65 25.5t-68.5 9.5q-21 2 -28.5 8.5t-7.5 28.5q0 11 8.5 31t25.5 20h338l777 -1106h12v921q0 43 -32.5 62t-74.5 25.5t-73 9.5q-21 2 -28.5 8.5t-7.5 28.5q0 11 8.5 31
t25.5 20h455q17 0 25.5 -20t8.5 -31q0 -33 -33 -37q-30 -3 -71.5 -9.5t-72.5 -25.5t-31 -62v-1121q0 -19 2 -31.5t4 -41.5q3 -42 -18 -56t-42 -14q-36 0 -54 22l-839 1162h-17v-969q0 -43 30 -62t70 -25t70 -10q21 -2 28.5 -8t7.5 -29q0 -11 -8.5 -31t-25.5 -20h-425z
M926 1533q-60 0 -106 31t-89.5 61.5t-93.5 30.5q-31 0 -53.5 -22.5t-38 -45t-26.5 -22.5q-16 0 -31 18t-15 40q0 27 28 68.5t76 74t107 32.5q56 0 102 -30.5t90.5 -61.5t96.5 -31q31 0 53.5 22.5t38.5 45t26 22.5q16 0 32.5 -18t16.5 -40q0 -26 -29 -68t-77.5 -74.5
t-107.5 -32.5z" />
    <glyph glyph-name="Ograve" unicode="&#xd2;" horiz-adv-x="1524" 
d="M759 -29q-158 0 -281.5 58t-209 160.5t-130 237.5t-44.5 289q0 205 81 371t232 264t362 98t358.5 -98t225 -264t77.5 -371q0 -154 -45.5 -289t-132 -237.5t-211 -160.5t-282.5 -58zM763 65q166 0 256 78.5t125.5 224t35.5 346.5t-36.5 345t-128.5 220.5t-257 76.5
q-166 0 -256.5 -76.5t-125 -220.5t-34.5 -345t36.5 -346.5t128 -224t256.5 -78.5zM930 1526q-153 137 -255 200t-126 85q-16 15 -27.5 36t-11.5 45q0 37 29 67q32 33 72 33q25 0 47 -10.5t38 -25.5q23 -22 95 -126t195 -246z" />
    <glyph glyph-name="Oacute" unicode="&#xd3;" horiz-adv-x="1524" 
d="M759 -29q-158 0 -281.5 58t-209 160.5t-130 237.5t-44.5 289q0 205 81 371t232 264t362 98t358.5 -98t225 -264t77.5 -371q0 -154 -45.5 -289t-132 -237.5t-211 -160.5t-282.5 -58zM763 65q166 0 256 78.5t125.5 224t35.5 346.5t-36.5 345t-128.5 220.5t-257 76.5
q-166 0 -256.5 -76.5t-125 -220.5t-34.5 -345t36.5 -346.5t128 -224t256.5 -78.5zM652 1526l-56 58q123 142 195 246t95 126q16 15 38 25.5t47 10.5q40 0 72 -33q28 -31 28 -66q0 -24 -11 -45t-27 -37q-23 -22 -125.5 -85t-255.5 -200z" />
    <glyph glyph-name="Ocircumflex" unicode="&#xd4;" horiz-adv-x="1524" 
d="M759 -29q-158 0 -281.5 58t-209 160.5t-130 237.5t-44.5 289q0 205 81 371t232 264t362 98t358.5 -98t225 -264t77.5 -371q0 -154 -45.5 -289t-132 -237.5t-211 -160.5t-282.5 -58zM763 65q166 0 256 78.5t125.5 224t35.5 346.5t-36.5 345t-128.5 220.5t-257 76.5
q-166 0 -256.5 -76.5t-125 -220.5t-34.5 -345t36.5 -346.5t128 -224t256.5 -78.5zM408 1545l245 348q17 21 38 36t57 15q37 0 58 -17.5t37 -42.5l245 -339h-113l-227 221l-222 -221h-118z" />
    <glyph glyph-name="Otilde" unicode="&#xd5;" horiz-adv-x="1524" 
d="M759 -29q-158 0 -281.5 58t-209 160.5t-130 237.5t-44.5 289q0 205 81 371t232 264t362 98t358.5 -98t225 -264t77.5 -371q0 -154 -45.5 -289t-132 -237.5t-211 -160.5t-282.5 -58zM763 65q166 0 256 78.5t125.5 224t35.5 346.5t-36.5 345t-128.5 220.5t-257 76.5
q-166 0 -256.5 -76.5t-125 -220.5t-34.5 -345t36.5 -346.5t128 -224t256.5 -78.5zM867 1533q-60 0 -106 31t-89.5 61.5t-93.5 30.5q-31 0 -53.5 -22.5t-38 -45t-26.5 -22.5q-16 0 -31 18t-15 40q0 27 28 68.5t76 74t107 32.5q56 0 102 -30.5t90.5 -61.5t96.5 -31
q31 0 53.5 22.5t38.5 45t26 22.5q16 0 32.5 -18t16.5 -40q0 -26 -29 -68t-77.5 -74.5t-107.5 -32.5z" />
    <glyph glyph-name="Odieresis" unicode="&#xd6;" horiz-adv-x="1524" 
d="M759 -29q-158 0 -281.5 58t-209 160.5t-130 237.5t-44.5 289q0 205 81 371t232 264t362 98t358.5 -98t225 -264t77.5 -371q0 -154 -45.5 -289t-132 -237.5t-211 -160.5t-282.5 -58zM763 65q166 0 256 78.5t125.5 224t35.5 346.5t-36.5 345t-128.5 220.5t-257 76.5
q-166 0 -256.5 -76.5t-125 -220.5t-34.5 -345t36.5 -346.5t128 -224t256.5 -78.5zM960 1605q-55 0 -83 38t-28 96q0 59 28 96.5t83 37.5t83 -37.5t28 -96.5q0 -58 -28 -96t-83 -38zM536 1605q-55 0 -83 38t-28 96q0 59 28 96.5t83 37.5t83 -37.5t28 -96.5q0 -58 -28 -96
t-83 -38z" />
    <glyph glyph-name="multiply" unicode="&#xd7;" horiz-adv-x="1317" 
d="M297 103l-102 105l360 365l-360 366l102 106l362 -367l361 367l102 -106l-360 -366l360 -365l-102 -105l-361 366z" />
    <glyph glyph-name="Oslash" unicode="&#xd8;" horiz-adv-x="1524" 
d="M759 -29q-78 0 -148 15t-131 42l-97 -192q-6 -7 -17 -7q-18 0 -32 9q-36 23 -33 48l95 189q-146 98 -224 267.5t-78 373.5q0 205 81 371t232 264t362 98q82 0 155 -16t136 -45l94 187q6 9 20 9q12 0 22 -6q16 -9 29.5 -25.5t11.5 -27.5l-94 -185q140 -96 213.5 -260
t73.5 -364q0 -154 -45.5 -289t-132 -237.5t-211 -160.5t-282.5 -58zM342 714q0 -172 25.5 -303.5t89.5 -215.5l550 1089q-94 72 -249 72q-166 0 -256.5 -76.5t-125 -220.5t-34.5 -345zM763 65q166 0 256 78.5t125.5 224t35.5 346.5q0 162 -23 287.5t-79 208.5l-548 -1083
q91 -62 233 -62z" />
    <glyph glyph-name="Ugrave" unicode="&#xd9;" horiz-adv-x="1549" 
d="M1296 1230l-2 -714q-1 -271 -137 -408t-376 -137q-181 0 -298.5 69t-174.5 192t-57 284l1 718q0 43 -23 62.5t-55.5 26t-63.5 8.5q-21 2 -28.5 8.5t-7.5 28.5q0 11 8.5 31t25.5 20h508q17 0 25.5 -20t8.5 -31q0 -34 -33 -37q-52 -4 -102.5 -17.5t-50.5 -46.5l-1 -743
q0 -234 79.5 -346.5t242.5 -112.5q158 0 244 57.5t120 158.5t34 233v730q0 34 -32.5 51.5t-74 25t-69.5 10.5q-21 2 -28.5 8.5t-7.5 28.5q0 11 8.5 31t25.5 20h465q17 0 25.5 -20t8.5 -31q0 -36 -33 -37q-77 -4 -126 -28.5t-49 -72.5zM995 1526q-153 137 -255 200t-126 85
q-16 15 -27.5 36t-11.5 45q0 37 29 67q32 33 72 33q25 0 47 -10.5t38 -25.5q23 -22 95 -126t195 -246z" />
    <glyph glyph-name="Uacute" unicode="&#xda;" horiz-adv-x="1549" 
d="M1296 1230l-2 -714q-1 -271 -137 -408t-376 -137q-181 0 -298.5 69t-174.5 192t-57 284l1 718q0 43 -23 62.5t-55.5 26t-63.5 8.5q-21 2 -28.5 8.5t-7.5 28.5q0 11 8.5 31t25.5 20h508q17 0 25.5 -20t8.5 -31q0 -34 -33 -37q-52 -4 -102.5 -17.5t-50.5 -46.5l-1 -743
q0 -234 79.5 -346.5t242.5 -112.5q158 0 244 57.5t120 158.5t34 233v730q0 34 -32.5 51.5t-74 25t-69.5 10.5q-21 2 -28.5 8.5t-7.5 28.5q0 11 8.5 31t25.5 20h465q17 0 25.5 -20t8.5 -31q0 -36 -33 -37q-77 -4 -126 -28.5t-49 -72.5zM717 1526l-56 58q123 142 195 246
t95 126q16 15 38 25.5t47 10.5q40 0 72 -33q28 -31 28 -66q0 -24 -11 -45t-27 -37q-23 -22 -125.5 -85t-255.5 -200z" />
    <glyph glyph-name="Ucircumflex" unicode="&#xdb;" horiz-adv-x="1549" 
d="M1296 1230l-2 -714q-1 -271 -137 -408t-376 -137q-181 0 -298.5 69t-174.5 192t-57 284l1 718q0 43 -23 62.5t-55.5 26t-63.5 8.5q-21 2 -28.5 8.5t-7.5 28.5q0 11 8.5 31t25.5 20h508q17 0 25.5 -20t8.5 -31q0 -34 -33 -37q-52 -4 -102.5 -17.5t-50.5 -46.5l-1 -743
q0 -234 79.5 -346.5t242.5 -112.5q158 0 244 57.5t120 158.5t34 233v730q0 34 -32.5 51.5t-74 25t-69.5 10.5q-21 2 -28.5 8.5t-7.5 28.5q0 11 8.5 31t25.5 20h465q17 0 25.5 -20t8.5 -31q0 -36 -33 -37q-77 -4 -126 -28.5t-49 -72.5zM473 1545l245 348q17 21 38 36t57 15
q37 0 58 -17.5t37 -42.5l245 -339h-113l-227 221l-222 -221h-118z" />
    <glyph glyph-name="Udieresis" unicode="&#xdc;" horiz-adv-x="1549" 
d="M1296 1230l-2 -714q-1 -271 -137 -408t-376 -137q-181 0 -298.5 69t-174.5 192t-57 284l1 718q0 43 -23 62.5t-55.5 26t-63.5 8.5q-21 2 -28.5 8.5t-7.5 28.5q0 11 8.5 31t25.5 20h508q17 0 25.5 -20t8.5 -31q0 -34 -33 -37q-52 -4 -102.5 -17.5t-50.5 -46.5l-1 -743
q0 -234 79.5 -346.5t242.5 -112.5q158 0 244 57.5t120 158.5t34 233v730q0 34 -32.5 51.5t-74 25t-69.5 10.5q-21 2 -28.5 8.5t-7.5 28.5q0 11 8.5 31t25.5 20h465q17 0 25.5 -20t8.5 -31q0 -36 -33 -37q-77 -4 -126 -28.5t-49 -72.5zM1025 1605q-55 0 -83 38t-28 96
q0 59 28 96.5t83 37.5t83 -37.5t28 -96.5q0 -58 -28 -96t-83 -38zM601 1605q-55 0 -83 38t-28 96q0 59 28 96.5t83 37.5t83 -37.5t28 -96.5q0 -58 -28 -96t-83 -38z" />
    <glyph glyph-name="Yacute" unicode="&#xdd;" horiz-adv-x="1260" 
d="M360 0q-17 0 -25.5 20t-8.5 31q0 32 43 37q34 3 72 4t65.5 13t27.5 47v382l-391 720q-34 62 -74 72.5t-77 14.5q-21 2 -28.5 8.5t-7.5 28.5q0 11 9 26t25 15h522q17 0 25.5 -15t8.5 -26q0 -33 -33 -37q-59 -3 -105.5 -9.5t-46.5 -29.5q0 -7 4 -15l313 -632l323 632
q4 8 4 16q-3 22 -48 28.5t-104 9.5q-33 4 -33 37q0 11 8.5 26t25.5 15h415q17 0 25.5 -15t8.5 -26q0 -22 -7.5 -28.5t-28.5 -8.5q-37 -4 -77 -14.5t-74 -72.5l-375 -687v-402q0 -43 29 -57t69.5 -15t73.5 -5q21 -2 33.5 -8t12.5 -29q0 -11 -8.5 -31t-25.5 -20h-565z
M548 1526l-56 58q123 142 195 246t95 126q16 15 38 25.5t47 10.5q40 0 72 -33q28 -31 28 -66q0 -24 -11 -45t-27 -37q-23 -22 -125.5 -85t-255.5 -200z" />
    <glyph glyph-name="Thorn" unicode="&#xde;" horiz-adv-x="1258" 
d="M139 0q-17 0 -25.5 20t-8.5 31q0 33 33 37q48 4 96.5 17.5t48.5 46.5l1 1082q0 43 -25.5 62.5t-60.5 26t-66 8.5q-21 2 -28.5 8.5t-7.5 28.5q0 11 8.5 31t25.5 20h505q17 0 25.5 -20t8.5 -31q0 -33 -33 -37q-48 -4 -96.5 -17.5t-48.5 -46.5v-114l249 2q118 0 221 -37
t167 -124.5t64 -239.5q0 -131 -61 -231.5t-171.5 -157t-260.5 -56.5h-209v-124q0 -43 38 -62.5t86 -25.5t78 -9q21 -2 28.5 -8t7.5 -29q0 -11 -8.5 -31t-25.5 -20h-555zM490 395h206q28 0 73.5 16.5t92 55t78 104t31.5 162.5q0 134 -44 208.5t-114 104.5t-150 30h-172z" />
    <glyph glyph-name="germandbls" unicode="&#xdf;" horiz-adv-x="1123" 
d="M52 0q-17 0 -25.5 20t-8.5 31q0 33 33 37q37 5 66.5 18t29.5 46v909q0 128 53 241.5t155 185t250 71.5q84 0 159.5 -27t123 -84.5t47.5 -151.5q0 -74 -25.5 -117.5t-62.5 -70t-74.5 -48.5t-63 -51.5t-25.5 -80.5q0 -31 36.5 -70.5t90.5 -89.5t108 -112.5t90.5 -139.5
t36.5 -172q0 -102 -39.5 -187t-112.5 -135.5t-174 -50.5q-146 0 -209.5 59t-63.5 126q0 42 34 74.5t95 32.5l67 -174l17 -17t54 -17q33 0 66 21t55 73t22 145q0 81 -33.5 141.5t-83.5 111t-100 99t-83.5 104t-33.5 128.5q0 56 22.5 94t55.5 67.5t65.5 61.5t55 76t22.5 111
q0 87 -47 136.5t-121 49.5q-35 0 -77 -9.5t-80 -46t-62 -113.5t-24 -212v-1093h-281z" />
    <glyph glyph-name="agrave" unicode="&#xe0;" horiz-adv-x="1032" 
d="M97 243q0 99 52.5 163.5t138.5 103t189 59t203 30.5v154q0 37 -18.5 76.5t-63 67t-124.5 27.5q-43 0 -64 -5.5t-34 -11.5l-120 -242q-56 0 -101.5 25.5t-45.5 90.5q0 60 50 113t142 86.5t217 33.5q113 0 182.5 -28t106 -75t49.5 -104.5t13 -117.5v-488q0 -39 11 -73
t27 -34q14 0 24.5 1.5t28.5 6.5q17 5 28.5 -11.5t11.5 -31.5q0 -11 -6 -16q-26 -19 -78 -40.5t-114 -21.5q-52 0 -78 22t-26 96v20q-65 -68 -140.5 -104t-180.5 -36q-60 0 -125 26t-110 84t-45 154zM306 248q0 -63 38.5 -110.5t104.5 -47.5q83 0 141.5 28t88.5 58v352
q-108 -16 -192 -41.5t-132.5 -80t-48.5 -158.5zM594 1096q-153 137 -255 200t-126 85q-16 15 -27.5 36t-11.5 45q0 37 29 67q32 33 72 33q25 0 47 -10.5t38 -25.5q23 -22 95 -126t195 -246z" />
    <glyph glyph-name="aacute" unicode="&#xe1;" horiz-adv-x="1032" 
d="M97 243q0 99 52.5 163.5t138.5 103t189 59t203 30.5v154q0 37 -18.5 76.5t-63 67t-124.5 27.5q-43 0 -64 -5.5t-34 -11.5l-120 -242q-56 0 -101.5 25.5t-45.5 90.5q0 60 50 113t142 86.5t217 33.5q113 0 182.5 -28t106 -75t49.5 -104.5t13 -117.5v-488q0 -39 11 -73
t27 -34q14 0 24.5 1.5t28.5 6.5q17 5 28.5 -11.5t11.5 -31.5q0 -11 -6 -16q-26 -19 -78 -40.5t-114 -21.5q-52 0 -78 22t-26 96v20q-65 -68 -140.5 -104t-180.5 -36q-60 0 -125 26t-110 84t-45 154zM306 248q0 -63 38.5 -110.5t104.5 -47.5q83 0 141.5 28t88.5 58v352
q-108 -16 -192 -41.5t-132.5 -80t-48.5 -158.5zM395 1094l-56 58q123 142 195 246t95 126q16 15 38 25.5t47 10.5q18 0 37 -7.5t35 -25.5q28 -31 28 -66q0 -24 -11 -45t-27 -37q-23 -23 -125.5 -85.5t-255.5 -199.5z" />
    <glyph glyph-name="acircumflex" unicode="&#xe2;" horiz-adv-x="1032" 
d="M97 243q0 99 52.5 163.5t138.5 103t189 59t203 30.5v154q0 37 -18.5 76.5t-63 67t-124.5 27.5q-43 0 -64 -5.5t-34 -11.5l-120 -242q-56 0 -101.5 25.5t-45.5 90.5q0 60 50 113t142 86.5t217 33.5q113 0 182.5 -28t106 -75t49.5 -104.5t13 -117.5v-488q0 -39 11 -73
t27 -34q14 0 24.5 1.5t28.5 6.5q17 5 28.5 -11.5t11.5 -31.5q0 -11 -6 -16q-26 -19 -78 -40.5t-114 -21.5q-52 0 -78 22t-26 96v20q-65 -68 -140.5 -104t-180.5 -36q-60 0 -125 26t-110 84t-45 154zM306 248q0 -63 38.5 -110.5t104.5 -47.5q83 0 141.5 28t88.5 58v352
q-108 -16 -192 -41.5t-132.5 -80t-48.5 -158.5zM157 1110l245 388q17 21 38 36t57 15q37 0 58 -17.5t37 -42.5l245 -379h-113l-227 261l-222 -261h-118z" />
    <glyph glyph-name="atilde" unicode="&#xe3;" horiz-adv-x="1032" 
d="M97 243q0 99 52.5 163.5t138.5 103t189 59t203 30.5v154q0 37 -18.5 76.5t-63 67t-124.5 27.5q-43 0 -64 -5.5t-34 -11.5l-120 -242q-56 0 -101.5 25.5t-45.5 90.5q0 60 50 113t142 86.5t217 33.5q113 0 182.5 -28t106 -75t49.5 -104.5t13 -117.5v-488q0 -39 11 -73
t27 -34q14 0 24.5 1.5t28.5 6.5q17 5 28.5 -11.5t11.5 -31.5q0 -11 -6 -16q-26 -19 -78 -40.5t-114 -21.5q-52 0 -78 22t-26 96v20q-65 -68 -140.5 -104t-180.5 -36q-60 0 -125 26t-110 84t-45 154zM306 248q0 -63 38.5 -110.5t104.5 -47.5q83 0 141.5 28t88.5 58v352
q-108 -16 -192 -41.5t-132.5 -80t-48.5 -158.5zM598 1117q-39 0 -72 20t-63 46.5t-57.5 46.5t-55.5 20q-31 0 -54 -24t-39 -48.5t-27 -24.5q-16 0 -31.5 19.5t-15.5 43.5q0 29 29 73.5t77.5 80t108.5 35.5q32 0 62.5 -20t61 -46.5t61 -46.5t63.5 -20q32 0 55 24.5t39 48.5
t26 24q17 0 33.5 -19.5t16.5 -43.5q0 -28 -29.5 -73t-79 -80.5t-109.5 -35.5z" />
    <glyph glyph-name="adieresis" unicode="&#xe4;" horiz-adv-x="1032" 
d="M97 243q0 99 52.5 163.5t138.5 103t189 59t203 30.5v154q0 37 -18.5 76.5t-63 67t-124.5 27.5q-43 0 -64 -5.5t-34 -11.5l-120 -242q-56 0 -101.5 25.5t-45.5 90.5q0 60 50 113t142 86.5t217 33.5q113 0 182.5 -28t106 -75t49.5 -104.5t13 -117.5v-488q0 -39 11 -73
t27 -34q14 0 24.5 1.5t28.5 6.5q17 5 28.5 -11.5t11.5 -31.5q0 -11 -6 -16q-26 -19 -78 -40.5t-114 -21.5q-52 0 -78 22t-26 96v20q-65 -68 -140.5 -104t-180.5 -36q-60 0 -125 26t-110 84t-45 154zM306 248q0 -63 38.5 -110.5t104.5 -47.5q83 0 141.5 28t88.5 58v352
q-108 -16 -192 -41.5t-132.5 -80t-48.5 -158.5zM709 1182q-55 0 -83 38t-28 96q0 59 28 96.5t83 37.5t83 -37.5t28 -96.5q0 -58 -28 -96t-83 -38zM285 1182q-55 0 -83 38t-28 96q0 59 28 96.5t83 37.5t83 -37.5t28 -96.5q0 -58 -28 -96t-83 -38z" />
    <glyph glyph-name="aring" unicode="&#xe5;" horiz-adv-x="1032" 
d="M97 243q0 99 52.5 163.5t138.5 103t189 59t203 30.5v154q0 37 -18.5 76.5t-63 67t-124.5 27.5q-43 0 -64 -5.5t-34 -11.5l-120 -242q-56 0 -101.5 25.5t-45.5 90.5q0 60 50 113t142 86.5t217 33.5q113 0 182.5 -28t106 -75t49.5 -104.5t13 -117.5v-488q0 -39 11 -73
t27 -34q14 0 24.5 1.5t28.5 6.5q17 5 28.5 -11.5t11.5 -31.5q0 -11 -6 -16q-26 -19 -78 -40.5t-114 -21.5q-52 0 -78 22t-26 96v20q-65 -68 -140.5 -104t-180.5 -36q-60 0 -125 26t-110 84t-45 154zM306 248q0 -63 38.5 -110.5t104.5 -47.5q83 0 141.5 28t88.5 58v352
q-108 -16 -192 -41.5t-132.5 -80t-48.5 -158.5zM497 1122q-117 0 -199.5 70t-82.5 188q0 119 82.5 188t199.5 69q116 0 199 -70.5t83 -189.5q0 -118 -83 -186.5t-199 -68.5zM497 1227q86 0 122.5 46t36.5 108t-36.5 107t-122.5 45q-85 0 -121.5 -46t-36.5 -108t36.5 -107
t121.5 -45z" />
    <glyph glyph-name="ae" unicode="&#xe6;" horiz-adv-x="1509" 
d="M374 -24q-56 0 -120 26.5t-108.5 85.5t-44.5 155q0 94 47.5 157.5t126.5 103t173.5 61.5t188.5 34v159q0 77 -44 121.5t-121 44.5q-43 0 -84.5 -5.5l-41.5 -5.5l-126 -248q-60 0 -91.5 32.5t-31.5 83.5q0 66 63.5 118.5t161.5 83t201 30.5q84 0 146.5 -29.5t99.5 -79.5
q119 110 282 110q135 0 216.5 -49t121 -136t47.5 -202q2 -30 3.5 -61t1.5 -63h-620q1 -158 40 -252t98 -135t120 -41q76 0 139 34.5t95 98.5l6 12t13 4l50 -23q11 -4 11 -12q0 -4 -2 -8.5t-4 -7.5q-44 -88 -125 -145t-209 -57q-229 0 -341 155q-61 -75 -144 -112.5
t-194 -37.5zM823 589l396 6q0 174 -46 248.5t-123 74.5q-65 0 -114 -23t-78 -93.5t-35 -212.5zM446 90q66 0 112.5 15.5t77.5 35.5l1 382q-82 -11 -157 -38t-122 -82t-47 -151q0 -58 34.5 -110t100.5 -52z" />
    <glyph glyph-name="ccedilla" unicode="&#xe7;" horiz-adv-x="930" 
d="M512 -29q-219 0 -331 143t-112 386q0 162 62.5 277t169.5 176t240 61q86 0 166.5 -25t126.5 -102q23 -38 33 -71t10 -59q0 -45 -22.5 -70t-48.5 -25q-29 0 -48 7.5t-34 40.5l-84 187l-20.5 10.5t-63.5 10.5q-121 0 -196.5 -96t-75.5 -332q0 -156 44.5 -246.5t107 -129.5
t114.5 -39q76 0 139 34.5t95 98.5q3 6 6.5 13.5t12.5 2.5l50 -23q11 -5 11 -13q0 -4 -2 -8t-4 -7q-44 -88 -131 -145t-215 -57zM455 -488q-64 0 -111 15.5t-74 33.5q-12 8 -5 22q8 16 17 33t15 28q6 13 22 7q17 -6 46.5 -15.5t75.5 -9.5q50 0 83.5 25t33.5 68q0 37 -38 67.5
t-118 31.5l33 200h117l-36 -139q100 -10 154.5 -58t54.5 -113q0 -71 -65 -133.5t-205 -62.5z" />
    <glyph glyph-name="egrave" unicode="&#xe8;" horiz-adv-x="990" 
d="M532 -29q-229 0 -346 139.5t-117 389.5q0 167 63 281.5t166 173.5t222 59q126 0 205.5 -43.5t123 -121t61.5 -180.5q7 -38 9.5 -80t2.5 -86h-638q1 -158 42 -252t103.5 -135t128.5 -41q76 0 139 34.5t95 98.5l6 12t13 4l50 -23q11 -4 11 -12q0 -4 -2 -8.5t-4 -7.5
q-44 -88 -125 -145t-209 -57zM286 589l414 6q0 174 -52 248.5t-129 74.5q-71 0 -121 -23t-78 -93.5t-34 -212.5zM617 1096q-153 137 -255 200t-126 85q-16 15 -27.5 36t-11.5 45q0 37 29 67q32 33 72 33q25 0 47 -10.5t38 -25.5q23 -22 95 -126t195 -246z" />
    <glyph glyph-name="eacute" unicode="&#xe9;" horiz-adv-x="990" 
d="M532 -29q-229 0 -346 139.5t-117 389.5q0 167 63 281.5t166 173.5t222 59q126 0 205.5 -43.5t123 -121t61.5 -180.5q7 -38 9.5 -80t2.5 -86h-638q1 -158 42 -252t103.5 -135t128.5 -41q76 0 139 34.5t95 98.5l6 12t13 4l50 -23q11 -4 11 -12q0 -4 -2 -8.5t-4 -7.5
q-44 -88 -125 -145t-209 -57zM286 589l414 6q0 174 -52 248.5t-129 74.5q-71 0 -121 -23t-78 -93.5t-34 -212.5zM418 1094l-56 58q123 142 195 246t95 126q16 15 38 25.5t47 10.5q18 0 37 -7.5t35 -25.5q28 -31 28 -66q0 -24 -11 -45t-27 -37q-23 -23 -125.5 -85.5
t-255.5 -199.5z" />
    <glyph glyph-name="ecircumflex" unicode="&#xea;" horiz-adv-x="990" 
d="M532 -29q-229 0 -346 139.5t-117 389.5q0 167 63 281.5t166 173.5t222 59q126 0 205.5 -43.5t123 -121t61.5 -180.5q7 -38 9.5 -80t2.5 -86h-638q1 -158 42 -252t103.5 -135t128.5 -41q76 0 139 34.5t95 98.5l6 12t13 4l50 -23q11 -4 11 -12q0 -4 -2 -8.5t-4 -7.5
q-44 -88 -125 -145t-209 -57zM286 589l414 6q0 174 -52 248.5t-129 74.5q-71 0 -121 -23t-78 -93.5t-34 -212.5zM180 1110l245 388q17 21 38 36t57 15q37 0 58 -17.5t37 -42.5l245 -379h-113l-227 261l-222 -261h-118z" />
    <glyph glyph-name="edieresis" unicode="&#xeb;" horiz-adv-x="990" 
d="M532 -29q-229 0 -346 139.5t-117 389.5q0 167 63 281.5t166 173.5t222 59q126 0 205.5 -43.5t123 -121t61.5 -180.5q7 -38 9.5 -80t2.5 -86h-638q1 -158 42 -252t103.5 -135t128.5 -41q76 0 139 34.5t95 98.5l6 12t13 4l50 -23q11 -4 11 -12q0 -4 -2 -8.5t-4 -7.5
q-44 -88 -125 -145t-209 -57zM286 589l414 6q0 174 -52 248.5t-129 74.5q-71 0 -121 -23t-78 -93.5t-34 -212.5zM732 1182q-55 0 -83 38t-28 96q0 59 28 96.5t83 37.5t83 -37.5t28 -96.5q0 -58 -28 -96t-83 -38zM308 1182q-55 0 -83 38t-28 96q0 59 28 96.5t83 37.5
t83 -37.5t28 -96.5q0 -58 -28 -96t-83 -38z" />
    <glyph glyph-name="igrave" unicode="&#xec;" horiz-adv-x="600" 
d="M104 0q-17 0 -25.5 15t-8.5 26q0 33 33 37q37 5 76 18t39 46l1 636q0 62 -26 85t-61 28t-62 12q-10 5 -17 13t-7 27q0 12 6 27.5t18 16.5q100 6 181 8t124 2q8 0 18 -8t12 -32v-782q0 -43 20.5 -62.5t49 -25.5t52.5 -9q21 -2 28.5 -8t7.5 -29q0 -11 -8.5 -26t-25.5 -15
h-425zM406 1096q-153 137 -255 200t-126 85q-16 15 -27.5 36t-11.5 45q0 37 29 67q32 33 72 33q25 0 47 -10.5t38 -25.5q23 -22 95 -126t195 -246z" />
    <glyph glyph-name="iacute" unicode="&#xed;" horiz-adv-x="600" 
d="M104 0q-17 0 -25.5 15t-8.5 26q0 33 33 37q37 5 76 18t39 46l1 636q0 62 -26 85t-61 28t-62 12q-10 5 -17 13t-7 27q0 12 6 27.5t18 16.5q100 6 181 8t124 2q8 0 18 -8t12 -32v-782q0 -43 20.5 -62.5t49 -25.5t52.5 -9q21 -2 28.5 -8t7.5 -29q0 -11 -8.5 -26t-25.5 -15
h-425zM207 1094l-56 58q123 142 195 246t95 126q16 15 38 25.5t47 10.5q18 0 37 -7.5t35 -25.5q28 -31 28 -66q0 -24 -11 -45t-27 -37q-23 -23 -125.5 -85.5t-255.5 -199.5z" />
    <glyph glyph-name="icircumflex" unicode="&#xee;" horiz-adv-x="600" 
d="M104 0q-17 0 -25.5 15t-8.5 26q0 33 33 37q37 5 76 18t39 46l1 636q0 62 -26 85t-61 28t-62 12q-10 5 -17 13t-7 27q0 12 6 27.5t18 16.5q100 6 181 8t124 2q8 0 18 -8t12 -32v-782q0 -43 20.5 -62.5t49 -25.5t52.5 -9q21 -2 28.5 -8t7.5 -29q0 -11 -8.5 -26t-25.5 -15
h-425zM-31 1110l245 388q17 21 38 36t57 15q37 0 58 -17.5t37 -42.5l245 -379h-113l-227 261l-222 -261h-118z" />
    <glyph glyph-name="idieresis" unicode="&#xef;" horiz-adv-x="600" 
d="M104 0q-17 0 -25.5 15t-8.5 26q0 33 33 37q37 5 76 18t39 46l1 636q0 62 -26 85t-61 28t-62 12q-10 5 -17 13t-7 27q0 12 6 27.5t18 16.5q100 6 181 8t124 2q8 0 18 -8t12 -32v-782q0 -43 20.5 -62.5t49 -25.5t52.5 -9q21 -2 28.5 -8t7.5 -29q0 -11 -8.5 -26t-25.5 -15
h-425zM521 1182q-55 0 -83 38t-28 96q0 59 28 96.5t83 37.5t83 -37.5t28 -96.5q0 -58 -28 -96t-83 -38zM97 1182q-55 0 -83 38t-28 96q0 59 28 96.5t83 37.5t83 -37.5t28 -96.5q0 -58 -28 -96t-83 -38z" />
    <glyph glyph-name="eth" unicode="&#xf0;" horiz-adv-x="1089" 
d="M70 460q0 146 54.5 264t156 187t240.5 69q38 0 87 -11t94 -31.5t69 -48.5q-17 87 -59.5 172t-96.5 158.5t-106 124.5l-200 -160q-8 -6 -18.5 2.5t-15.5 17.5q-13 24 -13 43q0 8 3 14l176 140q-49 34 -105.5 57t-122.5 33q-7 1 -11 14.5t-4 29.5q0 15 3 27q11 40 29 40
q89 -7 174 -39.5t154 -73.5l180 141q5 4 11 4q12 0 21 -16q15 -27 15 -53q0 -6 -2 -12l-150 -115q125 -114 206.5 -257.5t121.5 -292t40 -277.5q0 -172 -49 -315.5t-151 -229.5t-263 -86q-141 0 -246 61.5t-163.5 170t-58.5 248.5zM281 462q0 -183 68 -285t186 -102
q84 0 134 41t74 112.5t31.5 163.5t7.5 193v5q0 102 -20 166.5t-73.5 95t-154.5 28.5q-93 -1 -148.5 -64.5t-80 -159t-24.5 -194.5z" />
    <glyph glyph-name="ntilde" unicode="&#xf1;" horiz-adv-x="1210" 
d="M103 0q-17 0 -25.5 15t-8.5 26q0 33 33 37q37 5 76.5 18t39.5 46v636q0 62 -27 85t-62 28t-60 12q-10 5 -17 13t-7 27q0 12 6 28t18 17q97 6 175.5 7.5t119.5 1.5q8 0 18 -8t12 -32v-112q18 18 73.5 58.5t136.5 75.5t175 35q65 0 119.5 -18.5t87.5 -72t33 -157.5v-591
q0 -48 24 -67t56 -22.5t57 -7.5q17 -2 25 -8.5t8 -28.5q0 -11 -8.5 -26t-25.5 -15h-427q-17 0 -25.5 15t-8.5 26q0 16 6 26t25 11q32 2 69 19t37 45v653q0 17 -7.5 41t-35 42t-86.5 18q-62 0 -120 -20.5t-104 -49.5t-74 -55v-596q0 -64 37.5 -78.5t74.5 -18.5q21 -2 28.5 -8
t7.5 -29q0 -11 -8.5 -26t-25.5 -15h-415zM723 1117q-39 0 -72 20t-63 46.5t-57.5 46.5t-55.5 20q-31 0 -54 -24t-39 -48.5t-27 -24.5q-16 0 -31.5 19.5t-15.5 43.5q0 29 29 73.5t77.5 80t108.5 35.5q32 0 62.5 -20t61 -46.5t61 -46.5t63.5 -20q32 0 55 24.5t39 48.5t26 24
q17 0 33.5 -19.5t16.5 -43.5q0 -28 -29.5 -73t-79 -80.5t-109.5 -35.5z" />
    <glyph glyph-name="ograve" unicode="&#xf2;" horiz-adv-x="1104" 
d="M77 492q0 144 57.5 262.5t165 189t257.5 70.5t255 -70.5t160 -189t55 -262.5t-56.5 -262t-163.5 -188.5t-257 -70.5t-255.5 70.5t-161.5 188.5t-56 262zM292 492q0 -201 55 -313.5t206 -112.5t204 112.5t53 313.5t-55 313.5t-206 112.5t-204 -113t-53 -313zM642 1096
q-153 137 -255 200t-126 85q-16 15 -27.5 36t-11.5 45q0 37 29 67q32 33 72 33q25 0 47 -10.5t38 -25.5q23 -22 95 -126t195 -246z" />
    <glyph glyph-name="oacute" unicode="&#xf3;" horiz-adv-x="1104" 
d="M77 492q0 144 57.5 262.5t165 189t257.5 70.5t255 -70.5t160 -189t55 -262.5t-56.5 -262t-163.5 -188.5t-257 -70.5t-255.5 70.5t-161.5 188.5t-56 262zM292 492q0 -201 55 -313.5t206 -112.5t204 112.5t53 313.5t-55 313.5t-206 112.5t-204 -113t-53 -313zM443 1094
l-56 58q123 142 195 246t95 126q16 15 38 25.5t47 10.5q18 0 37 -7.5t35 -25.5q28 -31 28 -66q0 -24 -11 -45t-27 -37q-23 -23 -125.5 -85.5t-255.5 -199.5z" />
    <glyph glyph-name="ocircumflex" unicode="&#xf4;" horiz-adv-x="1104" 
d="M77 492q0 144 57.5 262.5t165 189t257.5 70.5t255 -70.5t160 -189t55 -262.5t-56.5 -262t-163.5 -188.5t-257 -70.5t-255.5 70.5t-161.5 188.5t-56 262zM292 492q0 -201 55 -313.5t206 -112.5t204 112.5t53 313.5t-55 313.5t-206 112.5t-204 -113t-53 -313zM205 1110
l245 388q17 21 38 36t57 15q37 0 58 -17.5t37 -42.5l245 -379h-113l-227 261l-222 -261h-118z" />
    <glyph glyph-name="otilde" unicode="&#xf5;" horiz-adv-x="1104" 
d="M77 492q0 144 57.5 262.5t165 189t257.5 70.5t255 -70.5t160 -189t55 -262.5t-56.5 -262t-163.5 -188.5t-257 -70.5t-255.5 70.5t-161.5 188.5t-56 262zM292 492q0 -201 55 -313.5t206 -112.5t204 112.5t53 313.5t-55 313.5t-206 112.5t-204 -113t-53 -313zM646 1117
q-39 0 -72 20t-63 46.5t-57.5 46.5t-55.5 20q-31 0 -54 -24t-39 -48.5t-27 -24.5q-16 0 -31.5 19.5t-15.5 43.5q0 29 29 73.5t77.5 80t108.5 35.5q32 0 62.5 -20t61 -46.5t61 -46.5t63.5 -20q32 0 55 24.5t39 48.5t26 24q17 0 33.5 -19.5t16.5 -43.5q0 -28 -29.5 -73
t-79 -80.5t-109.5 -35.5z" />
    <glyph glyph-name="odieresis" unicode="&#xf6;" horiz-adv-x="1104" 
d="M77 492q0 144 57.5 262.5t165 189t257.5 70.5t255 -70.5t160 -189t55 -262.5t-56.5 -262t-163.5 -188.5t-257 -70.5t-255.5 70.5t-161.5 188.5t-56 262zM292 492q0 -201 55 -313.5t206 -112.5t204 112.5t53 313.5t-55 313.5t-206 112.5t-204 -113t-53 -313zM757 1182
q-55 0 -83 38t-28 96q0 59 28 96.5t83 37.5t83 -37.5t28 -96.5q0 -58 -28 -96t-83 -38zM333 1182q-55 0 -83 38t-28 96q0 59 28 96.5t83 37.5t83 -37.5t28 -96.5q0 -58 -28 -96t-83 -38z" />
    <glyph glyph-name="divide" unicode="&#xf7;" horiz-adv-x="1317" 
d="M580 959q0 56 40.5 95.5t99.5 39.5t100 -39.5t41 -95.5t-41 -99t-100 -43t-99.5 43t-40.5 99zM261 496v126h927v-126h-927zM580 166q0 56 40.5 95.5t99.5 39.5t100 -39.5t41 -95.5t-41 -99t-100 -43t-99.5 43t-40.5 99z" />
    <glyph glyph-name="oslash" unicode="&#xf8;" horiz-adv-x="1104" 
d="M77 492q0 144 57.5 262.5t165 189t257.5 70.5t255 -70.5t160 -189t55 -262.5t-56.5 -262t-163.5 -188.5t-257 -70.5t-255.5 70.5t-161.5 188.5t-56 262zM292 492q0 -201 55 -313.5t206 -112.5t204 112.5t53 313.5t-55 313.5t-206 112.5t-204 -113t-53 -313zM813 1109
q6 9 20 9q12 0 22 -6q16 -9 29.5 -25.5t11.5 -27.5l-630 -1181q-6 -7 -17 -7q-18 0 -32 9q-36 23 -33 48z" />
    <glyph glyph-name="ugrave" unicode="&#xf9;" horiz-adv-x="1178" 
d="M489 -27q-72 0 -137.5 22.5t-107 86.5t-41.5 188v549q0 43 -19.5 62.5t-46.5 26t-52 8.5q-21 2 -28.5 8.5t-7.5 28.5q0 11 9 26t25 15h271q37 0 37 -36v-697q0 -24 7.5 -59t35 -62t86.5 -27q101 0 163.5 27.5t111.5 79.5v599q0 43 -24 62t-59 25.5t-69 9.5
q-21 2 -28.5 8.5t-7.5 28.5q0 11 9 26t25 15h303q37 0 37 -36v-748q0 -73 12.5 -97.5t28.5 -24.5q14 0 24.5 2t22.5 6q17 5 28.5 -11.5t11.5 -31.5q0 -11 -6 -16q-10 -11 -60.5 -36.5t-131.5 -25.5q-49 0 -78.5 36.5t-37.5 119.5q-17 -32 -64.5 -69t-111 -63t-130.5 -26z
M678 1096q-153 137 -255 200t-126 85q-16 15 -27.5 36t-11.5 45q0 37 29 67q32 33 72 33q25 0 47 -10.5t38 -25.5q23 -22 95 -126t195 -246z" />
    <glyph glyph-name="uacute" unicode="&#xfa;" horiz-adv-x="1178" 
d="M489 -27q-72 0 -137.5 22.5t-107 86.5t-41.5 188v549q0 43 -19.5 62.5t-46.5 26t-52 8.5q-21 2 -28.5 8.5t-7.5 28.5q0 11 9 26t25 15h271q37 0 37 -36v-697q0 -24 7.5 -59t35 -62t86.5 -27q101 0 163.5 27.5t111.5 79.5v599q0 43 -24 62t-59 25.5t-69 9.5
q-21 2 -28.5 8.5t-7.5 28.5q0 11 9 26t25 15h303q37 0 37 -36v-748q0 -73 12.5 -97.5t28.5 -24.5q14 0 24.5 2t22.5 6q17 5 28.5 -11.5t11.5 -31.5q0 -11 -6 -16q-10 -11 -60.5 -36.5t-131.5 -25.5q-49 0 -78.5 36.5t-37.5 119.5q-17 -32 -64.5 -69t-111 -63t-130.5 -26z
M479 1094l-56 58q123 142 195 246t95 126q16 15 38 25.5t47 10.5q18 0 37 -7.5t35 -25.5q28 -31 28 -66q0 -24 -11 -45t-27 -37q-23 -23 -125.5 -85.5t-255.5 -199.5z" />
    <glyph glyph-name="ucircumflex" unicode="&#xfb;" horiz-adv-x="1178" 
d="M489 -27q-72 0 -137.5 22.5t-107 86.5t-41.5 188v549q0 43 -19.5 62.5t-46.5 26t-52 8.5q-21 2 -28.5 8.5t-7.5 28.5q0 11 9 26t25 15h271q37 0 37 -36v-697q0 -24 7.5 -59t35 -62t86.5 -27q101 0 163.5 27.5t111.5 79.5v599q0 43 -24 62t-59 25.5t-69 9.5
q-21 2 -28.5 8.5t-7.5 28.5q0 11 9 26t25 15h303q37 0 37 -36v-748q0 -73 12.5 -97.5t28.5 -24.5q14 0 24.5 2t22.5 6q17 5 28.5 -11.5t11.5 -31.5q0 -11 -6 -16q-10 -11 -60.5 -36.5t-131.5 -25.5q-49 0 -78.5 36.5t-37.5 119.5q-17 -32 -64.5 -69t-111 -63t-130.5 -26z
M241 1110l245 388q17 21 38 36t57 15q37 0 58 -17.5t37 -42.5l245 -379h-113l-227 261l-222 -261h-118z" />
    <glyph glyph-name="udieresis" unicode="&#xfc;" horiz-adv-x="1178" 
d="M489 -27q-72 0 -137.5 22.5t-107 86.5t-41.5 188v549q0 43 -19.5 62.5t-46.5 26t-52 8.5q-21 2 -28.5 8.5t-7.5 28.5q0 11 9 26t25 15h271q37 0 37 -36v-697q0 -24 7.5 -59t35 -62t86.5 -27q101 0 163.5 27.5t111.5 79.5v599q0 43 -24 62t-59 25.5t-69 9.5
q-21 2 -28.5 8.5t-7.5 28.5q0 11 9 26t25 15h303q37 0 37 -36v-748q0 -73 12.5 -97.5t28.5 -24.5q14 0 24.5 2t22.5 6q17 5 28.5 -11.5t11.5 -31.5q0 -11 -6 -16q-10 -11 -60.5 -36.5t-131.5 -25.5q-49 0 -78.5 36.5t-37.5 119.5q-17 -32 -64.5 -69t-111 -63t-130.5 -26z
M793 1182q-55 0 -83 38t-28 96q0 59 28 96.5t83 37.5t83 -37.5t28 -96.5q0 -58 -28 -96t-83 -38zM369 1182q-55 0 -83 38t-28 96q0 59 28 96.5t83 37.5t83 -37.5t28 -96.5q0 -58 -28 -96t-83 -38z" />
    <glyph glyph-name="yacute" unicode="&#xfd;" horiz-adv-x="1008" 
d="M246 -449q-71 0 -123.5 35.5t-52.5 87.5q0 68 32 95t54 27l124 -122q26 5 55.5 30.5t64.5 88.5t77 179l-338 857q-30 50 -57.5 66.5t-64.5 20.5q-21 2 -28.5 8.5t-7.5 28.5q0 11 8.5 26t24.5 15h413q17 0 25.5 -15t8.5 -26q0 -33 -33 -37q-37 -4 -71.5 -12.5t-34.5 -41.5
l244 -663l220 663q0 33 -39.5 41.5t-76.5 12.5q-33 4 -33 37q0 11 8.5 26t25.5 15h335q17 0 25.5 -15t8.5 -26q0 -22 -7.5 -28.5t-28.5 -8.5q-37 -4 -59.5 -20.5t-52.5 -66.5l-303 -838q-21 -58 -51 -133t-71 -145.5t-95.5 -116t-125.5 -45.5zM407 1094l-56 58
q123 142 195 246t95 126q16 15 38 25.5t47 10.5q18 0 37 -7.5t35 -25.5q28 -31 28 -66q0 -24 -11 -45t-27 -37q-23 -23 -125.5 -85.5t-255.5 -199.5z" />
    <glyph glyph-name="thorn" unicode="&#xfe;" horiz-adv-x="1145" 
d="M31 -444q-16 0 -25 15t-9 26q0 23 7.5 29t28.5 8q25 3 53 9t48.5 25.5t20.5 62.5v1608q0 62 -28.5 85t-66 28t-64.5 12q-10 5 -17 13t-7 27q0 12 6 28t18 17q100 6 186 7.5t129 1.5q8 0 18 -8t12 -32v-414l-10 -229q51 62 135 100t159 38q154 0 248 -74t137 -193t43 -254
q0 -134 -48 -253.5t-147.5 -194t-254.5 -74.5q-78 0 -147 15.5t-115 55.5v-343q0 -33 53.5 -46.5t112.5 -17.5q33 -4 33 -37q0 -11 -8.5 -26t-25.5 -15h-475zM566 65q108 0 167 57t82.5 153.5t23.5 216.5t-24.5 216.5t-84.5 153t-168 56.5q-58 0 -123 -33t-98 -77v-638
q56 -105 225 -105z" />
    <glyph glyph-name="ydieresis" unicode="&#xff;" horiz-adv-x="1008" 
d="M246 -449q-71 0 -123.5 35.5t-52.5 87.5q0 68 32 95t54 27l124 -122q26 5 55.5 30.5t64.5 88.5t77 179l-338 857q-30 50 -57.5 66.5t-64.5 20.5q-21 2 -28.5 8.5t-7.5 28.5q0 11 8.5 26t24.5 15h413q17 0 25.5 -15t8.5 -26q0 -33 -33 -37q-37 -4 -71.5 -12.5t-34.5 -41.5
l244 -663l220 663q0 33 -39.5 41.5t-76.5 12.5q-33 4 -33 37q0 11 8.5 26t25.5 15h335q17 0 25.5 -15t8.5 -26q0 -22 -7.5 -28.5t-28.5 -8.5q-37 -4 -59.5 -20.5t-52.5 -66.5l-303 -838q-21 -58 -51 -133t-71 -145.5t-95.5 -116t-125.5 -45.5zM721 1182q-55 0 -83 38t-28 96
q0 59 28 96.5t83 37.5t83 -37.5t28 -96.5q0 -58 -28 -96t-83 -38zM297 1182q-55 0 -83 38t-28 96q0 59 28 96.5t83 37.5t83 -37.5t28 -96.5q0 -58 -28 -96t-83 -38z" />
    <glyph glyph-name="Amacron" unicode="&#x100;" horiz-adv-x="1374" 
d="M7 0q-16 0 -25 15.5t-9 35.5q0 23 7.5 29t28.5 8q25 3 54.5 3.5t56 15t42.5 58.5l458 1276h160l445 -1276q16 -44 42 -58.5t55.5 -15t53.5 -3.5q21 -2 28.5 -8t7.5 -29q0 -11 -8.5 -31t-25.5 -20h-501q-17 0 -25.5 20t-8.5 31q0 33 33 37q61 3 99 5t38 25q0 7 -3 14
l-121 362h-480l-122 -362q-2 -5 -2 -12q0 -25 42.5 -26.5t103.5 -5.5q33 -4 33 -37q0 -11 -8.5 -31t-25.5 -20h-423zM659 1187l-219 -607h421zM388 1607v141h588v-141h-588z" />
    <glyph glyph-name="amacron" unicode="&#x101;" horiz-adv-x="1032" 
d="M97 243q0 99 52.5 163.5t138.5 103t189 59t203 30.5v154q0 37 -18.5 76.5t-63 67t-124.5 27.5q-43 0 -64 -5.5t-34 -11.5l-120 -242q-56 0 -101.5 25.5t-45.5 90.5q0 60 50 113t142 86.5t217 33.5q113 0 182.5 -28t106 -75t49.5 -104.5t13 -117.5v-488q0 -39 11 -73
t27 -34q14 0 24.5 1.5t28.5 6.5q17 5 28.5 -11.5t11.5 -31.5q0 -11 -6 -16q-26 -19 -78 -40.5t-114 -21.5q-52 0 -78 22t-26 96v20q-65 -68 -140.5 -104t-180.5 -36q-60 0 -125 26t-110 84t-45 154zM306 248q0 -63 38.5 -110.5t104.5 -47.5q83 0 141.5 28t88.5 58v352
q-108 -16 -192 -41.5t-132.5 -80t-48.5 -158.5zM203 1156v141h588v-141h-588z" />
    <glyph glyph-name="Abreve" unicode="&#x102;" horiz-adv-x="1374" 
d="M7 0q-16 0 -25 15.5t-9 35.5q0 23 7.5 29t28.5 8q25 3 54.5 3.5t56 15t42.5 58.5l458 1276h160l445 -1276q16 -44 42 -58.5t55.5 -15t53.5 -3.5q21 -2 28.5 -8t7.5 -29q0 -11 -8.5 -31t-25.5 -20h-501q-17 0 -25.5 20t-8.5 31q0 33 33 37q61 3 99 5t38 25q0 7 -3 14
l-121 362h-480l-122 -362q-2 -5 -2 -12q0 -25 42.5 -26.5t103.5 -5.5q33 -4 33 -37q0 -11 -8.5 -31t-25.5 -20h-423zM659 1187l-219 -607h421zM682 1599q-44 0 -100 13.5t-108 51t-87 109.5t-38 189h113q3 -49 28 -98.5t72.5 -83t119.5 -33.5t120 33.5t72.5 83t27.5 98.5
h113q-3 -117 -38 -189t-87 -109.5t-108 -51t-100 -13.5z" />
    <glyph glyph-name="abreve" unicode="&#x103;" horiz-adv-x="1032" 
d="M97 243q0 99 52.5 163.5t138.5 103t189 59t203 30.5v154q0 37 -18.5 76.5t-63 67t-124.5 27.5q-43 0 -64 -5.5t-34 -11.5l-120 -242q-56 0 -101.5 25.5t-45.5 90.5q0 60 50 113t142 86.5t217 33.5q113 0 182.5 -28t106 -75t49.5 -104.5t13 -117.5v-488q0 -39 11 -73
t27 -34q14 0 24.5 1.5t28.5 6.5q17 5 28.5 -11.5t11.5 -31.5q0 -11 -6 -16q-26 -19 -78 -40.5t-114 -21.5q-52 0 -78 22t-26 96v20q-65 -68 -140.5 -104t-180.5 -36q-60 0 -125 26t-110 84t-45 154zM306 248q0 -63 38.5 -110.5t104.5 -47.5q83 0 141.5 28t88.5 58v352
q-108 -16 -192 -41.5t-132.5 -80t-48.5 -158.5zM497 1184q-44 0 -100 13.5t-108 51t-87 109.5t-38 189h113q3 -49 28 -98.5t72.5 -83t119.5 -33.5t120 33.5t72.5 83t27.5 98.5h113q-3 -117 -38 -189t-87 -109.5t-108 -51t-100 -13.5z" />
    <glyph glyph-name="Aogonek" unicode="&#x104;" horiz-adv-x="1374" 
d="M7 0q-16 0 -25 15.5t-9 35.5q0 23 7.5 29t28.5 8q25 3 54.5 3.5t56 15t42.5 58.5l458 1276h160l445 -1276q16 -44 42 -58.5t55.5 -15t53.5 -3.5q21 -2 28.5 -8t7.5 -29q0 -11 -8.5 -31t-25.5 -20h-501q-17 0 -25.5 20t-8.5 31q0 33 33 37q61 3 99 5t38 25q0 7 -3 14
l-121 362h-480l-122 -362q-2 -5 -2 -12q0 -25 42.5 -26.5t103.5 -5.5q33 -4 33 -37q0 -11 -8.5 -31t-25.5 -20h-423zM659 1187l-219 -607h421zM1218 80l22 -50q-211 -102 -211 -235q0 -58 30 -98t108 -40q27 0 47.5 4.5t54.5 21.5q8 4 14.5 -8t6.5 -35q0 -31 -24 -49
q-32 -25 -80.5 -41t-104.5 -16q-118 0 -175.5 61t-57.5 129q0 98 80 176t233 119z" />
    <glyph glyph-name="aogonek" unicode="&#x105;" horiz-adv-x="1032" 
d="M97 243q0 99 52.5 163.5t138.5 103t189 59t203 30.5v154q0 37 -18.5 76.5t-63 67t-124.5 27.5q-43 0 -64 -5.5t-34 -11.5l-120 -242q-56 0 -101.5 25.5t-45.5 90.5q0 60 50 113t142 86.5t217 33.5q113 0 182.5 -28t106 -75t49.5 -104.5t13 -117.5v-488q0 -39 11 -73
t27 -34q14 0 24.5 1.5t28.5 6.5q17 5 28.5 -11.5t11.5 -31.5q0 -11 -6 -16q-26 -19 -78 -40.5t-114 -21.5q-52 0 -78 22t-26 96v20q-65 -68 -140.5 -104t-180.5 -36q-60 0 -125 26t-110 84t-45 154zM306 248q0 -63 38.5 -110.5t104.5 -47.5q83 0 141.5 28t88.5 58v352
q-108 -16 -192 -41.5t-132.5 -80t-48.5 -158.5zM892 80l22 -50q-211 -102 -211 -235q0 -58 30 -98t108 -40q27 0 47.5 4.5t54.5 21.5q8 4 14.5 -8t6.5 -35q0 -31 -24 -49q-32 -25 -80.5 -41t-104.5 -16q-118 0 -175.5 61t-57.5 129q0 98 80 176t233 119z" />
    <glyph glyph-name="Cacute" unicode="&#x106;" horiz-adv-x="1315" 
d="M752 -30q-120 0 -241.5 36.5t-222.5 120.5t-162 226t-61 353q0 198 62.5 339.5t162.5 230.5t216.5 131t224.5 42q133 0 221.5 -15.5t145 -36t91.5 -36.5l22 -313q2 -17 -16 -28.5t-30 -11.5q-3 0 -5.5 -0.5t-5.5 -0.5q-31 0 -35 29q-23 84 -70.5 156.5t-125.5 116.5
t-194 44q-64 0 -135 -20.5t-132.5 -84.5t-100.5 -193.5t-39 -348.5q0 -208 43.5 -335t111 -193.5t141 -89.5t133.5 -23q114 0 187.5 43.5t115.5 116t58 158.5q6 33 37 33q12 0 36.5 -8.5t24.5 -25.5l-32 -274q-1 -14 -56 -47.5t-150.5 -62t-219.5 -28.5zM656 1526l-56 58
q123 142 195 246t95 126q16 15 38 25.5t47 10.5q40 0 72 -33q28 -31 28 -66q0 -24 -11 -45t-27 -37q-23 -22 -125.5 -85t-255.5 -200z" />
    <glyph glyph-name="cacute" unicode="&#x107;" horiz-adv-x="930" 
d="M512 -29q-219 0 -331 143t-112 386q0 162 62.5 277t169.5 176t240 61q86 0 166.5 -25t126.5 -102q23 -38 33 -71t10 -59q0 -45 -22.5 -70t-48.5 -25q-29 0 -48 7.5t-34 40.5l-84 187l-20.5 10.5t-63.5 10.5q-121 0 -196.5 -96t-75.5 -332q0 -156 44.5 -246.5t107 -129.5
t114.5 -39q76 0 139 34.5t95 98.5q3 6 6.5 13.5t12.5 2.5l50 -23q11 -5 11 -13q0 -4 -2 -8t-4 -7q-44 -88 -131 -145t-215 -57zM441 1094l-56 58q123 142 195 246t95 126q16 15 38 25.5t47 10.5q18 0 37 -7.5t35 -25.5q28 -31 28 -66q0 -24 -11 -45t-27 -37
q-23 -23 -125.5 -85.5t-255.5 -199.5z" />
    <glyph glyph-name="Ccircumflex" unicode="&#x108;" horiz-adv-x="1315" 
d="M752 -30q-120 0 -241.5 36.5t-222.5 120.5t-162 226t-61 353q0 198 62.5 339.5t162.5 230.5t216.5 131t224.5 42q133 0 221.5 -15.5t145 -36t91.5 -36.5l22 -313q2 -17 -16 -28.5t-30 -11.5q-3 0 -5.5 -0.5t-5.5 -0.5q-31 0 -35 29q-23 84 -70.5 156.5t-125.5 116.5
t-194 44q-64 0 -135 -20.5t-132.5 -84.5t-100.5 -193.5t-39 -348.5q0 -208 43.5 -335t111 -193.5t141 -89.5t133.5 -23q114 0 187.5 43.5t115.5 116t58 158.5q6 33 37 33q12 0 36.5 -8.5t24.5 -25.5l-32 -274q-1 -14 -56 -47.5t-150.5 -62t-219.5 -28.5zM412 1545l245 348
q17 21 38 36t57 15q37 0 58 -17.5t37 -42.5l245 -339h-113l-227 221l-222 -221h-118z" />
    <glyph glyph-name="ccircumflex" unicode="&#x109;" horiz-adv-x="930" 
d="M512 -29q-219 0 -331 143t-112 386q0 162 62.5 277t169.5 176t240 61q86 0 166.5 -25t126.5 -102q23 -38 33 -71t10 -59q0 -45 -22.5 -70t-48.5 -25q-29 0 -48 7.5t-34 40.5l-84 187l-20.5 10.5t-63.5 10.5q-121 0 -196.5 -96t-75.5 -332q0 -156 44.5 -246.5t107 -129.5
t114.5 -39q76 0 139 34.5t95 98.5q3 6 6.5 13.5t12.5 2.5l50 -23q11 -5 11 -13q0 -4 -2 -8t-4 -7q-44 -88 -131 -145t-215 -57zM203 1110l245 388q17 21 38 36t57 15q37 0 58 -17.5t37 -42.5l245 -379h-113l-227 261l-222 -261h-118z" />
    <glyph glyph-name="Cdotaccent" unicode="&#x10a;" horiz-adv-x="1315" 
d="M752 -30q-120 0 -241.5 36.5t-222.5 120.5t-162 226t-61 353q0 198 62.5 339.5t162.5 230.5t216.5 131t224.5 42q133 0 221.5 -15.5t145 -36t91.5 -36.5l22 -313q2 -17 -16 -28.5t-30 -11.5q-3 0 -5.5 -0.5t-5.5 -0.5q-31 0 -35 29q-23 84 -70.5 156.5t-125.5 116.5
t-194 44q-64 0 -135 -20.5t-132.5 -84.5t-100.5 -193.5t-39 -348.5q0 -208 43.5 -335t111 -193.5t141 -89.5t133.5 -23q114 0 187.5 43.5t115.5 116t58 158.5q6 33 37 33q12 0 36.5 -8.5t24.5 -25.5l-32 -274q-1 -14 -56 -47.5t-150.5 -62t-219.5 -28.5zM752 1546
q-55 0 -88 40.5t-33 98.5q0 59 33 99t88 40t88 -40t33 -99q0 -58 -33 -98.5t-88 -40.5z" />
    <glyph glyph-name="cdotaccent" unicode="&#x10b;" horiz-adv-x="930" 
d="M512 -29q-219 0 -331 143t-112 386q0 162 62.5 277t169.5 176t240 61q86 0 166.5 -25t126.5 -102q23 -38 33 -71t10 -59q0 -45 -22.5 -70t-48.5 -25q-29 0 -48 7.5t-34 40.5l-84 187l-20.5 10.5t-63.5 10.5q-121 0 -196.5 -96t-75.5 -332q0 -156 44.5 -246.5t107 -129.5
t114.5 -39q76 0 139 34.5t95 98.5q3 6 6.5 13.5t12.5 2.5l50 -23q11 -5 11 -13q0 -4 -2 -8t-4 -7q-44 -88 -131 -145t-215 -57zM543 1173q-55 0 -88 40.5t-33 98.5q0 59 33 99t88 40t88 -40t33 -99q0 -58 -33 -98.5t-88 -40.5z" />
    <glyph glyph-name="Ccaron" unicode="&#x10c;" horiz-adv-x="1315" 
d="M752 -30q-120 0 -241.5 36.5t-222.5 120.5t-162 226t-61 353q0 198 62.5 339.5t162.5 230.5t216.5 131t224.5 42q133 0 221.5 -15.5t145 -36t91.5 -36.5l22 -313q2 -17 -16 -28.5t-30 -11.5q-3 0 -5.5 -0.5t-5.5 -0.5q-31 0 -35 29q-23 84 -70.5 156.5t-125.5 116.5
t-194 44q-64 0 -135 -20.5t-132.5 -84.5t-100.5 -193.5t-39 -348.5q0 -208 43.5 -335t111 -193.5t141 -89.5t133.5 -23q114 0 187.5 43.5t115.5 116t58 158.5q6 33 37 33q12 0 36.5 -8.5t24.5 -25.5l-32 -274q-1 -14 -56 -47.5t-150.5 -62t-219.5 -28.5zM752 1555
q-36 0 -57 15t-38 36l-245 348h118l222 -221l227 221h113l-245 -339q-16 -25 -37 -42.5t-58 -17.5z" />
    <glyph glyph-name="ccaron" unicode="&#x10d;" horiz-adv-x="930" 
d="M512 -29q-219 0 -331 143t-112 386q0 162 62.5 277t169.5 176t240 61q86 0 166.5 -25t126.5 -102q23 -38 33 -71t10 -59q0 -45 -22.5 -70t-48.5 -25q-29 0 -48 7.5t-34 40.5l-84 187l-20.5 10.5t-63.5 10.5q-121 0 -196.5 -96t-75.5 -332q0 -156 44.5 -246.5t107 -129.5
t114.5 -39q76 0 139 34.5t95 98.5q3 6 6.5 13.5t12.5 2.5l50 -23q11 -5 11 -13q0 -4 -2 -8t-4 -7q-44 -88 -131 -145t-215 -57zM542 1111q-36 0 -56.5 14.5t-37.5 35.5l-245 358h118l222 -231l227 231h113l-248 -358q-16 -18 -36 -34t-57 -16z" />
    <glyph glyph-name="Dcaron" unicode="&#x10e;" horiz-adv-x="1534" 
d="M140 0q-17 0 -25.5 20t-8.5 31q0 33 33 37q48 4 96.5 17.5t48.5 46.5v1082q0 43 -25.5 62t-60.5 25.5t-66 9.5q-21 2 -28.5 8.5t-7.5 28.5q0 11 8.5 31t25.5 20h596q204 -1 344 -58t225 -154t123 -218.5t38 -250.5q0 -195 -62.5 -335t-164 -229t-220 -131.5t-231.5 -42.5
h-638zM496 168q0 -14 16 -29.5t60.5 -26.5t131.5 -11q91 0 181 19.5t163.5 82t117.5 189.5t44 342q0 186 -47 301.5t-123.5 178t-167.5 85.5t-178 23h-197zM766 1555q-36 0 -57 15t-38 36l-245 348h118l222 -221l227 221h113l-245 -339q-16 -25 -37 -42.5t-58 -17.5z" />
    <glyph glyph-name="dcaron" unicode="&#x10f;" horiz-adv-x="1362" 
d="M525 -29q-157 0 -252.5 74t-138 193t-42.5 254t48 254t148.5 193.5t258.5 74.5q82 0 154 -17.5t118 -62.5l-10 170v235q0 47 -21.5 70.5t-53 33t-63 13t-51.5 8.5q-10 5 -17 13t-7 27q0 12 6 28t18 17q67 4 135.5 6t125 2.5t84.5 0.5q8 0 18 -8t12 -32v-1343
q0 -64 37.5 -78.5t74.5 -18.5q21 -2 28.5 -8t7.5 -29q0 -11 -8.5 -26t-25.5 -15h-224q-56 0 -66.5 25t-9.5 72q-52 -57 -132.5 -91.5t-151.5 -34.5zM588 66q58 0 123 33t98 77v638q-56 105 -225 105q-111 0 -171.5 -56t-83.5 -152.5t-23 -218.5q0 -119 24 -216t85 -153.5
t173 -56.5zM1174 1026l-55 40q40 63 57 108.5t18 85.5q1 72 -56 120q-43 36 -43 90q0 41 32 73t75 32q46 0 76.5 -26.5t46 -66t15.5 -78.5q0 -116 -53 -208.5t-113 -169.5z" />
    <glyph glyph-name="Dcroat" unicode="&#x110;" horiz-adv-x="1534" 
d="M139 0q-17 0 -25.5 20t-8.5 31q0 33 33 37q48 4 96.5 17.5t48.5 46.5v542h-135q-12 1 -18 11.5t-6 22.5q0 43 24 53h135v453q0 43 -25.5 62t-60.5 25.5t-66 9.5q-21 2 -28.5 8.5t-7.5 28.5q0 11 8.5 31t25.5 20h596q204 -1 344 -58t225 -154t123 -218.5t38 -250.5
q0 -195 -62.5 -335t-164 -229t-220 -131.5t-231.5 -42.5h-638zM495 168q0 -14 16 -29.5t60.5 -26.5t131.5 -11q91 0 181 19.5t163.5 82t117.5 189.5t44 342q0 186 -47 301.5t-123.5 178t-167.5 85.5t-178 23h-197v-541h291q12 -1 18 -11.5t6 -22.5q0 -43 -24 -53h-292v-526z
" />
    <glyph glyph-name="dcroat" unicode="&#x111;" horiz-adv-x="1176" 
d="M517 -29q-157 0 -252.5 74t-138 193t-42.5 254t48 254t148.5 193.5t258.5 74.5q82 0 154 -17.5t118 -62.5l-10 170v87h-272q-12 1 -18 11.5t-6 22.5q0 19 7 39t17 24h272v51q0 47 -21.5 70.5t-53 33t-63 13t-51.5 8.5q-10 5 -17 13t-7 27q0 12 6 28t18 17q67 4 135.5 6
t125 2.5t84.5 0.5q8 0 18 -8t12 -32v-230h143q12 -1 18 -16.5t6 -27.5q0 -43 -24 -53h-143v-1016q0 -64 37.5 -78.5t74.5 -18.5q21 -2 28.5 -8t7.5 -29q0 -11 -8.5 -26t-25.5 -15h-224q-56 0 -66.5 25t-9.5 72q-52 -57 -132.5 -91.5t-151.5 -34.5zM580 66q58 0 123 33t98 77
v638q-56 105 -225 105q-111 0 -171.5 -56t-83.5 -152.5t-23 -218.5q0 -119 24 -216t85.5 -153.5t172.5 -56.5z" />
    <glyph glyph-name="Emacron" unicode="&#x112;" horiz-adv-x="1338" 
d="M105 51q0 33 33 37q48 4 97 17.5t49 46.5v1082q0 43 -25.5 62t-60.5 25.5t-66 9.5q-21 2 -28.5 8.5t-7.5 28.5q0 11 8.5 31t25.5 20l980 1l35 -325q2 -17 -12 -25.5t-25 -8.5q-16 0 -34 5.5t-30 27.5q-40 75 -65.5 125.5t-56 76t-84.5 25.5l-340 -1v-542l234 1
q26 4 48 38t36.5 73.5t16.5 59.5t16 26t30 6q11 0 26 -8.5t15 -25.5v-443q0 -17 -15 -25.5t-26 -8.5q-16 0 -31.5 7t-17.5 26q-1 22 -15.5 64.5t-37.5 78.5t-51 36l-228 -1v-485q0 -55 28 -74t61 -22l285 1q90 0 157 60.5t103 211.5q5 19 28.5 26t39.5 7q19 0 33 -8.5
t16 -25.5l-50 -372l-1060 -1q-17 0 -25.5 20t-8.5 31zM380 1607v141h588v-141h-588z" />
    <glyph glyph-name="emacron" unicode="&#x113;" horiz-adv-x="990" 
d="M532 -29q-229 0 -346 139.5t-117 389.5q0 167 63 281.5t166 173.5t222 59q126 0 205.5 -43.5t123 -121t61.5 -180.5q7 -38 9.5 -80t2.5 -86h-638q1 -158 42 -252t103.5 -135t128.5 -41q76 0 139 34.5t95 98.5l6 12t13 4l50 -23q11 -4 11 -12q0 -4 -2 -8.5t-4 -7.5
q-44 -88 -125 -145t-209 -57zM286 589l414 6q0 174 -52 248.5t-129 74.5q-71 0 -121 -23t-78 -93.5t-34 -212.5zM226 1156v141h588v-141h-588z" />
    <glyph glyph-name="Ebreve" unicode="&#x114;" horiz-adv-x="1338" 
d="M105 51q0 33 33 37q48 4 97 17.5t49 46.5v1082q0 43 -25.5 62t-60.5 25.5t-66 9.5q-21 2 -28.5 8.5t-7.5 28.5q0 11 8.5 31t25.5 20l980 1l35 -325q2 -17 -12 -25.5t-25 -8.5q-16 0 -34 5.5t-30 27.5q-40 75 -65.5 125.5t-56 76t-84.5 25.5l-340 -1v-542l234 1
q26 4 48 38t36.5 73.5t16.5 59.5t16 26t30 6q11 0 26 -8.5t15 -25.5v-443q0 -17 -15 -25.5t-26 -8.5q-16 0 -31.5 7t-17.5 26q-1 22 -15.5 64.5t-37.5 78.5t-51 36l-228 -1v-485q0 -55 28 -74t61 -22l285 1q90 0 157 60.5t103 211.5q5 19 28.5 26t39.5 7q19 0 33 -8.5
t16 -25.5l-50 -372l-1060 -1q-17 0 -25.5 20t-8.5 31zM674 1599q-44 0 -100 13.5t-108 51t-87 109.5t-38 189h113q3 -49 28 -98.5t72.5 -83t119.5 -33.5t120 33.5t72.5 83t27.5 98.5h113q-3 -117 -38 -189t-87 -109.5t-108 -51t-100 -13.5z" />
    <glyph glyph-name="ebreve" unicode="&#x115;" horiz-adv-x="990" 
d="M532 -29q-229 0 -346 139.5t-117 389.5q0 167 63 281.5t166 173.5t222 59q126 0 205.5 -43.5t123 -121t61.5 -180.5q7 -38 9.5 -80t2.5 -86h-638q1 -158 42 -252t103.5 -135t128.5 -41q76 0 139 34.5t95 98.5l6 12t13 4l50 -23q11 -4 11 -12q0 -4 -2 -8.5t-4 -7.5
q-44 -88 -125 -145t-209 -57zM286 589l414 6q0 174 -52 248.5t-129 74.5q-71 0 -121 -23t-78 -93.5t-34 -212.5zM520 1184q-44 0 -100 13.5t-108 51t-87 109.5t-38 189h113q3 -49 28 -98.5t72.5 -83t119.5 -33.5t120 33.5t72.5 83t27.5 98.5h113q-3 -117 -38 -189
t-87 -109.5t-108 -51t-100 -13.5z" />
    <glyph glyph-name="Edotaccent" unicode="&#x116;" horiz-adv-x="1338" 
d="M105 51q0 33 33 37q48 4 97 17.5t49 46.5v1082q0 43 -25.5 62t-60.5 25.5t-66 9.5q-21 2 -28.5 8.5t-7.5 28.5q0 11 8.5 31t25.5 20l980 1l35 -325q2 -17 -12 -25.5t-25 -8.5q-16 0 -34 5.5t-30 27.5q-40 75 -65.5 125.5t-56 76t-84.5 25.5l-340 -1v-542l234 1
q26 4 48 38t36.5 73.5t16.5 59.5t16 26t30 6q11 0 26 -8.5t15 -25.5v-443q0 -17 -15 -25.5t-26 -8.5q-16 0 -31.5 7t-17.5 26q-1 22 -15.5 64.5t-37.5 78.5t-51 36l-228 -1v-485q0 -55 28 -74t61 -22l285 1q90 0 157 60.5t103 211.5q5 19 28.5 26t39.5 7q19 0 33 -8.5
t16 -25.5l-50 -372l-1060 -1q-17 0 -25.5 20t-8.5 31zM674 1546q-55 0 -88 40.5t-33 98.5q0 59 33 99t88 40t88 -40t33 -99q0 -58 -33 -98.5t-88 -40.5z" />
    <glyph glyph-name="edotaccent" unicode="&#x117;" horiz-adv-x="990" 
d="M532 -29q-229 0 -346 139.5t-117 389.5q0 167 63 281.5t166 173.5t222 59q126 0 205.5 -43.5t123 -121t61.5 -180.5q7 -38 9.5 -80t2.5 -86h-638q1 -158 42 -252t103.5 -135t128.5 -41q76 0 139 34.5t95 98.5l6 12t13 4l50 -23q11 -4 11 -12q0 -4 -2 -8.5t-4 -7.5
q-44 -88 -125 -145t-209 -57zM286 589l414 6q0 174 -52 248.5t-129 74.5q-71 0 -121 -23t-78 -93.5t-34 -212.5zM520 1173q-55 0 -88 40.5t-33 98.5q0 59 33 99t88 40t88 -40t33 -99q0 -58 -33 -98.5t-88 -40.5z" />
    <glyph glyph-name="Eogonek" unicode="&#x118;" horiz-adv-x="1338" 
d="M105 51q0 33 33 37q48 4 97 17.5t49 46.5v1082q0 43 -25.5 62t-60.5 25.5t-66 9.5q-21 2 -28.5 8.5t-7.5 28.5q0 11 8.5 31t25.5 20l980 1l35 -325q2 -17 -12 -25.5t-25 -8.5q-16 0 -34 5.5t-30 27.5q-40 75 -65.5 125.5t-56 76t-84.5 25.5l-340 -1v-542l234 1
q26 4 48 38t36.5 73.5t16.5 59.5t16 26t30 6q11 0 26 -8.5t15 -25.5v-443q0 -17 -15 -25.5t-26 -8.5q-16 0 -31.5 7t-17.5 26q-1 22 -15.5 64.5t-37.5 78.5t-51 36l-228 -1v-485q0 -55 28 -74t61 -22l285 1q90 0 157 60.5t103 211.5q5 19 28.5 26t39.5 7q19 0 33 -8.5
t16 -25.5l-50 -372l-1060 -1q-17 0 -25.5 20t-8.5 31zM1117 80l22 -50q-211 -102 -211 -235q0 -58 30 -98t108 -40q27 0 47.5 4.5t54.5 21.5q8 4 14.5 -8t6.5 -35q0 -31 -24 -49q-32 -25 -80.5 -41t-104.5 -16q-118 0 -175.5 61t-57.5 129q0 98 80 176t233 119z" />
    <glyph glyph-name="eogonek" unicode="&#x119;" horiz-adv-x="990" 
d="M532 -29q-229 0 -346 139.5t-117 389.5q0 167 63 281.5t166 173.5t222 59q126 0 205.5 -43.5t123 -121t61.5 -180.5q7 -38 9.5 -80t2.5 -86h-638q1 -158 42 -252t103.5 -135t128.5 -41q76 0 139 34.5t95 98.5l6 12t13 4l50 -23q11 -4 11 -12q0 -4 -2 -8.5t-4 -7.5
q-44 -88 -125 -145t-209 -57zM286 589l414 6q0 174 -52 248.5t-129 74.5q-71 0 -121 -23t-78 -93.5t-34 -212.5zM698 80l22 -50q-211 -102 -211 -235q0 -58 30 -98t108 -40q27 0 47.5 4.5t54.5 21.5q8 4 14.5 -8t6.5 -35q0 -31 -24 -49q-32 -25 -80.5 -41t-104.5 -16
q-118 0 -175.5 61t-57.5 129q0 98 80 176t233 119z" />
    <glyph glyph-name="Ecaron" unicode="&#x11a;" horiz-adv-x="1338" 
d="M105 51q0 33 33 37q48 4 97 17.5t49 46.5v1082q0 43 -25.5 62t-60.5 25.5t-66 9.5q-21 2 -28.5 8.5t-7.5 28.5q0 11 8.5 31t25.5 20l980 1l35 -325q2 -17 -12 -25.5t-25 -8.5q-16 0 -34 5.5t-30 27.5q-40 75 -65.5 125.5t-56 76t-84.5 25.5l-340 -1v-542l234 1
q26 4 48 38t36.5 73.5t16.5 59.5t16 26t30 6q11 0 26 -8.5t15 -25.5v-443q0 -17 -15 -25.5t-26 -8.5q-16 0 -31.5 7t-17.5 26q-1 22 -15.5 64.5t-37.5 78.5t-51 36l-228 -1v-485q0 -55 28 -74t61 -22l285 1q90 0 157 60.5t103 211.5q5 19 28.5 26t39.5 7q19 0 33 -8.5
t16 -25.5l-50 -372l-1060 -1q-17 0 -25.5 20t-8.5 31zM674 1555q-36 0 -57 15t-38 36l-245 348h118l222 -221l227 221h113l-245 -339q-16 -25 -37 -42.5t-58 -17.5z" />
    <glyph glyph-name="ecaron" unicode="&#x11b;" horiz-adv-x="990" 
d="M532 -29q-229 0 -346 139.5t-117 389.5q0 167 63 281.5t166 173.5t222 59q126 0 205.5 -43.5t123 -121t61.5 -180.5q7 -38 9.5 -80t2.5 -86h-638q1 -158 42 -252t103.5 -135t128.5 -41q76 0 139 34.5t95 98.5l6 12t13 4l50 -23q11 -4 11 -12q0 -4 -2 -8.5t-4 -7.5
q-44 -88 -125 -145t-209 -57zM286 589l414 6q0 174 -52 248.5t-129 74.5q-71 0 -121 -23t-78 -93.5t-34 -212.5zM519 1111q-36 0 -56.5 14.5t-37.5 35.5l-245 358h118l222 -231l227 231h113l-248 -358q-16 -18 -36 -34t-57 -16z" />
    <glyph glyph-name="Gcircumflex" unicode="&#x11c;" horiz-adv-x="1485" 
d="M754 -30q-102 0 -218 37.5t-219 123t-168 227t-65 348.5q0 206 66.5 348.5t172 229.5t227.5 126t233 39q194 0 299.5 -32.5t158.5 -55.5l22 -310q2 -17 -11 -28.5t-25 -11.5q-3 0 -5.5 -0.5t-5.5 -0.5q-33 0 -37 29q-23 84 -73 155t-130 114.5t-195 44.5
q-46 0 -104.5 -14.5t-118.5 -53.5t-111 -111.5t-82.5 -187t-31.5 -280.5q0 -183 48 -306.5t122 -197t153.5 -105.5t143.5 -32q156 0 214 43t58 91v257q0 43 -28.5 62.5t-70 26t-80.5 8.5q-21 2 -28.5 8.5t-7.5 28.5q0 11 8.5 31t25.5 20h515q17 0 25.5 -20t8.5 -31
q0 -34 -33 -37q-44 -4 -88 -17.5t-44 -46.5l7 -366q-16 -22 -79 -58.5t-175 -65.5t-274 -29zM449 1545l245 348q17 21 38 36t57 15q37 0 58 -17.5t37 -42.5l245 -339h-113l-227 221l-222 -221h-118z" />
    <glyph glyph-name="gcircumflex" unicode="&#x11d;" horiz-adv-x="1043" 
d="M503 -480q-133 0 -233.5 41.5t-156.5 112.5t-56 158q0 91 53 137t111 63q-105 46 -105 172q0 63 44 123.5t101 76.5q-70 47 -101.5 124t-31.5 152q0 93 43.5 169t125 120.5t194.5 44.5q83 0 148 -25t111 -69q26 45 68.5 73.5t94.5 28.5q66 0 101 -44.5t35 -109.5
q0 -48 -24 -75t-52 -27l-105 165q-22 -5 -37.5 -17.5t-39.5 -41.5q56 -82 56 -192q0 -91 -43.5 -168t-124.5 -123t-194 -46q-52 0 -92.5 4.5t-66.5 17.5q-37 -13 -53 -39t-16 -55q0 -53 39 -82t99 -29h226q106 0 179.5 -23.5t112 -86.5t37.5 -181q0 -85 -50 -165t-149 -132
t-248 -52zM489 439q68 0 105 33t51 88.5t14 121.5q0 101 -36 170t-138 69q-103 0 -137 -69t-34 -170q0 -66 15 -121.5t53 -88.5t107 -33zM523 -383q40 0 90.5 9.5t97.5 34t77.5 67.5t30.5 110q0 81 -61.5 112t-145.5 31h-178q-61 0 -91.5 6t-53.5 13q-17 -21 -33.5 -56.5
t-16.5 -92.5q0 -82 41 -134t106 -76t137 -24zM178 1110l245 388q17 21 38 36t57 15q37 0 58 -17.5t37 -42.5l245 -379h-113l-227 261l-222 -261h-118z" />
    <glyph glyph-name="Gbreve" unicode="&#x11e;" horiz-adv-x="1485" 
d="M754 -30q-102 0 -218 37.5t-219 123t-168 227t-65 348.5q0 206 66.5 348.5t172 229.5t227.5 126t233 39q194 0 299.5 -32.5t158.5 -55.5l22 -310q2 -17 -11 -28.5t-25 -11.5q-3 0 -5.5 -0.5t-5.5 -0.5q-33 0 -37 29q-23 84 -73 155t-130 114.5t-195 44.5
q-46 0 -104.5 -14.5t-118.5 -53.5t-111 -111.5t-82.5 -187t-31.5 -280.5q0 -183 48 -306.5t122 -197t153.5 -105.5t143.5 -32q156 0 214 43t58 91v257q0 43 -28.5 62.5t-70 26t-80.5 8.5q-21 2 -28.5 8.5t-7.5 28.5q0 11 8.5 31t25.5 20h515q17 0 25.5 -20t8.5 -31
q0 -34 -33 -37q-44 -4 -88 -17.5t-44 -46.5l7 -366q-16 -22 -79 -58.5t-175 -65.5t-274 -29zM789 1599q-44 0 -100 13.5t-108 51t-87 109.5t-38 189h113q3 -49 28 -98.5t72.5 -83t119.5 -33.5t120 33.5t72.5 83t27.5 98.5h113q-3 -117 -38 -189t-87 -109.5t-108 -51
t-100 -13.5z" />
    <glyph glyph-name="gbreve" unicode="&#x11f;" horiz-adv-x="1043" 
d="M503 -480q-133 0 -233.5 41.5t-156.5 112.5t-56 158q0 91 53 137t111 63q-105 46 -105 172q0 63 44 123.5t101 76.5q-70 47 -101.5 124t-31.5 152q0 93 43.5 169t125 120.5t194.5 44.5q83 0 148 -25t111 -69q26 45 68.5 73.5t94.5 28.5q66 0 101 -44.5t35 -109.5
q0 -48 -24 -75t-52 -27l-105 165q-22 -5 -37.5 -17.5t-39.5 -41.5q56 -82 56 -192q0 -91 -43.5 -168t-124.5 -123t-194 -46q-52 0 -92.5 4.5t-66.5 17.5q-37 -13 -53 -39t-16 -55q0 -53 39 -82t99 -29h226q106 0 179.5 -23.5t112 -86.5t37.5 -181q0 -85 -50 -165t-149 -132
t-248 -52zM489 439q68 0 105 33t51 88.5t14 121.5q0 101 -36 170t-138 69q-103 0 -137 -69t-34 -170q0 -66 15 -121.5t53 -88.5t107 -33zM523 -383q40 0 90.5 9.5t97.5 34t77.5 67.5t30.5 110q0 81 -61.5 112t-145.5 31h-178q-61 0 -91.5 6t-53.5 13q-17 -21 -33.5 -56.5
t-16.5 -92.5q0 -82 41 -134t106 -76t137 -24zM518 1184q-44 0 -100 13.5t-108 51t-87 109.5t-38 189h113q3 -49 28 -98.5t72.5 -83t119.5 -33.5t120 33.5t72.5 83t27.5 98.5h113q-3 -117 -38 -189t-87 -109.5t-108 -51t-100 -13.5z" />
    <glyph glyph-name="Gdotaccent" unicode="&#x120;" horiz-adv-x="1485" 
d="M754 -30q-102 0 -218 37.5t-219 123t-168 227t-65 348.5q0 206 66.5 348.5t172 229.5t227.5 126t233 39q194 0 299.5 -32.5t158.5 -55.5l22 -310q2 -17 -11 -28.5t-25 -11.5q-3 0 -5.5 -0.5t-5.5 -0.5q-33 0 -37 29q-23 84 -73 155t-130 114.5t-195 44.5
q-46 0 -104.5 -14.5t-118.5 -53.5t-111 -111.5t-82.5 -187t-31.5 -280.5q0 -183 48 -306.5t122 -197t153.5 -105.5t143.5 -32q156 0 214 43t58 91v257q0 43 -28.5 62.5t-70 26t-80.5 8.5q-21 2 -28.5 8.5t-7.5 28.5q0 11 8.5 31t25.5 20h515q17 0 25.5 -20t8.5 -31
q0 -34 -33 -37q-44 -4 -88 -17.5t-44 -46.5l7 -366q-16 -22 -79 -58.5t-175 -65.5t-274 -29zM789 1546q-55 0 -88 40.5t-33 98.5q0 59 33 99t88 40t88 -40t33 -99q0 -58 -33 -98.5t-88 -40.5z" />
    <glyph glyph-name="gdotaccent" unicode="&#x121;" horiz-adv-x="1043" 
d="M503 -480q-133 0 -233.5 41.5t-156.5 112.5t-56 158q0 91 53 137t111 63q-105 46 -105 172q0 63 44 123.5t101 76.5q-70 47 -101.5 124t-31.5 152q0 93 43.5 169t125 120.5t194.5 44.5q83 0 148 -25t111 -69q26 45 68.5 73.5t94.5 28.5q66 0 101 -44.5t35 -109.5
q0 -48 -24 -75t-52 -27l-105 165q-22 -5 -37.5 -17.5t-39.5 -41.5q56 -82 56 -192q0 -91 -43.5 -168t-124.5 -123t-194 -46q-52 0 -92.5 4.5t-66.5 17.5q-37 -13 -53 -39t-16 -55q0 -53 39 -82t99 -29h226q106 0 179.5 -23.5t112 -86.5t37.5 -181q0 -85 -50 -165t-149 -132
t-248 -52zM489 439q68 0 105 33t51 88.5t14 121.5q0 101 -36 170t-138 69q-103 0 -137 -69t-34 -170q0 -66 15 -121.5t53 -88.5t107 -33zM523 -383q40 0 90.5 9.5t97.5 34t77.5 67.5t30.5 110q0 81 -61.5 112t-145.5 31h-178q-61 0 -91.5 6t-53.5 13q-17 -21 -33.5 -56.5
t-16.5 -92.5q0 -82 41 -134t106 -76t137 -24zM518 1173q-55 0 -88 40.5t-33 98.5q0 59 33 99t88 40t88 -40t33 -99q0 -58 -33 -98.5t-88 -40.5z" />
    <glyph glyph-name="uni0122" unicode="&#x122;" horiz-adv-x="1485" 
d="M754 -30q-102 0 -218 37.5t-219 123t-168 227t-65 348.5q0 206 66.5 348.5t172 229.5t227.5 126t233 39q194 0 299.5 -32.5t158.5 -55.5l22 -310q2 -17 -11 -28.5t-25 -11.5q-3 0 -5.5 -0.5t-5.5 -0.5q-33 0 -37 29q-23 84 -73 155t-130 114.5t-195 44.5
q-46 0 -104.5 -14.5t-118.5 -53.5t-111 -111.5t-82.5 -187t-31.5 -280.5q0 -183 48 -306.5t122 -197t153.5 -105.5t143.5 -32q156 0 214 43t58 91v257q0 43 -28.5 62.5t-70 26t-80.5 8.5q-21 2 -28.5 8.5t-7.5 28.5q0 11 8.5 31t25.5 20h515q17 0 25.5 -20t8.5 -31
q0 -34 -33 -37q-44 -4 -88 -17.5t-44 -46.5l7 -366q-16 -22 -79 -58.5t-175 -65.5t-274 -29zM787 -151q54 0 93 -43t39 -132q0 -64 -22.5 -125.5t-57.5 -108.5t-75 -70q-10 -5 -22 -5q-15 0 -28.5 7.5t-13.5 20.5q0 14 14 29q20 21 36.5 66t16.5 102q-40 0 -76.5 33.5
t-36.5 94.5q0 69 40.5 100t92.5 31z" />
    <glyph glyph-name="uni0123" unicode="&#x123;" horiz-adv-x="1043" 
d="M503 -480q-133 0 -233.5 41.5t-156.5 112.5t-56 158q0 91 53 137t111 63q-105 46 -105 172q0 63 44 123.5t101 76.5q-70 47 -101.5 124t-31.5 152q0 93 43.5 169t125 120.5t194.5 44.5q83 0 148 -25t111 -69q26 45 68.5 73.5t94.5 28.5q66 0 101 -44.5t35 -109.5
q0 -48 -24 -75t-52 -27l-105 165q-22 -5 -37.5 -17.5t-39.5 -41.5q56 -82 56 -192q0 -91 -43.5 -168t-124.5 -123t-194 -46q-52 0 -92.5 4.5t-66.5 17.5q-37 -13 -53 -39t-16 -55q0 -53 39 -82t99 -29h226q106 0 179.5 -23.5t112 -86.5t37.5 -181q0 -85 -50 -165t-149 -132
t-248 -52zM489 439q68 0 105 33t51 88.5t14 121.5q0 101 -36 170t-138 69q-103 0 -137 -69t-34 -170q0 -66 15 -121.5t53 -88.5t107 -33zM523 -383q40 0 90.5 9.5t97.5 34t77.5 67.5t30.5 110q0 81 -61.5 112t-145.5 31h-178q-61 0 -91.5 6t-53.5 13q-17 -21 -33.5 -56.5
t-16.5 -92.5q0 -82 41 -134t106 -76t137 -24zM534 1154q-61 0 -101.5 45.5t-40.5 118.5q0 89 57 174t170 135l30 -58q-49 -37 -82.5 -74.5t-42.5 -88.5q61 -3 97 -39.5t36 -83.5q0 -61 -37 -95t-86 -34z" />
    <glyph glyph-name="Hcircumflex" unicode="&#x124;" horiz-adv-x="1669" 
d="M139 0q-17 0 -25.5 20t-8.5 31q0 34 33 37q48 4 91.5 17.5t43.5 46.5l1 1082q0 43 -23 62t-55.5 25.5t-63.5 9.5q-21 2 -28.5 8.5t-7.5 28.5q0 11 8.5 31t25.5 20h492q17 0 25.5 -20t8.5 -31q0 -34 -33 -37q-48 -4 -96.5 -17.5t-48.5 -46.5v-471h715v438q0 43 -25.5 62
t-60.5 25.5t-66 9.5q-21 2 -28.5 8.5t-7.5 28.5q0 11 8.5 31t25.5 20h502q17 0 25.5 -20t8.5 -31q0 -34 -33 -37q-48 -4 -96.5 -17.5t-48.5 -46.5l-1 -1082q0 -43 25.5 -62t61 -25t65.5 -10q21 -2 28.5 -8t7.5 -29q0 -11 -8.5 -31t-25.5 -20h-502q-17 0 -25.5 20t-8.5 31
q0 34 33 37q48 4 96.5 17.5t48.5 46.5v536h-715v-503q0 -43 25.5 -62t61 -25t65.5 -10q21 -2 28.5 -8t7.5 -29q0 -11 -8.5 -31t-25.5 -20h-492zM492 1545l245 348q17 21 38 36t57 15q37 0 58 -17.5t37 -42.5l245 -339h-113l-227 221l-222 -221h-118z" />
    <glyph glyph-name="hcircumflex" unicode="&#x125;" horiz-adv-x="1192" 
d="M74 0q-17 0 -25.5 15t-8.5 26q0 33 33 37q37 5 76.5 18t39.5 46v1197q0 62 -26 85t-61 28t-62 12q-10 5 -17 13t-7 27q0 12 6 28t18 17q100 6 181 7.5t124 1.5q8 0 18 -8t12 -32v-414l-10 -259q18 18 73 58.5t136 75.5t175 35q65 0 120 -18.5t88 -72t33 -157.5v-591
q0 -48 24 -67t56 -22.5t57 -7.5q17 -2 25 -8.5t8 -28.5q0 -11 -8.5 -26t-25.5 -15h-427q-17 0 -25.5 15t-8.5 26q0 16 6 26t25 11q32 2 69 19t37 45v653q0 17 -7.5 41t-35 42t-86.5 18q-62 0 -120 -20.5t-104 -49.5t-74 -55v-596q0 -64 37.5 -78.5t74.5 -18.5q21 -2 28.5 -8
t7.5 -29q0 -11 -8.5 -26t-25.5 -15h-415zM-65 1595l245 348q17 21 38 36t57 15q37 0 58 -17.5t37 -42.5l245 -339h-113l-227 221l-222 -221h-118z" />
    <glyph glyph-name="Hbar" unicode="&#x126;" horiz-adv-x="1669" 
d="M141 0q-17 0 -25.5 20t-8.5 31q0 33 33 37q48 4 91.5 17.5t43.5 46.5l1 735h-153q-12 1 -18 21.5t-6 32.5q0 43 24 53h153v240q0 43 -23 62.5t-55.5 26t-63.5 8.5q-21 2 -28.5 8.5t-7.5 28.5q0 11 8.5 31t25.5 20h495q17 0 25.5 -20t8.5 -31q0 -33 -33 -37
q-48 -4 -96.5 -17.5t-48.5 -46.5v-273h698v240q0 43 -25.5 62.5t-60.5 26t-66 8.5q-21 2 -28.5 8.5t-7.5 28.5q0 11 8.5 31t25.5 20h505q17 0 25.5 -20t8.5 -31q0 -33 -33 -37q-48 -4 -96.5 -17.5t-48.5 -46.5v-273h181q12 -1 18 -11.5t6 -22.5q0 -19 -6.5 -43.5
t-17.5 -29.5h-181l-1 -702q0 -43 25.5 -62.5t61 -25.5t65.5 -9q21 -2 28.5 -8t7.5 -29q0 -11 -8.5 -31t-25.5 -20h-505q-17 0 -25.5 20t-8.5 31q0 33 33 37q48 4 96.5 17.5t48.5 46.5v393h-698v-360q0 -43 25.5 -62.5t61 -25.5t65.5 -9q21 -2 28.5 -8t7.5 -29
q0 -11 -8.5 -31t-25.5 -20h-495zM482 631h698l1 256h-698z" />
    <glyph glyph-name="hbar" unicode="&#x127;" horiz-adv-x="1192" 
d="M23 0q-17 0 -25.5 15t-8.5 26q0 33 33 37q37 5 76.5 18t39.5 46v1049h-143q-12 1 -18 11.5t-6 22.5q0 19 7 39t17 24h143v51q0 62 -26 85t-61 28t-62 12q-10 5 -17 13t-7 27q0 12 6 28t18 17q100 6 181 7.5t124 1.5q8 0 18 -8t12 -32v-230h280q12 -1 18 -16.5t6 -27.5
q0 -43 -24 -53h-280v-87l-10 -259q18 18 73 58.5t136 75.5t175 35q65 0 120 -18.5t88 -72t33 -157.5v-591q0 -48 24 -67t56 -22.5t57 -7.5q17 -2 25 -8.5t8 -28.5q0 -11 -8.5 -26t-25.5 -15h-427q-17 0 -25.5 15t-8.5 26q0 16 6 26t25 11q32 2 69 19t37 45v653q0 17 -7.5 41
t-35 42t-86.5 18q-62 0 -120 -20.5t-104 -49.5t-74 -55v-596q0 -64 37.5 -78.5t74.5 -18.5q21 -2 28.5 -8t7.5 -29q0 -11 -8.5 -26t-25.5 -15h-415z" />
    <glyph glyph-name="Itilde" unicode="&#x128;" horiz-adv-x="798" 
d="M151 0q-17 0 -25.5 20t-8.5 31q0 34 33 37q48 4 96.5 17.5t48.5 46.5l1 1082q0 43 -25.5 62t-60.5 25.5t-66 9.5q-21 2 -28.5 8.5t-7.5 28.5q0 11 8.5 31t25.5 20h505q17 0 25.5 -20t8.5 -31q0 -34 -33 -37q-48 -4 -96.5 -17.5t-48.5 -46.5l-1 -1082q0 -43 25.5 -62
t61 -25t65.5 -10q21 -2 28.5 -8t7.5 -29q0 -11 -8.5 -31t-25.5 -20h-505zM516 1533q-60 0 -106 31t-89.5 61.5t-93.5 30.5q-31 0 -53.5 -22.5t-38 -45t-26.5 -22.5q-16 0 -31 18t-15 40q0 27 28 68.5t76 74t107 32.5q56 0 102 -30.5t90.5 -61.5t96.5 -31q31 0 53.5 22.5
t38.5 45t26 22.5q16 0 32.5 -18t16.5 -40q0 -26 -29 -68t-77.5 -74.5t-107.5 -32.5z" />
    <glyph glyph-name="itilde" unicode="&#x129;" horiz-adv-x="600" 
d="M104 0q-17 0 -25.5 15t-8.5 26q0 33 33 37q37 5 76 18t39 46l1 636q0 62 -26 85t-61 28t-62 12q-10 5 -17 13t-7 27q0 12 6 27.5t18 16.5q100 6 181 8t124 2q8 0 18 -8t12 -32v-782q0 -43 20.5 -62.5t49 -25.5t52.5 -9q21 -2 28.5 -8t7.5 -29q0 -11 -8.5 -26t-25.5 -15
h-425zM410 1117q-39 0 -72 20t-63 46.5t-57.5 46.5t-55.5 20q-31 0 -54 -24t-39 -48.5t-27 -24.5q-16 0 -31.5 19.5t-15.5 43.5q0 29 29 73.5t77.5 80t108.5 35.5q32 0 62.5 -20t61 -46.5t61 -46.5t63.5 -20q32 0 55 24.5t39 48.5t26 24q17 0 33.5 -19.5t16.5 -43.5
q0 -28 -29.5 -73t-79 -80.5t-109.5 -35.5z" />
    <glyph glyph-name="Imacron" unicode="&#x12a;" horiz-adv-x="798" 
d="M151 0q-17 0 -25.5 20t-8.5 31q0 34 33 37q48 4 96.5 17.5t48.5 46.5l1 1082q0 43 -25.5 62t-60.5 25.5t-66 9.5q-21 2 -28.5 8.5t-7.5 28.5q0 11 8.5 31t25.5 20h505q17 0 25.5 -20t8.5 -31q0 -34 -33 -37q-48 -4 -96.5 -17.5t-48.5 -46.5l-1 -1082q0 -43 25.5 -62
t61 -25t65.5 -10q21 -2 28.5 -8t7.5 -29q0 -11 -8.5 -31t-25.5 -20h-505zM103 1607v141h588v-141h-588z" />
    <glyph glyph-name="imacron" unicode="&#x12b;" horiz-adv-x="600" 
d="M104 0q-17 0 -25.5 15t-8.5 26q0 33 33 37q37 5 76 18t39 46l1 636q0 62 -26 85t-61 28t-62 12q-10 5 -17 13t-7 27q0 12 6 27.5t18 16.5q100 6 181 8t124 2q8 0 18 -8t12 -32v-782q0 -43 20.5 -62.5t49 -25.5t52.5 -9q21 -2 28.5 -8t7.5 -29q0 -11 -8.5 -26t-25.5 -15
h-425zM15 1156v141h588v-141h-588z" />
    <glyph glyph-name="Ibreve" unicode="&#x12c;" horiz-adv-x="798" 
d="M151 0q-17 0 -25.5 20t-8.5 31q0 34 33 37q48 4 96.5 17.5t48.5 46.5l1 1082q0 43 -25.5 62t-60.5 25.5t-66 9.5q-21 2 -28.5 8.5t-7.5 28.5q0 11 8.5 31t25.5 20h505q17 0 25.5 -20t8.5 -31q0 -34 -33 -37q-48 -4 -96.5 -17.5t-48.5 -46.5l-1 -1082q0 -43 25.5 -62
t61 -25t65.5 -10q21 -2 28.5 -8t7.5 -29q0 -11 -8.5 -31t-25.5 -20h-505zM397 1599q-44 0 -100 13.5t-108 51t-87 109.5t-38 189h113q3 -49 28 -98.5t72.5 -83t119.5 -33.5t120 33.5t72.5 83t27.5 98.5h113q-3 -117 -38 -189t-87 -109.5t-108 -51t-100 -13.5z" />
    <glyph glyph-name="ibreve" unicode="&#x12d;" horiz-adv-x="600" 
d="M104 0q-17 0 -25.5 15t-8.5 26q0 33 33 37q37 5 76 18t39 46l1 636q0 62 -26 85t-61 28t-62 12q-10 5 -17 13t-7 27q0 12 6 27.5t18 16.5q100 6 181 8t124 2q8 0 18 -8t12 -32v-782q0 -43 20.5 -62.5t49 -25.5t52.5 -9q21 -2 28.5 -8t7.5 -29q0 -11 -8.5 -26t-25.5 -15
h-425zM309 1184q-44 0 -100 13.5t-108 51t-87 109.5t-38 189h113q3 -49 28 -98.5t72.5 -83t119.5 -33.5t120 33.5t72.5 83t27.5 98.5h113q-3 -117 -38 -189t-87 -109.5t-108 -51t-100 -13.5z" />
    <glyph glyph-name="Iogonek" unicode="&#x12e;" horiz-adv-x="798" 
d="M151 0q-17 0 -25.5 20t-8.5 31q0 34 33 37q48 4 96.5 17.5t48.5 46.5l1 1082q0 43 -25.5 62t-60.5 25.5t-66 9.5q-21 2 -28.5 8.5t-7.5 28.5q0 11 8.5 31t25.5 20h505q17 0 25.5 -20t8.5 -31q0 -34 -33 -37q-48 -4 -96.5 -17.5t-48.5 -46.5l-1 -1082q0 -43 25.5 -62
t61 -25t65.5 -10q21 -2 28.5 -8t7.5 -29q0 -11 -8.5 -31t-25.5 -20h-505zM521 80l22 -50q-211 -102 -211 -235q0 -58 30 -98t108 -40q27 0 47.5 4.5t54.5 21.5q8 4 14.5 -8t6.5 -35q0 -31 -24 -49q-32 -25 -80.5 -41t-104.5 -16q-118 0 -175.5 61t-57.5 129q0 98 80 176
t233 119z" />
    <glyph glyph-name="iogonek" unicode="&#x12f;" horiz-adv-x="600" 
d="M104 0q-17 0 -25.5 15t-8.5 26q0 33 33 37q37 5 76 18t39 46l1 636q0 62 -26 85t-61 28t-62 12q-10 5 -17 13t-7 27q0 12 6 27.5t18 16.5q100 6 181 8t124 2q8 0 18 -8t12 -32v-782q0 -43 20.5 -62.5t49 -25.5t52.5 -9q21 -2 28.5 -8t7.5 -29q0 -11 -8.5 -26t-25.5 -15
h-425zM309 1173q-55 0 -88 40.5t-33 98.5q0 59 33 99t88 40t88 -40t33 -99q0 -58 -33 -98.5t-88 -40.5zM449 80l22 -50q-211 -102 -211 -235q0 -58 30 -98t108 -40q27 0 47.5 4.5t54.5 21.5q8 4 14.5 -8t6.5 -35q0 -31 -24 -49q-32 -25 -80.5 -41t-104.5 -16
q-118 0 -175.5 61t-57.5 129q0 98 80 176t233 119z" />
    <glyph glyph-name="Idotaccent" unicode="&#x130;" horiz-adv-x="798" 
d="M151 0q-17 0 -25.5 20t-8.5 31q0 34 33 37q48 4 96.5 17.5t48.5 46.5l1 1082q0 43 -25.5 62t-60.5 25.5t-66 9.5q-21 2 -28.5 8.5t-7.5 28.5q0 11 8.5 31t25.5 20h505q17 0 25.5 -20t8.5 -31q0 -34 -33 -37q-48 -4 -96.5 -17.5t-48.5 -46.5l-1 -1082q0 -43 25.5 -62
t61 -25t65.5 -10q21 -2 28.5 -8t7.5 -29q0 -11 -8.5 -31t-25.5 -20h-505zM397 1546q-55 0 -88 40.5t-33 98.5q0 59 33 99t88 40t88 -40t33 -99q0 -58 -33 -98.5t-88 -40.5z" />
    <glyph glyph-name="dotlessi" unicode="&#x131;" horiz-adv-x="600" 
d="M104 0q-17 0 -25.5 15t-8.5 26q0 33 33 37q37 5 76 18t39 46l1 636q0 62 -26 85t-61 28t-62 12q-10 5 -17 13t-7 27q0 12 6 27.5t18 16.5q100 6 181 8t124 2q8 0 18 -8t12 -32v-782q0 -43 20.5 -62.5t49 -25.5t52.5 -9q21 -2 28.5 -8t7.5 -29q0 -11 -8.5 -26t-25.5 -15
h-425z" />
    <glyph glyph-name="IJ" unicode="&#x132;" horiz-adv-x="1858" 
d="M151 0q-17 0 -25.5 20t-8.5 31q0 34 33 37q48 4 96.5 17.5t48.5 46.5l1 1082q0 43 -25.5 62t-60.5 25.5t-66 9.5q-21 2 -28.5 8.5t-7.5 28.5q0 11 8.5 31t25.5 20h505q17 0 25.5 -20t8.5 -31q0 -34 -33 -37q-48 -4 -96.5 -17.5t-48.5 -46.5l-1 -1082q0 -43 25.5 -62
t61 -25t65.5 -10q21 -2 28.5 -8t7.5 -29q0 -11 -8.5 -31t-25.5 -20h-505zM1202 -30q-67 0 -138.5 25t-137.5 81q-47 46 -65.5 99.5t-18.5 102.5q0 89 43.5 141t113.5 52q31 0 52.5 -10.5t21.5 -21.5l-44 -326q30 -23 71.5 -38.5t92.5 -15.5q105 0 167 81.5t62 265.5l1 828
q0 65 -38.5 79t-93.5 18q-21 2 -28.5 8.5t-7.5 28.5q0 11 8.5 31t25.5 20h465q17 0 25.5 -20t8.5 -31q0 -34 -33 -37q-44 -4 -85 -17.5t-41 -46.5v-828q0 -147 -44.5 -239t-112.5 -142t-140.5 -69t-129.5 -19z" />
    <glyph glyph-name="ij" unicode="&#x133;" horiz-adv-x="1198" 
d="M104 0q-17 0 -25.5 15t-8.5 26q0 33 33 37q37 5 76 18t39 46l1 636q0 62 -26 85t-61 28t-62 12q-10 5 -17 13t-7 27q0 12 6 27.5t18 16.5q100 6 181 8t124 2q8 0 18 -8t12 -32v-782q0 -43 20.5 -62.5t49 -25.5t52.5 -9q21 -2 28.5 -8t7.5 -29q0 -11 -8.5 -26t-25.5 -15
h-425zM309 1173q-55 0 -88 40.5t-33 98.5q0 59 33 99t88 40t88 -40t33 -99q0 -58 -33 -98.5t-88 -40.5zM717 -449q-96 0 -132 43.5t-36 95.5q0 56 39.5 83.5t67.5 27.5q30 0 43 -36.5t53 -111.5q50 3 65 85.5t15 245.5l1 794q0 62 -28.5 85t-66 28t-64.5 12q-10 5 -17 13
t-7 27q0 12 6 27.5t18 16.5q100 6 186 8t129 2q8 0 18 -8t12 -32l-1 -941q0 -125 -27.5 -231t-93.5 -170t-180 -64zM902 1173q-55 0 -88 40.5t-33 98.5q0 59 33 99t88 40t88 -40t33 -99q0 -58 -33 -98.5t-88 -40.5z" />
    <glyph glyph-name="Jcircumflex" unicode="&#x134;" horiz-adv-x="1060" 
d="M404 -30q-67 0 -138.5 25t-137.5 81q-47 46 -65.5 99.5t-18.5 102.5q0 89 43.5 141t113.5 52q31 0 52.5 -10.5t21.5 -21.5l-44 -326q30 -23 71.5 -38.5t92.5 -15.5q105 0 167 81.5t62 265.5l1 828q0 65 -38.5 79t-93.5 18q-21 2 -28.5 8.5t-7.5 28.5q0 11 8.5 31t25.5 20
h465q17 0 25.5 -20t8.5 -31q0 -34 -33 -37q-44 -4 -85 -17.5t-41 -46.5v-828q0 -147 -44.5 -239t-112.5 -142t-140.5 -69t-129.5 -19zM386 1545l245 348q17 21 38 36t57 15q37 0 58 -17.5t37 -42.5l245 -339h-113l-227 221l-222 -221h-118z" />
    <glyph glyph-name="jcircumflex" unicode="&#x135;" horiz-adv-x="598" 
d="M117 -449q-96 0 -132 43.5t-36 95.5q0 56 39.5 83.5t67.5 27.5q30 0 43 -36.5t53 -111.5q50 3 65 85.5t15 245.5l1 794q0 62 -28.5 85t-66 28t-64.5 12q-10 5 -17 13t-7 27q0 12 6 27.5t18 16.5q100 6 186 8t129 2q8 0 18 -8t12 -32l-1 -941q0 -125 -27.5 -231
t-93.5 -170t-180 -64zM-38 1110l245 388q17 21 38 36t57 15q37 0 58 -17.5t37 -42.5l245 -379h-113l-227 261l-222 -261h-118z" />
    <glyph glyph-name="uni0136" unicode="&#x136;" horiz-adv-x="1422" 
d="M139 0q-17 0 -25.5 20t-8.5 31q0 33 33 37q48 4 96.5 17.5t48.5 46.5l1 1082q0 43 -25.5 62t-60.5 25.5t-66 9.5q-21 2 -28.5 8.5t-7.5 28.5q0 11 8.5 31t25.5 20h495q17 0 25.5 -20t8.5 -31q0 -33 -33 -37q-48 -4 -91.5 -17.5t-43.5 -46.5l-1 -1082q0 -43 23 -62t56 -25
t63 -10q21 -2 28.5 -8t7.5 -29q0 -11 -8.5 -31t-25.5 -20h-495zM1113 0q-17 0 -44 16t-63 67q-39 55 -85 131.5t-96.5 159t-101.5 155t-100 120t-92 52.5l464 575q8 9 8 17q0 14 -21 21t-48 10.5t-45 5.5q-19 2 -25 11.5t-6 25.5q0 11 8.5 31.5t25.5 20.5h451
q17 0 25.5 -20.5t8.5 -31.5q0 -37 -33 -37q-51 0 -104 -19t-93 -48l-393 -464q47 -31 105 -101.5t119.5 -158t119.5 -172.5t103 -145q37 -49 93 -89t93 -44q21 -2 28.5 -18t7.5 -39q0 -11 -8.5 -21.5t-25.5 -10.5h-276zM773 -151q54 0 93 -43t39 -132q0 -64 -22.5 -125.5
t-57.5 -108.5t-75 -70q-10 -5 -22 -5q-15 0 -28.5 7.5t-13.5 20.5q0 14 14 29q20 21 36.5 66t16.5 102q-40 0 -76.5 33.5t-36.5 94.5q0 69 40.5 100t92.5 31z" />
    <glyph glyph-name="uni0137" unicode="&#x137;" horiz-adv-x="1097" 
d="M64 0q-17 0 -25.5 15t-8.5 26q0 33 33 37q37 4 76.5 17.5t39.5 46.5v1197q0 62 -26 85t-61 28t-62 12q-10 5 -17 13t-7 27q0 12 6 28t18 17q100 6 181 7t124 2q8 0 18 -8t12 -32v-1049l360 373q15 11 15 21q0 21 -46.5 31t-84.5 12q-19 2 -25 14.5t-6 28.5q0 11 8.5 28
t25.5 17h407q17 0 25.5 -17t8.5 -28q0 -18 -8 -30.5t-25 -12.5q-49 0 -99 -29t-88 -58l-179 -193q20 -35 53.5 -94.5t75.5 -130.5t88 -140t90 -124q22 -27 45 -43t48 -16q33 0 33 -37q0 -11 -8.5 -26t-25.5 -15h-264q-40 69 -91.5 159t-100.5 179t-84 154l-148 -150v-167
q0 -64 37.5 -78.5t74.5 -18.5q21 -2 28.5 -8t7.5 -29q0 -11 -8.5 -26t-25.5 -15h-415zM521 -151q62 0 102 -42t40 -124q0 -88 -56 -167t-177 -119l-30 58q52 18 84.5 51t43.5 88q-59 4 -94.5 40t-35.5 84q0 62 37 96.5t86 34.5z" />
    <glyph glyph-name="kgreenlandic" unicode="&#x138;" horiz-adv-x="1115" 
d="M119 0q-17 0 -25.5 10t-8.5 21q0 33 33 37q37 4 71.5 17.5t34.5 46.5v651q0 62 -24.5 85t-57 28t-57.5 12q-10 5 -17 13t-7 27q0 12 6 22.5t18 11.5q97 6 175.5 8t119.5 2q8 0 18 -8t12 -32v-411l322 303q9 11 9 20q0 23 -39.5 37.5t-65.5 16.5q-19 2 -25 11.5t-6 25.5
q0 11 8.5 21t25.5 10h377q17 0 25.5 -10t8.5 -21q0 -37 -33 -37q-34 0 -70.5 -17.5t-67.5 -40.5t-49 -39l-229 -211q83 -111 166.5 -222.5t166.5 -222.5q38 -45 84 -68.5t83 -28.5q17 -2 25 -8.5t8 -28.5q0 -11 -8.5 -21t-25.5 -10h-417q-17 0 -25.5 10t-8.5 21q0 16 6 25.5
t25 11.5q24 2 46.5 10.5t22.5 26.5q0 11 -13 27q-64 91 -129 181.5t-130 181.5l-67 -61v-269q0 -64 37.5 -78.5t74.5 -18.5q21 -2 28.5 -8t7.5 -29q0 -11 -8.5 -21t-25.5 -10h-405z" />
    <glyph glyph-name="Lacute" unicode="&#x139;" horiz-adv-x="1236" 
d="M139 0q-17 0 -25.5 20t-8.5 31q0 33 33 37q48 4 91.5 17.5t43.5 46.5l1 1082q0 43 -23 62t-55.5 25.5t-63.5 9.5q-21 2 -28.5 8.5t-7.5 28.5q0 11 8.5 31t25.5 20h513q17 0 25.5 -20t8.5 -31q0 -37 -33 -37t-72 -8t-66.5 -28.5t-27.5 -57.5l-1 -1060q0 -49 34 -62.5
t71 -13.5h285q47 0 90.5 54.5t79.5 133.5t60 151q11 33 48 33q44 0 40 -34l-49 -439h-997zM519 1526l-56 58q123 142 195 246t95 126q16 15 38 25.5t47 10.5q40 0 72 -33q28 -31 28 -66q0 -24 -11 -45t-27 -37q-23 -22 -125.5 -85t-255.5 -200z" />
    <glyph glyph-name="lacute" unicode="&#x13a;" horiz-adv-x="586" 
d="M73 0q-16 0 -26.5 12.5t-10.5 28.5q0 33 33 37q37 4 77 17.5t40 46.5l1 1197q0 62 -29 85t-67 28t-65 12q-10 5 -17 13t-7 27q0 12 6 28t18 17q100 6 186 7t129 2q8 0 18 -8t12 -32v-1343q0 -43 20.5 -62.5t49 -25.5t52.5 -9q36 -4 36 -34q0 -18 -10.5 -31t-28.5 -13
h-417zM182 1577l-56 58q123 142 195 246t95 126q16 15 38 25.5t47 10.5q40 0 72 -33q28 -31 28 -66q0 -24 -11 -45t-27 -37q-23 -22 -125.5 -85t-255.5 -200z" />
    <glyph glyph-name="uni013B" unicode="&#x13b;" horiz-adv-x="1236" 
d="M139 0q-17 0 -25.5 20t-8.5 31q0 33 33 37q48 4 91.5 17.5t43.5 46.5l1 1082q0 43 -23 62t-55.5 25.5t-63.5 9.5q-21 2 -28.5 8.5t-7.5 28.5q0 11 8.5 31t25.5 20h513q17 0 25.5 -20t8.5 -31q0 -37 -33 -37t-72 -8t-66.5 -28.5t-27.5 -57.5l-1 -1060q0 -49 34 -62.5
t71 -13.5h285q47 0 90.5 54.5t79.5 133.5t60 151q11 33 48 33q44 0 40 -34l-49 -439h-997zM617 -151q54 0 93 -43t39 -132q0 -64 -22.5 -125.5t-57.5 -108.5t-75 -70q-10 -5 -22 -5q-15 0 -28.5 7.5t-13.5 20.5q0 14 14 29q20 21 36.5 66t16.5 102q-40 0 -76.5 33.5
t-36.5 94.5q0 69 40.5 100t92.5 31z" />
    <glyph glyph-name="uni013C" unicode="&#x13c;" horiz-adv-x="586" 
d="M73 0q-16 0 -26.5 12.5t-10.5 28.5q0 33 33 37q37 4 77 17.5t40 46.5l1 1197q0 62 -29 85t-67 28t-65 12q-10 5 -17 13t-7 27q0 12 6 28t18 17q100 6 186 7t129 2q8 0 18 -8t12 -32v-1343q0 -43 20.5 -62.5t49 -25.5t52.5 -9q36 -4 36 -34q0 -18 -10.5 -31t-28.5 -13
h-417zM276 -151q62 0 102 -42t40 -124q0 -88 -56 -167t-177 -119l-30 58q52 18 84.5 51t43.5 88q-59 4 -94.5 40t-35.5 84q0 62 37 96.5t86 34.5z" />
    <glyph glyph-name="Lcaron" unicode="&#x13d;" horiz-adv-x="1236" 
d="M139 0q-17 0 -25.5 20t-8.5 31q0 33 33 37q48 4 91.5 17.5t43.5 46.5l1 1082q0 43 -23 62t-55.5 25.5t-63.5 9.5q-21 2 -28.5 8.5t-7.5 28.5q0 11 8.5 31t25.5 20h513q17 0 25.5 -20t8.5 -31q0 -37 -33 -37t-72 -8t-66.5 -28.5t-27.5 -57.5l-1 -1060q0 -49 34 -62.5
t71 -13.5h285q47 0 90.5 54.5t79.5 133.5t60 151q11 33 48 33q44 0 40 -34l-49 -439h-997zM981 1026l-55 40q40 63 57 108.5t18 85.5q1 72 -56 120q-43 36 -43 90q0 41 32 73t75 32q46 0 76.5 -26.5t46 -66t15.5 -78.5q0 -116 -53 -208.5t-113 -169.5z" />
    <glyph glyph-name="lcaron" unicode="&#x13e;" horiz-adv-x="733" 
d="M73 0q-16 0 -26.5 12.5t-10.5 28.5q0 33 33 37q37 4 77 17.5t40 46.5l1 1197q0 62 -29 85t-67 28t-65 12q-10 5 -17 13t-7 27q0 12 6 28t18 17q100 6 186 7t129 2q8 0 18 -8t12 -32v-1343q0 -43 20.5 -62.5t49 -25.5t52.5 -9q36 -4 36 -34q0 -18 -10.5 -31t-28.5 -13
h-417zM557 1048l-55 40q40 63 57 108.5t18 85.5q1 72 -56 120q-43 36 -43 90q0 41 32 73t75 32q46 0 76.5 -26.5t46 -66t15.5 -78.5q0 -116 -53 -208.5t-113 -169.5z" />
    <glyph glyph-name="Ldot" unicode="&#x13f;" horiz-adv-x="1362" 
d="M139 0q-17 0 -25.5 20t-8.5 31q0 33 33 37q48 4 91.5 17.5t43.5 46.5l1 1082q0 43 -23 62t-55.5 25.5t-63.5 9.5q-21 2 -28.5 8.5t-7.5 28.5q0 11 8.5 31t25.5 20h513q17 0 25.5 -20t8.5 -31q0 -37 -33 -37t-72 -8t-66.5 -28.5t-27.5 -57.5l-1 -1060q0 -49 34 -62.5
t71 -13.5h285q47 0 90.5 54.5t79.5 133.5t60 151q11 33 48 33q44 0 40 -34l-49 -439h-997zM1051 777q0 56 40.5 95.5t99.5 39.5t100 -39.5t41 -95.5t-41 -99t-100 -43t-99.5 43t-40.5 99z" />
    <glyph glyph-name="ldot" unicode="&#x140;" horiz-adv-x="861" 
d="M73 0q-16 0 -26.5 12.5t-10.5 28.5q0 33 33 37q37 4 77 17.5t40 46.5l1 1197q0 62 -29 85t-67 28t-65 12q-10 5 -17 13t-7 27q0 12 6 28t18 17q100 6 186 7t129 2q8 0 18 -8t12 -32v-1343q0 -43 20.5 -62.5t49 -25.5t52.5 -9q36 -4 36 -34q0 -18 -10.5 -31t-28.5 -13
h-417zM522 727q0 56 40.5 95.5t99.5 39.5t100 -39.5t41 -95.5t-41 -99t-100 -43t-99.5 43t-40.5 99z" />
    <glyph glyph-name="Lslash" unicode="&#x141;" horiz-adv-x="1236" 
d="M128 0q-17 0 -25.5 20t-8.5 31q0 33 33 37q48 4 91.5 17.5t43.5 46.5l1 547l-116 -47q-11 -4 -24 13.5t-18 28.5q-6 15 -6 29q0 20 9 29l155 62v420q0 43 -23 62t-55.5 25.5t-63.5 9.5q-21 2 -28.5 8.5t-7.5 28.5q0 11 8.5 31t25.5 20h513q17 0 25.5 -20t8.5 -31
q0 -37 -33 -37t-72 -8t-66.5 -28.5t-27.5 -57.5v-340l254 102q11 4 21 -4t14 -19q10 -23 10 -53q0 -18 -6 -24l-293 -118l-1 -604q0 -49 34 -62.5t71 -13.5h285q47 0 90.5 54.5t79.5 133.5t60 151q11 33 48 33q44 0 40 -34l-49 -439h-997z" />
    <glyph glyph-name="lslash" unicode="&#x142;" horiz-adv-x="586" 
d="M105 0q-16 0 -26.5 12.5t-10.5 28.5q0 33 33 37q37 4 77 17.5t40 46.5v576l-114 -55q-11 -4 -24 13.5t-18 28.5q-6 15 -6 29q0 20 9 29l154 74v502q0 62 -29 85t-67 28t-65 12q-10 5 -17 13t-7 27q0 12 6 28t18 17q100 6 186 7t129 2q8 0 18 -8t12 -32v-592l151 73
q11 4 21 -4t14 -19q10 -23 10 -53q0 -18 -6 -24l-190 -92v-632q0 -43 20.5 -62.5t49 -25.5t52.5 -9q36 -4 36 -34q0 -18 -10.5 -31t-28.5 -13h-417z" />
    <glyph glyph-name="Nacute" unicode="&#x143;" horiz-adv-x="1571" 
d="M96 0q-17 0 -25.5 20t-8.5 31q0 33 33 37q32 3 68 10t61.5 24.5t25.5 49.5v1062q0 43 -27.5 62t-65 25.5t-68.5 9.5q-21 2 -28.5 8.5t-7.5 28.5q0 11 8.5 31t25.5 20h338l777 -1106h12v921q0 43 -32.5 62t-74.5 25.5t-73 9.5q-21 2 -28.5 8.5t-7.5 28.5q0 11 8.5 31
t25.5 20h455q17 0 25.5 -20t8.5 -31q0 -33 -33 -37q-30 -3 -71.5 -9.5t-72.5 -25.5t-31 -62v-1121q0 -19 2 -31.5t4 -41.5q3 -42 -18 -56t-42 -14q-36 0 -54 22l-839 1162h-17v-969q0 -43 30 -62t70 -25t70 -10q21 -2 28.5 -8t7.5 -29q0 -11 -8.5 -31t-25.5 -20h-425z
M711 1526l-56 58q123 142 195 246t95 126q16 15 38 25.5t47 10.5q40 0 72 -33q28 -31 28 -66q0 -24 -11 -45t-27 -37q-23 -22 -125.5 -85t-255.5 -200z" />
    <glyph glyph-name="nacute" unicode="&#x144;" horiz-adv-x="1210" 
d="M103 0q-17 0 -25.5 15t-8.5 26q0 33 33 37q37 5 76.5 18t39.5 46v636q0 62 -27 85t-62 28t-60 12q-10 5 -17 13t-7 27q0 12 6 28t18 17q97 6 175.5 7.5t119.5 1.5q8 0 18 -8t12 -32v-112q18 18 73.5 58.5t136.5 75.5t175 35q65 0 119.5 -18.5t87.5 -72t33 -157.5v-591
q0 -48 24 -67t56 -22.5t57 -7.5q17 -2 25 -8.5t8 -28.5q0 -11 -8.5 -26t-25.5 -15h-427q-17 0 -25.5 15t-8.5 26q0 16 6 26t25 11q32 2 69 19t37 45v653q0 17 -7.5 41t-35 42t-86.5 18q-62 0 -120 -20.5t-104 -49.5t-74 -55v-596q0 -64 37.5 -78.5t74.5 -18.5q21 -2 28.5 -8
t7.5 -29q0 -11 -8.5 -26t-25.5 -15h-415zM520 1094l-56 58q123 142 195 246t95 126q16 15 38 25.5t47 10.5q18 0 37 -7.5t35 -25.5q28 -31 28 -66q0 -24 -11 -45t-27 -37q-23 -23 -125.5 -85.5t-255.5 -199.5z" />
    <glyph glyph-name="uni0145" unicode="&#x145;" horiz-adv-x="1571" 
d="M96 0q-17 0 -25.5 20t-8.5 31q0 33 33 37q32 3 68 10t61.5 24.5t25.5 49.5v1062q0 43 -27.5 62t-65 25.5t-68.5 9.5q-21 2 -28.5 8.5t-7.5 28.5q0 11 8.5 31t25.5 20h338l777 -1106h12v921q0 43 -32.5 62t-74.5 25.5t-73 9.5q-21 2 -28.5 8.5t-7.5 28.5q0 11 8.5 31
t25.5 20h455q17 0 25.5 -20t8.5 -31q0 -33 -33 -37q-30 -3 -71.5 -9.5t-72.5 -25.5t-31 -62v-1121q0 -19 2 -31.5t4 -41.5q3 -42 -18 -56t-42 -14q-36 0 -54 22l-839 1162h-17v-969q0 -43 30 -62t70 -25t70 -10q21 -2 28.5 -8t7.5 -29q0 -11 -8.5 -31t-25.5 -20h-425z
M791 -151q54 0 93 -43t39 -132q0 -64 -22.5 -125.5t-57.5 -108.5t-75 -70q-10 -5 -22 -5q-15 0 -28.5 7.5t-13.5 20.5q0 14 14 29q20 21 36.5 66t16.5 102q-40 0 -76.5 33.5t-36.5 94.5q0 69 40.5 100t92.5 31z" />
    <glyph glyph-name="uni0146" unicode="&#x146;" horiz-adv-x="1210" 
d="M103 0q-17 0 -25.5 15t-8.5 26q0 33 33 37q37 5 76.5 18t39.5 46v636q0 62 -27 85t-62 28t-60 12q-10 5 -17 13t-7 27q0 12 6 28t18 17q97 6 175.5 7.5t119.5 1.5q8 0 18 -8t12 -32v-112q18 18 73.5 58.5t136.5 75.5t175 35q65 0 119.5 -18.5t87.5 -72t33 -157.5v-591
q0 -48 24 -67t56 -22.5t57 -7.5q17 -2 25 -8.5t8 -28.5q0 -11 -8.5 -26t-25.5 -15h-427q-17 0 -25.5 15t-8.5 26q0 16 6 26t25 11q32 2 69 19t37 45v653q0 17 -7.5 41t-35 42t-86.5 18q-62 0 -120 -20.5t-104 -49.5t-74 -55v-596q0 -64 37.5 -78.5t74.5 -18.5q21 -2 28.5 -8
t7.5 -29q0 -11 -8.5 -26t-25.5 -15h-415zM614 -151q62 0 102 -42t40 -124q0 -88 -56 -167t-177 -119l-30 58q52 18 84.5 51t43.5 88q-59 4 -94.5 40t-35.5 84q0 62 37 96.5t86 34.5z" />
    <glyph glyph-name="Ncaron" unicode="&#x147;" horiz-adv-x="1571" 
d="M96 0q-17 0 -25.5 20t-8.5 31q0 33 33 37q32 3 68 10t61.5 24.5t25.5 49.5v1062q0 43 -27.5 62t-65 25.5t-68.5 9.5q-21 2 -28.5 8.5t-7.5 28.5q0 11 8.5 31t25.5 20h338l777 -1106h12v921q0 43 -32.5 62t-74.5 25.5t-73 9.5q-21 2 -28.5 8.5t-7.5 28.5q0 11 8.5 31
t25.5 20h455q17 0 25.5 -20t8.5 -31q0 -33 -33 -37q-30 -3 -71.5 -9.5t-72.5 -25.5t-31 -62v-1121q0 -19 2 -31.5t4 -41.5q3 -42 -18 -56t-42 -14q-36 0 -54 22l-839 1162h-17v-969q0 -43 30 -62t70 -25t70 -10q21 -2 28.5 -8t7.5 -29q0 -11 -8.5 -31t-25.5 -20h-425z
M807 1555q-36 0 -57 15t-38 36l-245 348h118l222 -221l227 221h113l-245 -339q-16 -25 -37 -42.5t-58 -17.5z" />
    <glyph glyph-name="ncaron" unicode="&#x148;" horiz-adv-x="1210" 
d="M103 0q-17 0 -25.5 15t-8.5 26q0 33 33 37q37 5 76.5 18t39.5 46v636q0 62 -27 85t-62 28t-60 12q-10 5 -17 13t-7 27q0 12 6 28t18 17q97 6 175.5 7.5t119.5 1.5q8 0 18 -8t12 -32v-112q18 18 73.5 58.5t136.5 75.5t175 35q65 0 119.5 -18.5t87.5 -72t33 -157.5v-591
q0 -48 24 -67t56 -22.5t57 -7.5q17 -2 25 -8.5t8 -28.5q0 -11 -8.5 -26t-25.5 -15h-427q-17 0 -25.5 15t-8.5 26q0 16 6 26t25 11q32 2 69 19t37 45v653q0 17 -7.5 41t-35 42t-86.5 18q-62 0 -120 -20.5t-104 -49.5t-74 -55v-596q0 -64 37.5 -78.5t74.5 -18.5q21 -2 28.5 -8
t7.5 -29q0 -11 -8.5 -26t-25.5 -15h-415zM621 1111q-36 0 -56.5 14.5t-37.5 35.5l-245 358h118l222 -231l227 231h113l-248 -358q-16 -18 -36 -34t-57 -16z" />
    <glyph glyph-name="Eng" unicode="&#x14a;" horiz-adv-x="1571" 
d="M913 -449q-96 0 -136 43.5t-40 95.5q0 56 43.5 79t89.5 23l77 -148q37 6 83 36.5t82.5 104.5t43.5 208l-841 1147h-17v-955q0 -43 23 -62.5t56 -25.5t63 -9q21 -2 28.5 -8t7.5 -29q0 -11 -8.5 -31t-25.5 -20h-375q-17 0 -25.5 20t-8.5 31q0 33 33 37q48 4 91.5 20
t43.5 64v1062q0 43 -22.5 62.5t-55 26t-63.5 8.5q-21 2 -28.5 8.5t-7.5 28.5q0 11 8.5 31t25.5 20h318l779 -1086h12v901q0 43 -25.5 62.5t-60.5 26t-66 8.5q-21 2 -28.5 8.5t-7.5 28.5q0 11 8.5 31t25.5 20h405q17 0 25.5 -20t8.5 -31q0 -33 -33 -37q-30 -2 -66.5 -9
t-62.5 -20t-26 -35v-1223q0 -91 -25 -178.5t-71 -158.5t-110.5 -113.5t-144.5 -42.5z" />
    <glyph glyph-name="eng" unicode="&#x14b;" horiz-adv-x="1185" 
d="M636 -449q-96 0 -136 43.5t-40 95.5q0 39 21.5 63.5t49.5 36t46 11.5q9 0 14.5 -7t13.5 -20l66 -121q55 0 93 23t58 97t20 227v778q0 58 -30.5 88t-119.5 30q-62 0 -120 -20.5t-104 -49.5t-74 -55v-596q0 -64 37.5 -78.5t74.5 -18.5q21 -2 28.5 -8t7.5 -29
q0 -11 -8.5 -26t-25.5 -15h-415q-17 0 -25.5 15t-8.5 26q0 33 33 37q37 5 76.5 18t39.5 46v636q0 62 -27 85t-62 28t-60 12q-10 5 -17 13t-7 27q0 12 6 28t18 17q97 6 175.5 7.5t119.5 1.5q8 0 18 -8t12 -32v-102q18 18 74 56t136.5 70.5t171.5 32.5q67 0 127 -18.5
t98.5 -72t38.5 -157.5v-725q0 -137 -40 -248.5t-126.5 -176.5t-227.5 -65z" />
    <glyph glyph-name="Omacron" unicode="&#x14c;" horiz-adv-x="1524" 
d="M759 -29q-158 0 -281.5 58t-209 160.5t-130 237.5t-44.5 289q0 205 81 371t232 264t362 98t358.5 -98t225 -264t77.5 -371q0 -154 -45.5 -289t-132 -237.5t-211 -160.5t-282.5 -58zM763 65q166 0 256 78.5t125.5 224t35.5 346.5t-36.5 345t-128.5 220.5t-257 76.5
q-166 0 -256.5 -76.5t-125 -220.5t-34.5 -345t36.5 -346.5t128 -224t256.5 -78.5zM454 1607v141h588v-141h-588z" />
    <glyph glyph-name="omacron" unicode="&#x14d;" horiz-adv-x="1104" 
d="M77 492q0 144 57.5 262.5t165 189t257.5 70.5t255 -70.5t160 -189t55 -262.5t-56.5 -262t-163.5 -188.5t-257 -70.5t-255.5 70.5t-161.5 188.5t-56 262zM292 492q0 -201 55 -313.5t206 -112.5t204 112.5t53 313.5t-55 313.5t-206 112.5t-204 -113t-53 -313zM251 1156v141
h588v-141h-588z" />
    <glyph glyph-name="Obreve" unicode="&#x14e;" horiz-adv-x="1524" 
d="M759 -29q-158 0 -281.5 58t-209 160.5t-130 237.5t-44.5 289q0 205 81 371t232 264t362 98t358.5 -98t225 -264t77.5 -371q0 -154 -45.5 -289t-132 -237.5t-211 -160.5t-282.5 -58zM763 65q166 0 256 78.5t125.5 224t35.5 346.5t-36.5 345t-128.5 220.5t-257 76.5
q-166 0 -256.5 -76.5t-125 -220.5t-34.5 -345t36.5 -346.5t128 -224t256.5 -78.5zM748 1599q-44 0 -100 13.5t-108 51t-87 109.5t-38 189h113q3 -49 28 -98.5t72.5 -83t119.5 -33.5t120 33.5t72.5 83t27.5 98.5h113q-3 -117 -38 -189t-87 -109.5t-108 -51t-100 -13.5z" />
    <glyph glyph-name="obreve" unicode="&#x14f;" horiz-adv-x="1104" 
d="M77 492q0 144 57.5 262.5t165 189t257.5 70.5t255 -70.5t160 -189t55 -262.5t-56.5 -262t-163.5 -188.5t-257 -70.5t-255.5 70.5t-161.5 188.5t-56 262zM292 492q0 -201 55 -313.5t206 -112.5t204 112.5t53 313.5t-55 313.5t-206 112.5t-204 -113t-53 -313zM545 1184
q-44 0 -100 13.5t-108 51t-87 109.5t-38 189h113q3 -49 28 -98.5t72.5 -83t119.5 -33.5t120 33.5t72.5 83t27.5 98.5h113q-3 -117 -38 -189t-87 -109.5t-108 -51t-100 -13.5z" />
    <glyph glyph-name="Ohungarumlaut" unicode="&#x150;" horiz-adv-x="1524" 
d="M759 -29q-158 0 -281.5 58t-209 160.5t-130 237.5t-44.5 289q0 205 81 371t232 264t362 98t358.5 -98t225 -264t77.5 -371q0 -154 -45.5 -289t-132 -237.5t-211 -160.5t-282.5 -58zM763 65q166 0 256 78.5t125.5 224t35.5 346.5t-36.5 345t-128.5 220.5t-257 76.5
q-166 0 -256.5 -76.5t-125 -220.5t-34.5 -345t36.5 -346.5t128 -224t256.5 -78.5zM917 1526l-64 48q106 161 165.5 275t78.5 140q15 20 37.5 34.5t49.5 14.5q31 0 60 -22q38 -28 38 -70q0 -20 -8.5 -39t-20.5 -35q-13 -17 -62 -58t-120.5 -111.5t-153.5 -176.5zM553 1526
l-64 48q106 161 156 275.5t69 139.5q15 20 37.5 34.5t49.5 14.5q32 0 59 -22q36 -28 36 -67q0 -21 -9 -40.5t-21 -36.5q-19 -26 -105 -106.5t-208 -239.5z" />
    <glyph glyph-name="ohungarumlaut" unicode="&#x151;" horiz-adv-x="1104" 
d="M77 492q0 144 57.5 262.5t165 189t257.5 70.5t255 -70.5t160 -189t55 -262.5t-56.5 -262t-163.5 -188.5t-257 -70.5t-255.5 70.5t-161.5 188.5t-56 262zM292 492q0 -201 55 -313.5t206 -112.5t204 112.5t53 313.5t-55 313.5t-206 112.5t-204 -113t-53 -313zM688 1121
l-64 44q106 149 165.5 254t78.5 129q15 19 37.5 32t49.5 13q32 0 60 -20q38 -27 38 -65q0 -19 -8.5 -36.5t-20.5 -31.5q-13 -16 -62 -54t-120.5 -102.5t-153.5 -162.5zM324 1121l-64 44q106 149 156 254.5t69 128.5q15 18 37.5 31.5t49.5 13.5q32 0 59 -20q36 -26 36 -62
q0 -19 -9 -37.5t-21 -33.5q-19 -24 -105 -98.5t-208 -220.5z" />
    <glyph glyph-name="OE" unicode="&#x152;" horiz-adv-x="2044" 
d="M725 -29q-152 0 -269.5 58t-198 160.5t-122 237.5t-41.5 289q0 205 78 371t222 264t341 98q83 0 129.5 -7.5t77 -15t65.5 -7.5l809 -1l35 -325q0 -17 -15 -25.5t-26 -8.5q-26 0 -44 16.5t-26 35.5q-11 29 -38.5 78.5t-60.5 90t-62 40.5l-383 1l1 -543h246q26 4 47 38
t34 73.5t15 59.5t16 26.5t30 6.5q12 0 26.5 -8.5t14.5 -25.5v-442q0 -17 -15 -25.5t-26 -8.5q-16 0 -31 7t-17 26q-2 22 -16.5 64t-37 77.5t-50.5 35.5h-236l-1 -468q0 -63 30.5 -88t70.5 -25h320q47 0 96.5 44t85 105.5t39.5 113.5q2 20 27 31.5t41 11.5q12 0 30.5 -8.5
t18.5 -25.5l-69 -372l-763 -1q-68 0 -114 -4.5t-85.5 -10t-85.5 -10t-113 -4.5zM729 65q102 0 166 14.5t93 61.5l1 1133v1q-22 29 -81.5 57t-183.5 28q-151 0 -235.5 -77.5t-118.5 -222.5t-34 -346t32 -346.5t117.5 -224t243.5 -78.5z" />
    <glyph glyph-name="oe" unicode="&#x153;" horiz-adv-x="1672" 
d="M532 -29q-147 0 -250 70.5t-157.5 188.5t-54.5 262t56 262.5t161 189t252 70.5q116 0 203 -45.5t144 -123.5q62 83 149.5 126t184.5 43q182 0 267 -87.5t110 -231.5q8 -44 11.5 -92t3.5 -100h-622q1 -158 40 -252t98 -135t120 -41q76 0 138 34.5t96 98.5l6 12t13 4
l50 -23q11 -4 11 -12q0 -4 -2 -8.5t-4 -7.5q-43 -89 -124.5 -145.5t-209.5 -56.5q-118 0 -204 41.5t-141 119.5q-58 -74 -145 -117.5t-200 -43.5zM535 66q145 0 196 115t51 311q0 197 -53 311.5t-198 114.5q-97 0 -150.5 -52t-74.5 -147.5t-21 -226.5q0 -196 52.5 -311
t197.5 -115zM992 589l398 6q0 174 -47 248.5t-124 74.5q-65 0 -114 -23t-78 -93.5t-35 -212.5z" />
    <glyph glyph-name="Racute" unicode="&#x154;" horiz-adv-x="1437" 
d="M130 0q-17 0 -25.5 20t-8.5 31q0 33 33 37q48 4 96.5 17.5t48.5 46.5l1 1082q0 43 -23 62t-55.5 25.5t-63.5 9.5q-21 2 -28.5 8.5t-7.5 28.5q0 11 8.5 31t25.5 20q60 0 103 0.5t83 0.5q84 0 133 2t96 4.5t124 1.5q141 -1 256 -37.5t182.5 -118.5t67.5 -222
q0 -305 -322 -392q99 -10 155 -55.5t89 -112t61 -141t71 -143.5q34 -65 74 -89t77 -28q36 -4 36 -43q0 -11 -8.5 -28.5t-25.5 -17.5h-267q-44 0 -75.5 45t-57.5 116.5t-53.5 151t-63 151t-86.5 116.5t-125 45h-178v-440q0 -43 28 -62.5t68 -25.5t76 -9q21 -2 28.5 -8
t7.5 -29q0 -11 -8.5 -31t-25.5 -20h-521zM478 711h168q83 0 154 26t115 93t44 189t-44 190t-120 95.5t-172 27.5h-144zM620 1526l-56 58q123 142 195 246t95 126q16 15 38 25.5t47 10.5q40 0 72 -33q28 -31 28 -66q0 -24 -11 -45t-27 -37q-23 -22 -125.5 -85t-255.5 -200z
" />
    <glyph glyph-name="racute" unicode="&#x155;" horiz-adv-x="839" 
d="M119 0q-17 0 -25.5 15t-8.5 26q0 33 33 37q41 4 78.5 17.5t37.5 46.5v636q0 62 -26 85t-61 28t-62 12q-10 5 -17 13t-7 27q0 12 6.5 27t17.5 16q100 6 176 11t119 6q8 0 18 -8t12 -32v-145q47 73 106.5 134.5t149.5 61.5q64 0 96 -21t43 -53t11 -67q0 -38 -23.5 -62.5
t-54 -36.5t-50.5 -12l-95 120q-45 0 -96 -50t-77 -116v-541q0 -43 28.5 -62.5t69 -25.5t74.5 -9q21 -2 28.5 -8t7.5 -29q0 -11 -8.5 -26t-25.5 -15h-475zM325 1094l-56 58q123 142 195 246t95 126q16 15 38 25.5t47 10.5q18 0 37 -7.5t35 -25.5q28 -31 28 -66q0 -24 -11 -45
t-27 -37q-23 -23 -125.5 -85.5t-255.5 -199.5z" />
    <glyph glyph-name="uni0156" unicode="&#x156;" horiz-adv-x="1437" 
d="M130 0q-17 0 -25.5 20t-8.5 31q0 33 33 37q48 4 96.5 17.5t48.5 46.5l1 1082q0 43 -23 62t-55.5 25.5t-63.5 9.5q-21 2 -28.5 8.5t-7.5 28.5q0 11 8.5 31t25.5 20q60 0 103 0.5t83 0.5q84 0 133 2t96 4.5t124 1.5q141 -1 256 -37.5t182.5 -118.5t67.5 -222
q0 -305 -322 -392q99 -10 155 -55.5t89 -112t61 -141t71 -143.5q34 -65 74 -89t77 -28q36 -4 36 -43q0 -11 -8.5 -28.5t-25.5 -17.5h-267q-44 0 -75.5 45t-57.5 116.5t-53.5 151t-63 151t-86.5 116.5t-125 45h-178v-440q0 -43 28 -62.5t68 -25.5t76 -9q21 -2 28.5 -8
t7.5 -29q0 -11 -8.5 -31t-25.5 -20h-521zM478 711h168q83 0 154 26t115 93t44 189t-44 190t-120 95.5t-172 27.5h-144zM718 -151q54 0 93 -43t39 -132q0 -64 -22.5 -125.5t-57.5 -108.5t-75 -70q-10 -5 -22 -5q-15 0 -28.5 7.5t-13.5 20.5q0 14 14 29q20 21 36.5 66
t16.5 102q-40 0 -76.5 33.5t-36.5 94.5q0 69 40.5 100t92.5 31z" />
    <glyph glyph-name="uni0157" unicode="&#x157;" horiz-adv-x="839" 
d="M119 0q-17 0 -25.5 15t-8.5 26q0 33 33 37q41 4 78.5 17.5t37.5 46.5v636q0 62 -26 85t-61 28t-62 12q-10 5 -17 13t-7 27q0 12 6.5 27t17.5 16q100 6 176 11t119 6q8 0 18 -8t12 -32v-145q47 73 106.5 134.5t149.5 61.5q64 0 96 -21t43 -53t11 -67q0 -38 -23.5 -62.5
t-54 -36.5t-50.5 -12l-95 120q-45 0 -96 -50t-77 -116v-541q0 -43 28.5 -62.5t69 -25.5t74.5 -9q21 -2 28.5 -8t7.5 -29q0 -11 -8.5 -26t-25.5 -15h-475zM340 -151q62 0 102 -42t40 -124q0 -88 -56 -167t-177 -119l-30 58q52 18 84.5 51t43.5 88q-59 4 -94.5 40t-35.5 84
q0 62 37 96.5t86 34.5z" />
    <glyph glyph-name="Rcaron" unicode="&#x158;" horiz-adv-x="1437" 
d="M130 0q-17 0 -25.5 20t-8.5 31q0 33 33 37q48 4 96.5 17.5t48.5 46.5l1 1082q0 43 -23 62t-55.5 25.5t-63.5 9.5q-21 2 -28.5 8.5t-7.5 28.5q0 11 8.5 31t25.5 20q60 0 103 0.5t83 0.5q84 0 133 2t96 4.5t124 1.5q141 -1 256 -37.5t182.5 -118.5t67.5 -222
q0 -305 -322 -392q99 -10 155 -55.5t89 -112t61 -141t71 -143.5q34 -65 74 -89t77 -28q36 -4 36 -43q0 -11 -8.5 -28.5t-25.5 -17.5h-267q-44 0 -75.5 45t-57.5 116.5t-53.5 151t-63 151t-86.5 116.5t-125 45h-178v-440q0 -43 28 -62.5t68 -25.5t76 -9q21 -2 28.5 -8
t7.5 -29q0 -11 -8.5 -31t-25.5 -20h-521zM478 711h168q83 0 154 26t115 93t44 189t-44 190t-120 95.5t-172 27.5h-144zM716 1555q-36 0 -57 15t-38 36l-245 348h118l222 -221l227 221h113l-245 -339q-16 -25 -37 -42.5t-58 -17.5z" />
    <glyph glyph-name="rcaron" unicode="&#x159;" horiz-adv-x="839" 
d="M119 0q-17 0 -25.5 15t-8.5 26q0 33 33 37q41 4 78.5 17.5t37.5 46.5v636q0 62 -26 85t-61 28t-62 12q-10 5 -17 13t-7 27q0 12 6.5 27t17.5 16q100 6 176 11t119 6q8 0 18 -8t12 -32v-145q47 73 106.5 134.5t149.5 61.5q64 0 96 -21t43 -53t11 -67q0 -38 -23.5 -62.5
t-54 -36.5t-50.5 -12l-95 120q-45 0 -96 -50t-77 -116v-541q0 -43 28.5 -62.5t69 -25.5t74.5 -9q21 -2 28.5 -8t7.5 -29q0 -11 -8.5 -26t-25.5 -15h-475zM426 1111q-36 0 -56.5 14.5t-37.5 35.5l-245 358h118l222 -231l227 231h113l-248 -358q-16 -18 -36 -34t-57 -16z" />
    <glyph glyph-name="Sacute" unicode="&#x15a;" horiz-adv-x="1149" 
d="M626 -30q-115 0 -176.5 29t-95.5 46q-28 15 -46 26t-35 11t-31 -17q-18 -22 -37 -31.5t-34 -9.5q-19 0 -30.5 13.5t-10.5 34.5q2 20 2 41v42q0 99 -11 183t-11 131q0 26 15.5 38.5t33.5 12.5q43 0 53 -42q6 -25 20.5 -71.5t54.5 -132.5q36 -76 91.5 -123.5t116.5 -69.5
t114 -22q61 0 118 19t94.5 71t37.5 150q0 74 -45.5 132.5t-118 106.5t-152.5 88q-92 47 -179.5 104.5t-145 138.5t-60.5 200q-3 103 35 175.5t100 117.5t136 66t143 21q119 0 182 -25.5t83 -25.5q24 0 33.5 9t23.5 18q11 7 27 7q20 0 37.5 -11.5t17.5 -26.5q0 -91 13 -172
t13 -138q0 -31 -16 -43.5t-36 -12.5q-15 0 -28.5 7t-15.5 16q-28 161 -117.5 240t-199.5 79q-104 0 -171 -53.5t-67 -187.5q0 -64 46.5 -118.5t119 -102.5t149.5 -93q65 -38 134.5 -80.5t129.5 -95t97.5 -118.5t37.5 -150q0 -130 -59 -219.5t-158.5 -135.5t-221.5 -46z
M491 1526l-56 58q123 142 195 246t95 126q16 15 38 25.5t47 10.5q40 0 72 -33q28 -31 28 -66q0 -24 -11 -45t-27 -37q-23 -22 -125.5 -85t-255.5 -200z" />
    <glyph glyph-name="sacute" unicode="&#x15b;" horiz-adv-x="885" 
d="M439 -28q-82 0 -126 15t-72 23q-42 13 -60 13q-19 0 -28.5 -6.5t-30.5 -6.5q-40 0 -40 34q0 43 -3.5 95.5t-7 100.5t-3.5 76q0 23 10.5 33t23.5 10q27 0 33 -22t16 -54.5t48 -104.5q39 -71 105 -96t122 -25q87 0 147 37t60 107q0 61 -40.5 98.5t-101.5 66t-123 59.5
q-67 34 -125.5 74.5t-95 100t-36.5 149.5q0 89 52.5 148t129 88t147.5 29q95 0 139.5 -19.5t69.5 -19.5q22 0 25.5 11.5t9.5 21.5q12 21 32 21q13 0 23 -9t10 -26q0 -9 -1.5 -46.5t-1.5 -82.5q0 -47 3 -77.5t3 -44.5q0 -21 -8.5 -29t-19.5 -8q-25 0 -30 16q-17 40 -43.5 88
t-74.5 83t-132 35q-82 0 -125 -36t-43 -97q0 -68 71.5 -114t166.5 -93q78 -37 146.5 -77.5t111 -94.5t42.5 -133q0 -139 -98.5 -225t-276.5 -86zM342 1094l-56 58q123 142 195 246t95 126q16 15 38 25.5t47 10.5q18 0 37 -7.5t35 -25.5q28 -31 28 -66q0 -24 -11 -45t-27 -37
q-23 -23 -125.5 -85.5t-255.5 -199.5z" />
    <glyph glyph-name="Scircumflex" unicode="&#x15c;" horiz-adv-x="1149" 
d="M626 -30q-115 0 -176.5 29t-95.5 46q-28 15 -46 26t-35 11t-31 -17q-18 -22 -37 -31.5t-34 -9.5q-19 0 -30.5 13.5t-10.5 34.5q2 20 2 41v42q0 99 -11 183t-11 131q0 26 15.5 38.5t33.5 12.5q43 0 53 -42q6 -25 20.5 -71.5t54.5 -132.5q36 -76 91.5 -123.5t116.5 -69.5
t114 -22q61 0 118 19t94.5 71t37.5 150q0 74 -45.5 132.5t-118 106.5t-152.5 88q-92 47 -179.5 104.5t-145 138.5t-60.5 200q-3 103 35 175.5t100 117.5t136 66t143 21q119 0 182 -25.5t83 -25.5q24 0 33.5 9t23.5 18q11 7 27 7q20 0 37.5 -11.5t17.5 -26.5q0 -91 13 -172
t13 -138q0 -31 -16 -43.5t-36 -12.5q-15 0 -28.5 7t-15.5 16q-28 161 -117.5 240t-199.5 79q-104 0 -171 -53.5t-67 -187.5q0 -64 46.5 -118.5t119 -102.5t149.5 -93q65 -38 134.5 -80.5t129.5 -95t97.5 -118.5t37.5 -150q0 -130 -59 -219.5t-158.5 -135.5t-221.5 -46z
M247 1545l245 348q17 21 38 36t57 15q37 0 58 -17.5t37 -42.5l245 -339h-113l-227 221l-222 -221h-118z" />
    <glyph glyph-name="scircumflex" unicode="&#x15d;" horiz-adv-x="885" 
d="M439 -28q-82 0 -126 15t-72 23q-42 13 -60 13q-19 0 -28.5 -6.5t-30.5 -6.5q-40 0 -40 34q0 43 -3.5 95.5t-7 100.5t-3.5 76q0 23 10.5 33t23.5 10q27 0 33 -22t16 -54.5t48 -104.5q39 -71 105 -96t122 -25q87 0 147 37t60 107q0 61 -40.5 98.5t-101.5 66t-123 59.5
q-67 34 -125.5 74.5t-95 100t-36.5 149.5q0 89 52.5 148t129 88t147.5 29q95 0 139.5 -19.5t69.5 -19.5q22 0 25.5 11.5t9.5 21.5q12 21 32 21q13 0 23 -9t10 -26q0 -9 -1.5 -46.5t-1.5 -82.5q0 -47 3 -77.5t3 -44.5q0 -21 -8.5 -29t-19.5 -8q-25 0 -30 16q-17 40 -43.5 88
t-74.5 83t-132 35q-82 0 -125 -36t-43 -97q0 -68 71.5 -114t166.5 -93q78 -37 146.5 -77.5t111 -94.5t42.5 -133q0 -139 -98.5 -225t-276.5 -86zM104 1110l245 388q17 21 38 36t57 15q37 0 58 -17.5t37 -42.5l245 -379h-113l-227 261l-222 -261h-118z" />
    <glyph glyph-name="Scedilla" unicode="&#x15e;" horiz-adv-x="1149" 
d="M626 -30q-115 0 -176.5 29t-95.5 46q-28 15 -46 26t-35 11t-31 -17q-18 -22 -37 -31.5t-34 -9.5q-19 0 -30.5 13.5t-10.5 34.5q2 20 2 41v42q0 99 -11 183t-11 131q0 26 15.5 38.5t33.5 12.5q43 0 53 -42q6 -25 20.5 -71.5t54.5 -132.5q36 -76 91.5 -123.5t116.5 -69.5
t114 -22q61 0 118 19t94.5 71t37.5 150q0 74 -45.5 132.5t-118 106.5t-152.5 88q-92 47 -179.5 104.5t-145 138.5t-60.5 200q-3 103 35 175.5t100 117.5t136 66t143 21q119 0 182 -25.5t83 -25.5q24 0 33.5 9t23.5 18q11 7 27 7q20 0 37.5 -11.5t17.5 -26.5q0 -91 13 -172
t13 -138q0 -31 -16 -43.5t-36 -12.5q-15 0 -28.5 7t-15.5 16q-28 161 -117.5 240t-199.5 79q-104 0 -171 -53.5t-67 -187.5q0 -64 46.5 -118.5t119 -102.5t149.5 -93q65 -38 134.5 -80.5t129.5 -95t97.5 -118.5t37.5 -150q0 -130 -59 -219.5t-158.5 -135.5t-221.5 -46z
M561 -488q-64 0 -111 15.5t-74 33.5q-12 8 -5 22q8 16 17 33t15 28q6 13 22 7q17 -6 46.5 -15.5t75.5 -9.5q50 0 83.5 25t33.5 68q0 37 -38 67.5t-118 31.5l33 200h117l-36 -139q100 -10 154.5 -58t54.5 -113q0 -71 -65 -133.5t-205 -62.5z" />
    <glyph glyph-name="scedilla" unicode="&#x15f;" horiz-adv-x="885" 
d="M439 -28q-82 0 -126 15t-72 23q-42 13 -60 13q-19 0 -28.5 -6.5t-30.5 -6.5q-40 0 -40 34q0 43 -3.5 95.5t-7 100.5t-3.5 76q0 23 10.5 33t23.5 10q27 0 33 -22t16 -54.5t48 -104.5q39 -71 105 -96t122 -25q87 0 147 37t60 107q0 61 -40.5 98.5t-101.5 66t-123 59.5
q-67 34 -125.5 74.5t-95 100t-36.5 149.5q0 89 52.5 148t129 88t147.5 29q95 0 139.5 -19.5t69.5 -19.5q22 0 25.5 11.5t9.5 21.5q12 21 32 21q13 0 23 -9t10 -26q0 -9 -1.5 -46.5t-1.5 -82.5q0 -47 3 -77.5t3 -44.5q0 -21 -8.5 -29t-19.5 -8q-25 0 -30 16q-17 40 -43.5 88
t-74.5 83t-132 35q-82 0 -125 -36t-43 -97q0 -68 71.5 -114t166.5 -93q78 -37 146.5 -77.5t111 -94.5t42.5 -133q0 -139 -98.5 -225t-276.5 -86zM416 -488q-64 0 -111 15.5t-74 33.5q-12 8 -5 22q8 16 17 33t15 28q6 13 22 7q17 -6 46.5 -15.5t75.5 -9.5q50 0 83.5 25
t33.5 68q0 37 -38 67.5t-118 31.5l33 200h117l-36 -139q100 -10 154.5 -58t54.5 -113q0 -71 -65 -133.5t-205 -62.5z" />
    <glyph glyph-name="Scaron" unicode="&#x160;" horiz-adv-x="1149" 
d="M626 -30q-115 0 -176.5 29t-95.5 46q-28 15 -46 26t-35 11t-31 -17q-18 -22 -37 -31.5t-34 -9.5q-19 0 -30.5 13.5t-10.5 34.5q2 20 2 41v42q0 99 -11 183t-11 131q0 26 15.5 38.5t33.5 12.5q43 0 53 -42q6 -25 20.5 -71.5t54.5 -132.5q36 -76 91.5 -123.5t116.5 -69.5
t114 -22q61 0 118 19t94.5 71t37.5 150q0 74 -45.5 132.5t-118 106.5t-152.5 88q-92 47 -179.5 104.5t-145 138.5t-60.5 200q-3 103 35 175.5t100 117.5t136 66t143 21q119 0 182 -25.5t83 -25.5q24 0 33.5 9t23.5 18q11 7 27 7q20 0 37.5 -11.5t17.5 -26.5q0 -91 13 -172
t13 -138q0 -31 -16 -43.5t-36 -12.5q-15 0 -28.5 7t-15.5 16q-28 161 -117.5 240t-199.5 79q-104 0 -171 -53.5t-67 -187.5q0 -64 46.5 -118.5t119 -102.5t149.5 -93q65 -38 134.5 -80.5t129.5 -95t97.5 -118.5t37.5 -150q0 -130 -59 -219.5t-158.5 -135.5t-221.5 -46z
M587 1555q-36 0 -57 15t-38 36l-245 348h118l222 -221l227 221h113l-245 -339q-16 -25 -37 -42.5t-58 -17.5z" />
    <glyph glyph-name="scaron" unicode="&#x161;" horiz-adv-x="885" 
d="M439 -28q-82 0 -126 15t-72 23q-42 13 -60 13q-19 0 -28.5 -6.5t-30.5 -6.5q-40 0 -40 34q0 43 -3.5 95.5t-7 100.5t-3.5 76q0 23 10.5 33t23.5 10q27 0 33 -22t16 -54.5t48 -104.5q39 -71 105 -96t122 -25q87 0 147 37t60 107q0 61 -40.5 98.5t-101.5 66t-123 59.5
q-67 34 -125.5 74.5t-95 100t-36.5 149.5q0 89 52.5 148t129 88t147.5 29q95 0 139.5 -19.5t69.5 -19.5q22 0 25.5 11.5t9.5 21.5q12 21 32 21q13 0 23 -9t10 -26q0 -9 -1.5 -46.5t-1.5 -82.5q0 -47 3 -77.5t3 -44.5q0 -21 -8.5 -29t-19.5 -8q-25 0 -30 16q-17 40 -43.5 88
t-74.5 83t-132 35q-82 0 -125 -36t-43 -97q0 -68 71.5 -114t166.5 -93q78 -37 146.5 -77.5t111 -94.5t42.5 -133q0 -139 -98.5 -225t-276.5 -86zM443 1111q-36 0 -56.5 14.5t-37.5 35.5l-245 358h118l222 -231l227 231h113l-248 -358q-16 -18 -36 -34t-57 -16z" />
    <glyph glyph-name="uni0162" unicode="&#x162;" horiz-adv-x="1267" 
d="M326 0q-17 0 -25.5 20t-8.5 31q0 33 33 37q47 3 94.5 10.5t79 27t31.5 56.5l1 1138h-254q-43 0 -71 -40t-44.5 -96.5t-24 -108.5t-9.5 -76q-4 -33 -37 -33q-11 0 -31.5 8.5t-19.5 25.5q2 49 5.5 119.5t8.5 139t10 114.5t11 46h1118q6 0 11 -46t10 -114.5t8.5 -139
t4.5 -119.5q0 -17 -20 -25.5t-31 -8.5q-33 0 -37 33q-2 24 -9.5 76t-23.5 108.5t-44 96.5t-71 40h-253l-1 -1135q0 -43 33.5 -62.5t81 -25.5t87.5 -9q21 -2 28.5 -8t7.5 -29q0 -11 -8.5 -31t-25.5 -20h-615zM605 -488q-64 0 -111 15.5t-74 33.5q-12 8 -5 22q8 16 17 33
t15 28q6 13 22 7q17 -6 46.5 -15.5t75.5 -9.5q50 0 83.5 25t33.5 68q0 37 -38 67.5t-118 31.5l33 200h117l-36 -139q100 -10 154.5 -58t54.5 -113q0 -71 -65 -133.5t-205 -62.5z" />
    <glyph glyph-name="uni0163" unicode="&#x163;" horiz-adv-x="707" 
d="M424 -30q-135 0 -195 60.5t-60 192.5v684h-115q-12 1 -18 11.5t-6 22.5q0 43 28 43q64 7 105 34.5t69 87.5t51 162q3 15 14 19t29 4q20 0 24.5 -5t4.5 -19v-273h295q12 -1 18 -11.5t6 -22.5q0 -21 -8.5 -37t-19.5 -16h-291v-611q0 -85 17 -129.5t43 -61t51 -16.5
q69 0 109.5 13.5t77.5 38.5q10 7 20.5 -7t16.5 -32t-1 -24q-21 -18 -63 -43.5t-95 -45t-107 -19.5zM344 -488q-64 0 -111 15.5t-74 33.5q-12 8 -5 22q8 16 17 33t15 28q6 13 22 7q17 -6 46.5 -15.5t75.5 -9.5q50 0 83.5 25t33.5 68q0 37 -38 67.5t-118 31.5l33 200h117
l-36 -139q100 -10 154.5 -58t54.5 -113q0 -71 -65 -133.5t-205 -62.5z" />
    <glyph glyph-name="Tcaron" unicode="&#x164;" horiz-adv-x="1267" 
d="M326 0q-17 0 -25.5 20t-8.5 31q0 33 33 37q47 3 94.5 10.5t79 27t31.5 56.5l1 1138h-254q-43 0 -71 -40t-44.5 -96.5t-24 -108.5t-9.5 -76q-4 -33 -37 -33q-11 0 -31.5 8.5t-19.5 25.5q2 49 5.5 119.5t8.5 139t10 114.5t11 46h1118q6 0 11 -46t10 -114.5t8.5 -139
t4.5 -119.5q0 -17 -20 -25.5t-31 -8.5q-33 0 -37 33q-2 24 -9.5 76t-23.5 108.5t-44 96.5t-71 40h-253l-1 -1135q0 -43 33.5 -62.5t81 -25.5t87.5 -9q21 -2 28.5 -8t7.5 -29q0 -11 -8.5 -31t-25.5 -20h-615zM624 1555q-36 0 -57 15t-38 36l-245 348h118l222 -221l227 221
h113l-245 -339q-16 -25 -37 -42.5t-58 -17.5z" />
    <glyph glyph-name="tcaron" unicode="&#x165;" horiz-adv-x="707" 
d="M424 -30q-135 0 -195 60.5t-60 192.5v684h-115q-12 1 -18 11.5t-6 22.5q0 43 28 43q64 7 105 34.5t69 87.5t51 162q3 15 14 19t29 4q20 0 24.5 -5t4.5 -19v-273h295q12 -1 18 -11.5t6 -22.5q0 -21 -8.5 -37t-19.5 -16h-291v-611q0 -85 17 -129.5t43 -61t51 -16.5
q69 0 109.5 13.5t77.5 38.5q10 7 20.5 -7t16.5 -32t-1 -24q-21 -18 -63 -43.5t-95 -45t-107 -19.5zM588 1051l-55 40q40 63 57 108.5t18 85.5q1 72 -56 120q-43 36 -43 90q0 41 32 73t75 32q46 0 76.5 -26.5t46 -66t15.5 -78.5q0 -116 -53 -208.5t-113 -169.5z" />
    <glyph glyph-name="Tbar" unicode="&#x166;" horiz-adv-x="1267" 
d="M316 0q-17 0 -25.5 20t-8.5 31q0 33 33 37q47 3 94.5 10.5t79 27t31.5 56.5v404h-272q-12 1 -18 21.5t-6 32.5q0 43 24 53h272l1 627h-254q-43 0 -71 -40t-44.5 -96.5t-24 -108.5t-9.5 -76q-4 -33 -37 -33q-11 0 -31.5 8.5t-19.5 25.5q2 49 5.5 119.5t8.5 139t10 114.5
t11 46h1118q6 0 11 -46t10 -114.5t8.5 -139t4.5 -119.5q0 -17 -20 -25.5t-31 -8.5q-33 0 -37 33q-2 24 -9.5 76t-23.5 108.5t-44 96.5t-71 40h-253l-1 -627h263q12 -1 18 -11.5t6 -22.5q0 -19 -6.5 -43.5t-17.5 -29.5h-263v-401q0 -43 33.5 -62.5t81 -25.5t87.5 -9
q21 -2 28.5 -8t7.5 -29q0 -11 -8.5 -31t-25.5 -20h-615z" />
    <glyph glyph-name="tbar" unicode="&#x167;" horiz-adv-x="707" 
d="M407 -30q-135 0 -195 60.5t-60 192.5v259h-87q-12 1 -18 11.5t-6 22.5q0 43 24 53h87v338h-115q-12 1 -18 11.5t-6 22.5q0 43 28 43q64 7 105 34.5t69 87.5t51 162q3 15 14 19t29 4q20 0 24.5 -5t4.5 -19v-273h295q12 -1 18 -11.5t6 -22.5q0 -21 -8.5 -37t-19.5 -16h-291
v-338h306q12 -1 18 -11.5t6 -22.5q0 -43 -24 -53h-306v-186q0 -85 17 -129.5t43 -61t51 -16.5q69 0 109.5 13.5t77.5 38.5q10 7 20.5 -7t16.5 -32t-1 -24q-21 -18 -63 -43.5t-95 -45t-107 -19.5z" />
    <glyph glyph-name="Utilde" unicode="&#x168;" horiz-adv-x="1549" 
d="M1296 1230l-2 -714q-1 -271 -137 -408t-376 -137q-181 0 -298.5 69t-174.5 192t-57 284l1 718q0 43 -23 62.5t-55.5 26t-63.5 8.5q-21 2 -28.5 8.5t-7.5 28.5q0 11 8.5 31t25.5 20h508q17 0 25.5 -20t8.5 -31q0 -34 -33 -37q-52 -4 -102.5 -17.5t-50.5 -46.5l-1 -743
q0 -234 79.5 -346.5t242.5 -112.5q158 0 244 57.5t120 158.5t34 233v730q0 34 -32.5 51.5t-74 25t-69.5 10.5q-21 2 -28.5 8.5t-7.5 28.5q0 11 8.5 31t25.5 20h465q17 0 25.5 -20t8.5 -31q0 -36 -33 -37q-77 -4 -126 -28.5t-49 -72.5zM932 1533q-60 0 -106 31t-89.5 61.5
t-93.5 30.5q-31 0 -53.5 -22.5t-38 -45t-26.5 -22.5q-16 0 -31 18t-15 40q0 27 28 68.5t76 74t107 32.5q56 0 102 -30.5t90.5 -61.5t96.5 -31q31 0 53.5 22.5t38.5 45t26 22.5q16 0 32.5 -18t16.5 -40q0 -26 -29 -68t-77.5 -74.5t-107.5 -32.5z" />
    <glyph glyph-name="utilde" unicode="&#x169;" horiz-adv-x="1178" 
d="M489 -27q-72 0 -137.5 22.5t-107 86.5t-41.5 188v549q0 43 -19.5 62.5t-46.5 26t-52 8.5q-21 2 -28.5 8.5t-7.5 28.5q0 11 9 26t25 15h271q37 0 37 -36v-697q0 -24 7.5 -59t35 -62t86.5 -27q101 0 163.5 27.5t111.5 79.5v599q0 43 -24 62t-59 25.5t-69 9.5
q-21 2 -28.5 8.5t-7.5 28.5q0 11 9 26t25 15h303q37 0 37 -36v-748q0 -73 12.5 -97.5t28.5 -24.5q14 0 24.5 2t22.5 6q17 5 28.5 -11.5t11.5 -31.5q0 -11 -6 -16q-10 -11 -60.5 -36.5t-131.5 -25.5q-49 0 -78.5 36.5t-37.5 119.5q-17 -32 -64.5 -69t-111 -63t-130.5 -26z
M682 1117q-39 0 -72 20t-63 46.5t-57.5 46.5t-55.5 20q-31 0 -54 -24t-39 -48.5t-27 -24.5q-16 0 -31.5 19.5t-15.5 43.5q0 29 29 73.5t77.5 80t108.5 35.5q32 0 62.5 -20t61 -46.5t61 -46.5t63.5 -20q32 0 55 24.5t39 48.5t26 24q17 0 33.5 -19.5t16.5 -43.5
q0 -28 -29.5 -73t-79 -80.5t-109.5 -35.5z" />
    <glyph glyph-name="Umacron" unicode="&#x16a;" horiz-adv-x="1549" 
d="M1296 1230l-2 -714q-1 -271 -137 -408t-376 -137q-181 0 -298.5 69t-174.5 192t-57 284l1 718q0 43 -23 62.5t-55.5 26t-63.5 8.5q-21 2 -28.5 8.5t-7.5 28.5q0 11 8.5 31t25.5 20h508q17 0 25.5 -20t8.5 -31q0 -34 -33 -37q-52 -4 -102.5 -17.5t-50.5 -46.5l-1 -743
q0 -234 79.5 -346.5t242.5 -112.5q158 0 244 57.5t120 158.5t34 233v730q0 34 -32.5 51.5t-74 25t-69.5 10.5q-21 2 -28.5 8.5t-7.5 28.5q0 11 8.5 31t25.5 20h465q17 0 25.5 -20t8.5 -31q0 -36 -33 -37q-77 -4 -126 -28.5t-49 -72.5zM519 1607v141h588v-141h-588z" />
    <glyph glyph-name="umacron" unicode="&#x16b;" horiz-adv-x="1178" 
d="M489 -27q-72 0 -137.5 22.5t-107 86.5t-41.5 188v549q0 43 -19.5 62.5t-46.5 26t-52 8.5q-21 2 -28.5 8.5t-7.5 28.5q0 11 9 26t25 15h271q37 0 37 -36v-697q0 -24 7.5 -59t35 -62t86.5 -27q101 0 163.5 27.5t111.5 79.5v599q0 43 -24 62t-59 25.5t-69 9.5
q-21 2 -28.5 8.5t-7.5 28.5q0 11 9 26t25 15h303q37 0 37 -36v-748q0 -73 12.5 -97.5t28.5 -24.5q14 0 24.5 2t22.5 6q17 5 28.5 -11.5t11.5 -31.5q0 -11 -6 -16q-10 -11 -60.5 -36.5t-131.5 -25.5q-49 0 -78.5 36.5t-37.5 119.5q-17 -32 -64.5 -69t-111 -63t-130.5 -26z
M287 1156v141h588v-141h-588z" />
    <glyph glyph-name="Ubreve" unicode="&#x16c;" horiz-adv-x="1549" 
d="M1296 1230l-2 -714q-1 -271 -137 -408t-376 -137q-181 0 -298.5 69t-174.5 192t-57 284l1 718q0 43 -23 62.5t-55.5 26t-63.5 8.5q-21 2 -28.5 8.5t-7.5 28.5q0 11 8.5 31t25.5 20h508q17 0 25.5 -20t8.5 -31q0 -34 -33 -37q-52 -4 -102.5 -17.5t-50.5 -46.5l-1 -743
q0 -234 79.5 -346.5t242.5 -112.5q158 0 244 57.5t120 158.5t34 233v730q0 34 -32.5 51.5t-74 25t-69.5 10.5q-21 2 -28.5 8.5t-7.5 28.5q0 11 8.5 31t25.5 20h465q17 0 25.5 -20t8.5 -31q0 -36 -33 -37q-77 -4 -126 -28.5t-49 -72.5zM813 1599q-44 0 -100 13.5t-108 51
t-87 109.5t-38 189h113q3 -49 28 -98.5t72.5 -83t119.5 -33.5t120 33.5t72.5 83t27.5 98.5h113q-3 -117 -38 -189t-87 -109.5t-108 -51t-100 -13.5z" />
    <glyph glyph-name="ubreve" unicode="&#x16d;" horiz-adv-x="1178" 
d="M489 -27q-72 0 -137.5 22.5t-107 86.5t-41.5 188v549q0 43 -19.5 62.5t-46.5 26t-52 8.5q-21 2 -28.5 8.5t-7.5 28.5q0 11 9 26t25 15h271q37 0 37 -36v-697q0 -24 7.5 -59t35 -62t86.5 -27q101 0 163.5 27.5t111.5 79.5v599q0 43 -24 62t-59 25.5t-69 9.5
q-21 2 -28.5 8.5t-7.5 28.5q0 11 9 26t25 15h303q37 0 37 -36v-748q0 -73 12.5 -97.5t28.5 -24.5q14 0 24.5 2t22.5 6q17 5 28.5 -11.5t11.5 -31.5q0 -11 -6 -16q-10 -11 -60.5 -36.5t-131.5 -25.5q-49 0 -78.5 36.5t-37.5 119.5q-17 -32 -64.5 -69t-111 -63t-130.5 -26z
M581 1184q-44 0 -100 13.5t-108 51t-87 109.5t-38 189h113q3 -49 28 -98.5t72.5 -83t119.5 -33.5t120 33.5t72.5 83t27.5 98.5h113q-3 -117 -38 -189t-87 -109.5t-108 -51t-100 -13.5z" />
    <glyph glyph-name="Uring" unicode="&#x16e;" horiz-adv-x="1549" 
d="M1296 1230l-2 -714q-1 -271 -137 -408t-376 -137q-181 0 -298.5 69t-174.5 192t-57 284l1 718q0 43 -23 62.5t-55.5 26t-63.5 8.5q-21 2 -28.5 8.5t-7.5 28.5q0 11 8.5 31t25.5 20h508q17 0 25.5 -20t8.5 -31q0 -34 -33 -37q-52 -4 -102.5 -17.5t-50.5 -46.5l-1 -743
q0 -234 79.5 -346.5t242.5 -112.5q158 0 244 57.5t120 158.5t34 233v730q0 34 -32.5 51.5t-74 25t-69.5 10.5q-21 2 -28.5 8.5t-7.5 28.5q0 11 8.5 31t25.5 20h465q17 0 25.5 -20t8.5 -31q0 -36 -33 -37q-77 -4 -126 -28.5t-49 -72.5zM813 1567q-117 0 -199.5 70t-82.5 188
q0 119 82.5 188t199.5 69q116 0 199 -70.5t83 -189.5q0 -118 -83 -186.5t-199 -68.5zM813 1672q86 0 122.5 46t36.5 108t-36.5 107t-122.5 45q-85 0 -121.5 -46t-36.5 -108t36.5 -107t121.5 -45z" />
    <glyph glyph-name="uring" unicode="&#x16f;" horiz-adv-x="1178" 
d="M489 -27q-72 0 -137.5 22.5t-107 86.5t-41.5 188v549q0 43 -19.5 62.5t-46.5 26t-52 8.5q-21 2 -28.5 8.5t-7.5 28.5q0 11 9 26t25 15h271q37 0 37 -36v-697q0 -24 7.5 -59t35 -62t86.5 -27q101 0 163.5 27.5t111.5 79.5v599q0 43 -24 62t-59 25.5t-69 9.5
q-21 2 -28.5 8.5t-7.5 28.5q0 11 9 26t25 15h303q37 0 37 -36v-748q0 -73 12.5 -97.5t28.5 -24.5q14 0 24.5 2t22.5 6q17 5 28.5 -11.5t11.5 -31.5q0 -11 -6 -16q-10 -11 -60.5 -36.5t-131.5 -25.5q-49 0 -78.5 36.5t-37.5 119.5q-17 -32 -64.5 -69t-111 -63t-130.5 -26z
M581 1122q-117 0 -199.5 70t-82.5 188q0 119 82.5 188t199.5 69q116 0 199 -70.5t83 -189.5q0 -118 -83 -186.5t-199 -68.5zM581 1227q86 0 122.5 46t36.5 108t-36.5 107t-122.5 45q-85 0 -121.5 -46t-36.5 -108t36.5 -107t121.5 -45z" />
    <glyph glyph-name="Uhungarumlaut" unicode="&#x170;" horiz-adv-x="1549" 
d="M1296 1230l-2 -714q-1 -271 -137 -408t-376 -137q-181 0 -298.5 69t-174.5 192t-57 284l1 718q0 43 -23 62.5t-55.5 26t-63.5 8.5q-21 2 -28.5 8.5t-7.5 28.5q0 11 8.5 31t25.5 20h508q17 0 25.5 -20t8.5 -31q0 -34 -33 -37q-52 -4 -102.5 -17.5t-50.5 -46.5l-1 -743
q0 -234 79.5 -346.5t242.5 -112.5q158 0 244 57.5t120 158.5t34 233v730q0 34 -32.5 51.5t-74 25t-69.5 10.5q-21 2 -28.5 8.5t-7.5 28.5q0 11 8.5 31t25.5 20h465q17 0 25.5 -20t8.5 -31q0 -36 -33 -37q-77 -4 -126 -28.5t-49 -72.5zM982 1526l-64 48q106 161 165.5 275
t78.5 140q15 20 37.5 34.5t49.5 14.5q31 0 60 -22q38 -28 38 -70q0 -20 -8.5 -39t-20.5 -35q-13 -17 -62 -58t-120.5 -111.5t-153.5 -176.5zM618 1526l-64 48q106 161 156 275.5t69 139.5q15 20 37.5 34.5t49.5 14.5q32 0 59 -22q36 -28 36 -67q0 -21 -9 -40.5t-21 -36.5
q-19 -26 -105 -106.5t-208 -239.5z" />
    <glyph glyph-name="uhungarumlaut" unicode="&#x171;" horiz-adv-x="1178" 
d="M489 -27q-72 0 -137.5 22.5t-107 86.5t-41.5 188v549q0 43 -19.5 62.5t-46.5 26t-52 8.5q-21 2 -28.5 8.5t-7.5 28.5q0 11 9 26t25 15h271q37 0 37 -36v-697q0 -24 7.5 -59t35 -62t86.5 -27q101 0 163.5 27.5t111.5 79.5v599q0 43 -24 62t-59 25.5t-69 9.5
q-21 2 -28.5 8.5t-7.5 28.5q0 11 9 26t25 15h303q37 0 37 -36v-748q0 -73 12.5 -97.5t28.5 -24.5q14 0 24.5 2t22.5 6q17 5 28.5 -11.5t11.5 -31.5q0 -11 -6 -16q-10 -11 -60.5 -36.5t-131.5 -25.5q-49 0 -78.5 36.5t-37.5 119.5q-17 -32 -64.5 -69t-111 -63t-130.5 -26z
M724 1121l-64 44q106 149 165.5 254t78.5 129q15 19 37.5 32t49.5 13q32 0 60 -20q38 -27 38 -65q0 -19 -8.5 -36.5t-20.5 -31.5q-13 -16 -62 -54t-120.5 -102.5t-153.5 -162.5zM360 1121l-64 44q106 149 156 254.5t69 128.5q15 18 37.5 31.5t49.5 13.5q32 0 59 -20
q36 -26 36 -62q0 -19 -9 -37.5t-21 -33.5q-19 -24 -105 -98.5t-208 -220.5z" />
    <glyph glyph-name="Uogonek" unicode="&#x172;" horiz-adv-x="1549" 
d="M1296 1230l-2 -714q-1 -271 -137 -408t-376 -137q-181 0 -298.5 69t-174.5 192t-57 284l1 718q0 43 -23 62.5t-55.5 26t-63.5 8.5q-21 2 -28.5 8.5t-7.5 28.5q0 11 8.5 31t25.5 20h508q17 0 25.5 -20t8.5 -31q0 -34 -33 -37q-52 -4 -102.5 -17.5t-50.5 -46.5l-1 -743
q0 -234 79.5 -346.5t242.5 -112.5q158 0 244 57.5t120 158.5t34 233v730q0 34 -32.5 51.5t-74 25t-69.5 10.5q-21 2 -28.5 8.5t-7.5 28.5q0 11 8.5 31t25.5 20h465q17 0 25.5 -20t8.5 -31q0 -36 -33 -37q-77 -4 -126 -28.5t-49 -72.5zM994 80l22 -50q-211 -102 -211 -235
q0 -58 30 -98t108 -40q27 0 47.5 4.5t54.5 21.5q8 4 14.5 -8t6.5 -35q0 -31 -24 -49q-32 -25 -80.5 -41t-104.5 -16q-118 0 -175.5 61t-57.5 129q0 98 80 176t233 119z" />
    <glyph glyph-name="uogonek" unicode="&#x173;" horiz-adv-x="1178" 
d="M489 -27q-72 0 -137.5 22.5t-107 86.5t-41.5 188v549q0 43 -19.5 62.5t-46.5 26t-52 8.5q-21 2 -28.5 8.5t-7.5 28.5q0 11 9 26t25 15h271q37 0 37 -36v-697q0 -24 7.5 -59t35 -62t86.5 -27q101 0 163.5 27.5t111.5 79.5v599q0 43 -24 62t-59 25.5t-69 9.5
q-21 2 -28.5 8.5t-7.5 28.5q0 11 9 26t25 15h303q37 0 37 -36v-748q0 -73 12.5 -97.5t28.5 -24.5q14 0 24.5 2t22.5 6q17 5 28.5 -11.5t11.5 -31.5q0 -11 -6 -16q-10 -11 -60.5 -36.5t-131.5 -25.5q-49 0 -78.5 36.5t-37.5 119.5q-17 -32 -64.5 -69t-111 -63t-130.5 -26z
M983 80l22 -50q-211 -102 -211 -235q0 -58 30 -98t108 -40q27 0 47.5 4.5t54.5 21.5q8 4 14.5 -8t6.5 -35q0 -31 -24 -49q-32 -25 -80.5 -41t-104.5 -16q-118 0 -175.5 61t-57.5 129q0 98 80 176t233 119z" />
    <glyph glyph-name="Wcircumflex" unicode="&#x174;" horiz-adv-x="1998" 
d="M552 -18l-369 1272q-16 44 -42.5 58.5t-55 15.5t-53.5 3q-21 2 -28.5 8.5t-7.5 28.5q0 11 9 31t25 20h515q17 0 25.5 -20t8.5 -31q0 -33 -33 -37q-62 -4 -111 -5.5t-49 -27.5q0 -3 2 -11l276 -1001l337 1113h108l355 -1117l269 1005q1 3 1 8q0 20 -26.5 26t-66.5 7t-83 3
q-33 4 -33 37q0 11 8.5 31t25.5 20h445q17 0 25.5 -20t8.5 -31q0 -22 -7.5 -28.5t-28.5 -8.5q-24 -2 -54.5 -2.5t-56.5 -15t-40 -59.5l-373 -1272h-123l-354 1064l-326 -1064h-123zM719 1545l245 348q17 21 38 36t57 15q37 0 58 -17.5t37 -42.5l245 -339h-113l-227 221
l-222 -221h-118z" />
    <glyph glyph-name="wcircumflex" unicode="&#x175;" horiz-adv-x="1510" 
d="M414 -9l-306 838q-30 50 -57.5 66.5t-64.5 20.5q-21 2 -28.5 8.5t-7.5 28.5q0 11 9 26t25 15h405q17 0 25.5 -15t8.5 -26q0 -33 -33 -37q-37 -4 -71.5 -12.5t-34.5 -41.5l215 -587l230 701h96l255 -698l201 584q0 22 -21.5 32.5t-50.5 14.5t-54 7q-33 4 -33 37
q0 11 8.5 26t25.5 15h325q17 0 25.5 -15t8.5 -26q0 -22 -7.5 -28.5t-28.5 -8.5q-37 -4 -59.5 -20.5t-52.5 -66.5l-297 -838h-74l-265 720l-243 -720h-74zM449 1110l245 388q17 21 38 36t57 15q37 0 58 -17.5t37 -42.5l245 -379h-113l-227 261l-222 -261h-118z" />
    <glyph glyph-name="Ycircumflex" unicode="&#x176;" horiz-adv-x="1260" 
d="M360 0q-17 0 -25.5 20t-8.5 31q0 32 43 37q34 3 72 4t65.5 13t27.5 47v382l-391 720q-34 62 -74 72.5t-77 14.5q-21 2 -28.5 8.5t-7.5 28.5q0 11 9 26t25 15h522q17 0 25.5 -15t8.5 -26q0 -33 -33 -37q-59 -3 -105.5 -9.5t-46.5 -29.5q0 -7 4 -15l313 -632l323 632
q4 8 4 16q-3 22 -48 28.5t-104 9.5q-33 4 -33 37q0 11 8.5 26t25.5 15h415q17 0 25.5 -15t8.5 -26q0 -22 -7.5 -28.5t-28.5 -8.5q-37 -4 -77 -14.5t-74 -72.5l-375 -687v-402q0 -43 29 -57t69.5 -15t73.5 -5q21 -2 33.5 -8t12.5 -29q0 -11 -8.5 -31t-25.5 -20h-565z
M304 1545l245 348q17 21 38 36t57 15q37 0 58 -17.5t37 -42.5l245 -339h-113l-227 221l-222 -221h-118z" />
    <glyph glyph-name="ycircumflex" unicode="&#x177;" horiz-adv-x="1008" 
d="M246 -449q-71 0 -123.5 35.5t-52.5 87.5q0 68 32 95t54 27l124 -122q26 5 55.5 30.5t64.5 88.5t77 179l-338 857q-30 50 -57.5 66.5t-64.5 20.5q-21 2 -28.5 8.5t-7.5 28.5q0 11 8.5 26t24.5 15h413q17 0 25.5 -15t8.5 -26q0 -33 -33 -37q-37 -4 -71.5 -12.5t-34.5 -41.5
l244 -663l220 663q0 33 -39.5 41.5t-76.5 12.5q-33 4 -33 37q0 11 8.5 26t25.5 15h335q17 0 25.5 -15t8.5 -26q0 -22 -7.5 -28.5t-28.5 -8.5q-37 -4 -59.5 -20.5t-52.5 -66.5l-303 -838q-21 -58 -51 -133t-71 -145.5t-95.5 -116t-125.5 -45.5zM169 1110l245 388q17 21 38 36
t57 15q37 0 58 -17.5t37 -42.5l245 -379h-113l-227 261l-222 -261h-118z" />
    <glyph glyph-name="Ydieresis" unicode="&#x178;" horiz-adv-x="1260" 
d="M360 0q-17 0 -25.5 20t-8.5 31q0 32 43 37q34 3 72 4t65.5 13t27.5 47v382l-391 720q-34 62 -74 72.5t-77 14.5q-21 2 -28.5 8.5t-7.5 28.5q0 11 9 26t25 15h522q17 0 25.5 -15t8.5 -26q0 -33 -33 -37q-59 -3 -105.5 -9.5t-46.5 -29.5q0 -7 4 -15l313 -632l323 632
q4 8 4 16q-3 22 -48 28.5t-104 9.5q-33 4 -33 37q0 11 8.5 26t25.5 15h415q17 0 25.5 -15t8.5 -26q0 -22 -7.5 -28.5t-28.5 -8.5q-37 -4 -77 -14.5t-74 -72.5l-375 -687v-402q0 -43 29 -57t69.5 -15t73.5 -5q21 -2 33.5 -8t12.5 -29q0 -11 -8.5 -31t-25.5 -20h-565z
M856 1605q-55 0 -83 38t-28 96q0 59 28 96.5t83 37.5t83 -37.5t28 -96.5q0 -58 -28 -96t-83 -38zM432 1605q-55 0 -83 38t-28 96q0 59 28 96.5t83 37.5t83 -37.5t28 -96.5q0 -58 -28 -96t-83 -38z" />
    <glyph glyph-name="Zacute" unicode="&#x179;" horiz-adv-x="1232" 
d="M89 0q-24 0 -24 24v16q0 10 7.5 26t34.5 57l705 1078l92 135h-505q-33 0 -68.5 -41.5t-66 -99t-50.5 -108t-22 -68.5q-4 -33 -37 -33q-11 0 -21.5 8.5t-9.5 25.5l29 358q18 40 47 41h942q24 0 24 -24v-27q0 -11 -10 -28l-714 -1092l-111 -165h504q26 0 59.5 30.5t67.5 77
t63 96.5t47.5 89t20.5 54q4 33 37 33q11 0 27 -8.5t14 -25.5l-50 -388q-18 -40 -47 -41h-985zM560 1526l-56 58q123 142 195 246t95 126q16 15 38 25.5t47 10.5q40 0 72 -33q28 -31 28 -66q0 -24 -11 -45t-27 -37q-23 -22 -125.5 -85t-255.5 -200z" />
    <glyph glyph-name="zacute" unicode="&#x17a;" horiz-adv-x="909" 
d="M71 0q-12 0 -24.5 9.5t-12.5 30.5q0 17 11.5 36t30.5 47l476 698l70 90h-333q-33 0 -60 -31t-47 -74.5t-32 -83.5t-14 -58q-4 -33 -37 -33q-11 0 -21.5 8.5t-9.5 25.5l20 288q0 18 16 29t31 12h678q12 0 23 -11.5t11 -25.5q0 -21 -9 -38t-17 -28l-477 -698l-88 -110h357
q33 0 62.5 32.5t52.5 78t37 87t16 59.5q4 33 37 33q11 0 22 -8.5t9 -25.5l-20 -298q0 -19 -16 -29.5t-31 -11.5h-711zM368 1094l-56 58q123 142 195 246t95 126q16 15 38 25.5t47 10.5q18 0 37 -7.5t35 -25.5q28 -31 28 -66q0 -24 -11 -45t-27 -37q-23 -23 -125.5 -85.5
t-255.5 -199.5z" />
    <glyph glyph-name="Zdotaccent" unicode="&#x17b;" horiz-adv-x="1232" 
d="M89 0q-24 0 -24 24v16q0 10 7.5 26t34.5 57l705 1078l92 135h-505q-33 0 -68.5 -41.5t-66 -99t-50.5 -108t-22 -68.5q-4 -33 -37 -33q-11 0 -21.5 8.5t-9.5 25.5l29 358q18 40 47 41h942q24 0 24 -24v-27q0 -11 -10 -28l-714 -1092l-111 -165h504q26 0 59.5 30.5t67.5 77
t63 96.5t47.5 89t20.5 54q4 33 37 33q11 0 27 -8.5t14 -25.5l-50 -388q-18 -40 -47 -41h-985zM656 1546q-55 0 -88 40.5t-33 98.5q0 59 33 99t88 40t88 -40t33 -99q0 -58 -33 -98.5t-88 -40.5z" />
    <glyph glyph-name="zdotaccent" unicode="&#x17c;" horiz-adv-x="909" 
d="M71 0q-12 0 -24.5 9.5t-12.5 30.5q0 17 11.5 36t30.5 47l476 698l70 90h-333q-33 0 -60 -31t-47 -74.5t-32 -83.5t-14 -58q-4 -33 -37 -33q-11 0 -21.5 8.5t-9.5 25.5l20 288q0 18 16 29t31 12h678q12 0 23 -11.5t11 -25.5q0 -21 -9 -38t-17 -28l-477 -698l-88 -110h357
q33 0 62.5 32.5t52.5 78t37 87t16 59.5q4 33 37 33q11 0 22 -8.5t9 -25.5l-20 -298q0 -19 -16 -29.5t-31 -11.5h-711zM470 1173q-55 0 -88 40.5t-33 98.5q0 59 33 99t88 40t88 -40t33 -99q0 -58 -33 -98.5t-88 -40.5z" />
    <glyph glyph-name="Zcaron" unicode="&#x17d;" horiz-adv-x="1232" 
d="M89 0q-24 0 -24 24v16q0 10 7.5 26t34.5 57l705 1078l92 135h-505q-33 0 -68.5 -41.5t-66 -99t-50.5 -108t-22 -68.5q-4 -33 -37 -33q-11 0 -21.5 8.5t-9.5 25.5l29 358q18 40 47 41h942q24 0 24 -24v-27q0 -11 -10 -28l-714 -1092l-111 -165h504q26 0 59.5 30.5t67.5 77
t63 96.5t47.5 89t20.5 54q4 33 37 33q11 0 27 -8.5t14 -25.5l-50 -388q-18 -40 -47 -41h-985zM656 1555q-36 0 -57 15t-38 36l-245 348h118l222 -221l227 221h113l-245 -339q-16 -25 -37 -42.5t-58 -17.5z" />
    <glyph glyph-name="zcaron" unicode="&#x17e;" horiz-adv-x="909" 
d="M71 0q-12 0 -24.5 9.5t-12.5 30.5q0 17 11.5 36t30.5 47l476 698l70 90h-333q-33 0 -60 -31t-47 -74.5t-32 -83.5t-14 -58q-4 -33 -37 -33q-11 0 -21.5 8.5t-9.5 25.5l20 288q0 18 16 29t31 12h678q12 0 23 -11.5t11 -25.5q0 -21 -9 -38t-17 -28l-477 -698l-88 -110h357
q33 0 62.5 32.5t52.5 78t37 87t16 59.5q4 33 37 33q11 0 22 -8.5t9 -25.5l-20 -298q0 -19 -16 -29.5t-31 -11.5h-711zM469 1111q-36 0 -56.5 14.5t-37.5 35.5l-245 358h118l222 -231l227 231h113l-248 -358q-16 -18 -36 -34t-57 -16z" />
    <glyph glyph-name="longs" unicode="&#x17f;" horiz-adv-x="613" 
d="M97 0q-17 0 -25.5 15t-8.5 26q0 33 33 37q37 5 76.5 18t39.5 46v933q0 128 42.5 241.5t125 185t203.5 71.5q96 0 146 -40.5t56 -91.5q5 -39 -17.5 -68.5t-52 -46.5t-47.5 -17q-9 0 -12 3l-109 163q-37 -6 -71 -32t-56 -102.5t-22 -233.5v-932q0 -43 27 -62t65 -25t70 -10
q21 -2 28.5 -8t7.5 -29q0 -11 -8.5 -26t-25.5 -15h-465z" />
    <glyph glyph-name="uni018F" unicode="&#x18f;" horiz-adv-x="1485" 
d="M722 -30q-169 0 -283.5 59t-183 153t-98 200.5t-29.5 200.5q0 59 7.5 96t16.5 37h991q-1 164 -33 276.5t-83 183.5t-110.5 109.5t-118 53t-103.5 14.5q-118 1 -199.5 -42.5t-131.5 -115.5t-74 -156q-4 -29 -37 -29q-3 0 -5.5 0.5t-5.5 0.5q-12 0 -25 11.5t-11 28.5
l22 310q36 16 94 36.5t148.5 36t222.5 15.5q111 0 233 -39t227.5 -126t172 -229.5t66.5 -348.5q0 -207 -65 -348.5t-168 -227t-219 -123t-218 -37.5zM706 65q60 0 131 28.5t136.5 93t111.5 173t56 268.5h-789q-2 -12 -6.5 -37t-4.5 -69q0 -125 45.5 -229t127.5 -166t192 -62
z" />
    <glyph glyph-name="florin" unicode="&#x192;" horiz-adv-x="1063" 
d="M42 -460q-96 0 -146 43.5t-50 95.5q0 55 41.5 78.5t70.5 23.5l119 -149q43 2 79.5 32t66.5 110.5t54 231.5l79 503h-161q-12 1 -18 11.5t-6 22.5q0 43 24 53h174l35 223q20 127 70 241t136.5 185.5t214.5 71.5q96 0 146 -43.5t50 -95.5q0 -55 -41.5 -78.5t-70.5 -23.5
l-119 149q-43 -2 -78.5 -26.5t-65.5 -103t-56 -244.5l-40 -255h294q12 -1 18 -11.5t6 -22.5q0 -43 -24 -53h-307l-74 -471q-20 -127 -70.5 -241t-136.5 -185.5t-214 -71.5z" />
    <glyph glyph-name="Ohorn" unicode="&#x1a0;" horiz-adv-x="1524" 
d="M748 -29q-158 0 -281.5 58t-209 160.5t-130 237.5t-44.5 289q0 205 81 371t232 264t362 98q146 0 268 -51q117 3 194 70.5t77 175.5v20t-1 16h173q5 -28 5 -47q0 -82 -33 -140t-83 -94t-104.5 -54t-98.5 -22q129 -98 196.5 -257t67.5 -350q0 -154 -45.5 -289t-132 -237.5
t-211 -160.5t-282.5 -58zM752 65q166 0 256 78.5t125.5 224t35.5 346.5t-36.5 345t-128.5 220.5t-257 76.5q-166 0 -256.5 -76.5t-125 -220.5t-34.5 -345t36.5 -346.5t128 -224t256.5 -78.5z" />
    <glyph glyph-name="ohorn" unicode="&#x1a1;" horiz-adv-x="1104" 
d="M77 492q0 144 57.5 262.5t165 189t257.5 70.5q76 0 143 -20q79 1 126 42t68 95.5t21 95.5v20t-1 16h173q2 -13 4 -24.5t1 -22.5q-5 -75 -45 -141t-96 -107.5t-110 -45.5q90 -70 138 -183t48 -247q0 -144 -56.5 -262t-163.5 -188.5t-257 -70.5t-255.5 70.5t-161.5 188.5
t-56 262zM292 492q0 -201 55 -313.5t206 -112.5t204 112.5t53 313.5t-55 313.5t-206 112.5t-204 -113t-53 -313z" />
    <glyph glyph-name="Uhorn" unicode="&#x1af;" horiz-adv-x="1549" 
d="M1296 1230l-2 -714q-1 -271 -137 -408t-376 -137q-181 0 -298.5 69t-174.5 192t-57 284l1 718q0 43 -23 62.5t-55.5 26t-63.5 8.5q-21 2 -28.5 8.5t-7.5 28.5q0 11 8.5 31t25.5 20h506q17 0 25.5 -20t8.5 -31q0 -34 -33 -37q-52 -4 -103.5 -17.5t-51.5 -46.5l-1 -743
q0 -234 85 -346.5t241 -112.5q158 0 244 57.5t120 158.5t34 233v730q0 34 -32.5 51.5t-74 25t-69.5 10.5q-21 2 -28.5 8.5t-7.5 28.5q0 11 8.5 31t25.5 20h348q60 13 89.5 53.5t39.5 88t10 83.5v20t-1 16h173q2 -13 4 -24.5t1 -22.5q-5 -77 -41.5 -148.5t-100 -117
t-149.5 -45.5q-82 0 -82 -92z" />
    <glyph glyph-name="uhorn" unicode="&#x1b0;" horiz-adv-x="1178" 
d="M475 -27q-72 0 -137.5 22.5t-107 86.5t-41.5 188v549q0 65 -36.5 79t-73.5 18q-21 2 -28.5 8.5t-7.5 28.5q0 11 9 26t25 15h263q37 0 37 -36v-697q0 -24 7.5 -59t35 -62t86.5 -27q101 0 163.5 27.5t111.5 79.5v599q0 43 -24 62t-59 25.5t-69 9.5q-21 2 -28.5 8.5
t-7.5 28.5q0 11 9 26t25 15h205q80 0 119 41.5t51.5 96.5t12.5 95v20t-1 16h173q2 -13 4 -24.5t1 -22.5q-5 -76 -38.5 -142t-83.5 -107.5t-103 -44.5v-712q0 -52 11 -87t27 -35q14 0 27 1.5t31 6.5q17 5 28.5 -11.5t11.5 -31.5q0 -11 -6 -16q-10 -11 -58 -36.5t-129 -25.5
q-49 0 -82 43t-47 113q-17 -32 -64.5 -69t-111 -63t-130.5 -26z" />
    <glyph glyph-name="uni01C4" unicode="&#x1c4;" horiz-adv-x="2766" 
d="M140 0q-17 0 -25.5 20t-8.5 31q0 33 33 37q48 4 96.5 17.5t48.5 46.5v1082q0 43 -25.5 62t-60.5 25.5t-66 9.5q-21 2 -28.5 8.5t-7.5 28.5q0 11 8.5 31t25.5 20h596q204 -1 344 -58t225 -154t123 -218.5t38 -250.5q0 -195 -62.5 -335t-164 -229t-220 -131.5t-231.5 -42.5
h-638zM496 168q0 -14 16 -29.5t60.5 -26.5t131.5 -11q91 0 181 19.5t163.5 82t117.5 189.5t44 342q0 186 -47 301.5t-123.5 178t-167.5 85.5t-178 23h-197zM1623 0q-24 0 -24 24v16q0 10 7.5 26t34.5 57l705 1078l92 135h-505q-33 0 -68.5 -41.5t-66 -99t-50.5 -108
t-22 -68.5q-4 -33 -37 -33q-11 0 -21.5 8.5t-9.5 25.5l29 358q18 40 47 41h942q24 0 24 -24v-27q0 -11 -10 -28l-714 -1092l-111 -165h504q26 0 59.5 30.5t67.5 77t63 96.5t47.5 89t20.5 54q4 33 37 33q11 0 27 -8.5t14 -25.5l-50 -388q-18 -40 -47 -41h-985zM2190 1555
q-36 0 -57 15t-38 36l-245 348h118l222 -221l227 221h113l-245 -339q-16 -25 -37 -42.5t-58 -17.5z" />
    <glyph glyph-name="uni01C5" unicode="&#x1c5;" horiz-adv-x="2443" 
d="M140 0q-17 0 -25.5 20t-8.5 31q0 33 33 37q48 4 96.5 17.5t48.5 46.5v1082q0 43 -25.5 62t-60.5 25.5t-66 9.5q-21 2 -28.5 8.5t-7.5 28.5q0 11 8.5 31t25.5 20h596q204 -1 344 -58t225 -154t123 -218.5t38 -250.5q0 -195 -62.5 -335t-164 -229t-220 -131.5t-231.5 -42.5
h-638zM496 168q0 -14 16 -29.5t60.5 -26.5t131.5 -11q91 0 181 19.5t163.5 82t117.5 189.5t44 342q0 186 -47 301.5t-123.5 178t-167.5 85.5t-178 23h-197zM1605 0q-12 0 -24.5 9.5t-12.5 30.5q0 17 11.5 36t30.5 47l476 698l70 90h-333q-33 0 -60 -31t-47 -74.5t-32 -83.5
t-14 -58q-4 -33 -37 -33q-11 0 -21.5 8.5t-9.5 25.5l20 288q0 18 16 29t31 12h678q12 0 23 -11.5t11 -25.5q0 -21 -9 -38t-17 -28l-477 -698l-88 -110h357q33 0 62.5 32.5t52.5 78t37 87t16 59.5q4 33 37 33q11 0 22 -8.5t9 -25.5l-20 -298q0 -19 -16 -29.5t-31 -11.5h-711z
M2003 1111q-36 0 -56.5 14.5t-37.5 35.5l-245 358h118l222 -231l227 231h113l-248 -358q-16 -18 -36 -34t-57 -16z" />
    <glyph glyph-name="uni01C6" unicode="&#x1c6;" horiz-adv-x="2085" 
d="M525 -29q-157 0 -252.5 74t-138 193t-42.5 254t48 254t148.5 193.5t258.5 74.5q82 0 154 -17.5t118 -62.5l-10 170v235q0 47 -21.5 70.5t-53 33t-63 13t-51.5 8.5q-10 5 -17 13t-7 27q0 12 6 28t18 17q67 4 135.5 6t125 2.5t84.5 0.5q8 0 18 -8t12 -32v-1343
q0 -64 37.5 -78.5t74.5 -18.5q21 -2 28.5 -8t7.5 -29q0 -11 -8.5 -26t-25.5 -15h-224q-56 0 -66.5 25t-9.5 72q-52 -57 -132.5 -91.5t-151.5 -34.5zM588 66q58 0 123 33t98 77v638q-56 105 -225 105q-111 0 -171.5 -56t-83.5 -152.5t-23 -218.5q0 -119 24 -216t85 -153.5
t173 -56.5zM1247 0q-12 0 -24.5 9.5t-12.5 30.5q0 17 11.5 36t30.5 47l476 698l70 90h-333q-33 0 -60 -31t-47 -74.5t-32 -83.5t-14 -58q-4 -33 -37 -33q-11 0 -21.5 8.5t-9.5 25.5l20 288q0 18 16 29t31 12h678q12 0 23 -11.5t11 -25.5q0 -21 -9 -38t-17 -28l-477 -698
l-88 -110h357q33 0 62.5 32.5t52.5 78t37 87t16 59.5q4 33 37 33q11 0 22 -8.5t9 -25.5l-20 -298q0 -19 -16 -29.5t-31 -11.5h-711zM1645 1111q-36 0 -56.5 14.5t-37.5 35.5l-245 358h118l222 -231l227 231h113l-248 -358q-16 -18 -36 -34t-57 -16z" />
    <glyph glyph-name="uni01C7" unicode="&#x1c7;" horiz-adv-x="2296" 
d="M139 0q-17 0 -25.5 20t-8.5 31q0 33 33 37q48 4 91.5 17.5t43.5 46.5l1 1082q0 43 -23 62t-55.5 25.5t-63.5 9.5q-21 2 -28.5 8.5t-7.5 28.5q0 11 8.5 31t25.5 20h513q17 0 25.5 -20t8.5 -31q0 -37 -33 -37t-72 -8t-66.5 -28.5t-27.5 -57.5l-1 -1060q0 -49 34 -62.5
t71 -13.5h285q47 0 90.5 54.5t79.5 133.5t60 151q11 33 48 33q44 0 40 -34l-49 -439h-997zM1640 -30q-67 0 -138.5 25t-137.5 81q-47 46 -65.5 99.5t-18.5 102.5q0 89 43.5 141t113.5 52q31 0 52.5 -10.5t21.5 -21.5l-44 -326q30 -23 71.5 -38.5t92.5 -15.5q105 0 167 81.5
t62 265.5l1 828q0 65 -38.5 79t-93.5 18q-21 2 -28.5 8.5t-7.5 28.5q0 11 8.5 31t25.5 20h465q17 0 25.5 -20t8.5 -31q0 -34 -33 -37q-44 -4 -85 -17.5t-41 -46.5v-828q0 -147 -44.5 -239t-112.5 -142t-140.5 -69t-129.5 -19z" />
    <glyph glyph-name="uni01C8" unicode="&#x1c8;" horiz-adv-x="1834" 
d="M139 0q-17 0 -25.5 20t-8.5 31q0 33 33 37q48 4 91.5 17.5t43.5 46.5l1 1082q0 43 -23 62t-55.5 25.5t-63.5 9.5q-21 2 -28.5 8.5t-7.5 28.5q0 11 8.5 31t25.5 20h513q17 0 25.5 -20t8.5 -31q0 -37 -33 -37t-72 -8t-66.5 -28.5t-27.5 -57.5l-1 -1060q0 -49 34 -62.5
t71 -13.5h285q47 0 90.5 54.5t79.5 133.5t60 151q11 33 48 33q44 0 40 -34l-49 -439h-997zM1353 -449q-96 0 -132 43.5t-36 95.5q0 56 39.5 83.5t67.5 27.5q30 0 43 -36.5t53 -111.5q50 3 65 85.5t15 245.5l1 794q0 62 -28.5 85t-66 28t-64.5 12q-10 5 -17 13t-7 27
q0 12 6 27.5t18 16.5q100 6 186 8t129 2q8 0 18 -8t12 -32l-1 -941q0 -125 -27.5 -231t-93.5 -170t-180 -64zM1538 1173q-55 0 -88 40.5t-33 98.5q0 59 33 99t88 40t88 -40t33 -99q0 -58 -33 -98.5t-88 -40.5z" />
    <glyph glyph-name="uni01C9" unicode="&#x1c9;" horiz-adv-x="1184" 
d="M73 0q-16 0 -26.5 12.5t-10.5 28.5q0 33 33 37q37 4 77 17.5t40 46.5l1 1197q0 62 -29 85t-67 28t-65 12q-10 5 -17 13t-7 27q0 12 6 28t18 17q100 6 186 7t129 2q8 0 18 -8t12 -32v-1343q0 -43 20.5 -62.5t49 -25.5t52.5 -9q36 -4 36 -34q0 -18 -10.5 -31t-28.5 -13
h-417zM703 -449q-96 0 -132 43.5t-36 95.5q0 56 39.5 83.5t67.5 27.5q30 0 43 -36.5t53 -111.5q50 3 65 85.5t15 245.5l1 794q0 62 -28.5 85t-66 28t-64.5 12q-10 5 -17 13t-7 27q0 12 6 27.5t18 16.5q100 6 186 8t129 2q8 0 18 -8t12 -32l-1 -941q0 -125 -27.5 -231
t-93.5 -170t-180 -64zM888 1173q-55 0 -88 40.5t-33 98.5q0 59 33 99t88 40t88 -40t33 -99q0 -58 -33 -98.5t-88 -40.5z" />
    <glyph glyph-name="uni01CA" unicode="&#x1ca;" horiz-adv-x="2631" 
d="M96 0q-17 0 -25.5 20t-8.5 31q0 33 33 37q32 3 68 10t61.5 24.5t25.5 49.5v1062q0 43 -27.5 62t-65 25.5t-68.5 9.5q-21 2 -28.5 8.5t-7.5 28.5q0 11 8.5 31t25.5 20h338l777 -1106h12v921q0 43 -32.5 62t-74.5 25.5t-73 9.5q-21 2 -28.5 8.5t-7.5 28.5q0 11 8.5 31
t25.5 20h455q17 0 25.5 -20t8.5 -31q0 -33 -33 -37q-30 -3 -71.5 -9.5t-72.5 -25.5t-31 -62v-1121q0 -19 2 -31.5t4 -41.5q3 -42 -18 -56t-42 -14q-36 0 -54 22l-839 1162h-17v-969q0 -43 30 -62t70 -25t70 -10q21 -2 28.5 -8t7.5 -29q0 -11 -8.5 -31t-25.5 -20h-425z
M1975 -30q-67 0 -138.5 25t-137.5 81q-47 46 -65.5 99.5t-18.5 102.5q0 89 43.5 141t113.5 52q31 0 52.5 -10.5t21.5 -21.5l-44 -326q30 -23 71.5 -38.5t92.5 -15.5q105 0 167 81.5t62 265.5l1 828q0 65 -38.5 79t-93.5 18q-21 2 -28.5 8.5t-7.5 28.5q0 11 8.5 31t25.5 20
h465q17 0 25.5 -20t8.5 -31q0 -34 -33 -37q-44 -4 -85 -17.5t-41 -46.5v-828q0 -147 -44.5 -239t-112.5 -142t-140.5 -69t-129.5 -19z" />
    <glyph glyph-name="uni01CB" unicode="&#x1cb;" horiz-adv-x="2169" 
d="M96 0q-17 0 -25.5 20t-8.5 31q0 33 33 37q32 3 68 10t61.5 24.5t25.5 49.5v1062q0 43 -27.5 62t-65 25.5t-68.5 9.5q-21 2 -28.5 8.5t-7.5 28.5q0 11 8.5 31t25.5 20h338l777 -1106h12v921q0 43 -32.5 62t-74.5 25.5t-73 9.5q-21 2 -28.5 8.5t-7.5 28.5q0 11 8.5 31
t25.5 20h455q17 0 25.5 -20t8.5 -31q0 -33 -33 -37q-30 -3 -71.5 -9.5t-72.5 -25.5t-31 -62v-1121q0 -19 2 -31.5t4 -41.5q3 -42 -18 -56t-42 -14q-36 0 -54 22l-839 1162h-17v-969q0 -43 30 -62t70 -25t70 -10q21 -2 28.5 -8t7.5 -29q0 -11 -8.5 -31t-25.5 -20h-425z
M1688 -449q-96 0 -132 43.5t-36 95.5q0 56 39.5 83.5t67.5 27.5q30 0 43 -36.5t53 -111.5q50 3 65 85.5t15 245.5l1 794q0 62 -28.5 85t-66 28t-64.5 12q-10 5 -17 13t-7 27q0 12 6 27.5t18 16.5q100 6 186 8t129 2q8 0 18 -8t12 -32l-1 -941q0 -125 -27.5 -231t-93.5 -170
t-180 -64zM1873 1173q-55 0 -88 40.5t-33 98.5q0 59 33 99t88 40t88 -40t33 -99q0 -58 -33 -98.5t-88 -40.5z" />
    <glyph glyph-name="uni01CC" unicode="&#x1cc;" horiz-adv-x="1808" 
d="M103 0q-17 0 -25.5 15t-8.5 26q0 33 33 37q37 5 76.5 18t39.5 46v636q0 62 -27 85t-62 28t-60 12q-10 5 -17 13t-7 27q0 12 6 28t18 17q97 6 175.5 7.5t119.5 1.5q8 0 18 -8t12 -32v-112q18 18 73.5 58.5t136.5 75.5t175 35q65 0 119.5 -18.5t87.5 -72t33 -157.5v-591
q0 -48 24 -67t56 -22.5t57 -7.5q17 -2 25 -8.5t8 -28.5q0 -11 -8.5 -26t-25.5 -15h-427q-17 0 -25.5 15t-8.5 26q0 16 6 26t25 11q32 2 69 19t37 45v653q0 17 -7.5 41t-35 42t-86.5 18q-62 0 -120 -20.5t-104 -49.5t-74 -55v-596q0 -64 37.5 -78.5t74.5 -18.5q21 -2 28.5 -8
t7.5 -29q0 -11 -8.5 -26t-25.5 -15h-415zM1327 -449q-96 0 -132 43.5t-36 95.5q0 56 39.5 83.5t67.5 27.5q30 0 43 -36.5t53 -111.5q50 3 65 85.5t15 245.5l1 794q0 62 -28.5 85t-66 28t-64.5 12q-10 5 -17 13t-7 27q0 12 6 27.5t18 16.5q100 6 186 8t129 2q8 0 18 -8
t12 -32l-1 -941q0 -125 -27.5 -231t-93.5 -170t-180 -64zM1512 1173q-55 0 -88 40.5t-33 98.5q0 59 33 99t88 40t88 -40t33 -99q0 -58 -33 -98.5t-88 -40.5z" />
    <glyph glyph-name="uni01CD" unicode="&#x1cd;" horiz-adv-x="1374" 
d="M7 0q-16 0 -25 15.5t-9 35.5q0 23 7.5 29t28.5 8q25 3 54.5 3.5t56 15t42.5 58.5l458 1276h160l445 -1276q16 -44 42 -58.5t55.5 -15t53.5 -3.5q21 -2 28.5 -8t7.5 -29q0 -11 -8.5 -31t-25.5 -20h-501q-17 0 -25.5 20t-8.5 31q0 33 33 37q61 3 99 5t38 25q0 7 -3 14
l-121 362h-480l-122 -362q-2 -5 -2 -12q0 -25 42.5 -26.5t103.5 -5.5q33 -4 33 -37q0 -11 -8.5 -31t-25.5 -20h-423zM659 1187l-219 -607h421zM682 1555q-36 0 -57 15t-38 36l-245 348h118l222 -221l227 221h113l-245 -339q-16 -25 -37 -42.5t-58 -17.5z" />
    <glyph glyph-name="uni01CE" unicode="&#x1ce;" horiz-adv-x="1032" 
d="M97 243q0 99 52.5 163.5t138.5 103t189 59t203 30.5v154q0 37 -18.5 76.5t-63 67t-124.5 27.5q-43 0 -64 -5.5t-34 -11.5l-120 -242q-56 0 -101.5 25.5t-45.5 90.5q0 60 50 113t142 86.5t217 33.5q113 0 182.5 -28t106 -75t49.5 -104.5t13 -117.5v-488q0 -39 11 -73
t27 -34q14 0 24.5 1.5t28.5 6.5q17 5 28.5 -11.5t11.5 -31.5q0 -11 -6 -16q-26 -19 -78 -40.5t-114 -21.5q-52 0 -78 22t-26 96v20q-65 -68 -140.5 -104t-180.5 -36q-60 0 -125 26t-110 84t-45 154zM306 248q0 -63 38.5 -110.5t104.5 -47.5q83 0 141.5 28t88.5 58v352
q-108 -16 -192 -41.5t-132.5 -80t-48.5 -158.5zM496 1111q-36 0 -56.5 14.5t-37.5 35.5l-245 358h118l222 -231l227 231h113l-248 -358q-16 -18 -36 -34t-57 -16z" />
    </font>
</defs>
</svg>
